<?xml version="1.0" encoding="utf-8"?>
<!-- Generator: Adobe Illustrator 25.2.1, SVG Export Plug-In . SVG Version: 6.00 Build 0)  -->
<svg version="1.1" id="Layer_1" xmlns="http://www.w3.org/2000/svg" xmlns:xlink="http://www.w3.org/1999/xlink" x="0px" y="0px"
	 viewBox="0 0 450 600" enable-background="new 0 0 450 600" xml:space="preserve">
<g opacity="0.25">
	<path fill="none" stroke="#FFFFFF" stroke-width="5" stroke-miterlimit="10" d="M-0.1,489.4c13.5,5.3,30.9,6.5,49.8,6.5
		c43.2,0,78.3-4.6,78.3-53.3V330.9c0-28.1-5.7-40.1-15.3-44.7c-3.8-1.8-6.2-5.6-6.2-9.8v-15.9l0,0c0-11.2-25.4-20.3-56.7-20.3
		c-21.4,0-40.1,4.2-49.7,10.5"/>
	
		<ellipse fill="none" stroke="#007DB9" stroke-width="2.42" stroke-linecap="round" stroke-linejoin="round" cx="33.2" cy="448.3" rx="29.2" ry="11.7"/>
	
		<ellipse fill="#007DB9" stroke="#007DB9" stroke-width="2.42" stroke-linecap="round" stroke-linejoin="round" cx="54.9" cy="460" rx="29.2" ry="11.7"/>
	<circle fill="none" stroke="#EC1C24" stroke-width="2" stroke-miterlimit="10" cx="219.2" cy="165.1" r="25.6"/>
	<circle fill="none" stroke="#EC1C24" stroke-width="2" stroke-miterlimit="10" cx="219.2" cy="138.7" r="25.6"/>
	<circle fill="#EC1C24" stroke="#EC1C24" stroke-width="2" stroke-miterlimit="10" cx="219.2" cy="68.3" r="25.6"/>
	<path fill="none" stroke="#EC1C24" stroke-width="2" stroke-miterlimit="10" d="M244.9,0.3c0,14.1-11.5,25.6-25.6,25.6
		c-14.1,0-25.6-11.5-25.6-25.6"/>
	<path fill="none" stroke="#00BCF1" stroke-width="5" stroke-linecap="round" stroke-linejoin="round" d="M160.5,512.9
		c0-11.9,26.9-21.5,60-21.5s60,9.6,60,21.5"/>
	<circle fill="none" stroke="#EC1C24" stroke-width="2" stroke-miterlimit="10" cx="220.5" cy="259.1" r="25.6"/>
	<circle fill="#EC1C24" stroke="#EC1C24" stroke-width="2" stroke-miterlimit="10" cx="386.5" cy="132.1" r="25.6"/>
	<circle fill="none" stroke="#EC1C24" stroke-width="2" stroke-miterlimit="10" cx="386.5" cy="68.7" r="25.6"/>
	<path fill="none" stroke="#EC1C24" stroke-width="2" stroke-miterlimit="10" d="M412.1,0c0,14.1-11.5,25.6-25.6,25.6
		c-14.1,0-25.6-11.5-25.6-25.6"/>
	<path fill="none" stroke="#00BCF1" stroke-width="5" stroke-linecap="round" stroke-linejoin="round" d="M327.7,437.1
		c0-11.9,26.9-21.5,60-21.5s60,9.6,60,21.5"/>
	<path fill="none" stroke="#FFFFFF" stroke-width="5" stroke-miterlimit="10" d="M450.6,263.8c-3.8-1.8-6.2-5.6-6.2-9.8v-15.8l0,0
		c0-11.2-25.4-20.3-56.7-20.3s-56.7,9.1-56.7,20.3l0,0v14.6c0,4.8-2.8,9.3-7.1,11.5c-9.1,4.6-14.5,15.4-14.5,44.3v111.7
		c0,47,35,53.3,78.3,53.3c25.4,0,48-1.6,62.3-12.8"/>
	<circle fill="none" stroke="#EC1C24" stroke-width="2" stroke-miterlimit="10" cx="387.7" cy="217.8" r="25.6"/>
	
		<ellipse fill="#007DB9" stroke="#007DB9" stroke-width="2.42" stroke-linecap="round" stroke-linejoin="round" cx="387.9" cy="442.7" rx="25.5" ry="10.2"/>
	<circle fill="none" stroke="#EC1C24" stroke-width="2" stroke-miterlimit="10" cx="219.2" cy="233.5" r="25.6"/>
	<circle fill="#FFFFFF" cx="49.7" cy="379.3" r="25.6"/>
	<circle fill="#FFFFFF" cx="220.5" cy="432.6" r="25.6"/>
	<circle fill="#FFFFFF" cx="387.7" cy="376.8" r="25.6"/>
	<path fill="#007DB9" d="M52,392.6v3.4h-3.6v-3.4c-3.3-0.4-6.3-1.8-8.6-4.1l2.4-2.8c2.1,2,4.9,3.6,8,3.6c3.6,0,5.3-1.6,5.3-3.4
		c0-5.2-14.5-3.2-14.5-10.8c0-3.5,2.8-6.4,7.5-7v-3.5h3.6v3.5c3,0.3,5.7,1.7,7.6,4l-2.8,2.3c-1.7-1.9-4.1-3.1-6.7-3.1
		c-3.2,0-5.2,1.4-5.2,3.3c0,4.6,14.5,2.9,14.5,11C59.4,389.4,56.5,392,52,392.6z"/>
	<path fill="#007DB9" d="M222.8,444.9v3.4h-3.6v-3.4c-3.3-0.4-6.3-1.8-8.6-4.1l2.4-2.7c2.1,2,4.9,3.6,8,3.6c3.6,0,5.3-1.6,5.3-3.4
		c0-5.2-14.6-3.2-14.6-10.8c0-3.5,2.8-6.4,7.5-7V417h3.6v3.5c3,0.3,5.7,1.7,7.6,4l-2.8,2.3c-1.7-1.9-4.1-3.1-6.7-3.1
		c-3.2,0-5.2,1.4-5.2,3.3c0,4.6,14.6,2.9,14.6,11C230.2,441.6,227.2,444.3,222.8,444.9z"/>
	<path fill="#007DB9" d="M390,389v3.4h-3.6V389c-3.3-0.4-6.3-1.8-8.6-4.1l2.4-2.8c2.1,2,4.9,3.6,8,3.6c3.6,0,5.3-1.6,5.3-3.4
		c0-5.2-14.6-3.2-14.6-10.8c0-3.5,2.8-6.4,7.5-7v-3.5h3.6v3.5c3,0.3,5.7,1.7,7.5,4l-2.8,2.3c-1.7-1.9-4.1-3.1-6.7-3.1
		c-3.2,0-5.2,1.4-5.2,3.3c0,4.6,14.5,2.9,14.5,11C397.4,385.8,394.5,388.4,390,389z"/>
	<path fill="none" stroke="#007DB9" stroke-width="2.42" stroke-linecap="round" stroke-linejoin="round" d="M273.9,341.1
		c-8.1,9.9-29.6,17-54.8,17c-21.5,0-40.3-5.2-50.4-12.9"/>
	<path fill="none" stroke="#007DB9" stroke-width="2.42" stroke-linecap="round" stroke-linejoin="round" d="M273.9,333.2
		c-8.1,9.9-29.6,17-54.8,17c-21.5,0-40.3-5.2-50.4-12.9"/>
	<path fill="none" stroke="#007DB9" stroke-width="2.42" stroke-linecap="round" stroke-linejoin="round" d="M273.9,324.7
		c-8.1,9.9-29.6,17-54.8,17c-21.5,0-40.3-5.2-50.4-12.9"/>
	<path fill="none" stroke="#007DB9" stroke-width="2.42" stroke-linecap="round" stroke-linejoin="round" d="M440.6,267.5
		c-8.1,9.9-29.5,17-54.8,17c-21.5,0-40.4-5.2-50.4-12.9"/>
	<path fill="none" stroke="#007DB9" stroke-width="2.42" stroke-linecap="round" stroke-linejoin="round" d="M440.6,259.6
		c-8.1,9.9-29.5,17-54.8,17c-21.5,0-40.4-5.2-50.4-12.9"/>
	<path fill="none" stroke="#007DB9" stroke-width="2.42" stroke-linecap="round" stroke-linejoin="round" d="M440.6,251.1
		c-8.1,9.9-29.5,17-54.8,17c-21.5,0-40.4-5.2-50.4-12.9"/>
	<path fill="none" stroke="#007DB9" stroke-width="2.42" stroke-linecap="round" stroke-linejoin="round" d="M103,288.6
		c-8.1,9.9-29.6,17-54.8,17c-21.5,0-40.3-5.2-50.4-12.9"/>
	<path fill="none" stroke="#007DB9" stroke-width="2.42" stroke-linecap="round" stroke-linejoin="round" d="M103,280.6
		c-8.1,9.9-29.6,17-54.8,17c-21.5,0-40.3-5.2-50.4-12.9"/>
	<path fill="none" stroke="#007DB9" stroke-width="2.42" stroke-linecap="round" stroke-linejoin="round" d="M103,272.1
		c-8.1,9.9-29.6,17-54.8,17c-21.5,0-40.3-5.2-50.4-12.9"/>
	
		<line fill="none" stroke="#FFFFFF" stroke-width="5" stroke-linecap="round" stroke-linejoin="round" x1="163.7" y1="313.9" x2="163.7" y2="353.7"/>
	
		<line fill="none" stroke="#FFFFFF" stroke-width="5" stroke-linecap="round" stroke-linejoin="round" x1="106.4" y1="264.7" x2="106.4" y2="304.4"/>
	
		<line fill="none" stroke="#FFFFFF" stroke-width="5" stroke-linecap="round" stroke-linejoin="round" x1="330.8" y1="240.9" x2="330.8" y2="280.6"/>
	
		<line fill="none" stroke="#FFFFFF" stroke-width="5" stroke-linecap="round" stroke-linejoin="round" x1="277.4" y1="313.9" x2="277.4" y2="353.7"/>
	<path fill="none" stroke="#FFFFFF" stroke-width="5" stroke-miterlimit="10" d="M283.4,339.6c-3.8-1.8-6.2-5.6-6.2-9.8v-15.9l0,0
		c0-11.2-25.4-20.3-56.7-20.3s-56.7,9.1-56.7,20.3l0,0v14.6c0,4.9-2.7,9.3-7.1,11.5c-9.1,4.6-14.5,15.4-14.5,44.3V496
		c0,47,35.1,53.3,78.3,53.3s78.3-4.6,78.3-53.3V384.3C298.7,356.2,293,344.2,283.4,339.6z"/>
	
		<ellipse fill="none" stroke="#007DB9" stroke-width="2.42" stroke-linecap="round" stroke-linejoin="round" cx="241.9" cy="502.2" rx="28.4" ry="11.4"/>
	
		<ellipse fill="#007DB9" stroke="#007DB9" stroke-width="2.42" stroke-linecap="round" stroke-linejoin="round" cx="194.5" cy="519.5" rx="28.4" ry="11.4"/>
	<circle fill="none" stroke="#B2D235" stroke-width="3" stroke-miterlimit="10" cx="48.5" cy="180.1" r="25.6"/>
	<circle fill="none" stroke="#B2D235" stroke-width="3" stroke-miterlimit="10" cx="48.5" cy="154.5" r="25.6"/>
	<circle fill="none" stroke="#EC1C24" stroke-width="2" stroke-miterlimit="10" cx="48.5" cy="180.1" r="25.6"/>
	<circle fill="none" stroke="#EC1C24" stroke-width="2" stroke-miterlimit="10" cx="48.5" cy="154.5" r="25.6"/>
	<circle fill="none" stroke="#EC1C24" stroke-width="2" stroke-miterlimit="10" cx="48.5" cy="85.4" r="25.6"/>
	<path fill="none" stroke="#EC1C24" stroke-width="2" stroke-miterlimit="10" d="M74.1,0c0,14.1-11.5,25.6-25.6,25.6h0
		C34.4,25.6,22.9,14.1,22.9,0"/>
	<circle fill="#EC1C24" stroke="#EC1C24" stroke-width="2" stroke-miterlimit="10" cx="49.7" cy="251.8" r="25.6"/>
</g>
</svg>
