<svg xmlns="http://www.w3.org/2000/svg" xmlns:xlink="http://www.w3.org/1999/xlink" viewBox="0 0 450 600"><defs><linearGradient id="a" x1="74.55" y1="378.19" x2="146.89" y2="291.98" gradientUnits="userSpaceOnUse"><stop offset="0" stop-color="#007db9"/><stop offset="0.32" stop-color="#0080bb"/><stop offset="0.55" stop-color="#0089c3"/><stop offset="0.74" stop-color="#0098d1"/><stop offset="0.91" stop-color="#00aee4"/><stop offset="1" stop-color="#00bcf1"/></linearGradient><linearGradient id="b" x1="273.64" y1="376.44" x2="335.8" y2="259.55" xlink:href="#a"/></defs><rect x="-0.38" y="-67.39" width="461.61" height="646.58" fill="#007db9"/><polygon points="461.23 636.94 -0.38 642.73 -0.38 341.2 461.23 337.5 461.23 636.94" fill="#b2d235"/><path d="M278.54,464.27,169.09,520v-72.2h0c35.88-30.06,73.57-49.26,109.45-55.77h0Z" fill="#007db9"/><path d="M258.63,458.52,149.18,514.29v-72.2h0c35.88-30.07,73.56-49.27,109.45-55.77h0Z" fill="#007db9"/><path d="M251.74,93.41l.16-22-3.13,0-.16,22c-17.51.41-31.51,10-31.67,32.69-.17,23.37,32.63,51.91,32.63,51.91s33.21-28.07,33.38-51.44C283.11,103.85,269.24,94.07,251.74,93.41Z" fill="#b2d235"/><polygon points="251.19 112.38 271.88 130 273.16 128.49 251.21 109.78 251.32 93.38 249.34 93.36 249.12 124.97 248.6 124.35 226.03 143.03 227.29 144.56 249.1 126.51 248.88 158.01 250.86 158.02 251.02 136.18 271.71 153.81 273 152.3 251.04 133.59 251.19 112.38" fill="#fff"/><path d="M289.54,31.83l8.61,7.76,1.1-1.23-8.6-7.76c6-7,7.1-15.92-1.79-23.94C279.71-1.6,257,1.33,257,1.33s-.57,22.93,8.59,31.19C274.43,40.53,283.15,38.49,289.54,31.83Z" fill="#b2d235"/><polygon points="282.26 24.96 268.06 26.94 268.21 27.98 283.28 25.88 289.7 31.67 290.4 30.89 278.03 19.73 278.45 19.75 278.99 4.3 277.95 4.26 277.42 19.19 265.08 8.06 264.38 8.84 272.94 16.55 258.74 18.53 258.88 19.57 273.95 17.47 282.26 24.96" fill="#fff"/><path d="M59.07,23.62l8.6,7.76,1.11-1.22-8.6-7.76c6-7,7.1-15.93-1.79-23.94-9.16-8.26-31.9-5.33-31.9-5.33s-.57,22.93,8.58,31.18C44,32.33,52.68,30.29,59.07,23.62Z" fill="#b2d235"/><polygon points="51.79 16.76 37.59 18.74 37.73 19.78 52.8 17.67 59.23 23.47 59.93 22.69 47.55 11.53 47.97 11.54 48.52 -3.9 47.47 -3.94 46.94 10.98 34.61 -0.14 33.91 0.64 42.46 8.35 28.26 10.33 28.41 11.37 43.48 9.27 51.79 16.76" fill="#fff"/><path d="M420,195.05l1.41-.46C390.63,126.45,354,80.41,353.69,79.91l-1,1.1C353,81.44,389.42,127.22,420,195.05Z" fill="#b2d235"/><path d="M392.36,98.36c1.16-5.67-1.28-11.24-5.49-12.09s-9,5.26-9.73,9.18c-2.07,10.78,3.8,21,3.8,21S390.29,109.14,392.36,98.36Z" fill="#b2d235"/><path d="M411.24,126c3.33-4.76,3.4-10.81-.08-13.29s-10.26,1.15-12.58,4.41c-6.39,9-5.19,20.68-5.19,20.68S404.89,135,411.24,126Z" fill="#b2d235"/><path d="M356.73,112.59c-5.8.16-10.79,3.09-10.73,6.56s7,6.12,11,6c11-.24,19.78-6.76,19.78-6.76S367.74,112.36,356.73,112.59Z" fill="#b2d235"/><path d="M370,133.28c-5.81.16-10.81,3.25-10.74,7s7,6.51,11,6.41c11-.23,19.78-7.15,19.78-7.15S381,133.07,370,133.28Z" fill="#b2d235"/><path d="M390.43,162.66c-4.41.1-8.21,3.22-8.14,6.92s5.34,6.52,8.41,6.46c8.4-.2,15.07-7,15.07-7S398.83,162.47,390.43,162.66Z" fill="#b2d235"/><path d="M421.69,154.85c2.11-4.21,1.72-9-1-10.31s-7.53,2.48-9,5.4c-3.94,7.93-2.27,16.88-2.27,16.88S417.67,162.81,421.69,154.85Z" fill="#b2d235"/><path d="M359.84,76.93c-4-5.36-10.68-7.65-14.5-4.77s-2.18,11.53.65,15.21c7.68,10.15,20.86,13.12,20.86,13.12S367.59,87.05,359.84,76.93Z" fill="#b2d235"/><path d="M129-44.82l-1.27.76c45.16,59.59,91.08,96.32,91.54,96.73l.73-1.3C219.54,51,173.85,14.5,129-44.82Z" fill="#ec1c24"/><path d="M177.41,43.29c.13,5.79,3.75,10.67,8.05,10.56s7.61-7.13,7.44-11.12c-.38-11-8.38-19.6-8.38-19.6S177,32.32,177.41,43.29Z" fill="#ec1c24"/><path d="M152.85,20.52c-2.2,5.38-.92,11.29,3,12.93s9.75-3.4,11.29-7.1c4.22-10.21.45-21.31.45-21.31S157.05,10.41,152.85,20.52Z" fill="#ec1c24"/><path d="M209,21.48c5.63-1.44,9.84-5.41,9-8.78s-8.2-4.4-12.08-3.41c-10.67,2.68-17.77,11-17.77,11S198.3,24.16,209,21.48Z" fill="#ec1c24"/><path d="M191.42,4.27c5.62-1.44,9.81-5.58,8.92-9.17s-8.28-4.8-12.16-3.81C177.5-6,170.49,2.67,170.49,2.67S180.8,6.91,191.42,4.27Z" fill="#ec1c24"/><path d="M136.24-5.26c-1.12,4.58.32,9.14,3.28,9.84s6.79-4.1,7.53-7.26c2.08-8.61-1.54-17-1.54-17S138.39-13.91,136.24-5.26Z" fill="#ec1c24"/><path d="M213.88,56.94C219,61.27,226,62,229.08,58.36s-.44-11.72-4-14.68c-9.74-8.18-23.26-8.14-23.26-8.14S204.08,48.8,213.88,56.94Z" fill="#ec1c24"/><path d="M348.4,206.26-.38,23.81V155.42h0V408.59L238.85,532.73,365.5,469.16v-.86l.46.24V235.15A32.55,32.55,0,0,0,348.4,206.26Z" fill="#fff"/><polygon points="219.6 429.65 -0.38 315.32 -0.38 170.35 219.6 284.68 219.6 429.65" fill="#007db9"/><path d="M94.93,458.25V447.44c0-43.94,36.54-28.22,36.54-28.22,20.69,10.54,38.7,40.49,38.7,66.55v11.72" fill="#007db9"/><ellipse cx="131.9" cy="469.11" rx="29.02" ry="48.04" transform="translate(-186.84 100.51) rotate(-25.15)" fill="#007db9"/><ellipse cx="129.37" cy="469.11" rx="14.24" ry="23.58" transform="translate(-187.08 99.43) rotate(-25.15)" fill="#00bcf1"/><ellipse cx="140.2" cy="466.22" rx="10.43" ry="17.26" transform="translate(-184.82 103.76) rotate(-25.15)" fill="none" stroke="#007db9" stroke-miterlimit="10" stroke-width="1.93"/><ellipse cx="140.2" cy="466.22" rx="3.27" ry="5.42" transform="translate(-184.82 103.76) rotate(-25.15)" fill="none" stroke="#007db9" stroke-miterlimit="10" stroke-width="1.93"/><ellipse cx="145.75" cy="462.05" rx="1.39" ry="2.3" transform="translate(-182.53 105.73) rotate(-25.15)" fill="none" stroke="#007db9" stroke-miterlimit="10" stroke-width="1.93"/><ellipse cx="134.65" cy="470.38" rx="1.39" ry="2.3" transform="translate(-187.12 101.8) rotate(-25.15)" fill="none" stroke="#007db9" stroke-miterlimit="10" stroke-width="1.93"/><ellipse cx="132.35" cy="462.21" rx="1.39" ry="2.3" transform="translate(-183.87 100.04) rotate(-25.15)" fill="none" stroke="#007db9" stroke-miterlimit="10" stroke-width="1.93"/><ellipse cx="148.05" cy="470.22" rx="1.39" ry="2.3" transform="translate(-185.78 107.48) rotate(-25.15)" fill="none" stroke="#007db9" stroke-miterlimit="10" stroke-width="1.93"/><ellipse cx="140.2" cy="476.11" rx="1.39" ry="2.3" transform="translate(-189.03 104.7) rotate(-25.15)" fill="none" stroke="#007db9" stroke-miterlimit="10" stroke-width="1.93"/><ellipse cx="140.2" cy="456.32" rx="1.39" ry="2.3" transform="translate(-180.62 102.82) rotate(-25.15)" fill="none" stroke="#007db9" stroke-miterlimit="10" stroke-width="1.93"/><ellipse cx="134.65" cy="456.39" rx="1.39" ry="2.3" transform="translate(-181.17 100.47) rotate(-25.15)" fill="none" stroke="#007db9" stroke-miterlimit="10" stroke-width="1.93"/><ellipse cx="145.75" cy="476.04" rx="1.39" ry="2.3" transform="translate(-188.47 107.05) rotate(-25.15)" fill="none" stroke="#007db9" stroke-miterlimit="10" stroke-width="1.93"/><polyline points="261.58 521.15 261.58 445.96 353.29 395.76 353.29 479.99" fill="none" stroke="#ec1c24" stroke-linecap="round" stroke-linejoin="round"/><line x1="353.28" y1="395.76" x2="365.96" y2="366.39" fill="none" stroke="#ec1c24" stroke-linecap="round" stroke-linejoin="round"/><line x1="231.64" y1="480.63" x2="202.03" y2="465.54" fill="none" stroke="#ec1c24" stroke-linecap="round" stroke-linejoin="round"/><line x1="202.03" y1="458.31" x2="231.64" y2="473.4" fill="none" stroke="#ec1c24" stroke-linecap="round" stroke-linejoin="round"/><line x1="231.64" y1="495.08" x2="202.03" y2="479.99" fill="none" stroke="#ec1c24" stroke-linecap="round" stroke-linejoin="round"/><line x1="202.03" y1="472.76" x2="231.64" y2="487.85" fill="none" stroke="#ec1c24" stroke-linecap="round" stroke-linejoin="round"/><line x1="231.64" y1="502.31" x2="202.03" y2="487.22" fill="none" stroke="#ec1c24" stroke-linecap="round" stroke-linejoin="round"/><line x1="202.03" y1="479.99" x2="231.64" y2="495.08" fill="none" stroke="#ec1c24" stroke-linecap="round" stroke-linejoin="round"/><line x1="231.64" y1="516.76" x2="202.03" y2="501.67" fill="none" stroke="#ec1c24" stroke-linecap="round" stroke-linejoin="round"/><line x1="202.03" y1="494.44" x2="231.64" y2="509.53" fill="none" stroke="#ec1c24" stroke-linecap="round" stroke-linejoin="round"/><polyline points="261.58 445.96 239.87 429.67 238.85 279.56 -0.38 155.42" fill="none" stroke="#ec1c24" stroke-linecap="round" stroke-linejoin="round"/><line x1="17.46" y1="417.84" x2="17.46" y2="325.59" fill="none" stroke="#ec1c24" stroke-linecap="round" stroke-linejoin="round"/><line x1="83.32" y1="454.24" x2="83.32" y2="361.99" fill="none" stroke="#ec1c24" stroke-linecap="round" stroke-linejoin="round"/><line x1="47.63" y1="432.52" x2="47.63" y2="340.27" fill="none" stroke="#ec1c24" stroke-linecap="round" stroke-linejoin="round"/><path d="M359.4,308.07,249.94,363.84v-72.2h0c35.89-30.07,73.57-49.27,109.46-55.77h0Z" fill="#007db9"/><path d="M162,480.93c0-21.24-13.67-45.43-30.54-54s-30.54,1.67-30.54,22.91" fill="none" stroke="#00bcf1" stroke-miterlimit="10"/><polygon points="-1.15 244.09 219.6 352.99 219.6 429.65 -0.38 315.32 -1.15 244.09" fill="url(#a)"/><line x1="83.32" y1="214.99" x2="83.32" y2="359.96" fill="none" stroke="#00bcf1" stroke-linecap="round" stroke-linejoin="round" stroke-width="1.93"/><line x1="17.46" y1="325.59" x2="17.46" y2="180.62" fill="none" stroke="#00bcf1" stroke-linecap="round" stroke-linejoin="round" stroke-width="1.93"/><line x1="47.63" y1="196.37" x2="47.63" y2="340.27" fill="none" stroke="#00bcf1" stroke-linecap="round" stroke-linejoin="round" stroke-width="1.93"/><polygon points="249.94 328.1 359.4 272.1 359.4 308.07 249.94 363.84 249.94 328.1" fill="url(#b)"/><line x1="-1.15" y1="130.48" x2="240.52" y2="253.11" fill="none" stroke="#00bcf1" stroke-miterlimit="10"/><line x1="-1.15" y1="110.04" x2="240.52" y2="232.67" fill="none" stroke="#00bcf1" stroke-miterlimit="10"/><line x1="-1.15" y1="89.6" x2="240.52" y2="212.23" fill="none" stroke="#00bcf1" stroke-miterlimit="10"/><line x1="-1.15" y1="69.16" x2="240.52" y2="191.79" fill="none" stroke="#00bcf1" stroke-miterlimit="10"/><line x1="-1.15" y1="48.73" x2="240.52" y2="171.35" fill="none" stroke="#00bcf1" stroke-miterlimit="10"/><path d="M240.07,519.27c11.12-.77,17.64-12.6,22.61-23.34s11.35-22.62,22.43-23.64c6.75-.62,15,2.8,19.68-2.25,2.81-3,3.12-8.14,5.1-12,6.12-11.86,24.49-7,32.31-17.37,3.06-4,3.93-10.18,2.25-15.74-1.21-4-3.61-7.59-5.16-11.5-3.41-8.6-2.24-18.74,2.87-24.9,4.1-4.94,10.83-8.41,10.75-15.61-.06-6-5-11-7.34-16.68a22.91,22.91,0,0,1,3-22.3c4.44-5.72,11.12-8.67,18-10.11l94.7-4.39v316l-40.85,1L189.93,509.34Z" fill="#007db9"/><path d="M73.38,67.81l-16.07,6,.86,2.3,16.06-6c5.18,12.66,16.07,20.21,32.67,14,17.1-6.39,28.79-38.27,28.79-38.27S106,29.43,88.86,35.82C72.26,42,69,54.86,73.38,67.81Z" fill="#b2d235"/><polygon points="87.37 62.94 94.46 42.94 93 42.42 85.47 63.64 73.47 68.13 74.02 69.58 97.13 60.94 96.82 61.49 116.74 72.75 117.5 71.41 98.26 60.52 121.3 51.91 120.76 50.46 104.78 56.43 111.88 36.43 110.42 35.91 102.89 57.14 87.37 62.94" fill="#fff"/><path d="M407.61,228.57l16,5.1.73-2.28-16-5.1c3.68-12.87-.13-25.26-16.65-30.54-17-5.43-45.3,12-45.3,12s12.94,30.61,30,36C392.87,249.08,403.15,241.19,407.61,228.57Z" fill="#ec1c24"/><polygon points="393.9 223.85 376.34 234.95 377.15 236.23 395.79 224.46 407.73 228.27 408.19 226.83 385.19 219.48 385.75 219.25 377.25 198.53 375.85 199.11 384.06 219.12 361.13 211.8 360.67 213.25 376.57 218.32 359.01 229.41 359.82 230.69 378.46 218.92 393.9 223.85" fill="#fff"/><path d="M376.81,314.68l-1.46.26c21.07,71.75,51,122.39,51.24,122.93l1.15-.95C427.48,436.45,397.73,386.08,376.81,314.68Z" fill="#b2d235"/><path d="M390.84,414.26c-1.93,5.46-.28,11.31,3.77,12.73s9.65-4,10.9-7.75c3.54-10.39-.87-21.3-.87-21.3S394.38,403.87,390.84,414.26Z" fill="#b2d235"/><path d="M376,384.25c-4,4.26-4.87,10.24-1.76,13.17s10.32.29,13.07-2.63c7.57-8,8-19.77,8-19.77S383.47,376.29,376,384.25Z" fill="#b2d235"/><path d="M428.09,405.08c5.77.65,11.11-1.57,11.53-5s-6.1-7-10.08-7.48c-10.93-1.28-20.51,4-20.51,4S417.15,403.8,428.09,405.08Z" fill="#b2d235"/><path d="M417.78,382.76c5.77.65,11.15-1.73,11.6-5.41s-6-7.42-10-7.87c-10.93-1.29-20.58,4.35-20.58,4.35S406.92,381.46,417.78,382.76Z" fill="#b2d235"/><path d="M401.62,350.84c4.38.51,8.57-2,9-5.72s-4.39-7.2-7.44-7.56c-8.35-1-15.9,4.88-15.9,4.88S393.27,349.88,401.62,350.84Z" fill="#b2d235"/><path d="M369.59,354.26c-2.68,3.89-2.95,8.66-.43,10.36s7.8-1.42,9.61-4.11c5-7.31,4.59-16.41,4.59-16.41S374.66,346.94,369.59,354.26Z" fill="#b2d235"/><path d="M420.09,440c3.24,5.87,9.53,9.06,13.7,6.73s3.75-11.12,1.45-15.15c-6.2-11.11-18.85-15.88-18.85-15.88S413.81,428.88,420.09,440Z" fill="#b2d235"/><path d="M399.25-1.87A31.93,31.93,0,0,1,410.82-.18l-.41,1c-.16-.06-17.1-6.55-36.8,7.52,2.51,1.78,5.08,3.71,7.77,5.71a47.22,47.22,0,0,1,22.81-5.94,31.37,31.37,0,0,1,9.71,1.42l-.4,1c-.15,0-13.81-4.89-31.17,4.2,2.65,2,5.34,4.12,8.07,6.33,10.16-7,23.21-3.58,23.32-3.53l-.3,1c-.11,0-12.45-3.24-22.14,3.21,3.28,2.67,6.61,5.46,9.86,8.36C416.71,24.36,433,34.94,433.2,35l-.58.9c-.18-.1-15.66-10.15-30.53-5,14.58,13.1,28.16,28.55,34.82,45.23A11.37,11.37,0,0,0,438.58,72c3.51-15.93-10.88-17.12-6.32-31s-5-15.84-12.74-18.3-5-7.29-5.53-16-12.58-17.1-26.52-12.53a86.51,86.51,0,0,0-20.29,9.6c1.76,1.27,3.63,2.57,5.58,4C383.2,0,392.9-1.75,399.25-1.87Z" fill="#b2d235"/><path d="M407.91,38.56c-4.83,12.7,3.56,27.29,3.64,27.47l-.88.51c-.17-.19-8.93-15.54-3.54-28.78-3.35-3.26-6.82-6.38-10.28-9.37-3.85,11.22-2.35,20.3-.43,26a31.41,31.41,0,0,0,5.42,9.95l-.78.73c-.17-.19-13.1-14.83-5.07-37.41-1.29-1.07-2.54-2.16-3.81-3.2-6.54,12.81-2.67,28-2.61,28.12l-1.06.28c0-.17-4.1-15.9,2.81-29.08q-4.41-3.57-8.68-6.81c-9.36,10.9-4,30-3.91,30.2l-1.05.31A51.78,51.78,0,0,1,376,36c-.23-8.26,1.74-15,5.71-19.71-3.81-2.89-7.51-5.61-11-8.07-10,17-3.16,34.43-3.08,34.62l-.92.39c-.12-.17-7.25-18.15,3.12-35.65-1.43-1-2.82-2-4.13-2.92-.44.32-.66.5-.66.5s-12,24.53-4.58,33.16,18.32,8.18,27.1,14.42,1.76,11.95,17.84,13.11c13.41,1,25.07,15.64,30.59,11.32l-.33.14C430.2,63.26,419.73,50.17,407.91,38.56Z" fill="#b2d235"/><path d="M334.7-8.41c9.63,2.25,18.7,4.34,25.52,9.14l1.57,1.13c1.24.87,2.54,1.76,3.87,2.73.08,0,.1-.09.17-.12-.1,0-.19-.14-.29-.18l.71-1c.24.16.43.3.67.45,0,0,.12,0,.14-.1-1.56-1.08-3-2.13-4.43-3.1L361.06-.59C354-5.55,344.78-7.67,335-10c-17.9-4.2-38.21-8.95-52.17-32.29l-1.33.78C295.83-17.48,316.47-12.69,334.7-8.41Z" fill="#b2d235"/><path d="M381.19,14.13l.19-.08c-2.66-2-5.26-3.93-7.77-5.71,0,0-.1.09-.13.1C376,10.29,378.61,12.17,381.19,14.13Z" fill="#b2d235"/><path d="M390.25,21.13s.1-.09.14-.1c-2.74-2.21-5.42-4.3-8.08-6.33l-.18.08C384.87,16.9,387.55,19,390.25,21.13Z" fill="#b2d235"/><path d="M370.8,8a.94.94,0,0,1-.11.17c3.46,2.47,7.14,5.15,11,8.07,0-.05.09-.08.11-.13C378.14,13.33,374.46,10.65,370.8,8Z" fill="#b2d235"/><path d="M369.91,7.37c-1.36-1-2.69-1.91-4.06-2.86-.08,0-.1.08-.17.11l4.13,2.93A.47.47,0,0,0,369.91,7.37Z" fill="#b2d235"/><path d="M382.67,16.78c0,.06-.09.09-.12.14,2.85,2.16,5.76,4.47,8.68,6.81a.53.53,0,0,1,.1-.17C388.48,21.27,385.58,19,382.67,16.78Z" fill="#b2d235"/><path d="M372.53,7.75s.09-.08.13-.1l-5.59-4s-.11,0-.13.1C368.81,5.09,370.64,6.41,372.53,7.75Z" fill="#b2d235"/><path d="M332,487.06l11.3-12.38-1.77-1.61-11.3,12.38c-10.14-8.7-23-10.41-34.65,2.38-12,13.17-8,46.11-8,46.11s33.16,1,45.18-12.16C344.46,509,341.59,496.37,332,487.06Z" fill="#b2d235"/><polygon points="322 497.54 324.75 518.09 326.25 517.89 323.34 496.08 331.77 486.83 330.66 485.81 314.4 503.62 314.43 503.01 292.09 502.09 292.03 503.6 313.61 504.49 297.41 522.25 298.53 523.26 309.76 510.96 312.5 531.51 314 531.31 311.09 509.5 322 497.54" fill="#fff"/><path d="M368.9,522.46l-14.24,8.83,1.26,2,14.24-8.83c7.39,11.13,19.27,16.27,34,7.15,15.15-9.4,20.23-42.19,20.23-42.19s-31.63-10-46.78-.62C362.88,498,362.21,510.89,368.9,522.46Z" fill="#00bcf1"/><polygon points="381.37 515.1 384.33 494.58 382.83 494.36 379.69 516.14 369.05 522.74 369.85 524.03 390.34 511.32 390.15 511.9 411.39 518.87 411.86 517.43 391.34 510.7 411.76 498.03 410.96 496.74 396.8 505.52 399.76 485 398.26 484.79 395.13 506.57 381.37 515.1" fill="#fff"/><line x1="239.71" y1="406.92" x2="239.71" y2="519.27" fill="none" stroke="#ec1c24" stroke-linecap="round" stroke-linejoin="round"/></svg>