<?xml version="1.0" encoding="utf-8"?>
<!-- Generator: Adobe Illustrator 25.2.1, SVG Export Plug-In . SVG Version: 6.00 Build 0)  -->
<svg version="1.1" id="Layer_1" xmlns="http://www.w3.org/2000/svg" xmlns:xlink="http://www.w3.org/1999/xlink" x="0px" y="0px"
	 viewBox="0 0 450 600" style="enable-background:new 0 0 450 600;" xml:space="preserve">
<style type="text/css">
	.st0{fill:#00BCF1;}
	.st1{fill:#EC1C24;}
	.st2{fill:#007DB9;}
	.st3{fill:#FFFFFF;}
	.st4{fill:#B2D235;stroke:#B2D235;stroke-width:10.15;stroke-miterlimit:10;}
	.st5{fill:none;stroke:#007DB9;stroke-width:10;stroke-miterlimit:10;}
	.st6{fill:none;stroke:#007DB9;stroke-width:1.22;stroke-miterlimit:10;}
	.st7{fill:none;stroke:#FFFFFF;stroke-width:3;stroke-linecap:round;stroke-linejoin:round;}
	.st8{fill:none;stroke:#FFFFFF;stroke-width:3;stroke-miterlimit:10;}
	.st9{fill:none;stroke:#007DB9;stroke-width:5;stroke-miterlimit:10;}
</style>
<rect class="st0" width="450" height="359.3"/>
<rect y="326.8" class="st1" width="450" height="273.2"/>
<path class="st2" d="M450,246.3l-130.7,29.9l20.7,9.2l6.2,14.6l-3.8,36.6l3.8,11c0,0,8.8,1.4,11.7-19.2s4-26.7,15.5-30.5
	s76.6-21.7,76.6-21.7"/>
<path class="st0" d="M176.8,525.7c0,13.5-7.7,19-17.2,19s-17.2-5.5-17.2-19s17.2-28.4,17.2-28.4S176.8,512.2,176.8,525.7z"/>
<ellipse class="st3" cx="159.6" cy="534.8" rx="3.6" ry="9.9"/>
<path class="st0" d="M222,525.7c0,13.5-7.7,19-17.2,19s-17.2-5.5-17.2-19s17.2-28.4,17.2-28.4S222,512.2,222,525.7z"/>
<ellipse class="st3" cx="204.8" cy="534.8" rx="3.6" ry="9.9"/>
<path class="st0" d="M307.6,525.7c0,13.5-7.7,19-17.2,19s-17.2-5.5-17.2-19s17.2-28.4,17.2-28.4S307.6,512.2,307.6,525.7z"/>
<ellipse class="st3" cx="290.4" cy="534.8" rx="3.6" ry="9.9"/>
<path class="st0" d="M264.8,525.7c0,13.5-7.7,19-17.2,19s-17.2-5.5-17.2-19s17.2-28.4,17.2-28.4S264.8,512.2,264.8,525.7z"/>
<ellipse class="st3" cx="247.6" cy="534.8" rx="3.6" ry="9.9"/>
<path class="st4" d="M103.1,297v141.4c0,16.4,53.6,38.2,119.6,38.2s119.6-21.7,119.6-38.2V297"/>
<ellipse class="st5" cx="222.7" cy="297" rx="119.6" ry="29.8"/>
<ellipse class="st2" cx="222.7" cy="297" rx="119.6" ry="29.8"/>
<path class="st3" d="M126.6,314c5.5,2,9.5,5.7,16.7,7.3c6,1.3,13.3-1.5,20.3-0.5c6.2,0.9,12.4,5.6,19.3,6.2c6.4,0.6,13.3-3,20.1-2.7
	c6.5,0.3,13,4.4,19.8,4.4s13.3-4.1,19.8-4.4c6.8-0.3,13.7,3.3,20.1,2.7c6.9-0.6,13-5.3,19.3-6.2c7-1,14.3,1.8,20.3,0.5
	c7.2-1.6,11.2-5.3,16.7-7.3c-5.5-2-9.5-5.7-16.7-7.3c-6-1.3-13.3,1.5-20.3,0.5c-6.2-0.9-12.4-5.6-19.3-6.2c-6.4-0.6-13.3,3-20.1,2.7
	c-6.5-0.3-13-4.4-19.8-4.4s-13.3,4.1-19.8,4.4c-6.8,0.3-13.7-3.3-20.1-2.7c-6.9,0.6-13,5.3-19.3,6.2c-7,1-14.3-1.8-20.3-0.5
	C136.1,308.3,132.1,312,126.6,314z"/>
<path class="st6" d="M138.9,282.8c0-28.3,14.7-28.3,14.7-56.6s-14.7-28.2-14.7-56.6s14.7-28.3,14.7-56.6s-14.7-28.3-14.7-56.6
	S153.5,28.3,153.5,0"/>
<path class="st6" d="M155.8,282.8c0-28.3,14.7-28.3,14.7-56.6s-14.7-28.2-14.7-56.6s14.7-28.3,14.7-56.6s-14.7-28.3-14.7-56.6
	S170.4,28.3,170.4,0"/>
<path class="st6" d="M172.7,282.8c0-28.3,14.7-28.3,14.7-56.6s-14.7-28.2-14.7-56.6s14.7-28.3,14.7-56.6s-14.7-28.3-14.7-56.6
	S187.4,28.3,187.4,0"/>
<path class="st6" d="M189.6,282.8c0-28.3,14.7-28.3,14.7-56.6s-14.7-28.2-14.7-56.6s14.7-28.3,14.7-56.6s-14.7-28.3-14.7-56.6
	S204.3,28.3,204.3,0"/>
<path class="st6" d="M206.5,282.8c0-28.3,14.7-28.3,14.7-56.6s-14.7-28.2-14.7-56.6s14.7-28.3,14.7-56.6s-14.7-28.3-14.7-56.6
	S221.2,28.3,221.2,0"/>
<path class="st6" d="M223.4,282.8c0-28.3,14.7-28.3,14.7-56.6s-14.7-28.2-14.7-56.6s14.7-28.3,14.7-56.6s-14.7-28.3-14.7-56.6
	S238.1,28.3,238.1,0"/>
<path class="st6" d="M240.3,282.8c0-28.3,14.7-28.3,14.7-56.6s-14.7-28.2-14.7-56.6s14.7-28.3,14.7-56.6s-14.7-28.3-14.7-56.6
	S255,28.3,255,0"/>
<path class="st6" d="M257.3,282.8c0-28.3,14.7-28.3,14.7-56.6s-14.7-28.2-14.7-56.6s14.7-28.3,14.7-56.6s-14.7-28.3-14.7-56.6
	S271.9,28.3,271.9,0"/>
<path class="st6" d="M274.2,282.8c0-28.3,14.7-28.3,14.7-56.6s-14.7-28.2-14.7-56.6s14.7-28.3,14.7-56.6s-14.7-28.3-14.7-56.6
	S288.8,28.3,288.8,0"/>
<path class="st6" d="M291.1,282.8c0-28.3,14.7-28.3,14.7-56.6s-14.7-28.2-14.7-56.6s14.7-28.3,14.7-56.6s-14.7-28.3-14.7-56.6
	S305.8,28.3,305.8,0"/>
<polygon class="st7" points="114.3,158.2 74.1,175.3 147.4,52.8 187.6,35.7 "/>
<polyline class="st7" points="59.2,0 147.4,52.8 74.1,175.3 0,131 "/>
<line class="st7" x1="187.6" y1="35.7" x2="124.6" y2="0"/>
<path class="st0" d="M177.8,127.2c0.5-0.7,0.7-1.5,0.7-2.3c0-0.3,0-0.6-0.1-0.8l0,0c-3.1-12.7-14.4-21.6-27.4-21.6
	c-6,0-11.9,1.9-16.8,5.5c-7.2,5.3-11.4,13.7-11.4,22.7c0,2.2,0.3,4.5,0.8,6.6l0,0c0.2,0.6,0.5,1.2,0.9,1.7c0.7,0.7,1.5,1.1,2.4,1.4
	c1,0.3,2,0.4,3.1,0.4c1.2,0,2.4-0.2,3.6-0.4c1.9-0.4,3.6-1.2,5.2-2.4c0.7-0.5,1.2-1.1,1.7-1.8c0.5-0.7,0.7-1.5,0.7-2.3
	c0-0.3,0-0.5-0.1-0.8l0,0c-0.2-0.8-0.3-1.6-0.3-2.4c0-0.5,0.1-1.1,0.1-1.6c0.3-2,1.2-3.8,2.6-5.2l0,0c1.9-2.1,4.7-3.3,7.5-3.3
	c0.5,0,1.1,0,1.6,0.1c2,0.3,3.8,1.2,5.2,2.6c1.5,1.4,2.5,3.2,3,5.1l0,0c0.2,0.6,0.5,1.2,0.9,1.7c0.7,0.7,1.5,1.1,2.4,1.4
	c1,0.3,2,0.4,3,0.4c1.2,0,2.4-0.2,3.6-0.4c1.9-0.4,3.6-1.2,5.2-2.4C176.7,128.5,177.3,127.9,177.8,127.2z"/>
<path class="st0" d="M204.7,191.6c8.1-5,13.1-13.8,13.4-23.3c0-0.2,0-0.4,0-0.6c0-11.1-6.5-21.2-16.6-25.7l0,0
	c-0.5-0.2-1-0.3-1.5-0.3c-0.7,0-1.5,0.2-2.1,0.6c-1.1,0.6-2,1.3-2.7,2.3c-0.9,1.1-1.6,2.2-2.2,3.5c-0.8,1.7-1.3,3.6-1.3,5.6
	c0,1,0.2,1.9,0.5,2.8c0.4,0.9,1,1.6,1.9,2l0,0c1.2,0.6,2.4,1.4,3.3,2.4c1.3,1.5,2.2,3.3,2.6,5.2c0.1,0.6,0.2,1.2,0.1,1.7
	c0,1.4-0.3,2.9-0.9,4.2c-0.6,1.2-1.4,2.4-2.4,3.3c-1.5,1.3-3.3,2.2-5.2,2.6c-2,0.3-4.1,0.1-5.9-0.8l0,0c-0.5-0.2-1-0.3-1.5-0.3
	c-0.7,0-1.5,0.2-2.1,0.6c-1.1,0.6-2,1.3-2.7,2.3c-0.9,1.1-1.6,2.2-2.2,3.5c-0.8,1.7-1.3,3.6-1.3,5.6c0,1,0.2,1.9,0.5,2.8
	c0.4,0.9,1,1.6,1.9,2l0.6-1.4l-0.6,1.4l0,0c3.4,1.5,7.2,2.4,10.9,2.5h0.6C195.1,195.7,200.2,194.3,204.7,191.6z"/>
<path class="st0" d="M239.3,247.6l1.2-0.9l0,0c-5.3-7.2-13.7-11.4-22.6-11.4h-1.3l0,0c-15.1,0.7-26.9,13.1-26.9,28.2
	c0,0.4,0,0.9,0,1.3l0,0c0.3,5.6,2.2,11,5.5,15.5l0,0c0.4,0.5,1,1,1.6,1.2c0.6,0.2,1.3,0.3,1.9,0.3c1.2,0,2.3-0.3,3.4-0.7
	c1.2-0.5,2.4-1.2,3.5-2c1.3-1,2.5-2.1,3.4-3.5c0.2-0.4,0.4-0.7,0.6-1.1l0.3,0.4v-1.2c0.2-0.6,0.4-1.3,0.4-2c0-0.8-0.2-1.6-0.7-2.2
	l0,0c-0.8-1.1-1.4-2.3-1.7-3.7c-0.5-1.9-0.4-3.9,0.3-5.8c1.1-3.2,3.9-5.7,7.2-6.5c0.8-0.2,1.6-0.3,2.4-0.3c3.2,0,6.3,1.5,8.2,4.1
	l0,0c0.4,0.5,1,1,1.6,1.2c0.6,0.2,1.3,0.3,1.9,0.3c1.2,0,2.3-0.3,3.4-0.7c1.2-0.5,2.4-1.2,3.5-2c1.3-1,2.5-2.2,3.4-3.5
	c0.8-1.1,1.3-2.5,1.4-3.9c0-0.8-0.2-1.6-0.7-2.2L239.3,247.6z"/>
<path class="st0" d="M278.9,157.3c-0.3-0.6-0.7-1.2-1.2-1.7c-0.5-0.5-1.2-0.9-1.9-1l0,0c-1.4-0.2-2.8-0.3-4.2-0.3
	c-2.3,0-4.7,0.3-7,0.9c-11,2.8-19.2,11.9-20.9,23.1c-0.2,1.4-0.3,2.8-0.3,4.2c0,13.9,10.2,25.8,24,27.9l0,0c0.2,0,0.3,0,0.5,0
	c0.8,0,1.7-0.3,2.3-0.8c1-0.8,1.8-1.8,2.4-3c0.7-1.4,1.1-2.8,1.3-4.3c0.1-0.8,0.2-1.6,0.2-2.4c0-1.6-0.3-3.2-0.9-4.6
	c-0.3-0.6-0.7-1.2-1.2-1.7c-0.5-0.5-1.2-0.9-1.9-1l0,0c-5.6-0.8-9.4-6-8.6-11.6c0.2-1.4,0.7-2.7,1.4-3.8c1-1.7,2.5-3,4.3-3.9
	c1.4-0.7,2.8-1,4.4-1c0.5,0,1,0,1.5,0.1l0,0c0.2,0,0.3,0,0.5,0c0.8,0,1.7-0.3,2.3-0.8c1-0.8,1.8-1.8,2.4-3c0.7-1.4,1.1-2.8,1.3-4.3
	c0.1-0.8,0.2-1.6,0.2-2.4C279.8,160.3,279.5,158.7,278.9,157.3z"/>
<polygon class="st0" points="275.7,154.6 275.7,154.6 275.7,154.6 275.7,154.6 "/>
<ellipse transform="matrix(0.9722 -0.2343 0.2343 0.9722 -24.8469 43.2765)" class="st8" cx="169.7" cy="126.2" rx="7.5" ry="3.8"/>
<ellipse transform="matrix(0.9722 -0.2343 0.2343 0.9722 -27.9961 34.7735)" class="st8" cx="132.4" cy="135.2" rx="7.5" ry="3.8"/>
<path class="st8" d="M177,124.4c-3.5-14.3-17.9-23.2-32.2-19.7c-14.3,3.5-23.2,17.9-19.7,32.2"/>
<path class="st8" d="M139.7,133.4L139.7,133.4c-0.4-1.5-0.4-3.1-0.2-4.6c0.4-2.2,1.4-4.3,2.9-6c1.6-1.7,3.6-2.9,5.9-3.5
	c3.8-0.9,7.8,0.1,10.7,2.7c1.7,1.6,2.9,3.6,3.5,5.9"/>
<ellipse transform="matrix(0.4109 -0.9117 0.9117 0.4109 -61.546 274.9097)" class="st8" cx="181.9" cy="185.1" rx="7.5" ry="3.8"/>
<ellipse transform="matrix(0.4109 -0.9117 0.9117 0.4109 -20.3078 268.6703)" class="st8" cx="197.7" cy="150" rx="7.5" ry="3.8"/>
<path class="st8" d="M178.9,191.9c13.4,6.1,29.3,0.1,35.3-13.4s0.1-29.3-13.4-35.3"/>
<path class="st8" d="M194.7,156.9L194.7,156.9c1.4,0.6,2.7,1.6,3.8,2.7c3.2,3.5,4,8.5,2.1,12.8c-0.6,1.4-1.6,2.7-2.7,3.8
	c-1.7,1.6-3.8,2.6-6,3c-2.3,0.4-4.7,0.1-6.8-0.9"/>
<ellipse transform="matrix(0.8024 -0.5968 0.5968 0.8024 -104.2887 189.0152)" class="st8" cx="233.3" cy="252" rx="7.5" ry="3.8"/>
<ellipse transform="matrix(0.8024 -0.5968 0.5968 0.8024 -124.0696 175.141)" class="st8" cx="202.4" cy="274.9" rx="7.5" ry="3.8"/>
<path class="st8" d="M239.3,247.6c-8.9-11.7-25.7-14-37.4-5.1c-11.5,8.8-14,25.2-5.4,36.9"/>
<path class="st8" d="M208.5,270.5L208.5,270.5c-2.3-3.1-2.9-7.2-1.6-10.9c0.8-2.2,2.2-4.1,4.1-5.5c5.2-3.9,12.5-2.8,16.4,2.4
	c0,0,0,0,0,0"/>
<ellipse transform="matrix(0.1494 -0.9888 0.9888 0.1494 71.714 410.447)" class="st8" cx="274.4" cy="163.5" rx="7.5" ry="3.8"/>
<ellipse transform="matrix(0.1494 -0.9888 0.9888 0.1494 29.2548 437.0921)" class="st8" cx="268.7" cy="201.5" rx="7.5" ry="3.8"/>
<path class="st8" d="M275.5,156.1c-14.6-2.2-28.2,7.8-30.4,22.4c0,0,0,0,0,0c-0.5,3.5-0.4,7.1,0.5,10.6
	c2.6,10.4,11.3,18.2,21.9,19.8"/>
<path class="st8" d="M269.8,194.1L269.8,194.1c-1.5-0.2-3-0.8-4.4-1.6c-1.9-1.2-3.5-2.9-4.5-5c-1-2.1-1.4-4.5-1-6.8
	c0.6-3.9,3-7.2,6.6-8.8c2.1-1,4.5-1.4,6.8-1"/>
<line class="st7" x1="114.3" y1="158.2" x2="92.1" y2="145.2"/>
<path class="st9" d="M342.4,297c0,16.4-53.6,29.8-119.6,29.8S103.1,313.4,103.1,297"/>
</svg>
