<svg xmlns="http://www.w3.org/2000/svg" viewBox="0 0 450 600"><rect width="450" height="333.79" fill="#b2d235"/><rect y="328.11" width="450" height="275.61" fill="#00bcf1"/><path d="M-.07,489.42c13.53,5.29,30.88,6.49,49.79,6.49,43.23,0,78.28-4.64,78.28-53.3V330.94c0-28.08-5.7-40.08-15.33-44.73a10.91,10.91,0,0,1-6.23-9.8V260.56h0c0-11.22-25.39-20.31-56.72-20.31C28.3,240.25,9.65,244.5,0,250.78" fill="none" stroke="#fff" stroke-miterlimit="10" stroke-width="5"/><ellipse cx="33.22" cy="448.33" rx="29.18" ry="11.67" fill="none" stroke="#007db9" stroke-linecap="round" stroke-linejoin="round" stroke-width="2.42"/><ellipse cx="54.86" cy="460" rx="29.18" ry="11.67" fill="#007db9" stroke="#007db9" stroke-linecap="round" stroke-linejoin="round" stroke-width="2.42"/><circle cx="219.25" cy="165.08" r="25.61" fill="none" stroke="#ec1c24" stroke-miterlimit="10" stroke-width="2"/><circle cx="219.25" cy="138.71" r="25.61" fill="none" stroke="#ec1c24" stroke-miterlimit="10" stroke-width="2"/><circle cx="219.25" cy="68.34" r="25.61" fill="#ec1c24" stroke="#ec1c24" stroke-miterlimit="10" stroke-width="2"/><path d="M244.86,2.33a25.61,25.61,0,0,1-51.22,0" fill="none" stroke="#ec1c24" stroke-miterlimit="10" stroke-width="2"/><path d="M160.46,512.92c0-11.86,26.86-21.48,60-21.48s60,9.62,60,21.48" fill="none" stroke="#00bcf1" stroke-linecap="round" stroke-linejoin="round" stroke-width="5"/><circle cx="220.46" cy="259.1" r="25.61" fill="none" stroke="#ec1c24" stroke-miterlimit="10" stroke-width="2"/><circle cx="386.49" cy="132.07" r="25.61" fill="#ec1c24" stroke="#ec1c24" stroke-miterlimit="10" stroke-width="2"/><circle cx="386.49" cy="68.72" r="25.61" fill="none" stroke="#ec1c24" stroke-miterlimit="10" stroke-width="2"/><circle cx="386.49" cy="5.48" r="25.61" fill="none" stroke="#ec1c24" stroke-miterlimit="10" stroke-width="2"/><path d="M412.1-22.46A25.62,25.62,0,0,1,386.49,3.15a25.61,25.61,0,0,1-25.61-25.61" fill="none" stroke="#ec1c24" stroke-miterlimit="10" stroke-width="2"/><path d="M327.7,437.1c0-11.86,26.86-21.48,60-21.48s60,9.62,60,21.48" fill="none" stroke="#00bcf1" stroke-linecap="round" stroke-linejoin="round" stroke-width="5"/><path d="M450.65,263.75a10.93,10.93,0,0,1-6.23-9.81V238.1h0c0-11.21-25.4-20.3-56.72-20.3S331,226.88,331,238.09h0v14.62a12.84,12.84,0,0,1-7.09,11.45c-9.11,4.58-14.47,15.43-14.47,44.31V420.15c0,47,35,53.3,78.28,53.3,25.42,0,48-1.61,62.3-12.81" fill="none" stroke="#fff" stroke-miterlimit="10" stroke-width="5"/><circle cx="387.7" cy="217.79" r="25.61" fill="none" stroke="#ec1c24" stroke-miterlimit="10" stroke-width="2"/><ellipse cx="387.85" cy="442.72" rx="25.46" ry="10.18" fill="#007db9" stroke="#007db9" stroke-linecap="round" stroke-linejoin="round" stroke-width="2.42"/><circle cx="219.25" cy="233.49" r="25.61" fill="none" stroke="#ec1c24" stroke-miterlimit="10" stroke-width="2"/><circle cx="49.72" cy="379.28" r="25.61" fill="#fff"/><circle cx="220.46" cy="432.64" r="25.61" fill="#fff"/><circle cx="387.7" cy="376.79" r="25.61" fill="#fff"/><path d="M52.05,392.63V396H48.43v-3.38a14.29,14.29,0,0,1-8.6-4.14l2.44-2.75c2.12,2,4.91,3.65,8,3.65,3.62,0,5.26-1.63,5.26-3.44,0-5.16-14.55-3.17-14.55-10.8,0-3.55,2.78-6.4,7.48-7v-3.45h3.62v3.45a11,11,0,0,1,7.56,4l-2.79,2.33a9.05,9.05,0,0,0-6.72-3.1c-3.23,0-5.22,1.4-5.22,3.31,0,4.63,14.55,2.86,14.55,11C59.43,389.39,56.51,392,52.05,392.63Z" fill="#007db9"/><path d="M222.79,444.86v3.41h-3.62v-3.38a14.26,14.26,0,0,1-8.6-4.14L213,438c2.12,2,4.9,3.65,8,3.65,3.62,0,5.26-1.63,5.26-3.44,0-5.16-14.56-3.17-14.56-10.8,0-3.55,2.79-6.4,7.49-7V417h3.62v3.45a10.93,10.93,0,0,1,7.55,4l-2.78,2.33a9.07,9.07,0,0,0-6.72-3.1c-3.24,0-5.22,1.4-5.22,3.31,0,4.63,14.55,2.86,14.55,11C230.17,441.62,227.24,444.26,222.79,444.86Z" fill="#007db9"/><path d="M390,389v3.41h-3.62V389a14.26,14.26,0,0,1-8.6-4.14l2.44-2.75c2.12,2,4.91,3.65,8,3.65,3.62,0,5.26-1.63,5.26-3.44,0-5.16-14.56-3.17-14.56-10.8,0-3.55,2.79-6.4,7.49-7v-3.45H390v3.45a10.93,10.93,0,0,1,7.55,4l-2.78,2.33a9.07,9.07,0,0,0-6.72-3.1c-3.24,0-5.22,1.4-5.22,3.31,0,4.63,14.55,2.86,14.55,11C397.41,385.77,394.49,388.41,390,389Z" fill="#007db9"/><path d="M273.85,341.15c-8.08,9.93-29.55,17-54.77,17-21.54,0-40.35-5.18-50.41-12.89" fill="none" stroke="#007db9" stroke-linecap="round" stroke-linejoin="round" stroke-width="2.42"/><path d="M273.85,333.19c-8.08,9.93-29.55,17-54.77,17-21.54,0-40.35-5.18-50.41-12.88" fill="none" stroke="#007db9" stroke-linecap="round" stroke-linejoin="round" stroke-width="2.42"/><path d="M273.85,324.68c-8.08,9.93-29.55,17-54.77,17-21.54,0-40.35-5.18-50.41-12.89" fill="none" stroke="#007db9" stroke-linecap="round" stroke-linejoin="round" stroke-width="2.42"/><path d="M440.57,267.53c-8.08,9.93-29.55,17-54.77,17-21.54,0-40.35-5.18-50.41-12.88" fill="none" stroke="#007db9" stroke-linecap="round" stroke-linejoin="round" stroke-width="2.42"/><path d="M440.57,259.58c-8.08,9.93-29.55,17-54.77,17-21.54,0-40.35-5.18-50.41-12.89" fill="none" stroke="#007db9" stroke-linecap="round" stroke-linejoin="round" stroke-width="2.42"/><path d="M440.57,251.06c-8.08,9.93-29.55,17-54.77,17-21.54,0-40.35-5.18-50.41-12.88" fill="none" stroke="#007db9" stroke-linecap="round" stroke-linejoin="round" stroke-width="2.42"/><path d="M103,288.6c-8.08,9.93-29.55,17-54.77,17-21.54,0-40.35-5.18-50.41-12.89" fill="none" stroke="#007db9" stroke-linecap="round" stroke-linejoin="round" stroke-width="2.42"/><path d="M103,280.64c-8.08,9.94-29.55,17-54.77,17-21.54,0-40.35-5.19-50.41-12.89" fill="none" stroke="#007db9" stroke-linecap="round" stroke-linejoin="round" stroke-width="2.42"/><path d="M103,272.13c-8.08,9.93-29.55,17-54.77,17-21.54,0-40.35-5.18-50.41-12.89" fill="none" stroke="#007db9" stroke-linecap="round" stroke-linejoin="round" stroke-width="2.42"/><line x1="163.74" y1="313.91" x2="163.74" y2="353.67" fill="none" stroke="#fff" stroke-linecap="round" stroke-linejoin="round" stroke-width="5"/><line x1="106.38" y1="264.68" x2="106.38" y2="304.44" fill="none" stroke="#fff" stroke-linecap="round" stroke-linejoin="round" stroke-width="5"/><line x1="330.79" y1="240.88" x2="330.79" y2="280.64" fill="none" stroke="#fff" stroke-linecap="round" stroke-linejoin="round" stroke-width="5"/><line x1="277.4" y1="313.91" x2="277.4" y2="353.67" fill="none" stroke="#fff" stroke-linecap="round" stroke-linejoin="round" stroke-width="5"/><path d="M283.41,339.56a10.91,10.91,0,0,1-6.23-9.8V313.91h0c0-11.21-25.4-20.31-56.72-20.31s-56.72,9.1-56.72,20.31h0v14.62A12.83,12.83,0,0,1,156.65,340c-9.11,4.58-14.48,15.44-14.48,44.31V496c0,47,35.05,53.29,78.29,53.29s78.28-4.63,78.28-53.29V384.29C298.74,356.21,293,344.22,283.41,339.56Z" fill="none" stroke="#fff" stroke-miterlimit="10" stroke-width="5"/><ellipse cx="241.91" cy="502.19" rx="28.41" ry="11.37" fill="none" stroke="#007db9" stroke-linecap="round" stroke-linejoin="round" stroke-width="2.42"/><ellipse cx="194.49" cy="519.51" rx="28.41" ry="11.37" fill="#007db9" stroke="#007db9" stroke-linecap="round" stroke-linejoin="round" stroke-width="2.42"/><circle cx="48.51" cy="180.14" r="25.61" fill="none" stroke="#b2d235" stroke-miterlimit="10" stroke-width="3"/><circle cx="48.51" cy="154.53" r="25.61" fill="none" stroke="#b2d235" stroke-miterlimit="10" stroke-width="3"/><circle cx="48.51" cy="180.14" r="25.61" fill="none" stroke="#ec1c24" stroke-miterlimit="10" stroke-width="2"/><circle cx="48.51" cy="154.53" r="25.61" fill="none" stroke="#ec1c24" stroke-miterlimit="10" stroke-width="2"/><circle cx="48.51" cy="85.36" r="25.61" fill="none" stroke="#ec1c24" stroke-miterlimit="10" stroke-width="2"/><path d="M74.12,0A25.61,25.61,0,0,1,48.51,25.61,25.62,25.62,0,0,1,22.9,0" fill="none" stroke="#ec1c24" stroke-miterlimit="10" stroke-width="2"/><circle cx="49.72" cy="251.83" r="25.61" fill="#ec1c24" stroke="#ec1c24" stroke-miterlimit="10" stroke-width="2"/></svg>