<svg width="500" height="500" viewBox="0 0 500 500" fill="none" xmlns="http://www.w3.org/2000/svg">
<path d="M500 0H0V500H500V0Z" fill="#B2D235"/>
<path d="M302.63 237.07V204.63L246.44 236.19V204.63L189.07 237.07L183.62 143.46H150.9L140 355.37L360 356.54V204.63L302.63 237.07Z" fill="white"/>
<path d="M276 304.59C276 324.98 264.35 333.3 250 333.3C235.65 333.3 224 324.98 224 304.59C224 284.2 250 261.51 250 261.51C250 261.51 276 284.2 276 304.59Z" fill="#00BCF1"/>
<path d="M261.38 324.31C261.38 333.22 256.28 336.85 250 336.85C243.72 336.85 238.62 333.22 238.62 324.31C238.62 315.4 250 305.48 250 305.48C250 305.48 261.38 315.4 261.38 324.31Z" fill="white"/>
<path d="M210.8 78.5698C210.679 78.3349 210.495 78.1378 210.27 78.0002C210.044 77.8626 209.784 77.7898 209.52 77.7898H203.68C203.402 71.1558 201.135 64.7587 197.174 59.4303C193.212 54.1018 187.739 50.0884 181.466 47.9118C175.193 45.7353 168.41 45.4962 162 47.2258C155.589 48.9553 149.847 52.5735 145.52 57.6098L150.69 64.9998C153.633 60.8868 157.778 57.7871 162.555 56.1274C167.333 54.4677 172.507 54.3297 177.366 55.7322C182.225 57.1347 186.53 60.0089 189.688 63.9591C192.846 67.9093 194.702 72.7413 195 77.7898H189.31C189.046 77.7892 188.787 77.8613 188.561 77.9981C188.335 78.135 188.151 78.3313 188.029 78.5657C187.907 78.8 187.852 79.0634 187.87 79.3269C187.888 79.5904 187.978 79.844 188.13 80.0598L198.22 94.4798C198.354 94.6677 198.531 94.8208 198.736 94.9264C198.942 95.0321 199.169 95.0872 199.4 95.0872C199.631 95.0872 199.858 95.0321 200.064 94.9264C200.269 94.8208 200.446 94.6677 200.58 94.4798L210.7 80.0598C210.85 79.8439 210.939 79.5912 210.957 79.3287C210.974 79.0662 210.92 78.8039 210.8 78.5698Z" fill="white"/>
<path d="M170.6 103.74C164.356 103.731 158.351 101.34 153.809 97.0546C149.268 92.7695 146.532 86.9131 146.16 80.6801H151.86C151.86 80.6801 151.86 80.6801 151.92 80.6801C152.303 80.6775 152.669 80.5236 152.939 80.2519C153.209 79.9803 153.36 79.613 153.36 79.2301C153.36 79.0222 153.314 78.8168 153.226 78.6284C153.138 78.4401 153.01 78.2734 152.85 78.1401L143 64.0001C142.861 63.8196 142.682 63.6734 142.478 63.5728C142.273 63.4722 142.048 63.4199 141.82 63.4199C141.592 63.4199 141.367 63.4722 141.163 63.5728C140.958 63.6734 140.779 63.8196 140.64 64.0001L130.5 78.4101C130.348 78.626 130.258 78.8795 130.24 79.1431C130.222 79.4066 130.277 79.67 130.399 79.9043C130.521 80.1387 130.705 80.335 130.931 80.4718C131.157 80.6087 131.416 80.6807 131.68 80.6801H137.52C137.795 87.3144 140.06 93.7125 144.02 99.042C147.981 104.372 153.453 108.386 159.726 110.563C165.999 112.74 172.782 112.978 179.193 111.248C185.603 109.518 191.345 105.898 195.67 100.86L190.5 93.4701C188.24 96.6422 185.255 99.2289 181.794 101.015C178.333 102.801 174.495 103.736 170.6 103.74Z" fill="white"/>
</svg>
