<svg width="500" height="500" viewBox="0 0 500 500" fill="none" xmlns="http://www.w3.org/2000/svg">
<g clip-path="url(#clip0)">
<path d="M498.98 0H-1.02002V500H498.98V0Z" fill="#B2D235"/>
<path d="M208.42 124.84L79.1401 348.76C60.2701 381.44 83.8501 422.28 121.58 422.28H380.14C417.87 422.28 441.45 381.44 422.58 348.76L293.3 124.84C274.44 92.1699 227.28 92.1699 208.42 124.84Z" fill="white"/>
<path d="M153 378.75L180.75 343.65H153.66V334H194.8V343.09L166.69 378.71H194.87V388.28H153V378.75Z" fill="#00BCF1"/>
<path d="M243.39 343.65H214.66V355.18H241V364.6H214.66V378.6H244.71V388.36H203.57V334H243.39V343.65Z" fill="#00BCF1"/>
<path d="M288.72 335.43C290.693 336.273 292.435 337.576 293.8 339.23C294.947 340.599 295.869 342.141 296.53 343.8C297.225 345.619 297.564 347.554 297.53 349.5C297.5 352.163 296.813 354.777 295.53 357.11C294.166 359.653 291.85 361.551 289.09 362.39C291.308 363.163 293.189 364.683 294.41 366.69C295.41 368.54 295.98 371.37 295.98 375.17V378.82C295.925 380.509 296.025 382.2 296.28 383.87C296.385 384.505 296.626 385.11 296.987 385.644C297.348 386.177 297.82 386.626 298.37 386.96V388.32H285.9C285.55 387.12 285.31 386.15 285.16 385.41C284.868 383.87 284.707 382.308 284.68 380.74L284.61 375.69C284.557 372.23 283.957 369.924 282.81 368.77C281.66 367.61 279.51 367.04 276.35 367.04H265.27V388.32H254.19V334H280.19C283.097 333.953 285.988 334.437 288.72 335.43ZM265.27 343.43V358.02H277.48C279.343 358.119 281.205 357.815 282.94 357.13C285.08 356.13 286.16 354.07 286.16 351.02C286.16 347.727 285.12 345.517 283.04 344.39C281.4 343.639 279.602 343.296 277.8 343.39L265.27 343.43Z" fill="#00BCF1"/>
<path d="M350.58 383.5C346.48 387.72 340.55 389.83 332.79 389.83C325.03 389.83 319.1 387.72 315 383.5C309.5 378.32 306.75 370.857 306.75 361.11C306.75 351.163 309.5 343.697 315 338.71C319.1 334.49 325.03 332.38 332.79 332.38C340.55 332.38 346.48 334.49 350.58 338.71C356.06 343.703 358.797 351.17 358.79 361.11C358.79 370.85 356.053 378.313 350.58 383.5ZM343.49 375.25C346.157 371.917 347.49 367.203 347.49 361.11C347.49 355.017 346.157 350.307 343.49 346.98C342.231 345.357 340.604 344.057 338.744 343.188C336.883 342.318 334.842 341.904 332.79 341.98C330.723 341.906 328.668 342.323 326.793 343.195C324.917 344.067 323.275 345.371 322 347C319.333 350.333 318 355.05 318 361.15C318 367.25 319.333 371.963 322 375.29C323.273 376.909 324.91 378.206 326.777 379.074C328.645 379.943 330.691 380.36 332.75 380.29C334.812 380.362 336.861 379.943 338.728 379.066C340.596 378.19 342.228 376.882 343.49 375.25Z" fill="#00BCF1"/>
<path d="M284.8 217.77C284.8 241.77 269.61 261.31 250.86 261.31C232.11 261.31 216.92 241.82 216.92 217.77C216.92 193.72 250.86 155.05 250.86 155.05C250.86 155.05 284.8 193.73 284.8 217.77Z" stroke="#B2D235" stroke-width="9.16" stroke-miterlimit="10"/>
<path d="M250.86 190.18V298.94" stroke="#B2D235" stroke-width="9.16" stroke-linecap="round" stroke-linejoin="round"/>
<path d="M250.86 236.96L235 221.09" stroke="#B2D235" stroke-width="9.16" stroke-linecap="round" stroke-linejoin="round"/>
</g>
<defs>
<clipPath id="clip0">
<rect width="500" height="500" fill="white"/>
</clipPath>
</defs>
</svg>
