<svg width="500" height="500" viewBox="0 0 500 500" fill="none" xmlns="http://www.w3.org/2000/svg">
<path d="M500 0H0V500H500V0Z" fill="#007DB9"/>
<path d="M320.07 376.6C320.07 388.09 288.7 401.91 250 401.91C211.3 401.91 179.93 388.09 179.93 376.6L165.82 192.72H334.18L320.07 376.6Z" fill="#00BCF1"/>
<path d="M250 217.73C296.491 217.73 334.18 206.533 334.18 192.72C334.18 178.907 296.491 167.71 250 167.71C203.508 167.71 165.82 178.907 165.82 192.72C165.82 206.533 203.508 217.73 250 217.73Z" fill="#007DB9"/>
<path d="M250 256.34V368.73" stroke="#007DB9" stroke-width="6.23" stroke-miterlimit="10" stroke-linecap="round"/>
<path d="M207.71 247.4L212.84 364.17" stroke="#007DB9" stroke-width="6.23" stroke-miterlimit="10" stroke-linecap="round"/>
<path d="M293.92 247.4L288.8 364.17" stroke="#007DB9" stroke-width="6.23" stroke-miterlimit="10" stroke-linecap="round"/>
<path d="M250 217.73C272.81 217.73 293.49 215.03 308.65 210.65L305.38 204.75L301 198.9L296.81 191.16L288.65 192.78L283.39 185.4L275.92 185.59L268.51 187.06L261.41 188.11L254.48 191.36L247.67 190.11L240.55 187.85L233.85 189.94L226.7 189.81L218.12 186.15L211.02 188.44L208.73 200.44L199.28 197.93L192.63 201.25L188.69 209.89C204.07 214.7 225.84 217.73 250 217.73Z" fill="#B2D235"/>
<path d="M301 155.49C301 149.76 306.6 149.76 306.6 144.02C306.6 138.28 301 138.28 301 132.54C301 126.8 306.6 126.8 306.6 121.06C306.6 115.32 301 115.31 301 109.57C301 103.83 306.6 103.83 306.6 98.0898" stroke="white" stroke-width="4.37" stroke-miterlimit="10" stroke-linecap="round"/>
<path d="M265.19 155.49C265.19 149.76 270.8 149.76 270.8 144.02C270.8 138.28 265.19 138.28 265.19 132.54C265.19 126.8 270.8 126.8 270.8 121.06C270.8 115.32 265.19 115.31 265.19 109.57C265.19 103.83 270.8 103.83 270.8 98.0898" stroke="white" stroke-width="4.37" stroke-miterlimit="10" stroke-linecap="round"/>
<path d="M229.42 155.49C229.42 149.76 235.03 149.76 235.03 144.02C235.03 138.28 229.42 138.28 229.42 132.54C229.42 126.8 235 126.8 235 121.06C235 115.32 229.39 115.31 229.39 109.57C229.39 103.83 235 103.83 235 98.0898" stroke="white" stroke-width="4.37" stroke-miterlimit="10" stroke-linecap="round"/>
<path d="M193.66 155.49C193.66 149.76 199.26 149.76 199.26 144.02C199.26 138.28 193.66 138.28 193.66 132.54C193.66 126.8 199.26 126.8 199.26 121.06C199.26 115.32 193.66 115.31 193.66 109.57C193.66 103.83 199.26 103.83 199.26 98.0898" stroke="white" stroke-width="4.37" stroke-miterlimit="10" stroke-linecap="round"/>
<path d="M250 173.71C271.92 173.71 292.46 176.22 307.82 180.78C324.52 185.78 328.18 191.08 328.18 192.72C328.18 194.36 324.52 199.72 307.82 204.65C292.46 209.22 271.92 211.73 250 211.73C228.08 211.73 207.54 209.22 192.18 204.65C175.48 199.65 171.82 194.36 171.82 192.72C171.82 191.08 175.48 185.72 192.18 180.78C207.54 176.22 228.08 173.71 250 173.71ZM250 167.71C203.51 167.71 165.82 178.91 165.82 192.71C165.82 206.51 203.51 217.71 250 217.71C296.49 217.71 334.18 206.51 334.18 192.71C334.18 178.91 296.49 167.71 250 167.71Z" fill="#00BCF1"/>
</svg>
