<svg xmlns="http://www.w3.org/2000/svg" viewBox="0 0 450 600"><rect width="450" height="359.3" fill="#00bcf1"/><rect y="326.75" width="450" height="271.89" fill="#ec1c24"/><path d="M450,246.28,319.26,276.19,340,285.37,346.16,300l-3.79,36.59,3.79,11S355,349,357.9,328.4s4-26.72,15.45-30.5S450,276.19,450,276.19" fill="#007db9"/><path d="M176.8,525.67c0,13.46-7.69,19-17.18,19s-17.18-5.49-17.18-19,17.18-28.44,17.18-28.44S176.8,512.21,176.8,525.67Z" fill="#00bcf1"/><ellipse cx="159.62" cy="534.76" rx="3.56" ry="9.86" fill="#fff"/><path d="M222,525.67c0,13.46-7.7,19-17.19,19s-17.18-5.49-17.18-19,17.18-28.44,17.18-28.44S222,512.21,222,525.67Z" fill="#00bcf1"/><ellipse cx="204.82" cy="534.76" rx="3.56" ry="9.86" fill="#fff"/><path d="M307.56,525.67c0,13.46-7.69,19-17.18,19s-17.18-5.49-17.18-19,17.18-28.44,17.18-28.44S307.56,512.21,307.56,525.67Z" fill="#00bcf1"/><ellipse cx="290.38" cy="534.76" rx="3.56" ry="9.86" fill="#fff"/><path d="M264.78,525.67c0,13.46-7.69,19-17.18,19s-17.18-5.49-17.18-19,17.18-28.44,17.18-28.44S264.78,512.21,264.78,525.67Z" fill="#00bcf1"/><ellipse cx="247.6" cy="534.76" rx="3.56" ry="9.86" fill="#fff"/><path d="M103.08,297V438.36c0,16.43,53.56,38.17,119.64,38.17s119.65-21.74,119.65-38.17V297" fill="#b2d235" stroke="#b2d235" stroke-miterlimit="10" stroke-width="10.15"/><ellipse cx="222.72" cy="297" rx="119.65" ry="29.75" fill="none" stroke="#007db9" stroke-miterlimit="10" stroke-width="10"/><ellipse cx="222.72" cy="297" rx="119.65" ry="29.75" fill="#007db9"/><path d="M126.57,314c5.51,2,9.51,5.7,16.71,7.28,6,1.31,13.28-1.45,20.27-.45,6.25.89,12.4,5.62,19.29,6.22,6.38.56,13.27-3,20.09-2.72,6.47.27,13,4.41,19.79,4.41s13.33-4.14,19.8-4.41c6.82-.28,13.71,3.28,20.09,2.72,6.89-.6,13-5.33,19.29-6.22,7-1,14.26,1.76,20.27.45,7.2-1.58,11.2-5.32,16.71-7.28-5.51-2-9.51-5.7-16.71-7.28-6-1.31-13.28,1.45-20.27.45-6.25-.89-12.4-5.62-19.29-6.22-6.38-.56-13.27,3-20.09,2.72-6.47-.27-13-4.4-19.8-4.4s-13.32,4.13-19.79,4.4c-6.82.29-13.71-3.28-20.09-2.72-6.89.6-13,5.33-19.29,6.22-7,1-14.26-1.76-20.27-.45C136.08,308.31,132.08,312.05,126.57,314Z" fill="#fff"/><path d="M138.87,282.79c0-28.28,14.67-28.28,14.67-56.55S138.87,198,138.87,169.68s14.67-28.28,14.67-56.56-14.67-28.28-14.67-56.56S153.54,28.28,153.54,0" fill="none" stroke="#007db9" stroke-miterlimit="10" stroke-width="1.22"/><path d="M155.78,282.79c0-28.28,14.67-28.28,14.67-56.55S155.78,198,155.78,169.68s14.67-28.28,14.67-56.56-14.67-28.28-14.67-56.56S170.45,28.28,170.45,0" fill="none" stroke="#007db9" stroke-miterlimit="10" stroke-width="1.22"/><path d="M172.69,282.79c0-28.28,14.67-28.28,14.67-56.55S172.69,198,172.69,169.68s14.67-28.28,14.67-56.56-14.67-28.28-14.67-56.56S187.36,28.28,187.36,0" fill="none" stroke="#007db9" stroke-miterlimit="10" stroke-width="1.22"/><path d="M189.61,282.79c0-28.28,14.67-28.28,14.67-56.55S189.61,198,189.61,169.68s14.67-28.28,14.67-56.56-14.67-28.28-14.67-56.56S204.28,28.28,204.28,0" fill="none" stroke="#007db9" stroke-miterlimit="10" stroke-width="1.22"/><path d="M206.52,282.79c0-28.28,14.67-28.28,14.67-56.55S206.52,198,206.52,169.68s14.67-28.28,14.67-56.56-14.67-28.28-14.67-56.56S221.19,28.28,221.19,0" fill="none" stroke="#007db9" stroke-miterlimit="10" stroke-width="1.22"/><path d="M223.43,282.79c0-28.28,14.67-28.28,14.67-56.55S223.43,198,223.43,169.68s14.67-28.28,14.67-56.56-14.67-28.28-14.67-56.56S238.1,28.28,238.1,0" fill="none" stroke="#007db9" stroke-miterlimit="10" stroke-width="1.22"/><path d="M240.34,282.79c0-28.28,14.67-28.28,14.67-56.55S240.34,198,240.34,169.68,255,141.4,255,113.12s-14.67-28.28-14.67-56.56S255,28.28,255,0" fill="none" stroke="#007db9" stroke-miterlimit="10" stroke-width="1.22"/><path d="M257.26,282.79c0-28.28,14.67-28.28,14.67-56.55S257.26,198,257.26,169.68s14.67-28.28,14.67-56.56-14.67-28.28-14.67-56.56S271.93,28.28,271.93,0" fill="none" stroke="#007db9" stroke-miterlimit="10" stroke-width="1.22"/><path d="M274.17,282.79c0-28.28,14.67-28.28,14.67-56.55S274.17,198,274.17,169.68s14.67-28.28,14.67-56.56-14.67-28.28-14.67-56.56S288.84,28.28,288.84,0" fill="none" stroke="#007db9" stroke-miterlimit="10" stroke-width="1.22"/><path d="M291.08,282.79c0-28.28,14.67-28.28,14.67-56.55S291.08,198,291.08,169.68s14.67-28.28,14.67-56.56-14.67-28.28-14.67-56.56S305.75,28.28,305.75,0" fill="none" stroke="#007db9" stroke-miterlimit="10" stroke-width="1.22"/><polygon points="114.3 158.24 74.09 175.34 147.42 52.82 187.64 35.72 114.3 158.24" fill="none" stroke="#fff" stroke-linecap="round" stroke-linejoin="round" stroke-width="3"/><polyline points="59.19 0 147.42 52.82 74.09 175.34 0 130.99" fill="none" stroke="#fff" stroke-linecap="round" stroke-linejoin="round" stroke-width="3"/><line x1="187.64" y1="35.72" x2="124.57" fill="none" stroke="#fff" stroke-linecap="round" stroke-linejoin="round" stroke-width="3"/><path d="M177.83,127.19a4.25,4.25,0,0,0,.73-2.27,3.34,3.34,0,0,0-.1-.82h0a28.21,28.21,0,0,0-27.41-21.6A28.34,28.34,0,0,0,134.27,108a28.23,28.23,0,0,0-11.44,22.68,27.85,27.85,0,0,0,.79,6.62h0a3.58,3.58,0,0,0,.93,1.67,5.54,5.54,0,0,0,2.42,1.39,10.63,10.63,0,0,0,3.06.41,15.21,15.21,0,0,0,3.57-.44,14,14,0,0,0,5.19-2.37,7.41,7.41,0,0,0,1.68-1.78,4.23,4.23,0,0,0,.73-2.28,3.21,3.21,0,0,0-.1-.81h0a11.23,11.23,0,0,1-.29-2.4,11,11,0,0,1,.14-1.64,10.33,10.33,0,0,1,2.55-5.25h0a10.31,10.31,0,0,1,7.54-3.31,10,10,0,0,1,1.64.13,10.26,10.26,0,0,1,5.24,2.55,10.09,10.09,0,0,1,3,5.14h0a3.64,3.64,0,0,0,.94,1.67,5.52,5.52,0,0,0,2.42,1.38,10.56,10.56,0,0,0,3,.42,15.84,15.84,0,0,0,3.58-.44,13.86,13.86,0,0,0,5.18-2.38A7.28,7.28,0,0,0,177.83,127.19Z" fill="#00bcf1"/><path d="M204.68,191.57a28.24,28.24,0,0,0,13.37-23.33c0-.22,0-.43,0-.65a28.22,28.22,0,0,0-16.62-25.73h0a3.63,3.63,0,0,0-1.47-.31,4.67,4.67,0,0,0-2.14.56,9,9,0,0,0-2.73,2.27,15.15,15.15,0,0,0-2.18,3.51,14,14,0,0,0-1.31,5.56,7.09,7.09,0,0,0,.52,2.78,3.85,3.85,0,0,0,1.91,2h0a10.07,10.07,0,0,1,3.29,2.36,10.27,10.27,0,0,1,2.58,5.23,10,10,0,0,1,.15,1.73,10.18,10.18,0,0,1-.91,4.18,10.07,10.07,0,0,1-2.36,3.29,10.27,10.27,0,0,1-5.23,2.58,10.05,10.05,0,0,1-5.91-.76h0a3.55,3.55,0,0,0-1.46-.31,4.67,4.67,0,0,0-2.14.56,9,9,0,0,0-2.73,2.27,14.82,14.82,0,0,0-2.18,3.51,14,14,0,0,0-1.31,5.56,7.09,7.09,0,0,0,.52,2.78,3.82,3.82,0,0,0,1.91,2l.62-1.37-.62,1.37h0a28.32,28.32,0,0,0,10.93,2.49h.65A28.26,28.26,0,0,0,204.68,191.57Z" fill="#00bcf1"/><path d="M239.29,247.55l1.21-.89h0a28.18,28.18,0,0,0-22.65-11.37l-1.28,0h0a28.2,28.2,0,0,0-26.92,28.19c0,.43,0,.85,0,1.29h0a28.12,28.12,0,0,0,5.54,15.54h0a3.65,3.65,0,0,0,1.6,1.2,5.17,5.17,0,0,0,1.91.34,9.4,9.4,0,0,0,3.38-.71,15,15,0,0,0,3.49-2,14.52,14.52,0,0,0,3.4-3.49,11.61,11.61,0,0,0,.64-1.13l.33.44v-1.16a6.15,6.15,0,0,0,.4-2,3.75,3.75,0,0,0-.71-2.24h0a10.22,10.22,0,0,1-1.73-3.66,10.25,10.25,0,0,1,.29-5.82,10.25,10.25,0,0,1,7.2-6.53,10.32,10.32,0,0,1,2.41-.29,10.2,10.2,0,0,1,8.21,4.12h0a3.6,3.6,0,0,0,1.6,1.2,5.17,5.17,0,0,0,1.91.34,9.45,9.45,0,0,0,3.38-.71,15.2,15.2,0,0,0,3.48-2,14.54,14.54,0,0,0,3.4-3.5,7.14,7.14,0,0,0,1.37-3.87,3.67,3.67,0,0,0-.7-2.24Z" fill="#00bcf1"/><path d="M278.89,157.31a5.55,5.55,0,0,0-1.22-1.72,3.65,3.65,0,0,0-1.94-1h0a28.92,28.92,0,0,0-4.24-.32,27.7,27.7,0,0,0-6.95.88,28.19,28.19,0,0,0-20.91,23.12,27.61,27.61,0,0,0-.32,4.24,28.22,28.22,0,0,0,24,27.87h0a4.36,4.36,0,0,0,.51,0,4,4,0,0,0,2.34-.8,8.06,8.06,0,0,0,2.39-3,15,15,0,0,0,1.33-4.33,16.27,16.27,0,0,0,.18-2.37,11.31,11.31,0,0,0-.9-4.63,5.55,5.55,0,0,0-1.22-1.72,3.68,3.68,0,0,0-1.94-1h0a10.21,10.21,0,0,1-7.19-15.43,10.3,10.3,0,0,1,4.33-3.89,10.08,10.08,0,0,1,4.35-1,10.31,10.31,0,0,1,1.55.12h0a4.06,4.06,0,0,0,.51,0,4,4,0,0,0,2.34-.81,8.08,8.08,0,0,0,2.39-3,14.65,14.65,0,0,0,1.32-4.33,16.16,16.16,0,0,0,.18-2.37A11,11,0,0,0,278.89,157.31Z" fill="#00bcf1"/><polygon points="275.74 154.63 275.73 154.63 275.73 154.63 275.73 154.63 275.74 154.63" fill="#00bcf1"/><ellipse cx="169.72" cy="126.21" rx="7.49" ry="3.79" transform="translate(-24.85 43.28) rotate(-13.55)" fill="none" stroke="#fff" stroke-miterlimit="10" stroke-width="3"/><ellipse cx="132.36" cy="135.21" rx="7.49" ry="3.79" transform="translate(-28 34.78) rotate(-13.55)" fill="none" stroke="#fff" stroke-miterlimit="10" stroke-width="3"/><path d="M177,124.45A26.71,26.71,0,0,0,125.07,137" fill="none" stroke="#fff" stroke-miterlimit="10" stroke-width="3"/><path d="M139.66,133.45h0a11.42,11.42,0,0,1-.18-4.64,11.84,11.84,0,0,1,2.92-6,11.62,11.62,0,0,1,5.89-3.47A11.65,11.65,0,0,1,159,122.08a11.62,11.62,0,0,1,3.47,5.89" fill="none" stroke="#fff" stroke-miterlimit="10" stroke-width="3"/><ellipse cx="181.95" cy="185.09" rx="7.49" ry="3.79" transform="translate(-61.56 274.91) rotate(-65.74)" fill="none" stroke="#fff" stroke-miterlimit="10" stroke-width="3"/><ellipse cx="197.74" cy="150.06" rx="7.49" ry="3.79" transform="translate(-20.32 268.67) rotate(-65.74)" fill="none" stroke="#fff" stroke-miterlimit="10" stroke-width="3"/><path d="M178.87,191.92a26.7,26.7,0,1,0,21.95-48.69" fill="none" stroke="#fff" stroke-miterlimit="10" stroke-width="3"/><path d="M194.66,156.9h0a11.6,11.6,0,0,1,3.77,2.71,11.7,11.7,0,0,1,2.09,12.78,11.6,11.6,0,0,1-2.71,3.77,11.79,11.79,0,0,1-6,3,11.67,11.67,0,0,1-6.79-.87" fill="none" stroke="#fff" stroke-miterlimit="10" stroke-width="3"/><ellipse cx="233.28" cy="252.02" rx="7.49" ry="3.79" transform="translate(-104.3 188.99) rotate(-36.64)" fill="none" stroke="#fff" stroke-miterlimit="10" stroke-width="3"/><ellipse cx="202.44" cy="274.95" rx="7.49" ry="3.79" transform="translate(-124.08 175.12) rotate(-36.64)" fill="none" stroke="#fff" stroke-miterlimit="10" stroke-width="3"/><path d="M239.29,247.55a26.71,26.71,0,0,0-42.86,31.88" fill="none" stroke="#fff" stroke-miterlimit="10" stroke-width="3"/><path d="M208.47,270.47h0a11.68,11.68,0,0,1-1.64-10.88,11.62,11.62,0,0,1,4.05-5.51,11.71,11.71,0,0,1,16.39,2.41" fill="none" stroke="#fff" stroke-miterlimit="10" stroke-width="3"/><ellipse cx="274.39" cy="163.53" rx="7.49" ry="3.79" transform="translate(71.73 410.43) rotate(-81.41)" fill="none" stroke="#fff" stroke-miterlimit="10" stroke-width="3"/><ellipse cx="268.65" cy="201.52" rx="7.49" ry="3.79" transform="translate(29.28 437.08) rotate(-81.41)" fill="none" stroke="#fff" stroke-miterlimit="10" stroke-width="3"/><path d="M275.51,156.11a26.71,26.71,0,0,0-30.4,22.43,26.45,26.45,0,0,0,.53,10.59,26.68,26.68,0,0,0,21.89,19.8" fill="none" stroke="#fff" stroke-miterlimit="10" stroke-width="3"/><path d="M269.77,194.1h0a11.62,11.62,0,0,1-4.37-1.59,11.77,11.77,0,0,1-4.46-5,11.6,11.6,0,0,1-1-6.76,11.71,11.71,0,0,1,6.56-8.84,11.55,11.55,0,0,1,6.77-1" fill="none" stroke="#fff" stroke-miterlimit="10" stroke-width="3"/><line x1="114.3" y1="158.24" x2="92.1" y2="145.25" fill="none" stroke="#fff" stroke-linecap="round" stroke-linejoin="round" stroke-width="3"/><path d="M342.37,297c0,16.43-53.57,29.75-119.65,29.75S103.08,313.43,103.08,297" fill="none" stroke="#007db9" stroke-miterlimit="10" stroke-width="5"/></svg>