<?xml version="1.0" encoding="utf-8"?>
<!-- Generator: Adobe Illustrator 24.0.0, SVG Export Plug-In . SVG Version: 6.00 Build 0)  -->
<svg version="1.1" id="Layer_1" xmlns="http://www.w3.org/2000/svg" xmlns:xlink="http://www.w3.org/1999/xlink" x="0px" y="0px"
	 viewBox="0 0 70 70" style="enable-background:new 0 0 70 70;" xml:space="preserve">
<style type="text/css">
	.st0{fill:#FF000B;}
	.st1{fill:#989898;}
	.st2{fill:#00B9F1;}
	.st3{fill:#227DBA;}
	.st4{fill:#508D35;}
	.st5{fill:#2CAB9F;}
	.st6{fill:#99D000;}
	.st7{fill:none;stroke:#99D000;stroke-width:0.5743;stroke-miterlimit:10;}
	.st8{fill:none;stroke:#2CAB9F;stroke-width:2.474;stroke-linecap:round;stroke-linejoin:round;stroke-miterlimit:10;}
	.st9{fill:#FFFFFF;}
	.st10{clip-path:url(#SVGID_2_);}
	.st11{clip-path:url(#SVGID_4_);}
	.st12{clip-path:url(#SVGID_6_);}
	.st13{clip-path:url(#SVGID_8_);}
	.st14{filter:url(#Adobe_OpacityMaskFilter);}
	.st15{fill-rule:evenodd;clip-rule:evenodd;fill:#FFFFFF;}
	.st16{mask:url(#mask-2_4_);}
	.st17{fill-rule:evenodd;clip-rule:evenodd;fill:#989898;}
	.st18{filter:url(#Adobe_OpacityMaskFilter_1_);}
	.st19{mask:url(#mask-4_3_);}
	.st20{fill-rule:evenodd;clip-rule:evenodd;fill:#AFD141;}
	.st21{filter:url(#Adobe_OpacityMaskFilter_2_);}
	.st22{mask:url(#mask-6_2_);}
	.st23{filter:url(#Adobe_OpacityMaskFilter_3_);}
	.st24{mask:url(#mask-2_3_);}
	.st25{filter:url(#Adobe_OpacityMaskFilter_4_);}
	.st26{mask:url(#mask-2_2_);}
	.st27{filter:url(#Adobe_OpacityMaskFilter_5_);}
	.st28{mask:url(#mask-4_2_);}
	.st29{filter:url(#Adobe_OpacityMaskFilter_6_);}
	.st30{mask:url(#mask-2_1_);}
	.st31{filter:url(#Adobe_OpacityMaskFilter_7_);}
	.st32{mask:url(#mask-4_1_);}
	.st33{filter:url(#Adobe_OpacityMaskFilter_8_);}
	.st34{mask:url(#mask-6_1_);}
</style>
<g>
	<g>
		<circle class="st3" cx="23.9" cy="31.6" r="2.8"/>
	</g>
	<g>
		<circle class="st3" cx="35" cy="31.6" r="2.8"/>
	</g>
	<g>
		<circle class="st3" cx="46.1" cy="31.6" r="2.8"/>
	</g>
	<g>
		<path class="st1" d="M43.2,16.5H26.8c-8,0-14.6,6.5-14.6,14.6c0,8,6.5,14.6,14.6,14.6H28v7.3c0,0.2,0.1,0.4,0.3,0.5
			c0.1,0,0.2,0.1,0.2,0.1c0.1,0,0.3,0,0.4-0.1l9.7-7.7h4.5c8,0,14.6-6.5,14.6-14.6C57.7,23,51.2,16.5,43.2,16.5z M43.2,44.5h-4.7
			c-0.1,0-0.3,0-0.4,0.1l-9,7.1v-6.7c0-0.3-0.3-0.6-0.6-0.6h-1.8c-7.4,0-13.4-6-13.4-13.4s6-13.4,13.4-13.4h16.3
			c7.4,0,13.4,6,13.4,13.4S50.6,44.5,43.2,44.5z"/>
		<path class="st1" d="M28.6,53.6c-0.1,0-0.2,0-0.3-0.1c-0.2-0.1-0.4-0.4-0.4-0.6v-7.2h-1.1c-8.1,0-14.7-6.6-14.7-14.7
			s6.6-14.7,14.7-14.7h16.3c8.1,0,14.7,6.6,14.7,14.7s-6.6,14.7-14.7,14.7h-4.4L29,53.5C28.9,53.6,28.7,53.6,28.6,53.6z M26.8,16.6
			c-8,0-14.4,6.5-14.4,14.4s6.5,14.4,14.4,14.4h1.3v7.4c0,0.2,0.1,0.3,0.3,0.4c0.1,0.1,0.3,0.1,0.5-0.1l9.8-7.8h4.5
			c8,0,14.4-6.5,14.4-14.4s-6.5-14.4-14.4-14.4H26.8z M29,52v-6.9c0-0.2-0.2-0.4-0.4-0.4h-1.8c-7.5,0-13.5-6.1-13.5-13.5
			s6.1-13.5,13.5-13.5h16.3c7.5,0,13.5,6.1,13.5,13.5s-6.1,13.5-13.5,13.5h-4.7c-0.1,0-0.2,0-0.3,0.1L29,52z M26.8,17.8
			c-7.3,0-13.3,6-13.3,13.3s6,13.3,13.3,13.3h1.8c0.4,0,0.7,0.3,0.7,0.7v6.4l8.8-7c0.1-0.1,0.3-0.2,0.4-0.2h4.7
			c7.3,0,13.3-6,13.3-13.3s-6-13.3-13.3-13.3H26.8z"/>
	</g>
</g>
<g>
	<defs>
		<polygon id="SVGID_1_" points="-320.3,2070.3 -320.3,2071.5 -302.5,2071.5 -302.5,2090.3 -301.3,2090.3 -301.3,2070.3 		"/>
	</defs>
	<clipPath id="SVGID_2_">
		<use xlink:href="#SVGID_1_"  style="overflow:visible;"/>
	</clipPath>
	<g class="st10">
		<defs>
			<rect id="SVGID_3_" x="-578.3" y="-2515.7" width="1640" height="5497"/>
		</defs>
		<clipPath id="SVGID_4_">
			<use xlink:href="#SVGID_3_"  style="overflow:visible;"/>
		</clipPath>
	</g>
</g>
<g>
	<defs>
		<polygon id="SVGID_5_" points="-318.6,2089.3 -319.3,2088.5 -302.1,2070.3 -301.3,2071.2 		"/>
	</defs>
	<clipPath id="SVGID_6_">
		<use xlink:href="#SVGID_5_"  style="overflow:visible;"/>
	</clipPath>
	<g class="st12">
		<defs>
			<rect id="SVGID_7_" x="-578.3" y="-2515.7" width="1640" height="5497"/>
		</defs>
		<clipPath id="SVGID_8_">
			<use xlink:href="#SVGID_7_"  style="overflow:visible;"/>
		</clipPath>
	</g>
</g>
</svg>
