<?xml version="1.0" encoding="utf-8"?>
<!-- Generator: Adobe Illustrator 24.0.0, SVG Export Plug-In . SVG Version: 6.00 Build 0)  -->
<svg version="1.1" id="Layer_1" xmlns="http://www.w3.org/2000/svg" xmlns:xlink="http://www.w3.org/1999/xlink" x="0px" y="0px"
	 viewBox="0 0 70 70" style="enable-background:new 0 0 70 70;" xml:space="preserve">
<style type="text/css">
	.st0{fill:#FF000B;}
	.st1{fill:#989898;}
	.st2{fill:#00B9F1;}
	.st3{fill:#227DBA;}
	.st4{fill:#508D35;}
	.st5{fill:#2CAB9F;}
	.st6{fill:#99D000;}
	.st7{fill:none;stroke:#99D000;stroke-width:0.5743;stroke-miterlimit:10;}
	.st8{fill:none;stroke:#2CAB9F;stroke-width:2.474;stroke-linecap:round;stroke-linejoin:round;stroke-miterlimit:10;}
	.st9{fill:#FFFFFF;}
	.st10{clip-path:url(#SVGID_2_);}
	.st11{clip-path:url(#SVGID_4_);}
	.st12{clip-path:url(#SVGID_6_);}
	.st13{clip-path:url(#SVGID_8_);}
	.st14{filter:url(#Adobe_OpacityMaskFilter);}
	.st15{fill-rule:evenodd;clip-rule:evenodd;fill:#FFFFFF;}
	.st16{mask:url(#mask-2_4_);}
	.st17{fill-rule:evenodd;clip-rule:evenodd;fill:#989898;}
	.st18{filter:url(#Adobe_OpacityMaskFilter_1_);}
	.st19{mask:url(#mask-4_3_);}
	.st20{fill-rule:evenodd;clip-rule:evenodd;fill:#AFD141;}
	.st21{filter:url(#Adobe_OpacityMaskFilter_2_);}
	.st22{mask:url(#mask-6_2_);}
	.st23{filter:url(#Adobe_OpacityMaskFilter_3_);}
	.st24{mask:url(#mask-2_3_);}
	.st25{filter:url(#Adobe_OpacityMaskFilter_4_);}
	.st26{mask:url(#mask-2_2_);}
	.st27{filter:url(#Adobe_OpacityMaskFilter_5_);}
	.st28{mask:url(#mask-4_2_);}
	.st29{filter:url(#Adobe_OpacityMaskFilter_6_);}
	.st30{mask:url(#mask-2_1_);}
	.st31{filter:url(#Adobe_OpacityMaskFilter_7_);}
	.st32{mask:url(#mask-4_1_);}
	.st33{filter:url(#Adobe_OpacityMaskFilter_8_);}
	.st34{mask:url(#mask-6_1_);}
</style>
<g>
	<circle class="st0" cx="35" cy="34.5" r="6.3"/>
</g>
<g>
	<circle class="st0" cx="51.4" cy="17.9" r="3.7"/>
</g>
<g>
	<circle class="st0" cx="35" cy="12.1" r="3.7"/>
</g>
<g>
	<circle class="st0" cx="18.6" cy="18.6" r="3.7"/>
</g>
<g>
	<circle class="st0" cx="11.8" cy="34.5" r="3.7"/>
</g>
<g>
	<circle class="st0" cx="18.6" cy="51.4" r="3.7"/>
</g>
<g>
	<circle class="st0" cx="35" cy="58.2" r="3.7"/>
</g>
<g>
	<circle class="st0" cx="51.4" cy="51.4" r="3.7"/>
</g>
<g>
	<circle class="st0" cx="58.2" cy="35.1" r="3.7"/>
</g>
<g>
	<g>
		<path class="st1" d="M22.5,27c-1,1.5-1.7,3.2-2,4.9c0,0.2,0,0.4,0.1,0.5c0.1,0.2,0.3,0.3,0.5,0.3c1.2,0.1,2.1,1.1,2.1,2.3
			c0,1.2-0.9,2.2-2.1,2.3c-0.2,0-0.4,0.1-0.5,0.3c-0.1,0.2-0.2,0.4-0.1,0.5c0.4,1.8,1.1,3.4,2,4.9c0.1,0.2,0.3,0.3,0.5,0.3
			c0.2,0,0.4,0,0.5-0.1c0.9-0.7,2.2-0.7,3.1,0.2c0.8,0.8,0.9,2.2,0.2,3.1c-0.1,0.2-0.2,0.3-0.1,0.5c0,0.2,0.1,0.4,0.3,0.5
			c1.5,1,3.2,1.7,4.9,2c0,0,0.1,0,0.1,0c0.1,0,0.3,0,0.4-0.1c0.2-0.1,0.3-0.3,0.3-0.5c0.1-1.2,1.1-2.1,2.3-2.1
			c1.2,0,2.2,0.9,2.3,2.1c0,0.2,0.1,0.4,0.3,0.5c0.2,0.1,0.4,0.2,0.5,0.1c1.8-0.4,3.4-1.1,4.9-2c0.2-0.1,0.3-0.3,0.3-0.5
			c0-0.2,0-0.4-0.1-0.5c-0.7-0.9-0.7-2.2,0.2-3.1c0.8-0.8,2.2-0.9,3.1-0.2c0.2,0.1,0.3,0.2,0.5,0.1c0.2,0,0.4-0.1,0.5-0.3
			c1-1.5,1.7-3.2,2-4.9c0-0.2,0-0.4-0.1-0.5s-0.3-0.3-0.5-0.3c-1.2-0.1-2.1-1.1-2.1-2.3s0.9-2.2,2.1-2.3c0.2,0,0.4-0.1,0.5-0.3
			s0.2-0.4,0.1-0.5c-0.4-1.8-1.1-3.4-2-4.9c-0.1-0.2-0.3-0.3-0.5-0.3c-0.2,0-0.4,0-0.5,0.1c-0.9,0.7-2.2,0.7-3.1-0.2
			c-0.8-0.8-0.9-2.2-0.2-3.1c0.1-0.2,0.2-0.3,0.1-0.5c0-0.2-0.1-0.4-0.3-0.5c-1.5-1-3.2-1.7-4.9-2c-0.2,0-0.4,0-0.5,0.1
			c-0.2,0.1-0.3,0.3-0.3,0.5c-0.1,1.2-1.1,2.1-2.3,2.1s-2.2-0.9-2.3-2.1c0-0.2-0.1-0.4-0.3-0.5c-0.2-0.1-0.4-0.2-0.5-0.1
			c-1.8,0.4-3.4,1.1-4.9,2c-0.2,0.1-0.3,0.3-0.3,0.5s0,0.4,0.1,0.5c0.7,0.9,0.7,2.2-0.2,3.1c-0.8,0.8-2.2,0.9-3.1,0.2
			c-0.2-0.1-0.4-0.2-0.5-0.1C22.8,26.8,22.6,26.9,22.5,27z M27.6,27.7c1.1-1.1,1.4-2.9,0.7-4.3c1-0.6,2.1-1,3.2-1.3
			c0.5,1.5,1.9,2.5,3.5,2.5c1.6,0,3-1,3.5-2.5c1.1,0.3,2.2,0.7,3.2,1.3c-0.7,1.4-0.5,3.1,0.7,4.3c1.1,1.2,2.9,1.4,4.3,0.7
			c0.6,1,1,2.1,1.3,3.2c-1.5,0.5-2.5,1.9-2.5,3.5c0,1.6,1,3,2.5,3.5c-0.3,1.1-0.7,2.2-1.3,3.2c-1.4-0.7-3.1-0.5-4.3,0.7
			c-1.1,1.1-1.4,2.9-0.7,4.3c-1,0.6-2.1,1-3.2,1.3c-0.5-1.5-1.9-2.5-3.5-2.5c-1.6,0-3,1-3.5,2.5c-1.1-0.3-2.2-0.7-3.2-1.3
			c0.7-1.4,0.5-3.1-0.7-4.3c-1.1-1.1-2.9-1.4-4.3-0.7c-0.6-1-1-2.1-1.3-3.2c1.5-0.5,2.5-1.9,2.5-3.5c0-1.6-1-3-2.5-3.5
			c0.3-1.1,0.7-2.2,1.3-3.2C24.7,29.1,26.5,28.8,27.6,27.7z"/>
	</g>
	<g>
		<path class="st1" d="M46,15.3c0.1,0.1,0.2,0.1,0.3,0.1c0.2,0,0.5-0.1,0.6-0.4c0.2-0.3,0.1-0.8-0.3-0.9c-1.5-0.8-3.1-1.5-4.8-2
			c-0.4-0.1-0.7,0.1-0.9,0.5c-0.1,0.4,0.1,0.7,0.5,0.9C43,13.9,44.5,14.5,46,15.3z"/>
	</g>
	<g>
		<path class="st1" d="M24,15.2c0.1,0,0.2,0,0.3-0.1c1.4-0.8,3-1.4,4.5-1.8c0.4-0.1,0.6-0.5,0.5-0.9c-0.1-0.4-0.5-0.6-0.9-0.5
			c-1.7,0.5-3.3,1.1-4.8,2c-0.3,0.2-0.5,0.6-0.3,0.9C23.5,15.1,23.8,15.2,24,15.2z"/>
	</g>
	<g>
		<path class="st1" d="M12.2,28.1c-0.1,0.4,0.1,0.7,0.5,0.9c0.1,0,0.1,0,0.2,0c0.3,0,0.6-0.2,0.7-0.5c0.5-1.6,1.1-3.1,1.9-4.5
			c0.2-0.3,0.1-0.8-0.3-0.9c-0.3-0.2-0.8-0.1-0.9,0.3C13.3,24.8,12.7,26.4,12.2,28.1z"/>
	</g>
	<g>
		<path class="st1" d="M15,46.5c0.3-0.2,0.5-0.6,0.3-0.9c-0.8-1.4-1.4-3-1.8-4.5c-0.1-0.4-0.5-0.6-0.9-0.5c-0.4,0.1-0.6,0.5-0.5,0.9
			c0.5,1.7,1.1,3.3,2,4.8c0.1,0.2,0.4,0.4,0.6,0.4C14.7,46.6,14.9,46.6,15,46.5z"/>
	</g>
	<g>
		<path class="st1" d="M24,54.5c-0.3-0.2-0.8-0.1-0.9,0.3c-0.2,0.3-0.1,0.8,0.3,0.9c1.5,0.8,3.1,1.5,4.8,2c0.1,0,0.1,0,0.2,0
			c0.3,0,0.6-0.2,0.7-0.5c0.1-0.4-0.1-0.7-0.5-0.9C27,56,25.5,55.3,24,54.5z"/>
	</g>
	<g>
		<path class="st1" d="M45.7,54.7c-1.4,0.8-3,1.4-4.5,1.8c-0.4,0.1-0.6,0.5-0.5,0.9c0.1,0.3,0.4,0.5,0.7,0.5c0.1,0,0.1,0,0.2,0
			c1.7-0.5,3.3-1.1,4.8-2c0.3-0.2,0.5-0.6,0.3-0.9C46.4,54.6,46,54.5,45.7,54.7z"/>
	</g>
	<g>
		<path class="st1" d="M57.4,40.9c-0.4-0.1-0.7,0.1-0.9,0.5c-0.5,1.6-1.1,3.1-1.9,4.5c-0.2,0.3-0.1,0.8,0.3,0.9
			c0.1,0.1,0.2,0.1,0.3,0.1c0.2,0,0.5-0.1,0.6-0.4c0.8-1.5,1.5-3.1,2-4.8C57.9,41.4,57.7,41,57.4,40.9z"/>
	</g>
	<g>
		<path class="st1" d="M54.8,24.3c0.8,1.4,1.4,3,1.8,4.5c0.1,0.3,0.4,0.5,0.7,0.5c0.1,0,0.1,0,0.2,0c0.4-0.1,0.6-0.5,0.5-0.9
			c-0.5-1.7-1.1-3.3-2-4.8c-0.2-0.3-0.6-0.5-0.9-0.3C54.7,23.5,54.6,23.9,54.8,24.3z"/>
	</g>
</g>
<g>
	<defs>
		<polygon id="SVGID_1_" points="-319.4,2382.3 -319.4,2383.4 -301.5,2383.4 -301.5,2402.3 -300.4,2402.3 -300.4,2382.3 		"/>
	</defs>
	<clipPath id="SVGID_2_">
		<use xlink:href="#SVGID_1_"  style="overflow:visible;"/>
	</clipPath>
	<g class="st10">
		<defs>
			<rect id="SVGID_3_" x="-577.4" y="-2203.7" width="1640" height="5497"/>
		</defs>
		<clipPath id="SVGID_4_">
			<use xlink:href="#SVGID_3_"  style="overflow:visible;"/>
		</clipPath>
	</g>
</g>
<g>
	<defs>
		<polygon id="SVGID_5_" points="-317.6,2401.3 -318.4,2400.5 -301.2,2382.3 -300.4,2383.1 		"/>
	</defs>
	<clipPath id="SVGID_6_">
		<use xlink:href="#SVGID_5_"  style="overflow:visible;"/>
	</clipPath>
	<g class="st12">
		<defs>
			<rect id="SVGID_7_" x="-577.4" y="-2203.7" width="1640" height="5497"/>
		</defs>
		<clipPath id="SVGID_8_">
			<use xlink:href="#SVGID_7_"  style="overflow:visible;"/>
		</clipPath>
	</g>
</g>
</svg>
