<?xml version="1.0" encoding="utf-8"?>
<!-- Generator: Adobe Illustrator 24.0.0, SVG Export Plug-In . SVG Version: 6.00 Build 0)  -->
<svg version="1.1" id="Layer_1" xmlns="http://www.w3.org/2000/svg" xmlns:xlink="http://www.w3.org/1999/xlink" x="0px" y="0px"
	 viewBox="0 0 70 70" style="enable-background:new 0 0 70 70;" xml:space="preserve">
<style type="text/css">
	.st0{fill:#FF000B;}
	.st1{fill:#989898;}
	.st2{fill:#00B9F1;}
	.st3{fill:#227DBA;}
	.st4{fill:#508D35;}
	.st5{fill:#2CAB9F;}
	.st6{fill:#99D000;}
	.st7{fill:none;stroke:#99D000;stroke-width:0.5743;stroke-miterlimit:10;}
	.st8{fill:none;stroke:#2CAB9F;stroke-width:2.474;stroke-linecap:round;stroke-linejoin:round;stroke-miterlimit:10;}
	.st9{fill:#FFFFFF;}
	.st10{clip-path:url(#SVGID_2_);}
	.st11{clip-path:url(#SVGID_4_);}
	.st12{clip-path:url(#SVGID_6_);}
	.st13{clip-path:url(#SVGID_8_);}
	.st14{filter:url(#Adobe_OpacityMaskFilter);}
	.st15{fill-rule:evenodd;clip-rule:evenodd;fill:#FFFFFF;}
	.st16{mask:url(#mask-2_4_);}
	.st17{fill-rule:evenodd;clip-rule:evenodd;fill:#989898;}
	.st18{filter:url(#Adobe_OpacityMaskFilter_1_);}
	.st19{mask:url(#mask-4_3_);}
	.st20{fill-rule:evenodd;clip-rule:evenodd;fill:#AFD141;}
	.st21{filter:url(#Adobe_OpacityMaskFilter_2_);}
	.st22{mask:url(#mask-6_2_);}
	.st23{filter:url(#Adobe_OpacityMaskFilter_3_);}
	.st24{mask:url(#mask-2_3_);}
	.st25{filter:url(#Adobe_OpacityMaskFilter_4_);}
	.st26{mask:url(#mask-2_2_);}
	.st27{filter:url(#Adobe_OpacityMaskFilter_5_);}
	.st28{mask:url(#mask-4_2_);}
	.st29{filter:url(#Adobe_OpacityMaskFilter_6_);}
	.st30{mask:url(#mask-2_1_);}
	.st31{filter:url(#Adobe_OpacityMaskFilter_7_);}
	.st32{mask:url(#mask-4_1_);}
	.st33{filter:url(#Adobe_OpacityMaskFilter_8_);}
	.st34{mask:url(#mask-6_1_);}
</style>
<g>
	<g id="XMLID_7_">
		<g>
			<path class="st4" d="M50.8,22.3c0,0.1,0,0.2-0.1,0.3l-1.6,1.9l0.1,2.5c0,0.1,0,0.2-0.1,0.3c-0.1,0.1-0.2,0.1-0.3,0l-2.3-0.9
				l-2.3,0.9c0,0-0.1,0-0.1,0c-0.1,0-0.1,0-0.2-0.1c-0.1-0.1-0.1-0.2-0.1-0.3l0.1-2.5l-1.6-1.9c-0.1-0.1-0.1-0.2-0.1-0.3
				c0-0.1,0.1-0.2,0.2-0.2l2.4-0.6l1.4-2.1c0.1-0.2,0.4-0.2,0.5,0l1.4,2.1l2.4,0.6C50.6,22.1,50.7,22.2,50.8,22.3z"/>
			<path class="st4" d="M38.5,26.5c0,0.1,0,0.2-0.1,0.3l-1.6,1.9l0.1,2.5c0,0.1,0,0.2-0.1,0.3c-0.1,0-0.1,0.1-0.2,0.1
				c0,0-0.1,0-0.1,0l-2.3-0.9l-2.3,0.9c-0.1,0-0.2,0-0.3,0c-0.1-0.1-0.1-0.2-0.1-0.3l0.1-2.5L30,26.8C30,26.7,30,26.6,30,26.5
				c0-0.1,0.1-0.2,0.2-0.2l2.4-0.6l1.4-2.1c0.1-0.2,0.4-0.2,0.5,0l1.4,2.1l2.4,0.6C38.4,26.3,38.5,26.4,38.5,26.5z"/>
			<path class="st4" d="M26.8,29.8c0,0.1,0,0.2-0.1,0.3L25.2,32l0.1,2.5c0,0.1,0,0.2-0.1,0.3c-0.1,0-0.1,0.1-0.2,0.1
				c0,0-0.1,0-0.1,0l-2.3-0.9l-2.3,0.9c-0.1,0-0.2,0-0.3,0c-0.1-0.1-0.1-0.2-0.1-0.3l0.1-2.5l-1.6-1.9c-0.1-0.1-0.1-0.2-0.1-0.3
				c0-0.1,0.1-0.2,0.2-0.2l2.4-0.6l1.4-2.1c0.1-0.1,0.2-0.1,0.3-0.1c0.1,0,0.2,0.1,0.3,0.1l1.4,2.1l2.4,0.6
				C26.7,29.6,26.8,29.7,26.8,29.8z"/>
		</g>
	</g>
	<g>
		<path class="st1" d="M51.5,50h-1.7V30.3c0-0.2-0.2-0.4-0.4-0.4h-6.1c-0.2,0-0.4,0.2-0.4,0.4V50h-4.4V34.5c0-0.2-0.2-0.4-0.4-0.4
			h-6.1c-0.2,0-0.4,0.2-0.4,0.4V50h-4.4V38.8c0-0.2-0.2-0.4-0.4-0.4h-6.1c-0.2,0-0.4,0.2-0.4,0.4V50h-1.7c-0.2,0-0.4,0.2-0.4,0.4
			s0.2,0.4,0.4,0.4h32.9c0.2,0,0.4-0.2,0.4-0.4S51.7,50,51.5,50z M43.7,30.8h5.2V50h-5.2V30.8z M32.4,35h5.2v15h-5.2V35z M21,39.2
			h5.2V50H21V39.2z"/>
	</g>
</g>
<g>
	<defs>
		<polygon id="SVGID_1_" points="-644,1450.5 -644,1451.6 -626.1,1451.6 -626.1,1470.5 -625,1470.5 -625,1450.5 		"/>
	</defs>
	<clipPath id="SVGID_2_">
		<use xlink:href="#SVGID_1_"  style="overflow:visible;"/>
	</clipPath>
	<g class="st10">
		<defs>
			<rect id="SVGID_3_" x="-902" y="-3135.5" width="1640" height="5497"/>
		</defs>
		<clipPath id="SVGID_4_">
			<use xlink:href="#SVGID_3_"  style="overflow:visible;"/>
		</clipPath>
	</g>
</g>
<g>
	<defs>
		<polygon id="SVGID_5_" points="-642.3,1469.5 -643,1468.7 -625.8,1450.5 -625,1451.3 		"/>
	</defs>
	<clipPath id="SVGID_6_">
		<use xlink:href="#SVGID_5_"  style="overflow:visible;"/>
	</clipPath>
	<g class="st12">
		<defs>
			<rect id="SVGID_7_" x="-902" y="-3135.5" width="1640" height="5497"/>
		</defs>
		<clipPath id="SVGID_8_">
			<use xlink:href="#SVGID_7_"  style="overflow:visible;"/>
		</clipPath>
	</g>
</g>
</svg>
