<?xml version="1.0" encoding="utf-8"?>
<!-- Generator: Adobe Illustrator 24.0.0, SVG Export Plug-In . SVG Version: 6.00 Build 0)  -->
<svg version="1.1" id="Layer_1" xmlns="http://www.w3.org/2000/svg" xmlns:xlink="http://www.w3.org/1999/xlink" x="0px" y="0px"
	 viewBox="0 0 70 70" style="enable-background:new 0 0 70 70;" xml:space="preserve">
<style type="text/css">
	.st0{fill:#FF000B;}
	.st1{fill:#989898;}
	.st2{fill:#00B9F1;}
	.st3{fill:#227DBA;}
	.st4{fill:#508D35;}
	.st5{fill:#2CAB9F;}
	.st6{fill:#99D000;}
	.st7{fill:none;stroke:#99D000;stroke-width:0.5743;stroke-miterlimit:10;}
	.st8{fill:none;stroke:#2CAB9F;stroke-width:2.474;stroke-linecap:round;stroke-linejoin:round;stroke-miterlimit:10;}
	.st9{fill:#FFFFFF;}
	.st10{clip-path:url(#SVGID_2_);}
	.st11{clip-path:url(#SVGID_4_);}
	.st12{clip-path:url(#SVGID_6_);}
	.st13{clip-path:url(#SVGID_8_);}
	.st14{filter:url(#Adobe_OpacityMaskFilter);}
	.st15{fill-rule:evenodd;clip-rule:evenodd;fill:#FFFFFF;}
	.st16{mask:url(#mask-2_4_);}
	.st17{fill-rule:evenodd;clip-rule:evenodd;fill:#989898;}
	.st18{filter:url(#Adobe_OpacityMaskFilter_1_);}
	.st19{mask:url(#mask-4_3_);}
	.st20{fill-rule:evenodd;clip-rule:evenodd;fill:#AFD141;}
	.st21{filter:url(#Adobe_OpacityMaskFilter_2_);}
	.st22{mask:url(#mask-6_2_);}
	.st23{filter:url(#Adobe_OpacityMaskFilter_3_);}
	.st24{mask:url(#mask-2_3_);}
	.st25{filter:url(#Adobe_OpacityMaskFilter_4_);}
	.st26{mask:url(#mask-2_2_);}
	.st27{filter:url(#Adobe_OpacityMaskFilter_5_);}
	.st28{mask:url(#mask-4_2_);}
	.st29{filter:url(#Adobe_OpacityMaskFilter_6_);}
	.st30{mask:url(#mask-2_1_);}
	.st31{filter:url(#Adobe_OpacityMaskFilter_7_);}
	.st32{mask:url(#mask-4_1_);}
	.st33{filter:url(#Adobe_OpacityMaskFilter_8_);}
	.st34{mask:url(#mask-6_1_);}
</style>
<g>
	<g id="XMLID_11_">
		<g>
			<path class="st3" d="M41.3,52.1c0.1,0.1,0.2,0.4,0.1,0.6c-0.1,0.2-0.3,0.3-0.5,0.3H29.6c-0.2,0-0.4-0.1-0.5-0.3
				c-0.1-0.2,0-0.4,0.1-0.6l5.6-5.6c0.2-0.2,0.6-0.2,0.8,0L41.3,52.1z M30.9,51.9h8.7l-4.4-4.4L30.9,51.9z"/>
			<polygon class="st3" points="39.6,51.9 30.9,51.9 35.2,47.6 			"/>
		</g>
	</g>
	<g>
		<path class="st3" d="M35.1,29.3h-0.1c-1.6,0-2.8-1.3-2.8-2.8s1.3-2.8,2.8-2.8c1.6,0,2.8,1.3,2.8,2.8c0,0.3,0.3,0.6,0.6,0.6
			s0.6-0.3,0.6-0.6c0-2-1.5-3.7-3.4-4v-0.9c0-0.3-0.3-0.6-0.6-0.6s-0.6,0.3-0.6,0.6v0.9c-1.9,0.3-3.4,2-3.4,4c0,2.2,1.8,4,4.1,4h0.1
			c1.6,0,2.8,1.3,2.8,2.8s-1.3,2.8-2.8,2.8s-2.8-1.3-2.8-2.8c0-0.3-0.3-0.6-0.6-0.6c-0.3,0-0.6,0.3-0.6,0.6c0,2,1.4,3.6,3.3,4v0.9
			c0,0.3,0.3,0.6,0.6,0.6s0.6-0.3,0.6-0.6v-0.9c2-0.2,3.6-1.9,3.6-4C39.1,31.1,37.3,29.3,35.1,29.3z"/>
	</g>
	<g>
		<path class="st1" d="M35,17c-7.2,0-13.1,5.9-13.1,13.1S27.8,43.2,35,43.2c7.2,0,13.1-5.9,13.1-13.1S42.2,17,35,17z M35,42
			c-6.5,0-11.9-5.3-11.9-11.9S28.5,18.2,35,18.2s11.9,5.3,11.9,11.9S41.5,42,35,42z"/>
	</g>
</g>
<g>
	<defs>
		<polygon id="SVGID_1_" points="-747.4,2070.3 -747.4,2071.5 -729.6,2071.5 -729.6,2090.3 -728.4,2090.3 -728.4,2070.3 		"/>
	</defs>
	<clipPath id="SVGID_2_">
		<use xlink:href="#SVGID_1_"  style="overflow:visible;"/>
	</clipPath>
	<g class="st10">
		<defs>
			<rect id="SVGID_3_" x="-1005.4" y="-2515.7" width="1640" height="5497"/>
		</defs>
		<clipPath id="SVGID_4_">
			<use xlink:href="#SVGID_3_"  style="overflow:visible;"/>
		</clipPath>
	</g>
</g>
<g>
	<defs>
		<polygon id="SVGID_5_" points="-745.7,2089.3 -746.4,2088.5 -729.2,2070.3 -728.4,2071.2 		"/>
	</defs>
	<clipPath id="SVGID_6_">
		<use xlink:href="#SVGID_5_"  style="overflow:visible;"/>
	</clipPath>
	<g class="st12">
		<defs>
			<rect id="SVGID_7_" x="-1005.4" y="-2515.7" width="1640" height="5497"/>
		</defs>
		<clipPath id="SVGID_8_">
			<use xlink:href="#SVGID_7_"  style="overflow:visible;"/>
		</clipPath>
	</g>
</g>
</svg>
