<?xml version="1.0" encoding="utf-8"?>
<!-- Generator: Adobe Illustrator 24.0.0, SVG Export Plug-In . SVG Version: 6.00 Build 0)  -->
<svg version="1.1" id="Layer_1" xmlns="http://www.w3.org/2000/svg" xmlns:xlink="http://www.w3.org/1999/xlink" x="0px" y="0px"
	 viewBox="0 0 70 70" style="enable-background:new 0 0 70 70;" xml:space="preserve">
<style type="text/css">
	.st0{filter:url(#Adobe_OpacityMaskFilter);}
	.st1{fill-rule:evenodd;clip-rule:evenodd;fill:#FFFFFF;}
	.st2{mask:url(#mask-2_2_);fill-rule:evenodd;clip-rule:evenodd;fill:#989898;}
	.st3{fill-rule:evenodd;clip-rule:evenodd;fill:#AFD141;}
	.st4{filter:url(#Adobe_OpacityMaskFilter_1_);}
	.st5{mask:url(#mask-4_2_);fill-rule:evenodd;clip-rule:evenodd;fill:#989898;}
	.st6{fill:#989898;}
	.st7{filter:url(#Adobe_OpacityMaskFilter_2_);}
	.st8{mask:url(#mask-2_6_);fill-rule:evenodd;clip-rule:evenodd;fill:#989898;}
	.st9{fill-rule:evenodd;clip-rule:evenodd;fill:#989898;}
	.st10{filter:url(#Adobe_OpacityMaskFilter_3_);}
	.st11{mask:url(#mask-4_3_);fill-rule:evenodd;clip-rule:evenodd;fill:#AFD141;}
	.st12{filter:url(#Adobe_OpacityMaskFilter_4_);}
	.st13{mask:url(#mask-6_2_);fill-rule:evenodd;clip-rule:evenodd;fill:#989898;}
	.st14{filter:url(#Adobe_OpacityMaskFilter_5_);}
	.st15{mask:url(#mask-2_1_);fill-rule:evenodd;clip-rule:evenodd;fill:#989898;}
	.st16{filter:url(#Adobe_OpacityMaskFilter_6_);}
	.st17{mask:url(#mask-4_1_);fill-rule:evenodd;clip-rule:evenodd;fill:#AFD141;}
	.st18{filter:url(#Adobe_OpacityMaskFilter_7_);}
	.st19{mask:url(#mask-6_1_);fill-rule:evenodd;clip-rule:evenodd;fill:#989898;}
	.st20{filter:url(#Adobe_OpacityMaskFilter_8_);}
	.st21{mask:url(#mask-2_3_);fill-rule:evenodd;clip-rule:evenodd;fill:#989898;}
</style>
<g>
	<defs>
		<filter id="Adobe_OpacityMaskFilter" filterUnits="userSpaceOnUse" x="22.9" y="17.3" width="24.3" height="35.3">
			<feColorMatrix  type="matrix" values="1 0 0 0 0  0 1 0 0 0  0 0 1 0 0  0 0 0 1 0"/>
		</filter>
	</defs>
	<mask maskUnits="userSpaceOnUse" x="22.9" y="17.3" width="24.3" height="35.3" id="mask-2_3_">
		<g class="st0">
			<polygon id="path-1_3_" class="st1" points="22.9,17.3 47.1,17.3 47.1,52.7 22.9,52.7 			"/>
		</g>
	</mask>
	<path id="Fill-1_3_" class="st21" d="M34.4,50.7c-7.7-0.2-11.8-8.9-8.3-15.2c2.9-5.1,5.9-10.2,8.8-15.3c1.4,2.5,2.9,5,4.3,7.4
		c1.8,3.2,4.3,6.5,5.5,9.9C47,44.3,41.2,50.9,34.4,50.7 M42.6,29.6c-2.3-3.9-4.5-7.9-6.8-11.8c-0.3-0.6-1.3-0.6-1.7,0
		c-3.3,5.6-6.5,11.1-9.7,16.7c0,0.1-0.1,0.1-0.1,0.2c-3.3,6.2-0.8,14.4,6,17.1c7,2.8,14.7-1.3,16.5-8.6C48.1,38,45.1,33.8,42.6,29.6
		"/>
	<path id="Fill-4_3_" class="st3" d="M39,39.4c-1-1.7-2-3.5-3-5.2c-0.4-0.6-1.3-0.6-1.7,0c-1.2,2-2.4,4.1-3.5,6.1
		c-0.1,0.1-0.1,0.2-0.2,0.3c-1.4,2.7-0.6,5.8,2.2,7.3c2.6,1.4,5.7,0.1,7.1-2.2C41,43.5,40.1,41.4,39,39.4"/>
</g>
</svg>
