<?xml version="1.0" encoding="utf-8"?>
<!-- Generator: Adobe Illustrator 24.0.0, SVG Export Plug-In . SVG Version: 6.00 Build 0)  -->
<svg version="1.1" id="Layer_1" xmlns="http://www.w3.org/2000/svg" xmlns:xlink="http://www.w3.org/1999/xlink" x="0px" y="0px"
	 viewBox="0 0 260 70" style="enable-background:new 0 0 260 70;" xml:space="preserve">
<style type="text/css">
	.st0{fill:#FF000B;}
	.st1{fill:#989898;}
	.st2{fill:#00B9F1;}
	.st3{fill:#227DBA;}
	.st4{fill:#508D35;}
	.st5{fill:#2CAB9F;}
	.st6{fill:#99D000;}
	.st7{fill:none;stroke:#99D000;stroke-width:0.5743;stroke-miterlimit:10;}
	.st8{fill:none;stroke:#2CAB9F;stroke-width:2.474;stroke-linecap:round;stroke-linejoin:round;stroke-miterlimit:10;}
	.st9{fill:#FFFFFF;}
	.st10{clip-path:url(#SVGID_2_);}
	.st11{clip-path:url(#SVGID_4_);}
	.st12{clip-path:url(#SVGID_6_);}
	.st13{clip-path:url(#SVGID_8_);}
	.st14{filter:url(#Adobe_OpacityMaskFilter);}
	.st15{fill-rule:evenodd;clip-rule:evenodd;fill:#FFFFFF;}
	.st16{mask:url(#mask-2_4_);}
	.st17{fill-rule:evenodd;clip-rule:evenodd;fill:#989898;}
	.st18{filter:url(#Adobe_OpacityMaskFilter_1_);}
	.st19{mask:url(#mask-4_3_);}
	.st20{fill-rule:evenodd;clip-rule:evenodd;fill:#AFD141;}
	.st21{filter:url(#Adobe_OpacityMaskFilter_2_);}
	.st22{mask:url(#mask-6_2_);}
	.st23{filter:url(#Adobe_OpacityMaskFilter_3_);}
	.st24{mask:url(#mask-2_3_);}
	.st25{filter:url(#Adobe_OpacityMaskFilter_4_);}
	.st26{mask:url(#mask-2_2_);}
	.st27{filter:url(#Adobe_OpacityMaskFilter_5_);}
	.st28{mask:url(#mask-4_2_);}
	.st29{filter:url(#Adobe_OpacityMaskFilter_6_);}
	.st30{mask:url(#mask-2_1_);}
	.st31{filter:url(#Adobe_OpacityMaskFilter_7_);}
	.st32{mask:url(#mask-4_1_);}
	.st33{filter:url(#Adobe_OpacityMaskFilter_8_);}
	.st34{mask:url(#mask-6_1_);}
</style>
<g>
	<defs>
		<polygon id="SVGID_1_" points="-331.8,1912.7 -331.8,1913.9 -313.9,1913.9 -313.9,1932.7 -312.8,1932.7 -312.8,1912.7 		"/>
	</defs>
	<clipPath id="SVGID_2_">
		<use xlink:href="#SVGID_1_"  style="overflow:visible;"/>
	</clipPath>
	<g class="st10">
		<defs>
			<rect id="SVGID_3_" x="-589.8" y="-2673.3" width="1640" height="5497"/>
		</defs>
		<clipPath id="SVGID_4_">
			<use xlink:href="#SVGID_3_"  style="overflow:visible;"/>
		</clipPath>
	</g>
</g>
<g>
	<defs>
		<polygon id="SVGID_5_" points="-330,1931.7 -330.8,1930.9 -313.5,1912.7 -312.8,1913.5 		"/>
	</defs>
	<clipPath id="SVGID_6_">
		<use xlink:href="#SVGID_5_"  style="overflow:visible;"/>
	</clipPath>
	<g class="st12">
		<defs>
			<rect id="SVGID_7_" x="-589.8" y="-2673.3" width="1640" height="5497"/>
		</defs>
		<clipPath id="SVGID_8_">
			<use xlink:href="#SVGID_7_"  style="overflow:visible;"/>
		</clipPath>
	</g>
</g>
<g>
	<g id="Approved-Design">
		<g id="What-is-Natural-Gas_x3F_" transform="translate(-1334.000000, -1406.000000)">
			<g id="co2" transform="translate(1334.000000, 1406.000000)">
				<g id="Group-3">
					<defs>
						<filter id="Adobe_OpacityMaskFilter" filterUnits="userSpaceOnUse" x="83.8" y="17.1" width="35.5" height="19.6">
							<feColorMatrix  type="matrix" values="1 0 0 0 0  0 1 0 0 0  0 0 1 0 0  0 0 0 1 0"/>
						</filter>
					</defs>
					<mask maskUnits="userSpaceOnUse" x="83.8" y="17.1" width="35.5" height="19.6" id="mask-2_4_">
						<g class="st14">
							<polygon id="path-1_4_" class="st15" points="83.8,17.1 119.3,17.1 119.3,36.6 83.8,36.6 							"/>
						</g>
					</mask>
					<g id="Fill-1" class="st16">
						<path class="st17" d="M116.1,33.4h-10.7c-0.3,0-0.5,0-0.7-0.1c-0.5-0.2-0.9-0.6-1.2-1c-0.1-0.3-0.2-0.6-0.2-1
							c0-1,0.7-1.8,1.6-2.1c0-0.2,0-0.4,0-0.6c0-1.5,0.9-2.8,2.2-3.4c0,0,0,0,0.1,0c0,0,0.1,0,0.1,0c0,0,0,0,0.1,0c0,0,0.1,0,0.1,0
							c0,0,0.1,0,0.1,0c0,0,0.1,0,0.1,0c0,0,0,0,0.1,0c0,0,0.1,0,0.1,0c0,0,0,0,0,0c0,0,0.1,0,0.1,0c0,0,0,0,0,0c0.1,0,0.1,0,0.2,0
							c0,0,0,0,0,0c0.1,0,0.1,0,0.2,0c0,0,0,0,0,0c0.1,0,0.1,0,0.2,0c0.1,0,0.1,0,0.2,0c1.6,0.1,3,1.2,3.4,2.6
							c0.4-0.3,0.9-0.5,1.5-0.5c1.2,0,2.3,0.9,2.4,2.1h0c1.2,0,2.1,0.9,2.1,2.1C118.2,32.4,117.3,33.4,116.1,33.4 M117,28.2
							c-0.5-1.3-1.8-2.2-3.3-2.2c-0.3,0-0.7,0-1,0.1c-0.8-1.4-2.4-2.3-4.1-2.3c-0.6,0-1.1,0.1-1.6,0.3c-0.6-2.1-2.6-3.5-4.8-3.5
							c-0.7,0-1.4,0.1-2,0.4c-0.2-0.3-0.3-0.6-0.5-0.9c-0.4-0.6-1-1.2-1.6-1.6c-1.3-0.9-2.8-1.4-4.4-1.4c-1,0-1.9,0.2-2.8,0.6
							c-0.9,0.4-1.6,0.9-2.3,1.5c-0.7,0.7-1.2,1.4-1.6,2.3c-0.4,0.9-0.6,1.8-0.6,2.8c0,0.1,0,0.2,0,0.3c-0.6,0.3-1.2,0.7-1.7,1.3
							c-0.7,0.8-1,1.8-1,2.8c0,1.2,0.5,2.4,1.3,3.2c0.9,0.9,2,1.3,3.2,1.3h1.8c-0.1-0.3-0.2-0.7-0.2-1h-1.6c-2,0-3.6-1.6-3.6-3.5
							c0-1,0.4-1.9,1.1-2.5c0,0,0.1-0.1,0.1-0.1c0.1-0.1,0.2-0.2,0.3-0.3c0.4-0.2,0.8-0.4,1.2-0.5c0-0.2,0-0.3-0.1-0.5
							c0-0.1,0-0.2,0-0.2c0-0.1,0-0.2,0-0.2c0-1,0.2-1.9,0.6-2.7c0,0,0-0.1,0.1-0.1c0.2-0.3,0.3-0.6,0.6-0.9c0,0,0.1-0.1,0.1-0.1
							c0.1-0.1,0.1-0.2,0.2-0.2c0.2-0.2,0.4-0.4,0.6-0.6c1.1-0.9,2.5-1.5,4.1-1.5c1.7,0,3.2,0.7,4.3,1.7c0.1,0.1,0.1,0.1,0.2,0.2
							c0.3,0.3,0.6,0.7,0.9,1.2c0.2,0.4,0.5,0.9,0.6,1.3c0.3-0.3,0.7-0.5,1.1-0.6c0.4-0.1,0.9-0.2,1.3-0.2c0.5,0,1,0.1,1.5,0.3
							c1,0.4,1.8,1.2,2.2,2.2c0,0.1,0.1,0.2,0.1,0.3c0,0,0,0.1,0,0.1c-1.3,0.8-2.2,2.3-2.3,3.9c-1,0.6-1.6,1.6-1.6,2.7
							c0,0.3,0.1,0.7,0.1,1h-1.9c0,0.2,0.1,0.4,0.1,0.6c0,1.5-1.3,2.8-2.8,2.8S95,34.3,95,32.8c0-0.2,0-0.4,0.1-0.6h-2.8
							c0.1,0.3,0.2,0.7,0.2,1H94c0.2,1.9,1.9,3.4,3.8,3.4c2,0,3.6-1.5,3.8-3.4h1.3v0c0.6,0.7,1.5,1.2,2.5,1.2h10.7
							c1.8,0,3.2-1.4,3.2-3.2C119.3,29.8,118.3,28.5,117,28.2"/>
					</g>
				</g>
				<g id="Fill-4">
					<path class="st17" d="M101.9,37c-0.7,0-1.3,0.6-1.3,1.3c0,0.7,0.6,1.3,1.3,1.3c0.7,0,1.3-0.6,1.3-1.3
						C103.2,37.6,102.6,37,101.9,37 M101.9,40.7c-1.3,0-2.4-1.1-2.4-2.4s1.1-2.4,2.4-2.4c1.3,0,2.4,1.1,2.4,2.4
						S103.2,40.7,101.9,40.7"/>
				</g>
				<g id="Fill-6">
					<path class="st17" d="M104.2,45c-7.7-0.6-13.7-7.3-13.7-15.2c0-2.4,0.5-4.7,1.6-6.8l0.9,0.5c-1,2-1.5,4.1-1.5,6.3
						c0,7.3,5.6,13.5,12.7,14.1L104.2,45z"/>
				</g>
				<g id="Fill-8">
					<polygon class="st17" points="101.9,46 103.9,44.5 102.2,42.6 103.8,42.7 105.4,44.6 103.5,46.2 					"/>
				</g>
				<g id="Group-12" transform="translate(53.000000, 56.000000)">
					<defs>
						<filter id="Adobe_OpacityMaskFilter_1_" filterUnits="userSpaceOnUse" x="52" y="-17.1" width="11.1" height="11.6">
							<feColorMatrix  type="matrix" values="1 0 0 0 0  0 1 0 0 0  0 0 1 0 0  0 0 0 1 0"/>
						</filter>
					</defs>
					<mask maskUnits="userSpaceOnUse" x="52" y="-17.1" width="11.1" height="11.6" id="mask-4_3_">
						<g class="st18">
							<polygon id="path-3_3_" class="st15" points="52,-17.1 63.1,-17.1 63.1,-5.5 52,-5.5 							"/>
						</g>
					</mask>
					<g id="Fill-10" class="st19">
						<path class="st20" d="M59.4-14.7c0.7-0.8,1.7-1.3,2.7-1.4c0.1,1-0.3,2-1.1,2.8c-0.7,0.8-1.7,1.3-2.7,1.4
							C58.2-12.8,58.6-13.9,59.4-14.7L59.4-14.7z M58-6.6c0-0.6-0.1-1.1-0.2-1.5c-0.2-1-0.3-1.7,0.1-2.7c0.1,0,0.1,0,0.2,0
							c1.3,0,2.6-0.6,3.6-1.7c1.1-1.2,1.5-2.7,1.3-4.1L62.9-17l-0.4,0c-1.4-0.1-2.9,0.5-4,1.7c-0.5,0.5-0.8,1.1-1.1,1.8
							c-0.1-0.3-0.3-0.7-0.5-1c-0.2,0.2-0.6,0.4-0.9,0.5c0.5,0.7,0.7,1.5,0.7,2.3c-1-0.1-2-0.6-2.7-1.4c-0.7-0.8-1.1-1.9-1.1-2.8
							c0.2,0,0.3,0,0.5,0.1c0-0.1,0-0.1,0-0.2c0-0.3,0.1-0.6,0.2-0.9c-0.4-0.1-0.8-0.1-1.2-0.1l-0.4,0l-0.1,0.4
							c-0.3,1.4,0.2,2.9,1.3,4.1c0.9,1,2.2,1.7,3.5,1.7c-0.4,1.1-0.2,2-0.1,2.9c0.1,0.4,0.1,0.9,0.2,1.4H52v1h11.1v-1H58z"/>
					</g>
				</g>
				<g id="Fill-13">
					<path class="st17" d="M108.8,39c0.4,0,0.7,0.3,0.7,0.7s-0.3,0.7-0.7,0.7s-0.7-0.3-0.7-0.7C108.1,39.3,108.4,39,108.8,39
						 M108.8,41.4c1,0,1.8-0.8,1.8-1.8s-0.8-1.8-1.8-1.8c-1,0-1.8,0.8-1.8,1.8S107.8,41.4,108.8,41.4"/>
				</g>
				<defs>
					<filter id="Adobe_OpacityMaskFilter_2_" filterUnits="userSpaceOnUse" x="110.2" y="33.2" width="1.2" height="1.2">
						<feColorMatrix  type="matrix" values="1 0 0 0 0  0 1 0 0 0  0 0 1 0 0  0 0 0 1 0"/>
					</filter>
				</defs>
				<mask maskUnits="userSpaceOnUse" x="110.2" y="33.2" width="1.2" height="1.2" id="mask-6_2_">
					<g class="st21">
						<polygon id="path-5_2_" class="st15" points="83.8,50.5 119.2,50.5 119.2,17.1 83.8,17.1 						"/>
					</g>
				</mask>
				<g id="Fill-15" class="st22">
					<polygon class="st17" points="110.2,34.4 111.3,34.4 111.3,33.2 110.2,33.2 					"/>
				</g>
			</g>
		</g>
	</g>
	<g id="Approved-Design_3_">
		<g id="What-is-Natural-Gas_x3F__3_" transform="translate(-1363.000000, -1635.000000)">
			<g id="Icons" transform="translate(0.000000, 1237.000000)">
				<g id="Group-5" transform="translate(1225.000000, 398.000000)">
					<g id="customer-use" transform="translate(138.000000, 0.000000)">
						<g id="Group-3_3_">
							<defs>
								<filter id="Adobe_OpacityMaskFilter_3_" filterUnits="userSpaceOnUse" x="218.6" y="15" width="24.3" height="35.3">
									<feColorMatrix  type="matrix" values="1 0 0 0 0  0 1 0 0 0  0 0 1 0 0  0 0 0 1 0"/>
								</filter>
							</defs>
							<mask maskUnits="userSpaceOnUse" x="218.6" y="15" width="24.3" height="35.3" id="mask-2_3_">
								<g class="st23">
									<polygon id="path-1_3_" class="st15" points="218.6,15 242.9,15 242.9,50.3 218.6,50.3 									"/>
								</g>
							</mask>
							<g id="Fill-1_3_" class="st24">
								<path class="st17" d="M230.2,48.4c-7.7-0.2-11.8-8.9-8.3-15.2c2.9-5.1,5.9-10.2,8.8-15.3c1.4,2.5,2.9,5,4.3,7.4
									c1.8,3.2,4.3,6.5,5.5,9.9C242.8,42,237,48.5,230.2,48.4 M238.4,27.2c-2.3-3.9-4.5-7.9-6.8-11.8c-0.3-0.6-1.3-0.6-1.7,0
									c-3.3,5.6-6.5,11.1-9.7,16.7c0,0.1-0.1,0.1-0.1,0.2c-3.3,6.2-0.8,14.4,6,17.1c7,2.8,14.7-1.3,16.5-8.6
									C243.8,35.7,240.8,31.4,238.4,27.2"/>
							</g>
						</g>
						<g id="Fill-4_3_">
							<path class="st20" d="M234.7,37.1c-1-1.7-2-3.5-3-5.2c-0.4-0.6-1.3-0.6-1.7,0c-1.2,2-2.4,4.1-3.5,6.1
								c-0.1,0.1-0.1,0.2-0.2,0.3c-1.4,2.7-0.6,5.8,2.2,7.3c2.6,1.4,5.7,0.1,7.1-2.2C236.8,41.1,235.8,39,234.7,37.1"/>
						</g>
					</g>
				</g>
			</g>
		</g>
	</g>
	<g id="Approved-Design_2_">
		<g id="What-is-Natural-Gas_x3F__2_" transform="translate(-991.000000, -1401.000000)">
			<g id="Farm" transform="translate(991.000000, 1400.000000)">
				<g id="Group-3_2_" transform="translate(66.000000, 0.580000)">
					<defs>
						<filter id="Adobe_OpacityMaskFilter_4_" filterUnits="userSpaceOnUse" x="-22.9" y="17.9" width="6.4" height="6.4">
							<feColorMatrix  type="matrix" values="1 0 0 0 0  0 1 0 0 0  0 0 1 0 0  0 0 0 1 0"/>
						</filter>
					</defs>
					<mask maskUnits="userSpaceOnUse" x="-22.9" y="17.9" width="6.4" height="6.4" id="mask-2_2_">
						<g class="st25">
							<polygon id="path-1_2_" class="st15" points="-22.9,17.9 -16.5,17.9 -16.5,24.3 -22.9,24.3 							"/>
						</g>
					</mask>
					<g id="Fill-1_2_" class="st26">
						<path class="st17" d="M-19.7,19.2c1,0,1.9,0.8,1.9,1.9c0,1-0.8,1.9-1.9,1.9c-1,0-1.9-0.8-1.9-1.9v0
							C-21.6,20.1-20.7,19.2-19.7,19.2 M-19.7,24.3c1.8,0,3.2-1.4,3.2-3.2c0-1.8-1.4-3.2-3.2-3.2c-1.8,0-3.2,1.4-3.2,3.2v0
							C-22.9,22.9-21.5,24.3-19.7,24.3"/>
					</g>
				</g>
				<g id="Fill-4_2_">
					<path class="st20" d="M33,47.9c-0.5,0-0.9,0.4-0.9,0.9c0,0.5,0.4,0.9,0.9,0.9c0.5,0,0.9-0.4,0.9-0.9
						C33.8,48.3,33.5,47.9,33,47.9"/>
				</g>
				<g id="Fill-6_1_">
					<path class="st20" d="M37,47.9c-0.5,0-0.9,0.4-0.9,0.9c0,0.5,0.4,0.9,0.9,0.9c0.5,0,0.9-0.4,0.9-0.9
						C37.8,48.3,37.4,47.9,37,47.9"/>
				</g>
				<g id="Fill-8_1_">
					<path class="st20" d="M40.9,47.9c-0.5,0-0.9,0.4-0.9,0.9c0,0.5,0.4,0.9,0.9,0.9c0.5,0,0.9-0.4,0.9-0.9
						C41.8,48.3,41.4,47.9,40.9,47.9L40.9,47.9z"/>
				</g>
				<g id="Fill-10_1_">
					<path class="st20" d="M44.9,47.9c-0.5,0-0.9,0.4-0.9,0.9c0,0.5,0.4,0.9,0.9,0.9c0.5,0,0.9-0.4,0.9-0.9v0
						C45.8,48.3,45.4,47.9,44.9,47.9"/>
				</g>
				<g id="Fill-12">
					<path class="st20" d="M48.9,47.9c-0.5,0-0.9,0.4-0.9,0.9c0,0.5,0.4,0.9,0.9,0.9c0.5,0,0.9-0.4,0.9-0.9v0
						C49.7,48.3,49.3,47.9,48.9,47.9"/>
				</g>
				<g id="Fill-14">
					<path class="st20" d="M40.9,41.9c-0.5,0-0.9,0.4-0.9,0.9c0,0.5,0.4,0.9,0.9,0.9c0.5,0,0.9-0.4,0.9-0.9
						C41.8,42.3,41.4,41.9,40.9,41.9L40.9,41.9z"/>
				</g>
				<g id="Fill-16">
					<path class="st20" d="M44.9,41.9c-0.5,0-0.9,0.4-0.9,0.9c0,0.5,0.4,0.9,0.9,0.9c0.5,0,0.9-0.4,0.9-0.9v0
						C45.8,42.3,45.4,41.9,44.9,41.9"/>
				</g>
				<g id="Fill-18">
					<path class="st20" d="M48.9,41.9c-0.5,0-0.9,0.4-0.9,0.9c0,0.5,0.4,0.9,0.9,0.9c0.5,0,0.9-0.4,0.9-0.9v0
						C49.7,42.3,49.3,41.9,48.9,41.9L48.9,41.9z"/>
				</g>
				<g id="Fill-20">
					<path class="st20" d="M35,44.9c-0.5,0-0.9,0.4-0.9,0.9c0,0.5,0.4,0.9,0.9,0.9c0.5,0,0.9-0.4,0.9-0.9v0
						C35.8,45.3,35.4,44.9,35,44.9"/>
				</g>
				<g id="Fill-22">
					<path class="st20" d="M38.9,44.9c-0.5,0-0.9,0.4-0.9,0.9c0,0.5,0.4,0.9,0.9,0.9c0.5,0,0.9-0.4,0.9-0.9v0
						C39.8,45.3,39.4,44.9,38.9,44.9"/>
				</g>
				<g id="Fill-24">
					<path class="st20" d="M42.9,44.9c-0.5,0-0.9,0.4-0.9,0.9c0,0.5,0.4,0.9,0.9,0.9c0.5,0,0.9-0.4,0.9-0.9
						C43.8,45.3,43.4,44.9,42.9,44.9"/>
				</g>
				<g id="Fill-26">
					<path class="st20" d="M46.9,44.9c-0.5,0-0.9,0.4-0.9,0.9c0,0.5,0.4,0.9,0.9,0.9s0.9-0.4,0.9-0.9C47.7,45.3,47.4,44.9,46.9,44.9
						"/>
				</g>
				<g id="Fill-28">
					<path class="st20" d="M50.9,44.9c-0.5,0-0.9,0.4-0.9,0.9c0,0.5,0.4,0.9,0.9,0.9c0.5,0,0.9-0.4,0.9-0.9
						C51.7,45.3,51.3,44.9,50.9,44.9"/>
				</g>
				<g id="Group-32" transform="translate(0.000000, 17.580000)">
					<defs>
						<filter id="Adobe_OpacityMaskFilter_5_" filterUnits="userSpaceOnUse" x="17.1" y="7.6" width="35.3" height="26.4">
							<feColorMatrix  type="matrix" values="1 0 0 0 0  0 1 0 0 0  0 0 1 0 0  0 0 0 1 0"/>
						</filter>
					</defs>
					<mask maskUnits="userSpaceOnUse" x="17.1" y="7.6" width="35.3" height="26.4" id="mask-4_2_">
						<g class="st27">
							<polygon id="path-3_2_" class="st15" points="17.1,7.6 52.4,7.6 52.4,34.1 17.1,34.1 							"/>
						</g>
					</mask>
					<g id="Fill-30" class="st28">
						<path class="st17" d="M37.6,22.2c-1.9-1-3.9-1.7-6-2.2V14H45v6.7v0.1c-0.7,0-1.3,0.1-2,0.2v-2.2c0-0.4-0.3-0.7-0.7-0.7
							s-0.7,0.3-0.7,0.7v2.4v0.1c-0.7,0.1-1.3,0.3-2,0.5v-2.1c0-0.4-0.3-0.7-0.7-0.7c-0.4,0-0.7,0.3-0.7,0.7v2.4c0,0,0,0.1,0,0.1
							l-0.7,0.2C37.7,22.3,37.6,22.2,37.6,22.2L37.6,22.2z M24.1,17.4h3.5v2.2H27c-1,0-2,0.1-2.9,0.1V17.4z M24.1,16.1h3.5V14h-3.5
							V16.1z M21.6,13.3c0-2.4,1.9-4.3,4.3-4.3s4.3,1.9,4.3,4.3v6.5c-0.4-0.1-0.9-0.1-1.4-0.2v-6.4c0-0.4-0.3-0.7-0.7-0.7h-4.8
							c-0.4,0-0.7,0.3-0.7,0.7v6.6c-0.4,0.1-0.8,0.1-1.2,0.2L21.6,13.3z M40.7,9c2.1,0,3.9,1.6,4.3,3.7H31.5c-0.2-1.4-0.9-2.7-2-3.7
							H40.7z M49.7,20.8L49.7,20.8v-2.5c0-0.4-0.3-0.7-0.7-0.7c-0.4,0-0.7,0.3-0.7,0.7v2.4c-0.5,0-1.1-0.1-1.6-0.1h-0.4v-7.4
							c0-3.1-2.5-5.7-5.7-5.7h-14c-0.1,0-0.1,0-0.2,0c-3.1-0.3-5.9,2-6.2,5.1c0,0.2,0,0.4,0,0.5v7c-1.3,0.3-2.4,0.6-3.1,0.8v1.4
							c2.2-0.7,4.5-1.1,6.9-1.4c-1.2,0.3-2.5,0.8-4,1.3c-1.1,0.4-2.1,0.8-2.9,1.2v1.5c0.9-0.5,2-1,3.4-1.5c3-1.2,6.2-2,9.3-2.5h0
							l0.3,0c-2.1,0.7-4.2,1.6-6.2,2.6c-2.4,1.2-4.7,2.5-6.8,4.1v1.7c0.2-0.2,2.4-2,7.4-4.6c2.6-1.4,5.4-2.4,8.2-3.2l0.1,0l0.5,0.1
							c-3,1.2-5.8,2.7-8.4,4.7c-4.9,3.7-7.5,7.2-7.6,7.3c0,0.1-0.1,0.1-0.1,0.2h1.6c2.1-2.4,4.4-4.6,6.9-6.5c2.9-2.2,6.2-3.9,9.6-5
							c0.3,0.1,0.6,0.3,0.8,0.4c-4.7,2.2-8.7,5.7-11.3,10.2l-0.5,0.9h1.5l0.2-0.3c5.4-9.1,16.1-13.7,26.4-11.1v-1.4
							C51.5,21.1,50.6,20.9,49.7,20.8L49.7,20.8z"/>
					</g>
				</g>
			</g>
		</g>
	</g>
	<g id="Approved-Design_1_">
		<g id="What-is-Natural-Gas_x3F__1_" transform="translate(-982.000000, -1631.000000)">
			<g id="purification" transform="translate(982.000000, 1631.000000)">
				<g id="Group-3_1_" transform="translate(15.000000, 83.000000)">
					<defs>
						<filter id="Adobe_OpacityMaskFilter_6_" filterUnits="userSpaceOnUse" x="142.5" y="-37.8" width="22.1" height="5.7">
							<feColorMatrix  type="matrix" values="1 0 0 0 0  0 1 0 0 0  0 0 1 0 0  0 0 0 1 0"/>
						</filter>
					</defs>
					<mask maskUnits="userSpaceOnUse" x="142.5" y="-37.8" width="22.1" height="5.7" id="mask-2_1_">
						<g class="st29">
							<polygon id="path-1_1_" class="st15" points="142.5,-37.8 164.6,-37.8 164.6,-32.1 142.5,-32.1 							"/>
						</g>
					</mask>
					<g id="Fill-1_1_" class="st30">
						<path class="st17" d="M163.3-37.6c0.3-0.3,0.8-0.3,1.1,0.1c0.3,0.3,0.3,0.8-0.1,1.1c-2.9,2.7-6.8,4.3-10.7,4.3
							c-3.4,0-6.8-1.1-9.5-3.2l0,1.8c0,0.4-0.4,0.8-0.8,0.8s-0.8-0.4-0.8-0.8l0-3.4c-0.1-0.5,0.4-1,0.9-0.9l3.3,0
							c0.4,0,0.8,0.4,0.8,0.8s-0.4,0.8-0.8,0.8l-1.1,0c2.4,1.6,5.1,2.4,8,2.4C157.2-33.7,160.6-35.1,163.3-37.6L163.3-37.6z"/>
					</g>
				</g>
				<g id="Group-6" transform="translate(53.000000, 6.000000)">
					<defs>
						<filter id="Adobe_OpacityMaskFilter_7_" filterUnits="userSpaceOnUse" x="117.6" y="12.6" width="15.8" height="23.6">
							<feColorMatrix  type="matrix" values="1 0 0 0 0  0 1 0 0 0  0 0 1 0 0  0 0 0 1 0"/>
						</filter>
					</defs>
					<mask maskUnits="userSpaceOnUse" x="117.6" y="12.6" width="15.8" height="23.6" id="mask-4_1_">
						<g class="st31">
							<polygon id="path-3_1_" class="st15" points="117.6,12.6 133.3,12.6 133.3,36.3 117.6,36.3 							"/>
						</g>
					</mask>
					<g id="Fill-4_1_" class="st32">
						<path class="st20" d="M132.3,33.7c0.4-0.1,0.9,0.1,1,0.5c0.1,0.4-0.1,0.9-0.5,1l-3.2,1c-0.5,0.2-1-0.1-1.1-0.6l-1-3.2
							c-0.1-0.4,0.1-0.9,0.5-1c0.4-0.1,0.9,0.1,1,0.5l0.4,1.2c0.5-1.4,0.7-2.9,0.7-4.5c0-7.1-5-13.2-11.9-14.5
							c-0.4-0.1-0.7-0.5-0.6-0.9c0.1-0.4,0.5-0.7,0.9-0.6c7.6,1.5,13.2,8.2,13.2,16.1c0,1.9-0.4,3.7-1,5.5L132.3,33.7L132.3,33.7z"
							/>
					</g>
				</g>
				<g id="Group-9">
					<defs>
						<filter id="Adobe_OpacityMaskFilter_8_" filterUnits="userSpaceOnUse" x="152.2" y="16.9" width="14.2" height="25.5">
							<feColorMatrix  type="matrix" values="1 0 0 0 0  0 1 0 0 0  0 0 1 0 0  0 0 0 1 0"/>
						</filter>
					</defs>
					<mask maskUnits="userSpaceOnUse" x="152.2" y="16.9" width="14.2" height="25.5" id="mask-6_1_">
						<g class="st33">
							<polygon id="path-5_1_" class="st15" points="152.2,16.9 166.4,16.9 166.4,42.3 152.2,42.3 							"/>
						</g>
					</mask>
					<g id="Fill-7" class="st34">
						<path class="st17" d="M162.3,18.3c-0.4-0.2-0.5-0.7-0.2-1.1c0.2-0.4,0.7-0.5,1.1-0.2l2.8,1.8c0.5,0.2,0.6,0.9,0.3,1.3
							l-1.8,2.8c-0.2,0.4-0.7,0.5-1.1,0.2c-0.4-0.2-0.5-0.7-0.2-1.1l0.8-1.1c-5.9,2-10,7.5-10,13.9c0,2.2,0.5,4.4,1.5,6.4
							c0.5,0.9-1,1.6-1.4,0.7c-1.1-2.2-1.6-4.7-1.6-7.1c0-7.2,4.7-13.5,11.5-15.5L162.3,18.3L162.3,18.3z"/>
					</g>
				</g>
			</g>
		</g>
	</g>
	<g>
		<g>
			<rect x="60.8" y="36.6" class="st1" width="10.7" height="0.7"/>
		</g>
		<g>
			<polygon class="st1" points="66.3,42.6 65.8,42.1 70.9,36.9 65.9,31.9 66.4,31.4 72,36.9 			"/>
		</g>
	</g>
	<g>
		<g>
			<rect x="129.5" y="36.5" class="st1" width="10.7" height="0.7"/>
		</g>
		<g>
			<polygon class="st1" points="135,42.5 134.5,41.9 139.6,36.8 134.6,31.8 135.1,31.3 140.7,36.8 			"/>
		</g>
	</g>
	<g>
		<g>
			<rect x="197.1" y="35.6" class="st1" width="10.7" height="0.7"/>
		</g>
		<g>
			<polygon class="st1" points="202.6,41.5 202.1,41 207.3,35.9 202.2,30.9 202.8,30.3 208.3,35.9 			"/>
		</g>
	</g>
</g>
</svg>
