<?xml version="1.0" encoding="utf-8"?>
<!-- Generator: Adobe Illustrator 24.0.0, SVG Export Plug-In . SVG Version: 6.00 Build 0)  -->
<svg version="1.1" id="Layer_1" xmlns="http://www.w3.org/2000/svg" xmlns:xlink="http://www.w3.org/1999/xlink" x="0px" y="0px"
	 viewBox="0 0 70 70" style="enable-background:new 0 0 70 70;" xml:space="preserve">
<style type="text/css">
	.st0{fill:#989898;stroke:#989898;stroke-width:0.25;stroke-miterlimit:10;}
	.st1{fill:#99D000;stroke:#99D000;stroke-width:0.25;stroke-miterlimit:10;}
</style>
<title>SCG-Air-Emissions</title>
<path class="st0" d="M39.6,33.3L39.6,33.3c-5.8-2.5-12.5,0.2-14.9,5.9c-1.2,2.8-1.2,6.1,0,8.9v0.1c1.8,4.1,5.9,6.8,10.4,6.7h0.5h0.2
	c3.7-0.2,7.1-2.3,9-5.5c0.1-0.1,0.1-0.1,0.1-0.2c1-1.7,1.5-3.6,1.5-5.6c0-1.2-0.2-2.4-0.6-3.6c0,0,0-0.1,0-0.1l0,0
	C44.7,36.9,42.5,34.5,39.6,33.3z M44.5,39.9c-1.3,0.6-2.8,0.3-3.8-0.6c-0.5-0.5-1.2-0.7-1.9-0.8c-0.7,0.1-1.4-0.4-1.6-1.2
	c-0.6-1.5,1.4-2.7,2.1-3C41.7,35.4,43.6,37.4,44.5,39.9z M31.7,33.9c0.8,0.6,1.3,1.4,1.6,2.3c0.1,0.4,0,0.8-0.3,1.1
	c-1.5,2.1-1.9,2.7-2,4.8c-0.1,2.5-0.9,5.3-5.5,5.2c-2.1-5.2,0.4-11.1,5.7-13.2C31.3,34,31.5,34,31.7,33.9L31.7,33.9z M36.2,53.7
	c0-1-0.3-2.1-0.7-3c0,0-1.1-3.1,0.3-4.8c0.7-1,1.8-1.4,3-1.2h0.1c0.1,0,3,0.5,4.8,4.2C42,51.5,39.3,53.3,36.2,53.7L36.2,53.7z
	 M44.3,47.8c-1-2.1-3-3.6-5.2-4.1c-1.6-0.4-3.2,0.2-4.2,1.6c-1.7,2.2-0.5,5.7-0.4,5.9c0.4,0.8,0.6,1.7,0.6,2.6H35
	c-3.8,0-7.2-2.1-9-5.4c2.1,0,5.8-0.7,6.1-6.3c0.1-1.8,0.3-2.2,1.8-4.2c0.4-0.5,0.6-1.2,0.5-1.9c-0.2-1-0.7-1.8-1.5-2.5
	c0.7-0.1,1.4-0.2,2.1-0.2c1,0,2.1,0.2,3.1,0.5c-1.1,0.7-2.6,2.1-1.8,3.9c0.3,1.1,1.3,1.9,2.5,1.8c0.5,0,0.9,0.2,1.3,0.5
	c0.8,0.8,1.9,1.2,3,1.2c0.6,0,1.2-0.1,1.8-0.3C45.5,43.2,45.3,45.6,44.3,47.8L44.3,47.8z"/>
<path class="st1" d="M41.2,18.9c0,0.9-0.3,1.8-0.9,2.5c-0.4,0.5-0.7,1.2-0.7,1.9c0,0.7,0.2,1.3,0.7,1.9c0.2,0.3,0.1,0.6-0.1,0.8
	c0,0,0,0,0,0c-0.1,0.1-0.2,0.1-0.3,0.1c-0.2,0-0.4-0.1-0.5-0.3c-1.2-1.5-1.2-3.6,0-5.1c0.4-0.5,0.7-1.2,0.7-1.9
	c0-0.9-0.3-1.7-0.9-2.4l-0.3-0.4c-0.2-0.3-0.1-0.7,0.2-0.8c0.3-0.2,0.6-0.1,0.8,0.2c0.1,0.1,0.2,0.3,0.3,0.4
	C40.8,16.6,41.2,17.7,41.2,18.9z"/>
<path class="st1" d="M35.2,18.9c0-0.9-0.3-1.7-0.9-2.4c-0.1-0.1-0.2-0.3-0.3-0.4c-0.2-0.3-0.1-0.7,0.2-0.8s0.7-0.1,0.8,0.2
	c0.1,0.1,0.2,0.3,0.3,0.4c0.7,0.9,1.1,2,1.1,3.1c0,0.9-0.3,1.8-0.9,2.5c-0.4,0.5-0.7,1.2-0.7,1.9c0,0.7,0.2,1.3,0.7,1.9
	c0.2,0.3,0.1,0.6-0.2,0.8c-0.1,0.1-0.2,0.1-0.3,0.1c-0.2,0-0.4-0.1-0.5-0.3c-1.2-1.5-1.2-3.6,0-5.1C34.9,20.2,35.2,19.5,35.2,18.9z"
	/>
<path class="st1" d="M31.5,18.9c0,0.9-0.3,1.8-0.9,2.5c-0.4,0.5-0.7,1.2-0.7,1.9c0,0.7,0.2,1.3,0.7,1.9c0.2,0.3,0.1,0.6-0.1,0.8
	c0,0,0,0,0,0c-0.1,0.1-0.2,0.1-0.3,0.1c-0.2,0-0.4-0.1-0.5-0.3c-1.2-1.5-1.2-3.6,0-5.1c0.4-0.5,0.7-1.2,0.7-1.9
	c0-0.9-0.3-1.7-0.9-2.4c-0.1-0.1-0.2-0.3-0.3-0.4c-0.2-0.3-0.1-0.7,0.2-0.8c0.3-0.2,0.6-0.1,0.8,0.2c0.1,0.1,0.2,0.3,0.3,0.4
	C31.1,16.6,31.5,17.7,31.5,18.9z"/>
</svg>
