<?xml version="1.0" encoding="utf-8"?>
<!-- Generator: Adobe Illustrator 24.0.0, SVG Export Plug-In . SVG Version: 6.00 Build 0)  -->
<svg version="1.1" id="Layer_1" xmlns="http://www.w3.org/2000/svg" xmlns:xlink="http://www.w3.org/1999/xlink" x="0px" y="0px"
	 viewBox="0 0 70 70" style="enable-background:new 0 0 70 70;" xml:space="preserve">
<style type="text/css">
	.st0{fill:#989898;stroke:#989898;stroke-width:0.23;stroke-miterlimit:10;}
	.st1{fill:#99D000;stroke:#99D000;stroke-width:0.23;stroke-miterlimit:10;}
</style>
<title>SCG-Nat-Resources</title>
<path class="st0" d="M35.6,21.2V16c0-0.3-0.2-0.5-0.5-0.5h0c-0.3,0-0.5,0.2-0.5,0.5c0,0,0,0,0,0v5.2c0,0.3,0.2,0.5,0.5,0.5
	c0,0,0,0,0,0C35.3,21.7,35.6,21.5,35.6,21.2C35.6,21.2,35.6,21.2,35.6,21.2z"/>
<path class="st0" d="M28.2,23.5c0.1,0,0.2,0,0.2-0.1c0.2-0.1,0.3-0.4,0.2-0.7L26,18.2c-0.1-0.2-0.4-0.3-0.7-0.2
	c-0.2,0.1-0.3,0.4-0.2,0.7c0,0,0,0,0,0l2.6,4.5C27.8,23.4,28,23.5,28.2,23.5z"/>
<path class="st0" d="M18.3,25.8l4.5,2.6c0.1,0,0.2,0.1,0.2,0.1c0.2,0,0.3-0.1,0.4-0.2c0.1-0.2,0-0.5-0.2-0.7L18.8,25
	c-0.2-0.1-0.5-0.1-0.7,0.2c0,0,0,0,0,0C18,25.4,18.1,25.7,18.3,25.8C18.3,25.8,18.3,25.8,18.3,25.8z"/>
<path class="st0" d="M16,35.4h5.2c0.3,0,0.5-0.2,0.5-0.5c0,0,0,0,0,0c0-0.3-0.2-0.5-0.5-0.5h0H16c-0.3,0-0.5,0.2-0.5,0.5l0,0
	C15.5,35.2,15.7,35.4,16,35.4C16,35.4,16,35.4,16,35.4z"/>
<path class="st0" d="M23.2,42.3c0.2-0.1,0.3-0.4,0.2-0.6c0,0,0,0,0,0c-0.1-0.2-0.4-0.3-0.7-0.2c0,0,0,0,0,0L18.2,44
	c-0.2,0.1-0.3,0.4-0.2,0.7c0.1,0.1,0.2,0.2,0.4,0.2c0.1,0,0.2,0,0.2-0.1L23.2,42.3z"/>
<path class="st0" d="M27.6,46.7L25,51.2c-0.1,0.2-0.1,0.5,0.2,0.7c0,0,0,0,0,0c0.1,0,0.2,0.1,0.2,0.1c0.2,0,0.3-0.1,0.4-0.2l2.6-4.5
	c0.2-0.2,0.1-0.5-0.1-0.7s-0.5-0.1-0.7,0.1C27.6,46.6,27.6,46.6,27.6,46.7L27.6,46.7z"/>
<path class="st0" d="M34.4,48.8V54c0,0.3,0.2,0.5,0.5,0.5c0.3,0,0.5-0.2,0.5-0.5c0,0,0,0,0,0v-5.2c0-0.3-0.2-0.5-0.5-0.5
	c0,0,0,0,0,0C34.7,48.3,34.4,48.5,34.4,48.8C34.4,48.8,34.4,48.8,34.4,48.8z"/>
<path class="st0" d="M41.6,46.6c-0.2,0.1-0.3,0.4-0.2,0.7l2.6,4.5c0.1,0.1,0.2,0.2,0.4,0.2c0.1,0,0.2,0,0.2-0.1
	c0.2-0.1,0.3-0.4,0.2-0.7c0,0,0,0,0,0l-2.6-4.5C42.1,46.5,41.8,46.5,41.6,46.6C41.6,46.6,41.6,46.6,41.6,46.6z"/>
<path class="st0" d="M51.2,45c0.2,0.2,0.5,0.1,0.7-0.1c0.2-0.2,0.1-0.5-0.1-0.7c0,0-0.1,0-0.1-0.1l-4.5-2.6
	c-0.2-0.2-0.5-0.1-0.7,0.1c-0.2,0.2-0.1,0.5,0.1,0.7c0,0,0.1,0,0.1,0.1L51.2,45z"/>
<path class="st0" d="M48.3,35.1c0,0.3,0.2,0.5,0.5,0.5h0H54c0.3,0,0.5-0.2,0.5-0.5c0-0.3-0.2-0.5-0.5-0.5c0,0,0,0,0,0h-5.2
	C48.5,34.6,48.3,34.8,48.3,35.1z"/>
<path class="st0" d="M51.3,25.1l-4.5,2.6c-0.2,0.1-0.3,0.4-0.2,0.6c0,0,0,0,0,0c0.1,0.2,0.2,0.2,0.4,0.2c0.1,0,0.2,0,0.2-0.1
	l4.5-2.6c0.2-0.1,0.3-0.4,0.2-0.7C51.8,25.1,51.5,25,51.3,25.1C51.3,25.1,51.3,25.1,51.3,25.1z"/>
<path class="st0" d="M42,23.6c0.2,0,0.3-0.1,0.4-0.2l2.6-4.5c0.1-0.2,0.1-0.5-0.2-0.7c0,0,0,0,0,0c-0.2-0.1-0.5-0.1-0.6,0.2
	c0,0,0,0,0,0l-2.6,4.5c-0.1,0.2-0.1,0.5,0.2,0.7c0,0,0,0,0,0C41.8,23.5,41.9,23.6,42,23.6z"/>
<path class="st1" d="M39.1,25.8C39.1,25.8,39.1,25.8,39.1,25.8C33.9,23.5,28,25.9,25.7,31c-1.1,2.6-1.1,5.4,0,8c0,0,0,0,0,0.1
	c1.6,3.7,5.3,6,9.2,6h0.5h0.1h0.1c3.3-0.2,6.3-2.1,8-4.9c0-0.1,0.1-0.1,0.1-0.2c0.9-1.5,1.3-3.2,1.3-5c0-1.1-0.2-2.2-0.5-3.2
	c0,0,0-0.1,0-0.1l0,0C43.6,29.1,41.6,26.9,39.1,25.8z M43.5,31.7c-1.1,0.5-2.5,0.3-3.4-0.5c-0.5-0.4-1.1-0.6-1.7-0.6
	c-0.7,0-1.3-0.4-1.4-1.1c-0.5-1.3,1.3-2.4,1.9-2.7C41,27.7,42.7,29.5,43.5,31.7z M32,26.3c0.7,0.5,1.2,1.2,1.4,2.1
	c0.1,0.4,0,0.7-0.2,1c-1.4,1.8-1.7,2.4-1.8,4.3c-0.1,2.2-0.8,4.7-5,4.7c-0.4-1.1-0.7-2.2-0.7-3.4C25.8,31.1,28.3,27.6,32,26.3z
	 M36.1,44.1c0-0.9-0.3-1.8-0.6-2.7c0,0-1-2.7,0.2-4.3c0.6-0.9,1.7-1.3,2.7-1.1h0.1c0.1,0,2.7,0.4,4.3,3.7
	C41.3,42.1,38.9,43.7,36.1,44.1L36.1,44.1z M43.3,38.8c-0.9-1.8-2.6-3.2-4.7-3.7c-1.4-0.3-2.9,0.2-3.7,1.4c-1.5,2-0.4,5.1-0.4,5.3
	c0.3,0.7,0.5,1.6,0.6,2.4H35c-3.4,0-6.5-1.9-8.1-4.8c1.9,0,5.2-0.6,5.5-5.6c0.1-1.6,0.3-2,1.6-3.8c0.4-0.5,0.5-1.1,0.4-1.7
	c-0.2-0.9-0.7-1.6-1.3-2.2c1.5-0.3,3.2-0.3,4.7,0.2c-1,0.7-2.3,1.9-1.7,3.5c0.3,1,1.2,1.7,2.2,1.7c0.4,0,0.8,0.1,1.2,0.4
	c0.7,0.7,1.7,1.1,2.7,1.1c0.6,0,1.1-0.1,1.6-0.3c0.2,0.8,0.3,1.6,0.3,2.4C44.2,36.3,43.9,37.6,43.3,38.8L43.3,38.8z"/>
</svg>
