<?xml version="1.0" encoding="utf-8"?>
<!-- Generator: Adobe Illustrator 24.0.0, SVG Export Plug-In . SVG Version: 6.00 Build 0)  -->
<svg version="1.1" id="Layer_1" xmlns="http://www.w3.org/2000/svg" xmlns:xlink="http://www.w3.org/1999/xlink" x="0px" y="0px"
	 viewBox="0 0 70 70" style="enable-background:new 0 0 70 70;" xml:space="preserve">
<style type="text/css">
	.st0{fill:#FF000B;}
	.st1{fill:#989898;}
	.st2{fill:#00B9F1;}
	.st3{fill:#227DBA;}
	.st4{fill:#508D35;}
	.st5{fill:#2CAB9F;}
	.st6{fill:#99D000;}
	.st7{fill:none;stroke:#99D000;stroke-width:0.5743;stroke-miterlimit:10;}
	.st8{fill:none;stroke:#2CAB9F;stroke-width:2.474;stroke-linecap:round;stroke-linejoin:round;stroke-miterlimit:10;}
	.st9{fill:#FFFFFF;}
	.st10{clip-path:url(#SVGID_2_);}
	.st11{clip-path:url(#SVGID_4_);}
	.st12{clip-path:url(#SVGID_6_);}
	.st13{clip-path:url(#SVGID_8_);}
	.st14{filter:url(#Adobe_OpacityMaskFilter);}
	.st15{fill-rule:evenodd;clip-rule:evenodd;fill:#FFFFFF;}
	.st16{mask:url(#mask-2_4_);}
	.st17{fill-rule:evenodd;clip-rule:evenodd;fill:#989898;}
	.st18{filter:url(#Adobe_OpacityMaskFilter_1_);}
	.st19{mask:url(#mask-4_3_);}
	.st20{fill-rule:evenodd;clip-rule:evenodd;fill:#AFD141;}
	.st21{filter:url(#Adobe_OpacityMaskFilter_2_);}
	.st22{mask:url(#mask-6_2_);}
	.st23{filter:url(#Adobe_OpacityMaskFilter_3_);}
	.st24{mask:url(#mask-2_3_);}
	.st25{filter:url(#Adobe_OpacityMaskFilter_4_);}
	.st26{mask:url(#mask-2_2_);}
	.st27{filter:url(#Adobe_OpacityMaskFilter_5_);}
	.st28{mask:url(#mask-4_2_);}
	.st29{filter:url(#Adobe_OpacityMaskFilter_6_);}
	.st30{mask:url(#mask-2_1_);}
	.st31{filter:url(#Adobe_OpacityMaskFilter_7_);}
	.st32{mask:url(#mask-4_1_);}
	.st33{filter:url(#Adobe_OpacityMaskFilter_8_);}
	.st34{mask:url(#mask-6_1_);}
</style>
<g>
	<g>
		<path class="st1" d="M15.5,46.9c0.8,0,1.1,0.3,1.6,0.8c0.5,0.5,1.1,1.1,2.3,1.1c1.2,0,1.8-0.6,2.3-1.1c0.5-0.4,0.8-0.8,1.6-0.8
			c0.8,0,1.1,0.3,1.6,0.8c0.5,0.5,1.1,1.1,2.3,1.1s1.8-0.6,2.3-1.1c0.5-0.4,0.8-0.8,1.6-0.8c0.8,0,1.1,0.3,1.6,0.8
			c0.5,0.5,1.1,1.1,2.3,1.1c1.2,0,1.8-0.6,2.3-1.1c0.5-0.4,0.8-0.8,1.6-0.8c0.8,0,1.1,0.3,1.6,0.8c0.5,0.5,1.1,1.1,2.3,1.1
			c1.2,0,1.8-0.6,2.3-1.1c0.5-0.4,0.8-0.8,1.6-0.8s1.1,0.3,1.6,0.8c0.5,0.5,1.1,1.1,2.3,1.1c1.2,0,1.8-0.6,2.3-1.1
			c0.5-0.4,0.8-0.8,1.6-0.8c0.3,0,0.5-0.2,0.5-0.5s-0.2-0.5-0.5-0.5c-1.2,0-1.8,0.6-2.3,1.1c-0.5,0.4-0.8,0.8-1.6,0.8
			c-0.8,0-1.1-0.3-1.6-0.8c-0.5-0.5-1.1-1.1-2.3-1.1c-1.2,0-1.8,0.6-2.3,1.1c-0.5,0.4-0.8,0.8-1.6,0.8c-0.8,0-1.1-0.3-1.6-0.8
			c-0.5-0.5-1.1-1.1-2.3-1.1c-1.2,0-1.8,0.6-2.3,1.1c-0.5,0.4-0.8,0.8-1.6,0.8c-0.8,0-1.1-0.3-1.6-0.8c-0.5-0.5-1.1-1.1-2.3-1.1
			c-1.2,0-1.8,0.6-2.3,1.1c-0.5,0.4-0.8,0.8-1.6,0.8c-0.8,0-1.1-0.3-1.6-0.8c-0.5-0.5-1.1-1.1-2.3-1.1c-1.2,0-1.8,0.6-2.3,1.1
			c-0.5,0.4-0.8,0.8-1.6,0.8c-0.8,0-1.1-0.3-1.6-0.8c-0.5-0.5-1.1-1.1-2.3-1.1c-0.3,0-0.5,0.2-0.5,0.5S15.2,46.9,15.5,46.9z"/>
		<path class="st1" d="M50.6,48.9c-1.2,0-1.9-0.6-2.4-1.1c-0.5-0.4-0.8-0.8-1.5-0.8c-0.7,0-1.1,0.3-1.5,0.8
			c-0.5,0.5-1.2,1.1-2.4,1.1s-1.9-0.6-2.4-1.1C40,47.3,39.6,47,38.9,47c-0.7,0-1.1,0.3-1.5,0.8c-0.5,0.5-1.2,1.1-2.4,1.1
			s-1.9-0.6-2.4-1.1c-0.5-0.4-0.8-0.8-1.5-0.8s-1.1,0.3-1.5,0.8c-0.5,0.5-1.2,1.1-2.4,1.1s-1.9-0.6-2.4-1.1C24.4,47.3,24,47,23.3,47
			c-0.7,0-1.1,0.3-1.5,0.8c-0.5,0.5-1.2,1.1-2.4,1.1c-1.2,0-1.9-0.6-2.4-1.1c-0.5-0.4-0.8-0.8-1.5-0.8c-0.3,0-0.6-0.3-0.6-0.6
			s0.3-0.6,0.6-0.6c1.2,0,1.9,0.6,2.4,1.1c0.5,0.4,0.8,0.8,1.5,0.8c0.7,0,1.1-0.3,1.5-0.8c0.5-0.5,1.2-1.1,2.4-1.1
			c1.2,0,1.9,0.6,2.4,1.1c0.5,0.4,0.8,0.8,1.5,0.8s1.1-0.3,1.5-0.8c0.5-0.5,1.2-1.1,2.4-1.1c1.2,0,1.9,0.6,2.4,1.1
			c0.5,0.4,0.8,0.8,1.5,0.8c0.7,0,1.1-0.3,1.5-0.8c0.5-0.5,1.2-1.1,2.4-1.1c1.2,0,1.9,0.6,2.4,1.1c0.5,0.4,0.8,0.8,1.5,0.8
			c0.7,0,1.1-0.3,1.5-0.8c0.5-0.5,1.2-1.1,2.4-1.1c1.2,0,1.9,0.6,2.4,1.1c0.5,0.4,0.8,0.8,1.5,0.8c0.7,0,1.1-0.3,1.5-0.8
			c0.5-0.5,1.2-1.1,2.4-1.1c0.3,0,0.6,0.3,0.6,0.6S54.8,47,54.5,47c-0.7,0-1.1,0.3-1.5,0.8C52.5,48.3,51.8,48.9,50.6,48.9z
			 M46.7,46.8c0.8,0,1.2,0.4,1.7,0.8c0.5,0.5,1.1,1,2.2,1c1.1,0,1.7-0.6,2.2-1c0.5-0.4,0.9-0.8,1.7-0.8c0.2,0,0.4-0.2,0.4-0.4
			S54.7,46,54.5,46c-1.1,0-1.7,0.6-2.2,1c-0.5,0.4-0.9,0.8-1.7,0.8c-0.8,0-1.2-0.4-1.7-0.8c-0.5-0.5-1.1-1-2.2-1
			c-1.1,0-1.7,0.6-2.2,1c-0.5,0.4-0.9,0.8-1.7,0.8c-0.8,0-1.2-0.4-1.7-0.8c-0.5-0.5-1.1-1-2.2-1c-1.1,0-1.7,0.6-2.2,1
			c-0.5,0.4-0.9,0.8-1.7,0.8c-0.8,0-1.2-0.4-1.7-0.8c-0.5-0.5-1.1-1-2.2-1c-1.1,0-1.7,0.6-2.2,1c-0.5,0.4-0.9,0.8-1.7,0.8
			s-1.2-0.4-1.7-0.8c-0.5-0.5-1.1-1-2.2-1c-1.1,0-1.7,0.6-2.2,1c-0.5,0.4-0.9,0.8-1.7,0.8c-0.8,0-1.2-0.4-1.7-0.8
			c-0.5-0.5-1.1-1-2.2-1c-0.2,0-0.4,0.2-0.4,0.4s0.2,0.4,0.4,0.4c0.8,0,1.2,0.4,1.7,0.8c0.5,0.5,1.1,1,2.2,1c1.1,0,1.7-0.6,2.2-1
			c0.5-0.4,0.9-0.8,1.7-0.8s1.2,0.4,1.7,0.8c0.5,0.5,1.1,1,2.2,1s1.7-0.6,2.2-1c0.5-0.4,0.9-0.8,1.7-0.8s1.2,0.4,1.7,0.8
			c0.5,0.5,1.1,1,2.2,1s1.7-0.6,2.2-1c0.5-0.4,0.9-0.8,1.7-0.8c0.8,0,1.2,0.4,1.7,0.8c0.5,0.5,1.1,1,2.2,1s1.7-0.6,2.2-1
			C45.5,47.2,45.9,46.8,46.7,46.8z"/>
	</g>
	<g>
		<path class="st1" d="M15.5,40.9c0.8,0,1.1,0.3,1.6,0.8c0.5,0.5,1.1,1.1,2.3,1.1c1.2,0,1.8-0.6,2.3-1.1c0.5-0.4,0.8-0.8,1.6-0.8
			c0.8,0,1.1,0.3,1.6,0.8c0.5,0.5,1.1,1.1,2.3,1.1s1.8-0.6,2.3-1.1c0.5-0.4,0.8-0.8,1.6-0.8c0.8,0,1.1,0.3,1.6,0.8
			c0.5,0.5,1.1,1.1,2.3,1.1c1.2,0,1.8-0.6,2.3-1.1c0.5-0.4,0.8-0.8,1.6-0.8c0.8,0,1.1,0.3,1.6,0.8c0.5,0.5,1.1,1.1,2.3,1.1
			c1.2,0,1.8-0.6,2.3-1.1c0.5-0.4,0.8-0.8,1.6-0.8s1.1,0.3,1.6,0.8c0.5,0.5,1.1,1.1,2.3,1.1c1.2,0,1.8-0.6,2.3-1.1
			c0.5-0.4,0.8-0.8,1.6-0.8c0.3,0,0.5-0.2,0.5-0.5s-0.2-0.5-0.5-0.5c-1.2,0-1.8,0.6-2.3,1.1c-0.5,0.4-0.8,0.8-1.6,0.8
			c-0.8,0-1.1-0.3-1.6-0.8c-0.5-0.5-1.1-1.1-2.3-1.1c-1.2,0-1.8,0.6-2.3,1.1c-0.5,0.4-0.8,0.8-1.6,0.8c-0.8,0-1.1-0.3-1.6-0.8
			c-0.5-0.5-1.1-1.1-2.3-1.1c-1.2,0-1.8,0.6-2.3,1.1c-0.5,0.4-0.8,0.8-1.6,0.8c-0.8,0-1.1-0.3-1.6-0.8c-0.5-0.5-1.1-1.1-2.3-1.1
			c-1.2,0-1.8,0.6-2.3,1.1c-0.5,0.4-0.8,0.8-1.6,0.8c-0.8,0-1.1-0.3-1.6-0.8c-0.5-0.5-1.1-1.1-2.3-1.1c-1.2,0-1.8,0.6-2.3,1.1
			c-0.5,0.4-0.8,0.8-1.6,0.8c-0.8,0-1.1-0.3-1.6-0.8c-0.5-0.5-1.1-1.1-2.3-1.1c-0.3,0-0.5,0.2-0.5,0.5S15.2,40.9,15.5,40.9z"/>
		<path class="st1" d="M50.6,42.9c-1.2,0-1.9-0.6-2.4-1.1c-0.5-0.4-0.8-0.8-1.5-0.8c-0.7,0-1.1,0.3-1.5,0.8
			c-0.5,0.5-1.2,1.1-2.4,1.1s-1.9-0.6-2.4-1.1c-0.5-0.4-0.8-0.8-1.5-0.8c-0.7,0-1.1,0.3-1.5,0.8c-0.5,0.5-1.2,1.1-2.4,1.1
			s-1.9-0.6-2.4-1.1c-0.5-0.4-0.8-0.8-1.5-0.8s-1.1,0.3-1.5,0.8c-0.5,0.5-1.2,1.1-2.4,1.1s-1.9-0.6-2.4-1.1
			c-0.5-0.4-0.8-0.8-1.5-0.8c-0.7,0-1.1,0.3-1.5,0.8c-0.5,0.5-1.2,1.1-2.4,1.1c-1.2,0-1.9-0.6-2.4-1.1c-0.5-0.4-0.8-0.8-1.5-0.8
			c-0.3,0-0.6-0.3-0.6-0.6s0.3-0.6,0.6-0.6c1.2,0,1.9,0.6,2.4,1.1c0.5,0.4,0.8,0.8,1.5,0.8c0.7,0,1.1-0.3,1.5-0.8
			c0.5-0.5,1.2-1.1,2.4-1.1c1.2,0,1.9,0.6,2.4,1.1c0.5,0.4,0.8,0.8,1.5,0.8s1.1-0.3,1.5-0.8c0.5-0.5,1.2-1.1,2.4-1.1
			c1.2,0,1.9,0.6,2.4,1.1c0.5,0.4,0.8,0.8,1.5,0.8c0.7,0,1.1-0.3,1.5-0.8c0.5-0.5,1.2-1.1,2.4-1.1c1.2,0,1.9,0.6,2.4,1.1
			c0.5,0.4,0.8,0.8,1.5,0.8c0.7,0,1.1-0.3,1.5-0.8c0.5-0.5,1.2-1.1,2.4-1.1c1.2,0,1.9,0.6,2.4,1.1c0.5,0.4,0.8,0.8,1.5,0.8
			c0.7,0,1.1-0.3,1.5-0.8c0.5-0.5,1.2-1.1,2.4-1.1c0.3,0,0.6,0.3,0.6,0.6s-0.3,0.6-0.6,0.6c-0.7,0-1.1,0.3-1.5,0.8
			C52.5,42.3,51.8,42.9,50.6,42.9z M46.7,40.8c0.8,0,1.2,0.4,1.7,0.8c0.5,0.5,1.1,1,2.2,1c1.1,0,1.7-0.6,2.2-1
			c0.5-0.4,0.9-0.8,1.7-0.8c0.2,0,0.4-0.2,0.4-0.4s-0.2-0.4-0.4-0.4c-1.1,0-1.7,0.6-2.2,1c-0.5,0.4-0.9,0.8-1.7,0.8
			c-0.8,0-1.2-0.4-1.7-0.8c-0.5-0.5-1.1-1-2.2-1c-1.1,0-1.7,0.6-2.2,1c-0.5,0.4-0.9,0.8-1.7,0.8c-0.8,0-1.2-0.4-1.7-0.8
			c-0.5-0.5-1.1-1-2.2-1c-1.1,0-1.7,0.6-2.2,1c-0.5,0.4-0.9,0.8-1.7,0.8c-0.8,0-1.2-0.4-1.7-0.8c-0.5-0.5-1.1-1-2.2-1
			c-1.1,0-1.7,0.6-2.2,1c-0.5,0.4-0.9,0.8-1.7,0.8s-1.2-0.4-1.7-0.8c-0.5-0.5-1.1-1-2.2-1c-1.1,0-1.7,0.6-2.2,1
			c-0.5,0.4-0.9,0.8-1.7,0.8c-0.8,0-1.2-0.4-1.7-0.8c-0.5-0.5-1.1-1-2.2-1c-0.2,0-0.4,0.2-0.4,0.4s0.2,0.4,0.4,0.4
			c0.8,0,1.2,0.4,1.7,0.8c0.5,0.5,1.1,1,2.2,1c1.1,0,1.7-0.6,2.2-1c0.5-0.4,0.9-0.8,1.7-0.8s1.2,0.4,1.7,0.8c0.5,0.5,1.1,1,2.2,1
			s1.7-0.6,2.2-1c0.5-0.4,0.9-0.8,1.7-0.8s1.2,0.4,1.7,0.8c0.5,0.5,1.1,1,2.2,1s1.7-0.6,2.2-1c0.5-0.4,0.9-0.8,1.7-0.8
			c0.8,0,1.2,0.4,1.7,0.8c0.5,0.5,1.1,1,2.2,1s1.7-0.6,2.2-1C45.5,41.2,45.9,40.8,46.7,40.8z"/>
	</g>
	<g>
		<path class="st1" d="M15.5,35c0.8,0,1.1,0.3,1.6,0.8c0.5,0.5,1.1,1.1,2.3,1.1c1.2,0,1.8-0.6,2.3-1.1c0.5-0.4,0.8-0.8,1.6-0.8
			c0.8,0,1.1,0.3,1.6,0.8c0.5,0.5,1.1,1.1,2.3,1.1c1.2,0,1.8-0.6,2.3-1.1c0.5-0.4,0.8-0.8,1.6-0.8c0.8,0,1.1,0.3,1.6,0.8
			c0.5,0.5,1.1,1.1,2.3,1.1c1.2,0,1.8-0.6,2.3-1.1c0.5-0.4,0.8-0.8,1.6-0.8c0.8,0,1.1,0.3,1.6,0.8c0.5,0.5,1.1,1.1,2.3,1.1
			c1.2,0,1.8-0.6,2.3-1.1c0.5-0.4,0.8-0.8,1.6-0.8s1.1,0.3,1.6,0.8c0.5,0.5,1.1,1.1,2.3,1.1c1.2,0,1.8-0.6,2.3-1.1
			c0.5-0.4,0.8-0.8,1.6-0.8c0.3,0,0.5-0.2,0.5-0.5S54.8,34,54.5,34c-1.2,0-1.8,0.6-2.3,1.1c-0.5,0.4-0.8,0.8-1.6,0.8
			c-0.8,0-1.1-0.3-1.6-0.8c-0.5-0.5-1.1-1.1-2.3-1.1c-1.2,0-1.8,0.6-2.3,1.1c-0.5,0.4-0.8,0.8-1.6,0.8c-0.8,0-1.1-0.3-1.6-0.8
			c-0.5-0.5-1.1-1.1-2.3-1.1c-1.2,0-1.8,0.6-2.3,1.1c-0.5,0.4-0.8,0.8-1.6,0.8c-0.8,0-1.1-0.3-1.6-0.8c-0.5-0.5-1.1-1.1-2.3-1.1
			c-1.2,0-1.8,0.6-2.3,1.1c-0.5,0.4-0.8,0.8-1.6,0.8c-0.8,0-1.1-0.3-1.6-0.8c-0.5-0.5-1.1-1.1-2.3-1.1c-1.2,0-1.8,0.6-2.3,1.1
			c-0.5,0.4-0.8,0.8-1.6,0.8c-0.8,0-1.1-0.3-1.6-0.8c-0.5-0.5-1.1-1.1-2.3-1.1c-0.3,0-0.5,0.2-0.5,0.5S15.2,35,15.5,35z"/>
		<path class="st1" d="M50.6,37c-1.2,0-1.9-0.6-2.4-1.1c-0.5-0.4-0.8-0.8-1.5-0.8c-0.7,0-1.1,0.3-1.5,0.8C44.7,36.4,44,37,42.8,37
			c-1.2,0-1.9-0.6-2.4-1.1c-0.5-0.4-0.8-0.8-1.5-0.8c-0.7,0-1.1,0.3-1.5,0.8C36.9,36.4,36.2,37,35,37s-1.9-0.6-2.4-1.1
			c-0.5-0.4-0.8-0.8-1.5-0.8s-1.1,0.3-1.5,0.8c-0.5,0.5-1.2,1.1-2.4,1.1s-1.9-0.6-2.4-1.1c-0.5-0.4-0.8-0.8-1.5-0.8
			c-0.7,0-1.1,0.3-1.5,0.8c-0.5,0.5-1.2,1.1-2.4,1.1c-1.2,0-1.9-0.6-2.4-1.1c-0.5-0.4-0.8-0.8-1.5-0.8c-0.3,0-0.6-0.3-0.6-0.6
			s0.3-0.6,0.6-0.6c1.2,0,1.9,0.6,2.4,1.1c0.5,0.4,0.8,0.8,1.5,0.8c0.7,0,1.1-0.3,1.5-0.8c0.5-0.5,1.2-1.1,2.4-1.1
			c1.2,0,1.9,0.6,2.4,1.1c0.5,0.4,0.8,0.8,1.5,0.8c0.7,0,1.1-0.3,1.5-0.8c0.5-0.5,1.2-1.1,2.4-1.1c1.2,0,1.9,0.6,2.4,1.1
			c0.5,0.4,0.8,0.8,1.5,0.8c0.7,0,1.1-0.3,1.5-0.8c0.5-0.5,1.2-1.1,2.4-1.1c1.2,0,1.9,0.6,2.4,1.1c0.5,0.4,0.8,0.8,1.5,0.8
			c0.7,0,1.1-0.3,1.5-0.8c0.5-0.5,1.2-1.1,2.4-1.1c1.2,0,1.9,0.6,2.4,1.1c0.5,0.4,0.8,0.8,1.5,0.8c0.7,0,1.1-0.3,1.5-0.8
			c0.5-0.5,1.2-1.1,2.4-1.1c0.3,0,0.6,0.3,0.6,0.6s-0.3,0.6-0.6,0.6c-0.7,0-1.1,0.3-1.5,0.8C52.5,36.4,51.8,37,50.6,37z M46.7,34.9
			c0.8,0,1.2,0.4,1.7,0.8c0.5,0.5,1.1,1,2.2,1c1.1,0,1.7-0.6,2.2-1c0.5-0.4,0.9-0.8,1.7-0.8c0.2,0,0.4-0.2,0.4-0.4s-0.2-0.4-0.4-0.4
			c-1.1,0-1.7,0.6-2.2,1c-0.5,0.4-0.9,0.8-1.7,0.8s-1.2-0.4-1.7-0.8c-0.5-0.5-1.1-1-2.2-1c-1.1,0-1.7,0.6-2.2,1
			C44,35.6,43.6,36,42.8,36c-0.8,0-1.2-0.4-1.7-0.8c-0.5-0.5-1.1-1-2.2-1c-1.1,0-1.7,0.6-2.2,1C36.2,35.6,35.8,36,35,36
			c-0.8,0-1.2-0.4-1.7-0.8c-0.5-0.5-1.1-1-2.2-1c-1.1,0-1.7,0.6-2.2,1C28.4,35.6,28,36,27.2,36c-0.8,0-1.2-0.4-1.7-0.8
			c-0.5-0.5-1.1-1-2.2-1c-1.1,0-1.7,0.6-2.2,1c-0.5,0.4-0.9,0.8-1.7,0.8c-0.8,0-1.2-0.4-1.7-0.8c-0.5-0.5-1.1-1-2.2-1
			c-0.2,0-0.4,0.2-0.4,0.4s0.2,0.4,0.4,0.4c0.8,0,1.2,0.4,1.7,0.8c0.5,0.5,1.1,1,2.2,1c1.1,0,1.7-0.6,2.2-1c0.5-0.4,0.9-0.8,1.7-0.8
			c0.8,0,1.2,0.4,1.7,0.8c0.5,0.5,1.1,1,2.2,1s1.7-0.6,2.2-1c0.5-0.4,0.9-0.8,1.7-0.8c0.8,0,1.2,0.4,1.7,0.8c0.5,0.5,1.1,1,2.2,1
			s1.7-0.6,2.2-1c0.5-0.4,0.9-0.8,1.7-0.8s1.2,0.4,1.7,0.8c0.5,0.5,1.1,1,2.2,1c1.1,0,1.7-0.6,2.2-1C45.5,35.2,45.9,34.9,46.7,34.9z
			"/>
	</g>
	<g id="XMLID_12_">
		<g>
			<path class="st6" d="M29.4,22.1c-0.1-0.1-0.2-0.3-0.1-0.5c0.1-0.2,0.3-0.3,0.5-0.3h10.4c0.2,0,0.4,0.1,0.5,0.3
				c0.1,0.2,0,0.4-0.1,0.5l-5.2,5.2c-0.2,0.2-0.5,0.2-0.7,0L29.4,22.1z M39,22.2H31l4,4L39,22.2z"/>
			<polygon class="st6" points="31,22.2 39,22.2 35,26.3 			"/>
		</g>
		<g>
			<path class="st7" d="M35.4,27.3l5.2-5.2c0.1-0.1,0.2-0.3,0.1-0.5c-0.1-0.2-0.3-0.3-0.5-0.3H29.8c-0.2,0-0.4,0.1-0.5,0.3
				c-0.1,0.2,0,0.4,0.1,0.5l5.2,5.2C34.8,27.5,35.2,27.5,35.4,27.3z"/>
			<polygon class="st7" points="39,22.2 35,26.3 31,22.2 			"/>
		</g>
	</g>
</g>
<g>
	<defs>
		<polygon id="SVGID_1_" points="-816.5,1912.7 -816.5,1913.9 -798.6,1913.9 -798.6,1932.7 -797.5,1932.7 -797.5,1912.7 		"/>
	</defs>
	<clipPath id="SVGID_2_">
		<use xlink:href="#SVGID_1_"  style="overflow:visible;"/>
	</clipPath>
	<g class="st10">
		<defs>
			<rect id="SVGID_3_" x="-1074.5" y="-2673.3" width="1640" height="5497"/>
		</defs>
		<clipPath id="SVGID_4_">
			<use xlink:href="#SVGID_3_"  style="overflow:visible;"/>
		</clipPath>
	</g>
</g>
<g>
	<defs>
		<polygon id="SVGID_5_" points="-814.7,1931.7 -815.5,1930.9 -798.3,1912.7 -797.5,1913.5 		"/>
	</defs>
	<clipPath id="SVGID_6_">
		<use xlink:href="#SVGID_5_"  style="overflow:visible;"/>
	</clipPath>
	<g class="st12">
		<defs>
			<rect id="SVGID_7_" x="-1074.5" y="-2673.3" width="1640" height="5497"/>
		</defs>
		<clipPath id="SVGID_8_">
			<use xlink:href="#SVGID_7_"  style="overflow:visible;"/>
		</clipPath>
	</g>
</g>
</svg>
