<?xml version="1.0" encoding="utf-8"?>
<!-- Generator: Adobe Illustrator 24.0.0, SVG Export Plug-In . SVG Version: 6.00 Build 0)  -->
<svg version="1.1" id="Layer_1" xmlns="http://www.w3.org/2000/svg" xmlns:xlink="http://www.w3.org/1999/xlink" x="0px" y="0px"
	 viewBox="0 0 70 70" style="enable-background:new 0 0 70 70;" xml:space="preserve">
<style type="text/css">
	.st0{fill:#FF000B;}
	.st1{fill:#989898;}
	.st2{fill:#00B9F1;}
	.st3{fill:#227DBA;}
	.st4{fill:#508D35;}
	.st5{fill:#2CAB9F;}
	.st6{fill:#99D000;}
	.st7{fill:none;stroke:#99D000;stroke-width:0.5743;stroke-miterlimit:10;}
	.st8{fill:none;stroke:#2CAB9F;stroke-width:2.474;stroke-linecap:round;stroke-linejoin:round;stroke-miterlimit:10;}
	.st9{fill:#FFFFFF;}
	.st10{clip-path:url(#SVGID_2_);}
	.st11{clip-path:url(#SVGID_4_);}
	.st12{clip-path:url(#SVGID_6_);}
	.st13{clip-path:url(#SVGID_8_);}
	.st14{filter:url(#Adobe_OpacityMaskFilter);}
	.st15{fill-rule:evenodd;clip-rule:evenodd;fill:#FFFFFF;}
	.st16{mask:url(#mask-2_4_);}
	.st17{fill-rule:evenodd;clip-rule:evenodd;fill:#989898;}
	.st18{filter:url(#Adobe_OpacityMaskFilter_1_);}
	.st19{mask:url(#mask-4_3_);}
	.st20{fill-rule:evenodd;clip-rule:evenodd;fill:#AFD141;}
	.st21{filter:url(#Adobe_OpacityMaskFilter_2_);}
	.st22{mask:url(#mask-6_2_);}
	.st23{filter:url(#Adobe_OpacityMaskFilter_3_);}
	.st24{mask:url(#mask-2_3_);}
	.st25{filter:url(#Adobe_OpacityMaskFilter_4_);}
	.st26{mask:url(#mask-2_2_);}
	.st27{filter:url(#Adobe_OpacityMaskFilter_5_);}
	.st28{mask:url(#mask-4_2_);}
	.st29{filter:url(#Adobe_OpacityMaskFilter_6_);}
	.st30{mask:url(#mask-2_1_);}
	.st31{filter:url(#Adobe_OpacityMaskFilter_7_);}
	.st32{mask:url(#mask-4_1_);}
	.st33{filter:url(#Adobe_OpacityMaskFilter_8_);}
	.st34{mask:url(#mask-6_1_);}
</style>
<g>
	<circle class="st2" cx="24.6" cy="22" r="3.7"/>
</g>
<g>
	<circle class="st2" cx="24.6" cy="35.1" r="3.7"/>
</g>
<g>
	<circle class="st2" cx="24.6" cy="48.2" r="3.7"/>
</g>
<g>
	<path class="st1" d="M47.6,34.8l-2.1-2.1c-0.2-0.2-0.5-0.2-0.7,0c-0.2,0.2-0.2,0.5,0,0.7l1.3,1.3H34.4c-0.3,0-0.5,0.2-0.5,0.5
		s0.2,0.5,0.5,0.5h11.8l-1.3,1.3c-0.2,0.2-0.2,0.5,0,0.7c0.1,0.1,0.2,0.1,0.3,0.1c0.1,0,0.2,0,0.3-0.1l2.1-2.1
		C47.8,35.2,47.8,34.9,47.6,34.8z"/>
</g>
<g>
	<path class="st1" d="M47.6,21.7l-2.1-2.1c-0.2-0.2-0.5-0.2-0.7,0c-0.2,0.2-0.2,0.5,0,0.7l1.3,1.3H34.4c-0.3,0-0.5,0.2-0.5,0.5
		c0,0.3,0.2,0.5,0.5,0.5h11.8l-1.3,1.3c-0.2,0.2-0.2,0.5,0,0.7c0.1,0.1,0.2,0.1,0.3,0.1c0.1,0,0.2,0,0.3-0.1l2.1-2.1
		C47.8,22.2,47.8,21.9,47.6,21.7z"/>
</g>
<g>
	<path class="st1" d="M47.6,48.5c0.2-0.2,0.2-0.5,0-0.7l-2.1-2.1c-0.2-0.2-0.5-0.2-0.7,0c-0.2,0.2-0.2,0.5,0,0.7l1.3,1.3H34.4
		c-0.3,0-0.5,0.2-0.5,0.5c0,0.3,0.2,0.5,0.5,0.5h11.8l-1.3,1.3c-0.2,0.2-0.2,0.5,0,0.7c0.1,0.1,0.2,0.1,0.3,0.1c0.1,0,0.2,0,0.3-0.1
		L47.6,48.5z"/>
</g>
<g>
	<path class="st1" d="M19.4,27.7h10.3c0.3,0,0.5-0.2,0.5-0.5V16.9c0-0.3-0.2-0.5-0.5-0.5H19.4c-0.3,0-0.5,0.2-0.5,0.5v10.3
		C19,27.4,19.2,27.7,19.4,27.7z M19.9,17.3h9.4v9.4h-9.4V17.3z"/>
</g>
<g>
	<path class="st1" d="M19,40.3c0,0.3,0.2,0.5,0.5,0.5h10.3c0.3,0,0.5-0.2,0.5-0.5V29.9c0-0.3-0.2-0.5-0.5-0.5H19.4
		c-0.3,0-0.5,0.2-0.5,0.5V40.3z M19.9,30.4h9.4v9.4h-9.4V30.4z"/>
</g>
<g>
	<path class="st1" d="M19,53.3c0,0.3,0.2,0.5,0.5,0.5h10.3c0.3,0,0.5-0.2,0.5-0.5V43c0-0.3-0.2-0.5-0.5-0.5H19.4
		c-0.3,0-0.5,0.2-0.5,0.5V53.3z M19.9,43.5h9.4v9.4h-9.4V43.5z"/>
</g>
<g>
	<path class="st2" d="M53.7,21.6L53.7,21.6c-1,0-1.7-0.7-1.7-1.7s0.7-1.7,1.7-1.7s1.7,0.7,1.7,1.7c0,0.3,0.2,0.5,0.5,0.5
		c0.3,0,0.5-0.2,0.5-0.5c0-1.3-0.9-2.3-2.1-2.5v-0.5c0-0.3-0.2-0.5-0.5-0.5s-0.5,0.2-0.5,0.5v0.5C52,17.6,51,18.6,51,19.9
		c0,1.4,1.2,2.6,2.6,2.6h0.1c0.9,0,1.7,0.7,1.7,1.7s-0.7,1.7-1.7,1.7s-1.7-0.7-1.7-1.7c0-0.3-0.2-0.5-0.5-0.5s-0.5,0.2-0.5,0.5
		c0,1.2,0.9,2.3,2,2.5v0.5c0,0.3,0.2,0.5,0.5,0.5s0.5-0.2,0.5-0.5v-0.5c1.3-0.2,2.2-1.3,2.2-2.6C56.3,22.7,55.1,21.6,53.7,21.6z"/>
</g>
<g>
	<path class="st2" d="M53.7,34.6L53.7,34.6c-1,0-1.7-0.7-1.7-1.7s0.7-1.7,1.7-1.7s1.7,0.7,1.7,1.7c0,0.3,0.2,0.5,0.5,0.5
		c0.3,0,0.5-0.2,0.5-0.5c0-1.3-0.9-2.3-2.1-2.5v-0.5c0-0.3-0.2-0.5-0.5-0.5s-0.5,0.2-0.5,0.5v0.5C52,30.6,51,31.7,51,32.9
		c0,1.4,1.2,2.6,2.6,2.6h0.1c0.9,0,1.7,0.7,1.7,1.7s-0.7,1.7-1.7,1.7s-1.7-0.7-1.7-1.7c0-0.3-0.2-0.5-0.5-0.5s-0.5,0.2-0.5,0.5
		c0,1.2,0.9,2.3,2,2.5v0.5c0,0.3,0.2,0.5,0.5,0.5s0.5-0.2,0.5-0.5v-0.5c1.3-0.2,2.2-1.3,2.2-2.6C56.3,35.8,55.1,34.6,53.7,34.6z"/>
</g>
<g>
	<path class="st2" d="M53.6,53.8c0.3,0,0.5-0.2,0.5-0.5v-0.5c1.3-0.2,2.2-1.3,2.2-2.6c0-1.4-1.2-2.6-2.6-2.6h-0.1
		c-0.9,0-1.7-0.7-1.7-1.7s0.7-1.7,1.7-1.7s1.7,0.7,1.7,1.7c0,0.3,0.2,0.5,0.5,0.5c0.3,0,0.5-0.2,0.5-0.5c0-1.3-0.9-2.3-2.1-2.5v-0.5
		c0-0.3-0.2-0.5-0.5-0.5s-0.5,0.2-0.5,0.5v0.5C52,43.7,51,44.7,51,46c0,1.4,1.2,2.6,2.6,2.6h0.1c0.9,0,1.7,0.7,1.7,1.7
		s-0.7,1.7-1.7,1.7s-1.7-0.7-1.7-1.7c0-0.3-0.2-0.5-0.5-0.5s-0.5,0.2-0.5,0.5c0,1.2,0.9,2.3,2,2.5v0.5
		C53.2,53.5,53.4,53.8,53.6,53.8z"/>
</g>
<g>
	<defs>
		<polygon id="SVGID_1_" points="-425.5,2225.3 -425.5,2226.4 -407.6,2226.4 -407.6,2245.3 -406.5,2245.3 -406.5,2225.3 		"/>
	</defs>
	<clipPath id="SVGID_2_">
		<use xlink:href="#SVGID_1_"  style="overflow:visible;"/>
	</clipPath>
	<g class="st10">
		<defs>
			<rect id="SVGID_3_" x="-683.5" y="-2360.7" width="1640" height="5497"/>
		</defs>
		<clipPath id="SVGID_4_">
			<use xlink:href="#SVGID_3_"  style="overflow:visible;"/>
		</clipPath>
	</g>
</g>
<g>
	<defs>
		<polygon id="SVGID_5_" points="-423.7,2244.3 -424.5,2243.5 -407.3,2225.3 -406.5,2226.1 		"/>
	</defs>
	<clipPath id="SVGID_6_">
		<use xlink:href="#SVGID_5_"  style="overflow:visible;"/>
	</clipPath>
	<g class="st12">
		<defs>
			<rect id="SVGID_7_" x="-683.5" y="-2360.7" width="1640" height="5497"/>
		</defs>
		<clipPath id="SVGID_8_">
			<use xlink:href="#SVGID_7_"  style="overflow:visible;"/>
		</clipPath>
	</g>
</g>
</svg>
