<?xml version="1.0" encoding="utf-8"?>
<!-- Generator: Adobe Illustrator 24.0.0, SVG Export Plug-In . SVG Version: 6.00 Build 0)  -->
<svg version="1.1" id="Layer_1" xmlns="http://www.w3.org/2000/svg" xmlns:xlink="http://www.w3.org/1999/xlink" x="0px" y="0px"
	 viewBox="0 0 70 70" style="enable-background:new 0 0 70 70;" xml:space="preserve">
<style type="text/css">
	.st0{filter:url(#Adobe_OpacityMaskFilter);}
	.st1{fill-rule:evenodd;clip-rule:evenodd;fill:#FFFFFF;}
	.st2{mask:url(#mask-2_2_);fill-rule:evenodd;clip-rule:evenodd;fill:#989898;}
	.st3{fill-rule:evenodd;clip-rule:evenodd;fill:#AFD141;}
	.st4{filter:url(#Adobe_OpacityMaskFilter_1_);}
	.st5{mask:url(#mask-4_2_);fill-rule:evenodd;clip-rule:evenodd;fill:#989898;}
	.st6{fill:#989898;}
	.st7{filter:url(#Adobe_OpacityMaskFilter_2_);}
	.st8{mask:url(#mask-2_6_);fill-rule:evenodd;clip-rule:evenodd;fill:#989898;}
	.st9{fill-rule:evenodd;clip-rule:evenodd;fill:#989898;}
	.st10{filter:url(#Adobe_OpacityMaskFilter_3_);}
	.st11{mask:url(#mask-4_3_);fill-rule:evenodd;clip-rule:evenodd;fill:#AFD141;}
	.st12{filter:url(#Adobe_OpacityMaskFilter_4_);}
	.st13{mask:url(#mask-6_2_);fill-rule:evenodd;clip-rule:evenodd;fill:#989898;}
	.st14{filter:url(#Adobe_OpacityMaskFilter_5_);}
	.st15{mask:url(#mask-2_1_);fill-rule:evenodd;clip-rule:evenodd;fill:#989898;}
	.st16{filter:url(#Adobe_OpacityMaskFilter_6_);}
	.st17{mask:url(#mask-4_1_);fill-rule:evenodd;clip-rule:evenodd;fill:#AFD141;}
	.st18{filter:url(#Adobe_OpacityMaskFilter_7_);}
	.st19{mask:url(#mask-6_1_);fill-rule:evenodd;clip-rule:evenodd;fill:#989898;}
	.st20{filter:url(#Adobe_OpacityMaskFilter_8_);}
	.st21{mask:url(#mask-2_3_);fill-rule:evenodd;clip-rule:evenodd;fill:#989898;}
	.st22{filter:url(#Adobe_OpacityMaskFilter_9_);}
	.st23{mask:url(#mask-2_8_);fill-rule:evenodd;clip-rule:evenodd;fill:#989898;}
	.st24{filter:url(#Adobe_OpacityMaskFilter_10_);}
	.st25{mask:url(#mask-4_6_);fill-rule:evenodd;clip-rule:evenodd;fill:#989898;}
	.st26{filter:url(#Adobe_OpacityMaskFilter_11_);}
	.st27{mask:url(#mask-2_7_);fill-rule:evenodd;clip-rule:evenodd;fill:#989898;}
	.st28{filter:url(#Adobe_OpacityMaskFilter_12_);}
	.st29{mask:url(#mask-4_5_);fill-rule:evenodd;clip-rule:evenodd;fill:#AFD141;}
	.st30{filter:url(#Adobe_OpacityMaskFilter_13_);}
	.st31{mask:url(#mask-6_4_);fill-rule:evenodd;clip-rule:evenodd;fill:#989898;}
	.st32{filter:url(#Adobe_OpacityMaskFilter_14_);}
	.st33{mask:url(#mask-2_5_);fill-rule:evenodd;clip-rule:evenodd;fill:#989898;}
	.st34{filter:url(#Adobe_OpacityMaskFilter_15_);}
	.st35{mask:url(#mask-4_4_);fill-rule:evenodd;clip-rule:evenodd;fill:#AFD141;}
	.st36{filter:url(#Adobe_OpacityMaskFilter_16_);}
	.st37{mask:url(#mask-6_3_);fill-rule:evenodd;clip-rule:evenodd;fill:#989898;}
	.st38{filter:url(#Adobe_OpacityMaskFilter_17_);}
	.st39{mask:url(#mask-2_4_);fill-rule:evenodd;clip-rule:evenodd;fill:#989898;}
</style>
<g>
	<defs>
		<filter id="Adobe_OpacityMaskFilter" filterUnits="userSpaceOnUse" x="23.2" y="36.3" width="22.1" height="5.7">
			<feColorMatrix  type="matrix" values="1 0 0 0 0  0 1 0 0 0  0 0 1 0 0  0 0 0 1 0"/>
		</filter>
	</defs>
	<mask maskUnits="userSpaceOnUse" x="23.2" y="36.3" width="22.1" height="5.7" id="mask-2_1_">
		<g class="st0">
			<polygon id="path-1_1_" class="st1" points="23.2,36.3 45.3,36.3 45.3,42 23.2,42 			"/>
		</g>
	</mask>
	<path id="Fill-1_1_" class="st15" d="M44,36.5c0.3-0.3,0.8-0.3,1.1,0.1c0.3,0.3,0.3,0.8-0.1,1.1c-2.9,2.7-6.8,4.3-10.7,4.3
		c-3.4,0-6.8-1.1-9.5-3.2l0,1.8c0,0.4-0.4,0.8-0.8,0.8c-0.4,0-0.8-0.4-0.8-0.8l0-3.4c-0.1-0.5,0.4-1,0.9-0.9l3.3,0
		c0.4,0,0.8,0.4,0.8,0.8c0,0.4-0.4,0.8-0.8,0.8l-1.1,0c2.4,1.6,5.1,2.4,8,2.4C37.9,40.4,41.3,39,44,36.5L44,36.5z"/>
	<defs>
		<filter id="Adobe_OpacityMaskFilter_1_" filterUnits="userSpaceOnUse" x="36.3" y="9.7" width="15.8" height="23.6">
			<feColorMatrix  type="matrix" values="1 0 0 0 0  0 1 0 0 0  0 0 1 0 0  0 0 0 1 0"/>
		</filter>
	</defs>
	<mask maskUnits="userSpaceOnUse" x="36.3" y="9.7" width="15.8" height="23.6" id="mask-4_1_">
		<g class="st4">
			<polygon id="path-3_1_" class="st1" points="36.3,9.7 52,9.7 52,33.4 36.3,33.4 			"/>
		</g>
	</mask>
	<path id="Fill-4_1_" class="st17" d="M51,30.8c0.4-0.1,0.9,0.1,1,0.5c0.1,0.4-0.1,0.9-0.5,1l-3.2,1c-0.5,0.2-1-0.1-1.1-0.6l-1-3.2
		c-0.1-0.4,0.1-0.9,0.5-1c0.4-0.1,0.9,0.1,1,0.5l0.4,1.2c0.5-1.4,0.7-2.9,0.7-4.5c0-7.1-5-13.2-11.9-14.5c-0.4-0.1-0.7-0.5-0.6-0.9
		c0.1-0.4,0.5-0.7,0.9-0.6c7.6,1.5,13.2,8.2,13.2,16.1c0,1.9-0.4,3.7-1,5.5L51,30.8L51,30.8z"/>
	<defs>
		<filter id="Adobe_OpacityMaskFilter_2_" filterUnits="userSpaceOnUse" x="18" y="8" width="14.2" height="25.5">
			<feColorMatrix  type="matrix" values="1 0 0 0 0  0 1 0 0 0  0 0 1 0 0  0 0 0 1 0"/>
		</filter>
	</defs>
	<mask maskUnits="userSpaceOnUse" x="18" y="8" width="14.2" height="25.5" id="mask-6_1_">
		<g class="st7">
			<polygon id="path-5_1_" class="st1" points="18,8 32.1,8 32.1,33.4 18,33.4 			"/>
		</g>
	</mask>
	<path id="Fill-7" class="st19" d="M28.1,9.4c-0.4-0.2-0.5-0.7-0.2-1.1c0.2-0.4,0.7-0.5,1.1-0.2l2.8,1.8c0.5,0.2,0.6,0.9,0.3,1.3
		L30.1,14c-0.2,0.4-0.7,0.5-1.1,0.2c-0.4-0.2-0.5-0.7-0.2-1.1l0.8-1.1c-5.9,2-10,7.5-10,13.9c0,2.2,0.5,4.4,1.5,6.4
		c0.5,0.9-1,1.6-1.4,0.7c-1.1-2.2-1.6-4.7-1.6-7.1c0-7.2,4.7-13.5,11.5-15.5L28.1,9.4L28.1,9.4z"/>
</g>
<polygon class="st6" points="40.6,55.1 40.1,54.5 35.4,59.3 35.4,49.4 34.6,49.4 34.6,59.1 29.9,54.4 29.4,54.9 35.1,60.6 "/>
</svg>
