<?xml version="1.0" encoding="utf-8"?>
<!-- Generator: Adobe Illustrator 24.0.0, SVG Export Plug-In . SVG Version: 6.00 Build 0)  -->
<svg version="1.1" id="Layer_1" xmlns="http://www.w3.org/2000/svg" xmlns:xlink="http://www.w3.org/1999/xlink" x="0px" y="0px"
	 viewBox="0 0 70 70" style="enable-background:new 0 0 70 70;" xml:space="preserve">
<style type="text/css">
	.st0{fill:#FF000B;}
	.st1{fill:#989898;}
	.st2{fill:#00B9F1;}
	.st3{fill:#227DBA;}
	.st4{fill:#508D35;}
	.st5{fill:#2CAB9F;}
	.st6{fill:#99D000;}
	.st7{fill:none;stroke:#99D000;stroke-width:0.5743;stroke-miterlimit:10;}
	.st8{fill:none;stroke:#2CAB9F;stroke-width:2.474;stroke-linecap:round;stroke-linejoin:round;stroke-miterlimit:10;}
	.st9{fill:#FFFFFF;}
	.st10{clip-path:url(#SVGID_2_);}
	.st11{clip-path:url(#SVGID_4_);}
	.st12{clip-path:url(#SVGID_6_);}
	.st13{clip-path:url(#SVGID_8_);}
	.st14{filter:url(#Adobe_OpacityMaskFilter);}
	.st15{fill-rule:evenodd;clip-rule:evenodd;fill:#FFFFFF;}
	.st16{mask:url(#mask-2_4_);}
	.st17{fill-rule:evenodd;clip-rule:evenodd;fill:#989898;}
	.st18{filter:url(#Adobe_OpacityMaskFilter_1_);}
	.st19{mask:url(#mask-4_3_);}
	.st20{fill-rule:evenodd;clip-rule:evenodd;fill:#AFD141;}
	.st21{filter:url(#Adobe_OpacityMaskFilter_2_);}
	.st22{mask:url(#mask-6_2_);}
	.st23{filter:url(#Adobe_OpacityMaskFilter_3_);}
	.st24{mask:url(#mask-2_3_);}
	.st25{filter:url(#Adobe_OpacityMaskFilter_4_);}
	.st26{mask:url(#mask-2_2_);}
	.st27{filter:url(#Adobe_OpacityMaskFilter_5_);}
	.st28{mask:url(#mask-4_2_);}
	.st29{filter:url(#Adobe_OpacityMaskFilter_6_);}
	.st30{mask:url(#mask-2_1_);}
	.st31{filter:url(#Adobe_OpacityMaskFilter_7_);}
	.st32{mask:url(#mask-4_1_);}
	.st33{filter:url(#Adobe_OpacityMaskFilter_8_);}
	.st34{mask:url(#mask-6_1_);}
</style>
<g>
	<path class="st1" d="M30,52.1c2.8,0,5.4-0.8,7.6-2.4c1.1,0.7,4.9,2.8,7.8-0.3c0.1-0.1,0.1-0.3,0.1-0.4c0-0.1-0.1-0.3-0.3-0.3
		c0,0-4-1.6-3.3-3.7c0.7-1.5,1.3-3.4,1.4-4.8c0-0.1,0.3-2.4-0.2-4.6c2.8,0.1,5.6-1,7.7-3.1c2-2,3-4.6,3-7.3c0-2.8-1.1-5.3-3.1-7.3
		c-4.1-4-10.7-3.9-14.7,0.1c-2.2,2.2-3.2,5.1-3,7.9c-1-0.2-1.9-0.3-2.9-0.3c-7.4,0-13.4,5.9-13.4,13.3S22.6,52.1,30,52.1z
		 M36.6,18.7c3.7-3.7,9.7-3.8,13.4-0.1c1.8,1.8,2.8,4.1,2.8,6.6c0,2.5-0.9,4.9-2.7,6.7c-2.5,2.6-6.3,3.5-9.7,2.4
		c-0.2-0.1-0.4,0-0.5,0.1c0,0-1.3,1.4-3.7,0.6c0.4-0.3,0.8-0.8,1-1.3c0.1-0.4,0.1-1-0.5-1.7c0,0,0,0,0,0c-0.1-0.1-0.1-0.1-0.2-0.2
		C32.9,28.1,32.9,22.3,36.6,18.7z M30,26.5c1,0,2,0.1,3,0.4c0.3,2,1.2,4,2.8,5.5c0.1,0.1,0.1,0.1,0.2,0.2c0.2,0.3,0.3,0.6,0.3,0.8
		c-0.1,0.6-1,1.1-1.3,1.2c-0.2,0.1-0.3,0.2-0.3,0.4c0,0.2,0.1,0.3,0.3,0.4c1,0.5,1.9,0.6,2.6,0.6c1.4,0,2.4-0.6,2.8-1
		c0.6,0.2,1.2,0.3,1.7,0.3c0.6,2.2,0.3,4.5,0.3,4.6c-0.1,1.4-0.7,3.1-1.4,4.5c0,0,0,0,0,0.1c-0.7,2.3,1.9,3.9,3.2,4.6
		c-2.7,2.2-6.2-0.4-6.3-0.5c-0.2-0.1-0.4-0.1-0.5,0c-2.1,1.6-4.7,2.4-7.4,2.4c-6.9,0-12.5-5.5-12.5-12.3C17.5,32,23.1,26.5,30,26.5z
		"/>
	<path class="st1" d="M30,52.2c-7.5,0-13.5-6-13.5-13.4S22.6,25.4,30,25.4c0.9,0,1.9,0.1,2.8,0.3c-0.1-2.9,1-5.7,3-7.8
		c4.1-4.1,10.8-4.2,14.9-0.1c2,2,3.1,4.6,3.2,7.4s-1,5.4-3,7.4c-2,2-4.7,3.1-7.5,3.1c0,0-0.1,0-0.1,0c0.5,2.2,0.2,4.4,0.2,4.5
		c-0.1,1.4-0.7,3.3-1.4,4.8c-0.6,1.9,3.2,3.5,3.3,3.5c0.2,0.1,0.3,0.2,0.4,0.4c0,0.2,0,0.4-0.1,0.5c-2.8,3-6.7,1.1-7.9,0.4
		C35.4,51.4,32.8,52.2,30,52.2z M30,25.7c-7.3,0-13.3,5.9-13.3,13.1S22.7,52,30,52c2.7,0,5.3-0.8,7.6-2.3l0.1,0l0.1,0
		c1.1,0.7,4.9,2.7,7.6-0.3c0.1-0.1,0.1-0.2,0.1-0.3c0-0.1-0.1-0.2-0.2-0.2c0,0-4.1-1.7-3.4-3.8c0.7-1.5,1.3-3.3,1.4-4.8
		c0-0.1,0.3-2.3-0.2-4.6l0-0.2l0.2,0c2.8,0.1,5.6-1,7.6-3.1c1.9-1.9,3-4.5,3-7.2s-1.1-5.3-3.1-7.2C46.5,14,40,14.1,36,18.1
		c-2.1,2.1-3.1,4.9-2.9,7.8l0,0.2l-0.2,0C31.9,25.8,31,25.7,30,25.7z M30,51.3c-6.9,0-12.6-5.6-12.6-12.5S23.1,26.4,30,26.4
		c1,0,2.1,0.1,3.1,0.4l0.1,0l0,0.1c0.3,2.1,1.3,4,2.8,5.5c0.1,0.1,0.1,0.1,0.2,0.2c0.3,0.3,0.4,0.6,0.3,0.9
		c-0.2,0.8-1.3,1.3-1.3,1.3c-0.1,0.1-0.2,0.2-0.2,0.3c0,0.1,0.1,0.3,0.2,0.3c0.9,0.4,1.7,0.6,2.6,0.6c1.4,0,2.3-0.6,2.7-0.9l0.1,0
		l0.1,0c0.5,0.2,1.1,0.3,1.7,0.3l0.1,0l0,0.1c0.6,2.1,0.3,4.4,0.3,4.6c-0.1,1.4-0.7,3.2-1.4,4.6c0,0,0,0,0,0c-0.7,2.2,2,3.8,3.2,4.4
		l0.2,0.1l-0.2,0.1c-2.8,2.2-6.3-0.4-6.5-0.5c-0.1-0.1-0.3-0.1-0.4,0C35.3,50.4,32.7,51.3,30,51.3z M30,26.6
		c-6.8,0-12.3,5.5-12.3,12.2S23.2,51,30,51c2.6,0,5.2-0.8,7.3-2.4c0.2-0.2,0.5-0.1,0.7,0c0.1,0.1,3.4,2.5,6,0.6
		c-1.3-0.7-3.9-2.3-3.1-4.6c0,0,0-0.1,0-0.1c0.7-1.4,1.2-3.1,1.3-4.5c0-0.1,0.3-2.4-0.2-4.5c-0.6-0.1-1.1-0.2-1.6-0.3
		c-0.5,0.4-1.4,0.9-2.8,0.9c-0.9,0-1.8-0.2-2.7-0.7c-0.2-0.1-0.3-0.3-0.3-0.5c0-0.2,0.1-0.4,0.4-0.5c0.3-0.1,1.1-0.6,1.2-1.1
		c0.1-0.2,0-0.5-0.2-0.7c-0.1-0.1-0.1-0.1-0.2-0.2c-1.5-1.5-2.5-3.4-2.8-5.5C32,26.7,31,26.6,30,26.6z M37.6,35.3
		c-0.4,0-0.9-0.1-1.4-0.2L36,35l0.2-0.1c0.5-0.4,0.8-0.8,0.9-1.3c0.1-0.4,0.1-0.9-0.4-1.5c0,0,0,0,0,0c-0.1-0.1-0.1-0.1-0.2-0.2
		c-3.6-3.7-3.6-9.6,0.1-13.3l0,0c3.7-3.7,9.8-3.8,13.6-0.1c1.8,1.8,2.9,4.2,2.9,6.7s-1,4.9-2.8,6.8c-2.6,2.6-6.3,3.5-9.8,2.4
		c-0.1,0-0.3,0-0.4,0.1C40,34.4,39.2,35.3,37.6,35.3z M36.5,34.9c2.2,0.6,3.3-0.7,3.4-0.7c0.2-0.2,0.4-0.2,0.6-0.2
		c3.4,1.1,7.1,0.2,9.6-2.3c1.8-1.8,2.7-4.1,2.7-6.6c0-2.5-1-4.8-2.8-6.5c-3.7-3.6-9.6-3.5-13.3,0.1l0,0c-3.6,3.6-3.6,9.3-0.1,12.9
		c0.1,0.1,0.1,0.1,0.2,0.2c0,0,0,0,0,0.1c0.6,0.7,0.6,1.3,0.5,1.8C37.2,34.1,36.9,34.5,36.5,34.9z"/>
</g>
<g>
	<path class="st3" d="M39.2,23.7h8.4c0.3,0,0.5-0.2,0.5-0.5c0-0.3-0.2-0.5-0.5-0.5h-8.4c-0.3,0-0.5,0.2-0.5,0.5
		C38.7,23.5,38.9,23.7,39.2,23.7z"/>
</g>
<g>
	<path class="st3" d="M39.2,28.2h8.4c0.3,0,0.5-0.2,0.5-0.5c0-0.3-0.2-0.5-0.5-0.5h-8.4c-0.3,0-0.5,0.2-0.5,0.5
		C38.7,28,38.9,28.2,39.2,28.2z"/>
</g>
<g>
	<path class="st3" d="M29.9,45.6c-1.1,0-2-0.9-2-2c0-1.1,0.9-2,2-2s2,0.9,2,2C31.9,44.7,31,45.6,29.9,45.6z"/>
</g>
<g>
	<rect x="28.3" y="32.5" class="st3" width="3.3" height="7.3"/>
</g>
<g>
	<defs>
		<polygon id="SVGID_1_" points="-532.8,2070.3 -532.8,2071.5 -515,2071.5 -515,2090.3 -513.8,2090.3 -513.8,2070.3 		"/>
	</defs>
	<clipPath id="SVGID_2_">
		<use xlink:href="#SVGID_1_"  style="overflow:visible;"/>
	</clipPath>
	<g class="st10">
		<defs>
			<rect id="SVGID_3_" x="-790.8" y="-2515.7" width="1640" height="5497"/>
		</defs>
		<clipPath id="SVGID_4_">
			<use xlink:href="#SVGID_3_"  style="overflow:visible;"/>
		</clipPath>
	</g>
</g>
<g>
	<defs>
		<polygon id="SVGID_5_" points="-531.1,2089.3 -531.8,2088.5 -514.6,2070.3 -513.8,2071.2 		"/>
	</defs>
	<clipPath id="SVGID_6_">
		<use xlink:href="#SVGID_5_"  style="overflow:visible;"/>
	</clipPath>
	<g class="st12">
		<defs>
			<rect id="SVGID_7_" x="-790.8" y="-2515.7" width="1640" height="5497"/>
		</defs>
		<clipPath id="SVGID_8_">
			<use xlink:href="#SVGID_7_"  style="overflow:visible;"/>
		</clipPath>
	</g>
</g>
</svg>
