<?xml version="1.0" encoding="utf-8"?>
<!-- Generator: Adobe Illustrator 24.0.0, SVG Export Plug-In . SVG Version: 6.00 Build 0)  -->
<svg version="1.1" id="Layer_1" xmlns="http://www.w3.org/2000/svg" xmlns:xlink="http://www.w3.org/1999/xlink" x="0px" y="0px"
	 viewBox="0 0 70 70" style="enable-background:new 0 0 70 70;" xml:space="preserve">
<style type="text/css">
	.st0{fill:#FF000B;}
	.st1{fill:#989898;}
	.st2{fill:#00B9F1;}
	.st3{fill:#227DBA;}
	.st4{fill:#508D35;}
	.st5{fill:#2CAB9F;}
	.st6{fill:#99D000;}
	.st7{fill:none;stroke:#99D000;stroke-width:0.5743;stroke-miterlimit:10;}
	.st8{fill:none;stroke:#2CAB9F;stroke-width:2.474;stroke-linecap:round;stroke-linejoin:round;stroke-miterlimit:10;}
	.st9{fill:#FFFFFF;}
	.st10{clip-path:url(#SVGID_2_);}
	.st11{clip-path:url(#SVGID_4_);}
	.st12{clip-path:url(#SVGID_6_);}
	.st13{clip-path:url(#SVGID_8_);}
	.st14{filter:url(#Adobe_OpacityMaskFilter);}
	.st15{fill-rule:evenodd;clip-rule:evenodd;fill:#FFFFFF;}
	.st16{mask:url(#mask-2_4_);}
	.st17{fill-rule:evenodd;clip-rule:evenodd;fill:#989898;}
	.st18{filter:url(#Adobe_OpacityMaskFilter_1_);}
	.st19{mask:url(#mask-4_3_);}
	.st20{fill-rule:evenodd;clip-rule:evenodd;fill:#AFD141;}
	.st21{filter:url(#Adobe_OpacityMaskFilter_2_);}
	.st22{mask:url(#mask-6_2_);}
	.st23{filter:url(#Adobe_OpacityMaskFilter_3_);}
	.st24{mask:url(#mask-2_3_);}
	.st25{filter:url(#Adobe_OpacityMaskFilter_4_);}
	.st26{mask:url(#mask-2_2_);}
	.st27{filter:url(#Adobe_OpacityMaskFilter_5_);}
	.st28{mask:url(#mask-4_2_);}
	.st29{filter:url(#Adobe_OpacityMaskFilter_6_);}
	.st30{mask:url(#mask-2_1_);}
	.st31{filter:url(#Adobe_OpacityMaskFilter_7_);}
	.st32{mask:url(#mask-4_1_);}
	.st33{filter:url(#Adobe_OpacityMaskFilter_8_);}
	.st34{mask:url(#mask-6_1_);}
</style>
<g>
	<g>
		<path class="st1" d="M35,13.9c-3.6,0-6.6,3-6.6,6.6v15.4c-2.9,2.1-4.6,5.4-4.6,9c0,5.9,4.7,10.9,10.6,11.2c0.2,0,0.4,0,0.6,0
			c2.9,0,5.6-1.1,7.7-3.1c2.3-2.1,3.5-5,3.5-8.1c0-3.6-1.7-6.9-4.6-9.1V20.5C41.6,16.8,38.6,13.9,35,13.9z M44.8,44.9
			c0,2.7-1.1,5.2-3,7.1c-2,1.9-4.5,2.8-7.2,2.7c-5.1-0.3-9.2-4.7-9.2-9.8c0-3.2,1.6-6.2,4.3-8.1c0.2-0.1,0.3-0.4,0.3-0.6V20.5
			c0-2.8,2.3-5.2,5.1-5.2c2.8,0,5.1,2.3,5.1,5.2v15.8c0,0.2,0.1,0.5,0.3,0.6C43.2,38.7,44.8,41.7,44.8,44.9z"/>
		<path class="st1" d="M35,56.2c-0.2,0-0.4,0-0.6,0c-5.9-0.3-10.7-5.4-10.7-11.3c0-3.6,1.7-7,4.6-9.1V20.5c0-3.7,3-6.7,6.7-6.7
			c3.7,0,6.7,3,6.7,6.7v15.3c2.9,2.1,4.6,5.5,4.6,9.1c0,3.1-1.3,6-3.5,8.2C40.7,55.1,37.9,56.2,35,56.2z M35,14
			c-3.6,0-6.5,2.9-6.5,6.5v15.4l0,0c-2.8,2.1-4.6,5.4-4.6,8.9c0,5.8,4.7,10.8,10.5,11.1c3.1,0.2,6-0.9,8.2-3c2.2-2.1,3.5-5,3.5-8
			c0-3.5-1.7-6.9-4.6-9l0,0V20.5C41.5,16.9,38.6,14,35,14z M35,54.8c-0.2,0-0.4,0-0.6,0c-5.2-0.3-9.3-4.7-9.3-9.9
			c0-3.3,1.6-6.3,4.3-8.1c0.2-0.1,0.3-0.3,0.3-0.5V20.5c0-2.9,2.4-5.3,5.3-5.3c2.9,0,5.3,2.4,5.3,5.3v15.8c0,0.2,0.1,0.4,0.3,0.5
			c2.7,1.8,4.3,4.9,4.3,8.2c0,2.7-1.1,5.3-3.1,7.2C39.9,53.8,37.5,54.8,35,54.8z M35,15.4c-2.8,0-5,2.3-5,5v15.8
			c0,0.3-0.1,0.5-0.4,0.7c-2.6,1.8-4.2,4.8-4.2,8c0,5.1,4.1,9.4,9.1,9.7c2.7,0.1,5.2-0.8,7.2-2.6c1.9-1.8,3-4.3,3-7
			c0-3.2-1.6-6.2-4.2-8c-0.2-0.2-0.4-0.4-0.4-0.7V20.5C40,17.7,37.8,15.4,35,15.4z"/>
	</g>
	<g>
		<circle class="st4" cx="35" cy="45.6" r="4.3"/>
		<path class="st4" d="M35,50.2c-2.3,0-4.3-1.7-4.6-4c-0.2-1.2,0.2-2.4,0.9-3.4c0.7-1,1.8-1.6,3.1-1.8c1.2-0.2,2.4,0.2,3.4,0.9
			c1,0.7,1.6,1.8,1.8,3.1c0.2,1.2-0.2,2.4-0.9,3.4c-0.7,1-1.8,1.6-3.1,1.8C35.4,50.2,35.2,50.2,35,50.2z M35,41.6
			c-0.2,0-0.4,0-0.5,0v0c-1.1,0.1-2,0.7-2.7,1.5c-0.7,0.9-0.9,1.9-0.8,3c0.3,2.2,2.3,3.8,4.5,3.5c1.1-0.1,2-0.7,2.7-1.5
			s0.9-1.9,0.8-3c-0.1-1.1-0.7-2-1.5-2.7C36.7,41.9,35.9,41.6,35,41.6z"/>
	</g>
	<g>
		<path class="st4" d="M35,46.8c-0.7,0-1.2-0.6-1.2-1.2V20c0-0.7,0.6-1.2,1.2-1.2s1.2,0.6,1.2,1.2v25.6C36.2,46.3,35.7,46.8,35,46.8
			z"/>
	</g>
</g>
<g>
	<defs>
		<polygon id="SVGID_1_" points="-319.8,1451.8 -319.8,1453 -301.9,1453 -301.9,1471.8 -300.8,1471.8 -300.8,1451.8 		"/>
	</defs>
	<clipPath id="SVGID_2_">
		<use xlink:href="#SVGID_1_"  style="overflow:visible;"/>
	</clipPath>
	<g class="st10">
		<defs>
			<rect id="SVGID_3_" x="-577.8" y="-3134.2" width="1640" height="5497"/>
		</defs>
		<clipPath id="SVGID_4_">
			<use xlink:href="#SVGID_3_"  style="overflow:visible;"/>
		</clipPath>
	</g>
</g>
<g>
	<defs>
		<polygon id="SVGID_5_" points="-318,1470.8 -318.8,1470 -301.6,1451.8 -300.8,1452.6 		"/>
	</defs>
	<clipPath id="SVGID_6_">
		<use xlink:href="#SVGID_5_"  style="overflow:visible;"/>
	</clipPath>
	<g class="st12">
		<defs>
			<rect id="SVGID_7_" x="-577.8" y="-3134.2" width="1640" height="5497"/>
		</defs>
		<clipPath id="SVGID_8_">
			<use xlink:href="#SVGID_7_"  style="overflow:visible;"/>
		</clipPath>
	</g>
</g>
</svg>
