<?xml version="1.0" encoding="utf-8"?>
<!-- Generator: Adobe Illustrator 24.0.0, SVG Export Plug-In . SVG Version: 6.00 Build 0)  -->
<svg version="1.1" id="Layer_1" xmlns="http://www.w3.org/2000/svg" xmlns:xlink="http://www.w3.org/1999/xlink" x="0px" y="0px"
	 viewBox="0 0 70 70" style="enable-background:new 0 0 70 70;" xml:space="preserve">
<style type="text/css">
	.st0{fill:#FF000B;}
	.st1{fill:#989898;}
	.st2{fill:#00B9F1;}
	.st3{fill:#227DBA;}
	.st4{fill:#508D35;}
	.st5{fill:#2CAB9F;}
	.st6{fill:#99D000;}
	.st7{fill:none;stroke:#99D000;stroke-width:0.5743;stroke-miterlimit:10;}
	.st8{fill:none;stroke:#2CAB9F;stroke-width:2.474;stroke-linecap:round;stroke-linejoin:round;stroke-miterlimit:10;}
	.st9{fill:#FFFFFF;}
	.st10{clip-path:url(#SVGID_2_);}
	.st11{clip-path:url(#SVGID_4_);}
	.st12{clip-path:url(#SVGID_6_);}
	.st13{clip-path:url(#SVGID_8_);}
	.st14{filter:url(#Adobe_OpacityMaskFilter);}
	.st15{fill-rule:evenodd;clip-rule:evenodd;fill:#FFFFFF;}
	.st16{mask:url(#mask-2_4_);}
	.st17{fill-rule:evenodd;clip-rule:evenodd;fill:#989898;}
	.st18{filter:url(#Adobe_OpacityMaskFilter_1_);}
	.st19{mask:url(#mask-4_3_);}
	.st20{fill-rule:evenodd;clip-rule:evenodd;fill:#AFD141;}
	.st21{filter:url(#Adobe_OpacityMaskFilter_2_);}
	.st22{mask:url(#mask-6_2_);}
	.st23{filter:url(#Adobe_OpacityMaskFilter_3_);}
	.st24{mask:url(#mask-2_3_);}
	.st25{filter:url(#Adobe_OpacityMaskFilter_4_);}
	.st26{mask:url(#mask-2_2_);}
	.st27{filter:url(#Adobe_OpacityMaskFilter_5_);}
	.st28{mask:url(#mask-4_2_);}
	.st29{filter:url(#Adobe_OpacityMaskFilter_6_);}
	.st30{mask:url(#mask-2_1_);}
	.st31{filter:url(#Adobe_OpacityMaskFilter_7_);}
	.st32{mask:url(#mask-4_1_);}
	.st33{filter:url(#Adobe_OpacityMaskFilter_8_);}
	.st34{mask:url(#mask-6_1_);}
</style>
<g>
	<g>
		<path class="st1" d="M35,24c-8.4,0-15.3,6.9-15.3,15.3c0,8.4,6.9,15.3,15.3,15.3c0,0,0,0,0,0s0,0,0,0c0,0,0,0,0,0
			c6.5,0,12.1-4.1,14.3-9.9c0.1-0.1,0.1-0.2,0.1-0.3c0,0,0,0,0,0c0.6-1.6,0.9-3.3,0.9-5.1C50.3,30.9,43.4,24,35,24z M48.6,44h-6
			c0.4-1.4,0.6-3,0.6-4.6c0-1.8-0.3-3.4-0.7-4.8h6c0.5,1.5,0.8,3.1,0.8,4.8C49.3,41,49.1,42.5,48.6,44z M27.8,39.4
			c0-1.8,0.3-3.4,0.8-4.8h6V44h-6C28,42.6,27.8,41,27.8,39.4z M35.5,25.7c1.3,1.1,4.1,3.8,5.6,7.8h-5.6V25.7z M34.5,33.5h-5.6
			c1.5-4,4.3-6.7,5.6-7.8V33.5z M34.5,45v8.2c-1.4-1.2-4.2-4-5.7-8.2H34.5z M35.5,45h5.7c-1.5,4.1-4.3,7-5.7,8.2V45z M35.5,44v-9.5
			h6c0.5,1.5,0.8,3.1,0.8,4.8c0,1.7-0.3,3.2-0.7,4.6H35.5z M48.1,33.5h-5.9c-1.5-4.3-4.4-7.1-5.9-8.5C41.6,25.5,46,28.9,48.1,33.5z
			 M33.7,25.1c-1.5,1.3-4.4,4.2-5.9,8.5h-5.9C24,28.9,28.4,25.5,33.7,25.1z M21.5,34.5h6c-0.4,1.5-0.7,3.1-0.7,4.8
			c0,1.7,0.2,3.2,0.6,4.6h-6c-0.5-1.5-0.8-3-0.8-4.6C20.7,37.7,21,36,21.5,34.5z M21.8,45h5.9c1.4,4.3,4.2,7.2,5.8,8.6
			C28.3,53.1,23.8,49.7,21.8,45z M36.5,53.6c1.6-1.4,4.4-4.4,5.8-8.6h5.9C46.2,49.7,41.7,53.1,36.5,53.6z"/>
	</g>
	<g id="XMLID_10_">
		<g>
			<path class="st3" d="M40.6,20.7c0.1,0.1,0.2,0.3,0.1,0.5c-0.1,0.2-0.3,0.3-0.5,0.3H29.8c-0.2,0-0.4-0.1-0.5-0.3
				c-0.1-0.2,0-0.4,0.1-0.5l5.2-5.2c0.2-0.2,0.5-0.2,0.7,0L40.6,20.7z M39,20.6l-4-4l-4,4H39z"/>
			<polygon class="st3" points="35,16.5 39,20.6 31,20.6 			"/>
		</g>
	</g>
</g>
<g>
	<defs>
		<polygon id="SVGID_1_" points="-642.8,2070.3 -642.8,2071.5 -624.9,2071.5 -624.9,2090.3 -623.8,2090.3 -623.8,2070.3 		"/>
	</defs>
	<clipPath id="SVGID_2_">
		<use xlink:href="#SVGID_1_"  style="overflow:visible;"/>
	</clipPath>
	<g class="st10">
		<defs>
			<rect id="SVGID_3_" x="-900.8" y="-2515.7" width="1640" height="5497"/>
		</defs>
		<clipPath id="SVGID_4_">
			<use xlink:href="#SVGID_3_"  style="overflow:visible;"/>
		</clipPath>
	</g>
</g>
<g>
	<defs>
		<polygon id="SVGID_5_" points="-641,2089.3 -641.8,2088.5 -624.6,2070.3 -623.8,2071.2 		"/>
	</defs>
	<clipPath id="SVGID_6_">
		<use xlink:href="#SVGID_5_"  style="overflow:visible;"/>
	</clipPath>
	<g class="st12">
		<defs>
			<rect id="SVGID_7_" x="-900.8" y="-2515.7" width="1640" height="5497"/>
		</defs>
		<clipPath id="SVGID_8_">
			<use xlink:href="#SVGID_7_"  style="overflow:visible;"/>
		</clipPath>
	</g>
</g>
</svg>
