<?xml version="1.0" encoding="utf-8"?>
<!-- Generator: Adobe Illustrator 24.0.0, SVG Export Plug-In . SVG Version: 6.00 Build 0)  -->
<svg version="1.1" id="Layer_1" xmlns="http://www.w3.org/2000/svg" xmlns:xlink="http://www.w3.org/1999/xlink" x="0px" y="0px"
	 viewBox="0 0 70 70" style="enable-background:new 0 0 70 70;" xml:space="preserve">
<style type="text/css">
	.st0{filter:url(#Adobe_OpacityMaskFilter);}
	.st1{fill-rule:evenodd;clip-rule:evenodd;fill:#FFFFFF;}
	.st2{mask:url(#mask-2_2_);fill-rule:evenodd;clip-rule:evenodd;fill:#989898;}
	.st3{fill-rule:evenodd;clip-rule:evenodd;fill:#AFD141;}
	.st4{filter:url(#Adobe_OpacityMaskFilter_1_);}
	.st5{mask:url(#mask-4_2_);fill-rule:evenodd;clip-rule:evenodd;fill:#989898;}
	.st6{fill:#989898;}
	.st7{filter:url(#Adobe_OpacityMaskFilter_2_);}
	.st8{mask:url(#mask-2_6_);fill-rule:evenodd;clip-rule:evenodd;fill:#989898;}
	.st9{fill-rule:evenodd;clip-rule:evenodd;fill:#989898;}
	.st10{filter:url(#Adobe_OpacityMaskFilter_3_);}
	.st11{mask:url(#mask-4_3_);fill-rule:evenodd;clip-rule:evenodd;fill:#AFD141;}
	.st12{filter:url(#Adobe_OpacityMaskFilter_4_);}
	.st13{mask:url(#mask-6_2_);fill-rule:evenodd;clip-rule:evenodd;fill:#989898;}
	.st14{filter:url(#Adobe_OpacityMaskFilter_5_);}
	.st15{mask:url(#mask-2_1_);fill-rule:evenodd;clip-rule:evenodd;fill:#989898;}
	.st16{filter:url(#Adobe_OpacityMaskFilter_6_);}
	.st17{mask:url(#mask-4_1_);fill-rule:evenodd;clip-rule:evenodd;fill:#AFD141;}
	.st18{filter:url(#Adobe_OpacityMaskFilter_7_);}
	.st19{mask:url(#mask-6_1_);fill-rule:evenodd;clip-rule:evenodd;fill:#989898;}
	.st20{filter:url(#Adobe_OpacityMaskFilter_8_);}
	.st21{mask:url(#mask-2_3_);fill-rule:evenodd;clip-rule:evenodd;fill:#989898;}
</style>
<g>
	<defs>
		<filter id="Adobe_OpacityMaskFilter" filterUnits="userSpaceOnUse" x="33.5" y="18.4" width="6.4" height="6.4">
			<feColorMatrix  type="matrix" values="1 0 0 0 0  0 1 0 0 0  0 0 1 0 0  0 0 0 1 0"/>
		</filter>
	</defs>
	<mask maskUnits="userSpaceOnUse" x="33.5" y="18.4" width="6.4" height="6.4" id="mask-2_2_">
		<g class="st0">
			<polygon id="path-1_2_" class="st1" points="33.5,18.4 40,18.4 40,24.8 33.5,24.8 			"/>
		</g>
	</mask>
	<path id="Fill-1_2_" class="st2" d="M36.7,19.7c1,0,1.9,0.8,1.9,1.9c0,1-0.8,1.9-1.9,1.9c-1,0-1.9-0.8-1.9-1.9v0
		C34.9,20.6,35.7,19.7,36.7,19.7 M36.7,24.8c1.8,0,3.2-1.4,3.2-3.2c0-1.8-1.4-3.2-3.2-3.2c-1.8,0-3.2,1.4-3.2,3.2v0
		C33.6,23.4,35,24.8,36.7,24.8"/>
	<path id="Fill-4_2_" class="st3" d="M23.4,47.8c-0.5,0-0.9,0.4-0.9,0.9c0,0.5,0.4,0.9,0.9,0.9c0.5,0,0.9-0.4,0.9-0.9
		C24.3,48.2,23.9,47.8,23.4,47.8"/>
	<path id="Fill-6_1_" class="st3" d="M27.4,47.8c-0.5,0-0.9,0.4-0.9,0.9c0,0.5,0.4,0.9,0.9,0.9c0.5,0,0.9-0.4,0.9-0.9
		C28.3,48.2,27.9,47.8,27.4,47.8"/>
	<path id="Fill-8_1_" class="st3" d="M31.4,47.8c-0.5,0-0.9,0.4-0.9,0.9c0,0.5,0.4,0.9,0.9,0.9c0.5,0,0.9-0.4,0.9-0.9
		C32.3,48.2,31.9,47.8,31.4,47.8L31.4,47.8z"/>
	<path id="Fill-10_1_" class="st3" d="M35.4,47.8c-0.5,0-0.9,0.4-0.9,0.9c0,0.5,0.4,0.9,0.9,0.9c0.5,0,0.9-0.4,0.9-0.9v0
		C36.2,48.2,35.8,47.8,35.4,47.8"/>
	<path id="Fill-12" class="st3" d="M39.3,47.8c-0.5,0-0.9,0.4-0.9,0.9c0,0.5,0.4,0.9,0.9,0.9c0.5,0,0.9-0.4,0.9-0.9v0
		C40.2,48.2,39.8,47.8,39.3,47.8"/>
	<path id="Fill-14" class="st3" d="M31.4,41.8c-0.5,0-0.9,0.4-0.9,0.9c0,0.5,0.4,0.9,0.9,0.9c0.5,0,0.9-0.4,0.9-0.9
		C32.3,42.2,31.9,41.8,31.4,41.8L31.4,41.8z"/>
	<path id="Fill-16" class="st3" d="M35.4,41.8c-0.5,0-0.9,0.4-0.9,0.9c0,0.5,0.4,0.9,0.9,0.9c0.5,0,0.9-0.4,0.9-0.9v0
		C36.2,42.2,35.8,41.8,35.4,41.8"/>
	<path id="Fill-18" class="st3" d="M39.3,41.8c-0.5,0-0.9,0.4-0.9,0.9c0,0.5,0.4,0.9,0.9,0.9c0.5,0,0.9-0.4,0.9-0.9v0
		C40.2,42.2,39.8,41.8,39.3,41.8L39.3,41.8z"/>
	<path id="Fill-20" class="st3" d="M25.4,44.9c-0.5,0-0.9,0.4-0.9,0.9c0,0.5,0.4,0.9,0.9,0.9c0.5,0,0.9-0.4,0.9-0.9v0
		C26.3,45.2,25.9,44.9,25.4,44.9"/>
	<path id="Fill-22" class="st3" d="M29.4,44.9c-0.5,0-0.9,0.4-0.9,0.9c0,0.5,0.4,0.9,0.9,0.9c0.5,0,0.9-0.4,0.9-0.9v0
		C30.3,45.2,29.9,44.9,29.4,44.9"/>
	<path id="Fill-24" class="st3" d="M33.4,44.9c-0.5,0-0.9,0.4-0.9,0.9c0,0.5,0.4,0.9,0.9,0.9c0.5,0,0.9-0.4,0.9-0.9
		C34.2,45.2,33.8,44.9,33.4,44.9"/>
	<path id="Fill-26" class="st3" d="M37.3,44.9c-0.5,0-0.9,0.4-0.9,0.9c0,0.5,0.4,0.9,0.9,0.9c0.5,0,0.9-0.4,0.9-0.9
		C38.2,45.2,37.8,44.9,37.3,44.9"/>
	<path id="Fill-28" class="st3" d="M41.3,44.9c-0.5,0-0.9,0.4-0.9,0.9c0,0.5,0.4,0.9,0.9,0.9c0.5,0,0.9-0.4,0.9-0.9
		C42.2,45.2,41.8,44.9,41.3,44.9"/>
	<defs>
		<filter id="Adobe_OpacityMaskFilter_1_" filterUnits="userSpaceOnUse" x="7.6" y="25.2" width="35.3" height="26.4">
			<feColorMatrix  type="matrix" values="1 0 0 0 0  0 1 0 0 0  0 0 1 0 0  0 0 0 1 0"/>
		</filter>
	</defs>
	<mask maskUnits="userSpaceOnUse" x="7.6" y="25.2" width="35.3" height="26.4" id="mask-4_2_">
		<g class="st4">
			<polygon id="path-3_2_" class="st1" points="7.6,25.2 42.9,25.2 42.9,51.6 7.6,51.6 			"/>
		</g>
	</mask>
	<path id="Fill-30" class="st5" d="M28.1,39.7c-1.9-1-3.9-1.7-6-2.2v-6.1h13.4v6.7v0.1c-0.7,0-1.3,0.1-2,0.2v-2.2
		c0-0.4-0.3-0.7-0.7-0.7s-0.7,0.3-0.7,0.7v2.4v0.1c-0.7,0.1-1.3,0.3-2,0.5v-2.1c0-0.4-0.3-0.7-0.7-0.7c-0.4,0-0.7,0.3-0.7,0.7v2.4
		c0,0,0,0.1,0,0.1l-0.7,0.2C28.1,39.8,28.1,39.8,28.1,39.7L28.1,39.7z M14.5,34.9H18v2.2h-0.6c-1,0-2,0.1-2.9,0.1V34.9z M14.5,33.6
		H18v-2.1h-3.5V33.6z M12,30.8c0-2.4,1.9-4.3,4.3-4.3s4.3,1.9,4.3,4.3v6.5c-0.4-0.1-0.9-0.1-1.4-0.2v-6.4c0-0.4-0.3-0.7-0.7-0.7
		h-4.8c-0.4,0-0.7,0.3-0.7,0.7v6.6c-0.4,0.1-0.8,0.1-1.2,0.2L12,30.8z M31.1,26.5c2.1,0,3.9,1.6,4.3,3.7H22c-0.2-1.4-0.9-2.7-2-3.7
		H31.1z M40.1,38.3L40.1,38.3v-2.5c0-0.4-0.3-0.7-0.7-0.7c-0.4,0-0.7,0.3-0.7,0.7v2.4c-0.5,0-1.1-0.1-1.6-0.1h-0.4v-7.4
		c0-3.1-2.5-5.7-5.7-5.7h-14c-0.1,0-0.1,0-0.2,0c-3.1-0.3-5.9,2-6.2,5.1c0,0.2,0,0.4,0,0.5v7c-1.3,0.3-2.4,0.6-3.1,0.8V40
		c2.2-0.7,4.5-1.1,6.9-1.4c-1.2,0.3-2.5,0.8-4,1.3c-1.1,0.4-2.1,0.8-2.9,1.2v1.5c0.9-0.5,2-1,3.4-1.5c3-1.2,6.2-2,9.3-2.5h0l0.3,0
		c-2.1,0.7-4.2,1.6-6.2,2.6c-2.4,1.2-4.7,2.5-6.8,4.1v1.7c0.2-0.2,2.4-2,7.4-4.6c2.6-1.4,5.4-2.4,8.2-3.2l0.1,0l0.5,0.1
		c-3,1.2-5.8,2.7-8.4,4.7c-4.9,3.7-7.5,7.2-7.6,7.3c0,0.1-0.1,0.1-0.1,0.2h1.6c2.1-2.4,4.4-4.6,6.9-6.5c2.9-2.2,6.2-3.9,9.6-5
		c0.3,0.1,0.6,0.3,0.8,0.4c-4.7,2.2-8.7,5.7-11.3,10.2l-0.5,0.9h1.5l0.2-0.3c5.4-9.1,16.1-13.7,26.4-11.1v-1.4
		C42,38.6,41.1,38.4,40.1,38.3L40.1,38.3z"/>
	<polygon class="st6" points="56.9,32.3 56.4,32.8 61.1,37.6 51.3,37.6 51.3,38.3 61,38.3 56.2,43 56.8,43.5 62.4,37.9 	"/>
</g>
</svg>
