<?xml version="1.0" encoding="utf-8"?>
<!-- Generator: Adobe Illustrator 24.0.0, SVG Export Plug-In . SVG Version: 6.00 Build 0)  -->
<svg version="1.1" id="Layer_1" xmlns="http://www.w3.org/2000/svg" xmlns:xlink="http://www.w3.org/1999/xlink" x="0px" y="0px"
	 viewBox="0 0 70 70" style="enable-background:new 0 0 70 70;" xml:space="preserve">
<style type="text/css">
	.st0{fill:#FF000B;}
	.st1{fill:#989898;}
	.st2{fill:#00B9F1;}
	.st3{fill:#227DBA;}
	.st4{fill:#508D35;}
	.st5{fill:#2CAB9F;}
	.st6{fill:#99D000;}
	.st7{fill:none;stroke:#99D000;stroke-width:0.5743;stroke-miterlimit:10;}
	.st8{fill:none;stroke:#2CAB9F;stroke-width:2.474;stroke-linecap:round;stroke-linejoin:round;stroke-miterlimit:10;}
	.st9{fill:#FFFFFF;}
	.st10{clip-path:url(#SVGID_2_);}
	.st11{clip-path:url(#SVGID_4_);}
	.st12{clip-path:url(#SVGID_6_);}
	.st13{clip-path:url(#SVGID_8_);}
	.st14{filter:url(#Adobe_OpacityMaskFilter);}
	.st15{fill-rule:evenodd;clip-rule:evenodd;fill:#FFFFFF;}
	.st16{mask:url(#mask-2_4_);}
	.st17{fill-rule:evenodd;clip-rule:evenodd;fill:#989898;}
	.st18{filter:url(#Adobe_OpacityMaskFilter_1_);}
	.st19{mask:url(#mask-4_3_);}
	.st20{fill-rule:evenodd;clip-rule:evenodd;fill:#AFD141;}
	.st21{filter:url(#Adobe_OpacityMaskFilter_2_);}
	.st22{mask:url(#mask-6_2_);}
	.st23{filter:url(#Adobe_OpacityMaskFilter_3_);}
	.st24{mask:url(#mask-2_3_);}
	.st25{filter:url(#Adobe_OpacityMaskFilter_4_);}
	.st26{mask:url(#mask-2_2_);}
	.st27{filter:url(#Adobe_OpacityMaskFilter_5_);}
	.st28{mask:url(#mask-4_2_);}
	.st29{filter:url(#Adobe_OpacityMaskFilter_6_);}
	.st30{mask:url(#mask-2_1_);}
	.st31{filter:url(#Adobe_OpacityMaskFilter_7_);}
	.st32{mask:url(#mask-4_1_);}
	.st33{filter:url(#Adobe_OpacityMaskFilter_8_);}
	.st34{mask:url(#mask-6_1_);}
</style>
<g>
	<path class="st2" d="M17.6,47.5c0.1,0,0.2,0,0.3-0.1c0.2-0.2,0.3-0.5,0.1-0.8c-2.3-3.4-3.5-7.4-3.5-11.5c0-11.4,9.3-20.6,20.6-20.6
		c4.6,0,9.1,1.5,12.7,4.4l-3,0c-0.3,0-0.5,0.2-0.5,0.5c0,0.3,0.2,0.5,0.5,0.5c0,0,0,0,0,0l4.5,0c0.3,0,0.5-0.2,0.5-0.5l0-4.6
		c0-0.3-0.2-0.5-0.5-0.5c0,0,0,0,0,0c-0.3,0-0.5,0.2-0.5,0.5l0,3.4c-3.9-3.1-8.7-4.8-13.6-4.8c-12,0-21.7,9.7-21.7,21.7
		c0,4.4,1.3,8.6,3.7,12.1C17.3,47.4,17.4,47.5,17.6,47.5z"/>
</g>
<g>
	<path class="st2" d="M53.2,23c-0.2-0.2-0.5-0.3-0.8-0.1c-0.2,0.2-0.3,0.5-0.1,0.8c2.3,3.4,3.5,7.4,3.5,11.5
		c0,11.4-9.3,20.6-20.6,20.6c-4.8,0-9.4-1.6-13.1-4.7l3.1,0c0.3,0,0.5-0.2,0.5-0.5c0-0.3-0.2-0.5-0.5-0.5c0,0,0,0,0,0l-4.5,0
		c-0.3,0-0.5,0.2-0.5,0.5l0,4.6c0,0.3,0.2,0.5,0.5,0.5c0,0,0,0,0,0c0.3,0,0.5-0.2,0.5-0.5l0-3.3c3.9,3.3,8.8,5,13.9,5
		c12,0,21.7-9.7,21.7-21.7C56.9,30.7,55.6,26.5,53.2,23z"/>
</g>
<g>
	<path class="st1" d="M35.5,21.5c-0.2-0.1-0.5-0.1-0.6,0.1c-0.4,0.4-9.6,8.9-9.6,15.1c0,5,4.1,9.1,9.2,9.5c0.2,0,0.4,0,0.6,0
		c0,0,0,0,0.1,0c0,0,0,0,0.1,0c5.4,0,9.9-4.3,10-9.5c0.1-5.7-4.1-10.2-4.3-10.4c-0.2-0.2-0.5-0.2-0.7-0.1c-1.1,0.7-2.5,1.4-3.4,0.8
		c-1.3-0.8-1.2-3.9-1-5C35.9,21.8,35.7,21.6,35.5,21.5z M30.8,41c0-1.8,2.8-5.6,4.3-7.4c1.5,1.8,4.3,5.6,4.3,7.4
		c0,2.3-1.9,4.1-4.3,4.1c-0.2,0-0.4,0-0.6,0C32.5,44.9,30.8,43.2,30.8,41z M36.3,28c1,0.7,2.4,0.5,4.2-0.5c0.9,1.1,3.8,4.9,3.7,9.3
		c0,3.3-1.9,6.1-4.7,7.5c0.7-0.9,1.1-2,1.1-3.1c0-2.7-4.5-8-5-8.6c-0.2-0.2-0.6-0.2-0.8,0c-0.5,0.6-5,5.9-5,8.6c0,1,0.3,2,0.9,2.8
		c-2.5-1.5-4.2-4.2-4.2-7.2c0-4.6,5.9-10.9,8.3-13.3C34.6,24.9,34.9,27.1,36.3,28z"/>
</g>
<g>
	<defs>
		<polygon id="SVGID_1_" points="-319.4,2225.3 -319.4,2226.4 -301.5,2226.4 -301.5,2245.3 -300.4,2245.3 -300.4,2225.3 		"/>
	</defs>
	<clipPath id="SVGID_2_">
		<use xlink:href="#SVGID_1_"  style="overflow:visible;"/>
	</clipPath>
	<g class="st10">
		<defs>
			<rect id="SVGID_3_" x="-577.4" y="-2360.7" width="1640" height="5497"/>
		</defs>
		<clipPath id="SVGID_4_">
			<use xlink:href="#SVGID_3_"  style="overflow:visible;"/>
		</clipPath>
	</g>
</g>
<g>
	<defs>
		<polygon id="SVGID_5_" points="-317.6,2244.3 -318.4,2243.5 -301.2,2225.3 -300.4,2226.1 		"/>
	</defs>
	<clipPath id="SVGID_6_">
		<use xlink:href="#SVGID_5_"  style="overflow:visible;"/>
	</clipPath>
	<g class="st12">
		<defs>
			<rect id="SVGID_7_" x="-577.4" y="-2360.7" width="1640" height="5497"/>
		</defs>
		<clipPath id="SVGID_8_">
			<use xlink:href="#SVGID_7_"  style="overflow:visible;"/>
		</clipPath>
	</g>
</g>
</svg>
