<?xml version="1.0" encoding="utf-8"?>
<!-- Generator: Adobe Illustrator 24.0.0, SVG Export Plug-In . SVG Version: 6.00 Build 0)  -->
<svg version="1.1" id="Layer_1" xmlns="http://www.w3.org/2000/svg" xmlns:xlink="http://www.w3.org/1999/xlink" x="0px" y="0px"
	 viewBox="0 0 70 70" style="enable-background:new 0 0 70 70;" xml:space="preserve">
<style type="text/css">
	.st0{fill:#FF000B;}
	.st1{fill:#989898;}
	.st2{fill:#00B9F1;}
	.st3{fill:#227DBA;}
	.st4{fill:#508D35;}
	.st5{fill:#2CAB9F;}
	.st6{fill:#99D000;}
	.st7{fill:none;stroke:#99D000;stroke-width:0.5743;stroke-miterlimit:10;}
	.st8{fill:none;stroke:#2CAB9F;stroke-width:2.474;stroke-linecap:round;stroke-linejoin:round;stroke-miterlimit:10;}
	.st9{fill:#FFFFFF;}
	.st10{clip-path:url(#SVGID_2_);}
	.st11{clip-path:url(#SVGID_4_);}
	.st12{clip-path:url(#SVGID_6_);}
	.st13{clip-path:url(#SVGID_8_);}
	.st14{filter:url(#Adobe_OpacityMaskFilter);}
	.st15{fill-rule:evenodd;clip-rule:evenodd;fill:#FFFFFF;}
	.st16{mask:url(#mask-2_4_);}
	.st17{fill-rule:evenodd;clip-rule:evenodd;fill:#989898;}
	.st18{filter:url(#Adobe_OpacityMaskFilter_1_);}
	.st19{mask:url(#mask-4_3_);}
	.st20{fill-rule:evenodd;clip-rule:evenodd;fill:#AFD141;}
	.st21{filter:url(#Adobe_OpacityMaskFilter_2_);}
	.st22{mask:url(#mask-6_2_);}
	.st23{filter:url(#Adobe_OpacityMaskFilter_3_);}
	.st24{mask:url(#mask-2_3_);}
	.st25{filter:url(#Adobe_OpacityMaskFilter_4_);}
	.st26{mask:url(#mask-2_2_);}
	.st27{filter:url(#Adobe_OpacityMaskFilter_5_);}
	.st28{mask:url(#mask-4_2_);}
	.st29{filter:url(#Adobe_OpacityMaskFilter_6_);}
	.st30{mask:url(#mask-2_1_);}
	.st31{filter:url(#Adobe_OpacityMaskFilter_7_);}
	.st32{mask:url(#mask-4_1_);}
	.st33{filter:url(#Adobe_OpacityMaskFilter_8_);}
	.st34{mask:url(#mask-6_1_);}
</style>
<g>
	<g>
		<path class="st1" d="M39.4,25.1c-1.6-0.7-3.3-0.2-4.4,1.2c-1.1-1.4-2.8-1.9-4.4-1.2c-1.6,0.7-3,2.5-2.4,5.2c1,4.4,6.5,6.7,6.7,6.7
			c0.1,0,0.1,0,0.2,0s0.1,0,0.2,0c0.2-0.1,5.7-2.4,6.7-6.7C42.5,27.6,41,25.7,39.4,25.1z M41,30.1c-0.8,3.5-5.1,5.6-6,6
			c-0.9-0.4-5.2-2.5-6-6c-0.5-2.1,0.7-3.6,1.9-4.1c0.3-0.1,0.7-0.2,1.1-0.2c0.9,0,1.9,0.4,2.6,1.6c0.2,0.3,0.6,0.3,0.8,0
			c1.1-1.7,2.6-1.9,3.7-1.4C40.3,26.4,41.5,27.9,41,30.1z"/>
	</g>
	<g>
		<path class="st3" d="M26.7,26l-2.4-1.5c-0.2-0.1-0.5-0.1-0.6,0.1c-0.1,0.2-0.1,0.5,0.1,0.6l2.4,1.5c0.1,0,0.2,0.1,0.2,0.1
			c0.1,0,0.3-0.1,0.4-0.2C27,26.4,26.9,26.1,26.7,26z"/>
	</g>
	<g>
		<path class="st3" d="M26.4,30.5c0-0.2-0.2-0.4-0.4-0.4h-2.7c-0.2,0-0.4,0.2-0.4,0.4s0.2,0.4,0.4,0.4H26
			C26.2,30.9,26.4,30.7,26.4,30.5z"/>
	</g>
	<g>
		<path class="st3" d="M26.2,34.2l-2.4,1.5c-0.2,0.1-0.3,0.4-0.1,0.6c0.1,0.1,0.2,0.2,0.4,0.2c0.1,0,0.2,0,0.2-0.1l2.4-1.5
			c0.2-0.1,0.3-0.4,0.1-0.6C26.7,34.1,26.4,34.1,26.2,34.2z"/>
	</g>
	<g>
		<path class="st3" d="M46.1,35.7l-2.4-1.5c-0.2-0.1-0.5-0.1-0.6,0.1c-0.1,0.2-0.1,0.5,0.1,0.6l2.4,1.5c0.1,0,0.2,0.1,0.2,0.1
			c0.1,0,0.3-0.1,0.4-0.2C46.4,36.2,46.3,35.9,46.1,35.7z"/>
	</g>
	<g>
		<path class="st3" d="M46.7,30H44c-0.2,0-0.4,0.2-0.4,0.4s0.2,0.4,0.4,0.4h2.7c0.2,0,0.4-0.2,0.4-0.4S47,30,46.7,30z"/>
	</g>
	<g>
		<path class="st3" d="M43.6,26.8c0.1,0,0.2,0,0.2-0.1l2.4-1.5c0.2-0.1,0.3-0.4,0.1-0.6c-0.1-0.2-0.4-0.3-0.6-0.1L43.3,26
			c-0.2,0.1-0.3,0.4-0.1,0.6C43.3,26.7,43.4,26.8,43.6,26.8z"/>
	</g>
	<g>
		<path class="st1" d="M40.2,17.2H29.8c-6.9,0-12.6,5.6-12.6,12.6V31c0,6.9,5.6,12.6,12.6,12.6h3.8c0.7,2.7,2.6,7.3,8.2,9.2
			c0,0,0.1,0,0.1,0c0.1,0,0.2-0.1,0.3-0.1c0.1-0.1,0.1-0.3,0.1-0.5c0,0-1.7-3.5-1.7-8.6c6.7-0.2,12.1-5.8,12.1-12.5v-1.2
			C52.8,22.9,47.1,17.2,40.2,17.2z M51.9,31c0,6.4-5.2,11.7-11.7,11.7c-0.2,0-0.4,0.2-0.4,0.4c-0.1,4,0.8,7,1.3,8.5
			c-4.7-2.1-6.3-6.2-6.8-8.6c0-0.2-0.2-0.4-0.4-0.4h-4.1c-6.4,0-11.7-5.2-11.7-11.7v-1.2c0-6.4,5.2-11.7,11.7-11.7h10.4
			c6.4,0,11.7,5.2,11.7,11.7V31z"/>
	</g>
</g>
<g>
	<defs>
		<polygon id="SVGID_1_" points="-852.9,2070.3 -852.9,2071.5 -835,2071.5 -835,2090.3 -833.9,2090.3 -833.9,2070.3 		"/>
	</defs>
	<clipPath id="SVGID_2_">
		<use xlink:href="#SVGID_1_"  style="overflow:visible;"/>
	</clipPath>
	<g class="st10">
		<defs>
			<rect id="SVGID_3_" x="-1110.9" y="-2515.7" width="1640" height="5497"/>
		</defs>
		<clipPath id="SVGID_4_">
			<use xlink:href="#SVGID_3_"  style="overflow:visible;"/>
		</clipPath>
	</g>
</g>
<g>
	<defs>
		<polygon id="SVGID_5_" points="-851.1,2089.3 -851.9,2088.5 -834.6,2070.3 -833.9,2071.2 		"/>
	</defs>
	<clipPath id="SVGID_6_">
		<use xlink:href="#SVGID_5_"  style="overflow:visible;"/>
	</clipPath>
	<g class="st12">
		<defs>
			<rect id="SVGID_7_" x="-1110.9" y="-2515.7" width="1640" height="5497"/>
		</defs>
		<clipPath id="SVGID_8_">
			<use xlink:href="#SVGID_7_"  style="overflow:visible;"/>
		</clipPath>
	</g>
</g>
</svg>
