<?xml version="1.0" encoding="utf-8"?>
<!-- Generator: Adobe Illustrator 24.0.0, SVG Export Plug-In . SVG Version: 6.00 Build 0)  -->
<svg version="1.1" id="Layer_1" xmlns="http://www.w3.org/2000/svg" xmlns:xlink="http://www.w3.org/1999/xlink" x="0px" y="0px"
	 viewBox="0 0 70 70" style="enable-background:new 0 0 70 70;" xml:space="preserve">
<style type="text/css">
	.st0{fill:#99D000;stroke:#99D000;stroke-width:0.23;stroke-miterlimit:10;}
	.st1{fill:#989898;stroke:#989898;stroke-width:0.23;stroke-miterlimit:10;}
</style>
<title>SCG-Residual-Impact</title>
<path class="st0" d="M35.2,25c-0.1-0.1-0.4-0.1-0.5,0c0,0,0,0,0,0c-0.3,0.2-6.3,6-6.3,11c-0.1,3.5,2.7,6.5,6.2,6.7v1.9
	c0,0.2,0.2,0.4,0.4,0.4s0.4-0.2,0.4-0.4v-1.9c3.5-0.3,6.2-3.2,6.2-6.7C41.5,31.2,35.5,25.3,35.2,25z M40.5,34.1L35.4,39v-4.8
	l3.6-3.4C39.6,31.9,40.1,33,40.5,34.1z M31,30.8l3.6,3.4V39l-5.2-4.9C29.8,33,30.3,31.8,31,30.8z M35.3,33.2v-7
	c1.2,1.2,2.2,2.6,3.2,4L35.3,33.2z M34.6,26.2v7.1l-3.2-3.1C32.4,28.7,33.4,27.4,34.6,26.2L34.6,26.2z M29.2,36c0-0.4,0-0.7,0.1-1.1
	l5.3,5.1v2C31.5,41.8,29.2,39.2,29.2,36z M35.4,42.1v-2l5.3-5.1c0.1,0.4,0.1,0.7,0.1,1.1C40.8,39.2,38.5,41.8,35.4,42.1z"/>
<path class="st1" d="M52,19c0-0.3-0.2-0.5-0.5-0.5c0,0,0,0,0,0h-4.2c-9.1-6.8-22-4.9-28.7,4.2c-6.5,8.7-5.1,20.9,3.1,27.9h-3
	c-0.3-0.1-0.6,0.1-0.6,0.4c-0.1,0.3,0.1,0.6,0.4,0.6c0.1,0,0.2,0,0.3,0H23c9.3,6.5,22.1,4.3,28.6-4.9c6-8.5,4.7-20.2-3.1-27.2h3
	C51.8,19.5,52,19.3,52,19z M54.5,35c0,10.8-8.7,19.5-19.5,19.5c-4.1,0-8.1-1.3-11.4-3.7v-4.2c-0.1-0.3-0.4-0.4-0.6-0.4
	c-0.2,0-0.3,0.2-0.4,0.4V50c-8.3-6.8-9.5-19.1-2.7-27.4c6.6-8,18.2-9.5,26.6-3.4v4.3c-0.1,0.3,0.1,0.6,0.4,0.6
	c0.3,0.1,0.6-0.1,0.6-0.4c0-0.1,0-0.2,0-0.3V20C51.9,23.7,54.5,29.2,54.5,35L54.5,35z"/>
</svg>
