<?xml version="1.0" encoding="utf-8"?>
<!-- Generator: Adobe Illustrator 24.0.0, SVG Export Plug-In . SVG Version: 6.00 Build 0)  -->
<svg version="1.1" id="Layer_1" xmlns="http://www.w3.org/2000/svg" xmlns:xlink="http://www.w3.org/1999/xlink" x="0px" y="0px"
	 viewBox="0 0 70 70" style="enable-background:new 0 0 70 70;" xml:space="preserve">
<style type="text/css">
	.st0{fill:#989898;stroke:#989898;stroke-width:0.22;stroke-miterlimit:10;}
	.st1{fill:#99D000;stroke:#99D000;stroke-width:0.23;stroke-miterlimit:10;}
</style>
<title>SCG-Energy-Efficient</title>
<path class="st0" d="M14.2,33.5c0.2,0.2,0.5,0.2,0.7,0c0,0,0,0,0,0l3.1-2.8v24.8c0,0.3,0.2,0.5,0.5,0.5h32.8c0.3,0,0.5-0.2,0.5-0.5
	V30.7l3.3,3c0.1,0.1,0.2,0.1,0.3,0.1c0.3,0,0.5-0.2,0.5-0.5c0-0.2-0.1-0.3-0.2-0.4L49.3,27V16.2c0-0.3-0.2-0.5-0.5-0.5l0,0h-6.5
	c-0.3,0-0.5,0.2-0.5,0.5l0,0v3.9l-6.5-5.9c-0.2-0.2-0.5-0.2-0.7,0L14.2,32.8C14,33,14,33.3,14.2,33.5C14.2,33.5,14.2,33.5,14.2,33.5
	z M42.8,16.7h5.5v9.4l-5.5-5V16.7z M34.9,15.3l15.8,14.5v25.2H19.1V29.8L34.9,15.3z"/>
<path class="st1" d="M23.2,38.4c0,5.8,4.4,10.7,10.2,11.3h0.1c0.3-0.1,0.4-0.4,0.3-0.7c-0.1-0.2-0.2-0.3-0.3-0.3
	c-5.7-0.6-9.8-5.7-9.2-11.3c0.5-4.7,4-8.4,8.7-9.1L32.2,29c-0.2,0.2-0.2,0.5,0,0.7c0.1,0.1,0.2,0.1,0.4,0.2c0.1,0,0.3-0.1,0.4-0.2
	l1.7-1.7c0.2-0.2,0.2-0.5,0-0.7L33,25.5c-0.2-0.2-0.5-0.2-0.8,0c-0.2,0.2-0.2,0.5,0,0.7l0.9,0.9C27.4,27.9,23.2,32.7,23.2,38.4z"/>
<path class="st1" d="M36.5,28.1c5.7,0.6,9.8,5.7,9.2,11.3c-0.5,4.7-4,8.4-8.7,9.1l0.7-0.7c0.2-0.2,0.2-0.5,0-0.7
	c-0.2-0.2-0.5-0.2-0.7,0c0,0,0,0,0,0l-1.7,1.7c-0.2,0.2-0.2,0.5,0,0.7l1.7,1.7c0.1,0.1,0.2,0.2,0.4,0.2c0.1,0,0.3-0.1,0.4-0.2
	c0.2-0.2,0.2-0.5,0-0.7l-0.9-0.9c6.2-0.8,10.6-6.5,9.8-12.7c-0.7-5.2-4.8-9.3-10.1-9.8c-0.3-0.1-0.6,0-0.7,0.3
	c-0.1,0.3,0,0.6,0.3,0.7C36.3,28.1,36.4,28.1,36.5,28.1L36.5,28.1z"/>
</svg>
