<?xml version="1.0" encoding="utf-8"?>
<!-- Generator: Adobe Illustrator 24.0.0, SVG Export Plug-In . SVG Version: 6.00 Build 0)  -->
<svg version="1.1" id="Layer_1" xmlns="http://www.w3.org/2000/svg" xmlns:xlink="http://www.w3.org/1999/xlink" x="0px" y="0px"
	 viewBox="0 0 70 70" style="enable-background:new 0 0 70 70;" xml:space="preserve">
<style type="text/css">
	.st0{filter:url(#Adobe_OpacityMaskFilter);}
	.st1{fill-rule:evenodd;clip-rule:evenodd;fill:#FFFFFF;}
	.st2{mask:url(#mask-2_2_);fill-rule:evenodd;clip-rule:evenodd;fill:#989898;}
	.st3{fill-rule:evenodd;clip-rule:evenodd;fill:#AFD141;}
	.st4{filter:url(#Adobe_OpacityMaskFilter_1_);}
	.st5{mask:url(#mask-4_2_);fill-rule:evenodd;clip-rule:evenodd;fill:#989898;}
	.st6{fill:#989898;}
	.st7{filter:url(#Adobe_OpacityMaskFilter_2_);}
	.st8{mask:url(#mask-2_6_);fill-rule:evenodd;clip-rule:evenodd;fill:#989898;}
	.st9{fill-rule:evenodd;clip-rule:evenodd;fill:#989898;}
	.st10{filter:url(#Adobe_OpacityMaskFilter_3_);}
	.st11{mask:url(#mask-4_3_);fill-rule:evenodd;clip-rule:evenodd;fill:#AFD141;}
	.st12{filter:url(#Adobe_OpacityMaskFilter_4_);}
	.st13{mask:url(#mask-6_2_);fill-rule:evenodd;clip-rule:evenodd;fill:#989898;}
	.st14{filter:url(#Adobe_OpacityMaskFilter_5_);}
	.st15{mask:url(#mask-2_1_);fill-rule:evenodd;clip-rule:evenodd;fill:#989898;}
	.st16{filter:url(#Adobe_OpacityMaskFilter_6_);}
	.st17{mask:url(#mask-4_1_);fill-rule:evenodd;clip-rule:evenodd;fill:#AFD141;}
	.st18{filter:url(#Adobe_OpacityMaskFilter_7_);}
	.st19{mask:url(#mask-6_1_);fill-rule:evenodd;clip-rule:evenodd;fill:#989898;}
	.st20{filter:url(#Adobe_OpacityMaskFilter_8_);}
	.st21{mask:url(#mask-2_3_);fill-rule:evenodd;clip-rule:evenodd;fill:#989898;}
	.st22{filter:url(#Adobe_OpacityMaskFilter_9_);}
	.st23{mask:url(#mask-2_8_);fill-rule:evenodd;clip-rule:evenodd;fill:#989898;}
	.st24{filter:url(#Adobe_OpacityMaskFilter_10_);}
	.st25{mask:url(#mask-4_6_);fill-rule:evenodd;clip-rule:evenodd;fill:#989898;}
	.st26{filter:url(#Adobe_OpacityMaskFilter_11_);}
	.st27{mask:url(#mask-2_7_);fill-rule:evenodd;clip-rule:evenodd;fill:#989898;}
	.st28{filter:url(#Adobe_OpacityMaskFilter_12_);}
	.st29{mask:url(#mask-4_5_);fill-rule:evenodd;clip-rule:evenodd;fill:#AFD141;}
	.st30{filter:url(#Adobe_OpacityMaskFilter_13_);}
	.st31{mask:url(#mask-6_4_);fill-rule:evenodd;clip-rule:evenodd;fill:#989898;}
	.st32{filter:url(#Adobe_OpacityMaskFilter_14_);}
	.st33{mask:url(#mask-2_5_);fill-rule:evenodd;clip-rule:evenodd;fill:#989898;}
	.st34{filter:url(#Adobe_OpacityMaskFilter_15_);}
	.st35{mask:url(#mask-4_4_);fill-rule:evenodd;clip-rule:evenodd;fill:#AFD141;}
	.st36{filter:url(#Adobe_OpacityMaskFilter_16_);}
	.st37{mask:url(#mask-6_3_);fill-rule:evenodd;clip-rule:evenodd;fill:#989898;}
	.st38{filter:url(#Adobe_OpacityMaskFilter_17_);}
	.st39{mask:url(#mask-2_4_);fill-rule:evenodd;clip-rule:evenodd;fill:#989898;}
</style>
<g>
	<defs>
		<filter id="Adobe_OpacityMaskFilter" filterUnits="userSpaceOnUse" x="43.3" y="8.4" width="6.4" height="6.4">
			<feColorMatrix  type="matrix" values="1 0 0 0 0  0 1 0 0 0  0 0 1 0 0  0 0 0 1 0"/>
		</filter>
	</defs>
	<mask maskUnits="userSpaceOnUse" x="43.3" y="8.4" width="6.4" height="6.4" id="mask-2_2_">
		<g class="st0">
			<polygon id="path-1_2_" class="st1" points="43.3,8.4 49.7,8.4 49.7,14.8 43.3,14.8 			"/>
		</g>
	</mask>
	<path id="Fill-1_2_" class="st2" d="M46.5,9.7c1,0,1.9,0.8,1.9,1.9c0,1-0.8,1.9-1.9,1.9c-1,0-1.9-0.8-1.9-1.9v0
		C44.6,10.6,45.5,9.7,46.5,9.7 M46.5,14.8c1.8,0,3.2-1.4,3.2-3.2c0-1.8-1.4-3.2-3.2-3.2c-1.8,0-3.2,1.4-3.2,3.2v0
		C43.3,13.4,44.7,14.8,46.5,14.8"/>
	<path id="Fill-4_2_" class="st3" d="M33.2,37.8c-0.5,0-0.9,0.4-0.9,0.9c0,0.5,0.4,0.9,0.9,0.9c0.5,0,0.9-0.4,0.9-0.9
		C34.1,38.2,33.7,37.8,33.2,37.8"/>
	<path id="Fill-6_1_" class="st3" d="M37.2,37.8c-0.5,0-0.9,0.4-0.9,0.9c0,0.5,0.4,0.9,0.9,0.9c0.5,0,0.9-0.4,0.9-0.9
		C38,38.2,37.7,37.8,37.2,37.8"/>
	<path id="Fill-8_1_" class="st3" d="M41.2,37.8c-0.5,0-0.9,0.4-0.9,0.9c0,0.5,0.4,0.9,0.9,0.9c0.5,0,0.9-0.4,0.9-0.9
		C42,38.2,41.6,37.8,41.2,37.8L41.2,37.8z"/>
	<path id="Fill-10_1_" class="st3" d="M45.1,37.8c-0.5,0-0.9,0.4-0.9,0.9c0,0.5,0.4,0.9,0.9,0.9c0.5,0,0.9-0.4,0.9-0.9v0
		C46,38.2,45.6,37.8,45.1,37.8"/>
	<path id="Fill-12" class="st3" d="M49.1,37.8c-0.5,0-0.9,0.4-0.9,0.9c0,0.5,0.4,0.9,0.9,0.9c0.5,0,0.9-0.4,0.9-0.9v0
		C50,38.2,49.6,37.8,49.1,37.8"/>
	<path id="Fill-14" class="st3" d="M41.2,31.8c-0.5,0-0.9,0.4-0.9,0.9c0,0.5,0.4,0.9,0.9,0.9c0.5,0,0.9-0.4,0.9-0.9
		C42,32.2,41.6,31.8,41.2,31.8L41.2,31.8z"/>
	<path id="Fill-16" class="st3" d="M45.1,31.8c-0.5,0-0.9,0.4-0.9,0.9c0,0.5,0.4,0.9,0.9,0.9c0.5,0,0.9-0.4,0.9-0.9v0
		C46,32.2,45.6,31.8,45.1,31.8"/>
	<path id="Fill-18" class="st3" d="M49.1,31.8c-0.5,0-0.9,0.4-0.9,0.9c0,0.5,0.4,0.9,0.9,0.9c0.5,0,0.9-0.4,0.9-0.9v0
		C50,32.2,49.6,31.8,49.1,31.8L49.1,31.8z"/>
	<path id="Fill-20" class="st3" d="M35.2,34.9c-0.5,0-0.9,0.4-0.9,0.9c0,0.5,0.4,0.9,0.9,0.9c0.5,0,0.9-0.4,0.9-0.9v0
		C36,35.2,35.7,34.9,35.2,34.9"/>
	<path id="Fill-22" class="st3" d="M39.2,34.9c-0.5,0-0.9,0.4-0.9,0.9c0,0.5,0.4,0.9,0.9,0.9c0.5,0,0.9-0.4,0.9-0.9v0
		C40,35.2,39.6,34.9,39.2,34.9"/>
	<path id="Fill-24" class="st3" d="M43.1,34.9c-0.5,0-0.9,0.4-0.9,0.9c0,0.5,0.4,0.9,0.9,0.9c0.5,0,0.9-0.4,0.9-0.9
		C44,35.2,43.6,34.9,43.1,34.9"/>
	<path id="Fill-26" class="st3" d="M47.1,34.9c-0.5,0-0.9,0.4-0.9,0.9c0,0.5,0.4,0.9,0.9,0.9c0.5,0,0.9-0.4,0.9-0.9
		C48,35.2,47.6,34.9,47.1,34.9"/>
	<path id="Fill-28" class="st3" d="M51.1,34.9c-0.5,0-0.9,0.4-0.9,0.9c0,0.5,0.4,0.9,0.9,0.9c0.5,0,0.9-0.4,0.9-0.9
		C51.9,35.2,51.6,34.9,51.1,34.9"/>
	<defs>
		<filter id="Adobe_OpacityMaskFilter_1_" filterUnits="userSpaceOnUse" x="17.3" y="15.2" width="35.3" height="26.4">
			<feColorMatrix  type="matrix" values="1 0 0 0 0  0 1 0 0 0  0 0 1 0 0  0 0 0 1 0"/>
		</filter>
	</defs>
	<mask maskUnits="userSpaceOnUse" x="17.3" y="15.2" width="35.3" height="26.4" id="mask-4_2_">
		<g class="st4">
			<polygon id="path-3_2_" class="st1" points="17.3,15.2 52.7,15.2 52.7,41.6 17.3,41.6 			"/>
		</g>
	</mask>
	<path id="Fill-30" class="st5" d="M37.8,29.7c-1.9-1-3.9-1.7-6-2.2v-6.1h13.4v6.7v0.1c-0.7,0-1.3,0.1-2,0.2v-2.2
		c0-0.4-0.3-0.7-0.7-0.7s-0.7,0.3-0.7,0.7v2.4v0.1c-0.7,0.1-1.3,0.3-2,0.5v-2.1c0-0.4-0.3-0.7-0.7-0.7c-0.4,0-0.7,0.3-0.7,0.7v2.4
		c0,0,0,0.1,0,0.1l-0.7,0.2C37.9,29.8,37.9,29.8,37.8,29.7L37.8,29.7z M24.3,24.9h3.5v2.2h-0.6c-1,0-2,0.1-2.9,0.1V24.9z M24.3,23.6
		h3.5v-2.1h-3.5V23.6z M21.8,20.8c0-2.4,1.9-4.3,4.3-4.3s4.3,1.9,4.3,4.3v6.5c-0.4-0.1-0.9-0.1-1.4-0.2v-6.4c0-0.4-0.3-0.7-0.7-0.7
		h-4.8c-0.4,0-0.7,0.3-0.7,0.7v6.6c-0.4,0.1-0.8,0.1-1.2,0.2L21.8,20.8z M40.9,16.5c2.1,0,3.9,1.6,4.3,3.7H31.8
		c-0.2-1.4-0.9-2.7-2-3.7H40.9z M49.9,28.3L49.9,28.3v-2.5c0-0.4-0.3-0.7-0.7-0.7s-0.7,0.3-0.7,0.7v2.4c-0.5,0-1.1-0.1-1.6-0.1h-0.4
		v-7.4c0-3.1-2.5-5.7-5.7-5.7h-14c-0.1,0-0.1,0-0.2,0c-3.1-0.3-5.9,2-6.2,5.1c0,0.2,0,0.4,0,0.5v7c-1.3,0.3-2.4,0.6-3.1,0.8V30
		c2.2-0.7,4.5-1.1,6.9-1.4c-1.2,0.3-2.5,0.8-4,1.3c-1.1,0.4-2.1,0.8-2.9,1.2v1.5c0.9-0.5,2-1,3.4-1.5c3-1.2,6.2-2,9.3-2.5h0l0.3,0
		c-2.1,0.7-4.2,1.6-6.2,2.6c-2.4,1.2-4.7,2.5-6.8,4.1v1.7c0.2-0.2,2.4-2,7.4-4.6c2.6-1.4,5.4-2.4,8.2-3.2l0.1,0l0.5,0.1
		c-3,1.2-5.8,2.7-8.4,4.7c-4.9,3.7-7.5,7.2-7.6,7.3c0,0.1-0.1,0.1-0.1,0.2H19c2.1-2.4,4.4-4.6,6.9-6.5c2.9-2.2,6.2-3.9,9.6-5
		c0.3,0.1,0.6,0.3,0.8,0.4c-4.7,2.2-8.7,5.7-11.3,10.2l-0.5,0.9h1.5l0.2-0.3c5.4-9.1,16.1-13.7,26.4-11.1v-1.4
		C51.7,28.6,50.8,28.4,49.9,28.3L49.9,28.3z"/>
</g>
<polygon class="st6" points="40.6,55.1 40.1,54.5 35.4,59.3 35.4,49.4 34.6,49.4 34.6,59.1 29.9,54.4 29.4,54.9 35.1,60.6 "/>
</svg>
