<?xml version="1.0" encoding="utf-8"?>
<!-- Generator: Adobe Illustrator 24.0.0, SVG Export Plug-In . SVG Version: 6.00 Build 0)  -->
<svg version="1.1" id="Layer_1" xmlns="http://www.w3.org/2000/svg" xmlns:xlink="http://www.w3.org/1999/xlink" x="0px" y="0px"
	 viewBox="0 0 70 70" style="enable-background:new 0 0 70 70;" xml:space="preserve">
<style type="text/css">
	.st0{fill:#FF000B;}
	.st1{fill:#989898;}
	.st2{fill:#00B9F1;}
	.st3{fill:#227DBA;}
	.st4{fill:#508D35;}
	.st5{fill:#2CAB9F;}
	.st6{fill:#99D000;}
	.st7{fill:none;stroke:#99D000;stroke-width:0.5743;stroke-miterlimit:10;}
	.st8{fill:none;stroke:#2CAB9F;stroke-width:2.474;stroke-linecap:round;stroke-linejoin:round;stroke-miterlimit:10;}
	.st9{fill:#FFFFFF;}
	.st10{clip-path:url(#SVGID_2_);}
	.st11{clip-path:url(#SVGID_4_);}
	.st12{clip-path:url(#SVGID_6_);}
	.st13{clip-path:url(#SVGID_8_);}
	.st14{filter:url(#Adobe_OpacityMaskFilter);}
	.st15{fill-rule:evenodd;clip-rule:evenodd;fill:#FFFFFF;}
	.st16{mask:url(#mask-2_4_);}
	.st17{fill-rule:evenodd;clip-rule:evenodd;fill:#989898;}
	.st18{filter:url(#Adobe_OpacityMaskFilter_1_);}
	.st19{mask:url(#mask-4_3_);}
	.st20{fill-rule:evenodd;clip-rule:evenodd;fill:#AFD141;}
	.st21{filter:url(#Adobe_OpacityMaskFilter_2_);}
	.st22{mask:url(#mask-6_2_);}
	.st23{filter:url(#Adobe_OpacityMaskFilter_3_);}
	.st24{mask:url(#mask-2_3_);}
	.st25{filter:url(#Adobe_OpacityMaskFilter_4_);}
	.st26{mask:url(#mask-2_2_);}
	.st27{filter:url(#Adobe_OpacityMaskFilter_5_);}
	.st28{mask:url(#mask-4_2_);}
	.st29{filter:url(#Adobe_OpacityMaskFilter_6_);}
	.st30{mask:url(#mask-2_1_);}
	.st31{filter:url(#Adobe_OpacityMaskFilter_7_);}
	.st32{mask:url(#mask-4_1_);}
	.st33{filter:url(#Adobe_OpacityMaskFilter_8_);}
	.st34{mask:url(#mask-6_1_);}
</style>
<g>
	<g>
		<path class="st6" d="M20.6,34.4h22.5c3.7,0,6.7-3,6.7-6.7s-3-6.7-6.7-6.7c-0.3,0-0.5,0.2-0.5,0.5s0.2,0.5,0.5,0.5
			c3.1,0,5.7,2.6,5.7,5.7s-2.6,5.7-5.7,5.7H20.6c-0.3,0-0.5,0.2-0.5,0.5S20.4,34.4,20.6,34.4z"/>
		<path class="st6" d="M43.2,34.5H20.6c-0.3,0-0.6-0.3-0.6-0.6s0.3-0.6,0.6-0.6h22.5c3.1,0,5.6-2.5,5.6-5.6s-2.5-5.6-5.6-5.6
			c-0.3,0-0.6-0.3-0.6-0.6s0.3-0.6,0.6-0.6c3.8,0,6.8,3.1,6.8,6.8C50,31.4,46.9,34.5,43.2,34.5z M20.6,33.5c-0.2,0-0.4,0.2-0.4,0.4
			s0.2,0.4,0.4,0.4h22.5c3.6,0,6.6-2.9,6.6-6.6c0-3.6-2.9-6.6-6.6-6.6c-0.2,0-0.4,0.2-0.4,0.4s0.2,0.4,0.4,0.4
			c3.2,0,5.8,2.6,5.8,5.8s-2.6,5.8-5.8,5.8H20.6z"/>
	</g>
	<g>
		<path class="st1" d="M20.1,28.9c0,0.3,0.2,0.5,0.5,0.5h14.8c2,0,3.6-1.6,3.6-3.6c0-2-1.6-3.6-3.6-3.6c-1.2,0-2.2,0.6-2.9,1.5
			c-0.2,0.2-0.1,0.5,0.1,0.7c0.2,0.2,0.5,0.1,0.7-0.1c0.5-0.7,1.3-1.1,2.1-1.1c1.5,0,2.6,1.2,2.6,2.6c0,1.5-1.2,2.6-2.6,2.6H20.6
			C20.4,28.4,20.1,28.6,20.1,28.9z"/>
		<path class="st1" d="M35.5,29.5H20.6c-0.3,0-0.6-0.3-0.6-0.6s0.3-0.6,0.6-0.6h14.8c1.4,0,2.5-1.1,2.5-2.5s-1.1-2.5-2.5-2.5
			c-0.8,0-1.6,0.4-2,1c-0.2,0.3-0.6,0.3-0.9,0.1s-0.3-0.6-0.1-0.9c0.7-1,1.8-1.5,3-1.5c2.1,0,3.7,1.7,3.7,3.7S37.5,29.5,35.5,29.5z
			 M20.6,28.5c-0.2,0-0.4,0.2-0.4,0.4s0.2,0.4,0.4,0.4h14.8c1.9,0,3.5-1.6,3.5-3.5s-1.6-3.5-3.5-3.5c-1.1,0-2.2,0.5-2.8,1.4
			c-0.1,0.2-0.1,0.4,0.1,0.5c0.2,0.1,0.4,0.1,0.5-0.1c0.5-0.7,1.4-1.1,2.2-1.1c1.5,0,2.8,1.2,2.8,2.8s-1.2,2.8-2.8,2.8H20.6z"/>
	</g>
	<g>
		<path class="st1" d="M20.6,39.3h20.4c2.4,0,4.4,2,4.4,4.4c0,2.4-2,4.4-4.4,4.4c-1.4,0-2.7-0.7-3.5-1.8c-0.2-0.2-0.5-0.3-0.7-0.1
			c-0.2,0.2-0.3,0.5-0.1,0.7c1,1.4,2.6,2.2,4.3,2.2c3,0,5.4-2.4,5.4-5.4s-2.4-5.4-5.4-5.4H20.6c-0.3,0-0.5,0.2-0.5,0.5
			S20.4,39.3,20.6,39.3z"/>
		<path class="st1" d="M41.1,49.1c-1.7,0-3.4-0.8-4.4-2.2c-0.2-0.3-0.1-0.7,0.1-0.9c0.1-0.1,0.3-0.1,0.5-0.1c0.2,0,0.3,0.1,0.4,0.2
			c0.8,1.1,2.1,1.7,3.4,1.7c2.3,0,4.3-1.9,4.3-4.3c0-2.3-1.9-4.3-4.3-4.3H20.6c-0.3,0-0.6-0.3-0.6-0.6s0.3-0.6,0.6-0.6h20.4
			c3,0,5.5,2.5,5.5,5.5S44.1,49.1,41.1,49.1z M37.1,46.2c-0.1,0-0.2,0-0.2,0.1c-0.2,0.1-0.2,0.4-0.1,0.5c1,1.3,2.6,2.1,4.2,2.1
			c2.9,0,5.2-2.4,5.2-5.2s-2.4-5.2-5.2-5.2H20.6c-0.2,0-0.4,0.2-0.4,0.4s0.2,0.4,0.4,0.4h20.4c2.5,0,4.5,2,4.5,4.5
			c0,2.5-2,4.5-4.5,4.5c-1.4,0-2.8-0.7-3.6-1.8C37.4,46.2,37.3,46.2,37.1,46.2C37.2,46.2,37.1,46.2,37.1,46.2z"/>
	</g>
</g>
<g>
	<defs>
		<polygon id="SVGID_1_" points="-1029,1912.7 -1029,1913.9 -1011.1,1913.9 -1011.1,1932.7 -1010,1932.7 -1010,1912.7 		"/>
	</defs>
	<clipPath id="SVGID_2_">
		<use xlink:href="#SVGID_1_"  style="overflow:visible;"/>
	</clipPath>
	<g class="st10">
		<defs>
			<rect id="SVGID_3_" x="-1287" y="-2673.3" width="1640" height="5497"/>
		</defs>
		<clipPath id="SVGID_4_">
			<use xlink:href="#SVGID_3_"  style="overflow:visible;"/>
		</clipPath>
	</g>
</g>
<g>
	<defs>
		<polygon id="SVGID_5_" points="-1027.2,1931.7 -1028,1930.9 -1010.7,1912.7 -1010,1913.5 		"/>
	</defs>
	<clipPath id="SVGID_6_">
		<use xlink:href="#SVGID_5_"  style="overflow:visible;"/>
	</clipPath>
	<g class="st12">
		<defs>
			<rect id="SVGID_7_" x="-1287" y="-2673.3" width="1640" height="5497"/>
		</defs>
		<clipPath id="SVGID_8_">
			<use xlink:href="#SVGID_7_"  style="overflow:visible;"/>
		</clipPath>
	</g>
</g>
</svg>
