<?xml version="1.0" encoding="utf-8"?>
<!-- Generator: Adobe Illustrator 24.0.0, SVG Export Plug-In . SVG Version: 6.00 Build 0)  -->
<svg version="1.1" id="Layer_1" xmlns="http://www.w3.org/2000/svg" xmlns:xlink="http://www.w3.org/1999/xlink" x="0px" y="0px"
	 viewBox="0 0 70 70" style="enable-background:new 0 0 70 70;" xml:space="preserve">
<style type="text/css">
	.st0{fill:#FF000B;}
	.st1{fill:#989898;}
	.st2{fill:#00B9F1;}
	.st3{fill:#227DBA;}
	.st4{fill:#508D35;}
	.st5{fill:#2CAB9F;}
	.st6{fill:#99D000;}
	.st7{fill:none;stroke:#99D000;stroke-width:0.5743;stroke-miterlimit:10;}
	.st8{fill:none;stroke:#2CAB9F;stroke-width:2.474;stroke-linecap:round;stroke-linejoin:round;stroke-miterlimit:10;}
	.st9{fill:#FFFFFF;}
	.st10{clip-path:url(#SVGID_2_);}
	.st11{clip-path:url(#SVGID_4_);}
	.st12{clip-path:url(#SVGID_6_);}
	.st13{clip-path:url(#SVGID_8_);}
	.st14{filter:url(#Adobe_OpacityMaskFilter);}
	.st15{fill-rule:evenodd;clip-rule:evenodd;fill:#FFFFFF;}
	.st16{mask:url(#mask-2_4_);}
	.st17{fill-rule:evenodd;clip-rule:evenodd;fill:#989898;}
	.st18{filter:url(#Adobe_OpacityMaskFilter_1_);}
	.st19{mask:url(#mask-4_3_);}
	.st20{fill-rule:evenodd;clip-rule:evenodd;fill:#AFD141;}
	.st21{filter:url(#Adobe_OpacityMaskFilter_2_);}
	.st22{mask:url(#mask-6_2_);}
	.st23{filter:url(#Adobe_OpacityMaskFilter_3_);}
	.st24{mask:url(#mask-2_3_);}
	.st25{filter:url(#Adobe_OpacityMaskFilter_4_);}
	.st26{mask:url(#mask-2_2_);}
	.st27{filter:url(#Adobe_OpacityMaskFilter_5_);}
	.st28{mask:url(#mask-4_2_);}
	.st29{filter:url(#Adobe_OpacityMaskFilter_6_);}
	.st30{mask:url(#mask-2_1_);}
	.st31{filter:url(#Adobe_OpacityMaskFilter_7_);}
	.st32{mask:url(#mask-4_1_);}
	.st33{filter:url(#Adobe_OpacityMaskFilter_8_);}
	.st34{mask:url(#mask-6_1_);}
</style>
<g>
	<g>
		<path class="st1" d="M53.7,33.7c0-1.5-1.2-2.7-2.7-2.7c-0.5,0-1,0.1-1.4,0.4c-0.6-0.7-1.3-1.3-2-2c5.4-5,7.7-9.4,6.1-11.8
			c-1.6-2.5-6.6-2-12.4,0.2c-2.1-1.3-4.5-2-7-1.8c-2,0.1-3.9,0.8-5.5,1.8c-6.3-2.4-11-2.4-12.5-0.2c-0.5,0.8-0.6,1.7-0.4,2.8
			c0.6,2.5,2.9,5.7,6.5,9c-0.7,0.6-1.3,1.2-1.9,1.8c-0.4-0.2-0.8-0.3-1.2-0.3c-1.5,0-2.7,1.2-2.7,2.7c0,0.7,0.2,1.3,0.6,1.7
			c0,0,0,0,0,0c-1.5,2.4-1.8,4.4-0.9,5.8c0.7,1.1,2.2,1.7,4.3,1.7c2.2,0,5.2-0.7,8.6-2c0,0.3,0.1,0.6,0.1,0.8h-0.2
			c-1.1,0-1.9,0.9-1.9,1.9c0,0.9,0.6,1.6,1.4,1.8v4.1c0,1,0.8,1.7,1.7,1.7h0.1v0.6c0,1.2,1,2.2,2.2,2.2h4.8c1.2,0,2.2-1,2.2-2.2
			v-0.6h0.1c1,0,1.7-0.8,1.7-1.7v-4.1c0.8-0.2,1.4-1,1.4-1.8c0-1.1-0.9-1.9-1.9-1.9h-0.2c0-0.3,0-0.6,0.1-0.8c3.3,1.3,6.3,2,8.6,2
			c2,0,3.5-0.5,4.3-1.7c0.8-1.3,0.6-3.2-0.8-5.6C53.4,35.1,53.7,34.4,53.7,33.7z M52.8,33.7c0,1-0.8,1.8-1.8,1.8s-1.8-0.8-1.8-1.8
			c0-1,0.8-1.8,1.8-1.8S52.8,32.7,52.8,33.7z M52.9,18.1c1.3,2-1.1,6.1-6,10.7c-0.1-0.1-0.3-0.2-0.4-0.4c0-0.3,0-0.7,0-1
			c0-3.2-1.3-6.2-3.6-8.4c-0.2-0.2-0.5-0.4-0.7-0.6C47.7,16.4,51.8,16.4,52.9,18.1z M24.6,28.8c2-1.7,4.3-3.4,6.8-5
			c3.5-2.2,6.8-3.9,9.7-5c0.4,0.3,0.7,0.6,1.1,0.9c2.1,2,3.3,4.7,3.3,7.7c0,2.7-1,5.2-2.8,7.2c-1.3,1.4-2.2,3.1-2.6,5
			c-2.7-1.1-5.6-2.6-8.7-4.6c-2.4-1.5-4.6-3.1-6.5-4.8C24.7,29.7,24.6,29.2,24.6,28.8z M34.3,16.8c2.1-0.1,4.1,0.3,5.8,1.3
			c-3,1.2-6.3,2.9-9.3,4.8c-2.3,1.5-4.5,3-6.4,4.6c0-0.2,0-0.4,0-0.7C24.7,21.6,29,17.2,34.3,16.8z M16.9,20.2
			c-0.2-0.9-0.1-1.6,0.2-2.1c1.2-1.8,5.2-1.7,10.7,0.3c-2.5,2-4.2,5.1-4.3,8.5c0,0.5,0,1,0,1.5c-0.1,0.1-0.3,0.2-0.4,0.3
			C19.7,25.6,17.4,22.5,16.9,20.2z M19.4,31.9c1,0,1.8,0.8,1.8,1.8c0,1-0.8,1.8-1.8,1.8c-1,0-1.8-0.8-1.8-1.8
			C17.6,32.7,18.4,31.9,19.4,31.9z M17.1,40.7c-0.8-1.3,0-3.2,0.9-4.7c0.4,0.2,0.9,0.4,1.4,0.4c1.5,0,2.7-1.2,2.7-2.7
			c0-0.7-0.3-1.4-0.8-1.9c0.6-0.6,1.2-1.2,1.8-1.8c0.3,0.3,0.6,0.5,0.9,0.8c0.5,1.6,1.4,3.1,2.6,4.4c1.2,1.3,2,2.9,2.4,4.7
			C23,42.3,18.4,42.6,17.1,40.7z M38.7,51.9c0,0.7-0.6,1.3-1.3,1.3h-4.8c-0.7,0-1.3-0.6-1.3-1.3v-0.6h7.3
			C38.7,51.3,38.7,51.9,38.7,51.9z M39.7,50.3h-9.4c-0.4,0-0.8-0.3-0.8-0.8v-4h11v4C40.5,50,40.1,50.3,39.7,50.3z M41.9,43.6
			c0,0.5-0.4,1-1,1H29.1c-0.5,0-1-0.4-1-1s0.4-1,1-1h11.8C41.4,42.7,41.9,43.1,41.9,43.6z M39.8,41.7h-9.6c-0.1-2.7-1.1-5.3-2.9-7.2
			c-0.7-0.8-1.3-1.6-1.8-2.5c1.6,1.3,3.4,2.6,5.3,3.8c3.1,2,6.2,3.6,9,4.7C39.8,40.9,39.8,41.3,39.8,41.7z M52.9,40.7
			c-1.2,1.8-5.7,1.7-11.9-0.7c0.4-1.8,1.2-3.4,2.4-4.8c1.5-1.6,2.5-3.6,2.9-5.7c0.9,0.8,1.8,1.7,2.6,2.5c-0.4,0.5-0.6,1-0.6,1.7
			c0,1.5,1.2,2.7,2.7,2.7c0.4,0,0.8-0.1,1.1-0.2C52.9,37.6,53.7,39.4,52.9,40.7z"/>
	</g>
	<g>
		<circle class="st5" cx="19.4" cy="33.7" r="2.7"/>
	</g>
	<g>
		<circle class="st5" cx="51" cy="33.7" r="2.7"/>
	</g>
</g>
<g>
	<defs>
		<polygon id="SVGID_1_" points="-642.2,1602.8 -642.2,1603.9 -624.4,1603.9 -624.4,1622.8 -623.2,1622.8 -623.2,1602.8 		"/>
	</defs>
	<clipPath id="SVGID_2_">
		<use xlink:href="#SVGID_1_"  style="overflow:visible;"/>
	</clipPath>
	<g class="st10">
		<defs>
			<rect id="SVGID_3_" x="-900.2" y="-2983.2" width="1640" height="5497"/>
		</defs>
		<clipPath id="SVGID_4_">
			<use xlink:href="#SVGID_3_"  style="overflow:visible;"/>
		</clipPath>
	</g>
</g>
<g>
	<defs>
		<polygon id="SVGID_5_" points="-640.5,1621.8 -641.2,1621 -624,1602.8 -623.2,1603.6 		"/>
	</defs>
	<clipPath id="SVGID_6_">
		<use xlink:href="#SVGID_5_"  style="overflow:visible;"/>
	</clipPath>
	<g class="st12">
		<defs>
			<rect id="SVGID_7_" x="-900.2" y="-2983.2" width="1640" height="5497"/>
		</defs>
		<clipPath id="SVGID_8_">
			<use xlink:href="#SVGID_7_"  style="overflow:visible;"/>
		</clipPath>
	</g>
</g>
</svg>
