<?xml version="1.0" encoding="utf-8"?>
<!-- Generator: Adobe Illustrator 24.0.0, SVG Export Plug-In . SVG Version: 6.00 Build 0)  -->
<svg version="1.1" id="Layer_1" xmlns="http://www.w3.org/2000/svg" xmlns:xlink="http://www.w3.org/1999/xlink" x="0px" y="0px"
	 viewBox="0 0 70 70" style="enable-background:new 0 0 70 70;" xml:space="preserve">
<style type="text/css">
	.st0{fill:#FF000B;}
	.st1{fill:#989898;}
	.st2{fill:#00B9F1;}
	.st3{fill:#227DBA;}
	.st4{fill:#508D35;}
	.st5{fill:#2CAB9F;}
	.st6{fill:#99D000;}
	.st7{fill:none;stroke:#99D000;stroke-width:0.5743;stroke-miterlimit:10;}
	.st8{fill:none;stroke:#2CAB9F;stroke-width:2.474;stroke-linecap:round;stroke-linejoin:round;stroke-miterlimit:10;}
	.st9{fill:#FFFFFF;}
	.st10{clip-path:url(#SVGID_2_);}
	.st11{clip-path:url(#SVGID_4_);}
	.st12{clip-path:url(#SVGID_6_);}
	.st13{clip-path:url(#SVGID_8_);}
	.st14{filter:url(#Adobe_OpacityMaskFilter);}
	.st15{fill-rule:evenodd;clip-rule:evenodd;fill:#FFFFFF;}
	.st16{mask:url(#mask-2_4_);}
	.st17{fill-rule:evenodd;clip-rule:evenodd;fill:#989898;}
	.st18{filter:url(#Adobe_OpacityMaskFilter_1_);}
	.st19{mask:url(#mask-4_3_);}
	.st20{fill-rule:evenodd;clip-rule:evenodd;fill:#AFD141;}
	.st21{filter:url(#Adobe_OpacityMaskFilter_2_);}
	.st22{mask:url(#mask-6_2_);}
	.st23{filter:url(#Adobe_OpacityMaskFilter_3_);}
	.st24{mask:url(#mask-2_3_);}
	.st25{filter:url(#Adobe_OpacityMaskFilter_4_);}
	.st26{mask:url(#mask-2_2_);}
	.st27{filter:url(#Adobe_OpacityMaskFilter_5_);}
	.st28{mask:url(#mask-4_2_);}
	.st29{filter:url(#Adobe_OpacityMaskFilter_6_);}
	.st30{mask:url(#mask-2_1_);}
	.st31{filter:url(#Adobe_OpacityMaskFilter_7_);}
	.st32{mask:url(#mask-4_1_);}
	.st33{filter:url(#Adobe_OpacityMaskFilter_8_);}
	.st34{mask:url(#mask-6_1_);}
</style>
<g>
	<g id="XMLID_9_">
		<g>
			<path class="st2" d="M21.4,48.6c1.1,1.1,1.1,2.9,0,4c-1.1,1.1-2.9,1.1-4,0c-1.1-1.1-1.1-2.9,0-4c0.6-0.5,1.3-0.8,2-0.8
				C20.1,47.8,20.8,48,21.4,48.6z"/>
		</g>
		<g>
			<path class="st2" d="M35,54.2c1.6,0,2.9,1.3,2.9,2.8c0,1.6-1.3,2.8-2.9,2.8c-1.6,0-2.9-1.3-2.9-2.8C32.1,55.5,33.4,54.2,35,54.2z
				"/>
		</g>
		<g>
			<path class="st2" d="M52.6,48.6c1.1,1.1,1.1,2.9,0,4c-1.1,1.1-2.9,1.1-4,0s-1.1-2.9,0-4c0.6-0.6,1.3-0.8,2-0.8
				C51.4,47.8,52.1,48,52.6,48.6z"/>
		</g>
		<g>
			<path class="st2" d="M57.1,32.1c1.6,0,2.8,1.3,2.8,2.9s-1.3,2.9-2.8,2.9c-1.6,0-2.8-1.3-2.8-2.9S55.5,32.1,57.1,32.1z"/>
		</g>
		<g>
			<path class="st2" d="M52.6,17.4c1.1,1.1,1.1,2.9,0,4c-1.1,1.1-2.9,1.1-4,0c-1.1-1.1-1.1-2.9,0-4c0.6-0.6,1.3-0.8,2-0.8
				S52.1,16.8,52.6,17.4z"/>
		</g>
		<g>
			<path class="st2" d="M35,10.1c1.6,0,2.9,1.3,2.9,2.8s-1.3,2.8-2.9,2.8c-1.6,0-2.9-1.3-2.9-2.8S33.4,10.1,35,10.1z"/>
		</g>
		<g>
			<path class="st2" d="M21.4,17.4c1.1,1.1,1.1,2.9,0,4c-1.1,1.1-2.9,1.1-4,0s-1.1-2.9,0-4c0.6-0.6,1.3-0.8,2-0.8
				C20.1,16.5,20.9,16.8,21.4,17.4z"/>
		</g>
		<g>
			<path class="st2" d="M12.9,32.1c1.6,0,2.8,1.3,2.8,2.9s-1.3,2.9-2.8,2.9c-1.6,0-2.9-1.3-2.9-2.9S11.4,32.1,12.9,32.1z"/>
		</g>
	</g>
	<g>
		<path class="st1" d="M28.5,13.2c-1.6,0.5-3.1,1.1-4.6,1.9c-0.3,0.2-0.4,0.6-0.3,0.9c0.1,0.2,0.3,0.3,0.6,0.3c0.1,0,0.2,0,0.3-0.1
			c1.4-0.8,2.8-1.4,4.3-1.8c0.3-0.1,0.5-0.5,0.4-0.8C29.2,13.3,28.9,13.1,28.5,13.2z"/>
	</g>
	<g>
		<path class="st1" d="M45.8,15c-1.5-0.8-3-1.4-4.6-1.9c-0.3-0.1-0.7,0.1-0.8,0.5c-0.1,0.3,0.1,0.7,0.5,0.8c1.5,0.4,3,1,4.3,1.8
			c0.1,0.1,0.2,0.1,0.3,0.1c0.2,0,0.5-0.1,0.6-0.3C46.2,15.5,46.1,15.1,45.8,15z"/>
	</g>
	<g>
		<path class="st1" d="M55.5,28.8c0.1,0.3,0.3,0.5,0.6,0.5c0.1,0,0.1,0,0.2,0c0.3-0.1,0.5-0.5,0.4-0.8c-0.5-1.6-1.1-3.1-1.9-4.6
			c-0.2-0.3-0.6-0.4-0.9-0.3c-0.3,0.2-0.4,0.6-0.3,0.9C54.4,25.9,55,27.3,55.5,28.8z"/>
	</g>
	<g>
		<path class="st1" d="M54.4,46c0.2,0,0.5-0.1,0.6-0.3c0.8-1.5,1.4-3,1.9-4.6c0.1-0.3-0.1-0.7-0.5-0.8c-0.3-0.1-0.7,0.1-0.8,0.5
			c-0.4,1.5-1,3-1.8,4.3c-0.2,0.3-0.1,0.7,0.3,0.9C54.2,46,54.3,46,54.4,46z"/>
	</g>
	<g>
		<path class="st1" d="M41.3,56.7c0.1,0,0.1,0,0.2,0c1.6-0.5,3.1-1.1,4.6-1.9c0.3-0.2,0.4-0.6,0.3-0.9c-0.2-0.3-0.6-0.4-0.9-0.3
			c-1.4,0.8-2.8,1.4-4.3,1.8c-0.3,0.1-0.5,0.5-0.4,0.8C40.8,56.5,41,56.7,41.3,56.7z"/>
	</g>
	<g>
		<path class="st1" d="M24.2,54.9c1.5,0.8,3,1.4,4.6,1.9c0.1,0,0.1,0,0.2,0c0.3,0,0.5-0.2,0.6-0.5c0.1-0.3-0.1-0.7-0.5-0.8
			c-1.5-0.4-3-1-4.3-1.8c-0.3-0.2-0.7-0.1-0.9,0.3C23.8,54.3,23.9,54.7,24.2,54.9z"/>
	</g>
	<g>
		<path class="st1" d="M16.1,46.2c0.3-0.2,0.4-0.6,0.3-0.9C15.6,44,15,42.5,14.5,41c-0.1-0.3-0.5-0.5-0.8-0.4
			c-0.3,0.1-0.5,0.5-0.4,0.8c0.5,1.6,1.1,3.1,1.9,4.6c0.1,0.2,0.3,0.3,0.6,0.3C15.9,46.3,16,46.3,16.1,46.2z"/>
	</g>
	<g>
		<path class="st1" d="M13.6,29.6c0.1,0,0.1,0,0.2,0c0.3,0,0.5-0.2,0.6-0.5c0.4-1.5,1-3,1.8-4.3c0.2-0.3,0.1-0.7-0.3-0.9
			c-0.3-0.2-0.7-0.1-0.9,0.3c-0.8,1.5-1.4,3-1.9,4.6C13.1,29.1,13.3,29.5,13.6,29.6z"/>
	</g>
	<g>
		<path class="st1" d="M42.3,30.6c-0.1-3.7-3.2-6.8-6.9-7c-2-0.1-4,0.6-5.5,2c-1.5,1.4-2.3,3.3-2.3,5.3c0,1.9,0.7,3.6,2,5
			c0.9,0.9,1.4,2.1,1.5,3.4c-0.2,0.1-0.4,0.3-0.4,0.6v2.7c0,0.7,0.5,1.2,1.1,1.4v0.6c0,1.1,0.9,2,2,2h2.2c1.1,0,2-0.9,2-2V44
			c0.7-0.1,1.2-0.7,1.2-1.4v-2.7c0-0.3-0.2-0.5-0.4-0.6c0.1-1.3,0.6-2.5,1.5-3.4C41.7,34.4,42.4,32.5,42.3,30.6z M38,40.5v2.1
			c0,0.1,0,0.1-0.1,0.1h-5.7c-0.1,0-0.1,0-0.1-0.1v-2.1H38z M36.1,45.2h-2.2c-0.4,0-0.7-0.3-0.7-0.7V44h3.7v0.5
			C36.8,44.9,36.5,45.2,36.1,45.2z M37.6,39.2h-5.1c-0.1-1.6-0.8-3.1-1.8-4.2c-1-1.1-1.6-2.6-1.6-4.1c0-1.7,0.7-3.2,1.9-4.4
			c1.2-1.1,2.8-1.7,4.5-1.6c3,0.2,5.5,2.7,5.6,5.8c0.1,1.6-0.5,3.2-1.6,4.4C38.3,36.1,37.7,37.6,37.6,39.2z"/>
	</g>
</g>
<g>
	<defs>
		<polygon id="SVGID_1_" points="-531.9,2225.3 -531.9,2226.4 -514,2226.4 -514,2245.3 -512.9,2245.3 -512.9,2225.3 		"/>
	</defs>
	<clipPath id="SVGID_2_">
		<use xlink:href="#SVGID_1_"  style="overflow:visible;"/>
	</clipPath>
	<g class="st10">
		<defs>
			<rect id="SVGID_3_" x="-789.9" y="-2360.7" width="1640" height="5497"/>
		</defs>
		<clipPath id="SVGID_4_">
			<use xlink:href="#SVGID_3_"  style="overflow:visible;"/>
		</clipPath>
	</g>
</g>
<g>
	<defs>
		<polygon id="SVGID_5_" points="-530.1,2244.3 -530.9,2243.5 -513.7,2225.3 -512.9,2226.1 		"/>
	</defs>
	<clipPath id="SVGID_6_">
		<use xlink:href="#SVGID_5_"  style="overflow:visible;"/>
	</clipPath>
	<g class="st12">
		<defs>
			<rect id="SVGID_7_" x="-789.9" y="-2360.7" width="1640" height="5497"/>
		</defs>
		<clipPath id="SVGID_8_">
			<use xlink:href="#SVGID_7_"  style="overflow:visible;"/>
		</clipPath>
	</g>
</g>
</svg>
