<?xml version="1.0" encoding="utf-8"?>
<!-- Generator: Adobe Illustrator 24.0.0, SVG Export Plug-In . SVG Version: 6.00 Build 0)  -->
<svg version="1.1" id="Layer_1" xmlns="http://www.w3.org/2000/svg" xmlns:xlink="http://www.w3.org/1999/xlink" x="0px" y="0px"
	 viewBox="0 0 70 70" style="enable-background:new 0 0 70 70;" xml:space="preserve">
<style type="text/css">
	.st0{fill:#FF000B;}
	.st1{fill:#989898;}
	.st2{fill:#00B9F1;}
	.st3{fill:#227DBA;}
	.st4{fill:#508D35;}
	.st5{fill:#2CAB9F;}
	.st6{fill:#99D000;}
	.st7{fill:none;stroke:#99D000;stroke-width:0.5743;stroke-miterlimit:10;}
	.st8{fill:none;stroke:#2CAB9F;stroke-width:2.474;stroke-linecap:round;stroke-linejoin:round;stroke-miterlimit:10;}
	.st9{fill:#FFFFFF;}
	.st10{clip-path:url(#SVGID_2_);}
	.st11{clip-path:url(#SVGID_4_);}
	.st12{clip-path:url(#SVGID_6_);}
	.st13{clip-path:url(#SVGID_8_);}
	.st14{filter:url(#Adobe_OpacityMaskFilter);}
	.st15{fill-rule:evenodd;clip-rule:evenodd;fill:#FFFFFF;}
	.st16{mask:url(#mask-2_4_);}
	.st17{fill-rule:evenodd;clip-rule:evenodd;fill:#989898;}
	.st18{filter:url(#Adobe_OpacityMaskFilter_1_);}
	.st19{mask:url(#mask-4_3_);}
	.st20{fill-rule:evenodd;clip-rule:evenodd;fill:#AFD141;}
	.st21{filter:url(#Adobe_OpacityMaskFilter_2_);}
	.st22{mask:url(#mask-6_2_);}
	.st23{filter:url(#Adobe_OpacityMaskFilter_3_);}
	.st24{mask:url(#mask-2_3_);}
	.st25{filter:url(#Adobe_OpacityMaskFilter_4_);}
	.st26{mask:url(#mask-2_2_);}
	.st27{filter:url(#Adobe_OpacityMaskFilter_5_);}
	.st28{mask:url(#mask-4_2_);}
	.st29{filter:url(#Adobe_OpacityMaskFilter_6_);}
	.st30{mask:url(#mask-2_1_);}
	.st31{filter:url(#Adobe_OpacityMaskFilter_7_);}
	.st32{mask:url(#mask-4_1_);}
	.st33{filter:url(#Adobe_OpacityMaskFilter_8_);}
	.st34{mask:url(#mask-6_1_);}
</style>
<g>
	<g>
		<path class="st1" d="M20.9,41c2.8,2.2,6.9,4.7,11.6,5.4c0.8,0.2,1.6,0.3,2.5,0.3c0.8,0,1.6-0.1,2.3-0.2c4.8-0.7,9-3.2,11.8-5.4
			c3.5-2.7,5.7-5.5,5.8-5.6c0.2-0.2,0.2-0.5,0-0.8c-0.1-0.1-2.3-2.8-5.8-5.6c-3.3-2.6-8.4-5.6-14.1-5.6c0,0,0,0,0,0c0,0,0,0,0,0
			c0,0,0,0-0.1,0c-5.7,0-10.8,3.1-14,5.6c-3.5,2.7-5.7,5.5-5.8,5.6c-0.2,0.2-0.2,0.5,0,0.8C15.2,35.5,17.3,38.2,20.9,41z M24.6,35
			c0-5.7,4.6-10.4,10.4-10.4c0,0,0,0,0.1,0c5.7,0,10.4,4.7,10.4,10.4c0,5-3.6,9.2-8.3,10.2c-0.7,0.1-1.4,0.1-2.1,0.1
			c-0.8,0-1.5-0.1-2.2-0.2C28.1,44.2,24.6,40,24.6,35z M53.7,35c-1.1,1.3-5.2,5.7-10.7,8.4c2.2-2.1,3.6-5.1,3.6-8.3
			c0-3.3-1.4-6.3-3.7-8.5C48.4,29.2,52.5,33.7,53.7,35z M27,26.6c-2.2,2.1-3.6,5.1-3.6,8.4c0,3.2,1.3,6.1,3.5,8.2
			c-5.4-2.6-9.4-7-10.5-8.3C17.5,33.7,21.5,29.3,27,26.6z"/>
	</g>
	<g>
		<path class="st1" d="M47.5,55l-3.2-5.6c-0.2-0.3-0.5-0.4-0.8-0.2c-0.3,0.2-0.4,0.5-0.2,0.8l3.2,5.6c0.1,0.2,0.3,0.3,0.5,0.3
			c0.1,0,0.2,0,0.3-0.1C47.5,55.7,47.6,55.3,47.5,55z"/>
	</g>
	<g>
		<path class="st1" d="M35.8,58.5v-6.4c0-0.3-0.3-0.6-0.6-0.6c-0.3,0-0.6,0.3-0.6,0.6v6.4c0,0.3,0.3,0.6,0.6,0.6
			C35.5,59.1,35.8,58.9,35.8,58.5z"/>
	</g>
	<g>
		<path class="st1" d="M23.4,56c0.2,0,0.4-0.1,0.5-0.3l3.2-5.6c0.2-0.3,0.1-0.7-0.2-0.8c-0.3-0.2-0.7-0.1-0.8,0.2l-3.2,5.6
			c-0.2,0.3-0.1,0.7,0.2,0.8C23.2,56,23.3,56,23.4,56z"/>
	</g>
	<g>
		<path class="st1" d="M25.9,20.5c0.1,0.2,0.3,0.3,0.5,0.3c0.1,0,0.2,0,0.3-0.1c0.3-0.2,0.4-0.5,0.2-0.8l-3.2-5.6
			c-0.2-0.3-0.5-0.4-0.8-0.2c-0.3,0.2-0.4,0.5-0.2,0.8L25.9,20.5z"/>
	</g>
	<g>
		<path class="st1" d="M35,18.5c0.3,0,0.6-0.3,0.6-0.6v-6.4c0-0.3-0.3-0.6-0.6-0.6s-0.6,0.3-0.6,0.6v6.4
			C34.4,18.2,34.7,18.5,35,18.5z"/>
	</g>
	<g>
		<path class="st1" d="M43.3,20.7c0.1,0.1,0.2,0.1,0.3,0.1c0.2,0,0.4-0.1,0.5-0.3l3.2-5.6c0.2-0.3,0.1-0.7-0.2-0.8
			c-0.3-0.2-0.7-0.1-0.8,0.2L43,19.8C42.9,20.1,43,20.5,43.3,20.7z"/>
	</g>
	<g>
		<circle class="st2" cx="35" cy="35" r="6.2"/>
	</g>
</g>
<g>
	<defs>
		<polygon id="SVGID_1_" points="-746.5,2225.3 -746.5,2226.4 -728.6,2226.4 -728.6,2245.3 -727.5,2245.3 -727.5,2225.3 		"/>
	</defs>
	<clipPath id="SVGID_2_">
		<use xlink:href="#SVGID_1_"  style="overflow:visible;"/>
	</clipPath>
	<g class="st10">
		<defs>
			<rect id="SVGID_3_" x="-1004.5" y="-2360.7" width="1640" height="5497"/>
		</defs>
		<clipPath id="SVGID_4_">
			<use xlink:href="#SVGID_3_"  style="overflow:visible;"/>
		</clipPath>
	</g>
</g>
<g>
	<defs>
		<polygon id="SVGID_5_" points="-744.7,2244.3 -745.5,2243.5 -728.3,2225.3 -727.5,2226.1 		"/>
	</defs>
	<clipPath id="SVGID_6_">
		<use xlink:href="#SVGID_5_"  style="overflow:visible;"/>
	</clipPath>
	<g class="st12">
		<defs>
			<rect id="SVGID_7_" x="-1004.5" y="-2360.7" width="1640" height="5497"/>
		</defs>
		<clipPath id="SVGID_8_">
			<use xlink:href="#SVGID_7_"  style="overflow:visible;"/>
		</clipPath>
	</g>
</g>
</svg>
