<?xml version="1.0" encoding="utf-8"?>
<!-- Generator: Adobe Illustrator 24.0.0, SVG Export Plug-In . SVG Version: 6.00 Build 0)  -->
<svg version="1.1" id="Layer_1" xmlns="http://www.w3.org/2000/svg" xmlns:xlink="http://www.w3.org/1999/xlink" x="0px" y="0px"
	 viewBox="0 0 70 70" style="enable-background:new 0 0 70 70;" xml:space="preserve">
<style type="text/css">
	.st0{fill:#FF000B;}
	.st1{fill:#989898;}
	.st2{fill:#00B9F1;}
	.st3{fill:#227DBA;}
	.st4{fill:#508D35;}
	.st5{fill:#2CAB9F;}
	.st6{fill:#99D000;}
	.st7{fill:none;stroke:#99D000;stroke-width:0.5743;stroke-miterlimit:10;}
	.st8{fill:none;stroke:#2CAB9F;stroke-width:2.474;stroke-linecap:round;stroke-linejoin:round;stroke-miterlimit:10;}
	.st9{fill:#FFFFFF;}
	.st10{clip-path:url(#SVGID_2_);}
	.st11{clip-path:url(#SVGID_4_);}
	.st12{clip-path:url(#SVGID_6_);}
	.st13{clip-path:url(#SVGID_8_);}
	.st14{filter:url(#Adobe_OpacityMaskFilter);}
	.st15{fill-rule:evenodd;clip-rule:evenodd;fill:#FFFFFF;}
	.st16{mask:url(#mask-2_4_);}
	.st17{fill-rule:evenodd;clip-rule:evenodd;fill:#989898;}
	.st18{filter:url(#Adobe_OpacityMaskFilter_1_);}
	.st19{mask:url(#mask-4_3_);}
	.st20{fill-rule:evenodd;clip-rule:evenodd;fill:#AFD141;}
	.st21{filter:url(#Adobe_OpacityMaskFilter_2_);}
	.st22{mask:url(#mask-6_2_);}
	.st23{filter:url(#Adobe_OpacityMaskFilter_3_);}
	.st24{mask:url(#mask-2_3_);}
	.st25{filter:url(#Adobe_OpacityMaskFilter_4_);}
	.st26{mask:url(#mask-2_2_);}
	.st27{filter:url(#Adobe_OpacityMaskFilter_5_);}
	.st28{mask:url(#mask-4_2_);}
	.st29{filter:url(#Adobe_OpacityMaskFilter_6_);}
	.st30{mask:url(#mask-2_1_);}
	.st31{filter:url(#Adobe_OpacityMaskFilter_7_);}
	.st32{mask:url(#mask-4_1_);}
	.st33{filter:url(#Adobe_OpacityMaskFilter_8_);}
	.st34{mask:url(#mask-6_1_);}
</style>
<g>
	<path class="st1" d="M57.1,33.4c0-1.8-1.5-3.2-3.2-3.2c-0.6,0-1.2,0.2-1.7,0.5c-0.7-0.8-1.5-1.6-2.4-2.3c6.4-5.9,9.1-11.1,7.2-14
		c-1.9-3-7.8-2.4-14.6,0.2c-2.4-1.6-5.3-2.4-8.3-2.2c-2.4,0.1-4.6,0.9-6.5,2.2c-7.5-2.8-13-2.9-14.7-0.2c-0.6,0.9-0.7,2-0.4,3.3
		c0.6,2.9,3.5,6.7,7.6,10.6c-0.8,0.7-1.5,1.5-2.2,2.2c-0.4-0.2-0.9-0.3-1.4-0.3c-1.8,0-3.2,1.4-3.2,3.2c0,0.8,0.3,1.5,0.7,2
		c0,0,0,0,0,0c-1.7,2.9-2.1,5.2-1.1,6.8c0.9,1.3,2.6,2,5,2c2.6,0,6.1-0.8,10.2-2.4c0,0.3,0.1,0.7,0.1,1H28c-1.2,0-2.3,1-2.3,2.3
		c0,1,0.7,1.9,1.6,2.2v4.8c0,1.1,0.9,2.1,2.1,2.1h0.1V55c0,1.5,1.2,2.6,2.6,2.6h5.6c1.5,0,2.6-1.2,2.6-2.6v-0.8h0.1
		c1.1,0,2.1-0.9,2.1-2.1v-4.8c0.9-0.3,1.6-1.1,1.6-2.2c0-1.2-1-2.3-2.3-2.3h-0.2c0-0.3,0-0.7,0.1-1c3.9,1.5,7.4,2.3,10.1,2.3
		c2.4,0,4.2-0.6,5-2c1-1.6,0.7-3.8-0.9-6.6C56.7,35.1,57.1,34.3,57.1,33.4z M56,33.4c0,1.1-0.9,2.1-2.1,2.1s-2.1-0.9-2.1-2.1
		c0-1.1,0.9-2.1,2.1-2.1S56,32.3,56,33.4z M56.1,15c1.5,2.3-1.3,7.2-7.1,12.6c-0.2-0.1-0.3-0.3-0.5-0.4c0-0.4,0.1-0.8,0.1-1.2
		c0-3.7-1.6-7.3-4.3-9.9c-0.3-0.2-0.5-0.5-0.8-0.7C50,13,54.8,13,56.1,15z M22.7,27.6c2.4-2,5.1-4,8.1-5.9c4.1-2.6,8-4.6,11.5-5.9
		c0.4,0.3,0.9,0.7,1.3,1.1c2.5,2.4,3.9,5.6,3.9,9.1c0,3.2-1.2,6.2-3.3,8.5c-1.5,1.7-2.6,3.7-3.1,6c-3.2-1.3-6.6-3.1-10.3-5.4
		c-2.8-1.8-5.4-3.7-7.7-5.6C22.9,28.8,22.8,28.2,22.7,27.6z M34.2,13.5c2.5-0.2,4.8,0.4,6.9,1.6c-3.6,1.5-7.4,3.4-11,5.7
		c-2.7,1.7-5.3,3.6-7.6,5.5c0-0.3,0-0.5,0-0.8C22.8,19.2,27.9,13.9,34.2,13.5z M13.6,17.5c-0.2-1-0.1-1.9,0.3-2.5
		c1.4-2.1,6.2-2,12.7,0.4c-3,2.4-5,6-5.1,10c0,0.6,0,1.2,0,1.8c-0.2,0.1-0.3,0.3-0.5,0.4C17,23.9,14.2,20.2,13.6,17.5z M16.5,31.3
		c1.2,0,2.1,0.9,2.1,2.1c0,1.1-0.9,2.1-2.1,2.1s-2.1-0.9-2.1-2.1C14.4,32.3,15.4,31.3,16.5,31.3z M13.9,41.7c-1-1.5,0-3.8,1-5.5
		c0.5,0.3,1,0.4,1.6,0.4c1.8,0,3.2-1.4,3.2-3.2c0-0.9-0.3-1.6-0.9-2.2c0.7-0.7,1.4-1.4,2.1-2.1c0.3,0.3,0.7,0.6,1,0.9
		c0.6,1.9,1.6,3.7,3.1,5.2c1.4,1.5,2.4,3.4,2.8,5.6C20.8,43.6,15.4,43.9,13.9,41.7z M39.3,55c0,0.8-0.7,1.5-1.5,1.5h-5.6
		c-0.8,0-1.5-0.7-1.5-1.5v-0.8h8.6L39.3,55z M40.6,53.1H29.4c-0.5,0-0.9-0.4-0.9-0.9v-4.7h13v4.7C41.5,52.7,41.1,53.1,40.6,53.1z
		 M43.1,45.2c0,0.6-0.5,1.1-1.1,1.1H28c-0.6,0-1.1-0.5-1.1-1.1c0-0.6,0.5-1.1,1.1-1.1H42C42.6,44.1,43.1,44.6,43.1,45.2z M40.7,42.9
		H29.3c-0.1-3.2-1.3-6.2-3.4-8.5c-0.8-0.9-1.5-1.9-2.1-3c1.9,1.5,4,3,6.3,4.4c3.7,2.3,7.3,4.2,10.7,5.6C40.7,42,40.7,42.4,40.7,42.9
		z M56.1,41.7c-1.4,2.2-6.8,2-14-0.9c0.5-2.1,1.4-4.1,2.9-5.6c1.8-1.9,2.9-4.2,3.4-6.7c1.1,1,2.1,2,3,2.9c-0.4,0.5-0.7,1.2-0.7,2
		c0,1.8,1.5,3.2,3.2,3.2c0.5,0,0.9-0.1,1.3-0.3C56.1,38,57,40.2,56.1,41.7z"/>
</g>
<g>
	<circle class="st0" cx="16.5" cy="33.4" r="3.2"/>
</g>
<g>
	<circle class="st0" cx="53.9" cy="33.4" r="3.2"/>
</g>
<g>
	<defs>
		<polygon id="SVGID_1_" points="-638.8,2382.3 -638.8,2383.4 -620.9,2383.4 -620.9,2402.3 -619.8,2402.3 -619.8,2382.3 		"/>
	</defs>
	<clipPath id="SVGID_2_">
		<use xlink:href="#SVGID_1_"  style="overflow:visible;"/>
	</clipPath>
	<g class="st10">
		<defs>
			<rect id="SVGID_3_" x="-896.8" y="-2203.7" width="1640" height="5497"/>
		</defs>
		<clipPath id="SVGID_4_">
			<use xlink:href="#SVGID_3_"  style="overflow:visible;"/>
		</clipPath>
	</g>
</g>
<g>
	<defs>
		<polygon id="SVGID_5_" points="-637,2401.3 -637.8,2400.5 -620.5,2382.3 -619.8,2383.1 		"/>
	</defs>
	<clipPath id="SVGID_6_">
		<use xlink:href="#SVGID_5_"  style="overflow:visible;"/>
	</clipPath>
	<g class="st12">
		<defs>
			<rect id="SVGID_7_" x="-896.8" y="-2203.7" width="1640" height="5497"/>
		</defs>
		<clipPath id="SVGID_8_">
			<use xlink:href="#SVGID_7_"  style="overflow:visible;"/>
		</clipPath>
	</g>
</g>
</svg>
