<?xml version="1.0" encoding="utf-8"?>
<!-- Generator: Adobe Illustrator 24.0.0, SVG Export Plug-In . SVG Version: 6.00 Build 0)  -->
<svg version="1.1" id="Layer_1" xmlns="http://www.w3.org/2000/svg" xmlns:xlink="http://www.w3.org/1999/xlink" x="0px" y="0px"
	 viewBox="0 0 70 70" style="enable-background:new 0 0 70 70;" xml:space="preserve">
<style type="text/css">
	.st0{fill:#FF000B;}
	.st1{fill:#989898;}
	.st2{fill:#00B9F1;}
	.st3{fill:#227DBA;}
	.st4{fill:#508D35;}
	.st5{fill:#2CAB9F;}
	.st6{fill:#99D000;}
	.st7{fill:none;stroke:#99D000;stroke-width:0.5743;stroke-miterlimit:10;}
	.st8{fill:none;stroke:#2CAB9F;stroke-width:2.474;stroke-linecap:round;stroke-linejoin:round;stroke-miterlimit:10;}
	.st9{fill:#FFFFFF;}
	.st10{clip-path:url(#SVGID_2_);}
	.st11{clip-path:url(#SVGID_4_);}
	.st12{clip-path:url(#SVGID_6_);}
	.st13{clip-path:url(#SVGID_8_);}
	.st14{filter:url(#Adobe_OpacityMaskFilter);}
	.st15{fill-rule:evenodd;clip-rule:evenodd;fill:#FFFFFF;}
	.st16{mask:url(#mask-2_4_);}
	.st17{fill-rule:evenodd;clip-rule:evenodd;fill:#989898;}
	.st18{filter:url(#Adobe_OpacityMaskFilter_1_);}
	.st19{mask:url(#mask-4_3_);}
	.st20{fill-rule:evenodd;clip-rule:evenodd;fill:#AFD141;}
	.st21{filter:url(#Adobe_OpacityMaskFilter_2_);}
	.st22{mask:url(#mask-6_2_);}
	.st23{filter:url(#Adobe_OpacityMaskFilter_3_);}
	.st24{mask:url(#mask-2_3_);}
	.st25{filter:url(#Adobe_OpacityMaskFilter_4_);}
	.st26{mask:url(#mask-2_2_);}
	.st27{filter:url(#Adobe_OpacityMaskFilter_5_);}
	.st28{mask:url(#mask-4_2_);}
	.st29{filter:url(#Adobe_OpacityMaskFilter_6_);}
	.st30{mask:url(#mask-2_1_);}
	.st31{filter:url(#Adobe_OpacityMaskFilter_7_);}
	.st32{mask:url(#mask-4_1_);}
	.st33{filter:url(#Adobe_OpacityMaskFilter_8_);}
	.st34{mask:url(#mask-6_1_);}
</style>
<g>
	<g>
		<path class="st0" d="M34.4,16.4c-10.3,0-18.8,8.4-18.8,18.8s8.4,18.8,18.8,18.8s18.8-8.4,18.8-18.8S44.8,16.4,34.4,16.4z
			 M43.8,50.1l-1.4-2.4c-0.2-0.3-0.5-0.4-0.8-0.2c-0.3,0.2-0.4,0.5-0.2,0.8l1.4,2.4c-2.3,1.3-5,2-7.8,2.1v-2.8
			c0-0.3-0.3-0.6-0.6-0.6s-0.6,0.3-0.6,0.6v2.8c-2.8-0.1-5.5-0.8-7.8-2.1l1.4-2.4c0.2-0.3,0.1-0.6-0.2-0.8s-0.6-0.1-0.8,0.2
			l-1.4,2.4c-2.3-1.4-4.2-3.4-5.7-5.7l2.4-1.4c0.3-0.2,0.4-0.5,0.2-0.8c-0.2-0.3-0.5-0.4-0.8-0.2l-2.4,1.4c-1.2-2.3-2-5-2-7.8h2.7
			c0.3,0,0.6-0.3,0.6-0.6c0-0.3-0.3-0.6-0.6-0.6h-2.7c0.1-2.8,0.9-5.4,2.1-7.7l2.3,1.3c0.1,0.1,0.2,0.1,0.3,0.1
			c0.2,0,0.4-0.1,0.5-0.3c0.2-0.3,0.1-0.6-0.2-0.8l-2.3-1.3c1.4-2.3,3.4-4.2,5.7-5.6l1.3,2.2c0.1,0.2,0.3,0.3,0.5,0.3
			c0.1,0,0.2,0,0.3-0.1c0.3-0.2,0.4-0.5,0.2-0.8l-1.3-2.2c2.3-1.2,4.9-2,7.7-2v2.6c0,0.3,0.3,0.6,0.6,0.6s0.6-0.3,0.6-0.6v-2.6
			c2.8,0.1,5.4,0.8,7.7,2l-1.3,2.2c-0.2,0.3-0.1,0.6,0.2,0.8c0.1,0.1,0.2,0.1,0.3,0.1c0.2,0,0.4-0.1,0.5-0.3l1.3-2.2
			c2.3,1.4,4.2,3.3,5.7,5.6L47.1,27c-0.3,0.2-0.4,0.5-0.2,0.8c0.1,0.2,0.3,0.3,0.5,0.3c0.1,0,0.2,0,0.3-0.1l2.3-1.3
			c1.3,2.3,2,4.9,2.1,7.7h-2.7c-0.3,0-0.6,0.3-0.6,0.6c0,0.3,0.3,0.6,0.6,0.6H52c-0.1,2.8-0.8,5.4-2,7.8L47.6,42
			c-0.3-0.2-0.6-0.1-0.8,0.2s-0.1,0.6,0.2,0.8l2.4,1.4C48,46.6,46.1,48.6,43.8,50.1z"/>
		<path class="st0" d="M34.4,54C24,54,15.5,45.5,15.5,35.1c0-10.4,8.5-18.9,18.9-18.9c10.4,0,18.9,8.5,18.9,18.9
			C53.3,45.5,44.8,54,34.4,54z M34.4,16.5c-10.3,0-18.6,8.4-18.6,18.6s8.4,18.6,18.6,18.6c10.3,0,18.6-8.4,18.6-18.6
			S44.7,16.5,34.4,16.5z M34.9,52.9v-2.9c0-0.2-0.2-0.4-0.4-0.4c-0.2,0-0.4,0.2-0.4,0.4v2.9l-0.1,0c-2.8-0.1-5.4-0.8-7.9-2.1
			l-0.1-0.1l1.5-2.5c0.1-0.1,0.1-0.2,0-0.3c0-0.1-0.1-0.2-0.2-0.3s-0.2-0.1-0.3,0c-0.1,0-0.2,0.1-0.3,0.2l-1.5,2.5L25,50.2
			c-2.3-1.5-4.3-3.4-5.7-5.8l-0.1-0.1l2.5-1.4c0.2-0.1,0.3-0.4,0.2-0.6c-0.1-0.2-0.4-0.3-0.6-0.2l-2.5,1.4l-0.1-0.1
			c-1.3-2.4-2-5.1-2-7.8l0-0.1h2.8c0.2,0,0.4-0.2,0.4-0.4c0-0.2-0.2-0.4-0.4-0.4h-2.8l0-0.1c0.1-2.7,0.8-5.4,2.1-7.8l0.1-0.1
			l2.4,1.4c0.2,0.1,0.5,0,0.6-0.2c0.1-0.2,0-0.5-0.2-0.6l-2.4-1.4l0.1-0.1c1.4-2.3,3.4-4.2,5.7-5.6l0.1-0.1l1.3,2.3
			c0.1,0.2,0.4,0.3,0.6,0.2c0.1-0.1,0.2-0.2,0.2-0.3c0-0.1,0-0.2,0-0.3L26,19.5l0.1-0.1c2.4-1.3,5-2,7.7-2.1l0.1,0v2.7
			c0,0.2,0.2,0.4,0.4,0.4c0.2,0,0.4-0.2,0.4-0.4v-2.7l0.1,0c2.7,0.1,5.3,0.8,7.7,2.1l0.1,0.1l-0.1,0.1l-1.3,2.2
			c-0.1,0.2,0,0.5,0.2,0.6c0.2,0.1,0.5,0,0.6-0.2l1.3-2.3l0.1,0.1c2.3,1.4,4.3,3.4,5.7,5.6l0.1,0.1l-2.4,1.4
			c-0.2,0.1-0.3,0.4-0.2,0.6c0.1,0.2,0.4,0.3,0.6,0.2l2.4-1.4l0.1,0.1c1.3,2.4,2,5,2.1,7.8l0,0.1h-2.8c-0.2,0-0.4,0.2-0.4,0.4
			c0,0.2,0.2,0.4,0.4,0.4h2.8l0,0.1c-0.1,2.8-0.8,5.4-2,7.8L50,43.5l-2.5-1.4c-0.2-0.1-0.5,0-0.6,0.2c-0.1,0.2,0,0.5,0.2,0.6
			l2.5,1.4l-0.1,0.1c-1.4,2.3-3.4,4.3-5.7,5.8l-0.1,0.1l-1.5-2.5c-0.1-0.1-0.2-0.2-0.3-0.2c-0.1,0-0.2,0-0.3,0
			c-0.1,0.1-0.2,0.2-0.2,0.3c0,0.1,0,0.2,0,0.3l1.5,2.5l-0.1,0.1c-2.4,1.3-5.1,2-7.9,2.1L34.9,52.9z M26.2,50.6
			c2.3,1.2,4.9,1.9,7.5,2v-2.7c0-0.4,0.3-0.7,0.7-0.7s0.7,0.3,0.7,0.7v2.7c2.7-0.1,5.2-0.8,7.5-2l-1.3-2.3c-0.2-0.3-0.1-0.8,0.3-0.9
			c0.2-0.1,0.3-0.1,0.5-0.1c0.2,0,0.3,0.2,0.4,0.3l1.3,2.3c2.2-1.4,4.1-3.3,5.5-5.5L47,43.1c-0.3-0.2-0.4-0.6-0.3-0.9
			c0.2-0.3,0.6-0.4,0.9-0.3l2.3,1.3c1.2-2.3,1.9-4.8,1.9-7.5h-2.6c-0.4,0-0.7-0.3-0.7-0.7s0.3-0.7,0.7-0.7h2.5
			c-0.1-2.6-0.8-5.1-2-7.4l-2.2,1.2c-0.3,0.2-0.8,0.1-0.9-0.3c-0.2-0.3-0.1-0.8,0.3-0.9l2.1-1.2c-1.4-2.2-3.3-4-5.4-5.4l-1.2,2.1
			c-0.1,0.2-0.4,0.3-0.6,0.3c-0.1,0-0.2,0-0.3-0.1c-0.3-0.2-0.4-0.6-0.3-0.9l1.2-2.1c-2.3-1.2-4.8-1.9-7.4-2v2.4
			c0,0.4-0.3,0.7-0.7,0.7s-0.7-0.3-0.7-0.7v-2.4c-2.6,0.1-5.1,0.8-7.4,2l1.2,2.1c0.1,0.2,0.1,0.3,0.1,0.5s-0.2,0.3-0.3,0.4
			c-0.3,0.2-0.8,0.1-0.9-0.3l-1.2-2.1c-2.2,1.4-4,3.2-5.4,5.4l2.1,1.2c0.3,0.2,0.4,0.6,0.3,0.9c-0.2,0.3-0.6,0.4-0.9,0.3L19,26.9
			c-1.2,2.3-1.9,4.8-2,7.4h2.5c0.4,0,0.7,0.3,0.7,0.7s-0.3,0.7-0.7,0.7h-2.6c0.1,2.6,0.7,5.1,1.9,7.5l2.3-1.3
			c0.3-0.2,0.8-0.1,0.9,0.3c0.2,0.3,0.1,0.8-0.3,0.9l-2.3,1.3c1.4,2.2,3.3,4.1,5.5,5.5l1.3-2.3c0.1-0.2,0.2-0.3,0.4-0.3
			c0.2-0.1,0.4,0,0.5,0.1c0.2,0.1,0.3,0.2,0.3,0.4s0,0.4-0.1,0.5L26.2,50.6z"/>
	</g>
	<g>
		<path class="st1" d="M34.4,12.2c-12.6,0-22.8,10.2-22.8,22.8c0,12.6,10.2,22.8,22.8,22.8S57.2,47.6,57.2,35
			C57.2,22.4,47,12.2,34.4,12.2z M34.4,56.7c-12,0-21.7-9.7-21.7-21.7s9.7-21.7,21.7-21.7S56.1,23,56.1,35S46.4,56.7,34.4,56.7z"/>
		<path class="st1" d="M34.4,58c-12.7,0-22.9-10.3-22.9-23c0-12.7,10.3-23,22.9-23s22.9,10.3,22.9,23C57.4,47.7,47.1,58,34.4,58z
			 M34.4,12.3c-12.5,0-22.7,10.2-22.7,22.7c0,12.5,10.2,22.7,22.7,22.7c12.5,0,22.7-10.2,22.7-22.7C57.1,22.5,46.9,12.3,34.4,12.3z
			 M34.4,56.8c-12,0-21.8-9.8-21.8-21.8s9.8-21.8,21.8-21.8c12,0,21.8,9.8,21.8,21.8S46.4,56.8,34.4,56.8z M34.4,13.4
			c-11.9,0-21.6,9.7-21.6,21.6s9.7,21.6,21.6,21.6S56,46.9,56,35S46.3,13.4,34.4,13.4z"/>
	</g>
	<g>
		<path class="st1" d="M44.9,34.5h-6.6c-0.3-1.9-1.9-3.4-3.9-3.4c-2.2,0-3.9,1.8-3.9,3.9c0,2,1.5,3.6,3.3,3.9v6.6
			c0,0.3,0.3,0.6,0.6,0.6s0.6-0.3,0.6-0.6v-6.6c1.7-0.2,3.1-1.6,3.3-3.3h6.6c0.3,0,0.6-0.3,0.6-0.6S45.2,34.5,44.9,34.5z M34.4,37.8
			c-1.5,0-2.8-1.3-2.8-2.8c0-1.5,1.3-2.8,2.8-2.8c1.5,0,2.8,1.3,2.8,2.8C37.2,36.6,36,37.8,34.4,37.8z"/>
		<path class="st1" d="M34.4,46.2c-0.4,0-0.7-0.3-0.7-0.7V39c-1.9-0.3-3.3-2-3.3-4c0-2.2,1.8-4.1,4.1-4.1c2,0,3.7,1.4,4,3.4h6.5
			c0.4,0,0.7,0.3,0.7,0.7s-0.3,0.7-0.7,0.7h-6.5c-0.3,1.7-1.6,3-3.3,3.3v6.5C35.1,45.9,34.8,46.2,34.4,46.2z M34.4,31.2
			c-2.1,0-3.8,1.7-3.8,3.8c0,1.9,1.4,3.5,3.2,3.8l0.1,0v6.7c0,0.2,0.2,0.4,0.4,0.4c0.2,0,0.4-0.2,0.4-0.4v-6.7l0.1,0
			c1.7-0.2,3-1.6,3.2-3.2l0-0.1h6.7c0.2,0,0.4-0.2,0.4-0.4c0-0.2-0.2-0.4-0.4-0.4h-6.7l0-0.1C37.9,32.6,36.3,31.2,34.4,31.2z
			 M34.4,37.9c-1.6,0-2.9-1.3-2.9-2.9s1.3-2.9,2.9-2.9s2.9,1.3,2.9,2.9S36,37.9,34.4,37.9z M34.4,32.4c-1.5,0-2.7,1.2-2.7,2.7
			s1.2,2.7,2.7,2.7s2.7-1.2,2.7-2.7S35.9,32.4,34.4,32.4z"/>
	</g>
</g>
<g>
	<defs>
		<polygon id="SVGID_1_" points="-319.8,1759.8 -319.8,1760.9 -301.9,1760.9 -301.9,1779.8 -300.8,1779.8 -300.8,1759.8 		"/>
	</defs>
	<clipPath id="SVGID_2_">
		<use xlink:href="#SVGID_1_"  style="overflow:visible;"/>
	</clipPath>
	<g class="st10">
		<defs>
			<rect id="SVGID_3_" x="-577.8" y="-2826.2" width="1640" height="5497"/>
		</defs>
		<clipPath id="SVGID_4_">
			<use xlink:href="#SVGID_3_"  style="overflow:visible;"/>
		</clipPath>
	</g>
</g>
<g>
	<defs>
		<polygon id="SVGID_5_" points="-318,1778.8 -318.8,1777.9 -301.6,1759.8 -300.8,1760.6 		"/>
	</defs>
	<clipPath id="SVGID_6_">
		<use xlink:href="#SVGID_5_"  style="overflow:visible;"/>
	</clipPath>
	<g class="st12">
		<defs>
			<rect id="SVGID_7_" x="-577.8" y="-2826.2" width="1640" height="5497"/>
		</defs>
		<clipPath id="SVGID_8_">
			<use xlink:href="#SVGID_7_"  style="overflow:visible;"/>
		</clipPath>
	</g>
</g>
</svg>
