<?xml version="1.0" encoding="utf-8"?>
<!-- Generator: Adobe Illustrator 24.0.0, SVG Export Plug-In . SVG Version: 6.00 Build 0)  -->
<svg version="1.1" id="Layer_1" xmlns="http://www.w3.org/2000/svg" xmlns:xlink="http://www.w3.org/1999/xlink" x="0px" y="0px"
	 viewBox="0 0 70 70" style="enable-background:new 0 0 70 70;" xml:space="preserve">
<style type="text/css">
	.st0{fill:#FF000B;}
	.st1{fill:#989898;}
	.st2{fill:#00B9F1;}
	.st3{fill:#227DBA;}
	.st4{fill:#508D35;}
	.st5{fill:#2CAB9F;}
	.st6{fill:#99D000;}
	.st7{fill:none;stroke:#99D000;stroke-width:0.5743;stroke-miterlimit:10;}
	.st8{fill:none;stroke:#2CAB9F;stroke-width:2.474;stroke-linecap:round;stroke-linejoin:round;stroke-miterlimit:10;}
	.st9{fill:#FFFFFF;}
	.st10{clip-path:url(#SVGID_2_);}
	.st11{clip-path:url(#SVGID_4_);}
	.st12{clip-path:url(#SVGID_6_);}
	.st13{clip-path:url(#SVGID_8_);}
	.st14{filter:url(#Adobe_OpacityMaskFilter);}
	.st15{fill-rule:evenodd;clip-rule:evenodd;fill:#FFFFFF;}
	.st16{mask:url(#mask-2_4_);}
	.st17{fill-rule:evenodd;clip-rule:evenodd;fill:#989898;}
	.st18{filter:url(#Adobe_OpacityMaskFilter_1_);}
	.st19{mask:url(#mask-4_3_);}
	.st20{fill-rule:evenodd;clip-rule:evenodd;fill:#AFD141;}
	.st21{filter:url(#Adobe_OpacityMaskFilter_2_);}
	.st22{mask:url(#mask-6_2_);}
	.st23{filter:url(#Adobe_OpacityMaskFilter_3_);}
	.st24{mask:url(#mask-2_3_);}
	.st25{filter:url(#Adobe_OpacityMaskFilter_4_);}
	.st26{mask:url(#mask-2_2_);}
	.st27{filter:url(#Adobe_OpacityMaskFilter_5_);}
	.st28{mask:url(#mask-4_2_);}
	.st29{filter:url(#Adobe_OpacityMaskFilter_6_);}
	.st30{mask:url(#mask-2_1_);}
	.st31{filter:url(#Adobe_OpacityMaskFilter_7_);}
	.st32{mask:url(#mask-4_1_);}
	.st33{filter:url(#Adobe_OpacityMaskFilter_8_);}
	.st34{mask:url(#mask-6_1_);}
</style>
<g>
	<g>
		<path class="st1" d="M57.8,12.2H12.2c-0.3,0-0.6,0.3-0.6,0.6v45.5c0,0.3,0.3,0.6,0.6,0.6h45.5c0.3,0,0.6-0.3,0.6-0.6V12.8
			C58.4,12.5,58.1,12.2,57.8,12.2z M57.2,57.8H12.8V13.4h44.4V57.8z"/>
	</g>
	<g>
		<g>
			<path class="st2" d="M32.3,27.5c1.9,0,3.5-1.6,3.5-3.5s-1.6-3.5-3.5-3.5S28.8,22,28.8,24S30.4,27.5,32.3,27.5z M32.3,21.6
				c1.3,0,2.4,1.1,2.4,2.4c0,1.3-1.1,2.4-2.4,2.4C31,26.3,30,25.3,30,24C30,22.7,31,21.6,32.3,21.6z"/>
		</g>
	</g>
	<g>
		<g>
			<path class="st2" d="M32.3,39.1c1.9,0,3.5-1.6,3.5-3.5s-1.6-3.5-3.5-3.5s-3.5,1.6-3.5,3.5S30.4,39.1,32.3,39.1z M32.3,33.2
				c1.3,0,2.4,1.1,2.4,2.4S33.6,38,32.3,38C31,38,30,36.9,30,35.6S31,33.2,32.3,33.2z"/>
		</g>
	</g>
	<g>
		<g>
			<path class="st2" d="M32.3,50.8c1.9,0,3.5-1.6,3.5-3.5s-1.6-3.5-3.5-3.5s-3.5,1.6-3.5,3.5S30.4,50.8,32.3,50.8z M32.3,44.9
				c1.3,0,2.4,1.1,2.4,2.4s-1.1,2.4-2.4,2.4c-1.3,0-2.4-1.1-2.4-2.4S31,44.9,32.3,44.9z"/>
		</g>
	</g>
	<g>
		<path class="st1" d="M18.2,50.8h7.4c0.3,0,0.6-0.3,0.6-0.6V21c0-0.3-0.3-0.6-0.6-0.6h-7.4c-0.3,0-0.6,0.3-0.6,0.6v29.1
			C17.6,50.5,17.9,50.8,18.2,50.8z M25,39.1v4.6h-6.2v-4.6H25z M18.8,37.9v-4.6H25v4.6H18.8z M25,32.1h-6.2v-4.6H25V32.1z
			 M18.8,49.6v-4.7H25v4.7H18.8z M25,21.6v4.7h-6.2v-4.7H25z"/>
	</g>
	<g>
		<path class="st1" d="M39,39.1h4.7c0.3,0,0.6-0.3,0.6-0.6V21c0-0.3-0.3-0.6-0.6-0.6H39c-0.3,0-0.6,0.3-0.6,0.6v17.5
			C38.5,38.9,38.7,39.1,39,39.1z M39.6,21.6h3.5V38h-3.5V21.6z"/>
	</g>
	<g>
		<path class="st1" d="M39,50.8h12.8c0.3,0,0.6-0.3,0.6-0.6v-7.7c0-0.3-0.3-0.6-0.6-0.6H39c-0.3,0-0.6,0.3-0.6,0.6v7.7
			C38.5,50.5,38.7,50.8,39,50.8z M39.6,43.1h11.6v6.5H39.6V43.1z"/>
	</g>
	<g>
		<path class="st1" d="M47.1,39.1h4.7c0.3,0,0.6-0.3,0.6-0.6V21c0-0.3-0.3-0.6-0.6-0.6h-4.7c-0.3,0-0.6,0.3-0.6,0.6v17.5
			C46.5,38.9,46.8,39.1,47.1,39.1z M47.7,21.6h3.5V38h-3.5V21.6z"/>
	</g>
	<g>
		<path class="st2" d="M32.3,20.5c1.9,0,3.5,1.6,3.5,3.5s-1.6,3.5-3.5,3.5c-1.9,0-3.5-1.6-3.5-3.5S30.4,20.5,32.3,20.5z"/>
	</g>
	<g>
		<path class="st2" d="M32.3,32.1c1.9,0,3.5,1.6,3.5,3.5c0,1.9-1.6,3.5-3.5,3.5c-1.9,0-3.5-1.6-3.5-3.5
			C28.8,33.7,30.4,32.1,32.3,32.1z"/>
	</g>
	<g>
		<path class="st2" d="M32.3,43.7c1.9,0,3.5,1.6,3.5,3.5c0,1.9-1.6,3.5-3.5,3.5c-1.9,0-3.5-1.6-3.5-3.5
			C28.8,45.3,30.4,43.7,32.3,43.7z"/>
	</g>
</g>
<g>
	<defs>
		<polygon id="SVGID_1_" points="-641.9,2225.3 -641.9,2226.4 -624,2226.4 -624,2245.3 -622.9,2245.3 -622.9,2225.3 		"/>
	</defs>
	<clipPath id="SVGID_2_">
		<use xlink:href="#SVGID_1_"  style="overflow:visible;"/>
	</clipPath>
	<g class="st10">
		<defs>
			<rect id="SVGID_3_" x="-899.9" y="-2360.7" width="1640" height="5497"/>
		</defs>
		<clipPath id="SVGID_4_">
			<use xlink:href="#SVGID_3_"  style="overflow:visible;"/>
		</clipPath>
	</g>
</g>
<g>
	<defs>
		<polygon id="SVGID_5_" points="-640.1,2244.3 -640.9,2243.5 -623.6,2225.3 -622.9,2226.1 		"/>
	</defs>
	<clipPath id="SVGID_6_">
		<use xlink:href="#SVGID_5_"  style="overflow:visible;"/>
	</clipPath>
	<g class="st12">
		<defs>
			<rect id="SVGID_7_" x="-899.9" y="-2360.7" width="1640" height="5497"/>
		</defs>
		<clipPath id="SVGID_8_">
			<use xlink:href="#SVGID_7_"  style="overflow:visible;"/>
		</clipPath>
	</g>
</g>
</svg>
