<?xml version="1.0" encoding="utf-8"?>
<!-- Generator: Adobe Illustrator 24.0.0, SVG Export Plug-In . SVG Version: 6.00 Build 0)  -->
<svg version="1.1" id="Layer_1" xmlns="http://www.w3.org/2000/svg" xmlns:xlink="http://www.w3.org/1999/xlink" x="0px" y="0px"
	 viewBox="0 0 70 70" style="enable-background:new 0 0 70 70;" xml:space="preserve">
<style type="text/css">
	.st0{fill:#FF000B;}
	.st1{fill:#989898;}
	.st2{fill:#00B9F1;}
	.st3{fill:#227DBA;}
	.st4{fill:#508D35;}
	.st5{fill:#2CAB9F;}
	.st6{fill:#99D000;}
	.st7{fill:none;stroke:#99D000;stroke-width:0.5743;stroke-miterlimit:10;}
	.st8{fill:none;stroke:#2CAB9F;stroke-width:2.474;stroke-linecap:round;stroke-linejoin:round;stroke-miterlimit:10;}
	.st9{fill:#FFFFFF;}
	.st10{clip-path:url(#SVGID_2_);}
	.st11{clip-path:url(#SVGID_4_);}
	.st12{clip-path:url(#SVGID_6_);}
	.st13{clip-path:url(#SVGID_8_);}
	.st14{filter:url(#Adobe_OpacityMaskFilter);}
	.st15{fill-rule:evenodd;clip-rule:evenodd;fill:#FFFFFF;}
	.st16{mask:url(#mask-2_4_);}
	.st17{fill-rule:evenodd;clip-rule:evenodd;fill:#989898;}
	.st18{filter:url(#Adobe_OpacityMaskFilter_1_);}
	.st19{mask:url(#mask-4_3_);}
	.st20{fill-rule:evenodd;clip-rule:evenodd;fill:#AFD141;}
	.st21{filter:url(#Adobe_OpacityMaskFilter_2_);}
	.st22{mask:url(#mask-6_2_);}
	.st23{filter:url(#Adobe_OpacityMaskFilter_3_);}
	.st24{mask:url(#mask-2_3_);}
	.st25{filter:url(#Adobe_OpacityMaskFilter_4_);}
	.st26{mask:url(#mask-2_2_);}
	.st27{filter:url(#Adobe_OpacityMaskFilter_5_);}
	.st28{mask:url(#mask-4_2_);}
	.st29{filter:url(#Adobe_OpacityMaskFilter_6_);}
	.st30{mask:url(#mask-2_1_);}
	.st31{filter:url(#Adobe_OpacityMaskFilter_7_);}
	.st32{mask:url(#mask-4_1_);}
	.st33{filter:url(#Adobe_OpacityMaskFilter_8_);}
	.st34{mask:url(#mask-6_1_);}
</style>
<g>
	<g>
		<path class="st1" d="M35,44.8c5.4,0,9.8-4.4,9.8-9.8s-4.4-9.8-9.8-9.8s-9.8,4.4-9.8,9.8S29.6,44.8,35,44.8z M35,26c4.9,0,9,4,9,9
			s-4,9-9,9s-9-4-9-9S30.1,26,35,26z"/>
		<path class="st1" d="M35,44.9c-5.5,0-9.9-4.5-9.9-9.9s4.5-9.9,9.9-9.9s9.9,4.5,9.9,9.9S40.5,44.9,35,44.9z M35,25.3
			c-5.3,0-9.7,4.3-9.7,9.7c0,5.3,4.3,9.7,9.7,9.7c5.3,0,9.7-4.3,9.7-9.7C44.7,29.7,40.3,25.3,35,25.3z M35,44.1
			c-5,0-9.1-4.1-9.1-9.1s4.1-9.1,9.1-9.1s9.1,4.1,9.1,9.1S40,44.1,35,44.1z M35,26.2c-4.9,0-8.8,4-8.8,8.8s4,8.8,8.8,8.8
			s8.8-4,8.8-8.8S39.9,26.2,35,26.2z"/>
	</g>
	<g>
		<path class="st1" d="M29.6,33.4c0.2,0,0.4-0.1,0.5-0.4c0.1-0.6,0.6-1,1.1-1c0.6,0,1,0.4,1.1,1c0,0.2,0.2,0.4,0.4,0.4
			c0,0,0,0,0.1,0c0.2,0,0.4-0.2,0.4-0.5c-0.1-1-1-1.7-2-1.7s-1.8,0.7-2,1.7C29.2,33.2,29.4,33.4,29.6,33.4z"/>
		<path class="st1" d="M29.7,33.6C29.6,33.6,29.6,33.6,29.7,33.6L29.7,33.6c-0.4,0-0.6-0.3-0.5-0.6c0.1-1,1-1.8,2.1-1.8
			c1,0,1.9,0.8,2.1,1.8c0,0.1,0,0.3-0.1,0.4c-0.1,0.1-0.2,0.2-0.4,0.2c0,0-0.1,0-0.1,0c-0.3,0-0.5-0.2-0.5-0.5
			c-0.1-0.5-0.5-0.9-1-0.9c-0.5,0-0.9,0.4-1,0.9c0,0.1-0.1,0.3-0.2,0.4C29.9,33.5,29.8,33.6,29.7,33.6z M31.2,31.4
			c-0.9,0-1.7,0.7-1.8,1.6c0,0.1,0,0.2,0.1,0.2c0,0.1,0.1,0.1,0.2,0.1h0c0.1,0,0.2,0,0.2-0.1c0.1,0,0.1-0.1,0.1-0.2
			c0.1-0.6,0.6-1.1,1.2-1.1c0.6,0,1.2,0.5,1.2,1.1c0,0.2,0.2,0.3,0.3,0.3c0.1,0,0.1-0.1,0.2-0.1c0-0.1,0.1-0.1,0.1-0.2
			C32.9,32.1,32.1,31.4,31.2,31.4z"/>
	</g>
	<g>
		<path class="st1" d="M37.2,33.4c0.2,0,0.4-0.1,0.5-0.4c0.1-0.6,0.6-1,1.1-1c0.6,0,1,0.4,1.1,1c0,0.2,0.2,0.4,0.4,0.4
			c0,0,0,0,0.1,0c0.2,0,0.4-0.2,0.4-0.5c-0.1-1-1-1.7-2-1.7c-1,0-1.8,0.7-2,1.7C36.8,33.2,37,33.4,37.2,33.4z"/>
		<path class="st1" d="M37.3,33.6C37.2,33.6,37.2,33.6,37.3,33.6L37.3,33.6c-0.4,0-0.6-0.3-0.5-0.6c0.1-1,1-1.8,2.1-1.8
			c1,0,1.9,0.8,2.1,1.8c0,0.1,0,0.3-0.1,0.4c-0.1,0.1-0.2,0.2-0.4,0.2c-0.3,0-0.6-0.2-0.6-0.5c-0.1-0.5-0.5-0.9-1-0.9
			c-0.5,0-0.9,0.4-1,0.9c0,0.1-0.1,0.3-0.2,0.4C37.5,33.5,37.4,33.6,37.3,33.6z M38.8,31.4c-0.9,0-1.7,0.7-1.8,1.6
			c0,0.1,0,0.2,0.1,0.2c0,0.1,0.1,0.1,0.2,0.1h0c0.1,0,0.2,0,0.2-0.1c0.1,0,0.1-0.1,0.1-0.2c0.1-0.6,0.6-1.1,1.2-1.1
			c0.6,0,1.2,0.5,1.2,1.1c0,0.2,0.2,0.3,0.3,0.3c0.1,0,0.1-0.1,0.2-0.1c0-0.1,0.1-0.1,0.1-0.2C40.5,32.1,39.7,31.4,38.8,31.4z"/>
	</g>
	<g>
		<path class="st1" d="M35,41c0.7,0,1.3-0.3,1.7-0.8c0.2-0.2,0.1-0.4,0-0.6c-0.2-0.2-0.4-0.1-0.6,0c-0.3,0.3-0.7,0.5-1.1,0.5
			s-0.8-0.2-1.1-0.5c-0.2-0.2-0.4-0.2-0.6,0c-0.2,0.2-0.2,0.4,0,0.6C33.7,40.7,34.3,41,35,41z"/>
		<path class="st1" d="M35,41.1c-0.7,0-1.4-0.3-1.8-0.8C33.1,40.2,33,40,33,39.9c0-0.1,0.1-0.3,0.2-0.4c0.2-0.2,0.6-0.2,0.8,0
			c0.3,0.3,0.6,0.5,1,0.5c0.4,0,0.8-0.2,1-0.5c0.2-0.2,0.6-0.2,0.8,0c0.2,0.2,0.2,0.5,0,0.8C36.4,40.8,35.7,41.1,35,41.1z
			 M33.6,39.6c-0.1,0-0.1,0-0.2,0.1c-0.1,0.1-0.1,0.1-0.1,0.2s0,0.2,0.1,0.2c0.4,0.5,1,0.7,1.6,0.7s1.2-0.3,1.6-0.7
			c0.1-0.1,0.1-0.3,0-0.4c-0.1-0.1-0.3-0.1-0.4,0c-0.3,0.3-0.7,0.5-1.2,0.5c-0.5,0-0.9-0.2-1.2-0.5C33.7,39.7,33.7,39.6,33.6,39.6z"
			/>
	</g>
	<g>
		<path class="st6" d="M35.4,21.7v-3.2c0-0.2-0.2-0.4-0.4-0.4s-0.4,0.2-0.4,0.4v3.2c0,0.2,0.2,0.4,0.4,0.4S35.4,22,35.4,21.7z"/>
		<path class="st6" d="M35,22.5c-0.4,0-0.7-0.3-0.7-0.7v-3.2c0-0.4,0.3-0.7,0.7-0.7s0.7,0.3,0.7,0.7v3.2
			C35.7,22.1,35.4,22.5,35,22.5z M35,18.4c-0.1,0-0.1,0.1-0.1,0.1v3.2c0,0.1,0.3,0.1,0.3,0v-3.2C35.1,18.5,35.1,18.4,35,18.4z"/>
	</g>
	<g>
		<path class="st6" d="M41.6,23.1c0.2,0,0.3-0.1,0.4-0.2l1.5-2.8c0.1-0.2,0-0.5-0.2-0.6c-0.2-0.1-0.5,0-0.6,0.2l-1.5,2.8
			c-0.1,0.2,0,0.5,0.2,0.6C41.4,23.1,41.5,23.1,41.6,23.1z"/>
		<path class="st6" d="M41.6,23.4c-0.1,0-0.2,0-0.3-0.1c-0.2-0.1-0.3-0.2-0.4-0.4c-0.1-0.2,0-0.4,0-0.5l1.5-2.8
			c0.2-0.3,0.6-0.5,1-0.3c0.2,0.1,0.3,0.2,0.4,0.4c0.1,0.2,0,0.4,0,0.5L42.2,23C42.1,23.3,41.8,23.4,41.6,23.4z M43,19.8
			c-0.1,0-0.1,0-0.1,0.1l-1.5,2.8c0,0.1,0,0.2,0.1,0.2l0.1,0c0,0,0.1,0,0.1-0.1l1.5-2.8c0,0,0-0.1,0-0.1
			C43.1,19.8,43.1,19.8,43,19.8C43.1,19.8,43,19.8,43,19.8z"/>
	</g>
	<g>
		<path class="st6" d="M28.4,23.1c0.1,0,0.1,0,0.2,0c0.2-0.1,0.3-0.4,0.2-0.6l-1.5-2.8c-0.1-0.2-0.4-0.3-0.6-0.2
			c-0.2,0.1-0.3,0.4-0.2,0.6l1.5,2.8C28.1,23.1,28.3,23.1,28.4,23.1z"/>
		<path class="st6" d="M28.4,23.4c-0.3,0-0.5-0.1-0.6-0.4l-1.5-2.8c-0.1-0.2-0.1-0.4,0-0.5c0.1-0.2,0.2-0.3,0.4-0.4
			c0.2-0.1,0.4-0.1,0.5,0c0.2,0.1,0.3,0.2,0.4,0.4l1.5,2.8c0.2,0.3,0,0.8-0.3,1C28.7,23.4,28.5,23.4,28.4,23.4z M27,19.8
			C27,19.8,26.9,19.8,27,19.8c-0.1,0-0.1,0.1-0.1,0.2l1.5,2.8c0,0.1,0.1,0.1,0.2,0.1c0.1,0,0.1-0.1,0.1-0.2l-1.5-2.8
			C27.1,19.8,27,19.8,27,19.8C27,19.8,27,19.8,27,19.8z"/>
	</g>
	<g>
		<path class="st6" d="M34.6,48.3v3.2c0,0.2,0.2,0.4,0.4,0.4s0.4-0.2,0.4-0.4v-3.2c0-0.2-0.2-0.4-0.4-0.4S34.6,48,34.6,48.3z"/>
		<path class="st6" d="M35,52.1c-0.4,0-0.7-0.3-0.7-0.7v-3.2c0-0.4,0.3-0.7,0.7-0.7s0.7,0.3,0.7,0.7v3.2
			C35.7,51.8,35.4,52.1,35,52.1z M35,48.1c-0.1,0-0.1,0.1-0.1,0.1v3.2c0,0.1,0.3,0.1,0.3,0v-3.2C35.1,48.2,35.1,48.1,35,48.1z"/>
	</g>
	<g>
		<path class="st6" d="M28.6,46.9c-0.2-0.1-0.5,0-0.6,0.2l-1.5,2.8c-0.1,0.2,0,0.5,0.2,0.6c0.1,0,0.1,0,0.2,0c0.2,0,0.3-0.1,0.4-0.2
			l1.5-2.8C28.9,47.3,28.8,47,28.6,46.9z"/>
		<path class="st6" d="M27,50.8c-0.1,0-0.2,0-0.3-0.1c-0.2-0.1-0.3-0.2-0.3-0.4c-0.1-0.2,0-0.4,0-0.5l1.5-2.8
			c0.1-0.2,0.2-0.3,0.4-0.4c0.2-0.1,0.4,0,0.5,0c0.3,0.2,0.5,0.6,0.3,1l-1.5,2.8C27.5,50.7,27.2,50.8,27,50.8z M28.4,47.1
			c-0.1,0-0.1,0-0.1,0.1L26.9,50c0,0.1,0,0.2,0.1,0.2c0.1,0,0.2,0,0.2-0.1l1.5-2.8C28.6,47.3,28.6,47.2,28.4,47.1
			C28.5,47.1,28.5,47.1,28.4,47.1z"/>
	</g>
	<g>
		<path class="st6" d="M41.4,46.9c-0.2,0.1-0.3,0.4-0.2,0.6l1.5,2.8c0.1,0.1,0.2,0.2,0.4,0.2c0.1,0,0.1,0,0.2,0
			c0.2-0.1,0.3-0.4,0.2-0.6l-1.5-2.8C41.8,46.9,41.6,46.8,41.4,46.9z"/>
		<path class="st6" d="M43,50.8c-0.3,0-0.5-0.1-0.6-0.4l-1.5-2.8c-0.1-0.2-0.1-0.4,0-0.5c0.1-0.2,0.2-0.3,0.4-0.4l0,0
			c0.2-0.1,0.4-0.1,0.5,0c0.2,0.1,0.3,0.2,0.4,0.4l1.5,2.8c0.1,0.2,0.1,0.4,0,0.5c-0.1,0.2-0.2,0.3-0.4,0.4
			C43.2,50.8,43.1,50.8,43,50.8z M41.6,47.1C41.5,47.1,41.5,47.1,41.6,47.1L41.6,47.1c-0.1,0-0.1,0.1-0.1,0.2l1.5,2.8
			c0,0.1,0.1,0.1,0.1,0.1c0.1,0,0.1-0.1,0.1-0.1c0,0,0-0.1,0-0.1l-1.5-2.8C41.7,47.2,41.6,47.2,41.6,47.1
			C41.6,47.1,41.6,47.1,41.6,47.1z"/>
	</g>
</g>
<g>
	<defs>
		<polygon id="SVGID_1_" points="-1138.9,1912.7 -1138.9,1913.9 -1121.1,1913.9 -1121.1,1932.7 -1119.9,1932.7 -1119.9,1912.7 		"/>
	</defs>
	<clipPath id="SVGID_2_">
		<use xlink:href="#SVGID_1_"  style="overflow:visible;"/>
	</clipPath>
	<g class="st10">
		<defs>
			<rect id="SVGID_3_" x="-1396.9" y="-2673.3" width="1640" height="5497"/>
		</defs>
		<clipPath id="SVGID_4_">
			<use xlink:href="#SVGID_3_"  style="overflow:visible;"/>
		</clipPath>
	</g>
</g>
<g>
	<defs>
		<polygon id="SVGID_5_" points="-1137.2,1931.7 -1137.9,1930.9 -1120.7,1912.7 -1119.9,1913.5 		"/>
	</defs>
	<clipPath id="SVGID_6_">
		<use xlink:href="#SVGID_5_"  style="overflow:visible;"/>
	</clipPath>
	<g class="st12">
		<defs>
			<rect id="SVGID_7_" x="-1396.9" y="-2673.3" width="1640" height="5497"/>
		</defs>
		<clipPath id="SVGID_8_">
			<use xlink:href="#SVGID_7_"  style="overflow:visible;"/>
		</clipPath>
	</g>
</g>
</svg>
