<?xml version="1.0" encoding="utf-8"?>
<!-- Generator: Adobe Illustrator 24.0.0, SVG Export Plug-In . SVG Version: 6.00 Build 0)  -->
<svg version="1.1" id="Layer_1" xmlns="http://www.w3.org/2000/svg" xmlns:xlink="http://www.w3.org/1999/xlink" x="0px" y="0px"
	 viewBox="0 0 70 70" style="enable-background:new 0 0 70 70;" xml:space="preserve">
<style type="text/css">
	.st0{fill:#989898;stroke:#989898;stroke-width:0.22;stroke-miterlimit:10;}
	.st1{fill:#99D000;stroke:#99D000;stroke-width:0.22;stroke-miterlimit:10;}
</style>
<title>SCG-Waste-Mgmt</title>
<path class="st0" d="M21.6,23.8L23.1,55c0,0.3,0.2,0.5,0.5,0.5c0,0,0,0,0,0h22.7c0.3,0,0.5-0.2,0.5-0.5c0,0,0,0,0,0l1.5-31.3H49
	c1.1,0,1.9-0.9,1.9-1.9v-2.4c0-1-0.9-1.9-1.9-1.9h-6.7c-0.1-1.7-1.6-3.1-3.3-3.1h-8c-1.8,0-3.2,1.4-3.3,3.1H21c-1,0-1.9,0.8-1.9,1.9
	v2.3c0,1.1,0.8,1.9,1.9,1.9c0,0,0,0,0,0H21.6z M45.9,54.5H24.1l-1.5-30.7h24.7L45.9,54.5z M31,15.5h8c1.2,0,2.2,0.9,2.3,2.1H28.7
	C28.8,16.4,29.8,15.5,31,15.5z M20.1,21.9v-2.4c0-0.5,0.4-0.9,0.9-0.9c0,0,0,0,0,0h28c0.5,0,0.9,0.4,0.9,0.9c0,0,0,0,0,0v2.3
	c0,0.5-0.4,0.9-0.9,0.9c0,0,0,0,0,0H21C20.5,22.7,20.1,22.4,20.1,21.9C20.1,21.9,20.1,21.9,20.1,21.9L20.1,21.9z"/>
<path class="st1" d="M35.6,29.3c-0.1-0.1-0.3-0.1-0.5,0c-0.2,0.2-6,5.8-6,10.6c0,3.4,2.5,6.2,5.9,6.5v1.9c0,0.2,0.2,0.3,0.3,0.3
	c0.2,0,0.4-0.2,0.4-0.3v-1.9c3.4-0.3,6-3.1,5.9-6.5C41.6,35.2,35.8,29.5,35.6,29.3z M40.6,38.1l-4.9,4.7v-4.6l3.5-3.3
	C39.8,35.9,40.3,36.9,40.6,38.1L40.6,38.1z M31.5,34.8l3.5,3.3v4.6L30,38C30.4,36.9,30.9,35.8,31.5,34.8L31.5,34.8z M35.6,37.2v-6.8
	c1.1,1.2,2.2,2.5,3.1,3.9L35.6,37.2z M35,30.4v6.8l-3.1-3C32.8,32.8,33.9,31.5,35,30.4z M29.8,39.9c0-0.3,0-0.7,0.1-1l5.1,4.8v1.9
	C32,45.4,29.7,42.9,29.8,39.9z M35.7,45.7v-1.9l5.1-4.9c0.1,0.3,0.1,0.7,0.1,1C41,42.9,38.7,45.4,35.7,45.7z"/>
</svg>
