<?xml version="1.0" encoding="utf-8"?>
<!-- Generator: Adobe Illustrator 24.0.0, SVG Export Plug-In . SVG Version: 6.00 Build 0)  -->
<svg version="1.1" id="Layer_1" xmlns="http://www.w3.org/2000/svg" xmlns:xlink="http://www.w3.org/1999/xlink" x="0px" y="0px"
	 viewBox="0 0 70 70" style="enable-background:new 0 0 70 70;" xml:space="preserve">
<style type="text/css">
	.st0{fill:#FF000B;}
	.st1{fill:#989898;}
	.st2{fill:#00B9F1;}
	.st3{fill:#227DBA;}
	.st4{fill:#508D35;}
	.st5{fill:#2CAB9F;}
	.st6{fill:#99D000;}
	.st7{fill:none;stroke:#99D000;stroke-width:0.5743;stroke-miterlimit:10;}
	.st8{fill:none;stroke:#2CAB9F;stroke-width:2.474;stroke-linecap:round;stroke-linejoin:round;stroke-miterlimit:10;}
	.st9{fill:#FFFFFF;}
	.st10{clip-path:url(#SVGID_2_);}
	.st11{clip-path:url(#SVGID_4_);}
	.st12{clip-path:url(#SVGID_6_);}
	.st13{clip-path:url(#SVGID_8_);}
	.st14{filter:url(#Adobe_OpacityMaskFilter);}
	.st15{fill-rule:evenodd;clip-rule:evenodd;fill:#FFFFFF;}
	.st16{mask:url(#mask-2_4_);}
	.st17{fill-rule:evenodd;clip-rule:evenodd;fill:#989898;}
	.st18{filter:url(#Adobe_OpacityMaskFilter_1_);}
	.st19{mask:url(#mask-4_3_);}
	.st20{fill-rule:evenodd;clip-rule:evenodd;fill:#AFD141;}
	.st21{filter:url(#Adobe_OpacityMaskFilter_2_);}
	.st22{mask:url(#mask-6_2_);}
	.st23{filter:url(#Adobe_OpacityMaskFilter_3_);}
	.st24{mask:url(#mask-2_3_);}
	.st25{filter:url(#Adobe_OpacityMaskFilter_4_);}
	.st26{mask:url(#mask-2_2_);}
	.st27{filter:url(#Adobe_OpacityMaskFilter_5_);}
	.st28{mask:url(#mask-4_2_);}
	.st29{filter:url(#Adobe_OpacityMaskFilter_6_);}
	.st30{mask:url(#mask-2_1_);}
	.st31{filter:url(#Adobe_OpacityMaskFilter_7_);}
	.st32{mask:url(#mask-4_1_);}
	.st33{filter:url(#Adobe_OpacityMaskFilter_8_);}
	.st34{mask:url(#mask-6_1_);}
</style>
<g>
	<path class="st1" d="M13.7,24.7v2.9H9.5c-0.4,0-0.7,0.3-0.7,0.7v10c0,0.4,0.3,0.7,0.7,0.7h4.2v3.3c0,1.8,1.4,3.2,3.2,3.2h10.6
		c1.4,0,2.7-0.9,3.1-2.3l0.3-0.9c0.2-0.8,1-1.4,1.8-1.4h4.6c0.8,0,1.6,0.5,1.8,1.4l0.3,0.9c0.4,1.4,1.7,2.3,3.1,2.3h10.6
		c1.8,0,3.2-1.4,3.2-3.2v-3.3h4.2c0.4,0,0.7-0.3,0.7-0.7v-10c0-0.4-0.3-0.7-0.7-0.7h-4.2v-2.9c0-1.8-1.4-3.2-3.2-3.2H16.9
		C15.1,21.5,13.7,22.9,13.7,24.7z M10.2,37.6v-8.7h3.5v8.7H10.2z M53.1,44.1H42.5c-0.8,0-1.6-0.5-1.8-1.4l-0.3-0.9
		c-0.4-1.4-1.7-2.3-3.1-2.3h-4.6c-1.4,0-2.7,0.9-3.1,2.3l-0.3,0.9c-0.2,0.8-1,1.4-1.8,1.4H16.9c-1.1,0-1.9-0.9-1.9-1.9V28h40v14.2
		C55,43.2,54.1,44.1,53.1,44.1z M59.8,28.9v8.7h-3.5v-8.7H59.8z M55,24.7v2H15v-2c0-1.1,0.9-1.9,1.9-1.9h36.2
		C54.1,22.8,55,23.6,55,24.7z"/>
	<path class="st1" d="M53.1,45.5H42.5c-1.5,0-2.8-1-3.2-2.4L39,42.2c-0.2-0.8-0.9-1.3-1.7-1.3h-4.6c-0.8,0-1.5,0.5-1.7,1.3l-0.3,0.9
		c-0.4,1.4-1.7,2.4-3.2,2.4H16.9c-1.8,0-3.3-1.5-3.3-3.3V39h-4c-0.4,0-0.8-0.3-0.8-0.8v-10c0-0.4,0.3-0.8,0.8-0.8h4v-2.7
		c0-1.8,1.5-3.3,3.3-3.3h36.2c1.8,0,3.3,1.5,3.3,3.3v2.7h4c0.4,0,0.8,0.3,0.8,0.8v10c0,0.4-0.3,0.8-0.8,0.8h-4v3.2
		C56.4,44,54.9,45.5,53.1,45.5z M32.7,40.7h4.6c0.9,0,1.7,0.6,2,1.4l0.3,0.9c0.4,1.3,1.6,2.2,3,2.2h10.6c1.7,0,3.1-1.4,3.1-3.1v-3.4
		h4.3c0.3,0,0.5-0.2,0.5-0.5v-10c0-0.3-0.2-0.5-0.5-0.5h-4.3v-3c0-1.7-1.4-3.1-3.1-3.1H16.9c-1.7,0-3.1,1.4-3.1,3.1v3H9.5
		c-0.3,0-0.5,0.2-0.5,0.5v10c0,0.3,0.2,0.5,0.5,0.5h4.3v3.4c0,1.7,1.4,3.1,3.1,3.1h10.6c1.4,0,2.6-0.9,3-2.2l0.3-0.9
		C31,41.3,31.8,40.7,32.7,40.7z M53.1,44.2H42.5c-0.9,0-1.7-0.6-2-1.4l-0.3-0.9c-0.4-1.3-1.6-2.2-3-2.2h-4.6c-1.4,0-2.6,0.9-3,2.2
		l-0.3,0.9c-0.3,0.9-1,1.4-2,1.4H16.9c-1.1,0-2-0.9-2-2V27.8h40.3v14.4C55.1,43.3,54.2,44.2,53.1,44.2z M32.7,39.4h4.6
		c1.5,0,2.8,1,3.2,2.4l0.3,0.9c0.2,0.8,0.9,1.3,1.7,1.3h10.6c1,0,1.8-0.8,1.8-1.8V28.1H15.1v14.1c0,1,0.8,1.8,1.8,1.8h10.6
		c0.8,0,1.5-0.5,1.7-1.3l0.3-0.9C29.9,40.4,31.2,39.4,32.7,39.4z M60,37.7h-3.8v-9H60V37.7z M56.4,37.5h3.3V29h-3.3V37.5z
		 M13.8,37.7H10v-9h3.8V37.7z M10.3,37.5h3.3V29h-3.3V37.5z M55.1,26.8H14.9v-2.1c0-1.1,0.9-2,2-2h36.2c1.1,0,2,0.9,2,2V26.8z
		 M15.1,26.5h39.8v-1.8c0-1-0.8-1.8-1.8-1.8H16.9c-1,0-1.8,0.8-1.8,1.8V26.5z"/>
</g>
<g>
	<path class="st0" d="M35.7,15.6V8c0-0.4-0.3-0.7-0.7-0.7S34.3,7.6,34.3,8v7.6c0,0.4,0.3,0.7,0.7,0.7S35.7,15.9,35.7,15.6z"/>
</g>
<g>
	<path class="st0" d="M35.7,58.9v-7.6c0-0.4-0.3-0.7-0.7-0.7s-0.7,0.3-0.7,0.7v7.6c0,0.4,0.3,0.7,0.7,0.7S35.7,59.3,35.7,58.9z"/>
</g>
<g>
	<path class="st0" d="M24.8,15.1c0.1,0,0.2,0,0.3-0.1c0.3-0.2,0.4-0.6,0.3-0.9l-2.3-4.4c-0.2-0.3-0.6-0.4-0.9-0.3
		c-0.3,0.2-0.4,0.6-0.3,0.9l2.3,4.4C24.4,14.9,24.6,15.1,24.8,15.1z"/>
</g>
<g>
	<path class="st0" d="M45.2,15.1c0.2,0,0.5-0.1,0.6-0.4l2.3-4.4c0.2-0.3,0-0.7-0.3-0.9c-0.3-0.2-0.7,0-0.9,0.3l-2.3,4.4
		c-0.2,0.3,0,0.7,0.3,0.9C45,15,45.1,15.1,45.2,15.1z"/>
</g>
<g>
	<path class="st0" d="M47.4,57.5c0.1,0,0.2,0,0.3-0.1c0.3-0.2,0.4-0.6,0.3-0.9l-2.3-4.4c-0.2-0.3-0.6-0.4-0.9-0.3
		c-0.3,0.2-0.4,0.6-0.3,0.9l2.3,4.4C47,57.4,47.2,57.5,47.4,57.5z"/>
</g>
<g>
	<path class="st0" d="M22.6,57.5c0.2,0,0.5-0.1,0.6-0.4l2.3-4.4c0.2-0.3,0-0.7-0.3-0.9c-0.3-0.2-0.7,0-0.9,0.3L22,56.6
		c-0.2,0.3,0,0.7,0.3,0.9C22.4,57.5,22.5,57.5,22.6,57.5z"/>
</g>
<g>
	<path class="st0" d="M50.6,36.4l-3,3c-0.3,0.3-0.3,0.7,0,0.9c0.1,0.1,0.3,0.2,0.5,0.2c0.2,0,0.3-0.1,0.5-0.2l3-3
		c0.3-0.3,0.3-0.7,0-0.9C51.3,36.2,50.9,36.2,50.6,36.4z"/>
</g>
<g>
	<path class="st0" d="M50.1,32.3c-0.3-0.3-0.7-0.3-0.9,0l-5.6,5.6c-0.3,0.3-0.3,0.7,0,0.9c0.1,0.1,0.3,0.2,0.5,0.2
		c0.2,0,0.3-0.1,0.5-0.2l5.6-5.6C50.3,33,50.3,32.6,50.1,32.3z"/>
</g>
<g>
	<defs>
		<polygon id="SVGID_1_" points="-425.9,1759.8 -425.9,1760.9 -408,1760.9 -408,1779.8 -406.9,1779.8 -406.9,1759.8 		"/>
	</defs>
	<clipPath id="SVGID_2_">
		<use xlink:href="#SVGID_1_"  style="overflow:visible;"/>
	</clipPath>
	<g class="st10">
		<defs>
			<rect id="SVGID_3_" x="-683.9" y="-2826.2" width="1640" height="5497"/>
		</defs>
		<clipPath id="SVGID_4_">
			<use xlink:href="#SVGID_3_"  style="overflow:visible;"/>
		</clipPath>
	</g>
</g>
<g>
	<defs>
		<polygon id="SVGID_5_" points="-424.1,1778.8 -424.9,1777.9 -407.6,1759.8 -406.9,1760.6 		"/>
	</defs>
	<clipPath id="SVGID_6_">
		<use xlink:href="#SVGID_5_"  style="overflow:visible;"/>
	</clipPath>
	<g class="st12">
		<defs>
			<rect id="SVGID_7_" x="-683.9" y="-2826.2" width="1640" height="5497"/>
		</defs>
		<clipPath id="SVGID_8_">
			<use xlink:href="#SVGID_7_"  style="overflow:visible;"/>
		</clipPath>
	</g>
</g>
</svg>
