<?xml version="1.0" encoding="utf-8"?>
<!-- Generator: Adobe Illustrator 24.0.0, SVG Export Plug-In . SVG Version: 6.00 Build 0)  -->
<svg version="1.1" id="Layer_1" xmlns="http://www.w3.org/2000/svg" xmlns:xlink="http://www.w3.org/1999/xlink" x="0px" y="0px"
	 viewBox="0 0 70 70" style="enable-background:new 0 0 70 70;" xml:space="preserve">
<style type="text/css">
	.st0{fill:#99D000;stroke:#99D000;stroke-width:0.23;stroke-miterlimit:10;}
	.st1{fill:#989898;}
</style>
<title>SCG-Clean-Energy</title>
<path class="st0" d="M41.6,36.9c-0.1-2.6-1.1-5-2.8-6.9c-0.1-0.1-0.3-0.2-0.5-0.1c-0.7,0.4-1.7,0.9-2.2,0.5
	c-0.8-0.5-0.8-2.5-0.7-3.3c0-0.2-0.1-0.4-0.3-0.4c-0.1,0-0.2,0-0.3,0.1c-0.3,0.2-6.4,5.9-6.4,10c0.1,3.4,2.7,6.1,6.1,6.3h0.4H35
	C38.5,43.2,41.5,40.4,41.6,36.9z M32,39.8c0-1.2,1.9-3.7,2.9-4.9c1,1.2,2.9,3.7,2.9,4.9c0,1.5-1.3,2.7-2.8,2.7h-0.4
	C33.2,42.4,32.1,41.2,32,39.8z M37.8,41.8c0.4-0.6,0.7-1.3,0.7-2c0-1.8-3-5.3-3.3-5.7c-0.2-0.2-0.4-0.2-0.6,0c0,0,0,0,0,0
	c-0.3,0.4-3.3,3.9-3.3,5.7c0,0.7,0.2,1.3,0.5,1.8c-1.7-1-2.7-2.8-2.7-4.7c0-3,3.8-7.2,5.4-8.8c0,1,0.2,2.4,1.1,3
	c0.7,0.4,1.6,0.3,2.8-0.4c1.5,1.7,2.3,3.9,2.4,6.1C40.8,38.9,39.7,40.8,37.8,41.8L37.8,41.8z"/>
<path class="st1" d="M17.5,35c0,8.6,6.4,15.9,15,16.8h0.1c0.4,0,0.7-0.3,0.8-0.7c0-0.4-0.3-0.8-0.7-0.9c-8.4-0.9-14.4-8.5-13.5-16.9
	c0.8-6.8,6-12.3,12.8-13.4l-1,1c-0.3,0.3-0.3,0.8,0,1.1c0.3,0.3,0.8,0.3,1.1,0l2.5-2.5c0.3-0.3,0.3-0.8,0-1.1L32,15.9
	c-0.3-0.3-0.8-0.3-1.1,0c0,0,0,0,0,0c-0.3,0.3-0.3,0.8,0,1.1l1.3,1.3C23.8,19.4,17.5,26.6,17.5,35z"/>
<path class="st1" d="M37.3,19.8c8.4,0.9,14.5,8.4,13.6,16.8c-0.7,6.9-6,12.4-12.8,13.5l1-1c0.3-0.3,0.2-0.8-0.1-1.1
	c-0.3-0.3-0.7-0.3-1,0l-2.5,2.5c-0.3,0.3-0.3,0.8,0,1.1l2.5,2.5c0.1,0.1,0.3,0.2,0.5,0.2c0.2,0,0.4-0.1,0.5-0.2
	c0.3-0.3,0.3-0.8,0-1.1l-1.3-1.3C47,50.5,53.5,42,52.3,32.8c-1-7.7-7.2-13.7-14.9-14.6c-0.4,0-0.8,0.3-0.8,0.7
	C36.6,19.4,36.9,19.7,37.3,19.8z"/>
</svg>
