<?xml version="1.0" encoding="utf-8"?>
<!-- Generator: Adobe Illustrator 24.0.0, SVG Export Plug-In . SVG Version: 6.00 Build 0)  -->
<svg version="1.1" id="Layer_1" xmlns="http://www.w3.org/2000/svg" xmlns:xlink="http://www.w3.org/1999/xlink" x="0px" y="0px"
	 viewBox="0 0 70 70" style="enable-background:new 0 0 70 70;" xml:space="preserve">
<style type="text/css">
	.st0{fill:#FF000B;}
	.st1{fill:#989898;}
	.st2{fill:#00B9F1;}
	.st3{fill:#227DBA;}
	.st4{fill:#508D35;}
	.st5{fill:#2CAB9F;}
	.st6{fill:#99D000;}
	.st7{fill:none;stroke:#99D000;stroke-width:0.5743;stroke-miterlimit:10;}
	.st8{fill:none;stroke:#2CAB9F;stroke-width:2.474;stroke-linecap:round;stroke-linejoin:round;stroke-miterlimit:10;}
	.st9{fill:#FFFFFF;}
	.st10{clip-path:url(#SVGID_2_);}
	.st11{clip-path:url(#SVGID_4_);}
	.st12{clip-path:url(#SVGID_6_);}
	.st13{clip-path:url(#SVGID_8_);}
	.st14{filter:url(#Adobe_OpacityMaskFilter);}
	.st15{fill-rule:evenodd;clip-rule:evenodd;fill:#FFFFFF;}
	.st16{mask:url(#mask-2_4_);}
	.st17{fill-rule:evenodd;clip-rule:evenodd;fill:#989898;}
	.st18{filter:url(#Adobe_OpacityMaskFilter_1_);}
	.st19{mask:url(#mask-4_3_);}
	.st20{fill-rule:evenodd;clip-rule:evenodd;fill:#AFD141;}
	.st21{filter:url(#Adobe_OpacityMaskFilter_2_);}
	.st22{mask:url(#mask-6_2_);}
	.st23{filter:url(#Adobe_OpacityMaskFilter_3_);}
	.st24{mask:url(#mask-2_3_);}
	.st25{filter:url(#Adobe_OpacityMaskFilter_4_);}
	.st26{mask:url(#mask-2_2_);}
	.st27{filter:url(#Adobe_OpacityMaskFilter_5_);}
	.st28{mask:url(#mask-4_2_);}
	.st29{filter:url(#Adobe_OpacityMaskFilter_6_);}
	.st30{mask:url(#mask-2_1_);}
	.st31{filter:url(#Adobe_OpacityMaskFilter_7_);}
	.st32{mask:url(#mask-4_1_);}
	.st33{filter:url(#Adobe_OpacityMaskFilter_8_);}
	.st34{mask:url(#mask-6_1_);}
</style>
<g>
	<path class="st1" d="M41.6,36.4c0.1-3.8-2.7-6.8-2.8-6.9c-0.1-0.1-0.3-0.2-0.5-0.1c-0.7,0.4-1.7,0.9-2.3,0.5
		c-0.8-0.5-0.8-2.6-0.7-3.3c0-0.2-0.1-0.3-0.2-0.4c-0.1-0.1-0.3-0.1-0.4,0.1c-0.3,0.2-6.4,5.9-6.4,10c0,3.3,2.7,6.1,6.1,6.3
		c0.1,0,0.3,0,0.4,0c0,0,0,0,0,0c0,0,0,0,0,0C38.6,42.7,41.6,39.9,41.6,36.4z M32,39.3c0-1.2,1.9-3.7,2.9-4.9c1,1.2,2.9,3.7,2.9,4.9
		c0,1.5-1.3,2.7-2.8,2.7c-0.1,0-0.3,0-0.4,0C33.1,41.8,32,40.7,32,39.3z M37.8,41.3c0.4-0.6,0.7-1.3,0.7-2c0-1.8-3-5.3-3.3-5.7
		c-0.1-0.2-0.4-0.2-0.6,0c-0.3,0.4-3.3,3.9-3.3,5.7c0,0.7,0.2,1.3,0.5,1.8c-1.6-1-2.7-2.7-2.7-4.7c0-3,3.8-7.2,5.4-8.8
		c0,1,0.2,2.4,1.1,3c0.7,0.4,1.6,0.3,2.8-0.4c0.6,0.7,2.5,3.2,2.4,6.1C40.8,38.5,39.6,40.4,37.8,41.3z"/>
</g>
<g id="XMLID_15_">
	<g>
		<path class="st4" d="M27.2,45.1l-2.3,2.3c-0.1,0.2-0.1,0.4,0,0.5l1.4,1.4h-5.6v-5.6l1.4,1.4c0.1,0.1,0.4,0.1,0.5,0l2.3-2.3
			L27.2,45.1z"/>
	</g>
	<g>
		<path class="st4" d="M49.3,43.7v5.6h-5.6l1.4-1.4c0.1-0.1,0.1-0.2,0.1-0.3c0-0.1,0-0.2-0.1-0.3l-2.3-2.3l2.3-2.3l2.3,2.3
			c0.2,0.1,0.4,0.2,0.5,0L49.3,43.7z"/>
	</g>
	<g>
		<path class="st4" d="M49.3,20.7v5.6l-1.4-1.4c-0.1-0.1-0.4-0.1-0.5,0l-2.3,2.3l-2.3-2.3l2.3-2.3c0.2-0.1,0.2-0.4,0-0.5l-1.4-1.4
			H49.3z"/>
	</g>
	<g>
		<path class="st4" d="M27.2,24.9l-2.3,2.3l-2.3-2.3c-0.1-0.1-0.2-0.1-0.3-0.1c-0.1,0-0.2,0-0.3,0.1l-1.4,1.4v-5.6h5.6l-1.4,1.4
			c-0.1,0.1-0.1,0.2-0.1,0.3c0,0.1,0,0.2,0.1,0.3L27.2,24.9z"/>
	</g>
	<g>
		<path class="st4" d="M49.3,26.3v-5.6h-5.6l1.4,1.4c0.2,0.1,0.2,0.4,0,0.5l-2.3,2.3l2.3,2.3l2.3-2.3c0.1-0.1,0.4-0.1,0.5,0
			L49.3,26.3z M50.1,20.3v6.9c0,0.1-0.1,0.3-0.2,0.3c-0.1,0.1-0.3,0-0.4-0.1l-1.8-1.8L45.3,28c-0.1,0.1-0.2,0.1-0.3,0.1
			s-0.2,0-0.3-0.1L42,25.2c-0.2-0.1-0.2-0.4,0-0.5l2.3-2.3l-1.8-1.8c-0.1-0.1-0.1-0.3-0.1-0.4c0.1-0.1,0.2-0.2,0.4-0.2h6.9
			C49.9,19.9,50.1,20.1,50.1,20.3z"/>
	</g>
	<g>
		<path class="st4" d="M49.3,49.3v-5.6l-1.4,1.4c-0.2,0.2-0.4,0.1-0.5,0l-2.3-2.3l-2.3,2.3l2.3,2.3c0.1,0.1,0.1,0.2,0.1,0.3
			c0,0.1,0,0.2-0.1,0.3l-1.4,1.4H49.3z M50.1,42.8v6.9c0,0.2-0.2,0.4-0.4,0.4h-6.9c-0.2,0-0.3-0.1-0.4-0.2c-0.1-0.1,0-0.3,0.1-0.4
			l1.8-1.8L42,45.4c-0.1-0.1-0.1-0.2-0.1-0.3c0-0.1,0-0.2,0.1-0.3l2.8-2.8c0.1-0.2,0.4-0.2,0.5,0l2.3,2.3l1.8-1.8
			c0.1-0.1,0.3-0.1,0.4-0.1C50,42.5,50.1,42.6,50.1,42.8z"/>
	</g>
	<g>
		<path class="st4" d="M22.4,44.3l2.3-2.3c0.1-0.1,0.4-0.1,0.5,0l2.8,2.8c0.1,0.2,0.1,0.4,0,0.5l-2.3,2.3l1.8,1.8
			c0.1,0.1,0.1,0.3,0.1,0.4s-0.2,0.2-0.4,0.2h-6.9c-0.2,0-0.4-0.2-0.4-0.4v-6.9c0-0.2,0.1-0.3,0.2-0.3c0.1-0.1,0.3,0,0.4,0.1
			L22.4,44.3z M24.9,47.9c-0.1-0.2-0.1-0.4,0-0.5l2.3-2.3l-2.3-2.3l-2.3,2.3c-0.1,0.1-0.4,0.1-0.5,0l-1.4-1.4v5.6h5.6L24.9,47.9z"/>
	</g>
	<g>
		<path class="st4" d="M22.6,24.9l2.3,2.3l2.3-2.3l-2.3-2.3c-0.1-0.1-0.1-0.2-0.1-0.3c0-0.1,0-0.2,0.1-0.3l1.4-1.4h-5.6v5.6l1.4-1.4
			c0.1-0.1,0.2-0.1,0.3-0.1C22.5,24.8,22.5,24.8,22.6,24.9z M24.9,28.1c-0.1,0-0.2,0-0.3-0.1l-2.3-2.3l-1.8,1.8
			c-0.1,0.1-0.3,0.1-0.4,0.1c-0.1-0.1-0.2-0.2-0.2-0.4v-6.9c0-0.2,0.2-0.4,0.4-0.4h6.9c0.2,0,0.3,0.1,0.4,0.2c0.1,0.1,0,0.3-0.1,0.4
			l-1.8,1.8l2.3,2.3c0.1,0.1,0.1,0.2,0.1,0.3c0,0.1,0,0.2-0.1,0.3L25.2,28C25.1,28.1,25,28.1,24.9,28.1z"/>
	</g>
</g>
<g>
	<defs>
		<polygon id="SVGID_1_" points="-536.6,1450.5 -536.6,1451.6 -518.7,1451.6 -518.7,1470.5 -517.6,1470.5 -517.6,1450.5 		"/>
	</defs>
	<clipPath id="SVGID_2_">
		<use xlink:href="#SVGID_1_"  style="overflow:visible;"/>
	</clipPath>
	<g class="st10">
		<defs>
			<rect id="SVGID_3_" x="-794.6" y="-3135.5" width="1640" height="5497"/>
		</defs>
		<clipPath id="SVGID_4_">
			<use xlink:href="#SVGID_3_"  style="overflow:visible;"/>
		</clipPath>
	</g>
</g>
<g>
	<defs>
		<polygon id="SVGID_5_" points="-534.8,1469.5 -535.6,1468.7 -518.4,1450.5 -517.6,1451.3 		"/>
	</defs>
	<clipPath id="SVGID_6_">
		<use xlink:href="#SVGID_5_"  style="overflow:visible;"/>
	</clipPath>
	<g class="st12">
		<defs>
			<rect id="SVGID_7_" x="-794.6" y="-3135.5" width="1640" height="5497"/>
		</defs>
		<clipPath id="SVGID_8_">
			<use xlink:href="#SVGID_7_"  style="overflow:visible;"/>
		</clipPath>
	</g>
</g>
</svg>
