<?xml version="1.0" encoding="utf-8"?>
<!-- Generator: Adobe Illustrator 24.0.0, SVG Export Plug-In . SVG Version: 6.00 Build 0)  -->
<svg version="1.1" id="Layer_1" xmlns="http://www.w3.org/2000/svg" xmlns:xlink="http://www.w3.org/1999/xlink" x="0px" y="0px"
	 viewBox="0 0 70 70" style="enable-background:new 0 0 70 70;" xml:space="preserve">
<style type="text/css">
	.st0{fill:#FF000B;}
	.st1{fill:#989898;}
	.st2{fill:#00B9F1;}
	.st3{fill:#227DBA;}
	.st4{fill:#508D35;}
	.st5{fill:#2CAB9F;}
	.st6{fill:#99D000;}
	.st7{fill:none;stroke:#99D000;stroke-width:0.5743;stroke-miterlimit:10;}
	.st8{fill:none;stroke:#2CAB9F;stroke-width:2.474;stroke-linecap:round;stroke-linejoin:round;stroke-miterlimit:10;}
	.st9{fill:#FFFFFF;}
	.st10{clip-path:url(#SVGID_2_);}
	.st11{clip-path:url(#SVGID_4_);}
	.st12{clip-path:url(#SVGID_6_);}
	.st13{clip-path:url(#SVGID_8_);}
	.st14{filter:url(#Adobe_OpacityMaskFilter);}
	.st15{fill-rule:evenodd;clip-rule:evenodd;fill:#FFFFFF;}
	.st16{mask:url(#mask-2_4_);}
	.st17{fill-rule:evenodd;clip-rule:evenodd;fill:#989898;}
	.st18{filter:url(#Adobe_OpacityMaskFilter_1_);}
	.st19{mask:url(#mask-4_3_);}
	.st20{fill-rule:evenodd;clip-rule:evenodd;fill:#AFD141;}
	.st21{filter:url(#Adobe_OpacityMaskFilter_2_);}
	.st22{mask:url(#mask-6_2_);}
	.st23{filter:url(#Adobe_OpacityMaskFilter_3_);}
	.st24{mask:url(#mask-2_3_);}
	.st25{filter:url(#Adobe_OpacityMaskFilter_4_);}
	.st26{mask:url(#mask-2_2_);}
	.st27{filter:url(#Adobe_OpacityMaskFilter_5_);}
	.st28{mask:url(#mask-4_2_);}
	.st29{filter:url(#Adobe_OpacityMaskFilter_6_);}
	.st30{mask:url(#mask-2_1_);}
	.st31{filter:url(#Adobe_OpacityMaskFilter_7_);}
	.st32{mask:url(#mask-4_1_);}
	.st33{filter:url(#Adobe_OpacityMaskFilter_8_);}
	.st34{mask:url(#mask-6_1_);}
</style>
<g>
	<path class="st1" d="M35,24.5c-5.8,0-10.5,4.7-10.5,10.5S29.2,45.5,35,45.5S45.5,40.8,45.5,35S40.8,24.5,35,24.5z M35,44.6
		c-5.3,0-9.6-4.3-9.6-9.6s4.3-9.6,9.6-9.6s9.6,4.3,9.6,9.6S40.3,44.6,35,44.6z"/>
	<path class="st1" d="M35,45.6c-5.9,0-10.6-4.8-10.6-10.6S29.1,24.4,35,24.4S45.6,29.1,45.6,35S40.9,45.6,35,45.6z M35,24.6
		c-5.7,0-10.4,4.6-10.4,10.4c0,5.7,4.6,10.4,10.4,10.4S45.4,40.7,45.4,35C45.4,29.3,40.7,24.6,35,24.6z M35,44.7
		c-5.4,0-9.7-4.4-9.7-9.7c0-5.4,4.4-9.7,9.7-9.7c5.4,0,9.7,4.4,9.7,9.7C44.7,40.4,40.4,44.7,35,44.7z M35,25.5
		c-5.2,0-9.5,4.3-9.5,9.5c0,5.2,4.3,9.5,9.5,9.5c5.2,0,9.5-4.3,9.5-9.5C44.5,29.8,40.2,25.5,35,25.5z"/>
</g>
<g>
	<path class="st1" d="M52,31.8c0.1,0,0.2-0.1,0.3-0.2c0.1-0.1,0.1-0.2,0.1-0.3c-0.5-2.1-1.3-4.1-2.4-5.9c-0.1-0.1-0.2-0.2-0.3-0.2
		c-0.1,0-0.2,0-0.3,0.1c-1.3,1-3.2,0.9-4.3-0.2c-1.2-1.2-1.3-3-0.2-4.3c0.1-0.1,0.1-0.2,0.1-0.3c0-0.1-0.1-0.2-0.2-0.3
		c-1.8-1.2-3.8-2-5.9-2.4c-0.1,0-0.2,0-0.3,0.1c-0.1,0.1-0.2,0.2-0.2,0.3c-0.2,1.7-1.6,2.9-3.2,2.9s-3.1-1.2-3.2-2.9
		c0-0.1-0.1-0.2-0.2-0.3c-0.1-0.1-0.2-0.1-0.3-0.1c-2.1,0.5-4.1,1.3-5.9,2.4c-0.1,0.1-0.2,0.2-0.2,0.3c0,0.1,0,0.2,0.1,0.3
		c1,1.3,0.9,3.2-0.2,4.3c-1.2,1.2-3,1.3-4.3,0.2c-0.1-0.1-0.2-0.1-0.3-0.1c-0.1,0-0.2,0.1-0.3,0.2c-1.2,1.8-2,3.8-2.4,5.9
		c0,0.1,0,0.2,0.1,0.3c0.1,0.1,0.2,0.2,0.3,0.2c1.7,0.2,2.9,1.6,2.9,3.2s-1.2,3.1-2.9,3.2c-0.1,0-0.2,0.1-0.3,0.2
		c-0.1,0.1-0.1,0.2-0.1,0.3c0.5,2.1,1.3,4.1,2.4,5.9c0.1,0.1,0.2,0.2,0.3,0.2c0.1,0,0.2,0,0.3-0.1c1.3-1,3.2-0.9,4.3,0.2
		c1.2,1.2,1.3,3,0.2,4.3c-0.1,0.1-0.1,0.2-0.1,0.3c0,0.1,0.1,0.2,0.2,0.3c1.8,1.2,3.8,2,5.9,2.4c0.1,0,0.2,0,0.3-0.1
		c0.1-0.1,0.2-0.2,0.2-0.3c0.2-1.7,1.6-2.9,3.2-2.9s3.1,1.2,3.2,2.9c0,0.1,0.1,0.2,0.2,0.3c0.1,0.1,0.2,0.1,0.3,0.1c0,0,0.1,0,0.1,0
		c2.1-0.5,4.1-1.3,5.9-2.4c0.1-0.1,0.2-0.2,0.2-0.3c0-0.1,0-0.2-0.1-0.3c-1-1.3-0.9-3.2,0.2-4.3c1.2-1.2,3-1.3,4.3-0.2
		c0.1,0.1,0.2,0.1,0.3,0.1c0.1,0,0.2-0.1,0.3-0.2c1.2-1.8,2-3.8,2.4-5.9c0-0.1,0-0.2-0.1-0.3c-0.1-0.1-0.2-0.2-0.3-0.2
		c-1.7-0.2-2.9-1.6-2.9-3.2S50.4,31.9,52,31.8z M48.2,35c0,1.9,1.3,3.6,3.2,4c-0.4,1.7-1.1,3.3-2,4.8c-1.6-1-3.7-0.8-5.1,0.6
		c-1.4,1.4-1.6,3.5-0.6,5.1c-1.5,0.9-3.1,1.6-4.8,2c-0.4-1.9-2.1-3.2-4-3.2s-3.6,1.3-4,3.2c-1.7-0.4-3.3-1.1-4.8-2
		c1-1.6,0.8-3.7-0.6-5.1c-1.4-1.4-3.5-1.6-5.1-0.6c-0.9-1.5-1.6-3.1-2-4.8c1.9-0.4,3.2-2.1,3.2-4c0-1.9-1.3-3.6-3.2-4
		c0.4-1.7,1.1-3.3,2-4.8c1.6,1,3.7,0.8,5.1-0.6c1.4-1.4,1.6-3.5,0.6-5.1c1.5-0.9,3.1-1.6,4.8-2c0.4,1.9,2.1,3.2,4,3.2s3.6-1.3,4-3.2
		c1.7,0.4,3.3,1.1,4.8,2c-1,1.6-0.8,3.7,0.6,5.1c1.4,1.4,3.5,1.6,5.1,0.6c0.9,1.5,1.6,3.1,2,4.8C49.6,31.4,48.2,33.1,48.2,35z"/>
	<path class="st1" d="M38.7,52.5c-0.1,0-0.2,0-0.3-0.1c-0.1-0.1-0.2-0.2-0.2-0.4c-0.2-1.6-1.5-2.8-3.1-2.8c-1.6,0-2.9,1.2-3.1,2.8
		c0,0.2-0.1,0.3-0.2,0.4c-0.1,0.1-0.3,0.1-0.4,0.1c-2.1-0.5-4.1-1.3-5.9-2.5c-0.1-0.1-0.2-0.2-0.2-0.4c0-0.2,0-0.3,0.1-0.4
		c1-1.2,0.9-3-0.2-4.2c-1.1-1.1-2.9-1.2-4.2-0.2c-0.1,0.1-0.3,0.1-0.4,0.1c-0.2,0-0.3-0.1-0.4-0.2c-1.2-1.8-2-3.8-2.5-5.9
		c0-0.2,0-0.3,0.1-0.4c0.1-0.1,0.2-0.2,0.4-0.2c1.6-0.2,2.8-1.5,2.8-3.1s-1.2-2.9-2.8-3.1c-0.2,0-0.3-0.1-0.4-0.2
		c-0.1-0.1-0.1-0.3-0.1-0.4c0.5-2.1,1.3-4.1,2.5-5.9c0.1-0.1,0.2-0.2,0.4-0.2c0.2,0,0.3,0,0.4,0.1c1.2,1,3,0.9,4.2-0.2
		c1.1-1.1,1.2-2.9,0.2-4.2c-0.1-0.1-0.1-0.3-0.1-0.4c0-0.2,0.1-0.3,0.2-0.4c1.8-1.2,3.8-2,5.9-2.5c0.2,0,0.3,0,0.4,0.1
		c0.1,0.1,0.2,0.2,0.2,0.4c0.2,1.6,1.5,2.8,3.1,2.8c1.6,0,2.9-1.2,3.1-2.8c0-0.2,0.1-0.3,0.2-0.4s0.3-0.1,0.4-0.1
		c2.1,0.5,4.1,1.3,5.9,2.5c0.1,0.1,0.2,0.2,0.2,0.4c0,0.2,0,0.3-0.1,0.4c-1,1.2-0.9,3,0.2,4.2c1.1,1.1,2.9,1.2,4.2,0.2
		c0.1-0.1,0.3-0.1,0.4-0.1c0.2,0,0.3,0.1,0.4,0.2c1.2,1.8,2,3.8,2.5,5.9c0,0.2,0,0.3-0.1,0.4c-0.1,0.1-0.2,0.2-0.4,0.2l0,0
		c-1.6,0.2-2.8,1.5-2.8,3.1s1.2,2.9,2.8,3.1c0.2,0,0.3,0.1,0.4,0.2s0.1,0.3,0.1,0.4c-0.5,2.1-1.3,4.1-2.5,5.9
		c-0.1,0.1-0.2,0.2-0.4,0.2c-0.2,0-0.3,0-0.4-0.1c-1.2-1-3-0.9-4.2,0.2c-1.1,1.1-1.2,2.9-0.2,4.2c0.1,0.1,0.1,0.3,0.1,0.4
		c0,0.2-0.1,0.3-0.2,0.4c-1.8,1.2-3.8,2-5.9,2.5C38.7,52.5,38.7,52.5,38.7,52.5z M35,49c1.7,0,3.2,1.3,3.3,3c0,0.1,0.1,0.2,0.1,0.2
		c0.1,0.1,0.2,0.1,0.2,0.1c2.1-0.4,4-1.3,5.8-2.4c0.1,0,0.1-0.1,0.1-0.2c0-0.1,0-0.2-0.1-0.2c-1.1-1.3-1-3.3,0.2-4.5
		c1.2-1.2,3.2-1.3,4.5-0.2c0.1,0.1,0.2,0.1,0.2,0.1c0.1,0,0.2-0.1,0.2-0.1c1.2-1.8,2-3.8,2.4-5.8c0-0.1,0-0.2-0.1-0.2
		c-0.1-0.1-0.1-0.1-0.2-0.1c-1.7-0.2-3-1.6-3-3.3c0-1.7,1.3-3.2,3-3.3l0,0c0.1,0,0.2-0.1,0.2-0.1c0.1-0.1,0.1-0.2,0.1-0.2
		c-0.4-2.1-1.3-4.1-2.4-5.8c0-0.1-0.1-0.1-0.2-0.1c-0.1,0-0.2,0-0.2,0.1c-1.3,1.1-3.3,1-4.5-0.2c-1.2-1.2-1.3-3.2-0.2-4.5
		c0.1-0.1,0.1-0.2,0.1-0.2c0-0.1-0.1-0.2-0.1-0.2c-1.8-1.2-3.8-2-5.8-2.4c-0.1,0-0.2,0-0.2,0.1c-0.1,0.1-0.1,0.1-0.1,0.2
		c-0.2,1.7-1.6,3-3.3,3s-3.2-1.3-3.3-3c0-0.1-0.1-0.2-0.1-0.2c-0.1-0.1-0.2-0.1-0.2-0.1c-2.1,0.4-4.1,1.3-5.8,2.4
		c-0.1,0-0.1,0.1-0.1,0.2c0,0.1,0,0.2,0.1,0.2c1.1,1.3,1,3.3-0.2,4.5c-1.2,1.2-3.2,1.3-4.5,0.2c-0.1-0.1-0.2-0.1-0.2-0.1
		c-0.1,0-0.2,0.1-0.2,0.1c-1.2,1.8-2,3.8-2.4,5.8c0,0.1,0,0.2,0.1,0.2s0.1,0.1,0.2,0.1c1.7,0.2,3,1.6,3,3.3c0,1.7-1.3,3.2-3,3.3
		c-0.1,0-0.2,0.1-0.2,0.1c-0.1,0.1-0.1,0.2-0.1,0.2c0.4,2.1,1.3,4.1,2.4,5.8c0,0.1,0.1,0.1,0.2,0.1c0.1,0,0.2,0,0.2-0.1
		c1.3-1.1,3.3-1,4.5,0.2c1.2,1.2,1.3,3.2,0.2,4.5c-0.1,0.1-0.1,0.2-0.1,0.2c0,0.1,0.1,0.2,0.1,0.2c1.8,1.2,3.8,2,5.8,2.4
		c0.1,0,0.2,0,0.2-0.1c0.1-0.1,0.1-0.1,0.1-0.2C31.8,50.3,33.3,49,35,49z M38.9,51.6l0-0.1c-0.4-1.8-2-3.1-3.9-3.1s-3.5,1.3-3.9,3.1
		l0,0.1l-0.1,0c-1.7-0.4-3.3-1.1-4.8-2L26,49.5l0.1-0.1c1-1.6,0.8-3.6-0.6-4.9c-1.3-1.3-3.4-1.6-4.9-0.6L20.5,44l-0.1-0.1
		c-0.9-1.5-1.6-3.1-2-4.8l0-0.1l0.1,0c1.8-0.4,3.1-2,3.1-3.9c0-1.9-1.3-3.5-3.1-3.9l-0.1,0l0-0.1c0.4-1.7,1.1-3.3,2-4.8l0.1-0.1
		l0.1,0.1c1.6,1,3.6,0.8,4.9-0.6c1.3-1.3,1.6-3.4,0.6-4.9L26,20.5l0.1-0.1c1.5-0.9,3.1-1.6,4.8-2l0.1,0l0,0.1c0.4,1.8,2,3.1,3.9,3.1
		s3.5-1.3,3.9-3.1l0-0.1l0.1,0c1.7,0.4,3.3,1.1,4.8,2l0.1,0.1l-0.1,0.1c-1,1.6-0.8,3.6,0.6,4.9c1.3,1.3,3.4,1.6,4.9,0.6l0.1-0.1
		l0.1,0.1c0.9,1.5,1.6,3.1,2,4.8l0,0.1l-0.1,0c-1.8,0.4-3.1,2-3.1,3.9s1.3,3.5,3.1,3.9l0.1,0l0,0.1c-0.4,1.7-1.1,3.3-2,4.8L49.5,44
		l-0.1-0.1c-1.6-1-3.6-0.8-4.9,0.6c-1.3,1.3-1.6,3.4-0.6,4.9l0.1,0.1l-0.1,0.1c-1.5,0.9-3.1,1.6-4.8,2L38.9,51.6z M26.4,49.4
		c1.4,0.8,2.9,1.5,4.5,1.9c0.5-1.9,2.1-3.2,4.1-3.2s3.6,1.3,4.1,3.2c1.6-0.4,3.1-1,4.5-1.9c-1-1.7-0.7-3.8,0.7-5.1
		c1.4-1.4,3.5-1.6,5.1-0.7c0.8-1.4,1.5-2.9,1.9-4.5c-1.9-0.5-3.2-2.1-3.2-4.1c0-2,1.3-3.6,3.2-4.1c-0.4-1.6-1-3.1-1.9-4.5
		c-1.7,1-3.8,0.7-5.1-0.7c-1.4-1.4-1.6-3.5-0.7-5.1c-1.4-0.8-2.9-1.5-4.5-1.9c-0.5,1.9-2.1,3.2-4.1,3.2s-3.6-1.3-4.1-3.2
		c-1.6,0.4-3.1,1-4.5,1.9c1,1.7,0.7,3.8-0.7,5.1c-1.4,1.4-3.5,1.6-5.1,0.7c-0.8,1.4-1.5,2.9-1.9,4.5c1.9,0.5,3.2,2.1,3.2,4.1
		c0,2-1.3,3.6-3.2,4.1c0.4,1.6,1,3.1,1.9,4.5c1.7-1,3.8-0.7,5.1,0.7C27.1,45.6,27.4,47.7,26.4,49.4z"/>
</g>
<g>
	<g>
		<circle class="st0" cx="35" cy="38.6" r="1.6"/>
	</g>
	<g>
		<rect x="33.7" y="29.8" class="st0" width="2.6" height="5.9"/>
	</g>
</g>
<g>
	<defs>
		<polygon id="SVGID_1_" points="-642.2,1759.8 -642.2,1760.9 -624.4,1760.9 -624.4,1779.8 -623.2,1779.8 -623.2,1759.8 		"/>
	</defs>
	<clipPath id="SVGID_2_">
		<use xlink:href="#SVGID_1_"  style="overflow:visible;"/>
	</clipPath>
	<g class="st10">
		<defs>
			<rect id="SVGID_3_" x="-900.2" y="-2826.2" width="1640" height="5497"/>
		</defs>
		<clipPath id="SVGID_4_">
			<use xlink:href="#SVGID_3_"  style="overflow:visible;"/>
		</clipPath>
	</g>
</g>
<g>
	<defs>
		<polygon id="SVGID_5_" points="-640.5,1778.8 -641.2,1777.9 -624,1759.8 -623.2,1760.6 		"/>
	</defs>
	<clipPath id="SVGID_6_">
		<use xlink:href="#SVGID_5_"  style="overflow:visible;"/>
	</clipPath>
	<g class="st12">
		<defs>
			<rect id="SVGID_7_" x="-900.2" y="-2826.2" width="1640" height="5497"/>
		</defs>
		<clipPath id="SVGID_8_">
			<use xlink:href="#SVGID_7_"  style="overflow:visible;"/>
		</clipPath>
	</g>
</g>
</svg>
