<?xml version="1.0" encoding="utf-8"?>
<!-- Generator: Adobe Illustrator 24.0.0, SVG Export Plug-In . SVG Version: 6.00 Build 0)  -->
<svg version="1.1" id="Layer_1" xmlns="http://www.w3.org/2000/svg" xmlns:xlink="http://www.w3.org/1999/xlink" x="0px" y="0px"
	 viewBox="0 0 70 70" style="enable-background:new 0 0 70 70;" xml:space="preserve">
<style type="text/css">
	.st0{fill:#FF000B;}
	.st1{fill:#989898;}
	.st2{fill:#00B9F1;}
	.st3{fill:#227DBA;}
	.st4{fill:#508D35;}
	.st5{fill:#2CAB9F;}
	.st6{fill:#99D000;}
	.st7{fill:none;stroke:#99D000;stroke-width:0.5743;stroke-miterlimit:10;}
	.st8{fill:none;stroke:#2CAB9F;stroke-width:2.474;stroke-linecap:round;stroke-linejoin:round;stroke-miterlimit:10;}
	.st9{fill:#FFFFFF;}
	.st10{clip-path:url(#SVGID_2_);}
	.st11{clip-path:url(#SVGID_4_);}
	.st12{clip-path:url(#SVGID_6_);}
	.st13{clip-path:url(#SVGID_8_);}
	.st14{filter:url(#Adobe_OpacityMaskFilter);}
	.st15{fill-rule:evenodd;clip-rule:evenodd;fill:#FFFFFF;}
	.st16{mask:url(#mask-2_4_);}
	.st17{fill-rule:evenodd;clip-rule:evenodd;fill:#989898;}
	.st18{filter:url(#Adobe_OpacityMaskFilter_1_);}
	.st19{mask:url(#mask-4_3_);}
	.st20{fill-rule:evenodd;clip-rule:evenodd;fill:#AFD141;}
	.st21{filter:url(#Adobe_OpacityMaskFilter_2_);}
	.st22{mask:url(#mask-6_2_);}
	.st23{filter:url(#Adobe_OpacityMaskFilter_3_);}
	.st24{mask:url(#mask-2_3_);}
	.st25{filter:url(#Adobe_OpacityMaskFilter_4_);}
	.st26{mask:url(#mask-2_2_);}
	.st27{filter:url(#Adobe_OpacityMaskFilter_5_);}
	.st28{mask:url(#mask-4_2_);}
	.st29{filter:url(#Adobe_OpacityMaskFilter_6_);}
	.st30{mask:url(#mask-2_1_);}
	.st31{filter:url(#Adobe_OpacityMaskFilter_7_);}
	.st32{mask:url(#mask-4_1_);}
	.st33{filter:url(#Adobe_OpacityMaskFilter_8_);}
	.st34{mask:url(#mask-6_1_);}
</style>
<g>
	<g>
		<path class="st1" d="M19,56.9h32c0.3,0,0.5-0.2,0.5-0.5V17.5c0-0.3-0.2-0.5-0.5-0.5h-4.2v-1c0-1.6-1.3-2.8-2.8-2.8
			s-2.8,1.3-2.8,2.8v1h-3.9v-1c0-1.6-1.3-2.8-2.8-2.8s-2.8,1.3-2.8,2.8v1h-3.9v-1c0-1.6-1.3-2.8-2.8-2.8c-1.6,0-2.8,1.3-2.8,2.8v1
			H19c-0.3,0-0.5,0.2-0.5,0.5v38.9C18.5,56.7,18.7,56.9,19,56.9z M19.6,55.8V24.4h30.9v31.4H19.6z M42.3,15.9c0-1,0.8-1.7,1.7-1.7
			s1.7,0.8,1.7,1.7v1h-3.5V15.9z M32.7,15.9c0-1,0.8-1.7,1.7-1.7s1.7,0.8,1.7,1.7v1h-3.5V15.9z M23.2,15.9c0-1,0.8-1.7,1.7-1.7
			c1,0,1.7,0.8,1.7,1.7v1h-3.5V15.9z M26.7,18v0.3c0,1-0.8,1.7-1.7,1.7c-0.3,0-0.5,0.2-0.5,0.5c0,0.3,0.2,0.5,0.5,0.5
			c1.6,0,2.8-1.3,2.8-2.8V18h8.4v0.3c0,1-0.8,1.7-1.7,1.7c-0.3,0-0.5,0.2-0.5,0.5c0,0.3,0.2,0.5,0.5,0.5c1.6,0,2.8-1.3,2.8-2.8V18
			h8.4v0.3c0,1-0.8,1.7-1.7,1.7c-0.3,0-0.5,0.2-0.5,0.5c0,0.3,0.2,0.5,0.5,0.5c1.6,0,2.8-1.3,2.8-2.8V18h3.6v5.3H19.6V18H26.7z"/>
	</g>
	<g>
		<path class="st3" d="M44.8,28.6L40,31l-4.8-2.4c-0.2-0.1-0.3-0.1-0.5,0L30,31l-4.8-2.4c-0.3-0.1-0.6,0-0.7,0.2
			c-0.1,0.3,0,0.6,0.2,0.7l5,2.5c0.2,0.1,0.3,0.1,0.5,0l4.8-2.4l4.8,2.4c0.1,0,0.2,0.1,0.2,0.1c0.1,0,0.2,0,0.2-0.1l5-2.5
			c0.3-0.1,0.4-0.5,0.2-0.7C45.4,28.6,45.1,28.5,44.8,28.6z"/>
	</g>
	<g>
		<path class="st3" d="M44.8,35L40,37.3L35.2,35c-0.2-0.1-0.3-0.1-0.5,0L30,37.3L25.2,35c-0.3-0.1-0.6,0-0.7,0.2
			c-0.1,0.3,0,0.6,0.2,0.7l5,2.5c0.2,0.1,0.3,0.1,0.5,0l4.8-2.4l4.8,2.4c0.1,0,0.2,0.1,0.2,0.1c0.1,0,0.2,0,0.2-0.1l5-2.5
			c0.3-0.1,0.4-0.5,0.2-0.7S45.1,34.8,44.8,35z"/>
	</g>
	<g>
		<path class="st3" d="M44.8,41.3L40,43.7l-4.8-2.4c-0.2-0.1-0.3-0.1-0.5,0L30,43.7l-4.8-2.4c-0.3-0.1-0.6,0-0.7,0.2
			c-0.1,0.3,0,0.6,0.2,0.7l5,2.5c0.2,0.1,0.3,0.1,0.5,0l4.8-2.4l4.8,2.4c0.1,0,0.2,0.1,0.2,0.1c0.1,0,0.2,0,0.2-0.1l5-2.5
			c0.3-0.1,0.4-0.5,0.2-0.7C45.4,41.3,45.1,41.2,44.8,41.3z"/>
	</g>
	<g>
		<path class="st3" d="M44.8,47.6L40,50l-4.8-2.4c-0.2-0.1-0.3-0.1-0.5,0L30,50l-4.8-2.4c-0.3-0.1-0.6,0-0.7,0.2
			c-0.1,0.3,0,0.6,0.2,0.7l5,2.5c0.2,0.1,0.3,0.1,0.5,0l4.8-2.4l4.8,2.4c0.1,0,0.2,0.1,0.2,0.1c0.1,0,0.2,0,0.2-0.1l5-2.5
			c0.3-0.1,0.4-0.5,0.2-0.7C45.4,47.6,45.1,47.5,44.8,47.6z"/>
	</g>
</g>
<g>
	<defs>
		<polygon id="SVGID_1_" points="-426.4,2070.3 -426.4,2071.5 -408.5,2071.5 -408.5,2090.3 -407.4,2090.3 -407.4,2070.3 		"/>
	</defs>
	<clipPath id="SVGID_2_">
		<use xlink:href="#SVGID_1_"  style="overflow:visible;"/>
	</clipPath>
	<g class="st10">
		<defs>
			<rect id="SVGID_3_" x="-684.4" y="-2515.7" width="1640" height="5497"/>
		</defs>
		<clipPath id="SVGID_4_">
			<use xlink:href="#SVGID_3_"  style="overflow:visible;"/>
		</clipPath>
	</g>
</g>
<g>
	<defs>
		<polygon id="SVGID_5_" points="-424.7,2089.3 -425.4,2088.5 -408.2,2070.3 -407.4,2071.2 		"/>
	</defs>
	<clipPath id="SVGID_6_">
		<use xlink:href="#SVGID_5_"  style="overflow:visible;"/>
	</clipPath>
	<g class="st12">
		<defs>
			<rect id="SVGID_7_" x="-684.4" y="-2515.7" width="1640" height="5497"/>
		</defs>
		<clipPath id="SVGID_8_">
			<use xlink:href="#SVGID_7_"  style="overflow:visible;"/>
		</clipPath>
	</g>
</g>
</svg>
