<?xml version="1.0" encoding="utf-8"?>
<!-- Generator: Adobe Illustrator 24.0.0, SVG Export Plug-In . SVG Version: 6.00 Build 0)  -->
<svg version="1.1" id="Layer_1" xmlns="http://www.w3.org/2000/svg" xmlns:xlink="http://www.w3.org/1999/xlink" x="0px" y="0px"
	 viewBox="0 0 70 70" style="enable-background:new 0 0 70 70;" xml:space="preserve">
<style type="text/css">
	.st0{fill:#FF000B;}
	.st1{fill:#989898;}
	.st2{fill:#00B9F1;}
	.st3{fill:#227DBA;}
	.st4{fill:#508D35;}
	.st5{fill:#2CAB9F;}
	.st6{fill:#99D000;}
	.st7{fill:none;stroke:#99D000;stroke-width:0.5743;stroke-miterlimit:10;}
	.st8{fill:none;stroke:#2CAB9F;stroke-width:2.474;stroke-linecap:round;stroke-linejoin:round;stroke-miterlimit:10;}
	.st9{fill:#FFFFFF;}
	.st10{clip-path:url(#SVGID_2_);}
	.st11{clip-path:url(#SVGID_4_);}
	.st12{clip-path:url(#SVGID_6_);}
	.st13{clip-path:url(#SVGID_8_);}
	.st14{filter:url(#Adobe_OpacityMaskFilter);}
	.st15{fill-rule:evenodd;clip-rule:evenodd;fill:#FFFFFF;}
	.st16{mask:url(#mask-2_4_);}
	.st17{fill-rule:evenodd;clip-rule:evenodd;fill:#989898;}
	.st18{filter:url(#Adobe_OpacityMaskFilter_1_);}
	.st19{mask:url(#mask-4_3_);}
	.st20{fill-rule:evenodd;clip-rule:evenodd;fill:#AFD141;}
	.st21{filter:url(#Adobe_OpacityMaskFilter_2_);}
	.st22{mask:url(#mask-6_2_);}
	.st23{filter:url(#Adobe_OpacityMaskFilter_3_);}
	.st24{mask:url(#mask-2_3_);}
	.st25{filter:url(#Adobe_OpacityMaskFilter_4_);}
	.st26{mask:url(#mask-2_2_);}
	.st27{filter:url(#Adobe_OpacityMaskFilter_5_);}
	.st28{mask:url(#mask-4_2_);}
	.st29{filter:url(#Adobe_OpacityMaskFilter_6_);}
	.st30{mask:url(#mask-2_1_);}
	.st31{filter:url(#Adobe_OpacityMaskFilter_7_);}
	.st32{mask:url(#mask-4_1_);}
	.st33{filter:url(#Adobe_OpacityMaskFilter_8_);}
	.st34{mask:url(#mask-6_1_);}
</style>
<g>
	<g>
		<path class="st4" d="M28.1,21.2c-0.3,0-0.5,0.2-0.5,0.5v1.7c0,0.3,0.2,0.5,0.5,0.5c0.3,0,0.5-0.2,0.5-0.5v-1.7
			C28.6,21.5,28.4,21.2,28.1,21.2z"/>
		<path class="st4" d="M28.1,24.1c-0.4,0-0.6-0.3-0.6-0.6v-1.7c0-0.4,0.3-0.6,0.6-0.6s0.6,0.3,0.6,0.6v1.7
			C28.7,23.8,28.4,24.1,28.1,24.1z M28.1,21.3c-0.2,0-0.4,0.2-0.4,0.4v1.7c0,0.2,0.2,0.4,0.4,0.4c0.2,0,0.4-0.2,0.4-0.4v-1.7
			C28.5,21.5,28.3,21.3,28.1,21.3z"/>
	</g>
	<g>
		<path class="st4" d="M24.5,22.6c-0.1-0.2-0.5-0.3-0.7-0.2c-0.2,0.1-0.3,0.5-0.2,0.7l0.8,1.5c0.1,0.2,0.3,0.3,0.4,0.3
			c0.1,0,0.2,0,0.3-0.1c0.2-0.1,0.3-0.5,0.2-0.7L24.5,22.6z"/>
		<path class="st4" d="M24.9,24.9c-0.2,0-0.4-0.1-0.6-0.3l-0.8-1.5c-0.1-0.1-0.1-0.3-0.1-0.5s0.1-0.3,0.3-0.4
			c0.1-0.1,0.3-0.1,0.5-0.1c0.2,0,0.3,0.1,0.4,0.3l0.8,1.5c0.2,0.3,0.1,0.7-0.2,0.9C25.1,24.9,25,24.9,24.9,24.9z M24.1,22.4
			c-0.1,0-0.1,0-0.2,0.1c-0.1,0.1-0.2,0.1-0.2,0.2s0,0.2,0,0.3l0.8,1.5c0.1,0.2,0.4,0.2,0.5,0.1c0.2-0.1,0.2-0.3,0.1-0.5l-0.8-1.5
			c-0.1-0.1-0.1-0.2-0.2-0.2C24.1,22.4,24.1,22.4,24.1,22.4z"/>
	</g>
	<g>
		<path class="st4" d="M22.8,26.2l-1.5-0.8c-0.2-0.1-0.6-0.1-0.7,0.2c-0.1,0.2-0.1,0.6,0.2,0.7l1.5,0.8c0.1,0,0.2,0.1,0.3,0.1
			c0.2,0,0.3-0.1,0.4-0.3C23.2,26.6,23.1,26.3,22.8,26.2z"/>
		<path class="st4" d="M22.6,27.2c-0.1,0-0.2,0-0.3-0.1l-1.5-0.8c-0.1-0.1-0.3-0.2-0.3-0.4s0-0.3,0.1-0.5c0.1-0.1,0.2-0.3,0.4-0.3
			s0.3,0,0.5,0.1l1.5,0.8c0.1,0.1,0.3,0.2,0.3,0.4s0,0.3-0.1,0.5C23,27.1,22.8,27.2,22.6,27.2z M21.1,25.4c0,0-0.1,0-0.1,0
			c-0.1,0-0.2,0.1-0.2,0.2s-0.1,0.2,0,0.3c0,0.1,0.1,0.2,0.2,0.2l1.5,0.8c0.2,0.1,0.4,0,0.5-0.1c0.1-0.1,0.1-0.2,0-0.3
			s-0.1-0.2-0.2-0.2l-1.5-0.8C21.3,25.4,21.2,25.4,21.1,25.4z"/>
	</g>
	<g>
		<path class="st4" d="M22.3,29.8c0-0.3-0.2-0.5-0.5-0.5h-1.7c-0.3,0-0.5,0.2-0.5,0.5c0,0.3,0.2,0.5,0.5,0.5h1.7
			C22,30.3,22.3,30.1,22.3,29.8z"/>
		<path class="st4" d="M21.7,30.4h-1.7c-0.4,0-0.6-0.3-0.6-0.6s0.3-0.6,0.6-0.6h1.7c0.4,0,0.6,0.3,0.6,0.6S22.1,30.4,21.7,30.4z
			 M20.1,29.4c-0.2,0-0.4,0.2-0.4,0.4c0,0.2,0.2,0.4,0.4,0.4h1.7c0.2,0,0.4-0.2,0.4-0.4c0-0.2-0.2-0.4-0.4-0.4H20.1z"/>
	</g>
	<g>
		<path class="st4" d="M22.3,32.5l-1.5,0.8c-0.2,0.1-0.3,0.5-0.2,0.7c0.1,0.2,0.3,0.3,0.4,0.3c0.1,0,0.2,0,0.3-0.1l1.5-0.8
			c0.2-0.1,0.3-0.5,0.2-0.7C22.9,32.4,22.6,32.4,22.3,32.5z"/>
		<path class="st4" d="M21.1,34.4c-0.2,0-0.4-0.1-0.6-0.3c-0.1-0.1-0.1-0.3-0.1-0.5s0.1-0.3,0.3-0.4l1.5-0.8
			c0.3-0.2,0.7-0.1,0.9,0.2c0.2,0.3,0.1,0.7-0.2,0.9l-1.5,0.8C21.4,34.4,21.2,34.4,21.1,34.4z M22.4,32.6l-1.5,0.8
			c-0.1,0.1-0.2,0.1-0.2,0.2s0,0.2,0,0.3c0.1,0.2,0.4,0.2,0.5,0.1l1.5-0.8c0.1-0.1,0.2-0.1,0.2-0.2c0-0.1,0-0.2,0-0.3
			C22.8,32.6,22.6,32.5,22.4,32.6z"/>
	</g>
	<g>
		<path class="st4" d="M25.2,34.8c-0.2-0.1-0.6-0.1-0.7,0.2l-0.8,1.5c-0.1,0.2-0.1,0.6,0.2,0.7c0.1,0,0.2,0.1,0.3,0.1
			c0.2,0,0.3-0.1,0.4-0.3l0.8-1.5C25.5,35.3,25.4,35,25.2,34.8z"/>
		<path class="st4" d="M24.1,37.4c-0.1,0-0.2,0-0.3-0.1c-0.1-0.1-0.3-0.2-0.3-0.4c0-0.2,0-0.3,0.1-0.5l0.8-1.5
			c0.1-0.1,0.2-0.3,0.4-0.3c0.2,0,0.3,0,0.5,0.1c0.3,0.2,0.4,0.6,0.2,0.9L24.6,37C24.5,37.2,24.3,37.4,24.1,37.4z M24.9,34.9
			c0,0-0.1,0-0.1,0c-0.1,0-0.2,0.1-0.2,0.2l-0.8,1.5c-0.1,0.1-0.1,0.2,0,0.3c0,0.1,0.1,0.2,0.2,0.2c0.2,0.1,0.4,0,0.5-0.1l0.8-1.5
			c0.1-0.2,0-0.4-0.1-0.5l0,0C25.1,34.9,25,34.9,24.9,34.9z"/>
	</g>
	<g>
		<path class="st4" d="M28.1,35.6c-0.3,0-0.5,0.2-0.5,0.5v1.7c0,0.3,0.2,0.5,0.5,0.5c0.3,0,0.5-0.2,0.5-0.5v-1.7
			C28.6,35.8,28.4,35.6,28.1,35.6z"/>
		<path class="st4" d="M28.1,38.4c-0.4,0-0.6-0.3-0.6-0.6v-1.7c0-0.4,0.3-0.6,0.6-0.6s0.6,0.3,0.6,0.6v1.7
			C28.7,38.2,28.4,38.4,28.1,38.4z M28.1,35.7c-0.2,0-0.4,0.2-0.4,0.4v1.7c0,0.2,0.2,0.4,0.4,0.4c0.2,0,0.4-0.2,0.4-0.4v-1.7
			C28.5,35.9,28.3,35.7,28.1,35.7z"/>
	</g>
	<g>
		<path class="st4" d="M31.7,35c-0.1-0.2-0.5-0.3-0.7-0.2c-0.2,0.1-0.3,0.5-0.2,0.7l0.8,1.5c0.1,0.2,0.3,0.3,0.4,0.3
			c0.1,0,0.2,0,0.3-0.1c0.2-0.1,0.3-0.5,0.2-0.7L31.7,35z"/>
		<path class="st4" d="M32.1,37.4c-0.2,0-0.4-0.1-0.6-0.3l-0.8-1.5c-0.1-0.1-0.1-0.3-0.1-0.5c0-0.2,0.1-0.3,0.3-0.4
			c0.1-0.1,0.3-0.1,0.5-0.1c0.2,0,0.3,0.1,0.4,0.3l0.8,1.5c0.1,0.1,0.1,0.3,0.1,0.5c0,0.2-0.1,0.3-0.3,0.4
			C32.3,37.3,32.2,37.4,32.1,37.4z M31.3,34.9c-0.1,0-0.1,0-0.2,0.1c-0.1,0.1-0.2,0.1-0.2,0.2c0,0.1,0,0.2,0,0.3l0.8,1.5
			c0.1,0.2,0.3,0.2,0.5,0.1c0.1-0.1,0.2-0.1,0.2-0.2c0-0.1,0-0.2,0-0.3l-0.8-1.5C31.5,35,31.5,34.9,31.3,34.9
			C31.3,34.9,31.3,34.9,31.3,34.9z"/>
	</g>
	<g>
		<path class="st4" d="M35.3,33.3l-1.5-0.8c-0.2-0.1-0.6-0.1-0.7,0.2c-0.1,0.2-0.1,0.6,0.2,0.7l1.5,0.8c0.1,0,0.2,0.1,0.3,0.1
			c0.2,0,0.3-0.1,0.4-0.3C35.6,33.8,35.5,33.5,35.3,33.3z"/>
		<path class="st4" d="M35,34.4c-0.1,0-0.2,0-0.3-0.1l-1.5-0.8c-0.3-0.2-0.4-0.6-0.2-0.9c0.2-0.3,0.6-0.4,0.9-0.2l1.5,0.8
			c0.1,0.1,0.3,0.2,0.3,0.4s0,0.3-0.1,0.5C35.5,34.3,35.3,34.4,35,34.4z M33.6,32.6c-0.1,0-0.3,0.1-0.3,0.2c-0.1,0.2,0,0.4,0.1,0.5
			l1.5,0.8c0.2,0.1,0.4,0,0.5-0.1c0.1-0.1,0.1-0.2,0-0.3s-0.1-0.2-0.2-0.2l-1.5-0.8C33.7,32.6,33.7,32.6,33.6,32.6z"/>
	</g>
	<g>
		<path class="st4" d="M36.1,29.3h-1.7c-0.3,0-0.5,0.2-0.5,0.5c0,0.3,0.2,0.5,0.5,0.5h1.7c0.3,0,0.5-0.2,0.5-0.5
			C36.6,29.5,36.4,29.3,36.1,29.3z"/>
		<path class="st4" d="M36.1,30.4h-1.7c-0.4,0-0.6-0.3-0.6-0.6s0.3-0.6,0.6-0.6h1.7c0.4,0,0.6,0.3,0.6,0.6S36.5,30.4,36.1,30.4z
			 M34.4,29.4c-0.2,0-0.4,0.2-0.4,0.4c0,0.2,0.2,0.4,0.4,0.4h1.7c0.2,0,0.4-0.2,0.4-0.4c0-0.2-0.2-0.4-0.4-0.4H34.4z"/>
	</g>
	<g>
		<path class="st4" d="M33.6,27.1c0.1,0,0.2,0,0.3-0.1l1.5-0.8c0.2-0.1,0.3-0.5,0.2-0.7c-0.1-0.2-0.5-0.3-0.7-0.2l-1.5,0.8
			c-0.2,0.1-0.3,0.5-0.2,0.7C33.2,27,33.4,27.1,33.6,27.1z"/>
		<path class="st4" d="M33.6,27.2c-0.2,0-0.4-0.1-0.6-0.3c-0.1-0.1-0.1-0.3-0.1-0.5s0.1-0.3,0.3-0.4l1.5-0.8
			c0.1-0.1,0.3-0.1,0.5-0.1s0.3,0.1,0.4,0.3c0.1,0.1,0.1,0.3,0.1,0.5s-0.1,0.3-0.3,0.4l-1.5,0.8C33.8,27.2,33.7,27.2,33.6,27.2z
			 M35,25.4c-0.1,0-0.1,0-0.2,0.1l-1.5,0.8c-0.1,0.1-0.2,0.1-0.2,0.2s0,0.2,0,0.3c0.1,0.2,0.4,0.2,0.5,0.1l1.5-0.8
			c0.1-0.1,0.2-0.1,0.2-0.2c0-0.1,0-0.2,0-0.3s-0.1-0.2-0.2-0.2C35.1,25.4,35.1,25.4,35,25.4z"/>
	</g>
	<g>
		<path class="st4" d="M32.4,22.4c-0.2-0.1-0.6-0.1-0.7,0.2L30.8,24c-0.1,0.2-0.1,0.6,0.2,0.7c0.1,0,0.2,0.1,0.3,0.1
			c0.2,0,0.3-0.1,0.4-0.3l0.8-1.5C32.7,22.8,32.6,22.5,32.4,22.4z"/>
		<path class="st4" d="M31.3,24.9c-0.1,0-0.2,0-0.3-0.1c-0.1-0.1-0.3-0.2-0.3-0.4s0-0.3,0.1-0.5l0.8-1.5c0.1-0.1,0.2-0.3,0.4-0.3
			c0.2,0,0.3,0,0.5,0.1c0.1,0.1,0.3,0.2,0.3,0.4s0,0.3-0.1,0.5l-0.8,1.5C31.7,24.8,31.5,24.9,31.3,24.9z M32.1,22.4c0,0-0.1,0-0.1,0
			c-0.1,0-0.2,0.1-0.2,0.2l-0.8,1.5c-0.1,0.1-0.1,0.2,0,0.3s0.1,0.2,0.2,0.2c0.2,0.1,0.4,0,0.5-0.1l0.8-1.5c0.1-0.1,0.1-0.2,0-0.3
			s-0.1-0.2-0.2-0.2C32.2,22.4,32.2,22.4,32.1,22.4z"/>
	</g>
	<g>
		<path class="st1" d="M45.9,24.4h-4.3V15c0-0.3-0.2-0.5-0.5-0.5H26.4c-0.8,0-1.6,0.3-2.3,0.9l-8.4,7.5c-0.7,0.6-1.1,1.6-1.1,2.6V43
			c0,0.3,0.2,0.5,0.5,0.5h1.6v6.8c0,0.3,0.2,0.5,0.5,0.5h2.3c0.2,2.6,2.5,4.7,5.2,4.7s4.9-2.1,5.2-4.7h12.5c0.2,2.6,2.5,4.7,5.2,4.7
			s4.9-2.1,5.2-4.7H55c0.3,0,0.5-0.2,0.5-0.5V33.9C55.5,28.7,51.2,24.4,45.9,24.4z M15.5,25.5c0-0.7,0.3-1.3,0.8-1.8l8.4-7.5
			c0.4-0.4,1-0.6,1.6-0.6h14.2v26.9H15.5V25.5z M24.5,54.5c-2.3,0-4.2-1.9-4.2-4.2c0-2.3,1.9-4.2,4.2-4.2s4.2,1.9,4.2,4.2
			C28.7,52.6,26.8,54.5,24.5,54.5z M47.3,54.5c-2.3,0-4.2-1.9-4.2-4.2c0-2.3,1.9-4.2,4.2-4.2s4.2,1.9,4.2,4.2
			C51.4,52.6,49.6,54.5,47.3,54.5z M54.5,49.8h-2c-0.3-2.6-2.5-4.6-5.1-4.6s-4.9,2-5.1,4.6H29.7c-0.3-2.6-2.5-4.6-5.1-4.6
			s-4.9,2-5.1,4.6h-1.7v-6.3h23.5c0.3,0,0.5-0.2,0.5-0.5V25.4h4.3c4.7,0,8.5,3.8,8.5,8.5V49.8z"/>
		<path class="st1" d="M47.3,55.7c-2.7,0-5-2-5.3-4.7H29.8c-0.3,2.6-2.6,4.7-5.3,4.7c-2.7,0-5-2-5.3-4.7h-2.1
			c-0.4,0-0.7-0.3-0.7-0.7v-6.6H15c-0.4,0-0.7-0.3-0.7-0.7V25.5c0-1,0.4-2,1.2-2.7l8.4-7.5c0.7-0.6,1.5-0.9,2.4-0.9h14.8
			c0.4,0,0.7,0.3,0.7,0.7v9.2h4.1c5.4,0,9.7,4.4,9.7,9.7v16.3c0,0.4-0.3,0.7-0.7,0.7h-2.4C52.3,53.6,50,55.7,47.3,55.7z M29.5,50.6
			h12.8l0,0.2c0.2,2.5,2.4,4.5,5,4.5s4.7-2,5-4.5l0-0.2H55c0.2,0,0.3-0.1,0.3-0.3V33.9c0-5.2-4.2-9.4-9.3-9.4h-4.5V15
			c0-0.2-0.1-0.3-0.3-0.3H26.4c-0.8,0-1.6,0.3-2.1,0.8l-8.4,7.5c-0.7,0.6-1.1,1.5-1.1,2.4V43c0,0.2,0.1,0.3,0.3,0.3h1.8v7
			c0,0.2,0.1,0.3,0.3,0.3h2.4l0,0.2c0.2,2.5,2.4,4.5,5,4.5s4.7-2,5-4.5L29.5,50.6z M47.3,54.7c-2.4,0-4.3-2-4.3-4.4s1.9-4.4,4.3-4.4
			s4.3,2,4.3,4.4S49.7,54.7,47.3,54.7z M47.3,46.3c-2.2,0-4,1.8-4,4s1.8,4,4,4s4-1.8,4-4S49.5,46.3,47.3,46.3z M24.5,54.7
			c-2.4,0-4.3-2-4.3-4.4s1.9-4.4,4.3-4.4s4.3,2,4.3,4.4S26.9,54.7,24.5,54.7z M24.5,46.3c-2.2,0-4,1.8-4,4s1.8,4,4,4
			c2.2,0,4-1.8,4-4S26.7,46.3,24.5,46.3z M54.6,50h-2.4l0-0.2c-0.3-2.5-2.4-4.5-5-4.5s-4.7,1.9-5,4.5l0,0.2H29.5l0-0.2
			c-0.3-2.5-2.4-4.5-5-4.5s-4.7,1.9-5,4.5l0,0.2h-2.1v-6.7h23.7c0.2,0,0.3-0.1,0.3-0.3V25.2h4.5c4.8,0,8.7,3.9,8.7,8.7V50z
			 M52.6,49.6h1.7V33.9c0-4.6-3.7-8.3-8.3-8.3h-4.1V43c0,0.4-0.3,0.7-0.7,0.7H17.8v5.9h1.4c0.4-2.7,2.6-4.6,5.3-4.6s5,2,5.3,4.6H42
			c0.4-2.7,2.6-4.6,5.3-4.6S52.2,46.9,52.6,49.6z M40.8,42.6H15.4V25.5c0-0.7,0.3-1.4,0.9-1.9l8.4-7.5c0.5-0.4,1.1-0.7,1.7-0.7h14.4
			V42.6z M15.7,42.3h24.7V15.7H26.4c-0.5,0-1.1,0.2-1.5,0.6l-8.4,7.5c-0.5,0.4-0.7,1-0.7,1.6V42.3z"/>
	</g>
	<g>
		<path class="st1" d="M45.3,27.3h-1.4c-0.3,0-0.5,0.2-0.5,0.5v8.5c0,0.3,0.2,0.5,0.5,0.5h7.7c0.3,0,0.5-0.2,0.5-0.5v-2.2
			C52.1,30.4,49.1,27.3,45.3,27.3z M51.1,35.8h-6.7v-7.5h0.9c3.2,0,5.8,2.6,5.8,5.8V35.8z"/>
		<path class="st1" d="M51.6,37h-7.7c-0.4,0-0.7-0.3-0.7-0.7v-8.5c0-0.4,0.3-0.7,0.7-0.7h1.4c3.9,0,7,3.2,7,7v2.2
			C52.3,36.7,52,37,51.6,37z M43.9,27.5c-0.2,0-0.3,0.1-0.3,0.3v8.5c0,0.2,0.1,0.3,0.3,0.3h7.7c0.2,0,0.3-0.1,0.3-0.3v-2.2
			c0-3.7-3-6.6-6.6-6.6H43.9z M51.3,36h-7.1v-7.9h1.1c3.3,0,6,2.7,6,6V36z M44.6,35.6h6.3v-1.5c0-3.1-2.5-5.6-5.6-5.6h-0.7V35.6z"/>
	</g>
</g>
<g>
	<defs>
		<polygon id="SVGID_1_" points="-429.5,1450.5 -429.5,1451.6 -411.6,1451.6 -411.6,1470.5 -410.5,1470.5 -410.5,1450.5 		"/>
	</defs>
	<clipPath id="SVGID_2_">
		<use xlink:href="#SVGID_1_"  style="overflow:visible;"/>
	</clipPath>
	<g class="st10">
		<defs>
			<rect id="SVGID_3_" x="-687.5" y="-3135.5" width="1640" height="5497"/>
		</defs>
		<clipPath id="SVGID_4_">
			<use xlink:href="#SVGID_3_"  style="overflow:visible;"/>
		</clipPath>
	</g>
</g>
<g>
	<defs>
		<polygon id="SVGID_5_" points="-427.8,1469.5 -428.5,1468.7 -411.3,1450.5 -410.5,1451.3 		"/>
	</defs>
	<clipPath id="SVGID_6_">
		<use xlink:href="#SVGID_5_"  style="overflow:visible;"/>
	</clipPath>
	<g class="st12">
		<defs>
			<rect id="SVGID_7_" x="-687.5" y="-3135.5" width="1640" height="5497"/>
		</defs>
		<clipPath id="SVGID_8_">
			<use xlink:href="#SVGID_7_"  style="overflow:visible;"/>
		</clipPath>
	</g>
</g>
</svg>
