<?xml version="1.0" encoding="utf-8"?>
<!-- Generator: Adobe Illustrator 24.0.0, SVG Export Plug-In . SVG Version: 6.00 Build 0)  -->
<svg version="1.1" id="Layer_1" xmlns="http://www.w3.org/2000/svg" xmlns:xlink="http://www.w3.org/1999/xlink" x="0px" y="0px"
	 viewBox="0 0 70 70" style="enable-background:new 0 0 70 70;" xml:space="preserve">
<style type="text/css">
	.st0{fill:#FF000B;}
	.st1{fill:#989898;}
	.st2{fill:#00B9F1;}
	.st3{fill:#227DBA;}
	.st4{fill:#508D35;}
	.st5{fill:#2CAB9F;}
	.st6{fill:#99D000;}
	.st7{fill:none;stroke:#99D000;stroke-width:0.5743;stroke-miterlimit:10;}
	.st8{fill:none;stroke:#2CAB9F;stroke-width:2.474;stroke-linecap:round;stroke-linejoin:round;stroke-miterlimit:10;}
	.st9{fill:#FFFFFF;}
	.st10{clip-path:url(#SVGID_2_);}
	.st11{clip-path:url(#SVGID_4_);}
	.st12{clip-path:url(#SVGID_6_);}
	.st13{clip-path:url(#SVGID_8_);}
	.st14{filter:url(#Adobe_OpacityMaskFilter);}
	.st15{fill-rule:evenodd;clip-rule:evenodd;fill:#FFFFFF;}
	.st16{mask:url(#mask-2_4_);}
	.st17{fill-rule:evenodd;clip-rule:evenodd;fill:#989898;}
	.st18{filter:url(#Adobe_OpacityMaskFilter_1_);}
	.st19{mask:url(#mask-4_3_);}
	.st20{fill-rule:evenodd;clip-rule:evenodd;fill:#AFD141;}
	.st21{filter:url(#Adobe_OpacityMaskFilter_2_);}
	.st22{mask:url(#mask-6_2_);}
	.st23{filter:url(#Adobe_OpacityMaskFilter_3_);}
	.st24{mask:url(#mask-2_3_);}
	.st25{filter:url(#Adobe_OpacityMaskFilter_4_);}
	.st26{mask:url(#mask-2_2_);}
	.st27{filter:url(#Adobe_OpacityMaskFilter_5_);}
	.st28{mask:url(#mask-4_2_);}
	.st29{filter:url(#Adobe_OpacityMaskFilter_6_);}
	.st30{mask:url(#mask-2_1_);}
	.st31{filter:url(#Adobe_OpacityMaskFilter_7_);}
	.st32{mask:url(#mask-4_1_);}
	.st33{filter:url(#Adobe_OpacityMaskFilter_8_);}
	.st34{mask:url(#mask-6_1_);}
</style>
<g>
	<g>
		<path class="st0" d="M35,15.9c-10.6,0-19.2,8.6-19.2,19.2S24.4,54.4,35,54.4s19.2-8.6,19.2-19.2S45.6,15.9,35,15.9z M44.6,50.4
			L43.2,48c-0.2-0.3-0.5-0.4-0.8-0.2c-0.3,0.2-0.4,0.5-0.2,0.8l1.4,2.5c-2.4,1.3-5.1,2.1-8,2.2v-2.9c0-0.3-0.3-0.6-0.6-0.6
			s-0.6,0.3-0.6,0.6v2.9c-2.9-0.1-5.6-0.9-8-2.2l1.4-2.5c0.2-0.3,0.1-0.6-0.2-0.8S27,47.7,26.8,48l-1.4,2.5
			c-2.4-1.5-4.4-3.5-5.8-5.9l2.4-1.4c0.3-0.2,0.4-0.5,0.2-0.8c-0.2-0.3-0.5-0.4-0.8-0.2L19,43.5c-1.3-2.4-2-5.1-2.1-8h2.7
			c0.3,0,0.6-0.3,0.6-0.6c0-0.3-0.3-0.6-0.6-0.6H17c0.1-2.9,0.9-5.5,2.2-7.9l2.3,1.3c0.1,0.1,0.2,0.1,0.3,0.1c0.2,0,0.4-0.1,0.5-0.3
			c0.2-0.3,0.1-0.6-0.2-0.8l-2.3-1.3c1.5-2.3,3.5-4.3,5.8-5.7l1.3,2.3c0.1,0.2,0.3,0.3,0.5,0.3c0.1,0,0.2,0,0.3-0.1
			c0.3-0.2,0.4-0.5,0.2-0.8l-1.3-2.3c2.4-1.3,5-2,7.9-2.1v2.6c0,0.3,0.3,0.6,0.6,0.6s0.6-0.3,0.6-0.6v-2.6c2.8,0.1,5.5,0.8,7.9,2.1
			l-1.3,2.3c-0.2,0.3-0.1,0.6,0.2,0.8c0.1,0.1,0.2,0.1,0.3,0.1c0.2,0,0.4-0.1,0.5-0.3l1.3-2.3c2.3,1.5,4.3,3.4,5.8,5.7L48,26.8
			c-0.3,0.2-0.4,0.5-0.2,0.8c0.1,0.2,0.3,0.3,0.5,0.3c0.1,0,0.2,0,0.3-0.1l2.3-1.3c1.3,2.4,2.1,5.1,2.2,7.9h-2.7
			c-0.3,0-0.6,0.3-0.6,0.6c0,0.3,0.3,0.6,0.6,0.6h2.7c-0.1,2.9-0.8,5.6-2.1,8l-2.4-1.4c-0.3-0.2-0.6-0.1-0.8,0.2
			c-0.2,0.3-0.1,0.6,0.2,0.8l2.4,1.4C48.9,46.9,46.9,49,44.6,50.4z"/>
		<path class="st0" d="M35,54.5c-10.7,0-19.4-8.7-19.4-19.4S24.3,15.8,35,15.8s19.4,8.7,19.4,19.4S45.7,54.5,35,54.5z M35,16
			c-10.5,0-19.1,8.6-19.1,19.1S24.5,54.3,35,54.3s19.1-8.6,19.1-19.1S45.5,16,35,16z M35.5,53.3v-3c0-0.3-0.2-0.5-0.5-0.5
			s-0.5,0.2-0.5,0.5v3l-0.1,0c-2.9-0.1-5.6-0.8-8.1-2.2l-0.1-0.1l1.5-2.6c0.1-0.2,0.1-0.5-0.2-0.6c-0.2-0.1-0.5,0-0.6,0.2l-1.5,2.6
			l-0.1-0.1C23,49.1,21,47,19.5,44.6l-0.1-0.1l2.5-1.5c0.2-0.1,0.3-0.4,0.2-0.6c-0.1-0.1-0.2-0.2-0.3-0.2c-0.1,0-0.2,0-0.3,0
			L19,43.7l-0.1-0.1c-1.3-2.5-2-5.2-2.1-8l0-0.1h2.9c0.3,0,0.5-0.2,0.5-0.5c0-0.3-0.2-0.5-0.5-0.5h-2.9l0-0.1c0.1-2.8,0.8-5.5,2.2-8
			l0.1-0.1l2.4,1.4c0.2,0.1,0.5,0,0.6-0.2c0.1-0.2,0.1-0.5-0.2-0.6l-2.4-1.4l0.1-0.1c1.5-2.3,3.5-4.3,5.8-5.8l0.1-0.1l1.4,2.4
			c0.1,0.2,0.4,0.3,0.6,0.2c0.2-0.1,0.3-0.4,0.2-0.6l-1.4-2.4l0.1-0.1c2.5-1.3,5.1-2,7.9-2.1l0.1,0v2.7c0,0.3,0.2,0.5,0.5,0.5
			s0.5-0.2,0.5-0.5v-2.7l0.1,0c2.8,0.1,5.5,0.8,7.9,2.1l0.1,0.1l-1.4,2.4c-0.1,0.2-0.1,0.5,0.2,0.6c0.2,0.1,0.5,0,0.6-0.2l1.4-2.4
			l0.1,0.1c2.3,1.5,4.4,3.5,5.8,5.8l0.1,0.1L48,26.9c-0.2,0.1-0.3,0.4-0.2,0.6c0.1,0.2,0.4,0.3,0.6,0.2l2.4-1.4l0.1,0.1
			c1.3,2.5,2.1,5.1,2.2,8l0,0.1h-2.9c-0.3,0-0.5,0.2-0.5,0.5c0,0.3,0.2,0.5,0.5,0.5h2.9l0,0.1c-0.1,2.8-0.8,5.5-2.1,8L51,43.7
			l-2.5-1.5c-0.1-0.1-0.2-0.1-0.4,0c-0.1,0-0.2,0.1-0.3,0.2c-0.1,0.2-0.1,0.5,0.2,0.6l2.5,1.5l-0.1,0.1C49,47,47,49.1,44.7,50.5
			l-0.1,0.1L43.1,48c-0.1-0.1-0.2-0.2-0.3-0.2c-0.1,0-0.2,0-0.3,0c-0.2,0.1-0.3,0.4-0.2,0.6l1.5,2.6l-0.1,0.1
			c-2.5,1.4-5.2,2.1-8.1,2.2L35.5,53.3z M35,49.6c0.4,0,0.7,0.3,0.7,0.7v2.8c2.7-0.1,5.3-0.8,7.7-2.1L42,48.6
			c-0.2-0.3-0.1-0.8,0.3-1c0.2-0.1,0.4-0.1,0.5-0.1c0.2,0,0.3,0.2,0.4,0.3l1.4,2.4c2.3-1.4,4.2-3.4,5.6-5.7l-2.3-1.3
			c-0.3-0.2-0.5-0.6-0.3-1c0.1-0.2,0.2-0.3,0.4-0.3c0.2,0,0.4,0,0.5,0.1l2.3,1.3c1.2-2.4,1.9-5,2-7.7h-2.6c-0.4,0-0.7-0.3-0.7-0.7
			s0.3-0.7,0.7-0.7h2.6c-0.1-2.7-0.8-5.2-2.1-7.6L48.6,28c-0.3,0.2-0.8,0.1-1-0.3c-0.2-0.3-0.1-0.8,0.3-1l2.2-1.3
			c-1.4-2.2-3.3-4.1-5.6-5.5l-1.3,2.2c-0.2,0.3-0.6,0.5-1,0.3c-0.3-0.2-0.5-0.6-0.3-1l1.3-2.2c-2.4-1.2-4.9-1.9-7.6-2v2.5
			c0,0.4-0.3,0.7-0.7,0.7s-0.7-0.3-0.7-0.7v-2.5c-2.7,0.1-5.2,0.8-7.6,2l1.3,2.2c0.2,0.3,0.1,0.8-0.3,1c-0.3,0.2-0.8,0.1-1-0.3
			l-1.3-2.2c-2.2,1.4-4.2,3.3-5.6,5.5l2.2,1.3c0.3,0.2,0.5,0.6,0.3,1c-0.2,0.3-0.6,0.4-1,0.3l-2.2-1.3c-1.3,2.4-2,4.9-2.1,7.6h2.6
			c0.4,0,0.7,0.3,0.7,0.7s-0.3,0.7-0.7,0.7h-2.6c0.1,2.7,0.8,5.3,2,7.7l2.3-1.3c0.2-0.1,0.4-0.1,0.5-0.1c0.2,0,0.3,0.2,0.4,0.3
			c0.2,0.3,0.1,0.8-0.3,1l-2.3,1.3c1.4,2.3,3.3,4.2,5.6,5.7l1.4-2.4c0.1-0.2,0.2-0.3,0.4-0.3c0.2,0,0.4,0,0.5,0.1
			c0.3,0.2,0.5,0.6,0.3,1L26.6,51c2.4,1.3,5,2,7.7,2.1v-2.8C34.3,49.9,34.6,49.6,35,49.6z"/>
	</g>
	<g>
		<path class="st1" d="M35,11.6c-12.9,0-23.4,10.5-23.4,23.4c0,12.9,10.5,23.4,23.4,23.4S58.4,47.9,58.4,35
			C58.4,22.1,47.9,11.6,35,11.6z M35,57.3c-12.3,0-22.2-10-22.2-22.3s10-22.3,22.2-22.3s22.2,10,22.2,22.3S47.3,57.3,35,57.3z"/>
		<path class="st1" d="M35,58.6C22,58.6,11.5,48,11.5,35C11.5,22,22,11.4,35,11.4S58.5,22,58.5,35C58.5,48,48,58.6,35,58.6z
			 M35,11.7c-12.8,0-23.3,10.5-23.3,23.3c0,12.8,10.4,23.3,23.3,23.3S58.3,47.8,58.3,35C58.3,22.2,47.8,11.7,35,11.7z M35,57.4
			c-12.3,0-22.4-10-22.4-22.4c0-12.3,10-22.4,22.4-22.4s22.4,10,22.4,22.4C57.4,47.3,47.3,57.4,35,57.4z M35,12.9
			c-12.2,0-22.1,9.9-22.1,22.1S22.8,57.1,35,57.1S57.1,47.2,57.1,35S47.2,12.9,35,12.9z"/>
	</g>
	<g>
		<path class="st1" d="M45.7,34.4H39c-0.3-1.9-2-3.5-4-3.5c-2.2,0-4,1.8-4,4c0,2,1.5,3.7,3.4,4v6.8c0,0.3,0.3,0.6,0.6,0.6
			c0.3,0,0.6-0.3,0.6-0.6V39c1.8-0.3,3.2-1.6,3.4-3.4h6.8c0.3,0,0.6-0.3,0.6-0.6C46.3,34.7,46.1,34.4,45.7,34.4z M35,37.9
			c-1.6,0-2.9-1.3-2.9-2.9c0-1.6,1.3-2.9,2.9-2.9c1.6,0,2.9,1.3,2.9,2.9C37.9,36.6,36.6,37.9,35,37.9z"/>
		<path class="st1" d="M35,46.5c-0.4,0-0.7-0.3-0.7-0.7v-6.7c-2-0.3-3.4-2.1-3.4-4.1c0-2.3,1.9-4.2,4.2-4.2c2,0,3.8,1.5,4.1,3.5h6.6
			c0.4,0,0.7,0.3,0.7,0.7s-0.3,0.7-0.7,0.7h-6.6c-0.3,1.7-1.7,3.1-3.4,3.4v6.7C35.7,46.2,35.4,46.5,35,46.5z M35,31.1
			c-2.2,0-3.9,1.8-3.9,3.9c0,1.9,1.4,3.6,3.3,3.9l0.1,0v6.9c0,0.3,0.2,0.5,0.5,0.5s0.5-0.2,0.5-0.5v-6.9l0.1,0
			c1.7-0.2,3.1-1.6,3.3-3.3l0-0.1h6.9c0.3,0,0.5-0.2,0.5-0.5s-0.2-0.5-0.5-0.5h-6.9l0-0.1C38.6,32.6,36.9,31.1,35,31.1z M35,38
			c-1.6,0-3-1.3-3-3s1.3-3,3-3s3,1.3,3,3S36.7,38,35,38z M35,32.3c-1.5,0-2.7,1.2-2.7,2.7s1.2,2.7,2.7,2.7s2.7-1.2,2.7-2.7
			S36.5,32.3,35,32.3z"/>
	</g>
</g>
<g>
	<defs>
		<polygon id="SVGID_1_" points="-531.9,2382.3 -531.9,2383.4 -514,2383.4 -514,2402.3 -512.9,2402.3 -512.9,2382.3 		"/>
	</defs>
	<clipPath id="SVGID_2_">
		<use xlink:href="#SVGID_1_"  style="overflow:visible;"/>
	</clipPath>
	<g class="st10">
		<defs>
			<rect id="SVGID_3_" x="-789.9" y="-2203.7" width="1640" height="5497"/>
		</defs>
		<clipPath id="SVGID_4_">
			<use xlink:href="#SVGID_3_"  style="overflow:visible;"/>
		</clipPath>
	</g>
</g>
<g>
	<defs>
		<polygon id="SVGID_5_" points="-530.1,2401.3 -530.9,2400.5 -513.7,2382.3 -512.9,2383.1 		"/>
	</defs>
	<clipPath id="SVGID_6_">
		<use xlink:href="#SVGID_5_"  style="overflow:visible;"/>
	</clipPath>
	<g class="st12">
		<defs>
			<rect id="SVGID_7_" x="-789.9" y="-2203.7" width="1640" height="5497"/>
		</defs>
		<clipPath id="SVGID_8_">
			<use xlink:href="#SVGID_7_"  style="overflow:visible;"/>
		</clipPath>
	</g>
</g>
</svg>
