<?xml version="1.0" encoding="utf-8"?>
<!-- Generator: Adobe Illustrator 24.0.0, SVG Export Plug-In . SVG Version: 6.00 Build 0)  -->
<svg version="1.1" id="Layer_1" xmlns="http://www.w3.org/2000/svg" xmlns:xlink="http://www.w3.org/1999/xlink" x="0px" y="0px"
	 viewBox="0 0 70 70" style="enable-background:new 0 0 70 70;" xml:space="preserve">
<style type="text/css">
	.st0{fill:#FF000B;}
	.st1{fill:#989898;}
	.st2{fill:#00B9F1;}
	.st3{fill:#227DBA;}
	.st4{fill:#508D35;}
	.st5{fill:#2CAB9F;}
	.st6{fill:#99D000;}
	.st7{fill:none;stroke:#99D000;stroke-width:0.5743;stroke-miterlimit:10;}
	.st8{fill:none;stroke:#2CAB9F;stroke-width:2.474;stroke-linecap:round;stroke-linejoin:round;stroke-miterlimit:10;}
	.st9{fill:#FFFFFF;}
	.st10{clip-path:url(#SVGID_2_);}
	.st11{clip-path:url(#SVGID_4_);}
	.st12{clip-path:url(#SVGID_6_);}
	.st13{clip-path:url(#SVGID_8_);}
	.st14{filter:url(#Adobe_OpacityMaskFilter);}
	.st15{fill-rule:evenodd;clip-rule:evenodd;fill:#FFFFFF;}
	.st16{mask:url(#mask-2_4_);}
	.st17{fill-rule:evenodd;clip-rule:evenodd;fill:#989898;}
	.st18{filter:url(#Adobe_OpacityMaskFilter_1_);}
	.st19{mask:url(#mask-4_3_);}
	.st20{fill-rule:evenodd;clip-rule:evenodd;fill:#AFD141;}
	.st21{filter:url(#Adobe_OpacityMaskFilter_2_);}
	.st22{mask:url(#mask-6_2_);}
	.st23{filter:url(#Adobe_OpacityMaskFilter_3_);}
	.st24{mask:url(#mask-2_3_);}
	.st25{filter:url(#Adobe_OpacityMaskFilter_4_);}
	.st26{mask:url(#mask-2_2_);}
	.st27{filter:url(#Adobe_OpacityMaskFilter_5_);}
	.st28{mask:url(#mask-4_2_);}
	.st29{filter:url(#Adobe_OpacityMaskFilter_6_);}
	.st30{mask:url(#mask-2_1_);}
	.st31{filter:url(#Adobe_OpacityMaskFilter_7_);}
	.st32{mask:url(#mask-4_1_);}
	.st33{filter:url(#Adobe_OpacityMaskFilter_8_);}
	.st34{mask:url(#mask-6_1_);}
</style>
<g>
	<g>
		<path class="st2" d="M38.6,21.6c0.3,0.1,0.5-0.1,0.6-0.3c0.1-0.3-0.1-0.5-0.3-0.6c-5.1-1.4-10.6,0-14.4,3.8
			c-3.8,3.8-5.2,9.3-3.8,14.4c0.1,0.2,0.3,0.4,0.5,0.4c0,0,0.1,0,0.1,0c0.3-0.1,0.4-0.3,0.3-0.6c-1.3-4.8,0-10,3.5-13.5
			C28.7,21.6,33.8,20.3,38.6,21.6z"/>
	</g>
	<g>
		<path class="st2" d="M17,39.5c0,0,0.1,0,0.1,0c0.3-0.1,0.4-0.3,0.3-0.6c-1.7-6,0-12.6,4.5-17c4.4-4.4,10.9-6.1,17-4.5
			c0.3,0.1,0.5-0.1,0.6-0.3c0.1-0.3-0.1-0.5-0.3-0.6c-6.4-1.8-13.2,0-17.9,4.7c-4.7,4.7-6.5,11.5-4.7,17.9
			C16.6,39.4,16.8,39.5,17,39.5z"/>
	</g>
	<g>
		<path class="st2" d="M44.8,44.8c-3.5,3.5-8.7,4.9-13.5,3.5c-0.3-0.1-0.5,0.1-0.6,0.3c-0.1,0.3,0.1,0.5,0.3,0.6
			c1.3,0.4,2.6,0.5,4,0.5c3.9,0,7.7-1.5,10.5-4.3c3.8-3.8,5.2-9.3,3.8-14.4c-0.1-0.3-0.3-0.4-0.6-0.3c-0.3,0.1-0.4,0.3-0.3,0.6
			C49.7,36.2,48.4,41.3,44.8,44.8z"/>
	</g>
	<g>
		<path class="st2" d="M48.1,48.1c-4.4,4.4-10.9,6.1-17,4.5c-0.3-0.1-0.5,0.1-0.6,0.3c-0.1,0.3,0.1,0.5,0.3,0.6
			c1.6,0.4,3.3,0.7,4.9,0.7c4.8,0,9.5-1.9,13-5.4c4.7-4.7,6.5-11.5,4.7-17.9c-0.1-0.3-0.3-0.4-0.6-0.3c-0.3,0.1-0.4,0.3-0.3,0.6
			C54.2,37.1,52.5,43.6,48.1,48.1z"/>
	</g>
	<g>
		<path class="st1" d="M39.1,25.8C39.1,25.7,39.1,25.7,39.1,25.8c-1.3-0.6-2.7-0.9-4.1-0.9c-5.6,0-10.1,4.5-10.1,10.1
			c0,1.4,0.3,2.8,0.8,4c0,0,0,0,0,0.1c1.6,3.6,5.1,6,9.3,6c0.2,0,0.3,0,0.5,0c0,0,0.1,0,0.1,0c0,0,0.1,0,0.1,0
			c3.4-0.2,6.4-2.1,8-4.9c0-0.1,0.1-0.1,0.1-0.2c0.8-1.5,1.3-3.2,1.3-5c0-1.1-0.2-2.2-0.5-3.2c0,0,0-0.1,0-0.1c0,0,0,0,0,0
			C43.6,29,41.6,26.9,39.1,25.8z M43.5,31.7c-0.7,0.3-2.1,0.6-3.4-0.5c-0.6-0.5-1.2-0.6-1.7-0.7c-0.7-0.1-1.1-0.1-1.4-1
			c-0.5-1.3,1.3-2.4,1.9-2.7C41,27.7,42.7,29.5,43.5,31.7z M32,26.3c0.5,0.4,1.3,1.2,1.4,2.1c0.1,0.4,0,0.7-0.3,1
			c-1.4,1.9-1.7,2.4-1.8,4.3c-0.1,2.2-0.8,4.7-5,4.7c-0.4-1-0.7-2.2-0.7-3.4C25.8,31,28.4,27.6,32,26.3z M36.1,44.1
			c0-1.3-0.6-2.6-0.6-2.7c0,0-1-2.7,0.2-4.3c1.2-1.5,2.7-1.1,2.7-1.1c0,0,0.1,0,0.1,0c0.1,0,2.7,0.4,4.3,3.7
			C41.4,42.1,38.9,43.8,36.1,44.1z M43.3,38.8c-1.8-3.1-4.3-3.6-4.7-3.7c-0.3-0.1-2.2-0.5-3.7,1.4c-1.6,2-0.4,5.1-0.4,5.3
			c0.2,0.4,0.6,1.5,0.6,2.4c0,0-0.1,0-0.1,0c-3.5,0-6.5-2-8.1-4.8c1.9,0,5.2-0.6,5.5-5.6c0.1-1.6,0.3-2,1.6-3.8
			c0.4-0.5,0.5-1.1,0.4-1.7c-0.1-0.9-0.8-1.7-1.3-2.2c0.6-0.1,1.2-0.2,1.9-0.2c1,0,1.9,0.2,2.8,0.4c-1,0.7-2.3,1.9-1.7,3.5
			c0.6,1.5,1.5,1.6,2.2,1.6c0.4,0,0.8,0.1,1.2,0.4c0.9,0.8,1.8,1.1,2.7,1.1c0.6,0,1.1-0.1,1.6-0.3c0.2,0.8,0.3,1.6,0.3,2.4
			C44.2,36.3,43.9,37.6,43.3,38.8z"/>
	</g>
</g>
<g>
	<defs>
		<polygon id="SVGID_1_" points="-853.8,2225.3 -853.8,2226.4 -835.9,2226.4 -835.9,2245.3 -834.8,2245.3 -834.8,2225.3 		"/>
	</defs>
	<clipPath id="SVGID_2_">
		<use xlink:href="#SVGID_1_"  style="overflow:visible;"/>
	</clipPath>
	<g class="st10">
		<defs>
			<rect id="SVGID_3_" x="-1111.8" y="-2360.7" width="1640" height="5497"/>
		</defs>
		<clipPath id="SVGID_4_">
			<use xlink:href="#SVGID_3_"  style="overflow:visible;"/>
		</clipPath>
	</g>
</g>
<g>
	<defs>
		<polygon id="SVGID_5_" points="-852,2244.3 -852.8,2243.5 -835.6,2225.3 -834.8,2226.1 		"/>
	</defs>
	<clipPath id="SVGID_6_">
		<use xlink:href="#SVGID_5_"  style="overflow:visible;"/>
	</clipPath>
	<g class="st12">
		<defs>
			<rect id="SVGID_7_" x="-1111.8" y="-2360.7" width="1640" height="5497"/>
		</defs>
		<clipPath id="SVGID_8_">
			<use xlink:href="#SVGID_7_"  style="overflow:visible;"/>
		</clipPath>
	</g>
</g>
</svg>
