<?xml version="1.0" encoding="utf-8"?>
<!-- Generator: Adobe Illustrator 24.0.0, SVG Export Plug-In . SVG Version: 6.00 Build 0)  -->
<svg version="1.1" id="Layer_1" xmlns="http://www.w3.org/2000/svg" xmlns:xlink="http://www.w3.org/1999/xlink" x="0px" y="0px"
	 viewBox="0 0 70 70" style="enable-background:new 0 0 70 70;" xml:space="preserve">
<style type="text/css">
	.st0{filter:url(#Adobe_OpacityMaskFilter);}
	.st1{fill-rule:evenodd;clip-rule:evenodd;fill:#FFFFFF;}
	.st2{mask:url(#mask-2_2_);fill-rule:evenodd;clip-rule:evenodd;fill:#989898;}
	.st3{fill-rule:evenodd;clip-rule:evenodd;fill:#AFD141;}
	.st4{filter:url(#Adobe_OpacityMaskFilter_1_);}
	.st5{mask:url(#mask-4_2_);fill-rule:evenodd;clip-rule:evenodd;fill:#989898;}
	.st6{fill:#989898;}
	.st7{filter:url(#Adobe_OpacityMaskFilter_2_);}
	.st8{mask:url(#mask-2_6_);fill-rule:evenodd;clip-rule:evenodd;fill:#989898;}
	.st9{fill-rule:evenodd;clip-rule:evenodd;fill:#989898;}
	.st10{filter:url(#Adobe_OpacityMaskFilter_3_);}
	.st11{mask:url(#mask-4_3_);fill-rule:evenodd;clip-rule:evenodd;fill:#AFD141;}
	.st12{filter:url(#Adobe_OpacityMaskFilter_4_);}
	.st13{mask:url(#mask-6_2_);fill-rule:evenodd;clip-rule:evenodd;fill:#989898;}
	.st14{filter:url(#Adobe_OpacityMaskFilter_5_);}
	.st15{mask:url(#mask-2_1_);fill-rule:evenodd;clip-rule:evenodd;fill:#989898;}
	.st16{filter:url(#Adobe_OpacityMaskFilter_6_);}
	.st17{mask:url(#mask-4_1_);fill-rule:evenodd;clip-rule:evenodd;fill:#AFD141;}
	.st18{filter:url(#Adobe_OpacityMaskFilter_7_);}
	.st19{mask:url(#mask-6_1_);fill-rule:evenodd;clip-rule:evenodd;fill:#989898;}
	.st20{filter:url(#Adobe_OpacityMaskFilter_8_);}
	.st21{mask:url(#mask-2_3_);fill-rule:evenodd;clip-rule:evenodd;fill:#989898;}
	.st22{filter:url(#Adobe_OpacityMaskFilter_9_);}
	.st23{mask:url(#mask-2_8_);fill-rule:evenodd;clip-rule:evenodd;fill:#989898;}
	.st24{filter:url(#Adobe_OpacityMaskFilter_10_);}
	.st25{mask:url(#mask-4_6_);fill-rule:evenodd;clip-rule:evenodd;fill:#989898;}
	.st26{filter:url(#Adobe_OpacityMaskFilter_11_);}
	.st27{mask:url(#mask-2_7_);fill-rule:evenodd;clip-rule:evenodd;fill:#989898;}
	.st28{filter:url(#Adobe_OpacityMaskFilter_12_);}
	.st29{mask:url(#mask-4_5_);fill-rule:evenodd;clip-rule:evenodd;fill:#AFD141;}
	.st30{filter:url(#Adobe_OpacityMaskFilter_13_);}
	.st31{mask:url(#mask-6_4_);fill-rule:evenodd;clip-rule:evenodd;fill:#989898;}
	.st32{filter:url(#Adobe_OpacityMaskFilter_14_);}
	.st33{mask:url(#mask-2_5_);fill-rule:evenodd;clip-rule:evenodd;fill:#989898;}
	.st34{filter:url(#Adobe_OpacityMaskFilter_15_);}
	.st35{mask:url(#mask-4_4_);fill-rule:evenodd;clip-rule:evenodd;fill:#AFD141;}
	.st36{filter:url(#Adobe_OpacityMaskFilter_16_);}
	.st37{mask:url(#mask-6_3_);fill-rule:evenodd;clip-rule:evenodd;fill:#989898;}
	.st38{filter:url(#Adobe_OpacityMaskFilter_17_);}
	.st39{mask:url(#mask-2_4_);fill-rule:evenodd;clip-rule:evenodd;fill:#989898;}
</style>
<g>
	<defs>
		<filter id="Adobe_OpacityMaskFilter" filterUnits="userSpaceOnUse" x="17.3" y="8.3" width="35.5" height="19.6">
			<feColorMatrix  type="matrix" values="1 0 0 0 0  0 1 0 0 0  0 0 1 0 0  0 0 0 1 0"/>
		</filter>
	</defs>
	<mask maskUnits="userSpaceOnUse" x="17.3" y="8.3" width="35.5" height="19.6" id="mask-2_6_">
		<g class="st0">
			<polygon id="path-1_6_" class="st1" points="17.3,8.3 52.7,8.3 52.7,27.9 17.3,27.9 			"/>
		</g>
	</mask>
	<path id="Fill-1" class="st8" d="M49.5,24.6H38.8c-0.3,0-0.5,0-0.7-0.1c-0.5-0.2-0.9-0.6-1.2-1c-0.1-0.3-0.2-0.6-0.2-1
		c0-1,0.7-1.8,1.6-2.1c0-0.2,0-0.4,0-0.6c0-1.5,0.9-2.8,2.2-3.4c0,0,0,0,0.1,0c0,0,0.1,0,0.1,0c0,0,0,0,0.1,0c0,0,0.1,0,0.1,0
		c0,0,0.1,0,0.1,0c0,0,0.1,0,0.1,0c0,0,0,0,0.1,0c0,0,0.1,0,0.1,0c0,0,0,0,0,0c0,0,0.1,0,0.1,0c0,0,0,0,0,0c0.1,0,0.1,0,0.2,0
		c0,0,0,0,0,0c0.1,0,0.1,0,0.2,0c0,0,0,0,0,0c0.1,0,0.1,0,0.2,0c0.1,0,0.1,0,0.2,0c1.6,0.1,3,1.2,3.4,2.6c0.4-0.3,0.9-0.5,1.5-0.5
		c1.2,0,2.3,0.9,2.4,2.1h0c1.2,0,2.1,0.9,2.1,2.1C51.7,23.6,50.7,24.6,49.5,24.6 M50.4,19.4c-0.5-1.3-1.8-2.2-3.3-2.2
		c-0.3,0-0.7,0-1,0.1c-0.8-1.4-2.4-2.3-4.1-2.3c-0.6,0-1.1,0.1-1.6,0.3c-0.6-2.1-2.6-3.5-4.8-3.5c-0.7,0-1.4,0.1-2,0.4
		c-0.2-0.3-0.3-0.6-0.5-0.9c-0.4-0.6-1-1.2-1.6-1.6c-1.3-0.9-2.8-1.4-4.4-1.4c-1,0-1.9,0.2-2.8,0.6c-0.9,0.4-1.6,0.9-2.3,1.5
		c-0.7,0.7-1.2,1.4-1.6,2.3c-0.4,0.9-0.6,1.8-0.6,2.8c0,0.1,0,0.2,0,0.3c-0.6,0.3-1.2,0.7-1.7,1.3c-0.7,0.8-1,1.8-1,2.8
		c0,1.2,0.5,2.4,1.3,3.2c0.9,0.9,2,1.3,3.2,1.3h1.8c-0.1-0.3-0.2-0.7-0.2-1h-1.6c-2,0-3.6-1.6-3.6-3.5c0-1,0.4-1.9,1.1-2.5
		c0,0,0.1-0.1,0.1-0.1c0.1-0.1,0.2-0.2,0.3-0.3c0.4-0.2,0.8-0.4,1.2-0.5c0-0.2,0-0.3-0.1-0.5c0-0.1,0-0.2,0-0.2c0-0.1,0-0.2,0-0.2
		c0-1,0.2-1.9,0.6-2.7c0,0,0-0.1,0.1-0.1c0.2-0.3,0.3-0.6,0.6-0.9c0,0,0.1-0.1,0.1-0.1c0.1-0.1,0.1-0.2,0.2-0.2
		c0.2-0.2,0.4-0.4,0.6-0.6c1.1-0.9,2.5-1.5,4.1-1.5c1.7,0,3.2,0.7,4.3,1.7c0.1,0.1,0.1,0.1,0.2,0.2c0.3,0.3,0.6,0.7,0.9,1.2
		c0.2,0.4,0.5,0.9,0.6,1.3c0.3-0.3,0.7-0.5,1.1-0.6c0.4-0.1,0.9-0.2,1.3-0.2c0.5,0,1,0.1,1.5,0.3c1,0.4,1.8,1.2,2.2,2.2
		c0,0.1,0.1,0.2,0.1,0.3c0,0,0,0.1,0,0.1c-1.3,0.8-2.2,2.3-2.3,3.9c-1,0.6-1.6,1.6-1.6,2.7c0,0.3,0.1,0.7,0.1,1h-1.9
		c0,0.2,0.1,0.4,0.1,0.6c0,1.5-1.3,2.8-2.8,2.8c-1.5,0-2.8-1.3-2.8-2.8c0-0.2,0-0.4,0.1-0.6h-2.8c0.1,0.3,0.2,0.7,0.2,1h1.5
		c0.2,1.9,1.9,3.4,3.8,3.4s3.6-1.5,3.8-3.4h1.3v0c0.6,0.7,1.5,1.2,2.5,1.2h10.7c1.8,0,3.2-1.4,3.2-3.2C52.7,21,51.7,19.8,50.4,19.4"
		/>
	<path id="Fill-4" class="st9" d="M35.3,28.2c-0.7,0-1.3,0.6-1.3,1.3c0,0.7,0.6,1.3,1.3,1.3s1.3-0.6,1.3-1.3
		C36.6,28.8,36,28.2,35.3,28.2 M35.3,31.9c-1.3,0-2.4-1.1-2.4-2.4c0-1.3,1.1-2.4,2.4-2.4s2.4,1.1,2.4,2.4
		C37.7,30.8,36.6,31.9,35.3,31.9"/>
	<path id="Fill-6" class="st9" d="M37.6,36.2c-7.7-0.6-13.7-7.3-13.7-15.2c0-2.4,0.5-4.7,1.6-6.8l0.9,0.5c-1,2-1.5,4.1-1.5,6.3
		c0,7.3,5.6,13.5,12.7,14.1L37.6,36.2z"/>
	<polygon id="Fill-8" class="st9" points="35.3,37.3 37.3,35.7 35.6,33.8 37.2,34 38.9,35.8 36.9,37.4 	"/>
	<defs>
		<filter id="Adobe_OpacityMaskFilter_1_" filterUnits="userSpaceOnUse" x="38.4" y="30.1" width="11.1" height="11.6">
			<feColorMatrix  type="matrix" values="1 0 0 0 0  0 1 0 0 0  0 0 1 0 0  0 0 0 1 0"/>
		</filter>
	</defs>
	<mask maskUnits="userSpaceOnUse" x="38.4" y="30.1" width="11.1" height="11.6" id="mask-4_3_">
		<g class="st4">
			<polygon id="path-3_3_" class="st1" points="38.4,30.1 49.5,30.1 49.5,41.7 38.4,41.7 			"/>
		</g>
	</mask>
	<path id="Fill-10" class="st11" d="M45.8,32.5c0.7-0.8,1.7-1.3,2.7-1.4c0.1,1-0.3,2-1.1,2.8c-0.7,0.8-1.7,1.3-2.7,1.4
		C44.7,34.4,45,33.4,45.8,32.5L45.8,32.5z M44.4,40.7c0-0.6-0.1-1.1-0.2-1.5c-0.2-1-0.3-1.7,0.1-2.7c0.1,0,0.1,0,0.2,0
		c1.3,0,2.6-0.6,3.6-1.7c1.1-1.2,1.5-2.7,1.3-4.1l-0.1-0.4l-0.4,0c-1.4-0.1-2.9,0.5-4,1.7c-0.5,0.5-0.8,1.1-1.1,1.8
		c-0.1-0.3-0.3-0.7-0.5-1c-0.2,0.2-0.6,0.4-0.9,0.5c0.5,0.7,0.7,1.5,0.7,2.3c-1-0.1-2-0.6-2.7-1.4c-0.7-0.8-1.1-1.9-1.1-2.8
		c0.2,0,0.3,0,0.5,0.1c0-0.1,0-0.1,0-0.2c0-0.3,0.1-0.6,0.2-0.9c-0.4-0.1-0.8-0.1-1.2-0.1l-0.4,0l-0.1,0.4c-0.3,1.4,0.2,2.9,1.3,4.1
		c0.9,1,2.2,1.7,3.5,1.7c-0.4,1.1-0.2,2-0.1,2.9c0.1,0.4,0.1,0.9,0.2,1.4h-4.9v1h11.1v-1H44.4z"/>
	<path id="Fill-13" class="st9" d="M42.2,30.2c0.4,0,0.7,0.3,0.7,0.7s-0.3,0.7-0.7,0.7s-0.7-0.3-0.7-0.7
		C41.5,30.5,41.8,30.2,42.2,30.2 M42.2,32.7c1,0,1.8-0.8,1.8-1.8s-0.8-1.8-1.8-1.8s-1.8,0.8-1.8,1.8S41.2,32.7,42.2,32.7"/>
	<defs>
		<filter id="Adobe_OpacityMaskFilter_2_" filterUnits="userSpaceOnUse" x="43.6" y="24.4" width="1.2" height="1.2">
			<feColorMatrix  type="matrix" values="1 0 0 0 0  0 1 0 0 0  0 0 1 0 0  0 0 0 1 0"/>
		</filter>
	</defs>
	<mask maskUnits="userSpaceOnUse" x="43.6" y="24.4" width="1.2" height="1.2" id="mask-6_2_">
		<g class="st7">
			<polygon id="path-5_2_" class="st1" points="17.3,41.7 52.6,41.7 52.6,8.3 17.3,8.3 			"/>
		</g>
	</mask>
	<polygon id="Fill-15" class="st13" points="43.6,25.6 44.8,25.6 44.8,24.4 43.6,24.4 	"/>
</g>
<polygon class="st6" points="40.6,55.1 40.1,54.5 35.4,59.3 35.4,49.4 34.6,49.4 34.6,59.1 29.9,54.4 29.4,54.9 35.1,60.6 "/>
</svg>
