<?xml version="1.0" encoding="utf-8"?>
<!-- Generator: Adobe Illustrator 24.0.0, SVG Export Plug-In . SVG Version: 6.00 Build 0)  -->
<svg version="1.1" id="Layer_1" xmlns="http://www.w3.org/2000/svg" xmlns:xlink="http://www.w3.org/1999/xlink" x="0px" y="0px"
	 viewBox="0 0 70 70" style="enable-background:new 0 0 70 70;" xml:space="preserve">
<style type="text/css">
	.st0{fill:#FF000B;}
	.st1{fill:#989898;}
	.st2{fill:#00B9F1;}
	.st3{fill:#227DBA;}
	.st4{fill:#508D35;}
	.st5{fill:#2CAB9F;}
	.st6{fill:#99D000;}
	.st7{fill:none;stroke:#99D000;stroke-width:0.5743;stroke-miterlimit:10;}
	.st8{fill:none;stroke:#2CAB9F;stroke-width:2.474;stroke-linecap:round;stroke-linejoin:round;stroke-miterlimit:10;}
	.st9{fill:#FFFFFF;}
	.st10{clip-path:url(#SVGID_2_);}
	.st11{clip-path:url(#SVGID_4_);}
	.st12{clip-path:url(#SVGID_6_);}
	.st13{clip-path:url(#SVGID_8_);}
	.st14{filter:url(#Adobe_OpacityMaskFilter);}
	.st15{fill-rule:evenodd;clip-rule:evenodd;fill:#FFFFFF;}
	.st16{mask:url(#mask-2_4_);}
	.st17{fill-rule:evenodd;clip-rule:evenodd;fill:#989898;}
	.st18{filter:url(#Adobe_OpacityMaskFilter_1_);}
	.st19{mask:url(#mask-4_3_);}
	.st20{fill-rule:evenodd;clip-rule:evenodd;fill:#AFD141;}
	.st21{filter:url(#Adobe_OpacityMaskFilter_2_);}
	.st22{mask:url(#mask-6_2_);}
	.st23{filter:url(#Adobe_OpacityMaskFilter_3_);}
	.st24{mask:url(#mask-2_3_);}
	.st25{filter:url(#Adobe_OpacityMaskFilter_4_);}
	.st26{mask:url(#mask-2_2_);}
	.st27{filter:url(#Adobe_OpacityMaskFilter_5_);}
	.st28{mask:url(#mask-4_2_);}
	.st29{filter:url(#Adobe_OpacityMaskFilter_6_);}
	.st30{mask:url(#mask-2_1_);}
	.st31{filter:url(#Adobe_OpacityMaskFilter_7_);}
	.st32{mask:url(#mask-4_1_);}
	.st33{filter:url(#Adobe_OpacityMaskFilter_8_);}
	.st34{mask:url(#mask-6_1_);}
</style>
<g>
	<g>
		<path class="st1" d="M29,41.4c3.3,0,6.4-1.3,8.7-3.6c4.8-4.8,4.8-12.7,0-17.5c-2.3-2.3-5.4-3.6-8.7-3.6c-3.3,0-6.4,1.3-8.7,3.6
			c-4.8,4.8-4.8,12.7,0,17.5C22.6,40.1,25.7,41.4,29,41.4z M21,21c2.1-2.1,5-3.3,8-3.3c3,0,5.8,1.2,8,3.3c4.4,4.4,4.4,11.5,0,15.9
			c-2.1,2.1-5,3.3-8,3.3s-5.8-1.2-8-3.3C16.6,32.6,16.6,25.4,21,21z"/>
	</g>
	<g>
		<path class="st1" d="M29,45.1c3.3,0,6.5-1,9.2-2.9l2.1,2.1c-0.2,0.8-0.1,1.6,0.5,2.2l9.3,9.3c0.8,0.8,1.8,1.2,2.9,1.2
			c1.1,0,2.1-0.4,2.9-1.2c1.6-1.6,1.6-4.2,0-5.8l-9.3-9.3c-0.6-0.6-1.5-0.8-2.2-0.5l-2.1-2.1c4.3-6.3,3.7-15-1.9-20.6
			c-3-3-7.1-4.7-11.4-4.7s-8.4,1.7-11.4,4.7c-6.3,6.3-6.3,16.5,0,22.8C20.6,43.4,24.7,45.1,29,45.1z M45.8,41.6l9.3,9.3
			c1.2,1.2,1.2,3.1,0,4.2C54.6,55.7,53.8,56,53,56c-0.8,0-1.5-0.3-2.1-0.9l-9.3-9.3c-0.4-0.4-0.4-1.1,0-1.6l2.7-2.7
			c0.2-0.2,0.5-0.3,0.8-0.3S45.6,41.4,45.8,41.6z M43.4,40.9l-2.5,2.5l-1.8-1.8c0.5-0.4,0.9-0.8,1.3-1.2c0.4-0.4,0.8-0.9,1.2-1.3
			L43.4,40.9z M18.4,18.4C21.2,15.5,25,14,29,14s7.8,1.6,10.6,4.4c5.9,5.9,5.9,15.4,0,21.2C36.8,42.4,33,44,29,44s-7.8-1.6-10.6-4.4
			C12.5,33.8,12.5,24.2,18.4,18.4z"/>
	</g>
</g>
<g>
	<circle class="st0" cx="29.1" cy="28.8" r="2"/>
</g>
<g>
	<path class="st0" d="M29.1,34.6c-3.2,0-5.7-2.6-5.7-5.7s2.6-5.7,5.7-5.7s5.7,2.6,5.7,5.7S32.2,34.6,29.1,34.6z M29.1,24.1
		c-2.6,0-4.7,2.1-4.7,4.7c0,2.6,2.1,4.7,4.7,4.7s4.7-2.1,4.7-4.7C33.8,26.2,31.7,24.1,29.1,24.1z"/>
</g>
<g>
	<path class="st0" d="M29.1,38c-5,0-9.2-4.1-9.2-9.2c0-5,4.1-9.2,9.2-9.2c5,0,9.2,4.1,9.2,9.2C38.2,33.9,34.1,38,29.1,38z
		 M29.1,20.7c-4.5,0-8.2,3.7-8.2,8.2c0,4.5,3.7,8.2,8.2,8.2s8.2-3.7,8.2-8.2C37.2,24.3,33.6,20.7,29.1,20.7z"/>
</g>
<g>
	<defs>
		<polygon id="SVGID_1_" points="-746.5,2382.3 -746.5,2383.4 -728.6,2383.4 -728.6,2402.3 -727.5,2402.3 -727.5,2382.3 		"/>
	</defs>
	<clipPath id="SVGID_2_">
		<use xlink:href="#SVGID_1_"  style="overflow:visible;"/>
	</clipPath>
	<g class="st10">
		<defs>
			<rect id="SVGID_3_" x="-1004.5" y="-2203.7" width="1640" height="5497"/>
		</defs>
		<clipPath id="SVGID_4_">
			<use xlink:href="#SVGID_3_"  style="overflow:visible;"/>
		</clipPath>
	</g>
</g>
<g>
	<defs>
		<polygon id="SVGID_5_" points="-744.7,2401.3 -745.5,2400.5 -728.3,2382.3 -727.5,2383.1 		"/>
	</defs>
	<clipPath id="SVGID_6_">
		<use xlink:href="#SVGID_5_"  style="overflow:visible;"/>
	</clipPath>
	<g class="st12">
		<defs>
			<rect id="SVGID_7_" x="-1004.5" y="-2203.7" width="1640" height="5497"/>
		</defs>
		<clipPath id="SVGID_8_">
			<use xlink:href="#SVGID_7_"  style="overflow:visible;"/>
		</clipPath>
	</g>
</g>
</svg>
