<?xml version="1.0" encoding="utf-8"?>
<!-- Generator: Adobe Illustrator 24.0.0, SVG Export Plug-In . SVG Version: 6.00 Build 0)  -->
<svg version="1.1" id="Layer_1" xmlns="http://www.w3.org/2000/svg" xmlns:xlink="http://www.w3.org/1999/xlink" x="0px" y="0px"
	 viewBox="0 0 70 70" style="enable-background:new 0 0 70 70;" xml:space="preserve">
<style type="text/css">
	.st0{fill:#FF000B;}
	.st1{fill:#989898;}
	.st2{fill:#00B9F1;}
	.st3{fill:#227DBA;}
	.st4{fill:#508D35;}
	.st5{fill:#2CAB9F;}
	.st6{fill:#99D000;}
	.st7{fill:none;stroke:#99D000;stroke-width:0.5743;stroke-miterlimit:10;}
	.st8{fill:none;stroke:#2CAB9F;stroke-width:2.474;stroke-linecap:round;stroke-linejoin:round;stroke-miterlimit:10;}
	.st9{fill:#FFFFFF;}
	.st10{clip-path:url(#SVGID_2_);}
	.st11{clip-path:url(#SVGID_4_);}
	.st12{clip-path:url(#SVGID_6_);}
	.st13{clip-path:url(#SVGID_8_);}
	.st14{filter:url(#Adobe_OpacityMaskFilter);}
	.st15{fill-rule:evenodd;clip-rule:evenodd;fill:#FFFFFF;}
	.st16{mask:url(#mask-2_4_);}
	.st17{fill-rule:evenodd;clip-rule:evenodd;fill:#989898;}
	.st18{filter:url(#Adobe_OpacityMaskFilter_1_);}
	.st19{mask:url(#mask-4_3_);}
	.st20{fill-rule:evenodd;clip-rule:evenodd;fill:#AFD141;}
	.st21{filter:url(#Adobe_OpacityMaskFilter_2_);}
	.st22{mask:url(#mask-6_2_);}
	.st23{filter:url(#Adobe_OpacityMaskFilter_3_);}
	.st24{mask:url(#mask-2_3_);}
	.st25{filter:url(#Adobe_OpacityMaskFilter_4_);}
	.st26{mask:url(#mask-2_2_);}
	.st27{filter:url(#Adobe_OpacityMaskFilter_5_);}
	.st28{mask:url(#mask-4_2_);}
	.st29{filter:url(#Adobe_OpacityMaskFilter_6_);}
	.st30{mask:url(#mask-2_1_);}
	.st31{filter:url(#Adobe_OpacityMaskFilter_7_);}
	.st32{mask:url(#mask-4_1_);}
	.st33{filter:url(#Adobe_OpacityMaskFilter_8_);}
	.st34{mask:url(#mask-6_1_);}
</style>
<g>
	<g>
		<circle class="st0" cx="35" cy="38.6" r="1.6"/>
	</g>
	<g>
		<rect x="33.7" y="29.8" class="st0" width="2.6" height="5.9"/>
	</g>
</g>
<g>
	<defs>
		<polygon id="SVGID_1_" points="-853.8,2382.3 -853.8,2383.4 -835.9,2383.4 -835.9,2402.3 -834.8,2402.3 -834.8,2382.3 		"/>
	</defs>
	<clipPath id="SVGID_2_">
		<use xlink:href="#SVGID_1_"  style="overflow:visible;"/>
	</clipPath>
	<g class="st10">
		<defs>
			<rect id="SVGID_3_" x="-1111.8" y="-2203.7" width="1640" height="5497"/>
		</defs>
		<clipPath id="SVGID_4_">
			<use xlink:href="#SVGID_3_"  style="overflow:visible;"/>
		</clipPath>
	</g>
</g>
<g>
	<defs>
		<polygon id="SVGID_5_" points="-852,2401.3 -852.8,2400.5 -835.6,2382.3 -834.8,2383.1 		"/>
	</defs>
	<clipPath id="SVGID_6_">
		<use xlink:href="#SVGID_5_"  style="overflow:visible;"/>
	</clipPath>
	<g class="st12">
		<defs>
			<rect id="SVGID_7_" x="-1111.8" y="-2203.7" width="1640" height="5497"/>
		</defs>
		<clipPath id="SVGID_8_">
			<use xlink:href="#SVGID_7_"  style="overflow:visible;"/>
		</clipPath>
	</g>
</g>
<path class="st1" d="M52,38.1c-1.6-0.2-2.8-1.5-2.8-3.1s1.2-2.9,2.8-3.1h0c0.2,0,0.3-0.1,0.4-0.2c0.1-0.1,0.1-0.3,0.1-0.4
	c-0.5-2.1-1.3-4.1-2.5-5.9c-0.1-0.1-0.2-0.2-0.4-0.2c-0.2,0-0.3,0-0.4,0.1c-1.2,1-3,0.9-4.2-0.2c-1.1-1.1-1.2-2.9-0.2-4.2
	c0.1-0.1,0.1-0.3,0.1-0.4c0-0.2-0.1-0.3-0.2-0.4c-1.8-1.2-3.8-2-5.9-2.5c-0.2,0-0.3,0-0.4,0.1c-0.1,0.1-0.2,0.2-0.2,0.4
	c-0.2,1.6-1.5,2.8-3.1,2.8s-2.9-1.2-3.1-2.8c0-0.2-0.1-0.3-0.2-0.4c-0.1-0.1-0.3-0.1-0.4-0.1c-2.1,0.5-4.1,1.3-5.9,2.5
	c-0.1,0.1-0.2,0.2-0.2,0.4c0,0.2,0,0.3,0.1,0.4c1,1.2,0.9,3-0.2,4.2c-1.1,1.1-2.9,1.2-4.2,0.2c-0.1-0.1-0.3-0.1-0.4-0.1
	c-0.2,0-0.3,0.1-0.4,0.2c-1.2,1.8-2,3.8-2.5,5.9c0,0.2,0,0.3,0.1,0.4c0.1,0.1,0.2,0.2,0.4,0.2c1.6,0.2,2.8,1.5,2.8,3.1
	c0,1.6-1.2,2.9-2.8,3.1c-0.2,0-0.3,0.1-0.4,0.2s-0.1,0.3-0.1,0.4c0.5,2.1,1.3,4.1,2.5,5.9c0.1,0.1,0.2,0.2,0.4,0.2
	c0.2,0,0.3,0,0.4-0.1c1.2-1,3-0.9,4.2,0.2c1.1,1.1,1.2,2.9,0.2,4.2c-0.1,0.1-0.1,0.3-0.1,0.4c0,0.2,0.1,0.3,0.2,0.4
	c1.8,1.2,3.8,2,5.9,2.5c0,0,0.1,0,0.1,0c0.1,0,0.2,0,0.3-0.1c0.1-0.1,0.2-0.2,0.2-0.4c0.2-1.6,1.5-2.8,3.1-2.8s2.9,1.2,3.1,2.8
	c0,0.2,0.1,0.3,0.2,0.4c0.1,0.1,0.3,0.1,0.4,0.1c2.1-0.5,4.1-1.3,5.9-2.5c0.1-0.1,0.2-0.2,0.2-0.4c0-0.2,0-0.3-0.1-0.4
	c-1-1.2-0.9-3,0.2-4.2c1.1-1.1,2.9-1.2,4.2-0.2c0.1,0.1,0.3,0.1,0.4,0.1c0.2,0,0.3-0.1,0.4-0.2c1.2-1.8,2-3.8,2.5-5.9
	c0-0.2,0-0.3-0.1-0.4C52.3,38.2,52.2,38.1,52,38.1z M43.6,49.4c-1.4,0.8-2.9,1.5-4.5,1.9c-0.5-1.9-2.1-3.2-4.1-3.2s-3.6,1.3-4.1,3.2
	c-1.6-0.4-3.1-1-4.5-1.9c1-1.7,0.7-3.8-0.7-5.1c-1.4-1.4-3.5-1.6-5.1-0.7c-0.8-1.4-1.5-2.9-1.9-4.5c1.9-0.5,3.2-2.1,3.2-4.1
	c0-2-1.3-3.6-3.2-4.1c0.4-1.6,1-3.1,1.9-4.5c1.7,1,3.8,0.7,5.1-0.7c1.4-1.4,1.6-3.5,0.7-5.1c1.4-0.8,2.9-1.5,4.5-1.9
	c0.5,1.9,2.1,3.2,4.1,3.2s3.6-1.3,4.1-3.2c1.6,0.4,3.1,1,4.5,1.9c-1,1.7-0.7,3.8,0.7,5.1c1.4,1.4,3.5,1.6,5.1,0.7
	c0.8,1.4,1.5,2.9,1.9,4.5c-1.9,0.5-3.2,2.1-3.2,4.1s1.3,3.6,3.2,4.1c-0.4,1.6-1,3.1-1.9,4.5c-1.7-1-3.8-0.7-5.1,0.7
	C42.9,45.6,42.6,47.7,43.6,49.4z"/>
<path class="st1" d="M35,24.4c-5.9,0-10.6,4.8-10.6,10.6S29.1,45.6,35,45.6S45.6,40.9,45.6,35S40.9,24.4,35,24.4z M44.5,35
	c0,5.2-4.3,9.5-9.5,9.5c-5.2,0-9.5-4.3-9.5-9.5s4.3-9.5,9.5-9.5C40.2,25.5,44.5,29.8,44.5,35z"/>
</svg>
