<?xml version="1.0" encoding="utf-8"?>
<!-- Generator: Adobe Illustrator 23.0.3, SVG Export Plug-In . SVG Version: 6.00 Build 0)  -->
<svg version="1.1" id="Layer_1" xmlns="http://www.w3.org/2000/svg" xmlns:xlink="http://www.w3.org/1999/xlink" x="0px" y="0px"
	 viewBox="0 0 100 100" style="enable-background:new 0 0 100 100;" xml:space="preserve">
<style type="text/css">
	.st0{fill:#B0D241;}
	.st1{fill:#999999;}
	.st2{clip-path:url(#SVGID_2_);fill:#057DBA;}
	.st3{clip-path:url(#SVGID_4_);fill:#B1D136;}
	.st4{clip-path:url(#SVGID_6_);fill:#1FBBED;}
	.st5{clip-path:url(#SVGID_8_);fill:#EB2227;}
	.st6{clip-path:url(#SVGID_10_);fill:#057DBA;}
	.st7{clip-path:url(#SVGID_12_);fill:#B1D136;}
	.st8{clip-path:url(#SVGID_14_);fill:#1FBBED;}
	.st9{clip-path:url(#SVGID_16_);fill:#EB2227;}
	.st10{clip-path:url(#SVGID_18_);fill:#FEFEFE;}
	.st11{clip-path:url(#SVGID_20_);fill:#FEFEFE;}
	.st12{clip-path:url(#SVGID_22_);fill:#FEFEFE;}
	.st13{clip-path:url(#SVGID_24_);fill:#FEFEFE;}
	.st14{clip-path:url(#SVGID_26_);fill:#FEFEFE;}
	.st15{clip-path:url(#SVGID_28_);fill:#FEFEFE;}
	.st16{clip-path:url(#SVGID_30_);fill:#FEFEFE;}
	.st17{clip-path:url(#SVGID_32_);fill:#FEFEFE;}
	.st18{clip-path:url(#SVGID_34_);fill:#FEFEFE;}
	.st19{clip-path:url(#SVGID_36_);fill:#FEFEFE;}
	.st20{clip-path:url(#SVGID_38_);fill:#FEFEFE;}
	.st21{clip-path:url(#SVGID_40_);fill:#FEFEFE;}
	.st22{clip-path:url(#SVGID_42_);fill:#FEFEFE;}
	.st23{clip-path:url(#SVGID_44_);fill:#FEFEFE;}
	.st24{clip-path:url(#SVGID_46_);fill:#FEFEFE;}
	.st25{clip-path:url(#SVGID_48_);fill:#FEFEFE;}
	.st26{clip-path:url(#SVGID_50_);fill:#FEFEFE;}
	.st27{clip-path:url(#SVGID_52_);enable-background:new    ;}
	.st28{clip-path:url(#SVGID_54_);}
	.st29{clip-path:url(#SVGID_56_);}
	.st30{clip-path:url(#SVGID_58_);fill:#FEFEFE;}
</style>
<path class="st0" d="M59.7,16.9h17.8c1,0,1.8,0.8,1.8,1.8v0c0,1-0.8,1.8-1.8,1.8H59.7c-1,0-1.8-0.8-1.8-1.8v0
	C57.9,17.7,58.7,16.9,59.7,16.9z"/>
<path class="st0" d="M59.7,23.1h10.5c1,0,1.8,0.8,1.8,1.8v0c0,1-0.8,1.8-1.8,1.8H59.7c-1,0-1.8-0.8-1.8-1.8v0
	C57.9,23.9,58.7,23.1,59.7,23.1z"/>
<path class="st1" d="M32.8,85.5c8.1-3.2,14.5-9.5,18.1-17.3l6.7,7.5c0,0.5-0.1,0.9,0,1.4c0.4,2.8,2.8,4.9,5.6,4.9
	c0.3,0,0.5,0,0.8-0.1c3.1-0.4,5.3-3.3,4.8-6.4c-0.4-3-3.2-5.3-6.4-4.8c-1.2,0.2-2.3,0.7-3.2,1.5l-6.9-7.7c1.1-3.5,1.8-7.1,1.8-10.9
	c0-9.1-3.6-17.7-9.7-24l1.7-2.8c1.3,0.4,2.8,0.3,4.4-0.5c1.9-1,3.2-2.8,3.5-4.9c0.5-4.1-3.1-7.6-7.3-7c-2.7,0.4-4.9,2.6-5.3,5.3
	c-0.3,2,0.4,3.9,1.6,5.2l-1.3,2.2c-2.7-2.3-5.8-4.1-9.1-5.4c-0.4-0.2-0.9-0.2-1.3,0C18.6,26.7,10,39.6,10,53.6
	c0,14.1,8.6,26.9,21.4,31.9c0,0,0,0,0,0C31.4,85.5,32.1,85.9,32.8,85.5z M45.9,63.3c-2.5,0.3-4.8-1.5-5.2-3.9
	c-0.3-2.5,1.4-4.8,3.9-5.2c0.2,0,0.4,0,0.6,0c2.3,0,4.2,1.7,4.5,4c0.2,1.2-0.2,2.4-0.9,3.4C48.2,62.5,47.1,63.1,45.9,63.3z
	 M47.2,17.9c2-0.4,3.7,1.3,3.3,3.3c-0.2,1.1-1.1,2-2.2,2.2c-2,0.4-3.6-1.3-3.3-3.3C45.2,19,46.1,18.1,47.2,17.9z M33.8,81.2l0-7.2
	c0,0,0,0,0-0.1l0-15.3c0-0.1,0-0.1,0-0.2l0-6.3l9.3-9.3c0.5-0.5,0.8-1.4,0.4-2.1c-0.6-1.1-2-1.3-2.9-0.5l-6.8,6.8l0-8.6
	c0-0.8-0.5-1.5-1.2-1.8c-1.2-0.4-2.3,0.5-2.3,1.7l0,15.7l-6.8-6.8c-0.5-0.5-1.4-0.8-2.1-0.4c-1.1,0.6-1.3,2-0.5,2.9l9.3,9.3l0,10.4
	l-6.8-6.8c-0.8-0.8-2.3-0.7-2.9,0.5c-0.4,0.7-0.1,1.5,0.4,2.1l9.3,9.3l0,6.5c-10.1-5.1-16.7-15.8-16.7-27.5
	c0-12.4,7.4-23.7,18.5-28.4c2.9,1.2,5.5,2.9,7.9,4.9l-2.5,4.1c-0.4,0.7-0.4,1.6,0.1,2.2c0.4,0.4,0.9,0.6,1.3,0.6
	c0.6,0,1.2-0.3,1.5-0.8l2.1-3.4c4.8,5.3,7.7,12.3,8,19.7c-1.4-1.2-3.2-1.9-5.2-1.9c-0.4,0-0.7,0-1.1,0.1c-4.4,0.6-7.6,4.7-7,9.2
	c0.5,4,4,7,8.1,7c0.4,0,0.7,0,1.1-0.1c0.5-0.1,0.9-0.2,1.4-0.3C44.9,72.8,40,78,33.8,81.2z M63.4,78.4c-1.2,0.2-2.2-0.7-2.4-1.8
	c-0.2-1.2,0.7-2.2,1.8-2.4c0.1,0,0.2,0,0.3,0c1,0,1.9,0.8,2.1,1.8C65.4,77.1,64.6,78.2,63.4,78.4z"/>
<path class="st0" d="M75.3,71.2h12.9c1,0,1.8,0.8,1.8,1.8l0,0c0,1-0.8,1.8-1.8,1.8H75.3c-1,0-1.8-0.8-1.8-1.8l0,0
	C73.5,72,74.3,71.2,75.3,71.2z"/>
<path class="st0" d="M75.3,77.4h7.5c1,0,1.8,0.8,1.8,1.8v0c0,1-0.8,1.8-1.8,1.8h-7.5c-1,0-1.8-0.8-1.8-1.8v0
	C73.5,78.2,74.3,77.4,75.3,77.4z"/>
</svg>
