<?xml version="1.0" encoding="utf-8"?>
<!-- Generator: Adobe Illustrator 23.0.3, SVG Export Plug-In . SVG Version: 6.00 Build 0)  -->
<svg version="1.1" id="Layer_1" xmlns="http://www.w3.org/2000/svg" xmlns:xlink="http://www.w3.org/1999/xlink" x="0px" y="0px"
	 viewBox="0 0 100 100" style="enable-background:new 0 0 100 100;" xml:space="preserve">
<style type="text/css">
	.st0{fill:#B0D241;}
	.st1{fill:#999999;}
	.st2{clip-path:url(#SVGID_2_);fill:#057DBA;}
	.st3{clip-path:url(#SVGID_4_);fill:#B1D136;}
	.st4{clip-path:url(#SVGID_6_);fill:#1FBBED;}
	.st5{clip-path:url(#SVGID_8_);fill:#EB2227;}
	.st6{clip-path:url(#SVGID_10_);fill:#057DBA;}
	.st7{clip-path:url(#SVGID_12_);fill:#B1D136;}
	.st8{clip-path:url(#SVGID_14_);fill:#1FBBED;}
	.st9{clip-path:url(#SVGID_16_);fill:#EB2227;}
	.st10{clip-path:url(#SVGID_18_);fill:#FEFEFE;}
	.st11{clip-path:url(#SVGID_20_);fill:#FEFEFE;}
	.st12{clip-path:url(#SVGID_22_);fill:#FEFEFE;}
	.st13{clip-path:url(#SVGID_24_);fill:#FEFEFE;}
	.st14{clip-path:url(#SVGID_26_);fill:#FEFEFE;}
	.st15{clip-path:url(#SVGID_28_);fill:#FEFEFE;}
	.st16{clip-path:url(#SVGID_30_);fill:#FEFEFE;}
	.st17{clip-path:url(#SVGID_32_);fill:#FEFEFE;}
	.st18{clip-path:url(#SVGID_34_);fill:#FEFEFE;}
	.st19{clip-path:url(#SVGID_36_);fill:#FEFEFE;}
	.st20{clip-path:url(#SVGID_38_);fill:#FEFEFE;}
	.st21{clip-path:url(#SVGID_40_);fill:#FEFEFE;}
	.st22{clip-path:url(#SVGID_42_);fill:#FEFEFE;}
	.st23{clip-path:url(#SVGID_44_);fill:#FEFEFE;}
	.st24{clip-path:url(#SVGID_46_);fill:#FEFEFE;}
	.st25{clip-path:url(#SVGID_48_);fill:#FEFEFE;}
	.st26{clip-path:url(#SVGID_50_);fill:#FEFEFE;}
	.st27{clip-path:url(#SVGID_52_);enable-background:new    ;}
	.st28{clip-path:url(#SVGID_54_);}
	.st29{clip-path:url(#SVGID_56_);}
	.st30{clip-path:url(#SVGID_58_);fill:#FEFEFE;}
</style>
<path class="st1" d="M89,83.9l-1.7-8.8c0,0,0,0,0,0L85,62.4c-0.5-2.3-2.6-4-5-4h-2.4c-0.9,0-1.6,0.7-1.6,1.6s0.7,1.6,1.6,1.6H80
	c0.8,0,1.6,0.6,1.7,1.4l2,10.8h-8.9l-1.1-5.2c0,0,0,0,0,0L70,50.4c-0.5-2.3-2.6-4-5-4h-6.6c-0.9,0-1.6,0.7-1.6,1.6s0.7,1.6,1.6,1.6
	H65c0.8,0,1.6,0.6,1.7,1.4l3.4,16.3H33l3.4-16.3c0.2-0.8,0.9-1.4,1.7-1.4h6.6c0.9,0,1.6-0.7,1.6-1.6s-0.7-1.6-1.6-1.6h-6.6
	c-2.4,0-4.5,1.7-5,4l-3.8,18.3c0,0,0,0,0,0l-3.2,15.2c-0.3,1.5,0.1,3,1,4.2c1,1.2,2.4,1.9,3.9,1.9h39H72h12.1c1.5,0,3-0.7,3.9-1.9
	S89.3,85.4,89,83.9z M70.2,86.7h-39c-0.5,0-1-0.2-1.4-0.7c-0.3-0.4-0.5-1-0.4-1.5l2.9-13.9h38.5l1.1,5.2c0,0,0,0,0,0l1.8,8.7
	c0.1,0.5,0,1.1-0.4,1.5c-0.3,0.4-0.8,0.7-1.4,0.7H70.2z M85.4,86.1c-0.3,0.4-0.8,0.7-1.4,0.7h-7.3c0.3-0.9,0.4-1.9,0.2-2.8l-1.4-6.8
	h8.9l1.4,7.4C85.9,85.1,85.8,85.6,85.4,86.1z"/>
<path class="st0" d="M32.3,36.8c0.9,0,1.6-0.7,1.6-1.6c0-0.9-0.7-1.6-1.6-1.6c-1,0-1.5-0.4-2.2-1c-0.9-0.8-2.1-1.8-4.4-1.8
	c-2.3,0-3.5,1-4.4,1.8c-0.7,0.6-1.2,1-2.2,1c-1,0-1.5-0.4-2.2-1c-0.9-0.8-2.1-1.8-4.4-1.8c-0.9,0-1.6,0.7-1.6,1.6
	c0,0.9,0.7,1.6,1.6,1.6c1,0,1.5,0.4,2.2,1c0.9,0.8,2.1,1.8,4.4,1.8c2.3,0,3.5-1,4.4-1.8c0.7-0.6,1.2-1,2.2-1c1,0,1.5,0.4,2.2,1
	C28.8,35.8,30.1,36.8,32.3,36.8z"/>
<path class="st0" d="M27.3,25.4c1,0,1.5,0.4,2.2,1c0.9,0.8,2.1,1.8,4.4,1.8c2.3,0,3.5-1,4.4-1.8c0.7-0.6,1.2-1,2.2-1
	c0.3,0,0.5,0,0.7,0.1c-0.2,0.9-0.3,1.9-0.3,2.9c0,8.6,6.9,15.5,9.1,17.5v4c0,0.9,0.7,1.6,1.6,1.6c0.9,0,1.6-0.7,1.6-1.6v-4
	c1.9-1.7,7.1-7,8.7-13.8c0.2-0.2,0.4-0.3,0.6-0.5c0.7-0.6,1.2-1,2.2-1c1,0,1.5,0.4,2.2,1c0.9,0.8,2.1,1.8,4.4,1.8
	c2.3,0,3.5-1,4.4-1.8c0.7-0.6,1.2-1,2.2-1c0.9,0,1.6-0.7,1.6-1.6c0-0.9-0.7-1.6-1.6-1.6c-2.3,0-3.5,1-4.4,1.8c-0.7,0.6-1.2,1-2.2,1
	s-1.5-0.4-2.2-1c-0.9-0.8-2.1-1.8-4.4-1.8c-1,0-1.8,0.2-2.4,0.5C62,18.2,53,10.7,52.6,10.4c-0.6-0.5-1.5-0.5-2.1,0
	c-0.3,0.3-6.1,5.1-8.6,12c-0.4-0.1-1-0.2-1.5-0.2c-2.3,0-3.5,1-4.4,1.8c-0.7,0.6-1.2,1-2.2,1c-1,0-1.5-0.4-2.2-1
	c-0.9-0.8-2.1-1.8-4.4-1.8c-0.9,0-1.6,0.7-1.6,1.6C25.6,24.7,26.3,25.4,27.3,25.4z M44.2,27.5c0.1-1.2,0.3-2.4,0.7-3.5
	c1.5-4.6,4.9-8.4,6.7-10.1c2.4,2.3,7.5,8,7.5,14.6c0,0.6,0,1.1-0.1,1.6c-0.2,1.2-0.4,2.3-0.8,3.4c-1.2,3.2-3.3,6-4.9,7.8v-9.8
	c0-0.9-0.7-1.6-1.6-1.6c-0.9,0-1.6,0.7-1.6,1.6v9.8c-2.4-2.7-5.8-7.5-5.8-12.8C44.1,28.1,44.1,27.8,44.2,27.5z"/>
</svg>
