<?xml version="1.0" encoding="utf-8"?>
<!-- Generator: Adobe Illustrator 23.0.3, SVG Export Plug-In . SVG Version: 6.00 Build 0)  -->
<svg version="1.1" id="Layer_1" xmlns="http://www.w3.org/2000/svg" xmlns:xlink="http://www.w3.org/1999/xlink" x="0px" y="0px"
	 viewBox="0 0 100 100" style="enable-background:new 0 0 100 100;" xml:space="preserve">
<style type="text/css">
	.st0{fill-rule:evenodd;clip-rule:evenodd;fill:#979897;}
	.st1{clip-path:url(#SVGID_4_);}
	.st2{fill:#979897;}
	.st3{fill-rule:evenodd;clip-rule:evenodd;fill:#AFD13F;}
	.st4{clip-path:url(#SVGID_8_);}
	.st5{fill:#AFD13F;}
	.st6{clip-path:url(#SVGID_12_);}
	.st7{clip-path:url(#SVGID_16_);}
	.st8{clip-path:url(#SVGID_20_);}
	.st9{clip-path:url(#SVGID_24_);}
	.st10{clip-path:url(#SVGID_28_);}
	.st11{clip-path:url(#SVGID_32_);}
	.st12{clip-path:url(#SVGID_36_);}
	.st13{clip-path:url(#SVGID_40_);}
	.st14{clip-path:url(#SVGID_44_);}
	.st15{clip-path:url(#SVGID_48_);}
	.st16{clip-path:url(#SVGID_52_);}
	.st17{clip-path:url(#SVGID_56_);}
</style>
<g>
	<g>
		<path id="SVGID_1_" class="st0" d="M75.5,27.4c3.9,0,7.1-3.2,7.1-7.1s-3.2-7.1-7.1-7.1s-7.1,3.2-7.1,7.1l0,0
			C68.4,24.2,71.6,27.4,75.5,27.4 M75.5,16.2c2.3,0,4.1,1.8,4.1,4.1s-1.8,4.1-4.1,4.1c-2.3,0-4.1-1.8-4.1-4.1l0,0
			C71.4,18,73.2,16.2,75.5,16.2"/>
	</g>
	<g>
		<defs>
			<path id="SVGID_2_" d="M75.5,27.4c3.9,0,7.1-3.2,7.1-7.1s-3.2-7.1-7.1-7.1s-7.1,3.2-7.1,7.1l0,0C68.4,24.2,71.6,27.4,75.5,27.4
				 M75.5,16.2c2.3,0,4.1,1.8,4.1,4.1s-1.8,4.1-4.1,4.1c-2.3,0-4.1-1.8-4.1-4.1l0,0C71.4,18,73.2,16.2,75.5,16.2"/>
		</defs>
		<clipPath id="SVGID_4_">
			<use xlink:href="#SVGID_2_"  style="overflow:visible;"/>
		</clipPath>
		<g class="st1">
			<g>
				<rect id="SVGID_3_" x="-851" y="-1205.1" class="st2" width="1426.2" height="4780.4"/>
			</g>
		</g>
	</g>
</g>
<g>
	<g>
		<path id="SVGID_5_" class="st3" d="M46,78.4c-1.1,0-1.9,0.9-1.9,1.9c0,1.1,0.9,1.9,1.9,1.9c1.1,0,1.9-0.9,1.9-1.9
			C47.9,79.2,47.1,78.4,46,78.4"/>
	</g>
	<g>
		<defs>
			<path id="SVGID_6_" d="M46,78.4c-1.1,0-1.9,0.9-1.9,1.9c0,1.1,0.9,1.9,1.9,1.9c1.1,0,1.9-0.9,1.9-1.9
				C47.9,79.2,47.1,78.4,46,78.4"/>
		</defs>
		<clipPath id="SVGID_8_">
			<use xlink:href="#SVGID_6_"  style="overflow:visible;"/>
		</clipPath>
		<g class="st4">
			<g>
				<rect id="SVGID_7_" x="-851" y="-1205.1" class="st5" width="1426.2" height="4780.4"/>
			</g>
		</g>
	</g>
</g>
<g>
	<g>
		<path id="SVGID_9_" class="st3" d="M54.8,78.4c-1.1,0-1.9,0.9-1.9,1.9c0,1.1,0.9,1.9,1.9,1.9s1.9-0.9,1.9-1.9
			C56.7,79.2,55.9,78.4,54.8,78.4"/>
	</g>
	<g>
		<defs>
			<path id="SVGID_10_" d="M54.8,78.4c-1.1,0-1.9,0.9-1.9,1.9c0,1.1,0.9,1.9,1.9,1.9s1.9-0.9,1.9-1.9C56.7,79.2,55.9,78.4,54.8,78.4
				"/>
		</defs>
		<clipPath id="SVGID_12_">
			<use xlink:href="#SVGID_10_"  style="overflow:visible;"/>
		</clipPath>
		<g class="st6">
			<g>
				<rect id="SVGID_11_" x="-851" y="-1205.1" class="st5" width="1426.2" height="4780.4"/>
			</g>
		</g>
	</g>
</g>
<g>
	<g>
		<path id="SVGID_13_" class="st3" d="M63.6,78.4c-1.1,0-1.9,0.9-1.9,1.9c0,1.1,0.9,1.9,1.9,1.9s1.9-0.9,1.9-1.9
			C65.6,79.2,64.7,78.4,63.6,78.4L63.6,78.4z"/>
	</g>
	<g>
		<defs>
			<path id="SVGID_14_" d="M63.6,78.4c-1.1,0-1.9,0.9-1.9,1.9c0,1.1,0.9,1.9,1.9,1.9s1.9-0.9,1.9-1.9C65.6,79.2,64.7,78.4,63.6,78.4
				L63.6,78.4z"/>
		</defs>
		<clipPath id="SVGID_16_">
			<use xlink:href="#SVGID_14_"  style="overflow:visible;"/>
		</clipPath>
		<g class="st7">
			<g>
				<rect id="SVGID_15_" x="-851" y="-1205.1" class="st5" width="1426.2" height="4780.4"/>
			</g>
		</g>
	</g>
</g>
<g>
	<g>
		<path id="SVGID_17_" class="st3" d="M72.4,78.4c-1.1,0-1.9,0.8-1.9,1.9s0.8,1.9,1.9,1.9s1.9-0.8,1.9-1.9l0,0
			C74.3,79.2,73.5,78.4,72.4,78.4"/>
	</g>
	<g>
		<defs>
			<path id="SVGID_18_" d="M72.4,78.4c-1.1,0-1.9,0.8-1.9,1.9s0.8,1.9,1.9,1.9s1.9-0.8,1.9-1.9l0,0C74.3,79.2,73.5,78.4,72.4,78.4"
				/>
		</defs>
		<clipPath id="SVGID_20_">
			<use xlink:href="#SVGID_18_"  style="overflow:visible;"/>
		</clipPath>
		<g class="st8">
			<g>
				<rect id="SVGID_19_" x="-851" y="-1205.1" class="st5" width="1426.2" height="4780.4"/>
			</g>
		</g>
	</g>
</g>
<g>
	<g>
		<path id="SVGID_21_" class="st3" d="M81.2,78.4c-1.1,0-1.9,0.8-1.9,1.9s0.8,1.9,1.9,1.9s1.9-0.8,1.9-1.9l0,0
			C83.1,79.2,82.3,78.4,81.2,78.4"/>
	</g>
	<g>
		<defs>
			<path id="SVGID_22_" d="M81.2,78.4c-1.1,0-1.9,0.8-1.9,1.9s0.8,1.9,1.9,1.9s1.9-0.8,1.9-1.9l0,0C83.1,79.2,82.3,78.4,81.2,78.4"
				/>
		</defs>
		<clipPath id="SVGID_24_">
			<use xlink:href="#SVGID_22_"  style="overflow:visible;"/>
		</clipPath>
		<g class="st9">
			<g>
				<rect id="SVGID_23_" x="-851" y="-1205.1" class="st5" width="1426.2" height="4780.4"/>
			</g>
		</g>
	</g>
</g>
<g>
	<g>
		<path id="SVGID_25_" class="st3" d="M63.6,65.1c-1.1,0-1.9,0.9-1.9,1.9c0,1.1,0.9,1.9,1.9,1.9s1.9-0.9,1.9-1.9
			C65.6,66,64.7,65.1,63.6,65.1L63.6,65.1z"/>
	</g>
	<g>
		<defs>
			<path id="SVGID_26_" d="M63.6,65.1c-1.1,0-1.9,0.9-1.9,1.9c0,1.1,0.9,1.9,1.9,1.9s1.9-0.9,1.9-1.9C65.6,66,64.7,65.1,63.6,65.1
				L63.6,65.1z"/>
		</defs>
		<clipPath id="SVGID_28_">
			<use xlink:href="#SVGID_26_"  style="overflow:visible;"/>
		</clipPath>
		<g class="st10">
			<g>
				<rect id="SVGID_27_" x="-850.9" y="-1205.1" class="st5" width="1426.1" height="4780.4"/>
			</g>
		</g>
	</g>
</g>
<g>
	<g>
		<path id="SVGID_29_" class="st3" d="M72.4,65.1c-1.1,0-1.9,0.8-1.9,1.9s0.8,1.9,1.9,1.9s1.9-0.8,1.9-1.9l0,0
			C74.3,66,73.5,65.1,72.4,65.1"/>
	</g>
	<g>
		<defs>
			<path id="SVGID_30_" d="M72.4,65.1c-1.1,0-1.9,0.8-1.9,1.9s0.8,1.9,1.9,1.9s1.9-0.8,1.9-1.9l0,0C74.3,66,73.5,65.1,72.4,65.1"/>
		</defs>
		<clipPath id="SVGID_32_">
			<use xlink:href="#SVGID_30_"  style="overflow:visible;"/>
		</clipPath>
		<g class="st11">
			<g>
				<rect id="SVGID_31_" x="-851" y="-1205.1" class="st5" width="1426.2" height="4780.4"/>
			</g>
		</g>
	</g>
</g>
<g>
	<g>
		<path id="SVGID_33_" class="st3" d="M81.2,65.1c-1.1,0-1.9,0.8-1.9,1.9s0.8,1.9,1.9,1.9s1.9-0.8,1.9-1.9l0,0
			C83.1,66,82.3,65.1,81.2,65.1L81.2,65.1z"/>
	</g>
	<g>
		<defs>
			<path id="SVGID_34_" d="M81.2,65.1c-1.1,0-1.9,0.8-1.9,1.9s0.8,1.9,1.9,1.9s1.9-0.8,1.9-1.9l0,0C83.1,66,82.3,65.1,81.2,65.1
				L81.2,65.1z"/>
		</defs>
		<clipPath id="SVGID_36_">
			<use xlink:href="#SVGID_34_"  style="overflow:visible;"/>
		</clipPath>
		<g class="st12">
			<g>
				<rect id="SVGID_35_" x="-851" y="-1205.1" class="st5" width="1426.2" height="4780.4"/>
			</g>
		</g>
	</g>
</g>
<g>
	<g>
		<path id="SVGID_37_" class="st3" d="M50.4,71.8c-1.1,0-1.9,0.8-1.9,1.9s0.8,1.9,1.9,1.9c1.1,0,1.9-0.8,1.9-1.9l0,0
			C52.3,72.7,51.5,71.8,50.4,71.8"/>
	</g>
	<g>
		<defs>
			<path id="SVGID_38_" d="M50.4,71.8c-1.1,0-1.9,0.8-1.9,1.9s0.8,1.9,1.9,1.9c1.1,0,1.9-0.8,1.9-1.9l0,0
				C52.3,72.7,51.5,71.8,50.4,71.8"/>
		</defs>
		<clipPath id="SVGID_40_">
			<use xlink:href="#SVGID_38_"  style="overflow:visible;"/>
		</clipPath>
		<g class="st13">
			<g>
				<rect id="SVGID_39_" x="-851" y="-1205.1" class="st5" width="1426.2" height="4780.4"/>
			</g>
		</g>
	</g>
</g>
<g>
	<g>
		<path id="SVGID_41_" class="st3" d="M59.2,71.8c-1.1,0-1.9,0.8-1.9,1.9s0.8,1.9,1.9,1.9c1.1,0,1.9-0.8,1.9-1.9l0,0
			C61.1,72.7,60.3,71.8,59.2,71.8"/>
	</g>
	<g>
		<defs>
			<path id="SVGID_42_" d="M59.2,71.8c-1.1,0-1.9,0.8-1.9,1.9s0.8,1.9,1.9,1.9c1.1,0,1.9-0.8,1.9-1.9l0,0
				C61.1,72.7,60.3,71.8,59.2,71.8"/>
		</defs>
		<clipPath id="SVGID_44_">
			<use xlink:href="#SVGID_42_"  style="overflow:visible;"/>
		</clipPath>
		<g class="st14">
			<g>
				<rect id="SVGID_43_" x="-851" y="-1205.1" class="st5" width="1426.2" height="4780.4"/>
			</g>
		</g>
	</g>
</g>
<g>
	<g>
		<path id="SVGID_45_" class="st3" d="M68,71.8c-1.1,0-1.9,0.9-1.9,1.9s0.9,1.9,1.9,1.9c1.1,0,1.9-0.9,1.9-1.9S69.1,71.8,68,71.8"/>
	</g>
	<g>
		<defs>
			<path id="SVGID_46_" d="M68,71.8c-1.1,0-1.9,0.9-1.9,1.9s0.9,1.9,1.9,1.9c1.1,0,1.9-0.9,1.9-1.9S69.1,71.8,68,71.8"/>
		</defs>
		<clipPath id="SVGID_48_">
			<use xlink:href="#SVGID_46_"  style="overflow:visible;"/>
		</clipPath>
		<g class="st15">
			<g>
				<rect id="SVGID_47_" x="-851" y="-1205.1" class="st5" width="1426.2" height="4780.4"/>
			</g>
		</g>
	</g>
</g>
<g>
	<g>
		<path id="SVGID_49_" class="st3" d="M76.8,71.8c-1.1,0-1.9,0.9-1.9,1.9s0.9,1.9,1.9,1.9c1.1,0,1.9-0.9,1.9-1.9
			S77.9,71.8,76.8,71.8"/>
	</g>
	<g>
		<defs>
			<path id="SVGID_50_" d="M76.8,71.8c-1.1,0-1.9,0.9-1.9,1.9s0.9,1.9,1.9,1.9c1.1,0,1.9-0.9,1.9-1.9S77.9,71.8,76.8,71.8"/>
		</defs>
		<clipPath id="SVGID_52_">
			<use xlink:href="#SVGID_50_"  style="overflow:visible;"/>
		</clipPath>
		<g class="st16">
			<g>
				<rect id="SVGID_51_" x="-851" y="-1205.1" class="st5" width="1426.2" height="4780.4"/>
			</g>
		</g>
	</g>
</g>
<g>
	<g>
		<path id="SVGID_53_" class="st3" d="M85.6,71.8c-1.1,0-1.9,0.9-1.9,1.9s0.9,1.9,1.9,1.9c1.1,0,1.9-0.9,1.9-1.9
			S86.7,71.8,85.6,71.8"/>
	</g>
	<g>
		<defs>
			<path id="SVGID_54_" d="M85.6,71.8c-1.1,0-1.9,0.9-1.9,1.9s0.9,1.9,1.9,1.9c1.1,0,1.9-0.9,1.9-1.9S86.7,71.8,85.6,71.8"/>
		</defs>
		<clipPath id="SVGID_56_">
			<use xlink:href="#SVGID_54_"  style="overflow:visible;"/>
		</clipPath>
		<g class="st17">
			<g>
				<rect id="SVGID_55_" x="-851" y="-1205.1" class="st5" width="1426.2" height="4780.4"/>
			</g>
		</g>
	</g>
</g>
<g>
	<g>
		<path id="SVGID_57_" class="st0" d="M83,57.4L83,57.4V52c0-0.8-0.7-1.5-1.5-1.5S80,51.2,80,52v5.2c-1.2-0.1-2.4-0.1-3.6-0.1h-0.9
			V40.7c0-6.9-5.6-12.5-12.5-12.5H32.1c-0.1,0-0.3,0-0.4,0.1c-6.9-0.7-13.1,4.4-13.8,11.3c0,0.4-0.1,0.8-0.1,1.2v15.5
			c-2.9,0.6-5.4,1.2-7,1.7v3.1c5-1.5,10.1-2.5,15.2-3.1c-2.7,0.8-5.6,1.7-8.9,2.9c-2.4,0.9-4.6,1.8-6.4,2.7v3.3
			c2-1.1,4.5-2.1,7.4-3.2c6.7-2.6,13.6-4.5,20.7-5.6h0.1l0.7,0.1c-4.7,1.6-9.4,3.5-13.8,5.8c-5.3,2.6-10.3,5.6-15.1,9.1v3.8
			c0.5-0.5,5.2-4.5,16.4-10.3c5.8-3,11.9-5.4,18.2-7.1l0.2-0.1l1,0.3c-6.7,2.6-12.9,6.1-18.7,10.3c-10.6,8.3-16.4,16-16.7,16.3
			c-0.1,0.1-0.2,0.3-0.2,0.5h3.6c4.6-5.3,9.7-10.1,15.3-14.3c6.4-4.9,13.7-8.6,21.4-11.1c0.7,0.3,1.3,0.6,1.8,0.8
			C42.6,67,33.8,74.9,28,84.7l-1.1,2.1h3.4l0.3-0.6C42.5,66,66.3,55.9,89.1,61.5v-3C87.1,58,85,57.6,83,57.4z M63,31.1
			c4.7,0,8.7,3.4,9.5,8.1H42.8c-0.4-3.2-1.9-6.1-4.3-8.1H63z M20.8,40.7c0-5.3,4.3-9.6,9.6-9.6s9.6,4.3,9.6,9.6v14.5
			c-1-0.1-2-0.3-3-0.3V40.7c0-0.8-0.7-1.5-1.5-1.5H24.8c-0.8,0-1.5,0.7-1.5,1.5v14.6c-0.9,0.1-1.7,0.3-2.6,0.4L20.8,40.7z
			 M26.3,46.9H34v-4.7h-7.7V46.9z M26.3,49.8H34v4.8h-1.3c-2.2,0-4.3,0.1-6.4,0.3C26.3,54.9,26.3,49.8,26.3,49.8z M56.3,60.5
			c-4.2-2.3-8.7-3.9-13.4-4.8V42.2h29.7V57v0.1c-1.5,0.1-2.9,0.3-4.3,0.5v-4.9c0-0.8-0.7-1.5-1.5-1.5s-1.5,0.7-1.5,1.5V58v0.1
			c-1.5,0.3-2.9,0.7-4.3,1.1v-4.7c0-0.8-0.7-1.5-1.5-1.5S58,53.7,58,54.5v5.3c0,0.1,0,0.2,0,0.3l-1.5,0.5
			C56.4,60.6,56.3,60.5,56.3,60.5z"/>
	</g>
	<g>
		<defs>
			<path id="SVGID_58_" d="M83,57.4L83,57.4V52c0-0.8-0.7-1.5-1.5-1.5S80,51.2,80,52v5.2c-1.2-0.1-2.4-0.1-3.6-0.1h-0.9V40.7
				c0-6.9-5.6-12.5-12.5-12.5H32.1c-0.1,0-0.3,0-0.4,0.1c-6.9-0.7-13.1,4.4-13.8,11.3c0,0.4-0.1,0.8-0.1,1.2v15.5
				c-2.9,0.6-5.4,1.2-7,1.7v3.1c5-1.5,10.1-2.5,15.2-3.1c-2.7,0.8-5.6,1.7-8.9,2.9c-2.4,0.9-4.6,1.8-6.4,2.7v3.3
				c2-1.1,4.5-2.1,7.4-3.2c6.7-2.6,13.6-4.5,20.7-5.6h0.1l0.7,0.1c-4.7,1.6-9.4,3.5-13.8,5.8c-5.3,2.6-10.3,5.6-15.1,9.1v3.8
				c0.5-0.5,5.2-4.5,16.4-10.3c5.8-3,11.9-5.4,18.2-7.1l0.2-0.1l1,0.3c-6.7,2.6-12.9,6.1-18.7,10.3c-10.6,8.3-16.4,16-16.7,16.3
				c-0.1,0.1-0.2,0.3-0.2,0.5h3.6c4.6-5.3,9.7-10.1,15.3-14.3c6.4-4.9,13.7-8.6,21.4-11.1c0.7,0.3,1.3,0.6,1.8,0.8
				C42.6,67,33.8,74.9,28,84.7l-1.1,2.1h3.4l0.3-0.6C42.5,66,66.3,55.9,89.1,61.5v-3C87.1,58,85,57.6,83,57.4z M63,31.1
				c4.7,0,8.7,3.4,9.5,8.1H42.8c-0.4-3.2-1.9-6.1-4.3-8.1H63z M20.8,40.7c0-5.3,4.3-9.6,9.6-9.6s9.6,4.3,9.6,9.6v14.5
				c-1-0.1-2-0.3-3-0.3V40.7c0-0.8-0.7-1.5-1.5-1.5H24.8c-0.8,0-1.5,0.7-1.5,1.5v14.6c-0.9,0.1-1.7,0.3-2.6,0.4L20.8,40.7z
				 M26.3,46.9H34v-4.7h-7.7V46.9z M26.3,49.8H34v4.8h-1.3c-2.2,0-4.3,0.1-6.4,0.3C26.3,54.9,26.3,49.8,26.3,49.8z M56.3,60.5
				c-4.2-2.3-8.7-3.9-13.4-4.8V42.2h29.7V57v0.1c-1.5,0.1-2.9,0.3-4.3,0.5v-4.9c0-0.8-0.7-1.5-1.5-1.5s-1.5,0.7-1.5,1.5V58v0.1
				c-1.5,0.3-2.9,0.7-4.3,1.1v-4.7c0-0.8-0.7-1.5-1.5-1.5S58,53.7,58,54.5v5.3c0,0.1,0,0.2,0,0.3l-1.5,0.5
				C56.4,60.6,56.3,60.5,56.3,60.5z"/>
		</defs>
		<clipPath id="SVGID_59_">
			<use xlink:href="#SVGID_58_"  style="overflow:visible;"/>
		</clipPath>
	</g>
</g>
</svg>
