<?xml version="1.0" encoding="utf-8"?>
<!-- Generator: Adobe Illustrator 23.0.3, SVG Export Plug-In . SVG Version: 6.00 Build 0)  -->
<svg version="1.1" id="Layer_1" xmlns="http://www.w3.org/2000/svg" xmlns:xlink="http://www.w3.org/1999/xlink" x="0px" y="0px"
	 viewBox="0 0 100 100" style="enable-background:new 0 0 100 100;" xml:space="preserve">
<style type="text/css">
	.st0{fill:#B0D241;}
	.st1{fill:#999999;}
	.st2{clip-path:url(#SVGID_2_);fill:#057DBA;}
	.st3{clip-path:url(#SVGID_4_);fill:#B1D136;}
	.st4{clip-path:url(#SVGID_6_);fill:#1FBBED;}
	.st5{clip-path:url(#SVGID_8_);fill:#EB2227;}
	.st6{clip-path:url(#SVGID_10_);fill:#057DBA;}
	.st7{clip-path:url(#SVGID_12_);fill:#B1D136;}
	.st8{clip-path:url(#SVGID_14_);fill:#1FBBED;}
	.st9{clip-path:url(#SVGID_16_);fill:#EB2227;}
	.st10{clip-path:url(#SVGID_18_);fill:#FEFEFE;}
	.st11{clip-path:url(#SVGID_20_);fill:#FEFEFE;}
	.st12{clip-path:url(#SVGID_22_);fill:#FEFEFE;}
	.st13{clip-path:url(#SVGID_24_);fill:#FEFEFE;}
	.st14{clip-path:url(#SVGID_26_);fill:#FEFEFE;}
	.st15{clip-path:url(#SVGID_28_);fill:#FEFEFE;}
	.st16{clip-path:url(#SVGID_30_);fill:#FEFEFE;}
	.st17{clip-path:url(#SVGID_32_);fill:#FEFEFE;}
	.st18{clip-path:url(#SVGID_34_);fill:#FEFEFE;}
	.st19{clip-path:url(#SVGID_36_);fill:#FEFEFE;}
	.st20{clip-path:url(#SVGID_38_);fill:#FEFEFE;}
	.st21{clip-path:url(#SVGID_40_);fill:#FEFEFE;}
	.st22{clip-path:url(#SVGID_42_);fill:#FEFEFE;}
	.st23{clip-path:url(#SVGID_44_);fill:#FEFEFE;}
	.st24{clip-path:url(#SVGID_46_);fill:#FEFEFE;}
	.st25{clip-path:url(#SVGID_48_);fill:#FEFEFE;}
	.st26{clip-path:url(#SVGID_50_);fill:#FEFEFE;}
	.st27{clip-path:url(#SVGID_52_);enable-background:new    ;}
	.st28{clip-path:url(#SVGID_54_);}
	.st29{clip-path:url(#SVGID_56_);}
	.st30{clip-path:url(#SVGID_58_);fill:#FEFEFE;}
</style>
<path class="st1" d="M68.3,68.3V56.6c0.7-0.6,1.1-1.3,1.1-2.2c0-0.7-0.5-1.2-1.1-1.4V40.8c0-4.6-11.5-5.9-18.3-5.9
	s-18.3,1.2-18.3,5.9V53c-0.6,0.2-1.1,0.7-1.1,1.4c0,0.8,0.4,1.6,1.1,2.2v11.7c-0.6,0.2-1.1,0.7-1.1,1.4c0,0.8,0.4,1.6,1.1,2.2v12.3
	c0,4.6,11.5,5.9,18.3,5.9s18.3-1.2,18.3-5.9V71.8c0.7-0.6,1.1-1.3,1.1-2.2C69.4,69,68.9,68.4,68.3,68.3z M34.5,44.2
	c3.9,1.9,10.8,2.5,15.5,2.5c4.7,0,11.6-0.6,15.5-2.5l0,10.9c-2.2,1.1-7.6,2.3-15.5,2.3c-7.9,0-13.3-1.2-15.5-2.3V44.2z M50,37.8
	c9.2,0,14.9,1.9,15.4,3c-0.6,1.1-6.2,3-15.4,3s-14.9-1.9-15.5-3C35.1,39.7,40.8,37.8,50,37.8z M50,60.3c4.6,0,11.3-0.5,15.5-2.1
	l0,12.2c-2.2,1.1-7.6,2.3-15.5,2.3c-7.9,0-13.3-1.2-15.5-2.3V58.2C38.7,59.7,45.4,60.3,50,60.3z M65.5,84.1
	c-0.4,1.1-6.1,3.1-15.5,3.1s-15.1-2-15.5-3V73.4c4.2,1.6,10.9,2.1,15.5,2.1c4.6,0,11.3-0.5,15.5-2.1L65.5,84.1z"/>
<path class="st0" d="M41.6,26.9c1,0,1.4,0.2,2.1,0.6c0.8,0.4,1.7,1,3.5,1s2.7-0.6,3.5-1c0.6-0.4,1.1-0.6,2.1-0.6
	c1,0,1.4,0.2,2.1,0.6c0.8,0.4,1.7,1,3.5,1c0.8,0,1.4-0.6,1.4-1.4s-0.6-1.4-1.4-1.4c-1,0-1.4-0.2-2.1-0.6c-0.8-0.4-1.7-1-3.5-1
	c-1.8,0-2.7,0.6-3.5,1c-0.6,0.4-1.1,0.6-2.1,0.6c-1,0-1.4-0.2-2.1-0.6c-0.8-0.4-1.7-1-3.5-1c-0.8,0-1.4,0.6-1.4,1.4
	C40.2,26.2,40.8,26.9,41.6,26.9z"/>
<path class="st0" d="M41.6,19.9c1,0,1.4,0.2,2.1,0.6c0.8,0.4,1.7,1,3.5,1s2.7-0.6,3.5-1c0.6-0.4,1.1-0.6,2.1-0.6
	c1,0,1.4,0.2,2.1,0.6c0.8,0.4,1.7,1,3.5,1c0.8,0,1.4-0.6,1.4-1.4c0-0.8-0.6-1.4-1.4-1.4c-1,0-1.4-0.2-2.1-0.6c-0.8-0.4-1.7-1-3.5-1
	c-1.8,0-2.7,0.6-3.5,1c-0.6,0.4-1.1,0.6-2.1,0.6c-1,0-1.4-0.2-2.1-0.6c-0.8-0.4-1.7-1-3.5-1c-0.8,0-1.4,0.6-1.4,1.4
	S40.8,19.9,41.6,19.9z"/>
<path class="st0" d="M41.6,12.8c1,0,1.4,0.2,2.1,0.6c0.8,0.4,1.7,1,3.5,1s2.7-0.6,3.5-1c0.6-0.4,1.1-0.6,2.1-0.6
	c1,0,1.4,0.2,2.1,0.6c0.8,0.4,1.7,1,3.5,1c0.8,0,1.4-0.6,1.4-1.4c0-0.8-0.6-1.4-1.4-1.4c-1,0-1.4-0.2-2.1-0.6c-0.8-0.4-1.7-1-3.5-1
	c-1.8,0-2.7,0.6-3.5,1c-0.6,0.4-1.1,0.6-2.1,0.6c-1,0-1.4-0.2-2.1-0.6c-0.8-0.4-1.7-1-3.5-1c-0.8,0-1.4,0.6-1.4,1.4
	C40.2,12.2,40.8,12.8,41.6,12.8z"/>
</svg>
