<?xml version="1.0" encoding="utf-8"?>
<!-- Generator: Adobe Illustrator 23.0.3, SVG Export Plug-In . SVG Version: 6.00 Build 0)  -->
<svg version="1.1" id="Layer_1" xmlns="http://www.w3.org/2000/svg" xmlns:xlink="http://www.w3.org/1999/xlink" x="0px" y="0px"
	 viewBox="0 0 100 100" style="enable-background:new 0 0 100 100;" xml:space="preserve">
<style type="text/css">
	.st0{fill:none;}
	.st1{fill:#979897;}
	.st2{fill:#AFD13F;}
</style>
<g>
	<path class="st0" d="M63.3,44.5v-0.2h-0.1c-1.7-2.8-3.6-5.6-5.1-8.3c-2.7-4.7-5.5-9.4-8.2-14.1c-4.3,7.5-8.7,15-13,22.5h-0.2v0.3
		c-1.2,2.1-2.4,4.2-3.6,6.3c-4.4,8-2.4,18,3.6,23.9c1.9,1.8,4.1,3.2,6.6,4.1c1.7,0.6,3.6,1,5.5,1c2.3,0.1,4.6-0.3,6.7-1
		c2.9-1,5.6-2.6,7.8-4.6c5.1-4.8,7.7-12,5.2-19.4C67.3,51.4,65.4,47.9,63.3,44.5z"/>
	<path class="st1" d="M64.5,39.7c-4.3-7.5-8.7-15-12.9-22.4c-0.3-0.6-1-0.9-1.6-0.9s-1.3,0.3-1.6,0.9C42.1,27.9,36,38.4,29.8,49
		c-0.1,0.1-0.1,0.3-0.2,0.4C23.3,61.3,28.1,76.8,41,81.9c13.3,5.3,28-2.5,31.5-16.4C74.9,55.7,69.1,47.7,64.5,39.7z M63.3,74.3
		c-2.2,2.1-4.8,3.7-7.8,4.6c-2.1,0.7-4.4,1.1-6.7,1c-2,0-3.8-0.4-5.5-1c-2.6-0.9-4.8-2.3-6.6-4.1c-6.1-5.9-8.1-15.9-3.6-23.9
		c1.2-2.1,2.4-4.2,3.6-6.3v-0.3h0.2c4.3-7.5,8.7-15,13-22.5c2.7,4.7,5.5,9.4,8.2,14.1c1.6,2.7,3.4,5.5,5.1,8.3h0.1v0.2
		c2.1,3.4,4,6.8,5.2,10.4C71,62.3,68.4,69.6,63.3,74.3z"/>
</g>
<path class="st2" d="M36.7,44.3v0.3c0.1-0.1,0.1-0.2,0.2-0.3H36.7z"/>
<path class="st2" d="M51.6,48.5c-0.7-1.2-2.5-1.2-3.2,0c-2.2,3.8-4.5,7.7-6.7,11.6c-0.1,0.1-0.3,0.3-0.4,0.5c-2.6,5.2-1,11,4.1,13.9
	c4.9,2.7,10.9,0.2,13.5-4.2c2.4-4.1,0.6-8.2-1.5-11.9C55.4,55.1,53.5,51.8,51.6,48.5z"/>
</svg>
