<?xml version="1.0" encoding="utf-8"?>
<!-- Generator: Adobe Illustrator 23.0.3, SVG Export Plug-In . SVG Version: 6.00 Build 0)  -->
<svg version="1.1" id="Layer_1" xmlns="http://www.w3.org/2000/svg" xmlns:xlink="http://www.w3.org/1999/xlink" x="0px" y="0px"
	 viewBox="0 0 100 100" style="enable-background:new 0 0 100 100;" xml:space="preserve">
<style type="text/css">
	.st0{enable-background:new    ;}
	.st1{fill-rule:evenodd;clip-rule:evenodd;fill:#979897;}
	.st2{clip-path:url(#SVGID_2_);}
	.st3{fill:#979897;}
	.st4{clip-path:url(#SVGID_4_);}
	.st5{clip-path:url(#SVGID_6_);}
	.st6{fill-rule:evenodd;clip-rule:evenodd;fill:#989897;}
	.st7{clip-path:url(#SVGID_8_);}
	.st8{fill:#989897;}
	.st9{clip-path:url(#SVGID_10_);}
	.st10{fill-rule:evenodd;clip-rule:evenodd;fill:#AFD13F;}
	.st11{clip-path:url(#SVGID_12_);}
	.st12{fill:#AFD13F;}
</style>
<g>
	<g>
		<g class="st0">
			<g>
				<g>
					<g>
						<path id="SVGID_61_" class="st1" d="M83.7,37.6c-1.1-2.9-3.9-4.9-7.1-4.9c-0.7,0-1.5,0.1-2.2,0.3c-1.9-3-5.2-4.9-9-4.9
							c-1.2,0-2.4,0.2-3.5,0.6c-1.4-4.5-5.6-7.7-10.6-7.7c-1.5,0-3,0.3-4.3,0.9c-0.3-0.6-0.7-1.3-1.1-1.9c-1-1.4-2.1-2.5-3.5-3.5
							c-2.8-2.1-6.1-3.2-9.6-3.2c-2.1,0-4.2,0.4-6.2,1.2c-1.9,0.8-3.6,1.9-5.1,3.4c-1.5,1.4-2.6,3.1-3.4,5s-1.3,4-1.3,6.1
							c0,0.2,0,0.4,0,0.6c-1.4,0.6-2.7,1.6-3.6,2.8c-1.4,1.8-2.2,4-2.2,6.2c0,2.7,1,5.2,3,7.1c1.9,1.9,4.4,2.9,7.1,2.9h4
							c-0.2-0.7-0.3-1.5-0.5-2.3h-3.5c-4.3,0-7.8-3.4-7.8-7.7c0-2.2,0.9-4.1,2.4-5.5c0.1-0.1,0.2-0.1,0.2-0.2
							c0.2-0.2,0.5-0.4,0.8-0.6c0.8-0.5,1.7-1,2.7-1.2c-0.1-0.3-0.1-0.7-0.1-1.1c0-0.2,0-0.4,0-0.5c0-0.2,0-0.4,0-0.5
							c0-2.1,0.5-4.1,1.3-5.9c0-0.1,0.1-0.2,0.1-0.3c0.4-0.7,0.8-1.3,1.2-1.9c0.1-0.1,0.1-0.2,0.2-0.3c0.1-0.2,0.3-0.3,0.4-0.5
							c0.4-0.5,0.9-0.9,1.4-1.4c2.4-2.1,5.5-3.3,8.9-3.3c3.7,0,7,1.4,9.4,3.7c0.1,0.1,0.3,0.2,0.4,0.4c0.7,0.8,1.4,1.6,1.9,2.5
							s1,1.9,1.3,2.9c0.8-0.6,1.6-1.1,2.5-1.4s1.9-0.5,2.9-0.5c1.1,0,2.2,0.2,3.2,0.6c2.2,0.9,4,2.6,4.9,4.8
							c0.1,0.2,0.2,0.5,0.3,0.7c0,0.1,0.1,0.2,0.1,0.3c-2.9,1.8-4.9,5-5,8.6c-2.1,1.2-3.5,3.5-3.5,6c0,0.7,0.1,1.4,0.3,2.1h-4.1
							c0.1,0.4,0.1,0.8,0.1,1.3c0,3.4-2.7,6.1-6.1,6.1c-3.4,0-6.1-2.8-6.1-6.1c0-0.4,0-0.9,0.1-1.3h-6.2c0.2,0.8,0.3,1.5,0.5,2.3H33
							c0.5,4.2,4.1,7.5,8.4,7.5s7.9-3.3,8.4-7.5h2.8v-0.1c1.3,1.6,3.3,2.7,5.5,2.7h23.4c3.9,0,7-3.1,7-7
							C88.9,41.1,86.7,38.4,83.7,37.6 M81.8,48.9H58.4c-0.6,0-1.1-0.1-1.6-0.3c-1.1-0.4-2-1.2-2.6-2.3c-0.3-0.6-0.5-1.3-0.5-2.1
							c0-2.2,1.5-4,3.6-4.5c-0.1-0.4-0.1-0.8-0.1-1.3c0-3.3,2-6.2,4.9-7.4c0.1,0,0.1,0,0.2-0.1c0.1,0,0.2-0.1,0.2-0.1
							c0.1,0,0.1,0,0.2-0.1c0.1,0,0.1,0,0.2-0.1c0.1,0,0.1,0,0.2-0.1c0.1,0,0.1,0,0.2-0.1h0.1c0.1,0,0.2,0,0.3-0.1h0.1
							c0.1,0,0.2,0,0.3-0.1h0.1c0.1,0,0.2,0,0.3,0c0,0,0,0,0.1,0s0.2,0,0.4,0l0,0c0.1,0,0.3,0,0.4,0s0.2,0,0.4,0
							c3.5,0.2,6.5,2.5,7.5,5.8c0.9-0.7,2-1.1,3.3-1.1c2.7,0,4.9,2,5.2,4.6l0,0c2.6,0,4.7,2.1,4.7,4.6
							C86.5,46.8,84.4,48.9,81.8,48.9"/>
					</g>
					<g>
						<defs>
							<path id="SVGID_1_" d="M83.7,37.6c-1.1-2.9-3.9-4.9-7.1-4.9c-0.7,0-1.5,0.1-2.2,0.3c-1.9-3-5.2-4.9-9-4.9
								c-1.2,0-2.4,0.2-3.5,0.6c-1.4-4.5-5.6-7.7-10.6-7.7c-1.5,0-3,0.3-4.3,0.9c-0.3-0.6-0.7-1.3-1.1-1.9c-1-1.4-2.1-2.5-3.5-3.5
								c-2.8-2.1-6.1-3.2-9.6-3.2c-2.1,0-4.2,0.4-6.2,1.2c-1.9,0.8-3.6,1.9-5.1,3.4c-1.5,1.4-2.6,3.1-3.4,5s-1.3,4-1.3,6.1
								c0,0.2,0,0.4,0,0.6c-1.4,0.6-2.7,1.6-3.6,2.8c-1.4,1.8-2.2,4-2.2,6.2c0,2.7,1,5.2,3,7.1c1.9,1.9,4.4,2.9,7.1,2.9h4
								c-0.2-0.7-0.3-1.5-0.5-2.3h-3.5c-4.3,0-7.8-3.4-7.8-7.7c0-2.2,0.9-4.1,2.4-5.5c0.1-0.1,0.2-0.1,0.2-0.2
								c0.2-0.2,0.5-0.4,0.8-0.6c0.8-0.5,1.7-1,2.7-1.2c-0.1-0.3-0.1-0.7-0.1-1.1c0-0.2,0-0.4,0-0.5c0-0.2,0-0.4,0-0.5
								c0-2.1,0.5-4.1,1.3-5.9c0-0.1,0.1-0.2,0.1-0.3c0.4-0.7,0.8-1.3,1.2-1.9c0.1-0.1,0.1-0.2,0.2-0.3c0.1-0.2,0.3-0.3,0.4-0.5
								c0.4-0.5,0.9-0.9,1.4-1.4c2.4-2.1,5.5-3.3,8.9-3.3c3.7,0,7,1.4,9.4,3.7c0.1,0.1,0.3,0.2,0.4,0.4c0.7,0.8,1.4,1.6,1.9,2.5
								s1,1.9,1.3,2.9c0.8-0.6,1.6-1.1,2.5-1.4s1.9-0.5,2.9-0.5c1.1,0,2.2,0.2,3.2,0.6c2.2,0.9,4,2.6,4.9,4.8
								c0.1,0.2,0.2,0.5,0.3,0.7c0,0.1,0.1,0.2,0.1,0.3c-2.9,1.8-4.9,5-5,8.6c-2.1,1.2-3.5,3.5-3.5,6c0,0.7,0.1,1.4,0.3,2.1h-4.1
								c0.1,0.4,0.1,0.8,0.1,1.3c0,3.4-2.7,6.1-6.1,6.1c-3.4,0-6.1-2.8-6.1-6.1c0-0.4,0-0.9,0.1-1.3h-6.2c0.2,0.8,0.3,1.5,0.5,2.3
								H33c0.5,4.2,4.1,7.5,8.4,7.5s7.9-3.3,8.4-7.5h2.8v-0.1c1.3,1.6,3.3,2.7,5.5,2.7h23.4c3.9,0,7-3.1,7-7
								C88.9,41.1,86.7,38.4,83.7,37.6 M81.8,48.9H58.4c-0.6,0-1.1-0.1-1.6-0.3c-1.1-0.4-2-1.2-2.6-2.3c-0.3-0.6-0.5-1.3-0.5-2.1
								c0-2.2,1.5-4,3.6-4.5c-0.1-0.4-0.1-0.8-0.1-1.3c0-3.3,2-6.2,4.9-7.4c0.1,0,0.1,0,0.2-0.1c0.1,0,0.2-0.1,0.2-0.1
								c0.1,0,0.1,0,0.2-0.1c0.1,0,0.1,0,0.2-0.1c0.1,0,0.1,0,0.2-0.1c0.1,0,0.1,0,0.2-0.1h0.1c0.1,0,0.2,0,0.3-0.1h0.1
								c0.1,0,0.2,0,0.3-0.1h0.1c0.1,0,0.2,0,0.3,0c0,0,0,0,0.1,0s0.2,0,0.4,0l0,0c0.1,0,0.3,0,0.4,0s0.2,0,0.4,0
								c3.5,0.2,6.5,2.5,7.5,5.8c0.9-0.7,2-1.1,3.3-1.1c2.7,0,4.9,2,5.2,4.6l0,0c2.6,0,4.7,2.1,4.7,4.6
								C86.5,46.8,84.4,48.9,81.8,48.9"/>
						</defs>
						<clipPath id="SVGID_2_">
							<use xlink:href="#SVGID_1_"  style="overflow:visible;"/>
						</clipPath>
						<g class="st2">
							<g>
								<rect id="SVGID_63_" x="11.1" y="12.4" class="st3" width="78.3" height="43.9"/>
							</g>
						</g>
					</g>
				</g>
			</g>
		</g>
	</g>
</g>
<g>
	<g>
		<path id="SVGID_65_" class="st1" d="M50.7,64.9c-2.8,0-5.2-2.3-5.2-5.2c0-2.8,2.3-5.2,5.2-5.2s5.2,2.3,5.2,5.2
			C55.9,62.6,53.6,64.9,50.7,64.9 M50.7,56.9c-1.6,0-2.8,1.3-2.8,2.8c0,1.6,1.3,2.8,2.8,2.8s2.8-1.3,2.8-2.8S52.3,56.9,50.7,56.9"/>
	</g>
	<g>
		<defs>
			<path id="SVGID_3_" d="M50.7,64.9c-2.8,0-5.2-2.3-5.2-5.2c0-2.8,2.3-5.2,5.2-5.2s5.2,2.3,5.2,5.2C55.9,62.6,53.6,64.9,50.7,64.9
				 M50.7,56.9c-1.6,0-2.8,1.3-2.8,2.8c0,1.6,1.3,2.8,2.8,2.8s2.8-1.3,2.8-2.8S52.3,56.9,50.7,56.9"/>
		</defs>
		<clipPath id="SVGID_4_">
			<use xlink:href="#SVGID_3_"  style="overflow:visible;"/>
		</clipPath>
		<g class="st4">
			<g>
				<rect id="SVGID_67_" x="-1136.8" y="-1197.5" class="st3" width="1411.3" height="4730.3"/>
			</g>
		</g>
	</g>
</g>
<g>
	<g>
		<path id="SVGID_69_" class="st1" d="M55.7,74.4c-16.8-1.4-29.9-16-29.9-33.3c0-5.2,1.2-10.3,3.4-14.9l2,1c-2.1,4.3-3.2,9-3.2,13.9
			c0,16,12.2,29.6,27.8,30.9L55.7,74.4z"/>
	</g>
	<g>
		<defs>
			<path id="SVGID_5_" d="M55.7,74.4c-16.8-1.4-29.9-16-29.9-33.3c0-5.2,1.2-10.3,3.4-14.9l2,1c-2.1,4.3-3.2,9-3.2,13.9
				c0,16,12.2,29.6,27.8,30.9L55.7,74.4z"/>
		</defs>
		<clipPath id="SVGID_6_">
			<use xlink:href="#SVGID_5_"  style="overflow:visible;"/>
		</clipPath>
		<g class="st5">
			<g>
				<rect id="SVGID_71_" x="-1136.8" y="-1197.5" class="st3" width="1411.3" height="4730.3"/>
			</g>
		</g>
	</g>
</g>
<g>
	<g>
		<polygon id="SVGID_73_" class="st6" points="50.7,76.7 55.1,73.2 51.4,69.2 54.8,69.5 58.5,73.5 54.1,76.9 		"/>
	</g>
	<g>
		<defs>
			<polygon id="SVGID_7_" points="50.7,76.7 55.1,73.2 51.4,69.2 54.8,69.5 58.5,73.5 54.1,76.9 			"/>
		</defs>
		<clipPath id="SVGID_8_">
			<use xlink:href="#SVGID_7_"  style="overflow:visible;"/>
		</clipPath>
		<g class="st7">
			<g>
				<rect id="SVGID_75_" x="-1136.8" y="-1197.5" class="st8" width="1411.3" height="4730.3"/>
			</g>
		</g>
	</g>
</g>
<g>
	<g>
		<path id="SVGID_77_" class="st1" d="M65.8,66.6c2.1,0,3.9-1.7,3.9-3.9s-1.7-3.9-3.9-3.9s-3.9,1.7-3.9,3.9
			C61.9,64.9,63.6,66.6,65.8,66.6 M65.8,61.2c0.9,0,1.6,0.7,1.6,1.6c0,0.9-0.7,1.6-1.6,1.6s-1.6-0.7-1.6-1.6
			C64.2,61.9,64.9,61.2,65.8,61.2"/>
	</g>
	<g>
		<defs>
			<path id="SVGID_9_" d="M65.8,66.6c2.1,0,3.9-1.7,3.9-3.9s-1.7-3.9-3.9-3.9s-3.9,1.7-3.9,3.9C61.9,64.9,63.6,66.6,65.8,66.6
				 M65.8,61.2c0.9,0,1.6,0.7,1.6,1.6c0,0.9-0.7,1.6-1.6,1.6s-1.6-0.7-1.6-1.6C64.2,61.9,64.9,61.2,65.8,61.2"/>
		</defs>
		<clipPath id="SVGID_10_">
			<use xlink:href="#SVGID_9_"  style="overflow:visible;"/>
		</clipPath>
		<g class="st9">
			<g>
				<rect id="SVGID_79_" x="-1136.8" y="-1197.5" class="st3" width="1411.3" height="4730.3"/>
			</g>
		</g>
	</g>
</g>
<g>
	<g class="st0">
		<g>
			<g>
				<g>
					<path id="SVGID_81_" class="st10" d="M70.6,84.1c-0.1-1.3-0.3-2.4-0.4-3.4c-0.4-2.1-0.6-3.7,0.3-6c0.1,0,0.3,0,0.4,0
						c2.9,0,5.8-1.4,7.9-3.8c2.3-2.6,3.4-6,2.8-9l-0.2-0.8L80.5,61c-3.1-0.3-6.3,1.1-8.7,3.7c-1,1.2-1.8,2.5-2.3,3.8
						c-0.3-0.8-0.6-1.5-1.1-2.2c-0.5,0.5-1.2,0.9-2,1.1c1,1.6,1.5,3.3,1.4,5c-2.1-0.1-4.3-1.2-5.9-3c-1.6-1.8-2.5-4.1-2.4-6.2
						c0.4,0,0.7,0.1,1.1,0.1c0-0.1,0-0.2,0-0.3c0-0.7,0.1-1.3,0.4-1.9c-0.8-0.2-1.7-0.2-2.5-0.2L57.6,61l0.1,1
						c-0.6,3.1,0.5,6.4,2.8,9c2.1,2.3,4.8,3.6,7.6,3.7c-0.8,2.5-0.5,4.4-0.1,6.4c0.2,0.9,0.3,1.9,0.4,3H57.5v2.3h24.3v-2.3H70.6z
						 M73.6,66.3c1.6-1.8,3.8-2.9,5.9-3c0.1,2.1-0.7,4.4-2.4,6.2c-1.6,1.8-3.8,2.9-5.9,3C71.2,70.4,72,68.1,73.6,66.3z"/>
				</g>
				<g>
					<defs>
						<path id="SVGID_11_" d="M70.6,84.1c-0.1-1.3-0.3-2.4-0.4-3.4c-0.4-2.1-0.6-3.7,0.3-6c0.1,0,0.3,0,0.4,0c2.9,0,5.8-1.4,7.9-3.8
							c2.3-2.6,3.4-6,2.8-9l-0.2-0.8L80.5,61c-3.1-0.3-6.3,1.1-8.7,3.7c-1,1.2-1.8,2.5-2.3,3.8c-0.3-0.8-0.6-1.5-1.1-2.2
							c-0.5,0.5-1.2,0.9-2,1.1c1,1.6,1.5,3.3,1.4,5c-2.1-0.1-4.3-1.2-5.9-3c-1.6-1.8-2.5-4.1-2.4-6.2c0.4,0,0.7,0.1,1.1,0.1
							c0-0.1,0-0.2,0-0.3c0-0.7,0.1-1.3,0.4-1.9c-0.8-0.2-1.7-0.2-2.5-0.2L57.6,61l0.1,1c-0.6,3.1,0.5,6.4,2.8,9
							c2.1,2.3,4.8,3.6,7.6,3.7c-0.8,2.5-0.5,4.4-0.1,6.4c0.2,0.9,0.3,1.9,0.4,3H57.5v2.3h24.3v-2.3H70.6z M73.6,66.3
							c1.6-1.8,3.8-2.9,5.9-3c0.1,2.1-0.7,4.4-2.4,6.2c-1.6,1.8-3.8,2.9-5.9,3C71.2,70.4,72,68.1,73.6,66.3z"/>
					</defs>
					<clipPath id="SVGID_12_">
						<use xlink:href="#SVGID_11_"  style="overflow:visible;"/>
					</clipPath>
					<g class="st11">
						<g>
							<rect id="SVGID_83_" x="56.7" y="60.6" class="st12" width="25.8" height="25.8"/>
						</g>
					</g>
				</g>
			</g>
		</g>
	</g>
</g>
</svg>
