<?xml version="1.0" encoding="utf-8"?>
<!-- Generator: Adobe Illustrator 23.0.3, SVG Export Plug-In . SVG Version: 6.00 Build 0)  -->
<svg version="1.1" id="Layer_1" xmlns="http://www.w3.org/2000/svg" xmlns:xlink="http://www.w3.org/1999/xlink" x="0px" y="0px"
	 viewBox="0 0 100 100" style="enable-background:new 0 0 100 100;" xml:space="preserve">
<style type="text/css">
	.st0{fill:#B0D241;}
	.st1{fill:#999999;}
	.st2{clip-path:url(#SVGID_2_);fill:#057DBA;}
	.st3{clip-path:url(#SVGID_4_);fill:#B1D136;}
	.st4{clip-path:url(#SVGID_6_);fill:#1FBBED;}
	.st5{clip-path:url(#SVGID_8_);fill:#EB2227;}
	.st6{clip-path:url(#SVGID_10_);fill:#057DBA;}
	.st7{clip-path:url(#SVGID_12_);fill:#B1D136;}
	.st8{clip-path:url(#SVGID_14_);fill:#1FBBED;}
	.st9{clip-path:url(#SVGID_16_);fill:#EB2227;}
	.st10{clip-path:url(#SVGID_18_);fill:#FEFEFE;}
	.st11{clip-path:url(#SVGID_20_);fill:#FEFEFE;}
	.st12{clip-path:url(#SVGID_22_);fill:#FEFEFE;}
	.st13{clip-path:url(#SVGID_24_);fill:#FEFEFE;}
	.st14{clip-path:url(#SVGID_26_);fill:#FEFEFE;}
	.st15{clip-path:url(#SVGID_28_);fill:#FEFEFE;}
	.st16{clip-path:url(#SVGID_30_);fill:#FEFEFE;}
	.st17{clip-path:url(#SVGID_32_);fill:#FEFEFE;}
	.st18{clip-path:url(#SVGID_34_);fill:#FEFEFE;}
	.st19{clip-path:url(#SVGID_36_);fill:#FEFEFE;}
	.st20{clip-path:url(#SVGID_38_);fill:#FEFEFE;}
	.st21{clip-path:url(#SVGID_40_);fill:#FEFEFE;}
	.st22{clip-path:url(#SVGID_42_);fill:#FEFEFE;}
	.st23{clip-path:url(#SVGID_44_);fill:#FEFEFE;}
	.st24{clip-path:url(#SVGID_46_);fill:#FEFEFE;}
	.st25{clip-path:url(#SVGID_48_);fill:#FEFEFE;}
	.st26{clip-path:url(#SVGID_50_);fill:#FEFEFE;}
	.st27{clip-path:url(#SVGID_52_);enable-background:new    ;}
	.st28{clip-path:url(#SVGID_54_);}
	.st29{clip-path:url(#SVGID_56_);}
	.st30{clip-path:url(#SVGID_58_);fill:#FEFEFE;}
</style>
<path class="st1" d="M83.2,72.3c4.3-6.4,6.8-14,6.8-22.3c0-22.1-17.9-40-40-40S10,27.9,10,50s17.9,40,40,40c13.7,0,25.8-6.9,33-17.4
	C83.1,72.5,83.1,72.4,83.2,72.3z M80.3,69.2c-9.6-0.2-17.1-2.3-23.7-5.1c6.9-7.3,17.4-11.6,29.2-12C85.5,58.4,83.5,64.2,80.3,69.2z
	 M50,14.1c19.1,0,34.8,15,35.9,33.9c-13.6,0.5-25.4,5.6-33.1,14.3c-2.6-1.3-5.1-2.7-7.6-4c-8.9-4.8-18-9.8-31-10.3
	C15.2,29.1,30.9,14.1,50,14.1z M50,85.9c-19.1,0-34.8-15-35.9-33.8c11.9,0.5,20.2,5,29,9.8c9.5,5.2,19.3,10.5,34.2,11.3
	C70.8,81,61,85.9,50,85.9z"/>
<path class="st0" d="M40.4,43c5.8,0,10.4-4.7,10.4-10.4s-4.7-10.4-10.4-10.4S30,26.8,30,32.5S34.6,43,40.4,43z M40.4,26.2
	c3.5,0,6.4,2.9,6.4,6.4c0,3.5-2.9,6.4-6.4,6.4c-3.5,0-6.4-2.9-6.4-6.4C34,29,36.9,26.2,40.4,26.2z"/>
</svg>
