<?xml version="1.0" encoding="utf-8"?>
<!-- Generator: Adobe Illustrator 23.0.3, SVG Export Plug-In . SVG Version: 6.00 Build 0)  -->
<svg version="1.1" id="Layer_1" xmlns="http://www.w3.org/2000/svg" xmlns:xlink="http://www.w3.org/1999/xlink" x="0px" y="0px"
	 viewBox="0 0 100 100" style="enable-background:new 0 0 100 100;" xml:space="preserve">
<style type="text/css">
	.st0{fill:#B0D241;}
	.st1{fill:#999999;}
	.st2{clip-path:url(#SVGID_2_);fill:#057DBA;}
	.st3{clip-path:url(#SVGID_4_);fill:#B1D136;}
	.st4{clip-path:url(#SVGID_6_);fill:#1FBBED;}
	.st5{clip-path:url(#SVGID_8_);fill:#EB2227;}
	.st6{clip-path:url(#SVGID_10_);fill:#057DBA;}
	.st7{clip-path:url(#SVGID_12_);fill:#B1D136;}
	.st8{clip-path:url(#SVGID_14_);fill:#1FBBED;}
	.st9{clip-path:url(#SVGID_16_);fill:#EB2227;}
	.st10{clip-path:url(#SVGID_18_);fill:#FEFEFE;}
	.st11{clip-path:url(#SVGID_20_);fill:#FEFEFE;}
	.st12{clip-path:url(#SVGID_22_);fill:#FEFEFE;}
	.st13{clip-path:url(#SVGID_24_);fill:#FEFEFE;}
	.st14{clip-path:url(#SVGID_26_);fill:#FEFEFE;}
	.st15{clip-path:url(#SVGID_28_);fill:#FEFEFE;}
	.st16{clip-path:url(#SVGID_30_);fill:#FEFEFE;}
	.st17{clip-path:url(#SVGID_32_);fill:#FEFEFE;}
	.st18{clip-path:url(#SVGID_34_);fill:#FEFEFE;}
	.st19{clip-path:url(#SVGID_36_);fill:#FEFEFE;}
	.st20{clip-path:url(#SVGID_38_);fill:#FEFEFE;}
	.st21{clip-path:url(#SVGID_40_);fill:#FEFEFE;}
	.st22{clip-path:url(#SVGID_42_);fill:#FEFEFE;}
	.st23{clip-path:url(#SVGID_44_);fill:#FEFEFE;}
	.st24{clip-path:url(#SVGID_46_);fill:#FEFEFE;}
	.st25{clip-path:url(#SVGID_48_);fill:#FEFEFE;}
	.st26{clip-path:url(#SVGID_50_);fill:#FEFEFE;}
	.st27{clip-path:url(#SVGID_52_);enable-background:new    ;}
	.st28{clip-path:url(#SVGID_54_);}
	.st29{clip-path:url(#SVGID_56_);}
	.st30{clip-path:url(#SVGID_58_);fill:#FEFEFE;}
</style>
<path class="st1" d="M70.5,23.6h-8.6v-0.8c0-2.9-2.6-5.3-5.9-5.3H44c-3.2,0-5.9,2.4-5.9,5.3v0.8h-8.6c-3.2,0-5.9,2.7-5.9,5.9v0.7
	c0,2.3,1.5,4.5,3.7,5.5v41c0,3.2,2.7,5.9,5.9,5.9h33.5c3.2,0,5.9-2.7,5.9-5.9v-41c2.2-0.8,3.7-3,3.7-5.5v-0.7
	C76.3,26.3,73.7,23.6,70.5,23.6z M68.8,76.6c0,0.5-0.1,1-0.5,1.4c-0.4,0.4-0.9,0.7-1.5,0.7H33.1c-1.2,0-2.1-0.9-2.1-2.1V36.1h37.8
	L68.8,76.6z M41.9,23.6v-0.8c0-0.8,1-1.5,2.1-1.5H56c1.1,0,2.1,0.7,2.1,1.5v0.8H41.9z M72.6,30.6c-0.2,1-1,1.8-2.1,1.8h-41
	c-1.2,0-2.1-0.9-2.1-2.1v-0.7c0-1.2,0.9-2.1,2.1-2.1h40.9c1.2,0,2.1,0.9,2.1,2.1L72.6,30.6L72.6,30.6z"/>
<path class="st0" d="M42.4,74.1c1,0,1.9-0.9,1.9-1.9v-31c0-1-0.9-1.9-1.9-1.9c-1,0-1.9,0.9-1.9,1.9v31
	C40.6,73.2,41.4,74.1,42.4,74.1z"/>
<path class="st0" d="M57.5,74.1c1,0,1.9-0.9,1.9-1.9v-31c0-1-0.9-1.9-1.9-1.9c-1,0-1.9,0.9-1.9,1.9v31
	C55.6,73.2,56.5,74.1,57.5,74.1z"/>
</svg>
