<?xml version="1.0" encoding="utf-8"?>
<!-- Generator: Adobe Illustrator 23.0.3, SVG Export Plug-In . SVG Version: 6.00 Build 0)  -->
<svg version="1.1" id="Layer_1" xmlns="http://www.w3.org/2000/svg" xmlns:xlink="http://www.w3.org/1999/xlink" x="0px" y="0px"
	 viewBox="0 0 100 100" style="enable-background:new 0 0 100 100;" xml:space="preserve">
<style type="text/css">
	.st0{fill:none;}
	.st1{fill:#979897;}
	.st2{fill:#AFD13F;}
</style>
<g>
	<path class="st0" d="M48.7,83.7L48.7,83.7L48.7,83.7z"/>
	<path class="st1" d="M70,72.9c-0.6-0.6-1.6-0.7-2.2-0.1l0,0c-5.3,4.9-12,7.8-19.2,7.8c-5.7,0-11.2-1.7-15.9-4.8H35
		c0.9,0,1.6-0.7,1.6-1.6s-0.7-1.6-1.6-1.6h-6.6c-1-0.1-1.9,0.7-1.8,1.8v6.7c0,0.9,0.7,1.6,1.6,1.6s1.6-0.7,1.6-1.6v-3.6
		c5.5,4,12.1,6.2,18.9,6.2l0,0c7.9,0,15.5-3.2,21.3-8.6C70.6,74.5,70.6,73.5,70,72.9z"/>
	<path class="st2" d="M82.6,64.5l-6.3,2c-0.9,0.4-2.1-0.2-2.2-1.2l-2-6.4c-0.3-0.8,0.2-1.7,1-2s1.7,0.2,2,1l0.8,2.4
		c1-2.8,1.5-5.8,1.5-8.8c0-14-9.9-26.1-23.5-28.7c-0.8-0.2-1.4-1-1.2-1.8c0.2-0.9,1-1.4,1.8-1.3c15.1,3,26.1,16.3,26.1,31.8
		c0,3.7-0.7,7.4-2,10.9l3.2-1l0,0c0.8-0.3,1.7,0.2,2,1C83.9,63.3,83.5,64.2,82.6,64.5z"/>
	<path class="st2" d="M81.7,61.5L81.7,61.5l-3.2,1c1.3-3.5,2-7.1,2-10.9c0-15.5-11-28.9-26.1-31.8c-0.8-0.2-1.7,0.4-1.8,1.3
		c-0.2,0.9,0.4,1.7,1.2,1.8c13.7,2.7,23.5,14.7,23.5,28.7c0,3-0.5,6-1.5,8.8L75.1,58c-0.2-0.8-1.1-1.3-2-1c-0.8,0.3-1.3,1.1-1,2
		l2,6.4c0.2,1,1.3,1.6,2.2,1.2l6.3-2c0.8-0.3,1.3-1.1,1-2C83.4,61.7,82.5,61.2,81.7,61.5z"/>
	<path class="st1" d="M22.3,64.5c-2-4-2.9-8.3-2.9-12.8c0-12.6,8.1-23.7,19.8-27.6l-1.5,2.3c-0.5,0.7-0.3,1.7,0.4,2.2
		s1.7,0.3,2.2-0.4l3.6-5.5c0.7-0.7,0.4-2-0.5-2.5L38,16.5c-0.7-0.5-1.7-0.3-2.2,0.4c-0.5,0.7-0.3,1.7,0.4,2.2l0,0l2.7,1.8
		C25.6,25,16.3,37.5,16.3,51.7c0,4.9,1.1,9.7,3.3,14.1C20.4,67.7,23.2,66.3,22.3,64.5z"/>
</g>
</svg>
