<?xml version="1.0" encoding="utf-8"?>
<!-- Generator: Adobe Illustrator 23.0.3, SVG Export Plug-In . SVG Version: 6.00 Build 0)  -->
<svg version="1.1" id="Layer_1" xmlns="http://www.w3.org/2000/svg" xmlns:xlink="http://www.w3.org/1999/xlink" x="0px" y="0px"
	 viewBox="0 0 100 100" style="enable-background:new 0 0 100 100;" xml:space="preserve">
<style type="text/css">
	.st0{fill:#B0D241;}
	.st1{fill:#999999;}
	.st2{clip-path:url(#SVGID_2_);fill:#057DBA;}
	.st3{clip-path:url(#SVGID_4_);fill:#B1D136;}
	.st4{clip-path:url(#SVGID_6_);fill:#1FBBED;}
	.st5{clip-path:url(#SVGID_8_);fill:#EB2227;}
	.st6{clip-path:url(#SVGID_10_);fill:#057DBA;}
	.st7{clip-path:url(#SVGID_12_);fill:#B1D136;}
	.st8{clip-path:url(#SVGID_14_);fill:#1FBBED;}
	.st9{clip-path:url(#SVGID_16_);fill:#EB2227;}
	.st10{clip-path:url(#SVGID_18_);fill:#FEFEFE;}
	.st11{clip-path:url(#SVGID_20_);fill:#FEFEFE;}
	.st12{clip-path:url(#SVGID_22_);fill:#FEFEFE;}
	.st13{clip-path:url(#SVGID_24_);fill:#FEFEFE;}
	.st14{clip-path:url(#SVGID_26_);fill:#FEFEFE;}
	.st15{clip-path:url(#SVGID_28_);fill:#FEFEFE;}
	.st16{clip-path:url(#SVGID_30_);fill:#FEFEFE;}
	.st17{clip-path:url(#SVGID_32_);fill:#FEFEFE;}
	.st18{clip-path:url(#SVGID_34_);fill:#FEFEFE;}
	.st19{clip-path:url(#SVGID_36_);fill:#FEFEFE;}
	.st20{clip-path:url(#SVGID_38_);fill:#FEFEFE;}
	.st21{clip-path:url(#SVGID_40_);fill:#FEFEFE;}
	.st22{clip-path:url(#SVGID_42_);fill:#FEFEFE;}
	.st23{clip-path:url(#SVGID_44_);fill:#FEFEFE;}
	.st24{clip-path:url(#SVGID_46_);fill:#FEFEFE;}
	.st25{clip-path:url(#SVGID_48_);fill:#FEFEFE;}
	.st26{clip-path:url(#SVGID_50_);fill:#FEFEFE;}
	.st27{clip-path:url(#SVGID_52_);enable-background:new    ;}
	.st28{clip-path:url(#SVGID_54_);}
	.st29{clip-path:url(#SVGID_56_);}
	.st30{clip-path:url(#SVGID_58_);fill:#FEFEFE;}
</style>
<path class="st1" d="M78.4,56.4c0-15.2-25.9-44.5-27-45.8c-0.6-0.7-1.7-0.8-2.5-0.1c-0.7,0.6-0.8,1.7-0.1,2.5
	c0.3,0.3,26.2,29.6,26.2,43.4c0,12.2-8.8,22.3-20.4,24.4l5.1-5.4c0.7-0.7,0.6-1.8-0.1-2.5c-0.7-0.7-1.8-0.6-2.5,0.1l-8.2,8.7
	c-0.1,0.1-0.2,0.3-0.3,0.4c0,0,0,0,0,0.1c0,0.1-0.1,0.2-0.1,0.3c0,0.1,0,0.1,0,0.2c0,0,0,0.1,0,0.1c0,0.2,0,0.4,0,0.6
	c0.1,0.6,0.5,1,1,1.3l11.5,5.3c0.2,0.1,0.5,0.2,0.7,0.2c0.7,0,1.3-0.4,1.6-1c0.4-0.9,0-1.9-0.9-2.3L56.3,84
	C68.9,81.1,78.4,69.8,78.4,56.4z"/>
<path class="st0" d="M42.8,83.8c0.1,0,0.3,0.1,0.4,0.1c0.8,0,1.5-0.5,1.7-1.3c0.2-0.9-0.3-1.9-1.2-2.1c-10.9-2.9-18.5-12.8-18.5-24
	c0-9.3,11.7-25.5,19.1-34.9l0,6.6c0,1,0.8,1.7,1.7,1.7c0,0,0,0,0,0c1,0,1.7-0.8,1.7-1.7l0-11.4c0-0.2,0-0.5,0-0.7c0,0,0,0,0,0
	c0,0,0-0.1,0-0.1c-0.1-0.3-0.3-0.6-0.6-0.9c-0.4-0.3-1-0.4-1.5-0.3l-12.4,3.3c-0.9,0.3-1.5,1.2-1.2,2.1c0.3,0.9,1.2,1.5,2.1,1.2
	l7.3-2c-8.5,10.8-19.7,26.9-19.7,36.9C21.6,69.2,30.3,80.5,42.8,83.8z"/>
</svg>
