<?xml version="1.0" encoding="utf-8"?>
<!-- Generator: Adobe Illustrator 23.0.3, SVG Export Plug-In . SVG Version: 6.00 Build 0)  -->
<svg version="1.1" id="Layer_1" xmlns="http://www.w3.org/2000/svg" xmlns:xlink="http://www.w3.org/1999/xlink" x="0px" y="0px"
	 viewBox="0 0 100 100" style="enable-background:new 0 0 100 100;" xml:space="preserve">
<style type="text/css">
	.st0{fill:#B0D241;}
	.st1{fill:#999999;}
	.st2{clip-path:url(#SVGID_2_);fill:#057DBA;}
	.st3{clip-path:url(#SVGID_4_);fill:#B1D136;}
	.st4{clip-path:url(#SVGID_6_);fill:#1FBBED;}
	.st5{clip-path:url(#SVGID_8_);fill:#EB2227;}
	.st6{clip-path:url(#SVGID_10_);fill:#057DBA;}
	.st7{clip-path:url(#SVGID_12_);fill:#B1D136;}
	.st8{clip-path:url(#SVGID_14_);fill:#1FBBED;}
	.st9{clip-path:url(#SVGID_16_);fill:#EB2227;}
	.st10{clip-path:url(#SVGID_18_);fill:#FEFEFE;}
	.st11{clip-path:url(#SVGID_20_);fill:#FEFEFE;}
	.st12{clip-path:url(#SVGID_22_);fill:#FEFEFE;}
	.st13{clip-path:url(#SVGID_24_);fill:#FEFEFE;}
	.st14{clip-path:url(#SVGID_26_);fill:#FEFEFE;}
	.st15{clip-path:url(#SVGID_28_);fill:#FEFEFE;}
	.st16{clip-path:url(#SVGID_30_);fill:#FEFEFE;}
	.st17{clip-path:url(#SVGID_32_);fill:#FEFEFE;}
	.st18{clip-path:url(#SVGID_34_);fill:#FEFEFE;}
	.st19{clip-path:url(#SVGID_36_);fill:#FEFEFE;}
	.st20{clip-path:url(#SVGID_38_);fill:#FEFEFE;}
	.st21{clip-path:url(#SVGID_40_);fill:#FEFEFE;}
	.st22{clip-path:url(#SVGID_42_);fill:#FEFEFE;}
	.st23{clip-path:url(#SVGID_44_);fill:#FEFEFE;}
	.st24{clip-path:url(#SVGID_46_);fill:#FEFEFE;}
	.st25{clip-path:url(#SVGID_48_);fill:#FEFEFE;}
	.st26{clip-path:url(#SVGID_50_);fill:#FEFEFE;}
	.st27{clip-path:url(#SVGID_52_);enable-background:new    ;}
	.st28{clip-path:url(#SVGID_54_);}
	.st29{clip-path:url(#SVGID_56_);}
	.st30{clip-path:url(#SVGID_58_);fill:#FEFEFE;}
</style>
<path class="st1" d="M80.8,24.5h5c1.1,0,2.1-0.9,2.1-2.1s-0.9-2.1-2.1-2.1H75.7c-1.1,0-2.1,0.9-2.1,2.1V32c0,1.1,0.9,2.1,2.1,2.1
	s2.1-0.9,2.1-2.1v-4.8c5.3,6.4,8.2,14.5,8.2,22.8c0,9.6-3.7,18.6-10.5,25.4C68.6,82.2,59.6,85.9,50,85.9c-4.5,0-8.8-0.8-13-2.4
	c-1.2-0.5-2.3-1-3.4-1.6c-1-0.5-2.2-0.1-2.8,0.9c-0.3,0.5-0.3,1-0.1,1.6c0.2,0.5,0.5,0.9,1,1.2c1.2,0.6,2.5,1.2,3.8,1.7
	C40.1,89.1,45,90,50,90c10.7,0,20.7-4.2,28.3-11.7C85.8,70.7,90,60.7,90,50C90,40.7,86.7,31.6,80.8,24.5z"/>
<path class="st1" d="M24,65.2c-1.1,0-2.1,0.9-2.1,2.1v5.1c-5.1-6.4-7.8-14.1-7.8-22.3c0-9.6,3.7-18.6,10.5-25.4
	c6.8-6.8,15.8-10.5,25.4-10.5c4.8,0,9.5,0.9,13.9,2.8c1,0.4,2.2-0.1,2.7-1.1c0.4-1-0.1-2.3-1.1-2.7C60.6,11,55.4,10,50,10
	c-10.7,0-20.7,4.2-28.3,11.7C14.2,29.3,10,39.3,10,50c0,9.2,3.2,18.2,9,25.3h-4.5c-1.1,0-2.1,0.9-2.1,2.1s0.9,2.1,2.1,2.1H24
	c1.1,0,2.1-0.9,2.1-2.1V67.2C26,66.1,25.1,65.2,24,65.2z"/>
<path class="st0" d="M50,76.1c1.1,0,2.1-0.9,2.1-2.1v-5c2.8-2.5,11.4-11.2,11.4-22c0-12.4-11.7-22.2-12.2-22.6
	c-0.8-0.6-1.9-0.6-2.6,0C48.2,24.8,36.5,34.6,36.5,47c0,10.7,8.6,19.4,11.4,22v5C47.9,75.1,48.9,76.1,50,76.1z M50,48.7
	c-1.1,0-2.1,0.9-2.1,2.1v12.3c-2.9-3.3-7.3-9.4-7.3-16.1c0-8.2,6.4-15.4,9.4-18.2c3,2.9,9.4,10,9.4,18.2c0,6.7-4.4,12.8-7.3,16.1
	V50.8C52.1,49.6,51.1,48.7,50,48.7z"/>
</svg>
