<svg width="500" height="500" viewBox="0 0 500 500" fill="none" xmlns="http://www.w3.org/2000/svg">
<path d="M500 0H0V500H500V0Z" fill="#007DB9"/>
<path d="M326.02 235.2H160.63C130.508 235.2 106.09 259.619 106.09 289.74C106.09 319.862 130.508 344.28 160.63 344.28H326.02C356.142 344.28 380.56 319.862 380.56 289.74C380.56 259.619 356.142 235.2 326.02 235.2Z" fill="#B2D235"/>
<path d="M340.65 147.93H222.98C201.551 147.93 184.18 165.302 184.18 186.73C184.18 208.159 201.551 225.53 222.98 225.53H340.65C362.079 225.53 379.45 208.159 379.45 186.73C379.45 165.302 362.079 147.93 340.65 147.93Z" fill="#00BCF1"/>
<path d="M288.49 182.23C303.297 182.23 317.498 188.112 327.968 198.582C338.438 209.052 344.32 223.253 344.32 238.06V296.19H232.66V238.06C232.66 223.253 238.542 209.052 249.012 198.582C259.482 188.112 273.683 182.23 288.49 182.23Z" fill="white"/>
<path d="M287.34 296.19V353.87" stroke="white" stroke-width="9" stroke-miterlimit="10"/>
<path d="M312.27 296.19V353.87" stroke="white" stroke-width="9" stroke-miterlimit="10"/>
<path d="M182.39 235.2V353.87" stroke="white" stroke-width="9" stroke-miterlimit="10"/>
<path d="M182.39 325H238.94C242.388 325 245.694 323.63 248.132 321.192C250.57 318.754 251.94 315.448 251.94 312V276.86" stroke="white" stroke-width="9" stroke-miterlimit="10"/>
<path d="M287.4 193.75C265.14 194.04 247.4 212.6 247.4 234.87V248.66H328.4V234.27C328.4 228.908 327.337 223.6 325.27 218.652C323.204 213.704 320.176 209.216 316.363 205.447C312.549 201.678 308.025 198.703 303.054 196.695C298.082 194.688 292.761 193.686 287.4 193.75Z" fill="#B2D235"/>
<path d="M287.94 204.34V212.88C293.855 212.885 299.527 215.237 303.71 219.42C307.893 223.603 310.245 229.274 310.25 235.19H318.79C318.79 227.008 315.54 219.161 309.754 213.376C303.969 207.59 296.122 204.34 287.94 204.34Z" fill="white"/>
<path d="M284.35 230.39C283.408 231.331 282.88 232.608 282.88 233.94C282.88 235.271 283.408 236.548 284.35 237.49C285.292 238.431 286.568 238.96 287.9 238.96C289.232 238.96 290.508 238.431 291.45 237.49L312.27 209.57L284.35 230.39Z" fill="#007DB9" stroke="#007DB9" stroke-width="2.63" stroke-linecap="round" stroke-linejoin="round"/>
<path d="M287.9 236.42C289.27 236.42 290.38 235.31 290.38 233.94C290.38 232.57 289.27 231.46 287.9 231.46C286.53 231.46 285.42 232.57 285.42 233.94C285.42 235.31 286.53 236.42 287.9 236.42Z" fill="#B2D235"/>
<path d="M256.73 234.87H266.67" stroke="#007DB9" stroke-width="4" stroke-linecap="round" stroke-linejoin="round"/>
<path d="M287.34 203.05V212.99" stroke="#007DB9" stroke-width="4" stroke-linecap="round" stroke-linejoin="round"/>
<path d="M265.44 212.62L272.47 219.65" stroke="#007DB9" stroke-width="4" stroke-linecap="round" stroke-linejoin="round"/>
</svg>
