<svg width="500" height="500" viewBox="0 0 500 500" fill="none" xmlns="http://www.w3.org/2000/svg">
<path d="M500 0H0V500H500V0Z" fill="#B2D235"/>
<path d="M325.54 246.35H160.15C130.028 246.35 105.61 270.768 105.61 300.89C105.61 331.012 130.028 355.43 160.15 355.43H325.54C355.662 355.43 380.08 331.012 380.08 300.89C380.08 270.768 355.662 246.35 325.54 246.35Z" fill="#007DB9"/>
<path d="M340.16 159.07H222.49C201.061 159.07 183.69 176.441 183.69 197.87C183.69 219.298 201.061 236.67 222.49 236.67H340.16C361.589 236.67 378.96 219.298 378.96 197.87C378.96 176.441 361.589 159.07 340.16 159.07Z" fill="#00BCF1"/>
<path d="M288 193.37C302.807 193.37 317.008 199.252 327.478 209.722C337.948 220.193 343.83 234.393 343.83 249.2V307.33H232.17V249.21C232.169 241.878 233.612 234.617 236.417 227.842C239.222 221.067 243.334 214.911 248.519 209.726C253.703 204.541 259.858 200.427 266.632 197.621C273.407 194.815 280.667 193.37 288 193.37Z" fill="white"/>
<path d="M286.86 307.33V365.02" stroke="white" stroke-width="9" stroke-miterlimit="10"/>
<path d="M311.79 307.33V365.02" stroke="white" stroke-width="9" stroke-miterlimit="10"/>
<path d="M181.91 246.35V365.02" stroke="white" stroke-width="9" stroke-miterlimit="10"/>
<path d="M181.91 336.17H238.46C241.908 336.17 245.214 334.8 247.652 332.362C250.09 329.924 251.46 326.618 251.46 323.17V288" stroke="white" stroke-width="9" stroke-miterlimit="10"/>
<path d="M286.92 204.9C264.66 205.19 246.92 223.75 246.92 246.02V259.81H327.92V245.41C327.919 240.049 326.854 234.741 324.787 229.795C322.721 224.848 319.693 220.361 315.879 216.593C312.066 212.825 307.542 209.852 302.571 207.844C297.6 205.837 292.281 204.836 286.92 204.9Z" fill="#B2D235"/>
<path d="M287.46 215.49V224C293.375 224.008 299.045 226.361 303.227 230.543C307.409 234.726 309.762 240.396 309.77 246.31H318.3C318.295 238.134 315.043 230.295 309.26 224.516C303.477 218.737 295.636 215.49 287.46 215.49Z" fill="white"/>
<path d="M283.87 241.53C282.928 242.472 282.4 243.749 282.4 245.08C282.4 246.412 282.928 247.689 283.87 248.63C284.812 249.572 286.089 250.101 287.42 250.101C288.752 250.101 290.028 249.572 290.97 248.63L311.79 220.72L283.87 241.53Z" fill="#007DB9" stroke="#007DB9" stroke-width="2.63" stroke-linecap="round" stroke-linejoin="round"/>
<path d="M287.42 247.56C288.79 247.56 289.9 246.45 289.9 245.08C289.9 243.71 288.79 242.6 287.42 242.6C286.05 242.6 284.94 243.71 284.94 245.08C284.94 246.45 286.05 247.56 287.42 247.56Z" fill="#B2D235"/>
<path d="M256.25 246.02H266.18" stroke="#007DB9" stroke-width="4" stroke-linecap="round" stroke-linejoin="round"/>
<path d="M286.86 214.2V224.14" stroke="#007DB9" stroke-width="4" stroke-linecap="round" stroke-linejoin="round"/>
<path d="M264.96 223.77L271.99 230.79" stroke="#007DB9" stroke-width="4" stroke-linecap="round" stroke-linejoin="round"/>
</svg>
