<svg width="503" height="503" viewBox="0 0 503 503" fill="none" xmlns="http://www.w3.org/2000/svg">
<g clip-path="url(#clip0)">
<path d="M102.99 118.494H89.77V394.294H111.03L102.99 386.314V118.494Z" fill="#B2D235"/>
<path d="M0.97998 0.963745V502.654H220.22L111.03 394.294H89.77V118.494H102.99H310.1H413.88L502.67 232.174V0.963745H0.97998Z" fill="#B2D235"/>
<path d="M413.88 118.494V326.224V386.314V394.294H111.03L220.22 502.654H502.67V232.174L413.88 118.494Z" fill="#007DB9"/>
<path d="M413.88 386.314H133.63H102.99L111.03 394.294H413.88V386.314Z" fill="#007DB9"/>
<path d="M131.28 361.964L120.74 252.224L194.22 285.724L179.59 133.544L261.98 171.124C272.137 148.994 288.954 130.59 310.08 118.484H102.98V386.314L131.28 361.964Z" fill="white" stroke="white" stroke-width="0.43" stroke-miterlimit="10"/>
<path d="M342.5 332.964V347.324H298.69V312.964C288.833 305.67 280.184 296.873 273.06 286.894L199.38 339.424L133.63 386.314H413.88V326.224C391.382 335.899 366.411 338.257 342.5 332.964Z" fill="white" stroke="white" stroke-width="0.43" stroke-miterlimit="10"/>
<path d="M102.99 386.314H133.63L131.28 361.934L102.99 386.314Z" fill="white" stroke="white" stroke-width="0.43" stroke-miterlimit="10"/>
<path d="M194.22 285.724L120.74 252.224L131.28 361.934L196.17 306.034L194.22 285.724Z" fill="#B2D235"/>
<path d="M196.17 306.034L131.28 361.934L133.63 386.314L199.38 339.424L196.17 306.034Z" fill="#B2D235"/>
<path d="M210.91 293.344L194.22 285.724L196.17 306.034L210.91 293.344Z" fill="#007DB9"/>
<path d="M210.91 293.344L196.17 306.034L199.38 339.424L243.3 308.104L210.91 293.344Z" fill="#007DB9"/>
<path d="M256.71 253.884C248.264 226.584 250.139 197.132 261.98 171.124L179.57 133.544L194.2 285.724L210.89 293.344L256.71 253.884Z" fill="#00BCF1"/>
<path d="M210.91 293.344L243.3 308.104L199.38 339.424L273.06 286.894C265.885 276.836 260.365 265.695 256.71 253.894L210.91 293.344Z" fill="#00BCF1"/>
<path d="M261.98 171.124L321.35 198.184L413.86 118.484H310.1C288.966 130.587 272.142 148.991 261.98 171.124Z" fill="#B2D235"/>
<path d="M367.78 219.344L273.06 286.894C280.184 296.873 288.833 305.67 298.69 312.964V303.504H342.5V332.964C366.411 338.257 391.382 335.899 413.88 326.224V118.484L321.37 198.184L367.78 219.344Z" fill="#B2D235"/>
<path d="M256.71 253.884L321.37 198.184L261.98 171.124C250.133 197.13 248.25 226.581 256.69 253.884H256.71Z" fill="#EC1C24"/>
<path d="M273.06 286.894L367.78 219.344L321.37 198.184L256.71 253.884C260.364 265.689 265.884 276.833 273.06 286.894Z" fill="#EC1C24"/>
<path d="M342.5 347.324V332.964C326.656 329.442 311.73 322.628 298.69 312.964V347.324H342.5Z" fill="#EC1C24"/>
<path d="M342.5 303.504H298.69V312.964C311.73 322.628 326.656 329.442 342.5 332.964V303.504Z" fill="#EC1C24"/>
</g>
<defs>
<clipPath id="clip0">
<rect width="501.69" height="501.69" fill="white" transform="translate(0.97998 0.963745)"/>
</clipPath>
</defs>
</svg>
