<svg
  width="1500"
  height="1500"
  viewBox="0 0 1500 1500"
  fill="none"
  xmlns="http://www.w3.org/2000/svg">
  <g filter="url(#filter0_d)">
    <path
      d="M500 0H0V500H504V0Z"
      fill="#00BDF2">
    </path>

    <path
      d="M306.63 237.07V204.63L250.44 236.19V204.63L193.07 237.07L187.62 143.46H154.9L144 355.37L364 356.54V204.63L306.63 237.07Z"
      fill="white">
    </path>

    <path
      d="M280 304.59C280 324.98 268.35 333.3 254 333.3C239.65 333.3 228 324.98 228 304.59C228 284.2 254 261.51 254 261.51C254 261.51 280 284.2 280 304.59Z"
      fill="#B2D235">
    </path>

    <path
      d="M265.38 324.31C265.38 333.22 260.28 336.85 254 336.85C247.72 336.85 242.62 333.22 242.62 324.31C242.62 315.4 254 305.48 254 305.48C254 305.48 265.38 315.4 265.38 324.31Z"
      fill="white">
    </path>

    <path
      d="M214.8 78.57C214.679 78.335 214.495 78.1379 214.27 78.0003C214.044 77.8627 213.784 77.7899 213.52 77.79H207.68C207.402 71.1559 205.135 64.7589 201.174 59.4304C197.212 54.1019 191.739 50.0885 185.466 47.912C179.193 45.7354 172.41 45.4964 166 47.2259C159.589 48.9555 153.847 52.5736 149.52 57.61L154.69 65C157.633 60.887 161.778 57.7873 166.555 56.1276C171.333 54.4679 176.507 54.3298 181.366 55.7323C186.225 57.1349 190.53 60.0091 193.688 63.9593C196.846 67.9094 198.702 72.7414 199 77.79H193.31C193.046 77.7894 192.787 77.8614 192.561 77.9983C192.335 78.1351 192.151 78.3314 192.029 78.5658C191.907 78.8002 191.852 79.0635 191.87 79.327C191.888 79.5906 191.978 79.8441 192.13 80.06L202.22 94.48C202.354 94.6678 202.531 94.8209 202.736 94.9265C202.942 95.0322 203.169 95.0873 203.4 95.0873C203.631 95.0873 203.858 95.0322 204.064 94.9265C204.269 94.8209 204.446 94.6678 204.58 94.48L214.7 80.06C214.85 79.844 214.939 79.5913 214.957 79.3288C214.974 79.0664 214.92 78.804 214.8 78.57Z"
      fill="white">
    </path>

    <path
      d="M174.6 103.74C168.356 103.731 162.351 101.34 157.809 97.0545C153.268 92.7694 150.532 86.913 150.16 80.68H155.86C155.86 80.68 155.86 80.68 155.92 80.68C156.303 80.6774 156.669 80.5234 156.939 80.2518C157.209 79.9802 157.36 79.6129 157.36 79.23C157.36 79.0221 157.314 78.8167 157.226 78.6283C157.138 78.44 157.01 78.2733 156.85 78.14L147 64C146.861 63.8195 146.682 63.6733 146.478 63.5727C146.273 63.4721 146.048 63.4198 145.82 63.4198C145.592 63.4198 145.367 63.4721 145.163 63.5727C144.958 63.6733 144.779 63.8195 144.64 64L134.5 78.41C134.348 78.6259 134.258 78.8794 134.24 79.1429C134.222 79.4065 134.277 79.6698 134.399 79.9042C134.521 80.1386 134.705 80.3349 134.931 80.4717C135.157 80.6086 135.416 80.6806 135.68 80.68H141.52C141.795 87.3143 144.06 93.7123 148.02 99.0419C151.981 104.371 157.453 108.386 163.726 110.563C169.999 112.74 176.782 112.978 183.193 111.248C189.603 109.517 195.345 105.898 199.67 100.86L194.5 93.47C192.24 96.6421 189.255 99.2288 185.794 101.015C182.333 102.801 178.495 103.735 174.6 103.74Z"
      fill="white">
    </path>

    <path
      d="M1004 0H504V500H1004V0Z"
      fill="#B2D235">
    </path>

    <path
      d="M665.42 300.43V221.7C665.462 207.63 671.07 194.148 681.019 184.199C690.968 174.25 704.45 168.642 718.52 168.6C732.59 168.642 746.072 174.25 756.021 184.199C765.97 194.148 771.578 207.63 771.62 221.7V300.43"
      fill="#007DB9">
    </path>

    <path
      d="M766.05 300.43H698.67V367.81H766.05V300.43Z"
      fill="#007DB9">
    </path>

    <path
      d="M741.34 304.73V231C741.379 217.828 746.629 205.207 755.943 195.893C765.257 186.58 777.878 181.33 791.05 181.29C804.222 181.33 816.843 186.58 826.156 195.893C835.47 205.207 840.72 217.828 840.76 231V304.7"
      fill="#00BCF1">
    </path>

    <path
      d="M822.59 304.73H759.52V367.8H822.59V304.73Z"
      fill="#00BCF1">
    </path>

    <path
      d="M639.55 320.67V265.6C639.579 255.756 643.502 246.324 650.463 239.363C657.424 232.402 666.856 228.479 676.7 228.45C686.544 228.479 695.976 232.402 702.937 239.363C709.897 246.324 713.821 255.756 713.85 265.6V320.67"
      fill="#EC1C24">
    </path>

    <path
      d="M700.27 320.67H653.14V367.8H700.27V320.67Z"
      fill="#EC1C24">
    </path>

    <path
      d="M804.89 320.67V265.6C804.919 255.763 808.837 246.337 815.789 239.377C822.741 232.417 832.163 228.49 842 228.45C851.844 228.479 861.276 232.402 868.237 239.363C875.198 246.324 879.121 255.756 879.15 265.6V320.67"
      fill="#EC1C24">
    </path>

    <path
      d="M865.6 320.67H818.47V367.8H865.6V320.67Z"
      fill="#EC1C24">
    </path>

    <path
      d="M676.7 228.46C690.242 228.46 701.22 217.482 701.22 203.94C701.22 190.398 690.242 179.42 676.7 179.42C663.158 179.42 652.18 190.398 652.18 203.94C652.18 217.482 663.158 228.46 676.7 228.46Z"
      fill="white">
    </path>

    <path
      d="M842.04 228.46C855.582 228.46 866.56 217.482 866.56 203.94C866.56 190.398 855.582 179.42 842.04 179.42C828.498 179.42 817.52 190.398 817.52 203.94C817.52 217.482 828.498 228.46 842.04 228.46Z"
      fill="white">
    </path>

    <path
      d="M793.95 181.33C807.492 181.33 818.47 170.352 818.47 156.81C818.47 143.268 807.492 132.29 793.95 132.29C780.408 132.29 769.43 143.268 769.43 156.81C769.43 170.352 780.408 181.33 793.95 181.33Z"
      fill="white">
    </path>

    <path
      d="M723.19 168.6C736.732 168.6 747.71 157.622 747.71 144.08C747.71 130.538 736.732 119.56 723.19 119.56C709.648 119.56 698.67 130.538 698.67 144.08C698.67 157.622 709.648 168.6 723.19 168.6Z"
      fill="white">
    </path>

    <path
      d="M1504 0H1004V500H1504V0Z"
      fill="#007DB9">
    </path>

    <path
      d="M1254 355.77C1312.42 355.77 1359.77 308.415 1359.77 250C1359.77 191.585 1312.42 144.23 1254 144.23C1195.58 144.23 1148.23 191.585 1148.23 250C1148.23 308.415 1195.58 355.77 1254 355.77Z"
      fill="#00BCF1"
      stroke="white"
      stroke-width="9"
      stroke-miterlimit="10">
    </path>

    <path
      d="M1254 355.77C1287.72 355.77 1315.06 308.415 1315.06 250C1315.06 191.585 1287.72 144.23 1254 144.23C1220.28 144.23 1192.94 191.585 1192.94 250C1192.94 308.415 1220.28 355.77 1254 355.77Z"
      stroke="white"
      stroke-width="9"
      stroke-miterlimit="10">
    </path>

    <path
      d="M1254 144.23V355.77"
      stroke="white"
      stroke-width="9"
      stroke-miterlimit="10">
    </path>

    <path
      d="M1148.23 250H1359.77"
      stroke="white"
      stroke-width="9"
      stroke-miterlimit="10">
    </path>

    <path
      d="M1161.88 198H1346.12"
      stroke="white"
      stroke-width="9"
      stroke-miterlimit="10">
    </path>

    <path
      d="M1161.88 302H1346.12"
      stroke="white"
      stroke-width="9"
      stroke-miterlimit="10">
    </path>

    <rect
      width="1500"
      height="500"
      transform="translate(4 500)"
      fill="white">
    </rect>

    <path
      d="M500 500H0V1000H504V500Z"
      fill="#007DB9">
    </path>

    <path
      d="M337 766.16C327.16 825 285.93 842.88 240 835.22C194.07 827.56 160.92 797.22 170.74 738.42C180.56 679.62 275.59 622.17 275.59 622.17C275.59 622.17 346.8 707.32 337 766.16Z"
      fill="#B2D235">
    </path>

    <path
      d="M261.49 706.67L240.04 835.22"
      stroke="white"
      stroke-width="8"
      stroke-miterlimit="10"
      stroke-linejoin="round">
    </path>

    <path
      d="M240.09 834.9L230.82 890.46"
      stroke="#B2D235"
      stroke-width="8"
      stroke-miterlimit="10"
      stroke-linejoin="round">
    </path>

    <path
      d="M215.16 709.41L253.54 754.33"
      stroke="white"
      stroke-width="8"
      stroke-miterlimit="10"
      stroke-linejoin="round">
    </path>

    <path
      d="M303.19 742.35L252.3 772.38"
      stroke="white"
      stroke-width="8"
      stroke-miterlimit="10"
      stroke-linejoin="round">
    </path>

    <path
      d="M207.26 756.76L245.63 801.68"
      stroke="white"
      stroke-width="8"
      stroke-miterlimit="10"
      stroke-linejoin="round">
    </path>

    <rect
      width="500"
      height="500"
      transform="translate(504 500)"
      fill="white">
    </rect>

    <path
      d="M853.981 748.354C853.674 747.776 853.216 747.292 852.655 746.955C852.094 746.617 851.452 746.439 850.798 746.439H836.276C835.598 729.936 829.967 714.019 820.118 700.76C810.268 687.502 796.655 677.515 781.05 672.101C765.446 666.687 748.573 666.095 732.628 670.404C716.683 674.712 702.404 683.721 691.65 696.257L704.506 714.609C711.816 704.351 722.13 696.615 734.025 692.47C745.92 688.325 758.808 687.976 770.91 691.469C783.012 694.963 793.731 702.128 801.587 711.974C809.443 721.821 814.048 733.863 814.766 746.439H800.542C799.885 746.437 799.241 746.616 798.679 746.957C798.117 747.297 797.66 747.785 797.357 748.368C797.054 748.951 796.917 749.606 796.961 750.261C797.005 750.916 797.229 751.547 797.608 752.084L822.698 787.917C823.025 788.394 823.463 788.784 823.974 789.054C824.485 789.323 825.055 789.464 825.633 789.464C826.211 789.464 826.78 789.323 827.291 789.054C827.803 788.784 828.24 788.394 828.567 787.917L853.658 752.084C854.048 751.551 854.284 750.922 854.341 750.264C854.398 749.606 854.274 748.945 853.981 748.354Z"
      fill="#B2D235">
    </path>

    <path
      d="M754.016 810.944C738.491 810.92 723.561 804.973 712.271 794.317C700.982 783.661 694.184 769.098 693.266 753.6H707.565C708.299 753.601 709.015 753.376 709.617 752.955C710.218 752.535 710.676 751.94 710.929 751.251C711.181 750.562 711.216 749.811 711.028 749.102C710.839 748.392 710.438 747.758 709.877 747.284L685.259 712.123C684.916 711.669 684.472 711.302 683.963 711.048C683.454 710.795 682.893 710.664 682.325 710.664C681.756 710.664 681.195 710.795 680.686 711.048C680.177 711.302 679.734 711.669 679.39 712.123L654.3 747.956C653.921 748.492 653.697 749.123 653.653 749.778C653.609 750.434 653.746 751.088 654.049 751.671C654.352 752.254 654.809 752.742 655.371 753.082C655.933 753.423 656.577 753.602 657.234 753.6H671.756C672.447 770.097 678.084 786.005 687.936 799.255C697.787 812.505 711.397 822.485 726.996 827.898C742.595 833.31 759.461 833.905 775.402 829.604C791.344 825.303 805.622 816.306 816.382 803.782L803.501 785.405C797.886 793.299 790.465 799.736 781.857 804.178C773.249 808.621 763.703 810.94 754.016 810.944Z"
      fill="#B2D235">
    </path>

    <g clip-path="url(#clip0)">
      <path
        d="M1502.98 500H1002.98V1000H1502.98V500Z"
        fill="#B2D235">
      </path>

      <path
        d="M1220.02 649.169L1113.47 833.484C1097.92 860.383 1117.36 894 1148.45 894H1361.55C1392.64 894 1412.08 860.383 1396.53 833.484L1289.98 649.169C1274.43 622.277 1235.57 622.277 1220.02 649.169Z"
        fill="white">
      </path>

      <path
        d="M1174 858.099L1197.2 829H1174.55V821H1208.94V828.536L1185.44 858.066H1209V866H1174V858.099Z"
        fill="#00BCF1">
      </path>

      <path
        d="M1248.91 828.988H1225.17V838.533H1246.93V846.331H1225.17V857.921H1250V866H1216V821H1248.91V828.988Z"
        fill="#00BCF1">
      </path>

      <path
        d="M1286.14 822.187C1287.74 822.885 1289.16 823.965 1290.28 825.335C1291.21 826.469 1291.96 827.747 1292.5 829.121C1293.07 830.627 1293.34 832.23 1293.32 833.842C1293.29 836.048 1292.73 838.213 1291.69 840.146C1290.57 842.252 1288.69 843.825 1286.44 844.52C1288.25 845.161 1289.78 846.42 1290.77 848.082C1291.59 849.615 1292.05 851.959 1292.05 855.107V858.13C1292.01 859.53 1292.09 860.93 1292.3 862.314C1292.38 862.84 1292.58 863.341 1292.87 863.783C1293.17 864.225 1293.55 864.597 1294 864.873V866H1283.84C1283.55 865.006 1283.36 864.202 1283.24 863.589C1283 862.313 1282.87 861.019 1282.84 859.721L1282.79 855.538C1282.74 852.671 1282.26 850.761 1281.32 849.805C1280.38 848.844 1278.63 848.372 1276.06 848.372H1267.03V866H1258V821.003H1279.19C1281.55 820.963 1283.91 821.365 1286.14 822.187ZM1267.03 828.814V840.9H1276.98C1278.5 840.982 1280.01 840.73 1281.43 840.163C1283.17 839.335 1284.05 837.628 1284.05 835.102C1284.05 832.373 1283.2 830.543 1281.51 829.609C1280.17 828.987 1278.71 828.703 1277.24 828.781L1267.03 828.814Z"
        fill="#00BCF1">
      </path>

      <path
        d="M1337.22 861.821C1333.83 865.274 1328.93 867 1322.52 867C1316.1 867 1311.2 865.274 1307.82 861.821C1303.27 857.584 1301 851.478 1301 843.504C1301 835.367 1303.27 829.258 1307.82 825.179C1311.2 821.726 1316.1 820 1322.52 820C1328.93 820 1333.83 821.726 1337.22 825.179C1341.74 829.264 1344.01 835.372 1344 843.504C1344 851.472 1341.74 857.578 1337.22 861.821ZM1331.36 855.072C1333.56 852.345 1334.66 848.489 1334.66 843.504C1334.66 838.519 1333.56 834.666 1331.36 831.944C1330.32 830.617 1328.97 829.553 1327.44 828.842C1325.9 828.131 1324.21 827.792 1322.52 827.854C1320.81 827.793 1319.11 828.134 1317.56 828.848C1316.01 829.562 1314.65 830.628 1313.6 831.961C1311.4 834.688 1310.3 838.546 1310.3 843.537C1310.3 848.527 1311.4 852.383 1313.6 855.105C1314.65 856.43 1316.01 857.49 1317.55 858.201C1319.09 858.912 1320.78 859.252 1322.48 859.195C1324.19 859.254 1325.88 858.911 1327.42 858.194C1328.97 857.477 1330.32 856.407 1331.36 855.072Z"
        fill="#00BCF1">
      </path>

      <path
        d="M1283 725.352C1283 745.002 1270.47 761 1255 761C1239.53 761 1227 745.043 1227 725.352C1227 705.661 1255 674 1255 674C1255 674 1283 705.669 1283 725.352Z"
        stroke="#B2D235"
        stroke-width="8"
        stroke-miterlimit="10">
      </path>

      <path
        d="M1255 703V792"
        stroke="#B2D235"
        stroke-width="8">
      </path>

      <path
        d="M1255 741L1242 728"
        stroke="#B2D235"
        stroke-width="8">
      </path>
    </g>

    <rect
      width="1500"
      height="500"
      transform="translate(4 1000)"
      fill="white">
    </rect>

    <path
      d="M504 1000H4V1500H504V1000Z"
      fill="#B2D235">
    </path>

    <path
      d="M344.26 1139.85H153.22C145.88 1139.85 139.93 1145.8 139.93 1153.14V1389.7C139.93 1397.04 145.88 1402.99 153.22 1402.99H344.26C351.6 1402.99 357.55 1397.04 357.55 1389.7V1153.14C357.55 1145.8 351.6 1139.85 344.26 1139.85Z"
      fill="#007DB9">
    </path>

    <path
      d="M181.73 1176.69V1303.02V1310.7V1328.1L198.48 1315.41L215.23 1328.1L231.98 1315.41L248.73 1328.1L265.48 1315.41L282.24 1328.1L298.99 1315.41L315.75 1328.1V1310.7V1303.02V1176.69H181.73Z"
      fill="white">
    </path>

    <path
      d="M285.17 1217.81L243.51 1262.42L221.31 1241.69"
      stroke="#B2D235"
      stroke-width="8"
      stroke-miterlimit="10">
    </path>

    <path
      d="M338 1185.69H159.53C159.53 1185.69 162.81 1161.27 216.7 1161.27V1141.75C216.701 1139.63 217.276 1137.56 218.362 1135.74C219.448 1133.92 221.006 1132.43 222.87 1131.43C226.175 1129.7 229.224 1127.52 231.93 1124.95C237.47 1119.41 232.53 1107.44 247.4 1106.17V1106.06C247.86 1106.06 248.3 1106.06 248.74 1106.06C249.18 1106.06 249.62 1106.06 250.09 1106.06V1106.17C265 1107.44 260 1119.41 265.55 1125C268.257 1127.57 271.31 1129.75 274.62 1131.48C276.481 1132.49 278.036 1133.98 279.121 1135.79C280.205 1137.61 280.778 1139.68 280.78 1141.8V1161.32C334.67 1161.27 338 1185.69 338 1185.69Z"
      fill="#00BCF1">
    </path>

    <g clip-path="url(#clip1)">
      <path
        d="M1004 992.63H504V1500H1004V992.63Z"
        fill="#00BCF1">
      </path>

      <path
        d="M889.41 1134.31H626.76V1265.64H889.41V1134.31Z"
        fill="#007DB9">
      </path>

      <path
        d="M719.17 1134.31H626.76V1136.46C640.33 1143.09 650.27 1164.46 650.27 1189.84C650.27 1215.22 640.33 1236.59 626.76 1243.23V1382.37H758.08V1258.37L719.17 1134.31Z"
        fill="#B2D235">
      </path>

      <path
        d="M797 1134.31H889.41V1136.46C875.84 1143.09 865.9 1164.46 865.9 1189.84C865.9 1215.22 875.84 1236.59 889.41 1243.23V1382.37H758.08V1258.37L797 1134.31Z"
        fill="#B2D235">
      </path>

      <path
        d="M697.29 1134.31H665.67V1306.17H697.29V1134.31Z"
        fill="white">
      </path>

      <path
        d="M844.83 1134.31H813.21V1306.17H844.83V1134.31Z"
        fill="white">
      </path>

      <path
        d="M889.41 1336.98V1305.36H626.76V1336.98H889.41Z"
        fill="white">
      </path>

      <path
        d="M650.27 1189.84H717.55"
        stroke="#B2D235"
        stroke-width="6.49"
        stroke-miterlimit="10">
      </path>

      <path
        d="M795.37 1189.84H862.66"
        stroke="#B2D235"
        stroke-width="6.49"
        stroke-miterlimit="10">
      </path>

      <path
        d="M820.91 1257.94H781.19V1318.74H820.91V1257.94Z"
        fill="#EC1C24">
      </path>

      <path
        d="M810.78 1266.45H791.32V1285.91H810.78V1266.45Z"
        fill="white">
      </path>
    </g>

    <path
      d="M1504 1000H1004V1500H1504V1000Z"
      fill="#007DB9">
    </path>

    <path
      d="M1324.07 1376.6C1324.07 1388.09 1292.7 1401.91 1254 1401.91C1215.3 1401.91 1183.93 1388.09 1183.93 1376.6L1169.82 1192.72H1338.18L1324.07 1376.6Z"
      fill="#00BCF1">
    </path>

    <path
      d="M1254 1217.73C1300.49 1217.73 1338.18 1206.53 1338.18 1192.72C1338.18 1178.91 1300.49 1167.71 1254 1167.71C1207.51 1167.71 1169.82 1178.91 1169.82 1192.72C1169.82 1206.53 1207.51 1217.73 1254 1217.73Z"
      fill="#007DB9">
    </path>

    <path
      d="M1254 1256.34V1368.73"
      stroke="#007DB9"
      stroke-width="6.23"
      stroke-miterlimit="10"
      stroke-linecap="round">
    </path>

    <path
      d="M1211.71 1247.4L1216.84 1364.17"
      stroke="#007DB9"
      stroke-width="6.23"
      stroke-miterlimit="10"
      stroke-linecap="round">
    </path>

    <path
      d="M1297.92 1247.4L1292.8 1364.17"
      stroke="#007DB9"
      stroke-width="6.23"
      stroke-miterlimit="10"
      stroke-linecap="round">
    </path>

    <path
      d="M1254 1217.73C1276.81 1217.73 1297.49 1215.03 1312.65 1210.65L1309.38 1204.75L1305 1198.9L1300.81 1191.16L1292.65 1192.78L1287.39 1185.4L1279.92 1185.59L1272.51 1187.06L1265.41 1188.11L1258.48 1191.36L1251.67 1190.11L1244.55 1187.85L1237.85 1189.94L1230.7 1189.81L1222.12 1186.15L1215.02 1188.44L1212.73 1200.44L1203.28 1197.93L1196.63 1201.25L1192.69 1209.89C1208.07 1214.7 1229.84 1217.73 1254 1217.73Z"
      fill="#B2D235">
    </path>

    <path
      d="M1305 1155.49C1305 1149.76 1310.6 1149.76 1310.6 1144.02C1310.6 1138.28 1305 1138.28 1305 1132.54C1305 1126.8 1310.6 1126.8 1310.6 1121.06C1310.6 1115.32 1305 1115.31 1305 1109.57C1305 1103.83 1310.6 1103.83 1310.6 1098.09"
      stroke="white"
      stroke-width="4.37"
      stroke-miterlimit="10"
      stroke-linecap="round">
    </path>

    <path
      d="M1269.19 1155.49C1269.19 1149.76 1274.8 1149.76 1274.8 1144.02C1274.8 1138.28 1269.19 1138.28 1269.19 1132.54C1269.19 1126.8 1274.8 1126.8 1274.8 1121.06C1274.8 1115.32 1269.19 1115.31 1269.19 1109.57C1269.19 1103.83 1274.8 1103.83 1274.8 1098.09"
      stroke="white"
      stroke-width="4.37"
      stroke-miterlimit="10"
      stroke-linecap="round">
    </path>

    <path
      d="M1233.42 1155.49C1233.42 1149.76 1239.03 1149.76 1239.03 1144.02C1239.03 1138.28 1233.42 1138.28 1233.42 1132.54C1233.42 1126.8 1239 1126.8 1239 1121.06C1239 1115.32 1233.39 1115.31 1233.39 1109.57C1233.39 1103.83 1239 1103.83 1239 1098.09"
      stroke="white"
      stroke-width="4.37"
      stroke-miterlimit="10"
      stroke-linecap="round">
    </path>

    <path
      d="M1197.66 1155.49C1197.66 1149.76 1203.26 1149.76 1203.26 1144.02C1203.26 1138.28 1197.66 1138.28 1197.66 1132.54C1197.66 1126.8 1203.26 1126.8 1203.26 1121.06C1203.26 1115.32 1197.66 1115.31 1197.66 1109.57C1197.66 1103.83 1203.26 1103.83 1203.26 1098.09"
      stroke="white"
      stroke-width="4.37"
      stroke-miterlimit="10"
      stroke-linecap="round">
    </path>

    <path
      d="M1254 1173.71C1275.92 1173.71 1296.46 1176.22 1311.82 1180.78C1328.52 1185.78 1332.18 1191.08 1332.18 1192.72C1332.18 1194.36 1328.52 1199.72 1311.82 1204.65C1296.46 1209.22 1275.92 1211.73 1254 1211.73C1232.08 1211.73 1211.54 1209.22 1196.18 1204.65C1179.48 1199.65 1175.82 1194.36 1175.82 1192.72C1175.82 1191.08 1179.48 1185.72 1196.18 1180.78C1211.54 1176.22 1232.08 1173.71 1254 1173.71ZM1254 1167.71C1207.51 1167.71 1169.82 1178.91 1169.82 1192.71C1169.82 1206.51 1207.51 1217.71 1254 1217.71C1300.49 1217.71 1338.18 1206.51 1338.18 1192.71C1338.18 1178.91 1300.49 1167.71 1254 1167.71Z"
      fill="#00BCF1">
    </path>
  </g>

  <defs>
    <filter
      id="filter0_d"
      x="0"
      y="0"
      width="1508"
      height="1508"
      filterUnits="userSpaceOnUse"
      color-interpolation-filters="sRGB">
      <feFlood
        flood-opacity="0"
        result="BackgroundImageFix">
      </feFlood>

      <feColorMatrix
        in="SourceAlpha"
        type="matrix"
        values="0 0 0 0 0 0 0 0 0 0 0 0 0 0 0 0 0 0 127 0">
      </feColorMatrix>

      <feOffset dy="4"></feOffset>

      <feGaussianBlur stdDeviation="2"></feGaussianBlur>

      <feColorMatrix
        type="matrix"
        values="0 0 0 0 0 0 0 0 0 0 0 0 0 0 0 0 0 0 0.25 0">
      </feColorMatrix>

      <feBlend
        mode="normal"
        in2="BackgroundImageFix"
        result="effect1_dropShadow">
      </feBlend>

      <feBlend
        mode="normal"
        in="SourceGraphic"
        in2="effect1_dropShadow"
        result="shape">
      </feBlend>
    </filter>

    <clipPath id="clip0">
      <rect
        width="500"
        height="500"
        fill="white"
        transform="translate(1004 500)">
      </rect>
    </clipPath>

    <clipPath id="clip1">
      <rect
        width="500"
        height="500"
        fill="white"
        transform="translate(504 1000)">
      </rect>
    </clipPath>
  </defs>
</svg>
