<svg width="676" height="330" viewBox="0 0 676 330" fill="none" xmlns="http://www.w3.org/2000/svg">
<g clip-path="url(#clip0)">
<path d="M675.54 0H0V213.8H675.54V0Z" fill="#00BCF1"/>
<path opacity="0.27" d="M894.44 43.54C894.444 36.9051 893.066 30.342 890.393 24.269C887.721 18.1959 883.814 12.7459 878.919 8.26626C874.025 3.78657 868.251 0.375343 861.966 -1.75012C855.681 -3.87559 849.021 -4.6687 842.413 -4.07893C835.804 -3.48917 829.391 -1.52946 823.581 1.67536C817.771 4.88018 812.693 9.25985 808.669 14.5354C804.645 19.811 801.764 25.8667 800.21 32.317C798.655 38.7673 798.461 45.4706 799.64 52C792.63 53.2268 785.985 56.0157 780.2 60.16C771.528 61.5355 763.401 65.2712 756.711 70.9579C750.021 76.6446 745.025 84.0628 742.27 92.4C738.944 91.6839 735.552 91.3219 732.15 91.32C730.94 91.32 729.74 91.38 728.55 91.47C719.389 86.1819 708.73 84.0883 698.249 85.5183C687.768 86.9483 678.06 91.8209 670.65 99.37C665.686 94.3141 659.656 90.4297 653 88C648.547 83.3202 643.188 79.5949 637.251 77.0506C631.313 74.5063 624.92 73.1963 618.46 73.2C618.461 64.8124 616.254 56.5723 612.061 49.3082C607.867 42.0442 601.835 36.0123 594.571 31.8192C587.307 27.626 579.067 25.4195 570.679 25.4214C562.291 25.4233 554.052 27.6336 546.79 31.83C539.629 27.6912 531.516 25.483 523.245 25.4217C514.974 25.3603 506.829 27.4479 499.608 31.4801C492.386 35.5123 486.335 41.3508 482.048 48.4239C477.761 55.497 475.384 63.5623 475.15 71.83C468.245 74.6517 462.096 79.0513 457.197 84.6764C452.298 90.3015 448.784 96.9958 446.937 104.223C445.09 111.45 444.962 119.01 446.561 126.295C448.161 133.581 451.445 140.391 456.15 146.18C450.37 153.281 446.762 161.899 445.76 171C437.377 174.948 430.316 181.238 425.43 189.11C417.423 190.126 409.805 193.153 403.284 197.909C396.764 202.665 391.555 208.995 388.143 216.309C384.73 223.623 383.226 231.682 383.771 239.734C384.315 247.786 386.891 255.569 391.257 262.357C395.622 269.145 401.636 274.716 408.738 278.551C415.839 282.386 423.796 284.36 431.866 284.288C439.936 284.217 447.857 282.102 454.889 278.142C461.921 274.181 467.835 268.504 472.08 261.64C476.042 261.136 479.923 260.128 483.63 258.64V271.64H874.63V116H852.63C855.718 107.9 856.537 99.1112 855 90.58C866.052 88.6208 876.062 82.833 883.273 74.2316C890.485 65.6303 894.438 54.7646 894.44 43.54Z" fill="white"/>
<path d="M675.54 213.8H0V329.59H675.54V213.8Z" fill="#B2D235"/>
<path d="M675.54 186.78C675.54 186.78 614.54 214.73 503.54 214.73C392.54 214.73 316.38 193.15 177.1 210.55C37.82 227.95 0 217.48 0 217.48V280.79H675.54V186.78Z" fill="#B2D235"/>
<path d="M243.82 44.2698V141.07C243.82 146.027 245.789 150.781 249.294 154.286C252.799 157.791 257.553 159.76 262.51 159.76H312.67V106C312.67 89.627 306.166 73.9247 294.59 62.3465C283.014 50.7683 267.313 44.2624 250.94 44.2598L243.82 44.2698Z" fill="#007DB9"/>
<path d="M383.68 159.76C383.68 159.76 340.9 213.76 288.13 213.76C235.36 213.76 192.58 159.76 192.58 159.76" fill="white"/>
<path d="M325.37 159.76H141.83V164.79H325.37V159.76Z" fill="black"/>
<path d="M338.9 159.76V164.79H378.62L383.68 159.76H338.9Z" fill="#EC1C24"/>
<path d="M383.68 159.76L378.62 164.79L370.87 172.51L413.39 165.99L383.68 159.76Z" fill="#007DB9"/>
<path d="M312.67 159.76C312.67 159.76 328.57 140 348.18 140C367.79 140 383.68 159.74 383.68 159.74" fill="#007DB9"/>
<path d="M325.37 159.76C325.37 159.76 338.42 147.33 354.52 147.33C370.62 147.33 383.68 159.76 383.68 159.76" fill="white"/>
<path d="M361.45 166.91C364.007 166.91 366.08 164.837 366.08 162.28C366.08 159.723 364.007 157.65 361.45 157.65C358.893 157.65 356.82 159.723 356.82 162.28C356.82 164.837 358.893 166.91 361.45 166.91Z" fill="black"/>
<path opacity="0.74" d="M948.35 141.06L958.09 139.62L935.35 -14.3801L913.54 -11.1601C914.793 -16.835 915 -22.6909 914.15 -28.4401C913.732 -31.2444 913.063 -34.0055 912.15 -36.6901C922.8 -40.2418 931.859 -47.4295 937.74 -56.9925C943.62 -66.5555 945.946 -77.8835 944.31 -88.9901C943.394 -95.1978 941.264 -101.164 938.041 -106.549C934.819 -111.933 930.568 -116.63 925.53 -120.371C920.492 -124.113 914.767 -126.825 908.681 -128.354C902.595 -129.882 896.268 -130.197 890.06 -129.28C883.85 -128.363 877.882 -126.231 872.497 -123.006C867.111 -119.781 862.414 -115.527 858.673 -110.486C854.933 -105.445 852.222 -99.7168 850.696 -93.6279C849.17 -87.5391 848.859 -81.2092 849.78 -75.0001C850.201 -72.1961 850.87 -69.4352 851.78 -66.7501C845.039 -64.5017 838.888 -60.7701 833.78 -55.8301C825.4 -53.2055 817.904 -48.323 812.116 -41.7184C806.329 -35.1138 802.472 -27.0424 800.97 -18.3901C797.575 -18.6164 794.166 -18.479 790.8 -17.9801C789.6 -17.8001 788.42 -17.5701 787.26 -17.3101C777.413 -21.2078 766.55 -21.7207 756.379 -18.7681C746.209 -15.8155 737.309 -9.5649 731.08 -1.00006C725.442 -5.27543 718.925 -8.2468 712 -9.70006C706.912 -13.6753 701.068 -16.5737 694.824 -18.2189C688.58 -19.8641 682.067 -20.2217 675.68 -19.2701C674.765 -25.4783 672.636 -31.4455 669.414 -36.8306C666.192 -42.2157 661.941 -46.9132 656.903 -50.6548C651.865 -54.3963 646.139 -57.1086 640.052 -58.6366C633.966 -60.1646 627.638 -60.4784 621.43 -59.5601C613.132 -58.3431 605.303 -54.9516 598.74 -49.7301C590.945 -52.8313 582.468 -53.8146 574.17 -52.5801C561.865 -50.7733 550.749 -44.2395 543.185 -34.3671C535.62 -24.4947 532.203 -12.0617 533.66 0.289948C527.243 4.09192 521.805 9.34352 517.781 15.6243C513.758 21.9051 511.261 29.0407 510.49 36.4597C509.719 43.8788 510.696 51.3752 513.343 58.349C515.989 65.3227 520.231 71.58 525.73 76.6199C521.043 84.497 518.73 93.5601 519.07 102.72C511.357 107.849 505.294 115.101 501.61 123.6C491.949 126.302 483.387 131.981 477.14 139.83H948.35V141.06Z" fill="white"/>
<path opacity="0.74" d="M200 159.22C199.66 159.01 199.33 158.8 199 158.6C197.95 158 196.88 157.45 195.81 156.94C190.495 147.791 182.293 140.666 172.49 136.684C162.687 132.702 151.839 132.088 141.65 134.94C139.851 128.093 136.555 121.73 132 116.31C130.466 110.039 127.672 104.146 123.788 98.9883C119.905 93.8309 115.013 89.5174 109.41 86.3102C113.587 79.0333 115.773 70.7847 115.749 62.3944C115.726 54.004 113.492 45.7679 109.274 38.5149C105.056 31.2618 99.0022 25.2477 91.7215 21.0776C84.4408 16.9075 76.1902 14.7287 67.7998 14.7602C63.6473 7.61693 57.7129 1.67284 50.5765 -2.4914C43.44 -6.65564 35.3454 -8.89764 27.0835 -8.9984C18.8215 -9.09916 10.6747 -7.05522 3.43875 -3.06625C-3.79715 0.922718 -9.87469 6.72032 -14.2002 13.7602C-23.6116 12.5031 -33.1843 14.0773 -41.6975 18.2823C-50.2106 22.4872 -57.2786 29.1323 -62.0002 37.3702C-67.4732 46.8851 -69.4904 57.9989 -67.7102 68.8302C-76.269 72.1112 -83.697 77.796 -89.1002 85.2002C-98.3339 84.4481 -107.588 86.3899 -115.74 90.7902C-126.475 86.3226 -138.47 85.9225 -149.478 89.665C-160.487 93.4075 -169.753 101.036 -175.54 111.12C-181.847 122.111 -183.529 135.157 -180.217 147.388C-176.905 159.619 -168.87 170.033 -157.88 176.34C-150.82 180.394 -142.841 182.575 -134.701 182.676C-126.56 182.778 -118.529 180.796 -111.37 176.92C-107.691 178.464 -103.83 179.533 -99.8802 180.1L-106.34 191.35L-39.6202 229.62V159.22H200Z" fill="white"/>
<path d="M213.97 285H737.78" stroke="#007DB9" stroke-miterlimit="10"/>
<path d="M195.61 294.47H690.81" stroke="#007DB9" stroke-miterlimit="10"/>
<path d="M183.04 303.94H659.65" stroke="#007DB9" stroke-miterlimit="10"/>
<path d="M0 344.86H89L243.44 345.09C247.418 345.09 251.234 343.509 254.047 340.696C256.86 337.883 258.44 334.068 258.44 330.09V285.14C258.432 282.057 259.186 279.02 260.634 276.299C262.081 273.577 264.179 271.256 266.74 269.54C268.25 268.514 269.905 267.718 271.65 267.18C273.462 266.613 275.351 266.326 277.25 266.33H629.93C633.908 266.33 637.724 264.75 640.537 261.936C643.35 259.123 644.93 255.308 644.93 251.33V208.84C644.93 204.862 643.35 201.046 640.537 198.233C637.724 195.42 633.908 193.84 629.93 193.84C625.952 193.84 622.136 195.42 619.323 198.233C616.51 201.046 614.93 204.862 614.93 208.84V236.33H277.26C270.849 236.326 264.5 237.586 258.577 240.037C252.653 242.489 247.271 246.084 242.737 250.617C238.204 255.15 234.609 260.533 232.157 266.456C229.706 272.38 228.446 278.729 228.45 285.14V315.09L0 314.86" fill="#B2D235"/>
<path d="M0 344.86H89L243.44 345.09C247.418 345.09 251.234 343.509 254.047 340.696C256.86 337.883 258.44 334.068 258.44 330.09V285.14C258.432 282.057 259.186 279.02 260.634 276.299C262.081 273.577 264.179 271.256 266.74 269.54C268.25 268.514 269.905 267.718 271.65 267.18C273.462 266.613 275.351 266.326 277.25 266.33H629.93C633.908 266.33 637.724 264.75 640.537 261.936C643.35 259.123 644.93 255.308 644.93 251.33V208.84C644.93 204.862 643.35 201.046 640.537 198.233C637.724 195.42 633.908 193.84 629.93 193.84C625.952 193.84 622.136 195.42 619.323 198.233C616.51 201.046 614.93 204.862 614.93 208.84V236.33H277.26C270.849 236.326 264.5 237.586 258.577 240.037C252.653 242.489 247.271 246.084 242.737 250.617C238.204 255.15 234.609 260.533 232.157 266.456C229.706 272.38 228.446 278.729 228.45 285.14V315.09L0 314.86" stroke="white" stroke-width="3" stroke-miterlimit="10"/>
<path d="M285.49 266.33V285" stroke="white" stroke-width="10" stroke-miterlimit="10"/>
<path d="M595.87 265.68V285" stroke="white" stroke-width="10" stroke-miterlimit="10"/>
<path d="M370.05 236.15V265.68" stroke="#007DB9" stroke-miterlimit="10"/>
<path d="M183.04 315.33V344.86" stroke="#007DB9" stroke-miterlimit="10"/>
<path d="M615.06 235.87C615.06 227.03 621.75 219.87 630 219.87C638.25 219.87 644.93 227.04 644.93 235.87" stroke="#007DB9" stroke-miterlimit="10"/>
<path d="M228.45 305C228.45 301.022 230.031 297.206 232.844 294.393C235.657 291.58 239.472 290 243.45 290C247.428 290 251.244 291.58 254.057 294.393C256.87 297.206 258.45 301.022 258.45 305" stroke="#007DB9" stroke-miterlimit="10"/>
<path d="M0 344.86H89L243.44 345.09C247.418 345.09 251.234 343.509 254.047 340.696C256.86 337.883 258.44 334.068 258.44 330.09V285.14C258.432 282.057 259.186 279.02 260.634 276.299C262.081 273.577 264.179 271.256 266.74 269.54C268.25 268.514 269.905 267.718 271.65 267.18C273.462 266.613 275.351 266.326 277.25 266.33H629.93C633.908 266.33 637.724 264.75 640.537 261.936C643.35 259.123 644.93 255.308 644.93 251.33V208.84C644.93 204.862 643.35 201.046 640.537 198.233C637.724 195.42 633.908 193.84 629.93 193.84C625.952 193.84 622.136 195.42 619.323 198.233C616.51 201.046 614.93 204.862 614.93 208.84V236.33H277.26C270.849 236.326 264.5 237.586 258.577 240.037C252.653 242.489 247.271 246.084 242.737 250.617C238.204 255.15 234.609 260.533 232.157 266.456C229.706 272.38 228.446 278.729 228.45 285.14V315.09L0 314.86" stroke="white" stroke-width="3" stroke-miterlimit="10"/>
</g>
<defs>
<clipPath id="clip0">
<rect width="675.54" height="329.59" fill="white"/>
</clipPath>
</defs>
</svg>
