<svg width="500" height="500" viewBox="0 0 500 500" fill="none" xmlns="http://www.w3.org/2000/svg">
<path d="M500 0H0V500H500V0Z" fill="#007DB9"/>
<path d="M301.09 153.49C310.37 147.49 314.7 154.25 323.97 148.28C333.24 142.31 328.92 135.59 338.2 129.62C347.48 123.65 351.8 130.37 361.08 124.4C370.36 118.43 366.03 111.7 375.31 105.73C384.59 99.76 388.92 106.49 398.2 100.52" stroke="white" stroke-width="4" stroke-miterlimit="10"/>
<path d="M330.33 167C339.6 161 343.93 167.76 353.21 161.79C362.49 155.82 358.21 149.09 367.43 143.12C376.65 137.15 381.04 143.88 390.32 137.91C399.6 131.94 395.27 125.21 404.55 119.24C413.83 113.27 418.16 120 427.44 114.03" stroke="white" stroke-width="4" stroke-miterlimit="10"/>
<path d="M343.19 196.25C352.47 190.25 356.8 197.01 366.07 191.04C375.34 185.07 371.02 178.34 380.3 172.37C389.58 166.4 393.91 173.13 403.18 167.16C412.45 161.19 408.13 154.46 417.41 148.49C426.69 142.52 431.02 149.24 440.3 143.27" stroke="white" stroke-width="4" stroke-miterlimit="10"/>
<path d="M362.08 222.65L238.87 293.78V240.89L362.08 169.76V222.65Z" fill="white" stroke="white" stroke-miterlimit="10"/>
<path d="M362.08 169.76L290.84 139L180.32 202.82C178.23 203.82 176.11 204.87 173.97 206.1C171.83 207.33 169.72 208.69 167.63 210.1C136.63 231.66 112.47 275.84 112.47 312.59C112.47 333.24 120.11 347.42 132.3 353.36H132.37C133.496 353.899 134.655 354.366 135.84 354.76L205.55 385L232.16 266.5C234.293 258.363 235.408 249.992 235.48 241.58L362.08 169.76Z" fill="#00BCF1"/>
<path d="M288.715 332.978C312.734 291.376 312.733 246.409 288.713 232.541C264.693 218.673 225.75 241.156 201.731 282.758C177.713 324.36 177.713 369.327 201.733 383.195C225.753 397.063 264.696 374.58 288.715 332.978Z" fill="white" stroke="white" stroke-miterlimit="10"/>
<path d="M279.09 287.67C278.88 287.33 278.47 287.27 278.01 287.54L273.09 290.38C272.45 273.62 260.21 266.96 245.22 275.62C236.78 280.49 229.22 289.22 224.09 299.03L228.45 303.7C232.2 295.5 238.31 288.02 245.22 284.03C256.22 277.7 265.22 282.46 265.81 294.58L261.01 297.35C260.507 297.678 260.127 298.163 259.93 298.73C259.822 298.951 259.773 299.196 259.789 299.442C259.804 299.688 259.884 299.925 260.02 300.13L268.52 309.25C268.659 309.369 268.837 309.434 269.02 309.434C269.203 309.434 269.381 309.369 269.52 309.25C269.964 308.97 270.313 308.562 270.52 308.08L279.02 289.15C279.142 288.924 279.212 288.674 279.224 288.418C279.236 288.162 279.19 287.906 279.09 287.67Z" fill="#B2D235"/>
<path d="M245.22 331.71C234.22 338.04 225.27 333.28 224.64 321.16L229.43 318.39C229.783 318.16 230.078 317.85 230.289 317.485C230.501 317.12 230.625 316.711 230.65 316.29C230.671 316.126 230.641 315.959 230.564 315.812C230.487 315.666 230.367 315.546 230.22 315.47L221.88 306.52C221.42 306.03 220.34 306.65 219.88 307.67L211.38 326.6C211.253 326.827 211.18 327.081 211.166 327.341C211.153 327.601 211.198 327.86 211.3 328.1C211.5 328.44 211.92 328.49 212.37 328.23L217.29 325.39C217.93 342.15 230.17 348.81 245.16 340.15C253.6 335.28 261.16 326.55 266.29 316.74L262 312C258.24 320.24 252.14 327.72 245.22 331.71Z" fill="#B2D235"/>
</svg>
