<svg width="500" height="500" viewBox="0 0 500 500" fill="none" xmlns="http://www.w3.org/2000/svg">
<path d="M500 0H0V500H500V0Z" fill="#FF1D25"/>
<path d="M322.34 349.14C322.34 367.45 286.06 382.29 241.34 382.29C196.62 382.29 160.34 367.45 160.34 349.14V128.68H322.34V349.14Z" fill="#00BCF1" stroke="#00BCF1" stroke-width="7.84" stroke-miterlimit="10" stroke-linecap="round"/>
<path d="M241.3 161.83C286.057 161.83 322.34 146.988 322.34 128.68C322.34 110.372 286.057 95.5298 241.3 95.5298C196.543 95.5298 160.26 110.372 160.26 128.68C160.26 146.988 196.543 161.83 241.3 161.83Z" fill="#00BCF1" stroke="#00BCF1" stroke-width="6" stroke-miterlimit="10"/>
<path d="M240.21 171.5C217.95 171.79 200.21 190.35 200.21 212.62V226.41H281.21V212C281.208 206.64 280.142 201.333 278.075 196.388C276.007 191.443 272.979 186.957 269.166 183.19C265.352 179.423 260.829 176.45 255.859 174.444C250.889 172.437 245.57 171.436 240.21 171.5Z" fill="white"/>
<path d="M240.75 182.09V190.62C246.666 190.628 252.338 192.982 256.52 197.167C260.703 201.351 263.055 207.024 263.06 212.94H271.6C271.6 204.758 268.35 196.911 262.564 191.126C256.779 185.34 248.932 182.09 240.75 182.09Z" fill="#EC1C24"/>
<path d="M237.16 208.14C236.219 209.081 235.69 210.358 235.69 211.69C235.69 213.021 236.219 214.298 237.16 215.24C238.102 216.181 239.379 216.71 240.71 216.71C242.042 216.71 243.319 216.181 244.26 215.24L265.08 187.32L237.16 208.14Z" fill="#FF1D25" stroke="#FF1D25" stroke-width="2.63" stroke-linecap="round" stroke-linejoin="round"/>
<path d="M209.54 212.62H219.48" stroke="#EC1C24" stroke-width="4" stroke-linecap="round" stroke-linejoin="round"/>
<path d="M240.15 180.8V190.74" stroke="#EC1C24" stroke-width="4" stroke-linecap="round" stroke-linejoin="round"/>
<path d="M218.25 190.37L225.28 197.4" stroke="#EC1C24" stroke-width="4" stroke-linecap="round" stroke-linejoin="round"/>
<path d="M160.26 326.31V385.14" stroke="#00BCF1" stroke-width="7.84" stroke-miterlimit="10" stroke-linecap="round"/>
<path d="M322.34 326.31V385.14" stroke="#00BCF1" stroke-width="7.84" stroke-miterlimit="10" stroke-linecap="round"/>
<path d="M238.24 382.13V402.71" stroke="#00BCF1" stroke-width="7.84" stroke-miterlimit="10" stroke-linecap="round"/>
<path d="M281.26 307.105C281.26 284.729 263.121 266.59 240.745 266.59C218.369 266.59 200.23 284.729 200.23 307.105C200.23 329.481 218.369 347.62 240.745 347.62C263.121 347.62 281.26 329.481 281.26 307.105Z" fill="#007DB9"/>
<path d="M256.79 311.21C256.79 324.21 249.34 329.57 240.15 329.57C230.96 329.57 223.5 324.25 223.5 311.21C223.5 298.17 240.15 283.66 240.15 283.66C240.15 283.66 256.79 298.17 256.79 311.21Z" fill="#00BCF1"/>
<path d="M247.42 323.82C247.42 329.52 244.17 331.82 240.15 331.82C236.13 331.82 232.87 329.5 232.87 323.82C232.87 318.14 240.15 311.82 240.15 311.82C240.15 311.82 247.42 318.12 247.42 323.82Z" fill="white"/>
</svg>
