<svg width="503" height="502" viewBox="0 0 503 502" fill="none" xmlns="http://www.w3.org/2000/svg">
<g clip-path="url(#clip0)">
<path d="M502.06 0.118774H0.369995V501.809H502.06V0.118774Z" fill="#00BCF1"/>
<path d="M133.15 262.289L264.33 182.609L396.74 262.499L265.13 338.479L133.15 262.289Z" fill="white"/>
<path d="M162.77 178.779L265.13 126.379L367.12 178.979L265.1 237.879L162.77 178.779Z" fill="white"/>
<path d="M264.79 316.139L162.77 257.239V178.779L264.79 237.679V316.139Z" fill="#007DB9"/>
<path d="M264.16 216.589L188.11 172.679V114.189L264.16 158.099V216.589Z" fill="#007DB9"/>
<path d="M185.42 217.539L172.58 210.119V193.009L185.42 200.419V217.539Z" fill="#00BCF1"/>
<path d="M202.72 227.529L189.88 220.109V202.989L202.72 210.409V227.529Z" fill="#00BCF1"/>
<path d="M220.02 237.509L207.18 230.099V212.979L220.02 220.389V237.509Z" fill="#00BCF1"/>
<path d="M237.32 247.499L224.48 240.089V222.969L237.32 230.379V247.499Z" fill="#00BCF1"/>
<path d="M254.62 257.489L241.78 250.069V232.949L254.62 240.369V257.489Z" fill="white"/>
<path d="M185.42 240.359L172.58 232.949V215.829L185.42 223.249V240.359Z" fill="#00BCF1"/>
<path d="M202.72 250.349L189.88 242.939V225.819L202.72 233.229V250.349Z" fill="#00BCF1"/>
<path d="M220.02 260.339L207.18 252.929V235.809L220.02 243.219V260.339Z" fill="#00BCF1"/>
<path d="M237.32 270.319L224.48 262.909V245.789L237.32 253.209V270.319Z" fill="#00BCF1"/>
<path d="M254.62 280.309L241.78 272.899V255.779L254.62 263.189V280.309Z" fill="#00BCF1"/>
<path d="M206.34 150.399L193.5 142.989V125.869L206.34 133.279V150.399Z" fill="white"/>
<path d="M223.64 160.379L210.8 152.969V135.849L223.64 143.269V160.379Z" fill="#00BCF1"/>
<path d="M240.93 170.369L228.09 162.959V145.839L240.93 153.249V170.369Z" fill="#00BCF1"/>
<path d="M258.23 180.359L245.39 172.949V155.829L258.23 163.239V180.359Z" fill="#00BCF1"/>
<path d="M206.34 173.219L193.5 165.809V148.689L206.34 156.109V173.219Z" fill="#00BCF1"/>
<path d="M223.64 183.209L210.8 175.799V158.679L223.64 166.089V183.209Z" fill="#00BCF1"/>
<path d="M240.93 193.199L228.09 185.779V168.659L240.93 176.079V193.199Z" fill="white"/>
<path d="M258.23 203.179L245.39 195.769V178.649L258.23 186.059V203.179Z" fill="#00BCF1"/>
<path d="M264.75 706.349L133.15 630.359V262.289L264.75 338.279V706.349Z" fill="#007DB9"/>
<path d="M152.41 304.799L139.57 297.379V280.269L152.41 287.679V304.799Z" fill="#00BCF1"/>
<path d="M169.71 314.789L156.87 307.369V290.249L169.71 297.669V314.789Z" fill="#00BCF1"/>
<path d="M187 324.769L174.16 317.359V300.239L187 307.649V324.769Z" fill="#00BCF1"/>
<path d="M204.3 334.759L191.46 327.349V310.229L204.3 317.639V334.759Z" fill="#00BCF1"/>
<path d="M221.6 344.749L208.76 337.329V320.209L221.6 327.629V344.749Z" fill="white"/>
<path d="M238.9 354.729L226.06 347.319V330.199L238.9 337.609V354.729Z" fill="#00BCF1"/>
<path d="M256.2 364.719L243.36 357.309V340.189L256.2 347.599V364.719Z" fill="#00BCF1"/>
<path d="M152.41 327.619L139.57 320.209V303.089L152.41 310.499V327.619Z" fill="#00BCF1"/>
<path d="M169.71 337.609L156.87 330.199V313.079L169.71 320.489V337.609Z" fill="#00BCF1"/>
<path d="M187 347.599L174.16 340.179V323.069L187 330.479V347.599Z" fill="#00BCF1"/>
<path d="M204.3 357.579L191.46 350.169V333.049L204.3 340.469V357.579Z" fill="#00BCF1"/>
<path d="M221.6 367.569L208.76 360.159V343.039L221.6 350.449V367.569Z" fill="#00BCF1"/>
<path d="M238.9 377.559L226.06 370.149V353.029L238.9 360.439V377.559Z" fill="#00BCF1"/>
<path d="M256.2 387.549L243.36 380.129V363.009L256.2 370.429V387.549Z" fill="#00BCF1"/>
<path d="M152.41 350.449L139.57 343.039V325.919L152.41 333.329V350.449Z" fill="#00BCF1"/>
<path d="M169.71 360.439L156.87 353.019V335.909L169.71 343.319V360.439Z" fill="#00BCF1"/>
<path d="M187 370.419L174.16 363.009V345.889L187 353.309V370.419Z" fill="#00BCF1"/>
<path d="M204.3 380.409L191.46 372.999V355.879L204.3 363.289V380.409Z" fill="#00BCF1"/>
<path d="M221.6 390.399L208.76 382.989V365.869L221.6 373.279V390.399Z" fill="#00BCF1"/>
<path d="M238.9 400.379L226.06 392.969V375.849L238.9 383.269V400.379Z" fill="#00BCF1"/>
<path d="M256.2 410.369L243.36 402.959V385.839L256.2 393.249V410.369Z" fill="#00BCF1"/>
<path d="M152.41 394.679L139.57 387.259V370.139L152.41 377.559V394.679Z" fill="#00BCF1"/>
<path d="M169.71 404.659L156.87 397.249V380.129L169.71 387.539V404.659Z" fill="#00BCF1"/>
<path d="M187 414.649L174.16 407.239V390.119L187 397.529V414.649Z" fill="#00BCF1"/>
<path d="M204.3 424.639L191.46 417.219V400.099L204.3 407.519V424.639Z" fill="#00BCF1"/>
<path d="M221.6 434.619L208.76 427.209V410.089L221.6 417.499V434.619Z" fill="#00BCF1"/>
<path d="M238.9 444.609L226.06 437.199V420.079L238.9 427.489V444.609Z" fill="#00BCF1"/>
<path d="M256.2 454.599L243.36 447.179V430.059L256.2 437.479V454.599Z" fill="#00BCF1"/>
<path d="M152.41 417.499L139.57 410.089V392.969L152.41 400.379V417.499Z" fill="#00BCF1"/>
<path d="M169.71 427.489L156.87 420.079V402.959L169.71 410.369V427.489Z" fill="#00BCF1"/>
<path d="M187 437.479L174.16 430.059V412.939L187 420.359V437.479Z" fill="#00BCF1"/>
<path d="M204.3 447.459L191.46 440.049V422.929L204.3 430.339V447.459Z" fill="#00BCF1"/>
<path d="M221.6 457.449L208.76 450.039V432.919L221.6 440.329V457.449Z" fill="#00BCF1"/>
<path d="M238.9 467.439L226.06 460.019V442.899L238.9 450.319V467.439Z" fill="#00BCF1"/>
<path d="M256.2 477.419L243.36 470.009V452.889L256.2 460.299V477.419Z" fill="#00BCF1"/>
<path d="M152.41 440.329L139.57 432.919V415.799L152.41 423.209V440.329Z" fill="#00BCF1"/>
<path d="M169.71 450.309L156.87 442.899V425.779L169.71 433.199V450.309Z" fill="#00BCF1"/>
<path d="M187 460.299L174.16 452.889V435.769L187 443.179V460.299Z" fill="#00BCF1"/>
<path d="M204.3 470.289L191.46 462.879V445.759L204.3 453.169V470.289Z" fill="#00BCF1"/>
<path d="M221.6 480.279L208.76 472.859V455.739L221.6 463.159V480.279Z" fill="#00BCF1"/>
<path d="M238.9 490.259L226.06 482.849V465.729L238.9 473.139V490.259Z" fill="#00BCF1"/>
<path d="M256.2 500.249L243.36 492.839V475.719L256.2 483.129V500.249Z" fill="white"/>
<path d="M152.41 484.549L139.57 477.139V460.019L152.41 467.429V484.549Z" fill="#00BCF1"/>
<path d="M169.71 494.539L156.87 487.129V470.009L169.71 477.419V494.539Z" fill="#00BCF1"/>
<path d="M187 504.529L174.16 497.119V479.999L187 487.409V504.529Z" fill="#00BCF1"/>
<path d="M204.3 514.509L191.46 507.099V489.979L204.3 497.389V514.509Z" fill="#00BCF1"/>
<path d="M221.6 524.499L208.76 517.089V499.969L221.6 507.379V524.499Z" fill="#00BCF1"/>
<path d="M152.41 507.379L139.57 499.969V482.849L152.41 490.259V507.379Z" fill="#00BCF1"/>
<path d="M169.71 517.369L156.87 509.949V492.829L169.71 500.249V517.369Z" fill="#00BCF1"/>
<path d="M396.74 630.569L265.13 706.549V338.479L396.74 262.499V630.569Z" fill="#B2D235"/>
<path d="M367.12 257.449L265.1 316.349V237.879L367.12 178.979V257.449Z" fill="#B2D235"/>
<path d="M340.55 172.889L264.5 216.799V158.299L340.55 114.399V172.889Z" fill="#B2D235"/>
<path d="M284.39 358.749L271.56 366.159V349.039L284.39 341.629V358.749Z" fill="#00BCF1"/>
<path d="M301.69 348.759L288.85 356.169V339.049L301.69 331.639V348.759Z" fill="#00BCF1"/>
<path d="M318.99 338.769L306.15 346.179V329.059L318.99 321.649V338.769Z" fill="#00BCF1"/>
<path d="M336.29 328.789L323.45 336.199V319.079L336.29 311.669V328.789Z" fill="#00BCF1"/>
<path d="M353.59 318.799L340.75 326.209V309.089L353.59 301.679V318.799Z" fill="#00BCF1"/>
<path d="M370.88 308.809L358.05 316.219V299.099L370.88 291.689V308.809Z" fill="#00BCF1"/>
<path d="M388.18 298.819L375.34 306.239V289.119L388.18 281.699V298.819Z" fill="#00BCF1"/>
<path d="M284.39 381.569L271.56 388.989V371.869L284.39 364.449V381.569Z" fill="#00BCF1"/>
<path d="M301.69 371.579L288.85 378.999V361.879L301.69 354.469V371.579Z" fill="#00BCF1"/>
<path d="M318.99 361.599L306.15 369.009V351.889L318.99 344.479V361.599Z" fill="#00BCF1"/>
<path d="M336.29 351.609L323.45 359.019V341.899L336.29 334.489V351.609Z" fill="#00BCF1"/>
<path d="M353.59 341.619L340.75 349.039V331.919L353.59 324.499V341.619Z" fill="#00BCF1"/>
<path d="M370.88 331.639L358.05 339.049V321.929L370.88 314.519V331.639Z" fill="#00BCF1"/>
<path d="M388.18 321.649L375.34 329.059V311.939L388.18 304.529V321.649Z" fill="#00BCF1"/>
<path d="M284.39 404.399L271.56 411.809V394.689L284.39 387.279V404.399Z" fill="#00BCF1"/>
<path d="M301.69 394.409L288.85 401.819V384.699L301.69 377.289V394.409Z" fill="#00BCF1"/>
<path d="M318.99 384.419L306.15 391.839V374.719L318.99 367.299V384.419Z" fill="#00BCF1"/>
<path d="M336.29 374.439L323.45 381.849V364.729L336.29 357.319V374.439Z" fill="#00BCF1"/>
<path d="M353.59 364.449L340.75 371.859V354.739L353.59 347.329V364.449Z" fill="#00BCF1"/>
<path d="M370.88 354.459L358.05 361.879V344.759L370.88 337.339V354.459Z" fill="#00BCF1"/>
<path d="M388.18 344.479L375.34 351.889V334.769L388.18 327.359V344.479Z" fill="#00BCF1"/>
<path d="M287.76 250.479L274.92 257.889V240.779L287.76 233.359V250.479Z" fill="#00BCF1"/>
<path d="M305.06 240.499L292.22 247.909V230.789L305.06 223.379V240.499Z" fill="#00BCF1"/>
<path d="M322.35 230.509L309.51 237.919V220.799L322.35 213.389V230.509Z" fill="#00BCF1"/>
<path d="M339.65 220.519L326.81 227.929V210.809L339.65 203.399V220.519Z" fill="#00BCF1"/>
<path d="M356.95 210.529L344.11 217.949V200.829L356.95 193.409V210.529Z" fill="#00BCF1"/>
<path d="M287.76 273.309L274.92 280.719V263.599L287.76 256.189V273.309Z" fill="#00BCF1"/>
<path d="M305.06 263.319L292.22 270.729V253.619L305.06 246.199V263.319Z" fill="#00BCF1"/>
<path d="M322.35 253.329L309.51 260.749V243.629L322.35 236.209V253.329Z" fill="#00BCF1"/>
<path d="M339.65 243.349L326.81 250.759V233.639L339.65 226.229V243.349Z" fill="#00BCF1"/>
<path d="M356.95 233.359L344.11 240.769V223.649L356.95 216.239V233.359Z" fill="#00BCF1"/>
<path d="M282.73 173.459L269.89 180.869V163.749L282.73 156.339V173.459Z" fill="#00BCF1"/>
<path d="M300.03 163.469L287.19 170.879V153.759L300.03 146.349V163.469Z" fill="#00BCF1"/>
<path d="M317.32 153.479L304.48 160.899V143.779L317.32 136.359V153.479Z" fill="#00BCF1"/>
<path d="M334.62 143.499L321.78 150.909V133.789L334.62 126.379V143.499Z" fill="#00BCF1"/>
<path d="M282.73 196.279L269.89 203.699V186.579L282.73 179.159V196.279Z" fill="#00BCF1"/>
<path d="M300.03 186.299L287.19 193.709V176.589L300.03 169.179V186.299Z" fill="#00BCF1"/>
<path d="M317.32 176.309L304.48 183.719V166.599L317.32 159.189V176.309Z" fill="#00BCF1"/>
<path d="M334.62 166.319L321.78 173.739V156.619L334.62 149.199V166.319Z" fill="#00BCF1"/>
<path d="M284.39 448.619L271.56 456.039V438.919L284.39 431.499V448.619Z" fill="#00BCF1"/>
<path d="M301.69 438.639L288.85 446.049V428.929L301.69 421.519V438.639Z" fill="#00BCF1"/>
<path d="M318.99 428.649L306.15 436.059V418.939L318.99 411.529V428.649Z" fill="#00BCF1"/>
<path d="M336.29 418.659L323.45 426.069V408.959L336.29 401.539V418.659Z" fill="#00BCF1"/>
<path d="M353.59 408.679L340.75 416.089V398.969L353.59 391.559V408.679Z" fill="#00BCF1"/>
<path d="M370.88 398.689L358.05 406.099V388.979L370.88 381.569V398.689Z" fill="#00BCF1"/>
<path d="M388.18 388.699L375.34 396.119V378.999L388.18 371.579V388.699Z" fill="#00BCF1"/>
<path d="M284.39 471.449L271.56 478.859V461.739L284.39 454.329V471.449Z" fill="#00BCF1"/>
<path d="M301.69 461.459L288.85 468.869V451.759L301.69 444.339V461.459Z" fill="#00BCF1"/>
<path d="M318.99 451.479L306.15 458.889V441.769L318.99 434.359V451.479Z" fill="#00BCF1"/>
<path d="M336.29 441.489L323.45 448.899V431.779L336.29 424.369V441.489Z" fill="#00BCF1"/>
<path d="M353.59 431.499L340.75 438.919V421.799L353.59 414.379V431.499Z" fill="#00BCF1"/>
<path d="M370.88 421.509L358.05 428.929V411.809L370.88 404.389V421.509Z" fill="#00BCF1"/>
<path d="M388.18 411.529L375.34 418.939V401.819L388.18 394.409V411.529Z" fill="#00BCF1"/>
<path d="M284.39 494.279L271.56 501.689V484.569L284.39 477.159V494.279Z" fill="#00BCF1"/>
<path d="M301.69 484.289L288.85 491.699V474.579L301.69 467.169V484.289Z" fill="#00BCF1"/>
<path d="M318.99 474.299L306.15 481.719V464.599L318.99 457.179V474.299Z" fill="#00BCF1"/>
<path d="M336.29 464.309L323.45 471.729V454.609L336.29 447.189V464.309Z" fill="#00BCF1"/>
<path d="M353.59 454.329L340.75 461.739V444.619L353.59 437.209V454.329Z" fill="#00BCF1"/>
<path d="M370.88 444.339L358.05 451.749V434.629L370.88 427.219V444.339Z" fill="#00BCF1"/>
<path d="M388.18 434.349L375.34 441.769V424.649L388.18 417.229V434.349Z" fill="#00BCF1"/>
<path d="M318.99 518.529L306.15 525.939V508.819L318.99 501.409V518.529Z" fill="#00BCF1"/>
<path d="M336.29 508.539L323.45 515.949V498.829L336.29 491.419V508.539Z" fill="#00BCF1"/>
<path d="M353.59 498.549L340.75 505.969V488.849L353.59 481.429V498.549Z" fill="#00BCF1"/>
<path d="M370.88 488.569L358.05 495.979V478.859L370.88 471.449V488.569Z" fill="#00BCF1"/>
<path d="M388.18 478.579L375.34 485.989V468.869L388.18 461.459V478.579Z" fill="#00BCF1"/>
<path d="M370.88 511.389L358.05 518.799V501.689L370.88 494.269V511.389Z" fill="#00BCF1"/>
<path d="M388.18 501.409L375.34 508.819V491.699L388.18 484.289V501.409Z" fill="#00BCF1"/>
<path d="M188.11 114.189L264.5 158.299L340.55 114.399L265.13 70.2688L188.11 114.189Z" fill="white"/>
</g>
<defs>
<clipPath id="clip0">
<rect width="501.69" height="501.69" fill="white" transform="translate(0.369995 0.118774)"/>
</clipPath>
</defs>
</svg>
