<svg width="640" height="400" viewBox="0 0 640 400" fill="none" xmlns="http://www.w3.org/2000/svg">
<g clip-path="url(#clip0)">
<path d="M640 0H0V400H640V0Z" fill="#00BCF1"/>
<path d="M372.75 205.2L453.03 156.43L534.07 205.32L453.52 251.82L372.75 205.2Z" fill="white"/>
<path d="M390.87 154.09L453.52 122.02L515.94 154.21L453.5 190.26L390.87 154.09Z" fill="white"/>
<path d="M194.94 500.55L114.39 454.04V109.16L194.94 155.66V500.55Z" fill="#007DB9"/>
<path d="M453.31 238.16L390.87 202.11V154.09L453.31 190.13V238.16Z" fill="#007DB9"/>
<path d="M452.93 177.23L406.38 150.36V114.56L452.93 141.43V177.23Z" fill="#007DB9"/>
<path d="M404.74 177.81L396.88 173.27V162.79L404.74 167.33V177.81Z" fill="#00BCF1"/>
<path d="M415.32 183.92L407.47 179.38V168.91L415.32 173.44V183.92Z" fill="#00BCF1"/>
<path d="M425.91 190.03L418.05 185.49V175.02L425.91 179.55V190.03Z" fill="#00BCF1"/>
<path d="M436.5 196.14L428.64 191.61V181.13L436.5 185.67V196.14Z" fill="#00BCF1"/>
<path d="M447.08 202.25L439.23 197.72V187.24L447.08 191.78V202.25Z" fill="white"/>
<path d="M404.74 191.78L396.88 187.24V176.76L404.74 181.3V191.78Z" fill="#00BCF1"/>
<path d="M415.32 197.89L407.47 193.35V182.88L415.32 187.41V197.89Z" fill="#00BCF1"/>
<path d="M425.91 204L418.05 199.46V188.99L425.91 193.52V204Z" fill="#00BCF1"/>
<path d="M436.5 210.11L428.64 205.58V195.1L436.5 199.64V210.11Z" fill="#00BCF1"/>
<path d="M447.08 216.22L439.23 211.69V201.21L447.08 205.75V216.22Z" fill="#00BCF1"/>
<path d="M417.54 136.72L409.68 132.18V121.7L417.54 126.24V136.72Z" fill="white"/>
<path d="M428.13 142.83L420.27 138.29V127.81L428.13 132.35V142.83Z" fill="#00BCF1"/>
<path d="M438.71 148.94L430.85 144.4V133.93L438.71 138.46V148.94Z" fill="#00BCF1"/>
<path d="M449.3 155.05L441.44 150.51V140.04L449.3 144.57V155.05Z" fill="#00BCF1"/>
<path d="M417.54 150.69L409.68 146.15V135.67L417.54 140.21V150.69Z" fill="#00BCF1"/>
<path d="M428.13 156.8L420.27 152.26V141.78L428.13 146.32V156.8Z" fill="#00BCF1"/>
<path d="M438.71 162.91L430.85 158.37V147.9L438.71 152.43V162.91Z" fill="white"/>
<path d="M449.3 169.02L441.44 164.49V154.01L449.3 158.54V169.02Z" fill="#00BCF1"/>
<path d="M453.29 476.96L372.75 430.46V205.2L453.29 251.7V476.96Z" fill="#007DB9"/>
<path d="M384.53 231.21L376.67 226.67V216.2L384.53 220.73V231.21Z" fill="#00BCF1"/>
<path d="M395.12 237.32L387.26 232.79V222.31L395.12 226.85V237.32Z" fill="#00BCF1"/>
<path d="M405.7 243.44L397.85 238.9V228.42L405.7 232.96V243.44Z" fill="#00BCF1"/>
<path d="M416.29 249.55L408.43 245.01V234.53L416.29 239.07V249.55Z" fill="#00BCF1"/>
<path d="M426.88 255.66L419.02 251.12V240.65L426.88 245.18V255.66Z" fill="white"/>
<path d="M437.46 261.77L429.61 257.24V246.76L437.46 251.29V261.77Z" fill="#00BCF1"/>
<path d="M448.05 267.88L440.19 263.35V252.87L448.05 257.41V267.88Z" fill="#00BCF1"/>
<path d="M384.53 245.18L376.67 240.64V230.17L384.53 234.7V245.18Z" fill="#00BCF1"/>
<path d="M395.12 251.29L387.26 246.76V236.28L395.12 240.82V251.29Z" fill="#00BCF1"/>
<path d="M405.7 257.4L397.85 252.87V242.39L405.7 246.93V257.4Z" fill="#00BCF1"/>
<path d="M416.29 263.52L408.43 258.98V248.5L416.29 253.04V263.52Z" fill="#00BCF1"/>
<path d="M426.88 269.63L419.02 265.09V254.62L426.88 259.15V269.63Z" fill="#00BCF1"/>
<path d="M437.46 275.74L429.61 271.2V260.73L437.46 265.26V275.74Z" fill="#00BCF1"/>
<path d="M448.05 281.85L440.19 277.32V266.84L448.05 271.38V281.85Z" fill="#00BCF1"/>
<path d="M384.53 259.15L376.67 254.61V244.14L384.53 248.67V259.15Z" fill="#00BCF1"/>
<path d="M395.12 265.26L387.26 260.73V250.25L395.12 254.79V265.26Z" fill="#00BCF1"/>
<path d="M405.7 271.38L397.85 266.84V256.36L405.7 260.9V271.38Z" fill="#00BCF1"/>
<path d="M416.29 277.49L408.43 272.95V262.47L416.29 267.01V277.49Z" fill="#00BCF1"/>
<path d="M426.88 283.6L419.02 279.06V268.58L426.88 273.12V283.6Z" fill="#00BCF1"/>
<path d="M437.46 289.71L429.61 285.18V274.7L437.46 279.23V289.71Z" fill="#00BCF1"/>
<path d="M448.05 295.82L440.19 291.29V280.81L448.05 285.35V295.82Z" fill="#00BCF1"/>
<path d="M384.53 286.22L376.67 281.68V271.2L384.53 275.74V286.22Z" fill="#00BCF1"/>
<path d="M395.12 292.33L387.26 287.79V277.32L395.12 281.85V292.33Z" fill="#00BCF1"/>
<path d="M405.7 298.44L397.85 293.9V283.43L405.7 287.96V298.44Z" fill="#00BCF1"/>
<path d="M416.29 304.55L408.43 300.02V289.54L416.29 294.08V304.55Z" fill="#00BCF1"/>
<path d="M426.88 310.67L419.02 306.13V295.65L426.88 300.19V310.67Z" fill="#00BCF1"/>
<path d="M437.46 316.78L429.61 312.24V301.76L437.46 306.3V316.78Z" fill="#00BCF1"/>
<path d="M448.05 322.89L440.19 318.35V307.88L448.05 312.41V322.89Z" fill="#00BCF1"/>
<path d="M384.53 300.19L376.67 295.65V285.17L384.53 289.71V300.19Z" fill="#00BCF1"/>
<path d="M395.12 306.3L387.26 301.76V291.29L395.12 295.82V306.3Z" fill="#00BCF1"/>
<path d="M405.7 312.41L397.85 307.88V297.4L405.7 301.94V312.41Z" fill="#00BCF1"/>
<path d="M416.29 318.52L408.43 313.99V303.51L416.29 308.05V318.52Z" fill="#00BCF1"/>
<path d="M426.88 324.64L419.02 320.1V309.62L426.88 314.16V324.64Z" fill="#00BCF1"/>
<path d="M437.46 330.75L429.61 326.21V315.73L437.46 320.27V330.75Z" fill="#00BCF1"/>
<path d="M448.05 336.86L440.19 332.32V321.85L448.05 326.38V336.86Z" fill="#00BCF1"/>
<path d="M384.53 314.16L376.67 309.62V299.14L384.53 303.68V314.16Z" fill="#00BCF1"/>
<path d="M395.12 320.27L387.26 315.73V305.25L395.12 309.79V320.27Z" fill="#00BCF1"/>
<path d="M405.7 326.38L397.85 321.85V311.37L405.7 315.9V326.38Z" fill="#00BCF1"/>
<path d="M416.29 332.49L408.43 327.96V317.48L416.29 322.02V332.49Z" fill="#00BCF1"/>
<path d="M426.88 338.61L419.02 334.07V323.59L426.88 328.13V338.61Z" fill="#00BCF1"/>
<path d="M437.46 344.72L429.61 340.18V329.7L437.46 334.24V344.72Z" fill="#00BCF1"/>
<path d="M448.05 350.83L440.19 346.29V335.82L448.05 340.35V350.83Z" fill="white"/>
<path d="M384.53 341.22L376.67 336.69V326.21L384.53 330.75V341.22Z" fill="#00BCF1"/>
<path d="M395.12 347.34L387.26 342.8V332.32L395.12 336.86V347.34Z" fill="#00BCF1"/>
<path d="M405.7 353.45L397.85 348.91V338.43L405.7 342.97V353.45Z" fill="#00BCF1"/>
<path d="M416.29 359.56L408.43 355.02V344.55L416.29 349.08V359.56Z" fill="#00BCF1"/>
<path d="M426.88 365.67L419.02 361.14V350.66L426.88 355.19V365.67Z" fill="#00BCF1"/>
<path d="M437.46 371.79L429.61 367.25V356.77L437.46 361.31V371.79Z" fill="#00BCF1"/>
<path d="M448.05 377.9L440.19 373.36V362.88L448.05 367.42V377.9Z" fill="#00BCF1"/>
<path d="M384.53 355.19L376.67 350.66V340.18L384.53 344.72V355.19Z" fill="#00BCF1"/>
<path d="M395.12 361.31L387.26 356.77V346.29L395.12 350.83V361.31Z" fill="#00BCF1"/>
<path d="M405.7 367.42L397.85 362.88V352.4L405.7 356.94V367.42Z" fill="#00BCF1"/>
<path d="M416.29 373.53L408.43 368.99V358.52L416.29 363.05V373.53Z" fill="#00BCF1"/>
<path d="M426.88 379.64L419.02 375.11V364.63L426.88 369.17V379.64Z" fill="#00BCF1"/>
<path d="M437.46 385.75L429.61 381.22V370.74L437.46 375.28V385.75Z" fill="#00BCF1"/>
<path d="M448.05 391.87L440.19 387.33V376.85L448.05 381.39V391.87Z" fill="#00BCF1"/>
<path d="M384.53 369.16L376.67 364.63V354.15L384.53 358.69V369.16Z" fill="#00BCF1"/>
<path d="M395.12 375.28L387.26 370.74V360.26L395.12 364.8V375.28Z" fill="#00BCF1"/>
<path d="M405.7 381.39L397.85 376.85V366.37L405.7 370.91V381.39Z" fill="#00BCF1"/>
<path d="M416.29 387.5L408.43 382.96V372.49L416.29 377.02V387.5Z" fill="#00BCF1"/>
<path d="M426.88 393.61L419.02 389.08V378.6L426.88 383.13V393.61Z" fill="#00BCF1"/>
<path d="M437.46 399.73L429.61 395.19V384.71L437.46 389.25V399.73Z" fill="#00BCF1"/>
<path d="M448.05 405.84L440.19 401.3V390.82L448.05 395.36V405.84Z" fill="#00BCF1"/>
<path d="M384.53 396.23L376.67 391.69V381.22L384.53 385.75V396.23Z" fill="#00BCF1"/>
<path d="M395.12 402.34L387.26 397.81V387.33L395.12 391.87V402.34Z" fill="#00BCF1"/>
<path d="M405.7 408.45L397.85 403.92V393.44L405.7 397.98V408.45Z" fill="#00BCF1"/>
<path d="M416.29 414.57L408.43 410.03V399.55L416.29 404.09V414.57Z" fill="#00BCF1"/>
<path d="M384.53 410.2L376.67 405.66V395.19L384.53 399.72V410.2Z" fill="#00BCF1"/>
<path d="M122.25 138.15L117.67 135.5V116.29L122.25 118.94V138.15Z" fill="#00BCF1"/>
<path d="M129.82 142.51L125.23 139.87V120.66L129.82 123.31V142.51Z" fill="#00BCF1"/>
<path d="M137.39 146.88L132.8 144.24V125.03L137.39 127.67V146.88Z" fill="#00BCF1"/>
<path d="M144.95 151.25L140.37 148.61V129.4L144.95 132.04V151.25Z" fill="#00BCF1"/>
<path d="M152.52 155.62L147.94 152.97V133.77L152.52 136.41V155.62Z" fill="#00BCF1"/>
<path d="M160.09 159.99L155.5 157.34V138.13L160.09 140.78V159.99Z" fill="#00BCF1"/>
<path d="M167.65 164.36L163.07 161.71V142.5L167.65 145.15V164.36Z" fill="#00BCF1"/>
<path d="M175.22 168.73L170.64 166.08V146.87L175.22 149.52V168.73Z" fill="#00BCF1"/>
<path d="M182.79 173.1L178.2 170.45V151.24L182.79 153.89V173.1Z" fill="#00BCF1"/>
<path d="M190.35 177.47L185.77 174.82V155.61L190.35 158.26V177.47Z" fill="#00BCF1"/>
<path d="M122.25 161.72L117.67 159.07V139.87L122.25 142.51V161.72Z" fill="#00BCF1"/>
<path d="M129.82 166.09L125.23 163.44V144.23L129.82 146.88V166.09Z" fill="#00BCF1"/>
<path d="M137.39 170.46L132.8 167.81V148.6L137.39 151.25V170.46Z" fill="#00BCF1"/>
<path d="M144.95 174.83L140.37 172.18V152.97L144.95 155.62V174.83Z" fill="#00BCF1"/>
<path d="M152.52 179.2L147.94 176.55V157.34L152.52 159.99V179.2Z" fill="#00BCF1"/>
<path d="M160.09 183.56L155.5 180.92V161.71L160.09 164.36V183.56Z" fill="#00BCF1"/>
<path d="M167.65 187.93L163.07 185.29V166.08L167.65 168.72V187.93Z" fill="#00BCF1"/>
<path d="M175.22 192.3L170.64 189.66V170.45L175.22 173.09V192.3Z" fill="#00BCF1"/>
<path d="M182.79 196.67L178.2 194.02V174.82L182.79 177.46V196.67Z" fill="#00BCF1"/>
<path d="M190.35 201.04L185.77 198.39V179.19L190.35 181.83V201.04Z" fill="#00BCF1"/>
<path d="M122.25 185.29L117.67 182.65V163.44L122.25 166.09V185.29Z" fill="#00BCF1"/>
<path d="M129.82 189.66L125.23 187.02V167.81L129.82 170.46V189.66Z" fill="#00BCF1"/>
<path d="M137.39 194.03L132.8 191.39V172.18L137.39 174.82V194.03Z" fill="#00BCF1"/>
<path d="M144.95 198.4L140.37 195.75V176.55L144.95 179.19V198.4Z" fill="#00BCF1"/>
<path d="M152.52 202.77L147.94 200.12V180.91L152.52 183.56V202.77Z" fill="#00BCF1"/>
<path d="M160.09 207.14L155.5 204.49V185.28L160.09 187.93V207.14Z" fill="#00BCF1"/>
<path d="M167.65 211.51L163.07 208.86V189.65L167.65 192.3V211.51Z" fill="#00BCF1"/>
<path d="M175.22 215.88L170.64 213.23V194.02L175.22 196.67V215.88Z" fill="#00BCF1"/>
<path d="M182.79 220.25L178.2 217.6V198.39L182.79 201.04V220.25Z" fill="#00BCF1"/>
<path d="M190.35 224.61L185.77 221.97V202.76L190.35 205.41V224.61Z" fill="#00BCF1"/>
<path d="M122.25 208.87L117.67 206.22V187.01L122.25 189.66V208.87Z" fill="#00BCF1"/>
<path d="M129.82 213.24L125.23 210.59V191.38L129.82 194.03V213.24Z" fill="#00BCF1"/>
<path d="M137.39 217.61L132.8 214.96V195.75L137.39 198.4V217.61Z" fill="#00BCF1"/>
<path d="M144.95 221.97L140.37 219.33V200.12L144.95 202.77V221.97Z" fill="#00BCF1"/>
<path d="M152.52 226.34L147.94 223.7V204.49L152.52 207.13V226.34Z" fill="#00BCF1"/>
<path d="M160.09 230.71L155.5 228.07V208.86L160.09 211.5V230.71Z" fill="white"/>
<path d="M167.65 235.08L163.07 232.44V213.23L167.65 215.87V235.08Z" fill="#00BCF1"/>
<path d="M175.22 239.45L170.64 236.8V217.59L175.22 220.24V239.45Z" fill="#00BCF1"/>
<path d="M182.79 243.82L178.2 241.17V221.96L182.79 224.61V243.82Z" fill="#00BCF1"/>
<path d="M190.35 248.19L185.77 245.54V226.33L190.35 228.98V248.19Z" fill="#00BCF1"/>
<path d="M122.25 232.44L117.67 229.8V210.59L122.25 213.23V232.44Z" fill="#00BCF1"/>
<path d="M129.82 236.81L125.23 234.16V214.96L129.82 217.6V236.81Z" fill="#00BCF1"/>
<path d="M137.39 241.18L132.8 238.53V219.33L137.39 221.97V241.18Z" fill="#00BCF1"/>
<path d="M144.95 245.55L140.37 242.9V223.69L144.95 226.34V245.55Z" fill="#00BCF1"/>
<path d="M152.52 249.92L147.94 247.27V228.06L152.52 230.71V249.92Z" fill="#00BCF1"/>
<path d="M160.09 254.29L155.5 251.64V232.43L160.09 235.08V254.29Z" fill="#00BCF1"/>
<path d="M167.65 258.66L163.07 256.01V236.8L167.65 239.45V258.66Z" fill="#00BCF1"/>
<path d="M175.22 263.02L170.64 260.38V241.17L175.22 243.82V263.02Z" fill="#00BCF1"/>
<path d="M182.79 267.39L178.2 264.75V245.54L182.79 248.19V267.39Z" fill="#00BCF1"/>
<path d="M190.35 271.76L185.77 269.12V249.91L190.35 252.55V271.76Z" fill="#00BCF1"/>
<path d="M122.25 256.02L117.67 253.37V234.16L122.25 236.81V256.02Z" fill="#00BCF1"/>
<path d="M129.82 260.39L125.23 257.74V238.53L129.82 241.18V260.39Z" fill="#00BCF1"/>
<path d="M137.39 264.75L132.8 262.11V242.9L137.39 245.55V264.75Z" fill="#00BCF1"/>
<path d="M144.95 269.12L140.37 266.48V247.27L144.95 249.91V269.12Z" fill="white"/>
<path d="M152.52 273.49L147.94 270.85V251.64L152.52 254.28V273.49Z" fill="#00BCF1"/>
<path d="M160.09 277.86L155.5 275.21V256.01L160.09 258.65V277.86Z" fill="#00BCF1"/>
<path d="M167.65 282.23L163.07 279.58V260.38L167.65 263.02V282.23Z" fill="#00BCF1"/>
<path d="M175.22 286.6L170.64 283.95V264.74L175.22 267.39V286.6Z" fill="#00BCF1"/>
<path d="M182.79 290.97L178.2 288.32V269.11L182.79 271.76V290.97Z" fill="#00BCF1"/>
<path d="M190.35 295.34L185.77 292.69V273.48L190.35 276.13V295.34Z" fill="#00BCF1"/>
<path d="M122.25 279.59L117.67 276.94V257.74L122.25 260.38V279.59Z" fill="#00BCF1"/>
<path d="M129.82 283.96L125.23 281.31V262.11L129.82 264.75V283.96Z" fill="#00BCF1"/>
<path d="M137.39 288.33L132.8 285.68V266.47L137.39 269.12V288.33Z" fill="#00BCF1"/>
<path d="M144.95 292.7L140.37 290.05V270.84L144.95 273.49V292.7Z" fill="#00BCF1"/>
<path d="M152.52 297.07L147.94 294.42V275.21L152.52 277.86V297.07Z" fill="#00BCF1"/>
<path d="M160.09 301.44L155.5 298.79V279.58L160.09 282.23V301.44Z" fill="#00BCF1"/>
<path d="M167.65 305.8L163.07 303.16V283.95L167.65 286.6V305.8Z" fill="#00BCF1"/>
<path d="M175.22 310.17L170.64 307.53V288.32L175.22 290.96V310.17Z" fill="#00BCF1"/>
<path d="M182.79 314.54L178.2 311.9V292.69L182.79 295.33V314.54Z" fill="#00BCF1"/>
<path d="M190.35 318.91L185.77 316.26V297.06L190.35 299.7V318.91Z" fill="#00BCF1"/>
<path d="M122.25 303.17L117.67 300.52V281.31L122.25 283.96V303.17Z" fill="#00BCF1"/>
<path d="M129.82 307.54L125.23 304.89V285.68L129.82 288.33V307.54Z" fill="#00BCF1"/>
<path d="M137.39 311.9L132.8 309.26V290.05L137.39 292.69V311.9Z" fill="#00BCF1"/>
<path d="M144.95 316.27L140.37 313.63V294.42L144.95 297.06V316.27Z" fill="#00BCF1"/>
<path d="M152.52 320.64L147.94 318V298.79L152.52 301.43V320.64Z" fill="#00BCF1"/>
<path d="M160.09 325.01L155.5 322.36V303.15L160.09 305.8V325.01Z" fill="#00BCF1"/>
<path d="M167.65 329.38L163.07 326.73V307.52L167.65 310.17V329.38Z" fill="#00BCF1"/>
<path d="M175.22 333.75L170.64 331.1V311.89L175.22 314.54V333.75Z" fill="#00BCF1"/>
<path d="M182.79 338.12L178.2 335.47V316.26L182.79 318.91V338.12Z" fill="#00BCF1"/>
<path d="M190.35 342.49L185.77 339.84V320.63L190.35 323.28V342.49Z" fill="#00BCF1"/>
<path d="M122.25 326.74L117.67 324.09V304.88L122.25 307.53V326.74Z" fill="#00BCF1"/>
<path d="M129.82 331.11L125.23 328.46V309.25L129.82 311.9V331.11Z" fill="#00BCF1"/>
<path d="M137.39 335.48L132.8 332.83V313.62L137.39 316.27V335.48Z" fill="#00BCF1"/>
<path d="M144.95 339.85L140.37 337.2V317.99L144.95 320.64V339.85Z" fill="#00BCF1"/>
<path d="M152.52 344.21L147.94 341.57V322.36L152.52 325.01V344.21Z" fill="#00BCF1"/>
<path d="M160.09 348.58L155.5 345.94V326.73L160.09 329.38V348.58Z" fill="white"/>
<path d="M167.65 352.95L163.07 350.31V331.1L167.65 333.74V352.95Z" fill="#00BCF1"/>
<path d="M175.22 357.32L170.64 354.68V335.47L175.22 338.11V357.32Z" fill="#00BCF1"/>
<path d="M182.79 361.69L178.2 359.04V339.83L182.79 342.48V361.69Z" fill="#00BCF1"/>
<path d="M190.35 366.06L185.77 363.41V344.2L190.35 346.85V366.06Z" fill="#00BCF1"/>
<path d="M122.25 350.31L117.67 347.67V328.46L122.25 331.11V350.31Z" fill="#00BCF1"/>
<path d="M129.82 354.68L125.23 352.04V332.83L129.82 335.47V354.68Z" fill="#00BCF1"/>
<path d="M137.39 359.05L132.8 356.4V337.2L137.39 339.84V359.05Z" fill="#00BCF1"/>
<path d="M144.95 363.42L140.37 360.77V341.57L144.95 344.21V363.42Z" fill="#00BCF1"/>
<path d="M152.52 367.79L147.94 365.14V345.93L152.52 348.58V367.79Z" fill="#00BCF1"/>
<path d="M160.09 372.16L155.5 369.51V350.3L160.09 352.95V372.16Z" fill="#00BCF1"/>
<path d="M167.65 376.53L163.07 373.88V354.67L167.65 357.32V376.53Z" fill="#00BCF1"/>
<path d="M175.22 380.9L170.64 378.25V359.04L175.22 361.69V380.9Z" fill="#00BCF1"/>
<path d="M182.79 385.26L178.2 382.62V363.41L182.79 366.06V385.26Z" fill="#00BCF1"/>
<path d="M190.35 389.63L185.77 386.99V367.78L190.35 370.43V389.63Z" fill="#00BCF1"/>
<path d="M122.25 373.89L117.67 371.24V352.03L122.25 354.68V373.89Z" fill="#00BCF1"/>
<path d="M129.82 378.26L125.23 375.61V356.4L129.82 359.05V378.26Z" fill="#00BCF1"/>
<path d="M137.39 382.63L132.8 379.98V360.77L137.39 363.42V382.63Z" fill="#00BCF1"/>
<path d="M144.95 387L140.37 384.35V365.14L144.95 367.79V387Z" fill="#00BCF1"/>
<path d="M152.52 391.36L147.94 388.72V369.51L152.52 372.15V391.36Z" fill="#00BCF1"/>
<path d="M160.09 395.73L155.5 393.09V373.88L160.09 376.52V395.73Z" fill="#00BCF1"/>
<path d="M167.65 400.1L163.07 397.45V378.25L167.65 380.89V400.1Z" fill="#00BCF1"/>
<path d="M175.22 404.47L170.64 401.82V382.62L175.22 385.26V404.47Z" fill="#00BCF1"/>
<path d="M182.79 408.84L178.2 406.19V386.98L182.79 389.63V408.84Z" fill="#00BCF1"/>
<path d="M190.35 413.21L185.77 410.56V391.35L190.35 394V413.21Z" fill="#00BCF1"/>
<path d="M122.25 397.46L117.67 394.82V375.61L122.25 378.25V397.46Z" fill="#00BCF1"/>
<path d="M129.82 401.83L125.23 399.19V379.98L129.82 382.62V401.83Z" fill="#00BCF1"/>
<path d="M137.39 406.2L132.8 403.55V384.35L137.39 386.99V406.2Z" fill="#00BCF1"/>
<path d="M144.95 410.57L140.37 407.92V388.71L144.95 391.36V410.57Z" fill="#00BCF1"/>
<path d="M152.52 414.94L147.94 412.29V393.08L152.52 395.73V414.94Z" fill="#00BCF1"/>
<path d="M160.09 419.31L155.5 416.66V397.45L160.09 400.1V419.31Z" fill="#00BCF1"/>
<path d="M275.72 454.17L195.17 500.67V155.79L275.72 109.29V454.17Z" fill="#B2D235"/>
<path d="M534.07 430.59L453.52 477.09V251.82L534.07 205.32V430.59Z" fill="#B2D235"/>
<path d="M515.94 202.23L453.5 238.28V190.26L515.94 154.21V202.23Z" fill="#B2D235"/>
<path d="M499.68 150.48L453.13 177.35V141.56L499.68 114.68V150.48Z" fill="#B2D235"/>
<path d="M465.31 264.23L457.45 268.76V258.29L465.31 253.75V264.23Z" fill="#00BCF1"/>
<path d="M475.9 258.12L468.04 262.65V252.18L475.9 247.64V258.12Z" fill="#00BCF1"/>
<path d="M486.48 252L478.63 256.54V246.06L486.48 241.53V252Z" fill="#00BCF1"/>
<path d="M497.07 245.89L489.21 250.43V239.95L497.07 235.41V245.89Z" fill="#00BCF1"/>
<path d="M507.66 239.78L499.8 244.32V233.84L507.66 229.3V239.78Z" fill="#00BCF1"/>
<path d="M518.24 233.67L510.38 238.2V227.73L518.24 223.19V233.67Z" fill="#00BCF1"/>
<path d="M528.83 227.56L520.97 232.09V221.61L528.83 217.08V227.56Z" fill="#00BCF1"/>
<path d="M465.31 278.2L457.45 282.73V272.26L465.31 267.72V278.2Z" fill="#00BCF1"/>
<path d="M475.9 272.08L468.04 276.62V266.14L475.9 261.61V272.08Z" fill="#00BCF1"/>
<path d="M486.48 265.97L478.63 270.51V260.03L486.48 255.5V265.97Z" fill="#00BCF1"/>
<path d="M497.07 259.86L489.21 264.4V253.92L497.07 249.38V259.86Z" fill="#00BCF1"/>
<path d="M507.66 253.75L499.8 258.29V247.81L507.66 243.27V253.75Z" fill="#00BCF1"/>
<path d="M518.24 247.64L510.38 252.17V241.7L518.24 237.16V247.64Z" fill="#00BCF1"/>
<path d="M528.83 241.53L520.97 246.06V235.58L528.83 231.05V241.53Z" fill="#00BCF1"/>
<path d="M465.31 292.17L457.45 296.7V286.23L465.31 281.69V292.17Z" fill="#00BCF1"/>
<path d="M475.9 286.06L468.04 290.59V280.12L475.9 275.58V286.06Z" fill="#00BCF1"/>
<path d="M486.48 279.94L478.63 284.48V274L486.48 269.47V279.94Z" fill="#00BCF1"/>
<path d="M497.07 273.83L489.21 278.37V267.89L497.07 263.35V273.83Z" fill="#00BCF1"/>
<path d="M507.66 267.72L499.8 272.26V261.78L507.66 257.24V267.72Z" fill="#00BCF1"/>
<path d="M518.24 261.61L510.38 266.14V255.67L518.24 251.13V261.61Z" fill="#00BCF1"/>
<path d="M528.83 255.5L520.97 260.03V249.55L528.83 245.02V255.5Z" fill="#00BCF1"/>
<path d="M467.37 197.97L459.51 202.51V192.03L467.37 187.49V197.97Z" fill="#00BCF1"/>
<path d="M477.95 191.86L470.1 196.39V185.92L477.95 181.38V191.86Z" fill="#00BCF1"/>
<path d="M488.54 185.75L480.68 190.28V179.8L488.54 175.27V185.75Z" fill="#00BCF1"/>
<path d="M499.13 179.63L491.27 184.17V173.69L499.13 169.16V179.63Z" fill="#00BCF1"/>
<path d="M509.71 173.52L501.86 178.06V167.58L509.71 163.04V173.52Z" fill="#00BCF1"/>
<path d="M467.37 211.94L459.51 216.48V206L467.37 201.46V211.94Z" fill="#00BCF1"/>
<path d="M477.95 205.83L470.1 210.36V199.89L477.95 195.35V205.83Z" fill="#00BCF1"/>
<path d="M488.54 199.71L480.68 204.25V193.77L488.54 189.24V199.71Z" fill="#00BCF1"/>
<path d="M499.13 193.6L491.27 198.14V187.66L499.13 183.13V193.6Z" fill="#00BCF1"/>
<path d="M509.71 187.49L501.86 192.03V181.55L509.71 177.01V187.49Z" fill="#00BCF1"/>
<path d="M464.29 150.83L456.43 155.37V144.89L464.29 140.35V150.83Z" fill="#00BCF1"/>
<path d="M474.88 144.72L467.02 149.25V138.78L474.88 134.24V144.72Z" fill="#00BCF1"/>
<path d="M485.46 138.6L477.6 143.14V132.66L485.46 128.13V138.6Z" fill="#00BCF1"/>
<path d="M496.05 132.49L488.19 137.03V126.55L496.05 122.02V132.49Z" fill="#00BCF1"/>
<path d="M464.29 164.8L456.43 169.34V158.86L464.29 154.32V164.8Z" fill="#00BCF1"/>
<path d="M474.88 158.69L467.02 163.22V152.75L474.88 148.21V158.69Z" fill="#00BCF1"/>
<path d="M485.46 152.57L477.6 157.11V146.63L485.46 142.1V152.57Z" fill="#00BCF1"/>
<path d="M496.05 146.46L488.19 151V140.52L496.05 135.99V146.46Z" fill="#00BCF1"/>
<path d="M465.31 319.23L457.45 323.77V313.29L465.31 308.76V319.23Z" fill="#00BCF1"/>
<path d="M475.9 313.12L468.04 317.66V307.18L475.9 302.64V313.12Z" fill="#00BCF1"/>
<path d="M486.48 307.01L478.63 311.55V301.07L486.48 296.53V307.01Z" fill="#00BCF1"/>
<path d="M497.07 300.9L489.21 305.44V294.96L497.07 290.42V300.9Z" fill="#00BCF1"/>
<path d="M507.66 294.79L499.8 299.32V288.85L507.66 284.31V294.79Z" fill="#00BCF1"/>
<path d="M518.24 288.67L510.38 293.21V282.73L518.24 278.2V288.67Z" fill="#00BCF1"/>
<path d="M528.83 282.56L520.97 287.1V276.62L528.83 272.08V282.56Z" fill="#00BCF1"/>
<path d="M465.31 333.2L457.45 337.74V327.26L465.31 322.73V333.2Z" fill="#00BCF1"/>
<path d="M475.9 327.09L468.04 331.63V321.15L475.9 316.62V327.09Z" fill="#00BCF1"/>
<path d="M486.48 320.98L478.63 325.52V315.04L486.48 310.5V320.98Z" fill="#00BCF1"/>
<path d="M497.07 314.87L489.21 319.4V308.93L497.07 304.39V314.87Z" fill="#00BCF1"/>
<path d="M507.66 308.76L499.8 313.29V302.81L507.66 298.28V308.76Z" fill="#00BCF1"/>
<path d="M518.24 302.64L510.38 307.18V296.7L518.24 292.17V302.64Z" fill="#00BCF1"/>
<path d="M528.83 296.53L520.97 301.07V290.59L528.83 286.05V296.53Z" fill="#00BCF1"/>
<path d="M465.31 347.17L457.45 351.71V341.23L465.31 336.7V347.17Z" fill="#00BCF1"/>
<path d="M475.9 341.06L468.04 345.6V335.12L475.9 330.58V341.06Z" fill="#00BCF1"/>
<path d="M486.48 334.95L478.63 339.49V329.01L486.48 324.47V334.95Z" fill="#00BCF1"/>
<path d="M497.07 328.84L489.21 333.37V322.9L497.07 318.36V328.84Z" fill="#00BCF1"/>
<path d="M507.66 322.73L499.8 327.26V316.79L507.66 312.25V322.73Z" fill="#00BCF1"/>
<path d="M518.24 316.61L510.38 321.15V310.67L518.24 306.14V316.61Z" fill="#00BCF1"/>
<path d="M528.83 310.5L520.97 315.04V304.56L528.83 300.02V310.5Z" fill="#00BCF1"/>
<path d="M465.31 374.24L457.45 378.78V368.3L465.31 363.76V374.24Z" fill="#00BCF1"/>
<path d="M475.9 368.13L468.04 372.67V362.19L475.9 357.65V368.13Z" fill="#00BCF1"/>
<path d="M486.48 362.02L478.63 366.55V356.08L486.48 351.54V362.02Z" fill="#00BCF1"/>
<path d="M497.07 355.9L489.21 360.44V349.96L497.07 345.43V355.9Z" fill="#00BCF1"/>
<path d="M507.66 349.79L499.8 354.33V343.85L507.66 339.31V349.79Z" fill="#00BCF1"/>
<path d="M518.24 343.68L510.38 348.22V337.74L518.24 333.2V343.68Z" fill="#00BCF1"/>
<path d="M528.83 337.57L520.97 342.11V331.63L528.83 327.09V337.57Z" fill="#00BCF1"/>
<path d="M465.31 388.21L457.45 392.75V382.27L465.31 377.73V388.21Z" fill="#00BCF1"/>
<path d="M475.9 382.1L468.04 386.63V376.16L475.9 371.62V382.1Z" fill="#00BCF1"/>
<path d="M486.48 375.99L478.63 380.52V370.05L486.48 365.51V375.99Z" fill="#00BCF1"/>
<path d="M497.07 369.87L489.21 374.41V363.93L497.07 359.4V369.87Z" fill="#00BCF1"/>
<path d="M507.66 363.76L499.8 368.3V357.82L507.66 353.29V363.76Z" fill="#00BCF1"/>
<path d="M518.24 357.65L510.38 362.19V351.71L518.24 347.17V357.65Z" fill="#00BCF1"/>
<path d="M528.83 351.54L520.97 356.07V345.6L528.83 341.06V351.54Z" fill="#00BCF1"/>
<path d="M465.31 402.18L457.45 406.72V396.24L465.31 391.7V402.18Z" fill="#00BCF1"/>
<path d="M475.9 396.07L468.04 400.61V390.13L475.9 385.59V396.07Z" fill="#00BCF1"/>
<path d="M486.48 389.96L478.63 394.49V384.02L486.48 379.48V389.96Z" fill="#00BCF1"/>
<path d="M497.07 383.84L489.21 388.38V377.9L497.07 373.37V383.84Z" fill="#00BCF1"/>
<path d="M507.66 377.73L499.8 382.27V371.79L507.66 367.25V377.73Z" fill="#00BCF1"/>
<path d="M518.24 371.62L510.38 376.16V365.68L518.24 361.14V371.62Z" fill="#00BCF1"/>
<path d="M528.83 365.51L520.97 370.04V359.57L528.83 355.03V365.51Z" fill="#00BCF1"/>
<path d="M507.66 404.8L499.8 409.34V398.86L507.66 394.32V404.8Z" fill="#00BCF1"/>
<path d="M518.24 398.69L510.38 403.22V392.75L518.24 388.21V398.69Z" fill="#00BCF1"/>
<path d="M528.83 392.57L520.97 397.11V386.63L528.83 382.1V392.57Z" fill="#00BCF1"/>
<path d="M528.83 406.54L520.97 411.08V400.6L528.83 396.07V406.54Z" fill="#00BCF1"/>
<path d="M203.03 175.7L198.45 178.35V159.14L203.03 156.49V175.7Z" fill="#00BCF1"/>
<path d="M210.6 171.33L206.01 173.98V154.77L210.6 152.12V171.33Z" fill="#00BCF1"/>
<path d="M218.16 166.96L213.58 169.61V150.4L218.16 147.75V166.96Z" fill="#00BCF1"/>
<path d="M225.73 162.59L221.15 165.24V146.03L225.73 143.38V162.59Z" fill="#00BCF1"/>
<path d="M233.3 158.22L228.71 160.87V141.66L233.3 139.01V158.22Z" fill="#00BCF1"/>
<path d="M240.87 153.85L236.28 156.5V137.29L240.87 134.65V153.85Z" fill="#00BCF1"/>
<path d="M248.43 149.49L243.85 152.13V132.92L248.43 130.28V149.49Z" fill="#00BCF1"/>
<path d="M256 145.12L251.41 147.76V128.56L256 125.91V145.12Z" fill="#00BCF1"/>
<path d="M263.57 140.75L258.98 143.4V124.19L263.57 121.54V140.75Z" fill="#00BCF1"/>
<path d="M271.13 136.38L266.55 139.03V119.82L271.13 117.17V136.38Z" fill="#00BCF1"/>
<path d="M203.03 199.27L198.45 201.92V182.71L203.03 180.06V199.27Z" fill="#00BCF1"/>
<path d="M210.6 194.91L206.01 197.55V178.34L210.6 175.7V194.91Z" fill="#00BCF1"/>
<path d="M218.16 190.54L213.58 193.18V173.97L218.16 171.33V190.54Z" fill="#00BCF1"/>
<path d="M225.73 186.17L221.15 188.81V169.6L225.73 166.96V186.17Z" fill="#00BCF1"/>
<path d="M233.3 181.8L228.71 184.44V165.24L233.3 162.59V181.8Z" fill="#00BCF1"/>
<path d="M240.87 177.43L236.28 180.08V160.87L240.87 158.22V177.43Z" fill="#00BCF1"/>
<path d="M248.43 173.06L243.85 175.71V156.5L248.43 153.85V173.06Z" fill="#00BCF1"/>
<path d="M256 168.69L251.41 171.34V152.13L256 149.48V168.69Z" fill="#00BCF1"/>
<path d="M263.57 164.32L258.98 166.97V147.76L263.57 145.11V164.32Z" fill="#00BCF1"/>
<path d="M271.13 159.95L266.55 162.6V143.39L271.13 140.75V159.95Z" fill="#00BCF1"/>
<path d="M203.03 222.85L198.45 225.49V206.29L203.03 203.64V222.85Z" fill="#00BCF1"/>
<path d="M210.6 218.48L206.01 221.13V201.92L210.6 199.27V218.48Z" fill="#00BCF1"/>
<path d="M218.16 214.11L213.58 216.76V197.55L218.16 194.9V214.11Z" fill="#00BCF1"/>
<path d="M225.73 209.74L221.15 212.39V193.18L225.73 190.53V209.74Z" fill="#00BCF1"/>
<path d="M233.3 205.37L228.71 208.02V188.81L233.3 186.16V205.37Z" fill="#00BCF1"/>
<path d="M240.87 201L236.28 203.65V184.44L240.87 181.79V201Z" fill="#00BCF1"/>
<path d="M248.43 196.63L243.85 199.28V180.07L248.43 177.43V196.63Z" fill="#00BCF1"/>
<path d="M256 192.27L251.41 194.91V175.7L256 173.06V192.27Z" fill="#00BCF1"/>
<path d="M263.57 187.9L258.98 190.54V171.34L263.57 168.69V187.9Z" fill="#00BCF1"/>
<path d="M271.13 183.53L266.55 186.18V166.97L271.13 164.32V183.53Z" fill="#00BCF1"/>
<path d="M203.03 246.42L198.45 249.07V229.86L203.03 227.21V246.42Z" fill="#00BCF1"/>
<path d="M210.6 242.05L206.01 244.7V225.49L210.6 222.84V242.05Z" fill="#00BCF1"/>
<path d="M218.16 237.68L213.58 240.33V221.12L218.16 218.48V237.68Z" fill="#00BCF1"/>
<path d="M225.73 233.32L221.15 235.96V216.75L225.73 214.11V233.32Z" fill="#00BCF1"/>
<path d="M233.3 228.95L228.71 231.59V212.38L233.3 209.74V228.95Z" fill="#00BCF1"/>
<path d="M240.87 224.58L236.28 227.22V208.02L240.87 205.37V224.58Z" fill="#00BCF1"/>
<path d="M248.43 220.21L243.85 222.86V203.65L248.43 201V220.21Z" fill="#00BCF1"/>
<path d="M256 215.84L251.41 218.49V199.28L256 196.63V215.84Z" fill="#00BCF1"/>
<path d="M263.57 211.47L258.98 214.12V194.91L263.57 192.26V211.47Z" fill="#00BCF1"/>
<path d="M271.13 207.1L266.55 209.75V190.54L271.13 187.89V207.1Z" fill="#00BCF1"/>
<path d="M203.03 270L198.45 272.64V253.43L203.03 250.79V270Z" fill="#00BCF1"/>
<path d="M210.6 265.63L206.01 268.27V249.06L210.6 246.42V265.63Z" fill="#00BCF1"/>
<path d="M218.16 261.26L213.58 263.9V244.7L218.16 242.05V261.26Z" fill="#00BCF1"/>
<path d="M225.73 256.89L221.15 259.54V240.33L225.73 237.68V256.89Z" fill="#00BCF1"/>
<path d="M233.3 252.52L228.71 255.17V235.96L233.3 233.31V252.52Z" fill="#00BCF1"/>
<path d="M240.87 248.15L236.28 250.8V231.59L240.87 228.94V248.15Z" fill="#00BCF1"/>
<path d="M248.43 243.78L243.85 246.43V227.22L248.43 224.57V243.78Z" fill="#00BCF1"/>
<path d="M256 239.41L251.41 242.06V222.85L256 220.21V239.41Z" fill="#00BCF1"/>
<path d="M263.57 235.05L258.98 237.69V218.48L263.57 215.84V235.05Z" fill="#00BCF1"/>
<path d="M271.13 230.68L266.55 233.32V214.12L271.13 211.47V230.68Z" fill="#00BCF1"/>
<path d="M203.03 293.57L198.45 296.22V277.01L203.03 274.36V293.57Z" fill="#00BCF1"/>
<path d="M210.6 289.2L206.01 291.85V272.64L210.6 269.99V289.2Z" fill="#00BCF1"/>
<path d="M218.16 284.83L213.58 287.48V268.27L218.16 265.62V284.83Z" fill="#00BCF1"/>
<path d="M225.73 280.46L221.15 283.11V263.9L225.73 261.25V280.46Z" fill="#00BCF1"/>
<path d="M233.3 276.1L228.71 278.74V259.53L233.3 256.89V276.1Z" fill="#00BCF1"/>
<path d="M240.87 271.73L236.28 274.37V255.16L240.87 252.52V271.73Z" fill="#00BCF1"/>
<path d="M248.43 267.36L243.85 270V250.79L248.43 248.15V267.36Z" fill="#00BCF1"/>
<path d="M256 262.99L251.41 265.63V246.43L256 243.78V262.99Z" fill="#00BCF1"/>
<path d="M263.57 258.62L258.98 261.27V242.06L263.57 239.41V258.62Z" fill="#00BCF1"/>
<path d="M271.13 254.25L266.55 256.9V237.69L271.13 235.04V254.25Z" fill="#00BCF1"/>
<path d="M203.03 317.14L198.45 319.79V300.58L203.03 297.94V317.14Z" fill="#00BCF1"/>
<path d="M210.6 312.78L206.01 315.42V296.21L210.6 293.57V312.78Z" fill="#00BCF1"/>
<path d="M218.16 308.41L213.58 311.05V291.85L218.16 289.2V308.41Z" fill="#00BCF1"/>
<path d="M225.73 304.04L221.15 306.69V287.48L225.73 284.83V304.04Z" fill="#00BCF1"/>
<path d="M233.3 299.67L228.71 302.32V283.11L233.3 280.46V299.67Z" fill="#00BCF1"/>
<path d="M240.87 295.3L236.28 297.95V278.74L240.87 276.09V295.3Z" fill="#00BCF1"/>
<path d="M248.43 290.93L243.85 293.58V274.37L248.43 271.72V290.93Z" fill="#00BCF1"/>
<path d="M256 286.56L251.41 289.21V270L256 267.35V286.56Z" fill="#00BCF1"/>
<path d="M263.57 282.19L258.98 284.84V265.63L263.57 262.99V282.19Z" fill="#00BCF1"/>
<path d="M271.13 277.82L266.55 280.47V261.26L271.13 258.62V277.82Z" fill="#00BCF1"/>
<path d="M203.03 340.72L198.45 343.37V324.16L203.03 321.51V340.72Z" fill="#00BCF1"/>
<path d="M210.6 336.35L206.01 339V319.79L210.6 317.14V336.35Z" fill="#00BCF1"/>
<path d="M218.16 331.98L213.58 334.63V315.42L218.16 312.77V331.98Z" fill="#00BCF1"/>
<path d="M225.73 327.61L221.15 330.26V311.05L225.73 308.4V327.61Z" fill="#00BCF1"/>
<path d="M233.3 323.24L228.71 325.89V306.68L233.3 304.04V323.24Z" fill="#00BCF1"/>
<path d="M240.87 318.88L236.28 321.52V302.31L240.87 299.67V318.88Z" fill="#00BCF1"/>
<path d="M248.43 314.51L243.85 317.15V297.94L248.43 295.3V314.51Z" fill="#00BCF1"/>
<path d="M256 310.14L251.41 312.78V293.57L256 290.93V310.14Z" fill="#00BCF1"/>
<path d="M263.57 305.77L258.98 308.42V289.21L263.57 286.56V305.77Z" fill="#00BCF1"/>
<path d="M271.13 301.4L266.55 304.05V284.84L271.13 282.19V301.4Z" fill="#00BCF1"/>
<path d="M203.03 364.29L198.45 366.94V347.73L203.03 345.08V364.29Z" fill="#00BCF1"/>
<path d="M210.6 359.92L206.01 362.57V343.36L210.6 340.72V359.92Z" fill="#00BCF1"/>
<path d="M218.16 355.56L213.58 358.2V338.99L218.16 336.35V355.56Z" fill="#00BCF1"/>
<path d="M225.73 351.19L221.15 353.83V334.63L225.73 331.98V351.19Z" fill="#00BCF1"/>
<path d="M233.3 346.82L228.71 349.46V330.26L233.3 327.61V346.82Z" fill="#00BCF1"/>
<path d="M240.87 342.45L236.28 345.1V325.89L240.87 323.24V342.45Z" fill="#00BCF1"/>
<path d="M248.43 338.08L243.85 340.73V321.52L248.43 318.87V338.08Z" fill="#00BCF1"/>
<path d="M256 333.71L251.41 336.36V317.15L256 314.5V333.71Z" fill="#00BCF1"/>
<path d="M263.57 329.34L258.98 331.99V312.78L263.57 310.13V329.34Z" fill="#00BCF1"/>
<path d="M271.13 324.97L266.55 327.62V308.41L271.13 305.76V324.97Z" fill="#00BCF1"/>
<path d="M203.03 387.87L198.45 390.51V371.31L203.03 368.66V387.87Z" fill="#00BCF1"/>
<path d="M210.6 383.5L206.01 386.14V366.94L210.6 364.29V383.5Z" fill="#00BCF1"/>
<path d="M218.16 379.13L213.58 381.78V362.57L218.16 359.92V379.13Z" fill="#00BCF1"/>
<path d="M225.73 374.76L221.15 377.41V358.2L225.73 355.55V374.76Z" fill="#00BCF1"/>
<path d="M233.3 370.39L228.71 373.04V353.83L233.3 351.18V370.39Z" fill="#00BCF1"/>
<path d="M240.87 366.02L236.28 368.67V349.46L240.87 346.81V366.02Z" fill="#00BCF1"/>
<path d="M248.43 361.65L243.85 364.3V345.09L248.43 342.45V361.65Z" fill="#00BCF1"/>
<path d="M256 357.29L251.41 359.93V340.72L256 338.08V357.29Z" fill="#00BCF1"/>
<path d="M263.57 352.92L258.98 355.56V336.36L263.57 333.71V352.92Z" fill="#00BCF1"/>
<path d="M271.13 348.55L266.55 351.19V331.99L271.13 329.34V348.55Z" fill="#00BCF1"/>
<path d="M203.03 411.44L198.45 414.09V394.88L203.03 392.23V411.44Z" fill="#00BCF1"/>
<path d="M210.6 407.07L206.01 409.72V390.51L210.6 387.86V407.07Z" fill="#00BCF1"/>
<path d="M218.16 402.7L213.58 405.35V386.14L218.16 383.5V402.7Z" fill="#00BCF1"/>
<path d="M225.73 398.33L221.15 400.98V381.77L225.73 379.13V398.33Z" fill="#00BCF1"/>
<path d="M233.3 393.97L228.71 396.61V377.4L233.3 374.76V393.97Z" fill="#00BCF1"/>
<path d="M240.87 389.6L236.28 392.24V373.04L240.87 370.39V389.6Z" fill="#00BCF1"/>
<path d="M248.43 385.23L243.85 387.88V368.67L248.43 366.02V385.23Z" fill="#00BCF1"/>
<path d="M256 380.86L251.41 383.51V364.3L256 361.65V380.86Z" fill="#00BCF1"/>
<path d="M263.57 376.49L258.98 379.14V359.93L263.57 357.28V376.49Z" fill="#00BCF1"/>
<path d="M271.13 372.12L266.55 374.77V355.56L271.13 352.91V372.12Z" fill="#00BCF1"/>
<path d="M233.3 417.54L228.71 420.19V400.98L233.3 398.33V417.54Z" fill="#00BCF1"/>
<path d="M240.87 413.17L236.28 415.82V396.61L240.87 393.96V413.17Z" fill="#00BCF1"/>
<path d="M248.43 408.8L243.85 411.45V392.24L248.43 389.59V408.8Z" fill="#00BCF1"/>
<path d="M256 404.43L251.41 407.08V387.87L256 385.23V404.43Z" fill="#00BCF1"/>
<path d="M263.57 400.06L258.98 402.71V383.5L263.57 380.86V400.06Z" fill="#00BCF1"/>
<path d="M271.13 395.7L266.55 398.34V379.13L271.13 376.49V395.7Z" fill="#00BCF1"/>
<path d="M406.38 114.56L453.13 141.56L499.68 114.68L453.52 87.6802L406.38 114.56Z" fill="white"/>
<path d="M114.39 109.16L195.17 63.75L275.72 109.29L195.17 155.79L114.39 109.16Z" fill="white"/>
<path d="M323.77 549.55L243.22 503.05V229.76L323.77 276.27V549.55Z" fill="#007DB9"/>
<path d="M306.09 281.78V274.79L296.61 269.32V276.31L306.09 281.78Z" fill="#00BCF1"/>
<path d="M272.43 265.83V272.82L281.9 278.29V271.31L272.43 265.83Z" fill="#00BCF1"/>
<path d="M284.52 272.82V279.8L293.99 285.27V278.29L284.52 272.82Z" fill="#00BCF1"/>
<path d="M260.33 258.85V265.84L269.81 271.31V264.32L260.33 258.85Z" fill="#00BCF1"/>
<path d="M247.81 251.62V258.61L257.71 264.32V257.34L247.81 251.62Z" fill="#00BCF1"/>
<path d="M269.81 260.83V253.84L260.33 248.38V255.36L269.81 260.83Z" fill="#00BCF1"/>
<path d="M281.9 267.81V260.83L272.43 255.36V262.34L281.9 267.81Z" fill="#00BCF1"/>
<path d="M257.71 246.86L247.81 241.14V248.13L257.71 253.85V246.86Z" fill="#00BCF1"/>
<path d="M293.99 274.79V267.81L284.52 262.34V269.32L293.99 274.79Z" fill="#00BCF1"/>
<path d="M296.61 279.8V286.78L306.09 292.25V285.27L296.61 279.8Z" fill="white"/>
<path d="M308.71 293.77L318.53 299.44V292.45L308.71 286.78V293.77Z" fill="#00BCF1"/>
<path d="M308.71 276.3V283.29L318.53 288.96V281.98L308.71 276.3Z" fill="#00BCF1"/>
<path d="M306.09 310.59V303.61L296.61 298.13V305.12L306.09 310.59Z" fill="#00BCF1"/>
<path d="M272.43 294.65V301.63L281.9 307.1V300.12L272.43 294.65Z" fill="#00BCF1"/>
<path d="M284.52 301.63V308.62L293.99 314.08V307.1L284.52 301.63Z" fill="#00BCF1"/>
<path d="M260.33 287.67V294.65L269.81 300.12V293.14L260.33 287.67Z" fill="#00BCF1"/>
<path d="M247.81 280.43V287.42L257.71 293.14V286.15L247.81 280.43Z" fill="#00BCF1"/>
<path d="M269.81 289.64V282.66L260.33 277.19V284.17L269.81 289.64Z" fill="#00BCF1"/>
<path d="M281.9 296.63V289.64L272.43 284.17V291.15L281.9 296.63Z" fill="#00BCF1"/>
<path d="M257.71 275.68L247.81 269.96V276.94L257.71 282.66V275.68Z" fill="#00BCF1"/>
<path d="M293.99 303.61V296.62L284.52 291.15V298.14L293.99 303.61Z" fill="#00BCF1"/>
<path d="M296.61 308.61V315.6L306.09 321.07V314.08L296.61 308.61Z" fill="#00BCF1"/>
<path d="M308.71 322.58L318.53 328.25V321.26L308.71 315.59V322.58Z" fill="#00BCF1"/>
<path d="M308.71 305.12V312.1L318.53 317.77V310.79L308.71 305.12Z" fill="#00BCF1"/>
<path d="M306.09 339.4V332.42L296.61 326.95V333.93L306.09 339.4Z" fill="#00BCF1"/>
<path d="M272.43 323.46V330.45L281.9 335.92V328.93L272.43 323.46Z" fill="#00BCF1"/>
<path d="M284.52 330.44V337.43L293.99 342.9V335.91L284.52 330.44Z" fill="#00BCF1"/>
<path d="M260.33 316.48V323.46L269.81 328.93V321.95L260.33 316.48Z" fill="#00BCF1"/>
<path d="M247.81 309.25V316.23L257.71 321.95V314.97L247.81 309.25Z" fill="#00BCF1"/>
<path d="M269.81 318.46V311.47L260.33 306V312.99L269.81 318.46Z" fill="white"/>
<path d="M281.9 325.44V318.45L272.43 312.98V319.97L281.9 325.44Z" fill="#00BCF1"/>
<path d="M257.71 304.49L247.81 298.77V305.75L257.71 311.47V304.49Z" fill="#00BCF1"/>
<path d="M293.99 332.42V325.44L284.52 319.96V326.95L293.99 332.42Z" fill="#00BCF1"/>
<path d="M296.61 337.43V344.41L306.09 349.88V342.89L296.61 337.43Z" fill="white"/>
<path d="M308.71 351.39L318.53 357.06V350.08L308.71 344.41V351.39Z" fill="#00BCF1"/>
<path d="M308.71 333.93V340.92L318.53 346.59V339.6L308.71 333.93Z" fill="#00BCF1"/>
<path d="M306.09 368.21V361.23L296.61 355.76V362.75L306.09 368.21Z" fill="#00BCF1"/>
<path d="M272.43 352.27V359.26L281.9 364.73V357.74L272.43 352.27Z" fill="white"/>
<path d="M284.52 359.26V366.24L293.99 371.71V364.73L284.52 359.26Z" fill="#00BCF1"/>
<path d="M260.33 345.29V352.28L269.81 357.75V350.76L260.33 345.29Z" fill="#00BCF1"/>
<path d="M247.81 338.06V345.04L257.71 350.76V343.78L247.81 338.06Z" fill="#00BCF1"/>
<path d="M269.81 347.27V340.28L260.33 334.81V341.8L269.81 347.27Z" fill="#00BCF1"/>
<path d="M281.9 354.25V347.27L272.43 341.8V348.78L281.9 354.25Z" fill="#00BCF1"/>
<path d="M257.71 333.3L247.81 327.58V334.57L257.71 340.29V333.3Z" fill="#00BCF1"/>
<path d="M293.99 361.23V354.25L284.52 348.78V355.76L293.99 361.23Z" fill="#00BCF1"/>
<path d="M296.61 366.24V373.22L306.09 378.69V371.71L296.61 366.24Z" fill="#00BCF1"/>
<path d="M308.71 380.2L318.53 385.88V378.89L308.71 373.22V380.2Z" fill="#00BCF1"/>
<path d="M308.71 362.74V369.73L318.53 375.4V368.41L308.71 362.74Z" fill="#00BCF1"/>
<path d="M306.09 397.03V390.04L296.61 384.57V391.56L306.09 397.03Z" fill="#00BCF1"/>
<path d="M272.43 381.09V388.07L281.9 393.54V386.56L272.43 381.09Z" fill="#00BCF1"/>
<path d="M284.52 388.07V395.05L293.99 400.52V393.54L284.52 388.07Z" fill="#00BCF1"/>
<path d="M260.33 374.11V381.09L269.81 386.56V379.57L260.33 374.11Z" fill="#00BCF1"/>
<path d="M247.81 366.87V373.86L257.71 379.58V372.59L247.81 366.87Z" fill="#00BCF1"/>
<path d="M269.81 376.08V369.1L260.33 363.63V370.61L269.81 376.08Z" fill="#00BCF1"/>
<path d="M281.9 383.06V376.08L272.43 370.61V377.59L281.9 383.06Z" fill="#00BCF1"/>
<path d="M257.71 362.12L247.81 356.39V363.38L257.71 369.1V362.12Z" fill="#00BCF1"/>
<path d="M293.99 390.05V383.06L284.52 377.59V384.58L293.99 390.05Z" fill="#00BCF1"/>
<path d="M296.61 395.05V402.04L306.09 407.51V400.52L296.61 395.05Z" fill="#00BCF1"/>
<path d="M308.71 391.56V398.54L318.53 404.21V397.23L308.71 391.56Z" fill="#00BCF1"/>
<path d="M247.81 395.69V402.67L257.71 408.39V401.4L247.81 395.69Z" fill="#00BCF1"/>
<path d="M269.81 404.89V397.91L260.33 392.44V399.43L269.81 404.89Z" fill="#00BCF1"/>
<path d="M281.9 411.88V404.89L272.43 399.42V406.41L281.9 411.88Z" fill="#00BCF1"/>
<path d="M257.71 390.93L247.81 385.21V392.19L257.71 397.91V390.93Z" fill="#00BCF1"/>
<path d="M404.55 503.18L324 549.68V276.39L404.55 229.89V503.18Z" fill="#B2D235"/>
<path d="M386.87 255.81V248.83L377.39 254.3V261.28L386.87 255.81Z" fill="#00BCF1"/>
<path d="M353.2 278.74V285.73L362.68 280.26V273.27L353.2 278.74Z" fill="#00BCF1"/>
<path d="M365.3 271.76V278.74L374.77 273.27V266.29L365.3 271.76Z" fill="#00BCF1"/>
<path d="M341.11 285.72V292.71L350.58 287.24V280.25L341.11 285.72Z" fill="#00BCF1"/>
<path d="M328.58 292.95V299.94L338.49 294.22V287.24L328.58 292.95Z" fill="#00BCF1"/>
<path d="M350.58 276.76V269.77L341.11 275.25V282.23L350.58 276.76Z" fill="#00BCF1"/>
<path d="M362.68 269.78V262.79L353.2 268.26V275.25L362.68 269.78Z" fill="#00BCF1"/>
<path d="M338.49 276.76L328.58 282.48V289.46L338.49 283.74V276.76Z" fill="#00BCF1"/>
<path d="M374.77 262.8V255.81L365.3 261.28V268.27L374.77 262.8Z" fill="#00BCF1"/>
<path d="M377.39 264.78V271.76L386.87 266.29V259.31L377.39 264.78Z" fill="#00BCF1"/>
<path d="M389.49 264.78L399.31 259.11V252.12L389.49 257.79V264.78Z" fill="white"/>
<path d="M389.49 247.32V254.3L399.31 248.63V241.65L389.49 247.32Z" fill="#00BCF1"/>
<path d="M386.87 284.63V277.64L377.39 283.11V290.1L386.87 284.63Z" fill="#00BCF1"/>
<path d="M353.2 307.55V314.54L362.68 309.07V302.08L353.2 307.55Z" fill="#00BCF1"/>
<path d="M365.3 300.57V307.56L374.77 302.09V295.1L365.3 300.57Z" fill="#00BCF1"/>
<path d="M341.11 314.54V321.52L350.58 316.05V309.07L341.11 314.54Z" fill="#00BCF1"/>
<path d="M328.58 321.77V328.75L338.49 323.03V316.05L328.58 321.77Z" fill="#00BCF1"/>
<path d="M350.58 305.57V298.59L341.11 304.06V311.04L350.58 305.57Z" fill="#00BCF1"/>
<path d="M362.68 298.59V291.61L353.2 297.08V304.06L362.68 298.59Z" fill="#00BCF1"/>
<path d="M338.49 305.57L328.58 311.29V318.27L338.49 312.56V305.57Z" fill="#00BCF1"/>
<path d="M374.77 291.61V284.62L365.3 290.09V297.08L374.77 291.61Z" fill="#00BCF1"/>
<path d="M377.39 293.59V300.57L386.87 295.1V288.12L377.39 293.59Z" fill="#00BCF1"/>
<path d="M389.49 293.59L399.31 287.92V280.94L389.49 286.61V293.59Z" fill="#00BCF1"/>
<path d="M389.49 276.13V283.11L399.31 277.44V270.46L389.49 276.13Z" fill="#00BCF1"/>
<path d="M386.87 313.44V306.45L377.39 311.93V318.91L386.87 313.44Z" fill="#00BCF1"/>
<path d="M353.2 336.37V343.35L362.68 337.88V330.9L353.2 336.37Z" fill="#00BCF1"/>
<path d="M365.3 329.38V336.37L374.77 330.9V323.91L365.3 329.38Z" fill="#00BCF1"/>
<path d="M341.11 343.35V350.33L350.58 344.86V337.88L341.11 343.35Z" fill="#00BCF1"/>
<path d="M328.58 350.58V357.57L338.49 351.85V344.86L328.58 350.58Z" fill="#00BCF1"/>
<path d="M350.58 334.39V327.4L341.11 332.87V339.86L350.58 334.39Z" fill="#00BCF1"/>
<path d="M362.68 327.4V320.42L353.2 325.89V332.87L362.68 327.4Z" fill="white"/>
<path d="M338.49 334.38L328.58 340.1V347.09L338.49 341.37V334.38Z" fill="#00BCF1"/>
<path d="M374.77 320.42V313.44L365.3 318.91V325.89L374.77 320.42Z" fill="#00BCF1"/>
<path d="M377.39 322.4V329.39L386.87 323.92V316.93L377.39 322.4Z" fill="#00BCF1"/>
<path d="M389.49 322.4L399.31 316.73V309.75L389.49 315.42V322.4Z" fill="#00BCF1"/>
<path d="M389.49 304.94V311.93L399.31 306.26V299.27L389.49 304.94Z" fill="#00BCF1"/>
<path d="M386.87 342.25V335.27L377.39 340.74V347.72L386.87 342.25Z" fill="#00BCF1"/>
<path d="M353.2 365.18V372.16L362.68 366.69V359.71L353.2 365.18Z" fill="#00BCF1"/>
<path d="M365.3 358.2V365.18L374.77 359.71V352.73L365.3 358.2Z" fill="#00BCF1"/>
<path d="M341.11 372.16V379.15L350.58 373.68V366.69L341.11 372.16Z" fill="#00BCF1"/>
<path d="M328.58 379.39V386.38L338.49 380.66V373.67L328.58 379.39Z" fill="#00BCF1"/>
<path d="M350.58 363.2V356.21L341.11 361.68V368.67L350.58 363.2Z" fill="#00BCF1"/>
<path d="M362.68 356.22V349.23L353.2 354.7V361.69L362.68 356.22Z" fill="#00BCF1"/>
<path d="M338.49 363.2L328.58 368.92V375.9L338.49 370.18V363.2Z" fill="#00BCF1"/>
<path d="M374.77 349.24V342.25L365.3 347.72V354.7L374.77 349.24Z" fill="#00BCF1"/>
<path d="M377.39 351.21V358.2L386.87 352.73V345.75L377.39 351.21Z" fill="#00BCF1"/>
<path d="M389.49 351.22L399.31 345.55V338.56L389.49 344.23V351.22Z" fill="#00BCF1"/>
<path d="M389.49 333.75V340.74L399.31 335.07V328.08L389.49 333.75Z" fill="#00BCF1"/>
<path d="M386.87 371.07V364.08L377.39 369.55V376.54L386.87 371.07Z" fill="#00BCF1"/>
<path d="M353.2 393.99V400.98L362.68 395.51V388.52L353.2 393.99Z" fill="#00BCF1"/>
<path d="M365.3 387.01V394L374.77 388.52V381.54L365.3 387.01Z" fill="#00BCF1"/>
<path d="M341.11 400.97V407.96L350.58 402.49V395.5L341.11 400.97Z" fill="#00BCF1"/>
<path d="M350.58 392.01V385.03L341.11 390.5V397.48L350.58 392.01Z" fill="#00BCF1"/>
<path d="M362.68 385.03V378.05L353.2 383.51V390.5L362.68 385.03Z" fill="#00BCF1"/>
<path d="M338.49 392.01L328.58 397.73V404.71L338.49 398.99V392.01Z" fill="#00BCF1"/>
<path d="M374.77 378.05V371.06L365.3 376.53V383.52L374.77 378.05Z" fill="white"/>
<path d="M377.39 380.03V387.01L386.87 381.54V374.56L377.39 380.03Z" fill="#00BCF1"/>
<path d="M389.49 380.03L399.31 374.36V367.38L389.49 373.05V380.03Z" fill="#00BCF1"/>
<path d="M389.49 362.57V369.55L399.31 363.88V356.9L389.49 362.57Z" fill="#00BCF1"/>
<path d="M386.87 399.88V392.89L377.39 398.36V405.35L386.87 399.88Z" fill="#00BCF1"/>
<path d="M374.77 406.86V399.88L365.3 405.35V412.33L374.77 406.86Z" fill="#00BCF1"/>
<path d="M389.49 408.84L399.31 403.17V396.19L389.49 401.86V408.84Z" fill="#00BCF1"/>
<path d="M389.49 391.38V398.37L399.31 392.69V385.71L389.49 391.38Z" fill="#00BCF1"/>
<path d="M243.22 229.76L324 186.99L404.55 229.89L324 276.39L243.22 229.76Z" fill="white"/>
<path d="M323.77 228.16L323.81 144.03" stroke="white" stroke-width="5" stroke-miterlimit="10"/>
<path d="M323.77 231.94L323.81 187.13" stroke="#007DB9" stroke-width="5" stroke-miterlimit="10"/>
</g>
<defs>
<clipPath id="clip0">
<rect width="640" height="400" fill="white"/>
</clipPath>
</defs>
</svg>
