<svg width="600" height="450" viewBox="0 0 600 450" fill="none" xmlns="http://www.w3.org/2000/svg">
<g clip-path="url(#clip0)">
<path d="M-133.85 455.31L617.37 465.06V-42.5102L-133.85 -48.7402V455.31Z" fill="#B2D235"/>
<path d="M-88.8398 375.21L477.82 268.32L494.1 -111.92H-88.8398V375.21Z" fill="#007DB9"/>
<path d="M403.57 57.6399C410.36 52.7899 410.46 42.9099 409.96 34.2999C409.46 25.6899 409.45 15.8299 416.13 10.8399C420.19 7.8399 426.59 6.66991 427.83 1.69991C428.58 -1.30009 427.04 -4.56009 426.99 -7.70009C426.84 -17.4601 440.13 -21.7001 441.56 -31.1701C441.784 -33.126 441.546 -35.1074 440.863 -36.954C440.18 -38.8006 439.073 -40.4607 437.63 -41.8001C435.49 -43.8001 432.76 -45.0801 430.44 -46.8901C425.35 -50.8901 422.65 -57.6101 423.79 -63.4401C424.71 -68.1101 427.79 -72.9001 425.29 -77.3301C423.21 -81.0001 418.4 -82.1801 415 -84.7701C410.36 -88.2601 408.44 -94.4601 409.31 -99.7701C410.18 -105.08 413.42 -109.51 417.31 -113.1L475.82 -153.1L574.87 27.3799L520.63 61.5999L368.43 71.2199L403.57 57.6399Z" fill="#B2D235"/>
<path d="M-88.8504 450.93L149.1 450.93L149.1 161L-88.8504 161L-88.8504 450.93Z" fill="#007DB9"/>
<path d="M-88.8504 454.16L149.1 454.16L149.1 164.23L-88.8504 164.23L-88.8504 454.16Z" fill="#007DB9"/>
<path d="M209.74 350.76L292.2 392.76V338.36C265.2 315.71 236.78 301.25 209.74 296.36V350.76Z" fill="#007DB9"/>
<path d="M224.18 343.63L306.64 385.63V331.23C279.64 308.58 251.22 294.12 224.18 289.23V343.63Z" fill="#007DB9"/>
<path d="M157.39 154.42L415.75 19.6899L420.16 116.11V306.85L239.93 400.38L144.51 352.49V351.84L144.16 352.02V176.18C144.16 171.689 145.394 167.284 147.727 163.447C150.06 159.609 153.403 156.487 157.39 154.42Z" fill="white"/>
<path d="M452.4 226.31L534.86 268.31V213.93C507.86 191.28 479.43 176.81 452.4 171.93V226.31Z" fill="#007DB9"/>
<path d="M389.84 32.73L483.18 -14.21C485.757 -15.5047 488.58 -16.2358 491.461 -16.3548C494.342 -16.4737 497.216 -15.9778 499.89 -14.9L594.29 20.46C597.813 21.7675 600.996 23.8501 603.604 26.5539C606.213 29.2576 608.18 32.5133 609.36 36.08C621.55 73.37 617.36 168.99 617.36 168.99V204.31L420.16 306.85L377 230.8V230.15L376.65 230.33C376.65 230.33 381.72 37 389.84 32.73Z" fill="white"/>
<path d="M226.8 388.27V331.62L157.71 293.8V357.26" stroke="#EC1C24" stroke-width="0.9" stroke-linecap="round" stroke-linejoin="round"/>
<path d="M157.71 293.8L148.17 271.67" stroke="#EC1C24" stroke-width="0.9" stroke-linecap="round" stroke-linejoin="round"/>
<path d="M249.36 357.74L271.67 346.37" stroke="#EC1C24" stroke-width="0.9" stroke-linecap="round" stroke-linejoin="round"/>
<path d="M271.67 340.93L249.36 352.3" stroke="#EC1C24" stroke-width="0.9" stroke-linecap="round" stroke-linejoin="round"/>
<path d="M249.36 368.63L271.67 357.26" stroke="#EC1C24" stroke-width="0.9" stroke-linecap="round" stroke-linejoin="round"/>
<path d="M271.67 351.82L249.36 363.18" stroke="#EC1C24" stroke-width="0.9" stroke-linecap="round" stroke-linejoin="round"/>
<path d="M249.36 374.07L271.67 362.7" stroke="#EC1C24" stroke-width="0.9" stroke-linecap="round" stroke-linejoin="round"/>
<path d="M271.67 357.26L249.36 368.63" stroke="#EC1C24" stroke-width="0.9" stroke-linecap="round" stroke-linejoin="round"/>
<path d="M249.36 384.96L271.67 373.59" stroke="#EC1C24" stroke-width="0.9" stroke-linecap="round" stroke-linejoin="round"/>
<path d="M271.67 368.15L249.36 379.52" stroke="#EC1C24" stroke-width="0.9" stroke-linecap="round" stroke-linejoin="round"/>
<path d="M226.8 331.62L243.16 319.35L243.93 206.26" stroke="#EC1C24" stroke-width="0.9" stroke-linecap="round" stroke-linejoin="round"/>
<path d="M247.05 386.18C238.74 385.42 233.66 376.95 229.74 369.27C225.82 361.59 220.84 353.07 212.56 352.14C207.56 351.57 201.42 353.83 197.84 350.14C195.69 347.94 195.36 344.33 193.84 341.59C189.04 333.1 175.44 336.18 169.41 328.7C168.219 327.132 167.417 325.304 167.069 323.365C166.722 321.427 166.838 319.434 167.41 317.55C168.24 314.73 169.95 312.26 171.03 309.55C173.41 303.55 172.35 296.36 168.41 291.91C165.26 288.35 160.18 285.77 160.09 280.68C160.03 276.45 163.59 273.02 165.25 269.04C167.5 263.68 166.01 257.37 162.59 253.24C159.17 249.11 154.13 246.91 149 245.75L78.3096 240.83L83.9396 446.63L148 448.75L284.2 380.14L247.05 386.18Z" fill="#007DB9"/>
<path d="M225.65 77.1999L225.53 60.6499H227.89L228 77.1799C241.19 77.4899 251.74 84.7099 251.86 101.81C251.99 119.41 227.27 140.92 227.27 140.92C227.27 140.92 202.27 119.77 202.13 102.16C202 85.0599 212.47 77.6999 225.65 77.1999Z" fill="#B2D235"/>
<path d="M226.07 91.4902L210.48 104.76L209.51 103.63L226.05 89.5302L225.97 77.1702L227.46 77.1602L227.63 100.97L228.01 100.51L245.02 114.58L244.07 115.73L227.64 102.14L227.81 125.86L226.31 125.88L226.19 109.42L210.61 122.7L209.64 121.56L226.18 107.47L226.07 91.4902Z" fill="white"/>
<path d="M197.17 30.7998L190.69 36.6498L189.85 35.7198L196.34 29.8798C191.84 24.5698 190.99 17.8798 197.68 11.8798C204.58 5.65976 221.68 7.87976 221.68 7.87976C221.68 7.87976 222.11 25.1498 215.21 31.3698C208.55 37.3598 202 35.8198 197.17 30.7998Z" fill="#B2D235"/>
<path d="M202.66 25.6298L213.35 27.1198L213.24 27.8998L201.89 26.3198L197.05 30.6798L196.52 30.0998L205.85 21.6898L205.53 21.6998L205.12 10.0598L205.91 10.0298L206.31 21.2798L215.6 12.8898L216.13 13.4798L209.68 19.2898L220.38 20.7798L220.27 21.5698L208.92 19.9798L202.66 25.6298Z" fill="white"/>
<path d="M-1.93 -1.99992L-8.41 3.84008L-9.25 2.92008L-2.77 -2.92992C-7.26 -8.23992 -8.12 -14.9299 -1.42 -20.9299C5.48 -27.1399 22.58 -24.9299 22.58 -24.9299C22.58 -24.9299 23 -7.69992 16.15 -1.47992C9.45 4.56008 2.88 3.00008 -1.93 -1.99992Z" fill="#B2D235"/>
<path d="M370.81 24.6201L364.33 30.4701L363.49 29.5401L370 23.7001C365.5 18.3901 364.65 11.7001 371.34 5.70007C378.24 -0.519931 395.34 1.70007 395.34 1.70007C395.34 1.70007 395.77 18.9801 388.87 25.2001C382.19 31.1801 375.63 29.6401 370.81 24.6201Z" fill="#B2D235"/>
<path d="M376.3 19.4501L386.99 20.9401L386.88 21.7201L375.53 20.1401L370.69 24.5001L370.16 23.9201L379.49 15.5101L379.17 15.5201L378.76 3.8801L379.55 3.8501L379.95 15.1001L389.24 6.7101L389.77 7.3001L383.32 13.1101L394.02 14.6001L393.91 15.3801L382.56 13.8001L376.3 19.4501Z" fill="white"/>
<path d="M149.6 67.8598L148.84 67.0298C148.58 67.4098 121.01 102.09 97.8398 153.43L98.8998 153.77C121.92 102.67 149.36 68.1798 149.6 67.8598Z" fill="#B2D235"/>
<path d="M128.31 94.5401C128.31 94.5401 132.74 86.8601 131.18 78.7401C130.63 75.7401 127.07 71.2001 123.85 71.8201C120.63 72.4401 118.85 76.6501 119.71 80.9301C121.27 89.0501 128.31 94.5401 128.31 94.5401Z" fill="#B2D235"/>
<path d="M118.93 110.67C118.93 110.67 119.84 101.88 115.03 95.08C113.28 92.62 108.17 89.9 105.54 91.76C102.91 93.62 102.97 98.19 105.49 101.76C110.27 108.49 118.93 110.67 118.93 110.67Z" fill="#B2D235"/>
<path d="M131.44 96.0001C135.84 99.0436 140.998 100.806 146.34 101.09C149.34 101.17 154.6 99.1701 154.64 96.5601C154.68 93.9501 150.92 91.7401 146.55 91.6201C141.207 91.6672 135.98 93.1824 131.44 96.0001Z" fill="#B2D235"/>
<path d="M121.44 111.92C121.44 111.92 128.05 117.13 136.34 117.31C139.34 117.39 144.58 115.31 144.63 112.47C144.68 109.63 140.92 107.35 136.54 107.24C128.3 107.08 121.44 111.92 121.44 111.92Z" fill="#B2D235"/>
<path d="M109.61 134.16C109.61 134.16 114.61 139.3 120.96 139.45C123.27 139.45 127.25 137.37 127.3 134.58C127.35 131.79 124.48 129.44 121.17 129.37C114.83 129.22 109.61 134.16 109.61 134.16Z" fill="#B2D235"/>
<path d="M106.83 132.5C106.83 132.5 108.09 125.76 105.12 119.79C104.05 117.59 100.45 114.66 98.3704 115.72C96.2904 116.78 96.0204 120.31 97.6204 123.49C100.64 129.48 106.83 132.5 106.83 132.5Z" fill="#B2D235"/>
<path d="M138.93 82.5298C138.93 82.5298 148.86 80.2898 154.64 72.6398C156.77 69.8798 158.01 63.3598 155.13 61.1898C152.25 59.0198 147.24 60.7398 144.21 64.7798C138.37 72.4098 138.93 82.5298 138.93 82.5298Z" fill="#B2D235"/>
<path d="M249.6 45.5198L250.16 46.5198C250.5 46.2098 285.09 18.5198 319.16 -26.3602L318.16 -26.9302C284.34 17.7398 249.91 45.2598 249.6 45.5198Z" fill="#EC1C24"/>
<path d="M276.3 24.25C276.3 24.25 270.3 30.76 269.98 39.02C269.86 42.02 272.31 47.28 275.59 47.39C278.87 47.5 281.59 43.8 281.65 39.39C281.94 31.17 276.3 24.25 276.3 24.25Z" fill="#EC1C24"/>
<path d="M289 10.6201C289 10.6201 286.16 18.9801 289.34 26.6801C290.5 29.4601 294.87 33.2601 297.84 32.0201C300.81 30.7801 301.78 26.3301 300.13 22.2801C297 14.6601 289 10.6201 289 10.6201Z" fill="#EC1C24"/>
<path d="M273.58 22.0899C269.968 18.1472 265.332 15.2843 260.19 13.8199C257.26 13.0699 251.71 13.8199 251.09 16.3899C250.47 18.9599 253.63 21.9199 257.87 23.0099C263.091 24.1519 268.527 23.8336 273.58 22.0899Z" fill="#EC1C24"/>
<path d="M286.87 8.83023C286.87 8.83023 281.58 2.28023 273.54 0.260227C270.62 -0.479773 265.04 0.420227 264.38 3.13023C263.72 5.84023 266.86 9.00023 271.1 10.0002C279.1 12.0002 286.87 8.83023 286.87 8.83023Z" fill="#EC1C24"/>
<path d="M305.69 -8C305.69 -8 303 -1.68 304.53 4.8C305.08 7.18 307.94 10.8 310.2 10.27C312.46 9.74 313.51 6.27 312.67 2.86C311.05 -3.66 305.69 -8 305.69 -8Z" fill="#EC1C24"/>
<path d="M263.27 33.5898C263.27 33.5898 253.09 33.5898 245.75 39.7298C243.06 41.9598 240.41 48.0398 242.75 50.7898C245.09 53.5398 250.35 52.9798 254.2 49.7198C261.56 43.5898 263.27 33.5898 263.27 33.5898Z" fill="#EC1C24"/>
<path d="M360 57.9101L372.11 62.4301L371.46 64.1601L359.36 59.6401C355.46 69.1701 347.25 74.8601 334.74 70.1901C321.86 65.3801 313.06 41.3601 313.06 41.3601C313.06 41.3601 335.48 29.0001 348.36 33.8101C360.87 38.4801 363.34 48.1501 360 57.9101Z" fill="#B2D235"/>
<path d="M349.49 54.2399L344.14 39.1699L345.24 38.7799L350.92 54.7699L359.96 58.1499L359.55 59.2399L342.13 52.7399L342.37 53.1499L327.36 61.6299L326.79 60.6199L341.28 52.4199L323.92 45.9299L324.33 44.8399L336.37 49.3399L331.02 34.2699L332.12 33.8799L337.8 49.8699L349.49 54.2399Z" fill="white"/>
<path d="M108.22 179L96.2199 182.84L95.6699 181.12L107.67 177.28C104.9 167.58 107.77 158.28 120.22 154.28C133.03 150.19 154.34 163.28 154.34 163.28C154.34 163.28 144.59 186.34 131.77 190.44C119.33 194.48 111.58 188.53 108.22 179Z" fill="#EC1C24"/>
<path d="M118.55 175.47L131.78 183.83L131.17 184.79L117.13 175.93L108.13 178.8L107.78 177.71L125.11 172.18L124.69 172L131.09 156.4L132.15 156.83L125.96 171.91L143.24 166.39L143.58 167.48L131.6 171.31L144.83 179.66L144.22 180.63L130.18 171.76L118.55 175.47Z" fill="white"/>
<path d="M41.0602 15.2499L29.0002 19.0899L28.4502 17.3699L40.4502 13.5299C37.6802 3.83995 40.5502 -5.47005 53.0002 -9.47005C65.8702 -13.5701 87.1802 -0.420054 87.1802 -0.420054C87.1802 -0.420054 77.4302 22.6399 64.6202 26.7299C52.1702 30.6999 44.4202 24.7499 41.0602 15.2499Z" fill="#EC1C24"/>
<path d="M51.3901 11.7001L64.6201 20.0501L64.0101 21.0201L49.9701 12.1501L40.9701 15.0201L40.6201 13.9301L57.9501 8.40012L57.5301 8.22012L63.9301 -7.37988L64.9901 -6.94988L58.8001 8.13012L76.0801 2.61012L76.4201 3.70012L64.4501 7.53012L77.6701 15.8801L77.0601 16.8501L63.0201 7.98012L51.3901 11.7001Z" fill="white"/>
<path d="M93.0498 336L93.9198 336.71C94.1298 336.3 116.65 298.15 132.52 244.1L131.42 243.91C115.66 297.7 93.2498 335.64 93.0498 336Z" fill="#B2D235"/>
<path d="M110.46 306.63C110.46 306.63 107.14 314.85 109.8 322.68C110.8 325.53 114.91 329.58 118.02 328.52C121.13 327.46 122.31 323.04 120.85 318.93C118.19 311.1 110.46 306.63 110.46 306.63Z" fill="#B2D235"/>
<path d="M117.52 289.37C117.52 289.37 117.84 298.2 123.52 304.26C125.59 306.45 131.03 308.45 133.37 306.26C135.71 304.07 135.03 299.54 132.05 296.34C126.41 290.32 117.52 289.37 117.52 289.37Z" fill="#B2D235"/>
<path d="M107.15 305.58C102.374 303.166 97.0217 302.127 91.6899 302.58C88.6899 302.92 83.7799 305.58 84.0999 308.22C84.4199 310.86 88.4399 312.48 92.7899 311.99C98.0737 311.21 103.041 308.993 107.15 305.58Z" fill="#B2D235"/>
<path d="M114.87 288.47C114.87 288.47 107.6 284.22 99.3696 285.19C96.3696 285.53 91.4796 288.35 91.8196 291.12C92.1596 293.89 96.2096 295.68 100.56 295.19C108.74 294.21 114.87 288.47 114.87 288.47Z" fill="#B2D235"/>
<path d="M123.52 264.81C123.52 264.81 117.83 260.41 111.52 261.14C109.23 261.41 105.58 264.07 105.92 266.83C106.26 269.59 109.42 271.53 112.71 271.15C119 270.42 123.52 264.81 123.52 264.81Z" fill="#B2D235"/>
<path d="M126.49 266.07C126.49 266.07 126.17 272.92 129.94 278.43C131.31 280.43 135.28 282.86 137.19 281.53C139.1 280.2 138.88 276.65 136.87 273.72C133 268.21 126.49 266.07 126.49 266.07Z" fill="#B2D235"/>
<path d="M101.6 320C101.6 320 92.0802 323.59 87.4002 332C85.6702 335 85.3502 341.66 88.5002 343.41C91.6502 345.16 96.3702 342.77 98.8202 338.35C103.55 329.94 101.6 320 101.6 320Z" fill="#B2D235"/>
<path d="M134.47 12.6202C135.94 11.5602 137.35 10.6202 138.68 9.62024C133.921 6.55386 128.781 4.12639 123.39 2.40024C112.89 -1.04976 103.83 5.28024 103.39 11.8302C102.95 18.3802 105.03 22.0302 99.2296 23.8302C93.4296 25.6302 86.2296 27.1702 89.6296 37.6202C93.0296 48.0702 82.2496 49.0002 84.8896 61.0002C85.0864 62.1309 85.5117 63.2095 86.1396 64.1702C91.1396 51.6002 101.39 39.9602 112.38 30.1002C101.17 26.2202 89.5096 33.7802 89.3796 33.8602L88.9396 33.1802C89.0996 33.1202 101.36 25.1802 113.09 29.5102C115.54 27.3202 118.09 25.2202 120.52 23.2102C113.22 18.3502 103.92 20.7602 103.84 20.7902L103.62 20.0002C103.7 20.0002 113.53 17.4002 121.18 22.6602C123.24 21.0002 125.27 19.4202 127.27 17.9002C114.19 11.0502 103.89 14.7102 103.78 14.7302L103.48 13.9702C105.848 13.231 108.319 12.8699 110.8 12.9002C116.823 12.9188 122.742 14.4709 128 17.4102C130 15.9002 132 14.4102 133.86 13.1102C119 2.50024 106.23 7.39024 106.11 7.44024L105.8 6.68024C108.604 5.72725 111.56 5.2968 114.52 5.41024C119.3 5.50024 126.61 6.83024 134.47 12.6202Z" fill="#B2D235"/>
<path d="M87.0002 65.05L86.7402 64.94C90.9002 68.19 99.7402 57.16 109.8 56.41C121.91 55.53 116.64 51.25 123.23 46.53C129.82 41.81 138.08 42.17 143.65 35.67C149.22 29.17 140.2 10.67 140.2 10.67C140.2 10.67 140.03 10.53 139.7 10.29L136.59 12.49C144.4 25.68 139.03 39.22 138.94 39.35L138.25 39.05C138.31 38.91 143.5 25.79 135.92 12.97C133.32 14.83 130.54 16.88 127.66 19.05C130.66 22.56 132.14 27.68 131.96 33.9C131.878 36.8212 131.462 39.7234 130.72 42.55L129.94 42.31C129.99 42.17 134.05 27.77 126.99 19.55C124.84 21.18 122.67 22.89 120.45 24.69C125.66 34.62 122.59 46.47 122.57 46.59L121.77 46.39C121.77 46.27 124.77 34.85 119.77 25.2C118.77 25.98 117.87 26.8 116.9 27.61C122.9 44.61 113.21 55.61 113.09 55.79L112.5 55.25C114.298 53.014 115.679 50.4738 116.58 47.75C118.674 41.3792 118.561 34.489 116.26 28.19C113.65 30.45 111.04 32.79 108.51 35.25C112.57 45.25 105.97 56.79 105.84 56.93L105.18 56.55C105.24 56.41 111.57 45.42 107.92 35.85C99.0902 44.62 91.2002 54.48 87.0002 65.05Z" fill="#B2D235"/>
<path d="M203.23 -24.4398L202.23 -25.0298C191.71 -7.43979 176.41 -3.86979 162.93 -0.699785C155.56 1.05021 148.61 2.64021 143.29 6.38021L142.11 7.23022C141 8.00022 140 8.75021 138.77 9.57021C138.793 9.60512 138.829 9.63007 138.87 9.64022L139.38 9.30022L139.92 10.0502C139.84 10.0502 139.77 10.1602 139.69 10.1902C139.61 10.2202 139.77 10.2502 139.82 10.2802C140.82 9.55022 141.82 8.88021 142.74 8.22021L143.93 7.37022C149.06 3.76022 155.93 2.18022 163.15 0.480215C176.89 -2.73978 192.43 -6.33978 203.23 -24.4398Z" fill="#B2D235"/>
<path d="M133.94 13.1799C133.905 13.1589 133.872 13.1355 133.84 13.1099C132 14.4499 130 15.8799 128 17.4099L128.14 17.4699C130.07 15.9999 132 14.5799 133.94 13.1799Z" fill="#B2D235"/>
<path d="M127.42 17.9999L127.28 17.9399C125.28 19.4599 123.28 21.0399 121.2 22.6999C121.229 22.7319 121.263 22.759 121.3 22.7799C123.33 21.1299 125.35 19.5499 127.42 17.9999Z" fill="#B2D235"/>
<path d="M127.68 19.0001C127.68 19.0001 127.76 19.0701 127.77 19.1101C130.65 16.9001 133.43 14.8801 136.03 13.0201C135.997 12.9826 135.973 12.9382 135.96 12.8901C133.2 14.8401 130.42 16.8601 127.68 19.0001Z" fill="#B2D235"/>
<path d="M136.7 12.5102L139.81 10.3102C139.75 10.3102 139.74 10.2402 139.68 10.2202C138.68 10.9302 137.68 11.6602 136.62 12.3802C136.638 12.4285 136.665 12.4727 136.7 12.5102Z" fill="#B2D235"/>
<path d="M120.48 24.5702C120.516 24.6077 120.543 24.6519 120.56 24.7002C122.76 22.9402 124.95 21.2002 127.1 19.5702C127.1 19.5702 127.02 19.5102 127.01 19.4702C124.81 21.1402 122.63 22.8502 120.48 24.5702Z" fill="#B2D235"/>
<path d="M138.86 9.6701C138.836 9.63519 138.801 9.61025 138.76 9.6001C137.43 10.6001 136.02 11.5301 134.55 12.6001C134.55 12.6001 134.62 12.6601 134.65 12.6701C136.07 11.6501 137.45 10.6501 138.86 9.6701Z" fill="#B2D235"/>
<path d="M165.18 373.77L156.67 364.45L158 363.23L166.52 372.56C174.16 366.01 183.83 364.72 192.62 374.35C201.62 384.28 198.62 409.09 198.62 409.09C198.62 409.09 173.62 409.86 164.62 399.93C155.79 390.3 158 380.79 165.18 373.77Z" fill="#B2D235"/>
<path d="M172.71 381.67L170.65 397.15L169.52 397L171.71 380.57L165.35 373.6L166.2 372.83L178.44 386.25L178.42 385.79L195.25 385.1L195.3 386.24L179.04 386.91L191.24 400.28L190.4 401.05L181.94 391.78L179.87 407.26L178.74 407.11L180.94 390.68L172.71 381.67Z" fill="white"/>
<path d="M131 408.9L141.73 415.56L140.73 417.09L130 410.44C124.43 418.82 115.48 422.7 104.39 415.82C93.0702 408.74 89.2402 384 89.2402 384C89.2402 384 113.07 376.45 124.49 383.53C135.57 390.45 136.08 400.19 131 408.9Z" fill="#00BCF1"/>
<path d="M121.64 403.36L119.41 387.9L120.54 387.74L122.91 404.15L130.92 409.12L130.32 410.09L114.89 400.51L115.03 400.95L99.0199 406.2L98.6699 405.12L114.13 400.04L98.7399 390.5L99.3399 389.53L110.01 396.15L107.78 380.69L108.91 380.52L111.28 396.93L121.64 403.36Z" fill="white"/>
<path d="M22.9197 247.78L8.67969 239.36L9.87969 237.36L24.1297 245.79C31.1897 234.65 42.8097 229.32 57.5297 238.03C72.6797 247.03 78.3797 279.26 78.3797 279.26C78.3797 279.26 47.3797 289.8 32.2097 280.84C17.4897 272.09 16.5597 259.34 22.9197 247.78Z" fill="#B2D235"/>
<path d="M35.3903 254.79L38.7303 274.99L37.2603 275.23L33.7103 253.79L23.0703 247.5L23.8303 246.21L44.3203 258.34L44.1203 257.77L64.9503 250.44L65.4403 251.85L45.3203 258.93L65.7503 271.01L64.9903 272.3L50.8303 263.92L54.1703 284.12L52.7003 284.37L49.1503 262.93L35.3903 254.79Z" fill="white"/>
<path d="M-8.14965 443.77L-6.47966 452.34L-7.69966 452.58L-9.36966 444C-16.2397 445.12 -22.3697 442.4 -24.1297 433.55C-25.9097 424.44 -15.1897 410.89 -15.1897 410.89C-15.1897 410.89 -0.189655 419.42 1.62034 428.53C3.34034 437.4 -1.35965 442.23 -8.14965 443.77Z" fill="#B2D235"/>
<path d="M52.6699 96.2802L54.3399 104.85L53.1099 105.09L51.4399 96.5202C44.5799 97.6402 38.4399 94.9302 36.6799 86.0702C34.8999 77.0002 45.6199 63.4102 45.6199 63.4102C45.6199 63.4102 60.6199 71.9402 62.4299 81.0602C64.1499 89.9102 59.4499 94.7402 52.6699 96.2802Z" fill="#B2D235"/>
<path d="M51.0602 88.9199L57.8502 80.5199L58.4602 81.0199L51.2602 89.9299L52.5002 96.3299L51.7302 96.4799L49.3302 84.1499L49.1702 84.4299L38.9902 78.7899L39.3702 78.0999L49.2102 83.5499L46.8202 71.2599L47.5902 71.1099L49.2502 79.6299L56.0402 71.2299L56.6502 71.7299L49.4502 80.6399L51.0602 88.9199Z" fill="white"/>
<path d="M-32.9003 295.34L-33.7803 296C-33.4703 296.3 -5.02028 326.66 39.6797 354.32L40.1597 353.32C-4.34027 325.83 -32.6303 295.61 -32.9003 295.34Z" fill="#B2D235"/>
<path d="M2.7097 329.53C2.7097 329.53 -5.3903 327.79 -12.4603 331.86C-15.0203 333.34 -18.3203 338.09 -16.9603 340.86C-15.6003 343.63 -11.3203 344 -7.5903 341.86C-0.590305 337.82 2.7097 329.53 2.7097 329.53Z" fill="#B2D235"/>
<path d="M4.25986 327.19C4.25986 327.19 10.1099 321.19 11.4899 313.09C11.9999 310.14 10.7799 304.81 8.16986 304.49C5.55986 304.17 2.82986 307.65 2.07986 311.92C1.35873 317.114 2.11421 322.406 4.25986 327.19Z" fill="#B2D235"/>
<path d="M23.3496 340.92C23.3496 340.92 28.9096 336.49 29.9696 330.29C30.3496 328.03 28.9696 323.93 26.3396 323.61C23.7096 323.29 21.1196 325.88 20.5596 329.13C19.4996 335.33 23.3496 340.92 23.3496 340.92Z" fill="#B2D235"/>
<path d="M21.3997 343.48C17.3835 342.421 13.141 342.603 9.22973 344C7.00973 344.84 3.73973 348.09 4.42973 350.22C5.11973 352.35 8.42973 352.97 11.5997 351.71C17.6597 349.27 21.3997 343.48 21.3997 343.48Z" fill="#B2D235"/>
<path d="M8.12008 210.94H9.25008C9.16008 210.49 3.25008 166.58 -17.6699 114.29L-18.6699 114.81C2.21008 166.85 8.06008 210.54 8.12008 210.94Z" fill="#EC1C24"/>
<path d="M3.65039 177.09C3.65039 177.09 6.12039 185.61 13.0504 190.09C15.5604 191.75 21.3304 192.36 23.1204 189.61C24.9104 186.86 23.1204 182.61 19.4204 180.31C12.4804 175.83 3.65039 177.09 3.65039 177.09Z" fill="#EC1C24"/>
<path d="M-1.48047 159.16C-1.48047 159.16 4.22953 165.9 12.4595 167.16C15.4595 167.61 20.9495 165.81 21.4595 162.63C21.9695 159.45 18.6095 156.32 14.2795 155.63C6.09953 154.42 -1.48047 159.16 -1.48047 159.16Z" fill="#EC1C24"/>
<path d="M0.400351 178.31C-4.84535 179.372 -9.69246 181.872 -13.5997 185.53C-15.7397 187.65 -17.9297 192.81 -16.0797 194.65C-14.2297 196.49 -10.0796 195.32 -6.90965 192.24C-3.24283 188.354 -0.714132 183.535 0.400351 178.31Z" fill="#EC1C24"/>
<path d="M-8.83008 135.3C-8.83008 135.3 -4.83008 140.88 1.51992 142.88C3.84992 143.63 8.45992 143.07 9.12992 140.88C9.79992 138.69 7.44992 136 4.05992 134.9C-2.36008 132.93 -8.83008 135.3 -8.83008 135.3Z" fill="#EC1C24"/>
<path d="M4.99961 193.07C4.99961 193.07 -0.270388 201.78 1.22961 211.25C1.74961 214.71 5.58961 220.11 9.13961 219.54C12.6896 218.97 14.9396 214.16 14.1396 209.18C12.6296 199.69 4.99961 193.07 4.99961 193.07Z" fill="#EC1C24"/>
<path d="M55.3798 155.4L52.9997 142.7L54.8098 142.36L57.1897 155.06C67.3697 153.47 76.4798 157.56 78.9398 170.68C81.4798 184.2 65.4597 204.15 65.4597 204.15C65.4597 204.15 43.2997 191.36 40.7697 177.84C38.3097 164.72 45.3197 157.61 55.3798 155.4Z" fill="#B2D235"/>
<path d="M57.6796 166.32L47.5396 178.69L46.6396 177.95L57.3997 164.83L55.6196 155.34L56.7696 155.13L60.1996 173.4L60.4296 172.99L75.4496 181.45L74.8697 182.47L60.3596 174.29L63.7796 192.5L62.6297 192.72L60.2596 180.09L50.1196 192.45L49.2197 191.71L59.9796 178.59L57.6796 166.32Z" fill="white"/>
<path d="M43.3099 426.75L40.3999 439.06L38.6399 438.64L41.5499 426.34C31.8199 423.71 25.2899 416.44 28.2999 403.73C31.3999 390.64 53.6399 379.15 53.6399 379.15C53.6399 379.15 68.3799 399.39 65.2899 412.48C62.2799 425.19 53.1899 428.77 43.3099 426.75Z" fill="#EC1C24"/>
<path d="M45.5902 416.07L59.5602 409.04L60.0802 410.06L45.2402 417.52L43.0702 426.71L41.9602 426.45L46.1502 408.74L45.7802 409.02L35.7002 395.49L36.6202 394.81L46.3502 407.88L50.5302 390.23L51.6402 390.49L48.7402 402.73L62.7202 395.7L63.2302 396.72L48.4002 404.18L45.5902 416.07Z" fill="white"/>
<path d="M2.54984 56.06L4.19984 43.54L5.99984 43.77L4.33984 56.29C14.2698 57.91 21.4898 64.48 19.7898 77.41C18.0298 90.73 -2.90016 104.41 -2.90016 104.41C-2.90016 104.41 -19.5902 85.78 -17.8402 72.46C-16.1402 59.52 -7.46016 55.05 2.54984 56.06Z" fill="#B2D235"/>
<path d="M1.37004 66.9001L-11.81 75.3001L-12.42 74.3401L1.56004 65.4201L2.79004 56.0801L3.92004 56.2201L1.55004 74.2301L1.89004 73.9201L13.27 86.3501L12.43 87.1201L1.44004 75.1101L-0.929961 93.0701L-2.05996 92.9201L-0.419961 80.4701L-13.59 88.8701L-14.21 87.9101L-0.22996 78.9901L1.37004 66.9001Z" fill="white"/>
<path d="M254.43 322.72L420.16 236.58V127.36L254.43 213.5V322.72Z" fill="#007DB9"/>
<path d="M348.35 344.27V336.12C348.35 303.01 320.83 314.86 320.83 314.86C305.24 322.8 291.67 345.37 291.67 365V373.83" fill="#007DB9"/>
<path d="M340.301 361.479C348.796 343.386 346.823 324.56 335.894 319.429C324.966 314.298 309.22 324.806 300.726 342.898C292.232 360.99 294.205 379.817 305.133 384.948C316.062 390.078 331.807 379.571 340.301 361.479Z" fill="#007DB9"/>
<path d="M332.132 357.028C336.3 348.15 335.331 338.91 329.967 336.392C324.602 333.873 316.875 339.029 312.706 347.908C308.537 356.787 309.507 366.026 314.871 368.545C320.235 371.063 327.963 365.907 332.132 357.028Z" fill="#00BCF1"/>
<path d="M321.382 353.633C324.436 347.129 323.726 340.361 319.796 338.516C315.867 336.671 310.206 340.448 307.152 346.952C304.099 353.456 304.808 360.224 308.738 362.069C312.667 363.914 318.328 360.137 321.382 353.633Z" stroke="#007DB9" stroke-width="0.9" stroke-miterlimit="10"/>
<path d="M316.503 351.342C317.46 349.303 317.235 347.179 316.001 346.599C314.766 346.02 312.988 347.203 312.031 349.243C311.073 351.283 311.298 353.406 312.533 353.986C313.768 354.566 315.545 353.382 316.503 351.342Z" stroke="#007DB9" stroke-width="0.9" stroke-miterlimit="10"/>
<path d="M311.019 347.594C311.425 346.729 311.333 345.83 310.813 345.586C310.293 345.342 309.543 345.845 309.137 346.71C308.731 347.575 308.823 348.474 309.343 348.718C309.863 348.962 310.613 348.459 311.019 347.594Z" stroke="#007DB9" stroke-width="0.9" stroke-miterlimit="10"/>
<path d="M319.378 353.881C319.784 353.016 319.692 352.117 319.172 351.873C318.652 351.629 317.901 352.132 317.495 352.997C317.089 353.862 317.181 354.761 317.701 355.005C318.221 355.249 318.972 354.746 319.378 353.881Z" stroke="#007DB9" stroke-width="0.9" stroke-miterlimit="10"/>
<path d="M321.12 347.722C321.526 346.857 321.434 345.958 320.914 345.714C320.394 345.47 319.643 345.973 319.237 346.838C318.831 347.703 318.923 348.602 319.443 348.846C319.963 349.09 320.714 348.587 321.12 347.722Z" stroke="#007DB9" stroke-width="0.9" stroke-miterlimit="10"/>
<path d="M309.277 353.753C309.683 352.888 309.591 351.989 309.071 351.745C308.551 351.5 307.8 352.004 307.394 352.869C306.988 353.733 307.081 354.632 307.601 354.877C308.121 355.121 308.871 354.617 309.277 353.753Z" stroke="#007DB9" stroke-width="0.9" stroke-miterlimit="10"/>
<path d="M315.202 358.191C315.608 357.326 315.516 356.427 314.996 356.183C314.476 355.938 313.725 356.442 313.319 357.307C312.913 358.171 313.005 359.07 313.525 359.315C314.045 359.559 314.796 359.055 315.202 358.191Z" stroke="#007DB9" stroke-width="0.9" stroke-miterlimit="10"/>
<path d="M315.195 343.284C315.601 342.419 315.509 341.52 314.989 341.276C314.469 341.032 313.718 341.535 313.312 342.4C312.906 343.265 312.999 344.164 313.519 344.408C314.038 344.652 314.789 344.149 315.195 343.284Z" stroke="#007DB9" stroke-width="0.9" stroke-miterlimit="10"/>
<path d="M319.377 343.332C319.783 342.467 319.691 341.568 319.171 341.324C318.651 341.08 317.9 341.583 317.494 342.448C317.088 343.313 317.18 344.212 317.7 344.456C318.22 344.7 318.971 344.197 319.377 343.332Z" stroke="#007DB9" stroke-width="0.9" stroke-miterlimit="10"/>
<path d="M311.02 358.133C311.426 357.269 311.334 356.37 310.814 356.125C310.294 355.881 309.544 356.385 309.138 357.249C308.732 358.114 308.824 359.013 309.344 359.257C309.864 359.502 310.614 358.998 311.02 358.133Z" stroke="#007DB9" stroke-width="0.9" stroke-miterlimit="10"/>
<path d="M149.11 231.12L231.57 273.12V218.74C204.57 196.09 176.14 181.62 149.11 176.74V231.12Z" fill="#007DB9"/>
<path d="M298 361.75C298.08 345.43 308.76 326.75 321.85 320.11C334.94 313.47 345.49 321.27 345.41 337.6" stroke="#00BCF1" stroke-width="0.77" stroke-miterlimit="10"/>
<path d="M575.72 226.11V218C575.72 184.89 548.2 196.74 548.2 196.74C532.61 204.64 519 227.21 519 246.84V255.67" fill="#007DB9"/>
<path d="M567.686 243.606C576.18 225.513 574.207 206.687 563.279 201.556C552.35 196.425 536.605 206.933 528.111 225.025C519.616 243.117 521.59 261.944 532.518 267.074C543.447 272.205 559.192 261.698 567.686 243.606Z" fill="#007DB9"/>
<path d="M559.513 238.867C563.682 229.988 562.713 220.749 557.348 218.23C551.984 215.712 544.256 220.868 540.088 229.746C535.919 238.625 536.889 247.864 542.253 250.383C547.617 252.901 555.345 247.745 559.513 238.867Z" fill="#00BCF1"/>
<path d="M559.776 238.708C562.83 232.204 562.12 225.436 558.191 223.591C554.261 221.746 548.6 225.523 545.547 232.027C542.493 238.531 543.203 245.299 547.132 247.144C551.062 248.989 556.723 245.212 559.776 238.708Z" fill="#00BCF1" stroke="#007DB9" stroke-width="0.9" stroke-miterlimit="10"/>
<path d="M554.897 236.417C555.855 234.377 555.63 232.254 554.395 231.674C553.16 231.094 551.383 232.278 550.425 234.318C549.468 236.357 549.692 238.481 550.927 239.06C552.162 239.64 553.939 238.457 554.897 236.417Z" fill="#00BCF1" stroke="#007DB9" stroke-width="0.9" stroke-miterlimit="10"/>
<path d="M549.414 232.669C549.82 231.804 549.728 230.905 549.208 230.661C548.688 230.416 547.937 230.92 547.531 231.785C547.125 232.649 547.217 233.548 547.737 233.793C548.257 234.037 549.008 233.533 549.414 232.669Z" fill="#00BCF1" stroke="#007DB9" stroke-width="0.9" stroke-miterlimit="10"/>
<path d="M557.772 238.946C558.178 238.081 558.086 237.182 557.566 236.938C557.046 236.694 556.296 237.197 555.89 238.062C555.483 238.927 555.576 239.826 556.096 240.07C556.616 240.314 557.366 239.811 557.772 238.946Z" fill="#00BCF1" stroke="#007DB9" stroke-width="0.9" stroke-miterlimit="10"/>
<path d="M559.515 232.787C559.921 231.922 559.828 231.023 559.308 230.779C558.788 230.535 558.038 231.038 557.632 231.903C557.226 232.768 557.318 233.667 557.838 233.911C558.358 234.155 559.108 233.652 559.515 232.787Z" fill="#00BCF1" stroke="#007DB9" stroke-width="0.9" stroke-miterlimit="10"/>
<path d="M547.682 238.827C548.088 237.962 547.995 237.063 547.475 236.819C546.955 236.575 546.205 237.078 545.799 237.943C545.393 238.808 545.485 239.707 546.005 239.951C546.525 240.195 547.275 239.692 547.682 238.827Z" fill="#00BCF1" stroke="#007DB9" stroke-width="0.9" stroke-miterlimit="10"/>
<path d="M553.597 243.256C554.003 242.391 553.91 241.492 553.39 241.248C552.87 241.003 552.12 241.507 551.714 242.372C551.308 243.236 551.4 244.135 551.92 244.379C552.44 244.624 553.19 244.12 553.597 243.256Z" fill="#00BCF1" stroke="#007DB9" stroke-width="0.9" stroke-miterlimit="10"/>
<path d="M553.59 228.349C553.996 227.484 553.903 226.585 553.384 226.341C552.864 226.097 552.113 226.6 551.707 227.465C551.301 228.33 551.393 229.229 551.913 229.473C552.433 229.717 553.184 229.214 553.59 228.349Z" fill="#00BCF1" stroke="#007DB9" stroke-width="0.9" stroke-miterlimit="10"/>
<path d="M557.771 228.406C558.177 227.542 558.085 226.643 557.565 226.398C557.045 226.154 556.295 226.658 555.889 227.522C555.482 228.387 555.575 229.286 556.095 229.53C556.615 229.774 557.365 229.271 557.771 228.406Z" fill="#00BCF1" stroke="#007DB9" stroke-width="0.9" stroke-miterlimit="10"/>
<path d="M549.415 243.208C549.821 242.343 549.729 241.444 549.209 241.2C548.689 240.956 547.938 241.459 547.532 242.324C547.126 243.189 547.218 244.088 547.738 244.332C548.258 244.576 549.009 244.073 549.415 243.208Z" fill="#00BCF1" stroke="#007DB9" stroke-width="0.9" stroke-miterlimit="10"/>
<path d="M525.41 243.59C525.49 227.27 536.17 208.59 549.26 201.95C562.35 195.31 572.9 203.11 572.82 219.44" stroke="#00BCF1" stroke-width="0.77" stroke-miterlimit="10"/>
<path d="M420.16 236.58L595.39 144.75V36.2798L420.16 127.36V236.58Z" fill="#007DB9"/>
<path d="M595.39 215.17V143.51" stroke="#EC1C24" stroke-width="0.75" stroke-linecap="round" stroke-linejoin="round"/>
<path d="M595.39 181.46L617.39 168.99C617.39 168.99 622.91 60.5602 607.31 30.6602L595.41 36.2802L595.39 181.46Z" fill="#007DB9"/>
<path d="M617.12 83.8999L254.43 260.07V322.72L618.29 133.75L617.12 83.8999Z" fill="url(#paint0_linear)"/>
<path d="M595.39 36.2798V144.7" stroke="#00BCF1" stroke-width="0.75" stroke-linecap="round" stroke-linejoin="round"/>
<path d="M231.57 246.21L149.11 204.01V231.12L231.57 273.13V246.21Z" fill="url(#paint1_linear)"/>
<path d="M565.18 21.8301L238.67 189.71" stroke="#00BCF1" stroke-width="0.9" stroke-miterlimit="10"/>
<path d="M548.4 15.04L238.67 174.31" stroke="#00BCF1" stroke-width="0.9" stroke-miterlimit="10"/>
<path d="M531.62 8.25977L238.67 158.91" stroke="#00BCF1" stroke-width="0.9" stroke-miterlimit="10"/>
<path d="M514.83 1.47021L238.67 143.51" stroke="#00BCF1" stroke-width="0.9" stroke-miterlimit="10"/>
<path d="M498.2 -5.39014L238.67 128.12" stroke="#00BCF1" stroke-width="0.9" stroke-miterlimit="10"/>
<path d="M396.05 318.36V248.1" stroke="#EC1C24" stroke-width="0.9" stroke-linecap="round" stroke-linejoin="round"/>
<path d="M373.32 330.15V259.92" stroke="#EC1C24" stroke-width="0.75" stroke-linecap="round" stroke-linejoin="round"/>
<path d="M396.05 248.1V139.63" stroke="#00BCF1" stroke-width="0.9" stroke-linecap="round" stroke-linejoin="round"/>
<path d="M373.32 151.5V259.92" stroke="#00BCF1" stroke-width="0.9" stroke-linecap="round" stroke-linejoin="round"/>
<path d="M506.39 83.9302V192.3" stroke="#00BCF1" stroke-width="0.9" stroke-linecap="round" stroke-linejoin="round"/>
<path d="M243.47 273.99V384.96" stroke="#EC1C24" stroke-width="0.9" stroke-linecap="round" stroke-linejoin="round"/>
</g>
<defs>
<linearGradient id="paint0_linear" x1="446.7" y1="224.75" x2="421.36" y2="175.02" gradientUnits="userSpaceOnUse">
<stop stop-color="#007DB9"/>
<stop offset="0.32" stop-color="#0080BB"/>
<stop offset="0.55" stop-color="#0089C3"/>
<stop offset="0.74" stop-color="#0098D1"/>
<stop offset="0.91" stop-color="#00AEE4"/>
<stop offset="1" stop-color="#00BCF1"/>
</linearGradient>
<linearGradient id="paint1_linear" x1="43997.2" y1="19739.4" x2="46900.8" y2="13225" gradientUnits="userSpaceOnUse">
<stop stop-color="#007DB9"/>
<stop offset="0.32" stop-color="#0080BB"/>
<stop offset="0.55" stop-color="#0089C3"/>
<stop offset="0.74" stop-color="#0098D1"/>
<stop offset="0.91" stop-color="#00AEE4"/>
<stop offset="1" stop-color="#00BCF1"/>
</linearGradient>
<clipPath id="clip0">
<rect width="600" height="450" fill="white"/>
</clipPath>
</defs>
</svg>
