<svg width="500" height="500" viewBox="0 0 500 500" fill="none" xmlns="http://www.w3.org/2000/svg">
<path d="M500 0H0V500H500V0Z" fill="#B2D235"/>
<path d="M340.26 139.85H149.22C141.88 139.85 135.93 145.8 135.93 153.14V389.7C135.93 397.04 141.88 402.99 149.22 402.99H340.26C347.6 402.99 353.55 397.04 353.55 389.7V153.14C353.55 145.8 347.6 139.85 340.26 139.85Z" fill="#007DB9"/>
<path d="M177.73 176.69V303.02V310.7V328.1L194.48 315.41L211.23 328.1L227.98 315.41L244.73 328.1L261.48 315.41L278.24 328.1L294.99 315.41L311.75 328.1V310.7V303.02V176.69H177.73Z" fill="white"/>
<path d="M281.17 217.81L239.51 262.42L217.31 241.69" stroke="#B2D235" stroke-width="8" stroke-miterlimit="10"/>
<path d="M334 185.69H155.53C155.53 185.69 158.81 161.27 212.7 161.27V141.75C212.701 139.633 213.276 137.556 214.362 135.739C215.448 133.923 217.006 132.433 218.87 131.43C222.175 129.7 225.224 127.519 227.93 124.95C233.47 119.41 228.53 107.44 243.4 106.17V106.06C243.86 106.06 244.3 106.06 244.74 106.06C245.18 106.06 245.62 106.06 246.09 106.06V106.17C261 107.44 256 119.41 261.55 125C264.257 127.572 267.31 129.753 270.62 131.48C272.481 132.486 274.036 133.975 275.121 135.792C276.205 137.609 276.778 139.684 276.78 141.8V161.32C330.67 161.27 334 185.69 334 185.69Z" fill="#00BCF1"/>
</svg>
