<svg width="640" height="400" viewBox="0 0 640 400" fill="none" xmlns="http://www.w3.org/2000/svg">
<g clip-path="url(#clip0)">
<path d="M640 0H0V400H640V0Z" fill="#B2D235"/>
<path d="M185.5 40H86.5V88H185.5V40Z" fill="#00BCF1"/>
<path d="M106.5 31H97.5V40H106.5V31Z" fill="white"/>
<path d="M123.5 31H114.5V40H123.5V31Z" fill="white"/>
<path d="M140.5 31H131.5V40H140.5V31Z" fill="white"/>
<path d="M157.5 31H148.5V40H157.5V31Z" fill="white"/>
<path d="M174.5 31H165.5V40H174.5V31Z" fill="white"/>
<path d="M107 88H98V97H107V88Z" fill="white"/>
<path d="M124 88H115V97H124V88Z" fill="white"/>
<path d="M141 88H132V97H141V88Z" fill="white"/>
<path d="M158 88H149V97H158V88Z" fill="white"/>
<path d="M175 88H166V97H175V88Z" fill="white"/>
<path d="M185.5 326H86.5V374H185.5V326Z" fill="#00BCF1"/>
<path d="M106.5 317H97.5V326H106.5V317Z" fill="white"/>
<path d="M123.5 317H114.5V326H123.5V317Z" fill="white"/>
<path d="M140.5 317H131.5V326H140.5V317Z" fill="white"/>
<path d="M157.5 317H148.5V326H157.5V317Z" fill="white"/>
<path d="M174.5 317H165.5V326H174.5V317Z" fill="white"/>
<path d="M107 374H98V383H107V374Z" fill="white"/>
<path d="M124 374H115V383H124V374Z" fill="white"/>
<path d="M141 374H132V383H141V374Z" fill="white"/>
<path d="M158 374H149V383H158V374Z" fill="white"/>
<path d="M175 374H166V383H175V374Z" fill="white"/>
<path d="M560 339.5V240.5H512V339.5H560Z" fill="#007DB9"/>
<path d="M569 260.5V251.5H560V260.5H569Z" fill="white"/>
<path d="M569 277.5V268.5H560V277.5H569Z" fill="white"/>
<path d="M569 294.5V285.5H560V294.5H569Z" fill="white"/>
<path d="M569 311.5V302.5H560V311.5H569Z" fill="white"/>
<path d="M569 328.5V319.5H560V328.5H569Z" fill="white"/>
<path d="M512 261V252H503V261H512Z" fill="white"/>
<path d="M512 278V269H503V278H512Z" fill="white"/>
<path d="M512 295V286H503V295H512Z" fill="white"/>
<path d="M512 312V303H503V312H512Z" fill="white"/>
<path d="M512 329V320H503V329H512Z" fill="white"/>
<path d="M382 153H259V276H382V153Z" fill="white"/>
<path d="M352 183V246H289V183H352ZM412 123H229V306H412V123Z" fill="#007DB9"/>
<path d="M255 137H245V147H255V137Z" fill="#B2D235"/>
<path d="M255 157H245V167H255V157Z" fill="#B2D235"/>
<path d="M255 177H245V187H255V177Z" fill="#B2D235"/>
<path d="M255 197H245V207H255V197Z" fill="#B2D235"/>
<path d="M255 217H245V227H255V217Z" fill="#B2D235"/>
<path d="M255 237H245V247H255V237Z" fill="#B2D235"/>
<path d="M255 257H245V267H255V257Z" fill="#B2D235"/>
<path d="M255 277H245V287H255V277Z" fill="#B2D235"/>
<path d="M275 137H265V147H275V137Z" fill="#B2D235"/>
<path d="M275 157H265V167H275V157Z" fill="#B2D235"/>
<path d="M275 177H265V187H275V177Z" fill="#B2D235"/>
<path d="M275 197H265V207H275V197Z" fill="#B2D235"/>
<path d="M275 217H265V227H275V217Z" fill="#B2D235"/>
<path d="M275 237H265V247H275V237Z" fill="#B2D235"/>
<path d="M275 257H265V267H275V257Z" fill="#B2D235"/>
<path d="M275 277H265V287H275V277Z" fill="#B2D235"/>
<path d="M298 257H288V267H298V257Z" fill="#B2D235"/>
<path d="M298 277H288V287H298V277Z" fill="#B2D235"/>
<path d="M318 257H308V267H318V257Z" fill="#B2D235"/>
<path d="M318 277H308V287H318V277Z" fill="#B2D235"/>
<path d="M337 257H327V267H337V257Z" fill="#B2D235"/>
<path d="M337 277H327V287H337V277Z" fill="#B2D235"/>
<path d="M357 257H347V267H357V257Z" fill="#B2D235"/>
<path d="M357 277H347V287H357V277Z" fill="#B2D235"/>
<path d="M298 137H288V147H298V137Z" fill="#B2D235"/>
<path d="M298 157H288V167H298V157Z" fill="#B2D235"/>
<path d="M318 137H308V147H318V137Z" fill="#B2D235"/>
<path d="M318 157H308V167H318V157Z" fill="#B2D235"/>
<path d="M337 137H327V147H337V137Z" fill="#B2D235"/>
<path d="M337 157H327V167H337V157Z" fill="#B2D235"/>
<path d="M357 137H347V147H357V137Z" fill="#B2D235"/>
<path d="M357 157H347V167H357V157Z" fill="#B2D235"/>
<path d="M378 137H368V147H378V137Z" fill="#B2D235"/>
<path d="M378 157H368V167H378V157Z" fill="#B2D235"/>
<path d="M378 177H368V187H378V177Z" fill="#B2D235"/>
<path d="M378 197H368V207H378V197Z" fill="#B2D235"/>
<path d="M378 217H368V227H378V217Z" fill="#B2D235"/>
<path d="M378 237H368V247H378V237Z" fill="#B2D235"/>
<path d="M378 257H368V267H378V257Z" fill="#B2D235"/>
<path d="M378 277H368V287H378V277Z" fill="#B2D235"/>
<path d="M398 137H388V147H398V137Z" fill="#B2D235"/>
<path d="M398 157H388V167H398V157Z" fill="#B2D235"/>
<path d="M398 177H388V187H398V177Z" fill="#B2D235"/>
<path d="M398 197H388V207H398V197Z" fill="#B2D235"/>
<path d="M398 217H388V227H398V217Z" fill="#B2D235"/>
<path d="M398 237H388V247H398V237Z" fill="#B2D235"/>
<path d="M398 257H388V267H398V257Z" fill="#B2D235"/>
<path d="M398 277H388V287H398V277Z" fill="#B2D235"/>
<path d="M0 142H174.5L248.39 68.11V0" stroke="white" stroke-width="8" stroke-miterlimit="10"/>
<path d="M0 169H192.77" stroke="white" stroke-width="8" stroke-miterlimit="10"/>
<path d="M0 203H192.77" stroke="white" stroke-width="8" stroke-miterlimit="10"/>
<path d="M41.04 0V88" stroke="white" stroke-width="8" stroke-miterlimit="10"/>
<path d="M0 299H192.77L241.88 348.12" stroke="white" stroke-width="8" stroke-miterlimit="10"/>
<path d="M192.5 211C196.642 211 200 207.642 200 203.5C200 199.358 196.642 196 192.5 196C188.358 196 185 199.358 185 203.5C185 207.642 188.358 211 192.5 211Z" fill="#B2D235" stroke="white" stroke-width="8" stroke-miterlimit="10"/>
<path d="M245.5 357C249.642 357 253 353.642 253 349.5C253 345.358 249.642 342 245.5 342C241.358 342 238 345.358 238 349.5C238 353.642 241.358 357 245.5 357Z" fill="#B2D235" stroke="white" stroke-width="8" stroke-miterlimit="10"/>
<path d="M536.5 222C540.642 222 544 218.642 544 214.5C544 210.358 540.642 207 536.5 207C532.358 207 529 210.358 529 214.5C529 218.642 532.358 222 536.5 222Z" fill="#B2D235" stroke="white" stroke-width="8" stroke-miterlimit="10"/>
<path d="M280.5 100C284.642 100 288 96.6421 288 92.5C288 88.3579 284.642 85 280.5 85C276.358 85 273 88.3579 273 92.5C273 96.6421 276.358 100 280.5 100Z" fill="#B2D235" stroke="white" stroke-width="8" stroke-miterlimit="10"/>
<path d="M311.5 100C315.642 100 319 96.6421 319 92.5C319 88.3579 315.642 85 311.5 85C307.358 85 304 88.3579 304 92.5C304 96.6421 307.358 100 311.5 100Z" fill="#B2D235" stroke="white" stroke-width="8" stroke-miterlimit="10"/>
<path d="M342.5 100C346.642 100 350 96.6421 350 92.5C350 88.3579 346.642 85 342.5 85C338.358 85 335 88.3579 335 92.5C335 96.6421 338.358 100 342.5 100Z" fill="#B2D235" stroke="white" stroke-width="8" stroke-miterlimit="10"/>
<path d="M373.5 100C377.642 100 381 96.6421 381 92.5C381 88.3579 377.642 85 373.5 85C369.358 85 366 88.3579 366 92.5C366 96.6421 369.358 100 373.5 100Z" fill="#B2D235" stroke="white" stroke-width="8" stroke-miterlimit="10"/>
<path d="M38.5 265.5C46.7843 265.5 53.5 258.784 53.5 250.5C53.5 242.216 46.7843 235.5 38.5 235.5C30.2157 235.5 23.5 242.216 23.5 250.5C23.5 258.784 30.2157 265.5 38.5 265.5Z" fill="white" stroke="#007DB9" stroke-width="13" stroke-miterlimit="10"/>
<path d="M99 266C107.284 266 114 259.284 114 251C114 242.716 107.284 236 99 236C90.7157 236 84 242.716 84 251C84 259.284 90.7157 266 99 266Z" fill="white" stroke="#007DB9" stroke-width="13" stroke-miterlimit="10"/>
<path d="M158 266C166.284 266 173 259.284 173 251C173 242.716 166.284 236 158 236C149.716 236 143 242.716 143 251C143 259.284 149.716 266 158 266Z" fill="white" stroke="#007DB9" stroke-width="13" stroke-miterlimit="10"/>
<path d="M192.5 176C196.642 176 200 172.642 200 168.5C200 164.358 196.642 161 192.5 161C188.358 161 185 164.358 185 168.5C185 172.642 188.358 176 192.5 176Z" fill="#B2D235" stroke="white" stroke-width="8" stroke-miterlimit="10"/>
<path d="M41.5 97C45.6421 97 49 93.6421 49 89.5C49 85.3579 45.6421 82 41.5 82C37.3579 82 34 85.3579 34 89.5C34 93.6421 37.3579 97 41.5 97Z" fill="#B2D235" stroke="white" stroke-width="8" stroke-miterlimit="10"/>
<path d="M641 383.04H553" stroke="white" stroke-width="8" stroke-miterlimit="10"/>
<path d="M551.5 391C555.642 391 559 387.642 559 383.5C559 379.358 555.642 376 551.5 376C547.358 376 544 379.358 544 383.5C544 387.642 547.358 391 551.5 391Z" fill="#B2D235" stroke="white" stroke-width="8" stroke-miterlimit="10"/>
<path d="M437.28 0V400" stroke="white" stroke-width="8" stroke-miterlimit="10"/>
<path d="M461 0V400" stroke="white" stroke-width="8" stroke-miterlimit="10"/>
<path d="M484.72 0V119L535.41 169.69V211" fill="#B2D235"/>
<path d="M484.72 0V119L535.41 169.69V211" stroke="white" stroke-width="8" stroke-miterlimit="10"/>
<path d="M566.5 222C570.642 222 574 218.642 574 214.5C574 210.358 570.642 207 566.5 207C562.358 207 559 210.358 559 214.5C559 218.642 562.358 222 566.5 222Z" fill="#B2D235" stroke="white" stroke-width="8" stroke-miterlimit="10"/>
<path d="M514.72 0V119L565.41 169.69V211" fill="#B2D235"/>
<path d="M514.72 0V119L565.41 169.69V211" stroke="white" stroke-width="8" stroke-miterlimit="10"/>
<path d="M280.23 0V88" stroke="white" stroke-width="8" stroke-miterlimit="10"/>
<path d="M311 0V88" stroke="white" stroke-width="8" stroke-miterlimit="10"/>
<path d="M341.77 0V88" stroke="white" stroke-width="8" stroke-miterlimit="10"/>
<path d="M372.53 0V88" stroke="white" stroke-width="8" stroke-miterlimit="10"/>
<path d="M373.5 357C377.642 357 381 353.642 381 349.5C381 345.358 377.642 342 373.5 342C369.358 342 366 345.358 366 349.5C366 353.642 369.358 357 373.5 357Z" fill="#B2D235" stroke="white" stroke-width="8" stroke-miterlimit="10"/>
<path d="M342.5 357C346.642 357 350 353.642 350 349.5C350 345.358 346.642 342 342.5 342C338.358 342 335 345.358 335 349.5C335 353.642 338.358 357 342.5 357Z" fill="#B2D235" stroke="white" stroke-width="8" stroke-miterlimit="10"/>
<path d="M311.5 357C315.642 357 319 353.642 319 349.5C319 345.358 315.642 342 311.5 342C307.358 342 304 345.358 304 349.5C304 353.642 307.358 357 311.5 357Z" fill="#B2D235" stroke="white" stroke-width="8" stroke-miterlimit="10"/>
<path d="M280.5 357C284.642 357 288 353.642 288 349.5C288 345.358 284.642 342 280.5 342C276.358 342 273 345.358 273 349.5C273 353.642 276.358 357 280.5 357Z" fill="#B2D235" stroke="white" stroke-width="8" stroke-miterlimit="10"/>
<path d="M373.77 400V354" stroke="white" stroke-width="8" stroke-miterlimit="10"/>
<path d="M343 400V354" stroke="white" stroke-width="8" stroke-miterlimit="10"/>
<path d="M312.23 400V354" stroke="white" stroke-width="8" stroke-miterlimit="10"/>
<path d="M281.47 400V354" stroke="white" stroke-width="8" stroke-miterlimit="10"/>
<path d="M0 335.42H26.54L51.18 360.06V400" fill="#B2D235"/>
<path d="M0 335.42H26.54L51.18 360.06V400" stroke="white" stroke-width="8" stroke-miterlimit="10"/>
<path d="M484.72 397.76V354.79H593.36V0" stroke="white" stroke-width="8" stroke-miterlimit="10"/>
<path d="M248.39 306V315.56" stroke="#007DB9" stroke-width="4" stroke-miterlimit="10"/>
<path d="M258.33 306V315.56" stroke="#007DB9" stroke-width="4" stroke-miterlimit="10"/>
<path d="M268.28 306V315.56" stroke="#007DB9" stroke-width="4" stroke-miterlimit="10"/>
<path d="M278.22 306V315.56" stroke="#007DB9" stroke-width="4" stroke-miterlimit="10"/>
<path d="M288.17 306V315.56" stroke="#007DB9" stroke-width="4" stroke-miterlimit="10"/>
<path d="M298.11 306V315.56" stroke="#007DB9" stroke-width="4" stroke-miterlimit="10"/>
<path d="M308.06 306V315.56" stroke="#007DB9" stroke-width="4" stroke-miterlimit="10"/>
<path d="M318 306V315.56" stroke="#007DB9" stroke-width="4" stroke-miterlimit="10"/>
<path d="M328.39 306V315.56" stroke="#007DB9" stroke-width="4" stroke-miterlimit="10"/>
<path d="M338.33 306V315.56" stroke="#007DB9" stroke-width="4" stroke-miterlimit="10"/>
<path d="M348.28 306V315.56" stroke="#007DB9" stroke-width="4" stroke-miterlimit="10"/>
<path d="M358.22 306V315.56" stroke="#007DB9" stroke-width="4" stroke-miterlimit="10"/>
<path d="M368.17 306V315.56" stroke="#007DB9" stroke-width="4" stroke-miterlimit="10"/>
<path d="M378.11 306V315.56" stroke="#007DB9" stroke-width="4" stroke-miterlimit="10"/>
<path d="M388.06 306V315.56" stroke="#007DB9" stroke-width="4" stroke-miterlimit="10"/>
<path d="M398 306V315.56" stroke="#007DB9" stroke-width="4" stroke-miterlimit="10"/>
<path d="M248.39 114V123.56" stroke="#007DB9" stroke-width="4" stroke-miterlimit="10"/>
<path d="M258.33 114V123.56" stroke="#007DB9" stroke-width="4" stroke-miterlimit="10"/>
<path d="M268.28 114V123.56" stroke="#007DB9" stroke-width="4" stroke-miterlimit="10"/>
<path d="M278.22 114V123.56" stroke="#007DB9" stroke-width="4" stroke-miterlimit="10"/>
<path d="M288.17 114V123.56" stroke="#007DB9" stroke-width="4" stroke-miterlimit="10"/>
<path d="M298.11 114V123.56" stroke="#007DB9" stroke-width="4" stroke-miterlimit="10"/>
<path d="M308.06 114V123.56" stroke="#007DB9" stroke-width="4" stroke-miterlimit="10"/>
<path d="M318 114V123.56" stroke="#007DB9" stroke-width="4" stroke-miterlimit="10"/>
<path d="M328.39 114V123.56" stroke="#007DB9" stroke-width="4" stroke-miterlimit="10"/>
<path d="M338.33 114V123.56" stroke="#007DB9" stroke-width="4" stroke-miterlimit="10"/>
<path d="M348.28 114V123.56" stroke="#007DB9" stroke-width="4" stroke-miterlimit="10"/>
<path d="M358.22 114V123.56" stroke="#007DB9" stroke-width="4" stroke-miterlimit="10"/>
<path d="M368.17 114V123.56" stroke="#007DB9" stroke-width="4" stroke-miterlimit="10"/>
<path d="M378.11 114V123.56" stroke="#007DB9" stroke-width="4" stroke-miterlimit="10"/>
<path d="M388.06 114V123.56" stroke="#007DB9" stroke-width="4" stroke-miterlimit="10"/>
<path d="M398 114V123.56" stroke="#007DB9" stroke-width="4" stroke-miterlimit="10"/>
<path d="M556.5 17.0601V100" stroke="#007DB9" stroke-width="4" stroke-miterlimit="10"/>
<path d="M569 27H544V93H569V27Z" fill="#EC1C24"/>
<path d="M409.5 17.0601V100" stroke="#007DB9" stroke-width="4" stroke-miterlimit="10"/>
<path d="M422 27H397V93H422V27Z" fill="#EC1C24"/>
<path d="M319.85 205.95L307.7 227H332L319.85 205.95Z" fill="#FF0000"/>
</g>
<defs>
<clipPath id="clip0">
<rect width="640" height="400" fill="white"/>
</clipPath>
</defs>
</svg>
