<svg width="640" height="400" viewBox="0 0 640 400" fill="none" xmlns="http://www.w3.org/2000/svg">
<path d="M151.32 133.12C115.06 133.12 85.6602 103.48 85.6602 66.9099C85.6602 30.3399 115.06 0.689941 151.32 0.689941" fill="#B2D235"/>
<path d="M20 0.689941C56.26 0.689941 85.66 30.3299 85.66 66.9099C85.66 103.49 56.26 133.12 20 133.12" fill="#B2D235"/>
<path d="M20 265.56C20 228.99 49.4 199.34 85.66 199.34C121.92 199.34 151.32 228.99 151.32 265.56" fill="#B2D235"/>
<path d="M151.32 133.12C151.32 169.7 121.92 199.34 85.66 199.34C49.4 199.34 20 169.7 20 133.12" fill="#00BCF1"/>
<path d="M151.32 398C115.06 398 85.6602 368.35 85.6602 331.78C85.6602 295.21 115.06 265.56 151.32 265.56" fill="#B2D235"/>
<path d="M20 265.56C56.26 265.56 85.66 295.21 85.66 331.78C85.66 368.35 56.26 398 20 398" fill="#007DB9"/>
<path d="M306.54 133.12C270.28 133.12 240.88 103.48 240.88 66.9099C240.88 30.3399 270.28 0.689941 306.54 0.689941" fill="#B2D235"/>
<path d="M175.22 0.689941C211.48 0.689941 240.88 30.3299 240.88 66.9099C240.88 103.49 211.48 133.12 175.22 133.12" fill="#B2D235"/>
<path d="M175.22 265.56C175.22 228.99 204.62 199.34 240.88 199.34C277.14 199.34 306.54 228.99 306.54 265.56" fill="#EC1C24"/>
<path d="M306.54 133.12C306.54 169.7 277.14 199.34 240.88 199.34C204.62 199.34 175.22 169.7 175.22 133.12" fill="#B2D235"/>
<path d="M175.22 398C175.22 361.43 204.62 331.78 240.88 331.78C277.14 331.78 306.54 361.43 306.54 398" fill="#B2D235"/>
<path d="M306.54 265.56C306.54 302.13 277.14 331.78 240.88 331.78C204.62 331.78 175.22 302.13 175.22 265.56" fill="#EC1C24"/>
<path d="M617 265.24C580.74 265.24 551.34 235.59 551.34 199.02C551.34 162.45 580.74 132.8 617 132.8" fill="#007DB9"/>
<path d="M485.68 132.8C521.94 132.8 551.34 162.45 551.34 199.02C551.34 235.59 521.94 265.24 485.68 265.24" fill="#00BCF1"/>
<path d="M617 265.24C617 301.81 587.6 331.46 551.34 331.46C515.08 331.46 485.68 301.81 485.68 265.24" fill="#B2D235"/>
<path d="M485.68 398C485.68 361.43 515.08 331.78 551.34 331.78C587.6 331.78 617 361.43 617 398" fill="#B2D235"/>
<path d="M617 0C617 36.57 587.6 66.22 551.34 66.22C515.08 66.22 485.68 36.57 485.68 0" fill="#B2D235"/>
<path d="M485.68 132.76C485.68 96.19 515.08 66.54 551.34 66.54C587.6 66.54 617 96.19 617 132.76" fill="#B2D235"/>
<path d="M332.46 265.56C368.72 265.56 398.12 295.21 398.12 331.78C398.12 368.35 368.72 398 332.46 398" fill="#B2D235"/>
<path d="M463.78 398C427.52 398 398.12 368.35 398.12 331.78C398.12 295.21 427.52 265.56 463.78 265.56" fill="#00BCF1"/>
<path d="M463.78 133.12C463.78 169.7 434.38 199.34 398.12 199.34C361.86 199.34 332.46 169.7 332.46 133.12" fill="#007DB9"/>
<path d="M332.46 265.56C332.46 228.99 361.86 199.34 398.12 199.34C434.38 199.34 463.78 228.99 463.78 265.56" fill="#B2D235"/>
<path d="M463.78 0.689941C463.78 37.2599 434.38 66.9099 398.12 66.9099C361.86 66.9099 332.46 37.2599 332.46 0.689941" fill="#00BCF1"/>
<path d="M332.46 133.12C332.46 96.5501 361.86 66.9102 398.12 66.9102C434.38 66.9102 463.78 96.5501 463.78 133.12" fill="#B2D235"/>
</svg>
