<svg width="500" height="500" viewBox="0 0 500 500" fill="none" xmlns="http://www.w3.org/2000/svg">
<path d="M500 0.870117H1.46997V499.4H500V0.870117Z" fill="#B2D235"/>
<path d="M500 297.34H1.46997V499.4H500V297.34Z" fill="#007DB9"/>
<path d="M166.5 387C166.5 370.69 203.42 357.47 248.96 357.47C294.5 357.47 331.41 370.69 331.41 387" stroke="#00BCF1" stroke-width="8.25" stroke-linecap="round" stroke-linejoin="round"/>
<path d="M248.96 311.88C268.4 311.88 284.16 296.12 284.16 276.68C284.16 257.24 268.4 241.48 248.96 241.48C229.52 241.48 213.76 257.24 213.76 276.68C213.76 296.12 229.52 311.88 248.96 311.88Z" fill="white"/>
<path d="M252.16 293.48V298.17H247.16V293.53C242.682 293.045 238.508 291.032 235.34 287.83L238.69 284.05C241.61 286.78 245.43 289.05 249.64 289.05C254.64 289.05 256.87 286.8 256.87 284.31C256.87 277.23 236.87 279.95 236.87 269.48C236.87 264.6 240.7 260.67 247.16 259.91V255.2H252.16V259.94C254.167 260.109 256.119 260.678 257.902 261.614C259.685 262.55 261.262 263.834 262.54 265.39L258.72 268.6C257.567 267.279 256.148 266.216 254.555 265.482C252.963 264.748 251.233 264.359 249.48 264.34C245.03 264.34 242.31 266.25 242.31 268.88C242.31 275.25 262.31 272.81 262.31 284.05C262.31 289 258.29 292.66 252.16 293.48Z" fill="#007DB9"/>
<path d="M171.01 113.53V168.17" stroke="white" stroke-width="8.25" stroke-linecap="round" stroke-linejoin="round"/>
<path d="M327.21 113.53V168.17" stroke="white" stroke-width="8.25" stroke-linecap="round" stroke-linejoin="round"/>
<path d="M335.47 148.78C332.918 147.569 330.76 145.663 329.244 143.28C327.728 140.897 326.915 138.134 326.9 135.31V113.53C326.9 98.1199 292.01 85.6299 248.96 85.6299C205.91 85.6299 170.96 98.1199 170.96 113.53V133.62C170.954 136.887 170.041 140.088 168.321 142.866C166.601 145.644 164.142 147.889 161.22 149.35C148.7 155.65 141.33 170.56 141.33 210.25V363.71C141.38 428.33 189.54 437 249 437C308.46 437 356.58 430.63 356.58 363.75V210.25C356.54 171.66 348.7 155.17 335.47 148.78Z" stroke="white" stroke-width="8.25" stroke-miterlimit="10"/>
<path d="M278.44 387.9C300.007 387.9 317.49 380.907 317.49 372.28C317.49 363.653 300.007 356.66 278.44 356.66C256.873 356.66 239.39 363.653 239.39 372.28C239.39 380.907 256.873 387.9 278.44 387.9Z" fill="#00BCF1"/>
<path d="M213.27 411.69C234.837 411.69 252.32 404.697 252.32 396.07C252.32 387.444 234.837 380.45 213.27 380.45C191.703 380.45 174.22 387.444 174.22 396.07C174.22 404.697 191.703 411.69 213.27 411.69Z" fill="#00BCF1"/>
<path d="M248.96 0.870117V205.29" stroke="#007DB9" stroke-width="6" stroke-miterlimit="10"/>
<path d="M238.78 193.34L248.96 203.51L259.13 193.34V201.97L248.96 212.14L238.78 201.97V193.34Z" fill="#007DB9"/>
<path d="M322.33 151C311.22 164.65 281.72 174.41 247.07 174.41C217.47 174.41 191.62 167.29 177.79 156.7" stroke="white" stroke-width="4.12" stroke-linecap="round" stroke-linejoin="round"/>
<path d="M322.33 140C311.22 153.65 281.72 163.41 247.07 163.41C217.47 163.41 191.62 156.29 177.79 145.7" stroke="white" stroke-width="4.12" stroke-linecap="round" stroke-linejoin="round"/>
<path d="M322.33 128.32C311.22 141.97 281.72 151.73 247.07 151.73C217.47 151.73 191.62 144.6 177.79 134.02" stroke="white" stroke-width="4.12" stroke-linecap="round" stroke-linejoin="round"/>
</svg>
