<svg width="640" height="400" viewBox="0 0 640 400" fill="none" xmlns="http://www.w3.org/2000/svg">
<g clip-path="url(#clip0)">
<path d="M640 0H0V401H640V0Z" fill="#B2D235"/>
<path d="M192.36 124.29V316.68C192.36 348.15 250.85 363 323 363C395.15 363 453.64 351.72 453.64 316.68V117.16L192.36 124.29Z" fill="white"/>
<path d="M392 290C391.82 296 377.07 300.07 359.06 299.14C341.05 298.21 326.61 292.62 326.8 286.64L327.12 276.29L392.33 279.65L392 290Z" fill="#B2D235"/>
<path d="M392.35 279.759C392.673 273.786 378.338 268.157 360.332 267.185C342.326 266.213 327.468 270.266 327.145 276.239C326.823 282.212 341.158 287.841 359.164 288.813C377.17 289.785 392.028 285.731 392.35 279.759Z" fill="#B2D235"/>
<path d="M274.68 271.68C273.68 265.33 257.3 264.37 238.19 269.53C219.08 274.69 204.44 284 205.48 290.35L207.28 301.35L276.48 282.68L274.68 271.68Z" fill="#007DB9"/>
<path d="M412.05 317.38C411.86 323.48 396.8 327.66 378.42 326.72C360.04 325.78 345.29 320.05 345.48 313.95L345.81 303.38L412.39 306.81L412.05 317.38Z" fill="#007DB9"/>
<path d="M412.363 306.874C412.692 300.78 398.058 295.035 379.677 294.043C361.297 293.051 346.129 297.187 345.8 303.281C345.471 309.374 360.105 315.119 378.486 316.111C396.867 317.103 412.034 312.968 412.363 306.874Z" fill="#007DB9"/>
<path d="M323 114.79C395.15 114.79 453.64 102.03 453.64 86.29C453.64 70.5499 395.15 57.79 323 57.79C250.849 57.79 192.36 70.5499 192.36 86.29C192.36 102.03 250.849 114.79 323 114.79Z" fill="#00BCF1"/>
<path d="M192.36 86.29V123.1C192.36 138.84 250.85 151.61 323 151.61C395.15 151.61 453.64 138.84 453.64 123.1V86.29" fill="#00BCF1"/>
<path d="M355 89.26C359.661 83.8291 362.665 77.1754 363.658 70.0883C364.651 63.0011 363.591 55.7779 360.602 49.2754C357.614 42.7729 352.823 37.264 346.798 33.4022C340.773 29.5404 333.767 27.4878 326.61 27.4878C319.454 27.4878 312.448 29.5404 306.423 33.4022C300.398 37.264 295.607 42.7729 292.618 49.2754C289.63 55.7779 288.569 63.0011 289.562 70.0883C290.555 77.1754 293.56 83.8291 298.22 89.26H355Z" fill="white"/>
<path d="M336.857 66.2654C336.857 64.3805 336.191 62.7926 334.859 61.5019C333.548 60.2111 331.325 59.0433 328.19 57.9984C323.826 56.6666 320.64 54.9354 318.632 52.8046C316.645 50.6533 315.651 47.9284 315.651 44.6298C315.651 41.2697 316.625 38.514 318.571 36.3627C320.538 34.2115 323.232 32.9309 326.654 32.5212V25.7908H331.233V32.5519C334.675 33.0231 337.348 34.4676 339.254 36.8852C341.18 39.3028 342.143 42.6117 342.143 46.8118H336.488C336.488 43.9229 335.802 41.6282 334.429 39.9277C333.056 38.2272 331.202 37.3769 328.866 37.3769C326.428 37.3769 324.564 38.012 323.273 39.2823C321.982 40.5321 321.337 42.2838 321.337 44.5376C321.337 46.6274 322.013 48.2972 323.365 49.5469C324.738 50.7762 326.981 51.9031 330.096 52.9275C333.23 53.9314 335.668 55.048 337.41 56.2773C339.172 57.4862 340.463 58.8998 341.282 60.5184C342.122 62.137 342.542 64.0322 342.542 66.2039C342.542 69.6664 341.497 72.4528 339.408 74.5631C337.338 76.6734 334.429 77.9232 330.68 78.3125V84.1824H326.131V78.3125C322.32 77.9642 319.329 76.612 317.157 74.2558C315.006 71.8792 313.93 68.6625 313.93 64.6058H319.616C319.616 67.4537 320.364 69.6459 321.859 71.1826C323.355 72.7192 325.476 73.4875 328.221 73.4875C330.905 73.4875 333.015 72.8421 334.552 71.5514C336.088 70.2606 336.857 68.4986 336.857 66.2654Z" fill="#EC1C24"/>
<path d="M334.859 61.5019L334.508 61.8582L334.511 61.8609L334.859 61.5019ZM328.19 57.9984L328.348 57.5239L328.336 57.5201L328.19 57.9984ZM318.632 52.8046L318.265 53.1439L318.269 53.1475L318.632 52.8046ZM318.571 36.3627L318.202 36.0253L318.2 36.0273L318.571 36.3627ZM326.654 32.5212L326.713 33.0176L327.154 32.9649V32.5212H326.654ZM326.654 25.7908V25.2908H326.154V25.7908H326.654ZM331.233 25.7908H331.733V25.2908H331.233V25.7908ZM331.233 32.5519H330.733V32.9881L331.165 33.0473L331.233 32.5519ZM339.254 36.8852L338.861 37.1947L338.863 37.1967L339.254 36.8852ZM342.143 46.8118V47.3118H342.643V46.8118H342.143ZM336.488 46.8118H335.988V47.3118H336.488V46.8118ZM323.273 39.2823L323.621 39.6415L323.624 39.6387L323.273 39.2823ZM323.365 49.5469L323.026 49.9142L323.032 49.9194L323.365 49.5469ZM330.096 52.9275L329.939 53.4025L329.943 53.4037L330.096 52.9275ZM337.41 56.2773L337.122 56.6859L337.127 56.6896L337.41 56.2773ZM341.282 60.5184L340.836 60.7443L340.838 60.7487L341.282 60.5184ZM339.408 74.5631L339.052 74.2113L339.051 74.2131L339.408 74.5631ZM330.68 78.3125L330.628 77.8152L330.18 77.8617V78.3125H330.68ZM330.68 84.1824V84.6824H331.18V84.1824H330.68ZM326.131 84.1824H325.631V84.6824H326.131V84.1824ZM326.131 78.3125H326.631V77.8561L326.177 77.8146L326.131 78.3125ZM317.157 74.2558L316.787 74.5914L316.79 74.5947L317.157 74.2558ZM313.93 64.6058V64.1058H313.43V64.6058H313.93ZM319.616 64.6058H320.116V64.1058H319.616V64.6058ZM337.357 66.2654C337.357 64.2476 336.638 62.5295 335.207 61.1428L334.511 61.8609C335.744 63.0558 336.357 64.5133 336.357 66.2654H337.357ZM335.21 61.1455C333.817 59.7741 331.507 58.5768 328.348 57.524L328.032 58.4727C331.143 59.5098 333.279 60.6481 334.508 61.8582L335.21 61.1455ZM328.336 57.5201C324.013 56.2009 320.92 54.5033 318.996 52.4617L318.269 53.1475C320.36 55.3674 323.639 57.1324 328.044 58.4766L328.336 57.5201ZM319 52.4653C317.109 50.4183 316.151 47.8197 316.151 44.6298H315.151C315.151 48.037 316.182 50.8884 318.265 53.1439L319 52.4653ZM316.151 44.6298C316.151 41.3727 317.092 38.7431 318.942 36.6982L318.2 36.0273C316.158 38.2849 315.151 41.1666 315.151 44.6298H316.151ZM318.94 36.7001C320.812 34.6528 323.388 33.4159 326.713 33.0176L326.594 32.0247C323.076 32.446 320.264 33.7701 318.202 36.0254L318.94 36.7001ZM327.154 32.5212V25.7908H326.154V32.5212H327.154ZM326.654 26.2908H331.233V25.2908H326.654V26.2908ZM330.733 25.7908V32.5519H331.733V25.7908H330.733ZM331.165 33.0473C334.497 33.5034 337.046 34.8921 338.861 37.1947L339.647 36.5757C337.651 34.043 334.853 32.5429 331.301 32.0565L331.165 33.0473ZM338.863 37.1967C340.697 39.4987 341.643 42.6845 341.643 46.8118H342.643C342.643 42.5388 341.663 39.1069 339.645 36.5736L338.863 37.1967ZM342.143 46.3118H336.488V47.3118H342.143V46.3118ZM336.988 46.8118C336.988 43.8456 336.283 41.4281 334.818 39.6136L334.04 40.2418C335.321 41.8283 335.988 44.0002 335.988 46.8118H336.988ZM334.818 39.6136C333.343 37.7865 331.341 36.8769 328.866 36.8769V37.8769C331.063 37.8769 332.769 38.6678 334.04 40.2418L334.818 39.6136ZM328.866 36.8769C326.344 36.8769 324.335 37.5354 322.922 38.9259L323.624 39.6387C324.792 38.4887 326.513 37.8769 328.866 37.8769V36.8769ZM322.925 38.9231C321.514 40.2898 320.837 42.185 320.837 44.5376H321.837C321.837 42.3827 322.451 40.7744 323.621 39.6415L322.925 38.9231ZM320.837 44.5376C320.837 46.7461 321.557 48.5565 323.026 49.9141L323.705 49.1798C322.469 48.0378 321.837 46.5087 321.837 44.5376H320.837ZM323.032 49.9194C324.481 51.2176 326.803 52.3707 329.939 53.4025L330.252 52.4525C327.16 51.4355 324.995 50.3349 323.699 49.1745L323.032 49.9194ZM329.943 53.4037C333.053 54.3996 335.438 55.4973 337.122 56.6858L337.698 55.8689C335.899 54.5988 333.408 53.4633 330.248 52.4513L329.943 53.4037ZM337.127 56.6896C338.832 57.8594 340.061 59.2129 340.836 60.7443L341.728 60.2926C340.865 58.5868 339.512 57.1129 337.693 55.865L337.127 56.6896ZM340.838 60.7487C341.635 62.2838 342.042 64.0971 342.042 66.2039H343.042C343.042 63.9672 342.609 61.9902 341.726 60.2881L340.838 60.7487ZM342.042 66.2039C342.042 69.5582 341.034 72.2102 339.052 74.2113L339.763 74.915C341.961 72.6955 343.042 69.7746 343.042 66.2039H342.042ZM339.051 74.2131C337.083 76.2195 334.294 77.4345 330.628 77.8152L330.731 78.8098C334.564 78.4119 337.593 77.1274 339.765 74.9132L339.051 74.2131ZM330.18 78.3125V84.1824H331.18V78.3125H330.18ZM330.68 83.6824H326.131V84.6824H330.68V83.6824ZM326.631 84.1824V78.3125H325.631V84.1824H326.631ZM326.177 77.8146C322.464 77.4752 319.597 76.1649 317.525 73.9169L316.79 74.5947C319.061 77.059 322.177 78.4532 326.086 78.8104L326.177 77.8146ZM317.528 73.9203C315.48 71.6581 314.43 68.5726 314.43 64.6058H313.43C313.43 68.7524 314.532 72.1003 316.787 74.5914L317.528 73.9203ZM313.93 65.1058H319.616V64.1058H313.93V65.1058ZM319.116 64.6058C319.116 67.5399 319.888 69.8739 321.501 71.5313L322.218 70.8338C320.84 69.418 320.116 67.3675 320.116 64.6058H319.116ZM321.501 71.5313C323.115 73.1899 325.38 73.9875 328.221 73.9875V72.9875C325.571 72.9875 323.595 72.2485 322.218 70.8338L321.501 71.5313ZM328.221 73.9875C330.983 73.9875 333.22 73.3229 334.873 71.9342L334.23 71.1685C332.81 72.3614 330.827 72.9875 328.221 72.9875V73.9875ZM334.873 71.9342C336.537 70.537 337.357 68.6275 337.357 66.2654H336.357C336.357 68.3697 335.64 69.9842 334.23 71.1685L334.873 71.9342Z" fill="#EC1C24"/>
<path d="M442.17 322.06C440.17 327.84 424.27 327.67 406.75 321.68C389.23 315.69 376.67 306.16 378.75 300.38L382.29 290.38L445.75 312.06L442.17 322.06Z" fill="#B2D235"/>
<path d="M445.723 312.026C447.696 306.227 435.083 296.692 417.552 290.727C400.021 284.762 384.209 284.627 382.237 290.426C380.264 296.224 392.876 305.76 410.408 311.725C427.939 317.69 443.75 317.824 445.723 312.026Z" fill="#B2D235"/>
<path d="M284.1 313.2C284.24 319.65 268.62 325.44 249.2 326.13C229.78 326.82 213.94 322.13 213.8 315.72L213.55 304.56L283.86 302L284.1 313.2Z" fill="#B2D235"/>
<path d="M249.121 314.988C268.537 314.259 284.08 308.447 283.839 302.006C283.597 295.565 267.661 290.935 248.246 291.664C228.83 292.393 213.286 298.205 213.528 304.646C213.77 311.086 229.705 315.717 249.121 314.988Z" fill="#B2D235"/>
<path d="M278.34 282.38C258.72 276.02 241.77 276.15 240.49 282.66L238.27 294C236.99 300.51 251.85 310.94 271.47 317.3C291.09 323.66 308.03 323.52 309.32 317.01L311.54 305.73C312.82 299.16 298 288.73 278.34 282.38Z" fill="white" stroke="#007DB9" stroke-width="8" stroke-miterlimit="10"/>
<path d="M369.63 340.93C369.01 347.33 351.95 349.87 331.53 346.6C311.11 343.33 295.06 335.49 295.68 329.09L296.76 318L370.71 329.84L369.63 340.93Z" fill="#B2D235"/>
<path d="M370.656 330.057C371.712 323.726 356.029 315.836 335.628 312.433C315.227 309.03 297.832 311.403 296.777 317.733C295.721 324.063 311.403 331.954 331.804 335.357C352.206 338.76 369.6 336.387 370.656 330.057Z" fill="#B2D235"/>
<path d="M324.57 283.31C307.86 275.16 292.86 273.46 291.06 279.52L288 290C286.2 296.06 298.29 307.58 315 315.73C331.71 323.88 346.71 325.57 348.51 319.51L351.57 309C353.37 303 341.28 291.46 324.57 283.31Z" fill="white" stroke="#B2D235" stroke-width="8" stroke-miterlimit="10"/>
</g>
<defs>
<clipPath id="clip0">
<rect width="640" height="400" fill="white"/>
</clipPath>
</defs>
</svg>
