<svg width="500" height="500" viewBox="0 0 500 500" fill="none" xmlns="http://www.w3.org/2000/svg">
<path d="M500 0H0V500H500V0Z" fill="#B2D235"/>
<path d="M161.42 300.43V221.7C161.462 207.63 167.07 194.148 177.019 184.199C186.968 174.25 200.45 168.642 214.52 168.6C228.59 168.642 242.072 174.25 252.021 184.199C261.97 194.148 267.578 207.63 267.62 221.7V300.43" fill="#007DB9"/>
<path d="M262.05 300.43H194.67V367.81H262.05V300.43Z" fill="#007DB9"/>
<path d="M237.34 304.73V231C237.379 217.828 242.629 205.207 251.943 195.893C261.257 186.58 273.878 181.33 287.05 181.29C300.222 181.33 312.843 186.58 322.156 195.893C331.47 205.207 336.72 217.828 336.76 231V304.7" fill="#00BCF1"/>
<path d="M318.59 304.73H255.52V367.8H318.59V304.73Z" fill="#00BCF1"/>
<path d="M135.55 320.67V265.6C135.579 255.756 139.502 246.324 146.463 239.363C153.424 232.403 162.856 228.479 172.7 228.45C182.544 228.479 191.976 232.403 198.937 239.363C205.897 246.324 209.821 255.756 209.85 265.6V320.67" fill="#EC1C24"/>
<path d="M196.27 320.67H149.14V367.8H196.27V320.67Z" fill="#EC1C24"/>
<path d="M300.89 320.67V265.6C300.919 255.763 304.837 246.337 311.789 239.377C318.741 232.418 328.163 228.49 338 228.45C347.844 228.479 357.276 232.403 364.237 239.363C371.198 246.324 375.121 255.756 375.15 265.6V320.67" fill="#EC1C24"/>
<path d="M361.6 320.67H314.47V367.8H361.6V320.67Z" fill="#EC1C24"/>
<path d="M172.7 228.46C186.242 228.46 197.22 217.482 197.22 203.94C197.22 190.398 186.242 179.42 172.7 179.42C159.158 179.42 148.18 190.398 148.18 203.94C148.18 217.482 159.158 228.46 172.7 228.46Z" fill="white"/>
<path d="M338.04 228.46C351.582 228.46 362.56 217.482 362.56 203.94C362.56 190.398 351.582 179.42 338.04 179.42C324.498 179.42 313.52 190.398 313.52 203.94C313.52 217.482 324.498 228.46 338.04 228.46Z" fill="white"/>
<path d="M289.95 181.33C303.492 181.33 314.47 170.352 314.47 156.81C314.47 143.268 303.492 132.29 289.95 132.29C276.408 132.29 265.43 143.268 265.43 156.81C265.43 170.352 276.408 181.33 289.95 181.33Z" fill="white"/>
<path d="M219.19 168.6C232.732 168.6 243.71 157.622 243.71 144.08C243.71 130.538 232.732 119.56 219.19 119.56C205.648 119.56 194.67 130.538 194.67 144.08C194.67 157.622 205.648 168.6 219.19 168.6Z" fill="white"/>
</svg>
