<svg width="500" height="500" viewBox="0 0 500 500" fill="none" xmlns="http://www.w3.org/2000/svg">
<path d="M500 0H0V500H500V0Z" fill="#EC1C24"/>
<path d="M196.41 157.18V116.56L161.24 136.87L196.41 157.18Z" stroke="white" stroke-width="14" stroke-linecap="round" stroke-linejoin="round"/>
<path d="M303.59 342.82V383.44L338.76 363.13L303.59 342.82Z" stroke="white" stroke-width="14" stroke-linecap="round" stroke-linejoin="round"/>
<path d="M157.18 196.41L136.87 161.24L116.56 196.41H157.18Z" stroke="white" stroke-width="14" stroke-linecap="round" stroke-linejoin="round"/>
<path d="M342.82 303.59L363.13 338.76L383.44 303.59H342.82Z" stroke="white" stroke-width="14" stroke-linecap="round" stroke-linejoin="round"/>
<path d="M142.82 250L107.65 229.69V270.31L142.82 250Z" stroke="white" stroke-width="14" stroke-linecap="round" stroke-linejoin="round"/>
<path d="M357.18 250L392.35 270.31V229.69L357.18 250Z" stroke="white" stroke-width="14" stroke-linecap="round" stroke-linejoin="round"/>
<path d="M157.18 303.59H116.56L136.87 338.76L157.18 303.59Z" stroke="white" stroke-width="14" stroke-linecap="round" stroke-linejoin="round"/>
<path d="M342.82 196.41H383.44L363.13 161.24L342.82 196.41Z" stroke="white" stroke-width="14" stroke-linecap="round" stroke-linejoin="round"/>
<path d="M196.41 342.82L161.24 363.13L196.41 383.44V342.82Z" stroke="white" stroke-width="14" stroke-linecap="round" stroke-linejoin="round"/>
<path d="M303.59 157.18L338.76 136.87L303.59 116.56V157.18Z" stroke="white" stroke-width="14" stroke-linecap="round" stroke-linejoin="round"/>
<path d="M250 357.18L229.69 392.35H270.31L250 357.18Z" stroke="white" stroke-width="14" stroke-linecap="round" stroke-linejoin="round"/>
<path d="M250 142.82L270.31 107.65H229.69L250 142.82Z" stroke="white" stroke-width="14" stroke-linecap="round" stroke-linejoin="round"/>
<path d="M250 355.44C308.713 355.44 356.31 307.843 356.31 249.13C356.31 190.416 308.713 142.82 250 142.82C191.287 142.82 143.69 190.416 143.69 249.13C143.69 307.843 191.287 355.44 250 355.44Z" fill="white" stroke="white" stroke-width="14" stroke-linecap="round" stroke-linejoin="round"/>
<path d="M183.324 251.258C183.136 253.859 182.173 255.907 180.435 257.401C178.708 258.895 176.429 259.642 173.595 259.642C170.496 259.642 168.056 258.602 166.274 256.521C164.503 254.429 163.618 251.563 163.618 247.921V246.444C163.618 244.12 164.027 242.072 164.846 240.301C165.665 238.53 166.833 237.175 168.349 236.234C169.876 235.282 171.647 234.806 173.662 234.806C176.451 234.806 178.697 235.553 180.402 237.047C182.106 238.542 183.091 240.639 183.357 243.339H178.376C178.255 241.779 177.818 240.65 177.065 239.953C176.323 239.244 175.189 238.89 173.662 238.89C172.001 238.89 170.756 239.488 169.926 240.683C169.107 241.867 168.687 243.71 168.665 246.211V248.038C168.665 250.65 169.057 252.559 169.843 253.765C170.64 254.972 171.891 255.575 173.595 255.575C175.134 255.575 176.279 255.226 177.032 254.529C177.795 253.82 178.233 252.73 178.343 251.258H183.324ZM206.45 247.772C206.45 250.152 206.029 252.238 205.188 254.031C204.347 255.824 203.14 257.207 201.569 258.181C200.008 259.155 198.215 259.642 196.19 259.642C194.187 259.642 192.399 259.161 190.828 258.198C189.256 257.235 188.039 255.862 187.175 254.081C186.312 252.288 185.875 250.229 185.864 247.905V246.709C185.864 244.33 186.29 242.238 187.142 240.434C188.005 238.619 189.217 237.23 190.778 236.267C192.349 235.293 194.142 234.806 196.157 234.806C198.171 234.806 199.958 235.293 201.519 236.267C203.091 237.23 204.303 238.619 205.155 240.434C206.018 242.238 206.45 244.324 206.45 246.693V247.772ZM201.403 246.676C201.403 244.142 200.949 242.216 200.042 240.899C199.134 239.582 197.839 238.923 196.157 238.923C194.486 238.923 193.196 239.576 192.289 240.882C191.381 242.177 190.922 244.081 190.911 246.593V247.772C190.911 250.24 191.364 252.155 192.272 253.516C193.18 254.877 194.486 255.558 196.19 255.558C197.861 255.558 199.145 254.905 200.042 253.599C200.938 252.282 201.392 250.367 201.403 247.855V246.676ZM218.635 253.317L224.114 235.138H229.659L221.242 259.31H216.045L207.662 235.138H213.19L218.635 253.317ZM237.246 259.31H232.265V235.138H237.246V259.31ZM241.877 259.31V235.138H249.315C251.44 235.138 253.338 235.62 255.009 236.583C256.692 237.534 258.003 238.896 258.944 240.667C259.885 242.426 260.355 244.43 260.355 246.676V247.789C260.355 250.035 259.89 252.033 258.96 253.782C258.042 255.53 256.741 256.886 255.059 257.849C253.377 258.812 251.479 259.299 249.365 259.31H241.877ZM246.858 239.172V255.309H249.265C251.213 255.309 252.702 254.673 253.731 253.4C254.76 252.127 255.286 250.306 255.308 247.938V246.66C255.308 244.203 254.799 242.343 253.781 241.082C252.763 239.809 251.274 239.172 249.315 239.172H246.858ZM273.005 250.893H263.659V247.025H273.005V250.893ZM288.312 259.31H283.514V240.816L277.787 242.592V238.691L287.797 235.105H288.312V259.31ZM307.404 249.648C306.153 250.876 304.692 251.491 303.021 251.491C300.885 251.491 299.175 250.76 297.891 249.299C296.607 247.827 295.965 245.846 295.965 243.356C295.965 241.773 296.308 240.323 296.995 239.006C297.692 237.678 298.66 236.649 299.9 235.918C301.139 235.177 302.534 234.806 304.083 234.806C305.677 234.806 307.094 235.205 308.333 236.001C309.573 236.798 310.536 237.944 311.222 239.438C311.908 240.932 312.257 242.642 312.268 244.568V246.344C312.268 250.373 311.266 253.538 309.263 255.84C307.26 258.142 304.421 259.371 300.747 259.526L299.568 259.542V255.542L300.63 255.525C304.803 255.337 307.061 253.378 307.404 249.648ZM304.2 247.822C304.974 247.822 305.639 247.623 306.192 247.224C306.756 246.826 307.182 246.344 307.47 245.78V243.804C307.47 242.177 307.16 240.916 306.541 240.019C305.921 239.123 305.091 238.674 304.05 238.674C303.087 238.674 302.296 239.117 301.676 240.002C301.056 240.877 300.747 241.978 300.747 243.306C300.747 244.623 301.045 245.708 301.643 246.56C302.252 247.401 303.104 247.822 304.2 247.822Z" fill="#EC1C24"/>
</svg>
