<svg width="1200" height="450" viewBox="0 0 1200 450" fill="none" xmlns="http://www.w3.org/2000/svg">
<g clip-path="url(#clip0)">
<path d="M1199.72 0.780029H-0.759766V272.42H1199.72V0.780029Z" fill="#00BCF1"/>
<path d="M1134.22 0.780029H998.33V450H1134.22V0.780029Z" fill="#007DB9"/>
<path d="M1029.16 246.08V0" stroke="#00BCF1" stroke-width="2" stroke-miterlimit="10"/>
<path d="M887 0.780029H677.38V450H887V0.780029Z" fill="#007DB9"/>
<path d="M849.54 246.08V52.0601" stroke="#00BCF1" stroke-width="2" stroke-miterlimit="10"/>
<path d="M25.61 158.68L52.5 271.34L12.8 295.92L0 222.47" fill="#00BCF1"/>
<path d="M357.89 0.780029H306.67V271.35H357.89V0.780029Z" fill="#00BCF1"/>
<path d="M979.63 0.780029H928.41V271.35H979.63V0.780029Z" fill="#00BCF1"/>
<path d="M25.61 0.780029H0V271.35H25.61V0.780029Z" fill="#00BCF1"/>
<path d="M1199.72 243.99H-0.759766V450H1199.72V243.99Z" fill="#B2D235"/>
<path d="M1000.33 392C1000.33 396.84 995.72 401.32 987.86 405C986.02 405.86 972.59 400.46 970.41 401.22C965.54 402.93 971.28 410.6 965 411.74C954.327 413.594 943.512 414.504 932.68 414.46C895.32 414.47 865 404.42 865 392C865 379.58 895.29 369.55 932.65 369.55C970.01 369.55 1000.33 379.62 1000.33 392Z" fill="#B2D235"/>
<path d="M932.68 428.62C993.597 428.62 1042.98 412.234 1042.98 392.02C1042.98 371.806 993.597 355.42 932.68 355.42C871.763 355.42 822.38 371.806 822.38 392.02C822.38 412.234 871.763 428.62 932.68 428.62Z" stroke="white" stroke-miterlimit="10"/>
<path d="M932.68 450C1029.18 450 1107.4 424.041 1107.4 392.02C1107.4 359.999 1029.18 334.04 932.68 334.04C836.185 334.04 757.96 359.999 757.96 392.02C757.96 424.041 836.185 450 932.68 450Z" stroke="white" stroke-miterlimit="10"/>
<path d="M694.23 330.39C694.23 335.24 698.841 339.72 706.701 343.39C708.541 344.25 721.971 338.84 724.151 339.61C729.021 341.31 723.28 348.99 729.56 350.12C740.232 351.979 751.048 352.889 761.88 352.84C799.24 352.84 829.531 342.84 829.531 330.39C829.531 317.94 799.24 307.94 761.88 307.94C724.52 307.94 694.23 318 694.23 330.39Z" fill="#B2D235"/>
<path d="M761.88 366.99C822.797 366.99 872.18 350.604 872.18 330.39C872.18 310.176 822.797 293.79 761.88 293.79C700.963 293.79 651.58 310.176 651.58 330.39C651.58 350.604 700.963 366.99 761.88 366.99Z" stroke="white" stroke-miterlimit="10"/>
<path d="M761.88 388.37C858.375 388.37 936.6 362.411 936.6 330.39C936.6 298.368 858.375 272.41 761.88 272.41C665.385 272.41 587.16 298.368 587.16 330.39C587.16 362.411 665.385 388.37 761.88 388.37Z" stroke="white" stroke-miterlimit="10"/>
<path d="M1012.52 391.94V336.23L1029.16 319.59V359.75" stroke="#EC1C24" stroke-width="3" stroke-miterlimit="10"/>
<path d="M1019.14 329.61L1057.27 291.48" stroke="#EC1C24" stroke-width="5" stroke-miterlimit="10"/>
<path d="M1049.81 319.59V450" stroke="#EC1C24" stroke-width="3" stroke-miterlimit="10"/>
<path d="M1104.65 118.87C991.09 46.8699 948.57 167.19 915.71 138.68C882.85 110.17 937.71 57.4999 899.1 21.0499C861.67 -14.2901 818.23 -6.86646e-05 783.63 37.4899L788.1 57.4899L812.6 68.5999C812.6 68.5999 800.54 80.5199 805.69 91.4099C810.84 102.3 821.5 97.3499 821.5 97.3499L849.32 77.7299C849.32 77.7299 829 187.25 876.08 213.58C916.52 234.65 1198.39 382.71 1198.39 382.71C1198.39 382.71 1218.2 190.87 1104.65 118.87Z" fill="white"/>
<path d="M805.69 91.42C800.54 80.53 812.6 68.61 812.6 68.61L788.1 57.5L783.63 37.5C782.55 38.67 781.47 39.86 780.41 41.08C752.5 73.21 604.58 244 604.58 244L821.5 97.36C821.5 97.36 810.85 102.31 805.69 91.42Z" fill="#00BCF1"/>
<path d="M802.88 72.27C811.038 72.27 817.65 65.6572 817.65 57.5C817.65 49.3427 811.038 42.73 802.88 42.73C794.723 42.73 788.11 49.3427 788.11 57.5C788.11 65.6572 794.723 72.27 802.88 72.27Z" fill="#00BCF1"/>
<path d="M802.88 62.9401C805.885 62.9401 808.32 60.5045 808.32 57.5001C808.32 54.4956 805.885 52.0601 802.88 52.0601C799.876 52.0601 797.44 54.4956 797.44 57.5001C797.44 60.5045 799.876 62.9401 802.88 62.9401Z" fill="#007DB9"/>
<path d="M747.06 221.75C747.06 251.62 722.18 271.75 722.18 271.75C722.18 271.75 697.29 251.59 697.29 221.75C697.29 208 708.43 209.44 722.18 209.44C735.93 209.44 747.06 208 747.06 221.75Z" fill="#EC1C24"/>
<path d="M742.87 129.13L703.58 163.95L697.29 218.94H747.06L742.87 129.13Z" fill="#EC1C24"/>
<path d="M717.83 267.97L729.68 254.23" stroke="#B2D235" stroke-width="3" stroke-miterlimit="10"/>
<path d="M717.83 236.8C721.034 236.8 723.63 234.203 723.63 231C723.63 227.797 721.034 225.2 717.83 225.2C714.627 225.2 712.03 227.797 712.03 231C712.03 234.203 714.627 236.8 717.83 236.8Z" fill="#B2D235"/>
<path d="M697.29 218.94C697.29 218.94 708.18 206.57 722.58 206.57C736.98 206.57 747.06 218.94 747.06 218.94" stroke="#B2D235" stroke-width="3" stroke-miterlimit="10"/>
<path d="M964.27 228.36L1199.43 350.2" stroke="#007DB9" stroke-width="5" stroke-miterlimit="10"/>
<path d="M938.42 197.42L1199.43 332.65" stroke="#007DB9" stroke-miterlimit="10"/>
<path d="M938.42 178.46L1199.43 313.69" stroke="#007DB9" stroke-miterlimit="10"/>
<path d="M938.42 161.19L1199.43 296.42" stroke="#007DB9" stroke-miterlimit="10"/>
<path d="M994.75 236.7C1028.74 236.7 1056.29 209.148 1056.29 175.16C1056.29 141.173 1028.74 113.62 994.75 113.62C960.762 113.62 933.21 141.173 933.21 175.16C933.21 209.148 960.762 236.7 994.75 236.7Z" fill="white" stroke="#007DB9" stroke-width="5" stroke-miterlimit="10"/>
<path d="M1047.23 271.34V382.71L1088.32 292.63L1047.23 271.34Z" fill="#007DB9"/>
<path d="M862.85 197.42L957.91 292.48" stroke="white" stroke-width="5" stroke-miterlimit="10"/>
<path d="M862.85 197.42L968.82 280.15" stroke="white" stroke-width="5" stroke-miterlimit="10"/>
<path d="M775.93 65.0001L813.73 27.2001C813.73 27.2001 886.14 -43.1699 997.4 68.0901" stroke="white" stroke-width="5" stroke-miterlimit="10"/>
<path d="M269.85 0.780029H60.2305V450H269.85V0.780029Z" fill="#007DB9"/>
<path d="M-26.8904 123.79C-25.8393 112.561 -22.5659 101.652 -17.2604 91.6999C-12.1447 82.1234 -5.1803 73.6567 3.22961 66.7899C11.3141 60.1989 20.6278 55.2803 30.6296 52.3199C40.2252 49.4939 50.2861 48.6 60.2296 49.6899V23.6899C47.2923 24.7335 34.6897 28.3294 23.1496 34.2699C11.9892 40.0391 2.08191 47.9615 -6.00039 57.5799C-13.7884 66.8779 -19.661 77.6239 -23.2804 89.1999C-26.7596 100.378 -27.9867 112.135 -26.8904 123.79Z" fill="#007DB9"/>
<path d="M-26.8896 459.64C-25.8386 448.408 -22.5651 437.496 -17.2596 427.54C-12.1464 417.965 -5.18153 409.501 3.23036 402.64C11.3143 396.046 20.628 391.124 30.6304 388.16C40.2256 385.332 50.2876 384.442 60.2304 385.54V359.49C47.2911 360.551 34.6893 364.16 23.1504 370.11C11.9895 375.883 2.08227 383.809 -5.99964 393.43C-13.7947 402.726 -19.6742 413.472 -23.2996 425.05C-26.7722 436.229 -27.9924 447.986 -26.8896 459.64Z" fill="#007DB9"/>
<path d="M517.07 0.780029H381.18V450H517.07V0.780029Z" fill="#007DB9"/>
<path d="M234.19 115.84C234.606 111.635 235.55 107.499 237 103.53C238.471 99.6415 240.412 95.9474 242.78 92.53L243.63 91.25C243.93 90.83 244.26 90.43 244.57 90.03L246.47 87.61C247.14 86.84 247.85 86.09 248.53 85.33C249.21 84.57 249.89 83.81 250.65 83.12L252.9 81C253.62 80.28 254.45 79.65 255.21 79C255.97 78.35 256.75 77.67 257.56 77L260 75.22C266.601 70.4197 273.686 66.324 281.14 63C288.593 59.641 296.28 56.827 304.14 54.58C319.862 50.1554 335.997 47.3541 352.29 46.22C360.424 45.6534 368.547 45.4067 376.66 45.48C384.773 45.5534 392.857 45.9834 400.91 46.77V10.77C391.924 11.5167 382.997 12.5934 374.13 14C365.264 15.4067 356.494 17.2434 347.82 19.51C330.48 23.8529 313.632 29.9649 297.54 37.75C289.521 41.6747 281.797 46.1765 274.43 51.22C267.031 56.2445 260.183 62.0367 254 68.5L251.73 71C250.98 71.82 250.29 72.72 249.57 73.57C248.85 74.42 248.12 75.25 247.48 76.17L245.48 78.88C244.8 79.76 244.22 80.71 243.62 81.66C243.02 82.61 242.43 83.53 241.86 84.49L240.29 87.43C240.03 87.92 239.76 88.43 239.52 88.9L238.85 90.43C237.015 94.4366 235.672 98.6506 234.85 102.98C234.093 107.222 233.871 111.543 234.19 115.84Z" fill="#007DB9"/>
<path d="M-48.6397 256.32C-48.2203 252.109 -47.2659 247.969 -45.7997 244C-44.3158 240.113 -42.3684 236.42 -39.9997 233L-39.1497 231.73C-38.8497 231.31 -38.5097 230.91 -38.1497 230.51L-36.2497 228.09C-35.5797 227.31 -34.8797 226.57 -34.1897 225.81C-33.5245 225.035 -32.8167 224.297 -32.0697 223.6L-29.8697 221.47C-29.1497 220.76 -28.3197 220.13 -27.5497 219.47C-26.7797 218.81 -26.0197 218.14 -25.2097 217.47L-22.7597 215.63C-16.1812 210.842 -9.11936 206.757 -1.68969 203.44C5.76075 200.075 13.4481 197.26 21.3103 195.02C37.0358 190.595 53.1735 187.794 69.4703 186.66C77.5903 186.08 85.7303 185.85 93.8403 185.92C101.95 185.99 110.05 186.5 118.09 187.21V151.21C109.104 152.003 100.18 153.107 91.3203 154.52C82.4603 155.933 73.687 157.76 65.0003 160C47.6588 164.338 30.8099 170.451 14.7203 178.24C6.69839 182.166 -1.0285 186.667 -8.39969 191.71C-15.7965 196.742 -22.6441 202.537 -28.8297 209L-31.0997 211.45C-31.8497 212.27 -32.5397 213.16 -33.2597 214.01C-33.9797 214.86 -34.7097 215.7 -35.3597 216.62L-37.3597 219.32C-38.0297 220.2 -38.6197 221.16 -39.2097 222.11C-39.7997 223.06 -40.4097 223.98 -40.9697 224.93L-42.5497 227.93C-42.7997 228.42 -43.0797 228.93 -43.3097 229.4L-43.9897 230.93C-45.8201 234.938 -47.163 239.152 -47.9897 243.48C-48.7471 247.715 -48.9655 252.03 -48.6397 256.32Z" fill="#007DB9"/>
<path d="M545.75 106.5C546.843 94.8442 545.613 83.0872 542.13 71.9101C538.51 60.3303 532.63 49.583 524.83 40.2901C516.755 30.6812 506.859 22.7658 495.71 17.0001C484.171 11.0354 471.565 7.41576 458.62 6.3501V32.4001C468.565 31.2953 478.63 32.1791 488.23 35.0001C498.23 37.9722 507.54 42.9009 515.62 49.5001C524.031 56.3651 530.998 64.8279 536.12 74.4001C541.421 84.358 544.694 95.2686 545.75 106.5Z" fill="#007DB9"/>
<path d="M542.64 315.27C542.82 323.27 533.44 327.85 530.45 335.27C529.71 337.09 529.51 339.47 530.99 340.76C532.47 342.05 535.16 341.47 536.99 342.51C538.99 343.65 539.38 346.4 538.86 348.62C537.86 352.79 534.6 356.04 533.09 360.05C531.58 364.06 533.3 370.05 537.58 369.98C539.46 369.98 541.42 368.77 543.1 369.61C544.46 370.29 544.91 372.02 544.97 373.54C545.14 377.66 543.58 381.72 543.9 385.83C544.22 389.94 547.83 394.39 551.76 393.16C556.76 391.61 556.27 383.37 560.94 381.04C563.94 379.54 567.73 381.18 570.77 379.81C574.2 378.25 574.97 373.47 573.61 369.96C572.25 366.45 569.4 363.76 567.08 360.78C564.76 357.8 562.87 354 563.88 350.37C564.89 346.74 568.38 344.2 568.35 340.57C568.35 335.12 560.63 332.51 559.77 327.14C559.47 325.24 560.1 323.33 560.22 321.41C560.347 319.272 559.839 317.144 558.76 315.293C557.68 313.443 556.078 311.954 554.154 311.012C552.23 310.07 550.07 309.719 547.947 310.001C545.823 310.284 543.831 311.188 542.22 312.6" fill="#B2D235"/>
<path d="M322.8 316.47C322.98 324.42 313.59 329.05 310.6 336.42C309.87 338.24 309.66 340.62 311.15 341.91C312.64 343.2 315.31 342.62 317.15 343.67C318.99 344.72 319.54 347.55 319.01 349.78C318.01 353.94 314.75 357.19 313.25 361.2C311.75 365.21 313.45 371.2 317.74 371.14C319.61 371.14 321.58 369.92 323.25 370.77C324.62 371.45 325.07 373.17 325.13 374.69C325.29 378.81 323.73 382.88 324.05 386.99C324.37 391.1 327.98 395.55 331.92 394.32C336.92 392.76 336.42 384.53 341.09 382.19C344.09 380.7 347.88 382.34 350.92 380.96C354.35 379.4 355.13 374.63 353.76 371.11C352.39 367.59 349.55 364.91 347.24 361.94C344.93 358.97 343 355.16 344 351.52C345 347.88 348.5 345.36 348.48 341.72C348.48 336.28 340.76 333.67 339.9 328.29C339.6 326.4 340.22 324.48 340.34 322.57C340.469 320.431 339.962 318.301 338.883 316.45C337.805 314.598 336.202 313.106 334.278 312.164C332.353 311.221 330.193 310.868 328.069 311.15C325.944 311.433 323.951 312.337 322.34 313.75" fill="#B2D235"/>
<path d="M306.29 401.52C306.11 409.52 315.49 414.1 318.48 421.52C319.22 423.34 319.42 425.72 317.94 427.01C316.46 428.3 313.77 427.72 311.94 428.76C309.94 429.9 309.55 432.65 310.07 434.87C311.07 439.04 314.33 442.29 315.84 446.3C317.35 450.31 315.63 456.3 311.35 456.23C309.47 456.23 307.51 455.02 305.83 455.86C304.47 456.55 304.02 458.27 303.96 459.79C303.79 463.91 305.36 467.98 305.03 472.09C304.7 476.2 301.1 480.65 297.17 479.42C292.17 477.86 292.66 469.63 287.99 467.29C284.99 465.8 281.2 467.44 278.16 466.06C274.73 464.5 273.96 459.72 275.32 456.21C276.68 452.7 279.53 450.01 281.85 447.03C284.17 444.05 286.06 440.25 285.05 436.62C284.04 432.99 280.56 430.45 280.58 426.82C280.58 421.37 288.3 418.76 289.16 413.39C289.46 411.49 288.83 409.58 288.71 407.66C288.583 405.522 289.091 403.394 290.17 401.543C291.25 399.693 292.852 398.204 294.776 397.262C296.7 396.32 298.86 395.969 300.983 396.251C303.106 396.534 305.099 397.438 306.71 398.85" fill="#B2D235"/>
<path d="M319.43 62.9C319.61 70.85 310.23 75.48 307.24 82.85C306.5 84.67 306.3 87.0499 307.78 88.34C309.26 89.63 311.95 89.05 313.78 90.1C315.78 91.23 316.17 93.9799 315.65 96.2C314.65 100.37 311.39 103.62 309.88 107.63C308.37 111.64 310.09 117.63 314.37 117.57C316.25 117.57 318.21 116.35 319.89 117.19C321.25 117.88 321.7 119.6 321.76 121.12C321.93 125.24 320.36 129.31 320.69 133.42C321.02 137.53 324.62 141.98 328.55 140.75C333.55 139.19 333.06 130.96 337.73 128.62C340.73 127.13 344.52 128.77 347.56 127.39C350.99 125.83 351.76 121.06 350.4 117.54C349.04 114.02 346.19 111.34 343.87 108.37C341.55 105.4 339.66 101.59 340.67 97.95C341.68 94.31 345.16 91.79 345.14 88.15C345.14 82.71 337.42 80.1 336.56 74.72C336.26 72.82 336.89 70.91 337.01 69C337.139 66.8608 336.633 64.7313 335.554 62.8795C334.475 61.0277 332.873 59.5364 330.949 58.5934C329.024 57.6505 326.864 57.2979 324.739 57.5802C322.615 57.8626 320.622 58.7671 319.01 60.18" fill="#B2D235"/>
<path d="M33.3096 256.45C33.1296 264.4 42.5096 269.03 45.4996 276.4C46.2396 278.22 46.4396 280.6 44.9596 281.89C43.4796 283.18 40.7896 282.6 38.9596 283.65C36.9596 284.78 36.5696 287.53 37.0896 289.76C38.0896 293.92 41.3496 297.17 42.8596 301.18C44.3696 305.19 42.6496 311.18 38.3696 311.12C36.4896 311.12 34.5296 309.9 32.8496 310.75C31.4896 311.43 31.0396 313.15 30.9796 314.67C30.8096 318.79 32.3696 322.86 32.0496 326.97C31.7296 331.08 28.1196 335.53 24.1896 334.3C19.1896 332.74 19.6796 324.51 15.0096 322.17C12.0096 320.68 8.21959 322.32 5.17959 320.94C1.74959 319.38 0.969595 314.61 2.33959 311.09C3.70959 307.57 6.54959 304.89 8.86959 301.92C11.1896 298.95 13.0796 295.14 12.0696 291.5C11.0596 287.86 7.56959 285.34 7.59959 281.7C7.59959 276.26 15.3196 273.65 16.1696 268.27C16.4796 266.37 15.8496 264.46 15.7296 262.55C15.6294 260.41 16.1488 258.287 17.2255 256.435C18.3022 254.583 19.8905 253.082 21.7996 252.11C23.7424 251.192 25.9098 250.856 28.0394 251.143C30.1691 251.431 32.1698 252.329 33.7996 253.73" fill="#B2D235"/>
<path d="M553.32 357.25C554.413 345.594 553.183 333.837 549.7 322.66C546.083 311.069 540.206 300.309 532.41 291C524.334 281.384 514.433 273.461 503.28 267.69C491.745 261.731 479.141 258.121 466.2 257.07V283.07C476.143 281.972 486.205 282.862 495.8 285.69C505.801 288.658 515.114 293.58 523.2 300.17C531.61 307.037 538.574 315.504 543.69 325.08C549.003 335.058 552.276 345.994 553.32 357.25Z" fill="#007DB9"/>
<path d="M335.8 357.25C336.896 345.595 335.669 333.838 332.19 322.66C328.572 311.067 322.692 300.306 314.89 291C306.815 281.386 296.918 273.464 285.77 267.69C274.23 261.732 261.624 258.123 248.68 257.07V283.07C258.622 281.971 268.685 282.862 278.28 285.69C288.281 288.656 297.595 293.578 305.68 300.17C314.09 307.037 321.054 315.504 326.17 325.08C331.487 335.056 334.761 345.993 335.8 357.25Z" fill="#007DB9"/>
<path d="M294.06 428.75C295.111 417.517 298.384 406.606 303.69 396.65C308.806 387.076 315.77 378.613 324.18 371.75C332.266 365.16 341.579 360.238 351.58 357.27C361.175 354.442 371.237 353.551 381.18 354.65V328.65C368.239 329.709 355.636 333.322 344.1 339.28C332.96 345.037 323.07 352.942 315 362.54C307.2 371.833 301.32 382.58 297.7 394.16C294.21 405.336 292.973 417.093 294.06 428.75Z" fill="#007DB9"/>
<path d="M335.8 106.5C336.896 94.8448 335.669 83.0879 332.19 71.9101C328.57 60.3303 322.69 49.583 314.89 40.2901C306.813 30.6835 296.916 22.7684 285.77 17.0001C274.23 11.0369 261.625 7.41733 248.68 6.3501V32.4001C258.621 31.2948 268.683 32.1786 278.28 35.0001C288.281 37.966 297.595 42.8878 305.68 49.4801C314.087 56.3455 321.051 64.8084 326.17 74.3801C331.478 84.3423 334.751 95.2608 335.8 106.5Z" fill="#007DB9"/>
<path d="M23.7902 283.38C24.846 272.148 28.1191 261.238 33.4202 251.28C38.5359 241.703 45.5003 233.237 53.9102 226.37C61.9947 219.779 71.3084 214.86 81.3102 211.9C90.9088 209.072 100.974 208.181 110.92 209.28V183.23C97.9777 184.291 85.3727 187.9 73.8302 193.85C62.6795 199.625 52.7826 207.551 44.7102 217.17C36.9106 226.459 31.0305 237.203 27.4102 248.78C23.927 259.96 22.6966 271.721 23.7902 283.38Z" fill="#007DB9"/>
<path d="M110.92 0.780029V369.47C110.92 369.47 88.2598 392.91 88.2598 450" stroke="#00BCF1" stroke-width="2" stroke-miterlimit="10"/>
<path d="M426.38 0.780029V369.47C426.38 369.47 403.72 392.91 403.72 450" stroke="#00BCF1" stroke-width="2" stroke-miterlimit="10"/>
<path d="M215.86 0.780029V372.28C215.86 372.28 238.52 392.91 238.52 450" stroke="#00BCF1" stroke-width="2" stroke-miterlimit="10"/>
<path d="M188.77 0.780029V453.93" stroke="#00BCF1" stroke-width="2" stroke-miterlimit="10"/>
<path d="M722.18 0.780029V123.79" stroke="#00BCF1" stroke-width="2" stroke-miterlimit="10"/>
<path d="M936.18 381.23C940.83 381.23 944.6 369.849 944.6 355.81C944.6 341.771 940.83 330.39 936.18 330.39C931.53 330.39 927.76 341.771 927.76 355.81C927.76 369.849 931.53 381.23 936.18 381.23Z" stroke="white" stroke-width="2" stroke-miterlimit="10"/>
<path d="M936.175 381.154C940.201 378.826 937.767 367.087 930.739 354.933C923.711 342.78 914.75 334.815 910.725 337.143C906.699 339.471 909.133 351.21 916.161 363.364C923.189 375.517 932.15 383.482 936.175 381.154Z" stroke="white" stroke-width="2" stroke-miterlimit="10"/>
<path d="M936.147 381.169C938.886 377.411 931.91 367.661 920.565 359.391C909.22 351.122 897.803 347.464 895.063 351.222C892.324 354.98 899.3 364.73 910.645 373C921.99 381.269 933.408 384.927 936.147 381.169Z" stroke="white" stroke-width="2" stroke-miterlimit="10"/>
<path d="M953.573 363.498C960.601 351.345 963.035 339.606 959.009 337.278C954.984 334.95 946.023 342.915 938.995 355.068C931.967 367.222 929.533 378.961 933.559 381.289C937.584 383.617 946.545 375.652 953.573 363.498Z" stroke="white" stroke-width="2" stroke-miterlimit="10"/>
<path d="M959.02 373.144C970.365 364.874 977.341 355.124 974.602 351.366C971.863 347.608 960.445 351.266 949.1 359.536C937.755 367.805 930.779 377.556 933.518 381.313C936.258 385.071 947.675 381.414 959.02 373.144Z" stroke="white" stroke-width="2" stroke-miterlimit="10"/>
<path d="M794.72 332.62C799.37 332.62 803.14 321.239 803.14 307.2C803.14 293.161 799.37 281.78 794.72 281.78C790.07 281.78 786.3 293.161 786.3 307.2C786.3 321.239 790.07 332.62 794.72 332.62Z" stroke="white" stroke-width="2" stroke-miterlimit="10"/>
<path d="M794.712 332.559C798.738 330.231 796.304 318.492 789.276 306.338C782.248 294.185 773.287 286.22 769.262 288.548C765.236 290.876 767.67 302.615 774.698 314.769C781.726 326.922 790.687 334.887 794.712 332.559Z" stroke="white" stroke-width="2" stroke-miterlimit="10"/>
<path d="M794.687 332.568C797.426 328.81 790.45 319.06 779.105 310.79C767.76 302.52 756.343 298.863 753.603 302.62C750.864 306.378 757.84 316.129 769.185 324.398C780.53 332.668 791.948 336.326 794.687 332.568Z" stroke="white" stroke-width="2" stroke-miterlimit="10"/>
<path d="M812.107 314.883C819.135 302.729 821.569 290.99 817.543 288.662C813.518 286.334 804.557 294.299 797.529 306.452C790.501 318.606 788.067 330.345 792.093 332.673C796.118 335.001 805.079 327.036 812.107 314.883Z" stroke="white" stroke-width="2" stroke-miterlimit="10"/>
<path d="M817.572 324.514C828.917 316.245 835.893 306.494 833.154 302.736C830.414 298.979 818.997 302.636 807.652 310.906C796.307 319.176 789.331 328.926 792.07 332.684C794.809 336.442 806.227 332.784 817.572 324.514Z" stroke="white" stroke-width="2" stroke-miterlimit="10"/>
</g>
<defs>
<clipPath id="clip0">
<rect width="1200" height="450" fill="white"/>
</clipPath>
</defs>
</svg>
