<svg width="500" height="500" viewBox="0 0 500 500" fill="none" xmlns="http://www.w3.org/2000/svg">
<path d="M500 0H0V500H500V0Z" fill="#B2D235"/>
<path d="M181.05 388.31C143.56 388.31 113.17 335.68 113.17 270.75C113.17 205.82 143.56 153.19 181.05 153.19H266.4V388.31H181.05Z" fill="#007DB9"/>
<path d="M288.18 388.31C325.669 388.31 356.06 335.677 356.06 270.75C356.06 205.823 325.669 153.19 288.18 153.19C250.691 153.19 220.3 205.823 220.3 270.75C220.3 335.677 250.691 388.31 288.18 388.31Z" fill="#007DB9" stroke="#00BCF1" stroke-width="9.54" stroke-miterlimit="10" stroke-linecap="round"/>
<path d="M288.18 358.05C316.021 358.05 338.59 318.965 338.59 270.75C338.59 222.536 316.021 183.45 288.18 183.45C260.339 183.45 237.77 222.536 237.77 270.75C237.77 318.965 260.339 358.05 288.18 358.05Z" stroke="#00BCF1" stroke-width="9.54" stroke-miterlimit="10" stroke-linecap="round"/>
<path d="M288.18 329.9C307.041 329.9 322.33 303.418 322.33 270.75C322.33 238.082 307.041 211.6 288.18 211.6C269.319 211.6 254.03 238.082 254.03 270.75C254.03 303.418 269.319 329.9 288.18 329.9Z" stroke="#00BCF1" stroke-width="9.54" stroke-miterlimit="10" stroke-linecap="round"/>
<path d="M288.18 299.5C297.348 299.5 304.78 286.628 304.78 270.75C304.78 254.872 297.348 242 288.18 242C279.012 242 271.58 254.872 271.58 270.75C271.58 286.628 279.012 299.5 288.18 299.5Z" fill="#00BCF1" stroke="#00BCF1" stroke-width="9.54" stroke-miterlimit="10" stroke-linecap="round"/>
<path d="M288.18 153.19V388.31" stroke="#00BCF1" stroke-width="9.54" stroke-miterlimit="10" stroke-linecap="round"/>
<path d="M220.3 270.75H356.06" stroke="#00BCF1" stroke-width="9.54" stroke-miterlimit="10" stroke-linecap="round"/>
<path d="M393.91 184.02C399.339 184.02 403.74 179.619 403.74 174.19C403.74 168.761 399.339 164.36 393.91 164.36C388.481 164.36 384.08 168.761 384.08 174.19C384.08 179.619 388.481 184.02 393.91 184.02Z" fill="white"/>
<path d="M393.91 232.3C399.339 232.3 403.74 227.899 403.74 222.47C403.74 217.041 399.339 212.64 393.91 212.64C388.481 212.64 384.08 217.041 384.08 222.47C384.08 227.899 388.481 232.3 393.91 232.3Z" fill="white"/>
<path d="M393.91 280.58C399.339 280.58 403.74 276.179 403.74 270.75C403.74 265.321 399.339 260.92 393.91 260.92C388.481 260.92 384.08 265.321 384.08 270.75C384.08 276.179 388.481 280.58 393.91 280.58Z" fill="white"/>
<path d="M393.91 328.86C399.339 328.86 403.74 324.459 403.74 319.03C403.74 313.601 399.339 309.2 393.91 309.2C388.481 309.2 384.08 313.601 384.08 319.03C384.08 324.459 388.481 328.86 393.91 328.86Z" fill="white"/>
<path d="M393.91 377.13C399.339 377.13 403.74 372.729 403.74 367.3C403.74 361.871 399.339 357.47 393.91 357.47C388.481 357.47 384.08 361.871 384.08 367.3C384.08 372.729 388.481 377.13 393.91 377.13Z" fill="white"/>
<path d="M360.38 208.16C365.809 208.16 370.21 203.759 370.21 198.33C370.21 192.901 365.809 188.5 360.38 188.5C354.951 188.5 350.55 192.901 350.55 198.33C350.55 203.759 354.951 208.16 360.38 208.16Z" fill="white"/>
<path d="M360.38 256.44C365.809 256.44 370.21 252.039 370.21 246.61C370.21 241.181 365.809 236.78 360.38 236.78C354.951 236.78 350.55 241.181 350.55 246.61C350.55 252.039 354.951 256.44 360.38 256.44Z" fill="white"/>
<path d="M360.38 304.72C365.809 304.72 370.21 300.319 370.21 294.89C370.21 289.461 365.809 285.06 360.38 285.06C354.951 285.06 350.55 289.461 350.55 294.89C350.55 300.319 354.951 304.72 360.38 304.72Z" fill="white"/>
<path d="M360.38 353C365.809 353 370.21 348.599 370.21 343.17C370.21 337.741 365.809 333.34 360.38 333.34C354.951 333.34 350.55 337.741 350.55 343.17C350.55 348.599 354.951 353 360.38 353Z" fill="white"/>
<path d="M323.84 232.3C329.269 232.3 333.67 227.899 333.67 222.47C333.67 217.041 329.269 212.64 323.84 212.64C318.411 212.64 314.01 217.041 314.01 222.47C314.01 227.899 318.411 232.3 323.84 232.3Z" fill="white"/>
<path d="M323.84 280.58C329.269 280.58 333.67 276.179 333.67 270.75C333.67 265.321 329.269 260.92 323.84 260.92C318.411 260.92 314.01 265.321 314.01 270.75C314.01 276.179 318.411 280.58 323.84 280.58Z" fill="white"/>
<path d="M323.84 328.86C329.269 328.86 333.67 324.459 333.67 319.03C333.67 313.601 329.269 309.2 323.84 309.2C318.411 309.2 314.01 313.601 314.01 319.03C314.01 324.459 318.411 328.86 323.84 328.86Z" fill="white"/>
</svg>
