<svg width="515" height="550" viewBox="0 0 515 550" fill="none" xmlns="http://www.w3.org/2000/svg">
<g clip-path="url(#clip0)">
<path d="M514.38 0H0V459.65H514.38V0Z" fill="#00BCF1" stroke="url(#paint0_linear)" stroke-miterlimit="10"/>
<path d="M276.89 -30.3999H152.46V110.43H276.89V-30.3999Z" fill="white"/>
<path d="M374.68 234.65H144.91V459.65H374.68V234.65Z" fill="#007DBA"/>
<path d="M216.57 431.84C216.57 443.91 209.67 448.84 201.16 448.84C192.65 448.84 185.75 443.91 185.75 431.84C185.75 419.77 201.16 406.33 201.16 406.33C201.16 406.33 216.57 419.77 216.57 431.84Z" fill="#00BCF1"/>
<path d="M201.16 448.83C202.922 448.83 204.35 444.872 204.35 439.99C204.35 435.108 202.922 431.15 201.16 431.15C199.398 431.15 197.97 435.108 197.97 439.99C197.97 444.872 199.398 448.83 201.16 448.83Z" fill="white"/>
<path d="M257.12 431.84C257.12 443.91 250.22 448.84 241.71 448.84C233.2 448.84 226.3 443.91 226.3 431.84C226.3 419.77 241.71 406.33 241.71 406.33C241.71 406.33 257.12 419.77 257.12 431.84Z" fill="#00BCF1"/>
<path d="M241.71 448.83C243.472 448.83 244.9 444.872 244.9 439.99C244.9 435.108 243.472 431.15 241.71 431.15C239.948 431.15 238.52 435.108 238.52 439.99C238.52 444.872 239.948 448.83 241.71 448.83Z" fill="white"/>
<path d="M333.85 431.84C333.85 443.91 326.95 448.84 318.44 448.84C309.93 448.84 303.03 443.91 303.03 431.84C303.03 419.77 318.44 406.33 318.44 406.33C318.44 406.33 333.85 419.77 333.85 431.84Z" fill="#00BCF1"/>
<path d="M318.44 448.83C320.202 448.83 321.63 444.872 321.63 439.99C321.63 435.108 320.202 431.15 318.44 431.15C316.678 431.15 315.25 435.108 315.25 439.99C315.25 444.872 316.678 448.83 318.44 448.83Z" fill="white"/>
<path d="M295.48 431.84C295.48 443.91 288.59 448.84 280.07 448.84C271.55 448.84 264.66 443.91 264.66 431.84C264.66 419.77 280.07 406.33 280.07 406.33C280.07 406.33 295.48 419.77 295.48 431.84Z" fill="#00BCF1"/>
<path d="M280.07 448.83C281.832 448.83 283.26 444.872 283.26 439.99C283.26 435.108 281.832 431.15 280.07 431.15C278.308 431.15 276.88 435.108 276.88 439.99C276.88 444.872 278.308 448.83 280.07 448.83Z" fill="white"/>
<path d="M325.07 395.27C338.54 395.27 349.47 372.55 349.47 344.53C349.47 316.51 338.54 293.79 325.07 293.79H204.26V395.27H325.07Z" stroke="white" stroke-width="3" stroke-linecap="round" stroke-linejoin="round"/>
<path d="M241.47 293.79V279.54H257.66C257.66 279.54 257.42 293.79 278.92 293.79" stroke="white" stroke-width="3" stroke-linecap="round" stroke-linejoin="round"/>
<path d="M204.26 395.27C217.736 395.27 228.66 372.553 228.66 344.53C228.66 316.507 217.736 293.79 204.26 293.79C190.784 293.79 179.86 316.507 179.86 344.53C179.86 372.553 190.784 395.27 204.26 395.27Z" fill="#007DB9" stroke="white" stroke-width="3" stroke-linecap="round" stroke-linejoin="round"/>
<path d="M219.2 350.92C217.78 365.37 211.63 376.24 204.26 376.24C195.84 376.24 189.01 362.04 189.01 344.53C189.01 327.02 195.84 312.82 204.26 312.82C210.58 312.82 216 320.82 218.32 332.18" stroke="white" stroke-width="3" stroke-linecap="round" stroke-linejoin="round"/>
<path d="M200.12 336.54C201.12 334.23 202.63 332.79 204.26 332.79C207.38 332.79 209.91 338.05 209.91 344.53C209.91 351.01 207.38 356.27 204.26 356.27C202.7 356.27 201.26 354.96 200.26 352.83" stroke="white" stroke-width="3" stroke-linecap="round" stroke-linejoin="round"/>
<path d="M232.27 376.24H343.28" stroke="white" stroke-linecap="round" stroke-linejoin="round"/>
<path d="M272.54 366.93H346.66" stroke="white" stroke-linecap="round" stroke-linejoin="round"/>
<path d="M244.9 360.19H346.66" stroke="white" stroke-linecap="round" stroke-linejoin="round"/>
<path d="M455.53 152.94H73.79V185.4H455.53V152.94Z" fill="#007DB9" stroke="white" stroke-width="3" stroke-miterlimit="10"/>
<path d="M125.1 185.39H144.91V203.65C144.91 206.278 143.866 208.799 142.007 210.658C140.149 212.516 137.628 213.56 135 213.56C132.372 213.56 129.851 212.516 127.992 210.658C126.134 208.799 125.09 206.278 125.09 203.65V185.39H125.1Z" fill="#007DB9" stroke="white" stroke-width="3" stroke-miterlimit="10"/>
<path d="M374.69 185.39H394.5V203.65C394.5 204.952 394.244 206.24 393.746 207.443C393.248 208.645 392.518 209.737 391.598 210.658C390.677 211.578 389.585 212.308 388.383 212.806C387.18 213.304 385.892 213.56 384.59 213.56C381.962 213.56 379.441 212.516 377.583 210.658C375.724 208.799 374.68 206.278 374.68 203.65V185.39H374.69Z" fill="#007DB9" stroke="white" stroke-width="3" stroke-miterlimit="10"/>
<path d="M429.89 52.98H359.47V142.94H429.89V52.98Z" fill="#00BCF1"/>
<path d="M419.89 63V133H369.47V63H419.89ZM439.89 43H349.47V153H439.89V43Z" fill="white"/>
<path d="M139.49 -55.0899C127.97 -41.0899 137.71 -37.5999 137.71 -19.4699C137.71 -1.3399 139.71 -1.3499 139.71 16.7801C139.71 34.9101 137.71 34.9001 137.71 53.0301C137.71 71.1601 139.71 71.1601 139.71 89.2901C139.71 107.42 126.43 112.17 137.94 126.18C147.41 137.69 153.62 124.54 168.52 124.54C183.42 124.54 183.43 126.54 198.33 126.54C213.23 126.54 213.24 124.54 228.14 124.54C243.04 124.54 243.05 126.54 257.96 126.54C272.87 126.54 277.53 136.42 286.96 124.91C298.47 110.91 288.73 107.42 288.73 89.2901C288.73 71.1601 286.73 71.1701 286.73 53.0401C286.73 34.9101 288.73 34.9101 288.73 16.7901C288.73 -1.32991 286.73 -1.3399 286.73 -19.4699C286.73 -37.5999 300.02 -42.3599 288.5 -56.3599C279.04 -67.8699 272.83 -54.7199 257.92 -54.7199C243.01 -54.7199 243.02 -56.7199 228.11 -56.7199C213.2 -56.7199 213.21 -54.7199 198.3 -54.7199C183.39 -54.7199 183.3 -53.4899 168.7 -56.7199C153.41 -60.0799 149 -66.5999 139.49 -55.0899ZM268.56 106.15C261.9 114.79 256.87 104.54 245.96 104.54C235.05 104.54 235.06 106.54 224.15 106.54C213.24 106.54 213.25 104.54 202.34 104.54C191.43 104.54 191.43 106.54 180.53 106.54C169.63 106.54 166.17 113.54 159.53 104.93C150.89 93.7501 157.73 91.4201 157.73 77.2901C157.73 63.1601 159.73 63.1601 159.73 49.0401C159.73 34.9201 157.73 34.9101 157.73 20.7901C157.73 6.67009 159.73 6.6601 159.73 -7.46991C159.73 -21.5999 149.31 -25.1499 157.94 -36.3399C164.61 -44.9699 169.64 -34.7199 180.54 -34.7199C191.44 -34.7199 191.45 -36.7199 202.35 -36.7199C213.25 -36.7199 213.26 -34.7199 224.16 -34.7199C235.06 -34.7199 235.07 -36.7199 245.98 -36.7199C256.89 -36.7199 260.34 -43.7199 266.98 -35.1099C275.61 -23.9299 268.77 -21.5999 268.77 -7.46991C268.77 6.6601 266.77 6.6501 266.77 20.7801C266.77 34.9101 268.77 34.9101 268.77 49.0301C268.77 63.1501 263.95 63.6501 266.77 77.4901C269.84 92.3601 277.2 95.0001 268.56 106.15Z" fill="white"/>
<path d="M73.79 174.78H455.54" stroke="white" stroke-miterlimit="10"/>
<path d="M193.69 67.29C193.69 72.5042 191.619 77.5048 187.932 81.1918C184.245 84.8787 179.244 86.95 174.03 86.95C168.816 86.95 163.815 84.8787 160.128 81.1918C156.441 77.5048 154.37 72.5042 154.37 67.29" fill="#B2D235"/>
<path d="M154.37 106.27C154.37 101.056 156.441 96.0554 160.128 92.3684C163.815 88.6814 168.816 86.6101 174.03 86.6101C179.244 86.6101 184.245 88.6814 187.932 92.3684C191.619 96.0554 193.69 101.056 193.69 106.27" fill="#B2D235"/>
<path d="M233 106.27C227.828 106.27 222.868 104.216 219.211 100.559C215.554 96.9016 213.5 91.9417 213.5 86.77C213.5 81.5983 215.554 76.6384 219.211 72.9814C222.868 69.3245 227.828 67.27 233 67.27" fill="#B2D235"/>
<path d="M193.69 67.29C196.251 67.29 198.786 67.7944 201.152 68.7744C203.518 69.7544 205.668 71.1907 207.479 73.0015C209.289 74.8122 210.726 76.9619 211.706 79.3277C212.686 81.6936 213.19 84.2293 213.19 86.79C213.19 89.3508 212.686 91.8865 211.706 94.2524C210.726 96.6182 209.289 98.7679 207.479 100.579C205.668 102.389 203.518 103.826 201.152 104.806C198.786 105.786 196.251 106.29 193.69 106.29" fill="#00BCF1"/>
<path d="M272.32 67.29C272.32 72.5042 270.249 77.5048 266.562 81.1918C262.875 84.8787 257.874 86.95 252.66 86.95C247.446 86.95 242.445 84.8787 238.758 81.1918C235.071 77.5048 233 72.5042 233 67.29" fill="#B2D235"/>
<path d="M233 106.27C233 101.056 235.071 96.0554 238.758 92.3684C242.445 88.6814 247.446 86.6101 252.66 86.6101C257.874 86.6101 262.875 88.6814 266.562 92.3684C270.249 96.0554 272.32 101.056 272.32 106.27" fill="#007DB9"/>
<path d="M193.69 21.2002C193.69 26.4144 191.619 31.4149 187.932 35.1019C184.245 38.7889 179.244 40.8602 174.03 40.8602C168.816 40.8602 163.815 38.7889 160.128 35.1019C156.441 31.4149 154.37 26.4144 154.37 21.2002" fill="#B2D235"/>
<path d="M154.37 60.19C154.37 54.9759 156.441 49.9753 160.128 46.2883C163.815 42.6013 168.816 40.53 174.03 40.53C179.244 40.53 184.245 42.6013 187.932 46.2883C191.619 49.9753 193.69 54.9759 193.69 60.19" fill="#B2D235"/>
<path d="M233 60.1902C227.828 60.1902 222.868 58.1357 219.211 54.4788C215.554 50.8218 213.5 45.8619 213.5 40.6902C213.5 35.5185 215.554 30.5586 219.211 26.9016C222.868 23.2446 227.828 21.1902 233 21.1902" fill="#EC1C24"/>
<path d="M193.69 21.2002C198.862 21.2002 203.822 23.2547 207.479 26.9116C211.135 30.5686 213.19 35.5285 213.19 40.7002C213.19 45.8719 211.135 50.8318 207.479 54.4888C203.822 58.1457 198.862 60.2002 193.69 60.2002" fill="#B2D235"/>
<path d="M272.32 60.1902C267.148 60.1902 262.188 58.1357 258.531 54.4788C254.874 50.8218 252.82 45.8619 252.82 40.6902C252.82 35.5185 254.874 30.5586 258.531 26.9016C262.188 23.2446 267.148 21.1902 272.32 21.1902" fill="#B2D235"/>
<path d="M233 21.2002C238.172 21.2002 243.132 23.2547 246.789 26.9116C250.446 30.5686 252.5 35.5285 252.5 40.7002C252.5 45.8719 250.446 50.8318 246.789 54.4888C243.132 58.1457 238.172 60.2002 233 60.2002" fill="#EC1C24"/>
<path d="M233 13.5101C233 8.29594 235.071 3.29534 238.758 -0.391622C242.445 -4.07859 247.446 -6.1499 252.66 -6.1499C257.874 -6.1499 262.875 -4.07859 266.562 -0.391622C270.249 3.29534 272.32 8.29594 272.32 13.5101" fill="#B2D235"/>
<path d="M193.69 -25.4798C198.879 -25.5011 203.865 -23.4613 207.552 -19.8087C211.238 -16.156 213.323 -11.1893 213.35 -5.99982C213.326 -0.807688 211.242 4.16261 207.556 7.81901C203.869 11.4754 198.882 13.5188 193.69 13.5002" fill="#007DB9"/>
<path d="M233 13.5102C230.429 13.5194 227.881 13.0221 225.502 12.0466C223.123 11.0711 220.959 9.63654 219.134 7.82487C217.31 6.01319 215.86 3.85986 214.867 1.48782C213.875 -0.884228 213.359 -3.42853 213.35 -5.99982C213.374 -11.1884 215.457 -16.1551 219.142 -19.808C222.827 -23.461 227.812 -25.5011 233 -25.4798" fill="#B2D235"/>
<path d="M154.37 -25.4799C159.554 -25.4932 164.532 -23.4499 168.212 -19.7981C171.892 -16.1463 173.973 -11.1842 174 -5.99992C173.976 -0.807787 171.892 4.16252 168.206 7.81891C164.519 11.4753 159.532 13.5187 154.34 13.5001" fill="#00BCF1"/>
<path d="M193.69 13.5102C191.115 13.5247 188.563 13.0312 186.179 12.0581C183.796 11.085 181.627 9.65126 179.798 7.83906C177.97 6.02686 176.516 3.87175 175.521 1.49709C174.526 -0.877575 174.009 -3.42516 174 -5.99983C174.024 -11.191 176.108 -16.1603 179.795 -19.8151C183.482 -23.4699 188.469 -25.5111 193.66 -25.4898" fill="#B2D235"/>
<path d="M514.38 459.65H0V568.28H514.38V459.65Z" fill="#B2D235"/>
</g>
<defs>
<linearGradient id="paint0_linear" x1="-0.5" y1="229.83" x2="514.88" y2="229.83" gradientUnits="userSpaceOnUse">
<stop stop-color="white"/>
<stop offset="1"/>
</linearGradient>
<clipPath id="clip0">
<rect width="514.38" height="549.17" fill="white"/>
</clipPath>
</defs>
</svg>
