<svg width="640" height="400" viewBox="0 0 640 400" fill="none" xmlns="http://www.w3.org/2000/svg">
<g clip-path="url(#clip0)">
<path d="M640 1H0V402H640V1Z" fill="#EC1C24"/>
<path d="M78.2 383.5L78.82 363.5L81.64 346.58L109.72 178H109.26L0 279V401H81.83C80.0589 395.297 78.8432 389.437 78.2 383.5Z" fill="#B2D235"/>
<path d="M307.63 401H318.9L337.49 383.92L337.34 383.85C328.352 391.023 318.337 396.804 307.63 401Z" fill="#007DB9"/>
<path d="M439.12 201.28C430.52 182.93 416.28 167.43 398.3 156.44C396.94 155.61 395.56 154.82 394.16 154.04L425.88 125.04L436.94 45.04H254.56L181.91 111.54L170.83 178L153.74 280.58L150.92 297.5L150.3 317.5C151.423 327.799 154.241 337.841 158.64 347.22C167.24 365.57 181.48 381.06 199.46 392.06C205.193 395.55 211.215 398.541 217.46 401H307.65C318.356 396.804 328.372 391.023 337.36 383.85L337.51 383.92L337.68 384L412.28 315.47C414.58 313.47 416.8 311.47 418.91 309.38C422.435 305.858 425.703 302.089 428.69 298.1C434.788 289.98 439.582 280.958 442.9 271.36C450.794 248.422 449.431 223.309 439.1 201.36L439.12 201.28Z" fill="#00BCF1"/>
<path d="M388.39 172.65C380.652 167.942 372.304 164.318 363.58 161.88C354.352 159.297 344.813 157.992 335.23 158H335.16C333.31 158 331.41 158.05 329.37 158.17L305.7 159.46L309.59 136.07L312 121.88L314.6 106H409.33L415.13 64H270.66L246 212H304.55C306.75 209.922 309.164 208.082 311.75 206.51C315.197 204.401 318.919 202.779 322.81 201.69C332.236 199.066 342.252 199.507 351.41 202.95C359.049 205.857 365.714 210.858 370.64 217.38C373.118 220.684 375.065 224.355 376.41 228.26C377.82 232.359 378.536 236.665 378.53 241C378.53 246.708 377.281 252.346 374.87 257.52C371.334 264.952 365.699 271.185 358.66 275.45C355.21 277.553 351.489 279.175 347.6 280.27C338.174 282.894 328.158 282.453 319 279.01C313.65 276.974 308.748 273.913 304.57 270H247.31C247.69 270.89 248.08 271.78 248.5 272.66C255.45 287.5 267 300.19 282 309.35C289.735 314.057 298.08 317.681 306.8 320.12C316.038 322.704 325.587 324.009 335.18 324H335.25C347.919 324.004 360.483 321.707 372.33 317.22C388.662 311.138 402.935 300.548 413.49 286.68C418.417 280.138 422.3 272.872 425 265.14C431.311 246.86 430.234 226.838 422 209.34C415 194.5 403.37 181.81 388.39 172.65Z" fill="#B2D235"/>
<path d="M393.35 164.55C384.871 159.386 375.722 155.412 366.16 152.74C356.07 149.913 345.639 148.487 335.16 148.5C333.16 148.5 331.06 148.56 328.85 148.68L317.01 149.33L322.65 115.5H417.65L426.08 54.5H262.61L234.79 221.5H308.62C310.921 218.79 313.642 216.467 316.68 214.62C319.398 212.967 322.328 211.692 325.39 210.83C332.856 208.762 340.785 209.112 348.04 211.83C353.974 214.08 359.157 217.95 363 223C364.898 225.529 366.39 228.34 367.42 231.33C369.905 238.602 369.483 246.553 366.24 253.52C363.502 259.245 359.15 264.045 353.72 267.33C351 268.988 348.066 270.266 345 271.13C337.537 273.198 329.611 272.847 322.36 270.13C317.042 268.103 312.315 264.779 308.61 260.46H234.21C235.552 266.033 237.452 271.457 239.88 276.65C247.63 293.18 260.48 307.28 277.05 317.41C285.528 322.576 294.678 326.55 304.24 329.22C314.33 332.048 324.761 333.474 335.24 333.46C349.073 333.496 362.794 330.988 375.72 326.06C393.729 319.334 409.461 307.638 421.09 292.33C426.599 284.996 430.931 276.848 433.93 268.18C441.031 247.565 439.801 224.991 430.5 205.27C422.77 188.78 409.92 174.68 393.35 164.55Z" fill="white" stroke="#00BCF1" stroke-width="10" stroke-miterlimit="10"/>
<path d="M217.05 401C211.659 398.73 206.448 396.056 201.46 393C183.736 382.327 169.54 366.678 160.64 348C156.238 338.587 153.42 328.511 152.3 318.18L152.92 298.11L155.74 281.11L185 109L94.0002 192L62.6402 360.44L59.8202 377.44L59.2002 397.51C59.3202 398.69 59.4902 399.85 59.6602 401.02L217.05 401Z" fill="#007DB9"/>
</g>
<defs>
<clipPath id="clip0">
<rect width="640" height="400" fill="white"/>
</clipPath>
</defs>
</svg>
