<svg width="500" height="500" viewBox="0 0 500 500" fill="none" xmlns="http://www.w3.org/2000/svg">
<path d="M500 0H0V500H500V0Z" fill="#B2D235"/>
<path d="M287.78 372.43H214.02V500H287.78V372.43Z" fill="white"/>
<path d="M192.63 265.81C191.63 218.17 250.9 224.26 241.37 119.97C241.37 119.97 306.85 155.04 309.16 262.11C310.92 344 194.4 347.67 192.63 265.81Z" fill="#EC1C24"/>
<path d="M224 301.21C223.53 279.21 250.88 282.04 246.49 233.94C246.49 233.94 276.69 250.11 277.75 299.51C278.59 337.27 224.84 339 224 301.21Z" fill="#B2D235"/>
<path d="M221.24 363H277.8C285.756 363 293.387 366.161 299.013 371.787C304.639 377.413 307.8 385.044 307.8 393V395.51H191.24V393C191.24 385.044 194.401 377.413 200.027 371.787C205.653 366.161 213.283 363 221.24 363Z" fill="white"/>
<path d="M214.02 462.2H287.78" stroke="#00BCF1" stroke-width="7" stroke-miterlimit="10"/>
<path d="M214.02 399.74H287.78" stroke="#00BCF1" stroke-width="7" stroke-miterlimit="10"/>
</svg>
