<svg width="500" height="500" viewBox="0 0 500 500" fill="none" xmlns="http://www.w3.org/2000/svg">
<path d="M500 0H0V500H500V0Z" fill="#00BCF1"/>
<path d="M287.78 372.43H214.02V500H287.78V372.43Z" fill="white"/>
<path d="M192.63 269.72C191.63 222.08 250.9 228.17 241.37 123.88C241.37 123.88 306.85 158.95 309.16 266.03C310.92 347.89 194.4 351.58 192.63 269.72Z" fill="#EC1C24"/>
<path d="M224 305.12C223.53 283.12 250.88 285.95 246.49 237.85C246.49 237.85 276.69 254.03 277.75 303.42C278.59 341.18 224.84 342.88 224 305.12Z" fill="#00BCF1"/>
<path d="M221.24 366.92H277.8C285.756 366.92 293.387 370.081 299.013 375.707C304.639 381.333 307.8 388.963 307.8 396.92V399.43H191.24V396.92C191.24 388.963 194.401 381.333 200.027 375.707C205.653 370.081 213.283 366.92 221.24 366.92Z" fill="white"/>
<path d="M214.02 466.11H287.78" stroke="#B2D235" stroke-width="7" stroke-miterlimit="10"/>
<path d="M214.02 403.65H287.78" stroke="#B2D235" stroke-width="7" stroke-miterlimit="10"/>
</svg>
