<svg
  id="Layer_1"
  data-name="Layer 1"
  xmlns="http://www.w3.org/2000/svg"
  viewBox="0 0 451.2 601">

  <style>
    #intro-bg {
      fill: white;
      stroke: white;
      stroke-width: 0.5;
      stroke-dasharray: 300;
      stroke-dashoffset: 0;
      animation: dash 10s linear infinite;
    }

    @keyframes dash {
      to {
        stroke-dashoffset: 1100;
      }
    }
  </style>

  <g id="intro-bg" opacity="0.15" style="stroke-dashoffset: 500;">
    <rect
      x="0.7"
      y="0.5"
      width="450"
      height="600"
      fill="none"
      stroke="#b2d235"
      stroke-miterlimit="10">
    </rect>

    <line
      x1="56.06"
      y1="168.92"
      x2="450.7"
      y2="168.92"
      fill="none"
      stroke="#007db9"
      stroke-miterlimit="10">
    </line>

    <line
      x1="37.69"
      y1="178.39"
      x2="403.73"
      y2="178.39"
      fill="none"
      stroke="#007db9"
      stroke-miterlimit="10">
    </line>

    <line
      x1="25.13"
      y1="187.86"
      x2="372.57"
      y2="187.86"
      fill="none"
      stroke="#007db9"
      stroke-miterlimit="10">
    </line>

    <rect
      x="163.97"
      y="312.44"
      width="123.46"
      height="194.35"
      fill="none"
      stroke="#ec1c24"
      stroke-miterlimit="10">
    </rect>

    <path
      d="M153.27,321.08v-31c0-39.55,31.75-72.14,70.78-72.64H225a71.8,71.8,0,0,1,71.73,71.73V321.1Z"
      transform="translate(0.7 0.5)"
      fill="none"
      stroke="#fff"
      stroke-miterlimit="10">
    </path>

    <path
      d="M225,227.42a61.73,61.73,0,0,1,61.73,61.73h0v21.93H163.27v-21c0-33.93,27-62.21,60.91-62.65H225m0-20h-1.08a80.72,80.72,0,0,0-57.3,24.86,82.69,82.69,0,0,0-23.35,57.78v41H306.73V289.15A81.82,81.82,0,0,0,225,207.42Z"
      transform="translate(0.7 0.5)"
      fill="none"
      stroke="#ec1c24"
      stroke-miterlimit="10">
    </path>

    <path
      d="M225,243.56v13a34,34,0,0,1,34,34h13A47,47,0,0,0,225,243.56Z"
      transform="translate(0.7 0.5)"
      fill="none"
      stroke="#b2d235"
      stroke-miterlimit="10">
    </path>

    <path
      d="M219.53,283.24a7.65,7.65,0,0,0,10.82,10.82l31.72-42.54Z"
      transform="translate(0.7 0.5)"
      fill="#007db9"
      stroke="#007db9"
      stroke-linecap="round"
      stroke-linejoin="round"
      stroke-width="4">
    </path>

    <circle
      cx="225.64"
      cy="289.15"
      r="3.77"
      fill="#fff">
    </circle>

    <line
      x1="178.14"
      y1="290.57"
      x2="193.28"
      y2="290.57"
      fill="none"
      stroke="#007db9"
      stroke-linecap="round"
      stroke-linejoin="round"
      stroke-width="2">
    </line>

    <line
      x1="224.78"
      y1="242.09"
      x2="224.78"
      y2="257.23"
      fill="none"
      stroke="#007db9"
      stroke-linecap="round"
      stroke-linejoin="round"
      stroke-width="2">
    </line>

    <line
      x1="191.42"
      y1="256.67"
      x2="202.13"
      y2="267.38"
      fill="none"
      stroke="#007db9"
      stroke-linecap="round"
      stroke-linejoin="round"
      stroke-width="2">
    </line>

    <rect
      x="0.7"
      y="331.52"
      width="163.27"
      height="172.06"
      fill="none"
      stroke="#ec1c24"
      stroke-miterlimit="10">
    </rect>

    <rect
      x="287.43"
      y="331.52"
      width="163.27"
      height="172.06"
      fill="none"
      stroke="#ec1c24"
      stroke-miterlimit="10">
    </rect>

    <circle
      cx="228.64"
      cy="419.48"
      r="50.5"
      fill="none"
      stroke="#fff"
      stroke-miterlimit="10">
    </circle>

    <path
      d="M251.19,437.7c0,18.21-10.41,25.64-23.25,25.64s-23.25-7.43-23.25-25.64,23.25-38.48,23.25-38.48S251.19,419.49,251.19,437.7Z"
      transform="translate(0.7 0.5)"
      fill="none"
      stroke="#00bcf1"
      stroke-miterlimit="10">
    </path>

    <ellipse
      cx="228.64"
      cy="450.5"
      rx="4.81"
      ry="13.34"
      fill="none"
      stroke="#fff"
      stroke-miterlimit="10">
    </ellipse>

    <line
      x1="111.75"
      y1="331.52"
      x2="111.75"
      y2="503.58"
      fill="none"
      stroke="#007db9"
      stroke-miterlimit="10"
      stroke-width="3">
    </line>

    <line
      x1="142.2"
      y1="331.52"
      x2="142.2"
      y2="503.58"
      fill="none"
      stroke="#007db9"
      stroke-miterlimit="10"
      stroke-width="3">
    </line>

    <line
      x1="309.62"
      y1="331.52"
      x2="309.62"
      y2="503.58"
      fill="none"
      stroke="#007db9"
      stroke-miterlimit="10"
      stroke-width="3">
    </line>

    <line
      x1="339.22"
      y1="331.52"
      x2="339.22"
      y2="503.58"
      fill="none"
      stroke="#007db9"
      stroke-miterlimit="10"
      stroke-width="3">
    </line>

    <path
      d="M0,114.19S40.62,80.24,114.55,80.24,239.22,106.45,332,85.32s118-8.41,118-8.41V0H0Z"
      transform="translate(0.7 0.5)"
      fill="none"
      stroke="#00bcf1"
      stroke-miterlimit="10">
    </path>

    <path
      d="M0,239.51H0l84.84.24a15,15,0,0,0,15-15V168.56a18.54,18.54,0,0,1,1.47-7.31,19,19,0,0,1,6.83-8.29,18.38,18.38,0,0,1,4.91-2.36,18.63,18.63,0,0,1,5.6-.84h223.5a15,15,0,0,0,15-15h0v-65a15,15,0,1,0-30,0v50H118.65a48.78,48.78,0,0,0-48.81,48.73v41.26L0,209.51"
      transform="translate(0.7 0.5)"
      fill="none"
      stroke="#b2d235"
      stroke-miterlimit="10"
      stroke-width="3">
    </path>

    <line
      x1="58.72"
      y1="240.25"
      x2="58.72"
      y2="259.92"
      fill="none"
      stroke="#fff"
      stroke-miterlimit="10"
      stroke-width="10">
    </line>

    <line
      x1="127.58"
      y1="150.26"
      x2="127.58"
      y2="168.92"
      fill="none"
      stroke="#fff"
      stroke-miterlimit="10"
      stroke-width="10">
    </line>

    <line
      x1="308.79"
      y1="149.6"
      x2="308.79"
      y2="168.92"
      fill="none"
      stroke="#fff"
      stroke-miterlimit="10"
      stroke-width="10">
    </line>

    <line
      x1="212.14"
      y1="120.07"
      x2="212.14"
      y2="149.6"
      fill="none"
      stroke="#007db9"
      stroke-miterlimit="10">
    </line>

    <line
      x1="25.13"
      y1="210.48"
      x2="25.13"
      y2="240.01"
      fill="none"
      stroke="#007db9"
      stroke-miterlimit="10">
    </line>

    <path
      d="M327.28,113.68c0-8.85,6.69-16,14.94-16s14.93,7.16,14.93,16"
      transform="translate(0.7 0.5)"
      fill="none"
      stroke="#007db9"
      stroke-miterlimit="10">
    </path>

    <path
      d="M69.84,188.46a15,15,0,0,1,30,0"
      transform="translate(0.7 0.5)"
      fill="none"
      stroke="#007db9"
      stroke-miterlimit="10">
    </path>

    <line
      x1="0.7"
      y1="259.92"
      x2="115.98"
      y2="259.92"
      fill="none"
      stroke="#007db9"
      stroke-miterlimit="10">
    </line>

    <line
      y1="359.8"
      x2="111.75"
      y2="359.8"
      fill="none"
      stroke="#b2d235"
      stroke-miterlimit="10">
    </line>

    <line
      x1="339.22"
      y1="359.8"
      x2="450.97"
      y2="359.8"
      fill="none"
      stroke="#b2d235"
      stroke-miterlimit="10">
    </line>

    <line
      x1="113.06"
      y1="344.98"
      x2="142.1"
      y2="344.98"
      fill="none"
      stroke="#b2d235"
      stroke-miterlimit="10">
    </line>

    <line
      x1="311.17"
      y1="344.98"
      x2="340.22"
      y2="344.98"
      fill="none"
      stroke="#b2d235"
      stroke-miterlimit="10">
    </line>

    <line
      x1="339.22"
      y1="376.4"
      x2="450.97"
      y2="376.4"
      fill="none"
      stroke="#b2d235"
      stroke-miterlimit="10">
    </line>

    <line
      x1="311.17"
      y1="361.58"
      x2="340.22"
      y2="361.58"
      fill="none"
      stroke="#b2d235"
      stroke-miterlimit="10">
    </line>

    <line
      x1="339.22"
      y1="392.99"
      x2="450.97"
      y2="392.99"
      fill="none"
      stroke="#b2d235"
      stroke-miterlimit="10">
    </line>

    <line
      x1="311.17"
      y1="378.17"
      x2="340.22"
      y2="378.17"
      fill="none"
      stroke="#b2d235"
      stroke-miterlimit="10">
    </line>

    <line
      x1="339.22"
      y1="409.58"
      x2="450.97"
      y2="409.58"
      fill="none"
      stroke="#b2d235"
      stroke-miterlimit="10">
    </line>

    <line
      x1="311.17"
      y1="394.77"
      x2="340.22"
      y2="394.77"
      fill="none"
      stroke="#b2d235"
      stroke-miterlimit="10">
    </line>

    <line
      y1="374.62"
      x2="111.75"
      y2="374.62"
      fill="none"
      stroke="#b2d235"
      stroke-miterlimit="10">
    </line>

    <line
      x1="113.06"
      y1="359.8"
      x2="142.1"
      y2="359.8"
      fill="none"
      stroke="#b2d235"
      stroke-miterlimit="10">
    </line>

    <line
      y1="389.44"
      x2="111.75"
      y2="389.44"
      fill="none"
      stroke="#b2d235"
      stroke-miterlimit="10">
    </line>

    <line
      x1="113.06"
      y1="374.62"
      x2="142.1"
      y2="374.62"
      fill="none"
      stroke="#b2d235"
      stroke-miterlimit="10">
    </line>

    <line
      y1="404.26"
      x2="111.75"
      y2="404.26"
      fill="none"
      stroke="#b2d235"
      stroke-miterlimit="10">
    </line>

    <line
      x1="113.06"
      y1="389.44"
      x2="142.1"
      y2="389.44"
      fill="none"
      stroke="#b2d235"
      stroke-miterlimit="10">
    </line>

    <path
      d="M0,239.51H0l84.84.24a15,15,0,0,0,15-15V168.56a18.54,18.54,0,0,1,1.47-7.31,19,19,0,0,1,6.83-8.29,18.38,18.38,0,0,1,4.91-2.36,18.63,18.63,0,0,1,5.6-.84h223.5a15,15,0,0,0,15-15h0v-65a15,15,0,1,0-30,0v50H118.65a48.78,48.78,0,0,0-48.81,48.73v41.26L0,209.51"
      transform="translate(0.7 0.5)"
      fill="none"
      stroke="#fff"
      stroke-miterlimit="10"
      stroke-width="3">
    </path>
  </g>
</svg>
