<svg xmlns="http://www.w3.org/2000/svg" viewBox="0 0 450 600"><rect width="450" height="600" fill="#b2d235"/><line x1="55.36" y1="168.42" x2="450" y2="168.42" fill="none" stroke="#007db9" stroke-miterlimit="10"/><line x1="36.99" y1="177.89" x2="403.03" y2="177.89" fill="none" stroke="#007db9" stroke-miterlimit="10"/><line x1="24.43" y1="187.36" x2="371.87" y2="187.36" fill="none" stroke="#007db9" stroke-miterlimit="10"/><rect x="163.27" y="311.94" width="123.46" height="194.35" fill="#ec1c24" stroke="#ec1c24" stroke-miterlimit="10" stroke-width="38"/><path d="M153.27,321.08v-31c0-39.55,31.75-72.14,70.78-72.64H225a71.81,71.81,0,0,1,71.73,71.73v31.93Z" fill="#fff"/><path d="M225,227.42a61.73,61.73,0,0,1,61.73,61.73v21.93H163.27v-21c0-33.93,27-62.21,60.91-62.65H225m0-20h-1.08a80.67,80.67,0,0,0-57.3,24.86,82.72,82.72,0,0,0-23.35,57.78v41H306.73V289.15A81.82,81.82,0,0,0,225,207.42Z" fill="#ec1c24"/><path d="M225,243.56v13a34,34,0,0,1,34,34h13A47,47,0,0,0,225,243.56Z" fill="#b2d235"/><path d="M219.53,283.24a7.65,7.65,0,0,0,10.82,10.82l31.72-42.54Z" fill="#007db9" stroke="#007db9" stroke-linecap="round" stroke-linejoin="round" stroke-width="4"/><circle cx="224.94" cy="288.65" r="3.77" fill="#fff"/><line x1="177.44" y1="290.07" x2="192.58" y2="290.07" fill="none" stroke="#007db9" stroke-linecap="round" stroke-linejoin="round" stroke-width="2"/><line x1="224.08" y1="241.59" x2="224.08" y2="256.73" fill="none" stroke="#007db9" stroke-linecap="round" stroke-linejoin="round" stroke-width="2"/><line x1="190.72" y1="256.17" x2="201.43" y2="266.88" fill="none" stroke="#007db9" stroke-linecap="round" stroke-linejoin="round" stroke-width="2"/><rect y="331.02" width="163.27" height="172.06" fill="#ec1c24"/><rect x="286.73" y="331.02" width="163.27" height="172.06" fill="#ec1c24"/><circle cx="227.94" cy="418.98" r="50.5" fill="#fff"/><path d="M251.19,437.7c0,18.21-10.41,25.64-23.25,25.64s-23.25-7.43-23.25-25.64,23.25-38.48,23.25-38.48S251.19,419.49,251.19,437.7Z" fill="#00bcf1"/><ellipse cx="227.94" cy="450" rx="4.81" ry="13.34" fill="#fff"/><line x1="111.05" y1="331.02" x2="111.05" y2="503.08" fill="none" stroke="#007db9" stroke-miterlimit="10" stroke-width="3"/><line x1="141.5" y1="331.02" x2="141.5" y2="503.08" fill="none" stroke="#007db9" stroke-miterlimit="10" stroke-width="3"/><line x1="308.92" y1="331.02" x2="308.92" y2="503.08" fill="none" stroke="#007db9" stroke-miterlimit="10" stroke-width="3"/><line x1="338.52" y1="331.02" x2="338.52" y2="503.08" fill="none" stroke="#007db9" stroke-miterlimit="10" stroke-width="3"/><path d="M0,114.19S40.62,80.24,114.55,80.24,239.22,106.45,332,85.32s118-8.41,118-8.41V0H0Z" fill="#00bcf1"/><path d="M0,239.51H0l84.84.24a15,15,0,0,0,15-15V168.56a18.53,18.53,0,0,1,1.47-7.31,18.94,18.94,0,0,1,6.83-8.29,18.39,18.39,0,0,1,4.91-2.36,18.59,18.59,0,0,1,5.6-.84h223.5a15,15,0,0,0,15-15v-65a15,15,0,1,0-30,0v50H118.65a48.77,48.77,0,0,0-48.81,48.8v41.19L0,209.51" fill="#b2d235" stroke="#fff" stroke-miterlimit="10" stroke-width="3"/><line x1="58.02" y1="239.75" x2="58.02" y2="259.42" fill="none" stroke="#fff" stroke-miterlimit="10" stroke-width="10"/><line x1="126.88" y1="149.76" x2="126.88" y2="168.42" fill="none" stroke="#fff" stroke-miterlimit="10" stroke-width="10"/><line x1="308.09" y1="149.1" x2="308.09" y2="168.42" fill="none" stroke="#fff" stroke-miterlimit="10" stroke-width="10"/><line x1="211.44" y1="119.57" x2="211.44" y2="149.1" fill="none" stroke="#007db9" stroke-miterlimit="10"/><line x1="24.43" y1="209.98" x2="24.43" y2="239.51" fill="none" stroke="#007db9" stroke-miterlimit="10"/><path d="M327.28,113.68c0-8.85,6.69-16,14.94-16s14.93,7.16,14.93,16" fill="none" stroke="#007db9" stroke-miterlimit="10"/><path d="M69.84,188.46a15,15,0,0,1,30,0" fill="none" stroke="#007db9" stroke-miterlimit="10"/><line y1="259.42" x2="115.28" y2="259.42" fill="none" stroke="#007db9" stroke-miterlimit="10"/><line x1="-0.7" y1="359.3" x2="111.05" y2="359.3" fill="none" stroke="#b2d235" stroke-miterlimit="10"/><line x1="338.52" y1="359.3" x2="450.27" y2="359.3" fill="none" stroke="#b2d235" stroke-miterlimit="10"/><line x1="112.36" y1="344.48" x2="141.4" y2="344.48" fill="none" stroke="#b2d235" stroke-miterlimit="10"/><line x1="310.47" y1="344.48" x2="339.52" y2="344.48" fill="none" stroke="#b2d235" stroke-miterlimit="10"/><line x1="338.52" y1="375.9" x2="450.27" y2="375.9" fill="none" stroke="#b2d235" stroke-miterlimit="10"/><line x1="310.47" y1="361.08" x2="339.52" y2="361.08" fill="none" stroke="#b2d235" stroke-miterlimit="10"/><line x1="338.52" y1="392.49" x2="450.27" y2="392.49" fill="none" stroke="#b2d235" stroke-miterlimit="10"/><line x1="310.47" y1="377.67" x2="339.52" y2="377.67" fill="none" stroke="#b2d235" stroke-miterlimit="10"/><line x1="338.52" y1="409.08" x2="450.27" y2="409.08" fill="none" stroke="#b2d235" stroke-miterlimit="10"/><line x1="310.47" y1="394.27" x2="339.52" y2="394.27" fill="none" stroke="#b2d235" stroke-miterlimit="10"/><line x1="-0.7" y1="374.12" x2="111.05" y2="374.12" fill="none" stroke="#b2d235" stroke-miterlimit="10"/><line x1="112.36" y1="359.3" x2="141.4" y2="359.3" fill="none" stroke="#b2d235" stroke-miterlimit="10"/><line x1="-0.7" y1="388.94" x2="111.05" y2="388.94" fill="none" stroke="#b2d235" stroke-miterlimit="10"/><line x1="112.36" y1="374.12" x2="141.4" y2="374.12" fill="none" stroke="#b2d235" stroke-miterlimit="10"/><line x1="-0.7" y1="403.76" x2="111.05" y2="403.76" fill="none" stroke="#b2d235" stroke-miterlimit="10"/><line x1="112.36" y1="388.94" x2="141.4" y2="388.94" fill="none" stroke="#b2d235" stroke-miterlimit="10"/><path d="M0,239.51H0l84.84.24a15,15,0,0,0,15-15V168.56a18.53,18.53,0,0,1,1.47-7.31,18.94,18.94,0,0,1,6.83-8.29,18.39,18.39,0,0,1,4.91-2.36,18.59,18.59,0,0,1,5.6-.84h223.5a15,15,0,0,0,15-15v-65a15,15,0,1,0-30,0v50H118.65a48.77,48.77,0,0,0-48.81,48.8v41.19L0,209.51" fill="none" stroke="#fff" stroke-miterlimit="10" stroke-width="3"/></svg>