<svg width="640" height="400" viewBox="0 0 640 400" fill="none" xmlns="http://www.w3.org/2000/svg">
<g clip-path="url(#clip0)">
<path d="M640 0H0V400H640V0Z" fill="#00BCF1"/>
<path d="M308.68 373.27L640 194.94V400H283L293 373.27H308.68Z" fill="white"/>
<path d="M434 400H283V319H405L434 400Z" fill="#007DB9"/>
<path d="M434.31 400.12C434.31 400.12 410.9 300.07 422 264.06C429.95 238.14 435 197.28 429 168.34C398.47 176.12 337.59 200.46 308.7 212.29C298.095 216.64 286.743 218.878 275.28 218.88H221.34L225.81 228.04C225.81 228.04 224.86 231.67 223.73 237.25C221.82 246.71 246.19 336.13 246.19 336.13L256.19 373.27H308.67C308.67 373.27 379.13 347 388.8 330L376.5 400.11L434.31 400.12Z" fill="#B2D235"/>
<path d="M308.68 217.59C298.258 222.629 286.836 225.261 275.26 225.29H265.62L225.81 236H429.51C431.58 217.64 432.3 198.18 430.84 180.83L327.73 208.57C320.54 211.94 314.06 215 308.68 217.59Z" fill="#007DB9"/>
<path d="M450.25 166.5V143.79L441.75 135.28C441.75 135.28 441.55 30.2798 325.46 30.2798C209.37 30.2798 213.24 155.15 213.24 155.15L204.74 166.5V189.21L182.58 231.78H288.49L450.25 166.5Z" fill="white" stroke="white" stroke-width="10" stroke-linecap="round" stroke-linejoin="round"/>
<path d="M255.85 141.97L228.7 189H283L255.85 141.97Z" fill="#FF0000"/>
</g>
<defs>
<clipPath id="clip0">
<rect width="640" height="400" fill="white"/>
</clipPath>
</defs>
</svg>
