<svg width="500" height="500" viewBox="0 0 500 500" fill="none" xmlns="http://www.w3.org/2000/svg">
<g clip-path="url(#clip0)">
<path d="M500 -4.27002H0V504.28H500V-4.27002Z" fill="#007DB9"/>
<path d="M152.89 295.41V322.6L140.52 345.92C139.789 347.295 139.342 348.802 139.206 350.353C139.07 351.904 139.247 353.467 139.728 354.948C140.208 356.429 140.982 357.798 142.003 358.973C143.024 360.149 144.271 361.107 145.67 361.79L154.37 366.06L152.89 412.32C152.889 415.33 153.556 418.302 154.844 421.023C156.131 423.744 158.006 426.145 160.333 428.054C162.66 429.962 165.383 431.33 168.303 432.059C171.223 432.789 174.269 432.86 177.22 432.27L209.96 432.93L196.46 500H322.46V360.3C322.46 360.3 370.9 330.85 348.86 256.42C326.82 181.99 152.89 295.41 152.89 295.41Z" fill="#00BCF1"/>
<path d="M213.78 287.93V357.85H225.38C225.38 357.85 224.38 312.18 250 312.18L322.5 360.3L338.24 352.39L348.9 294.79H315.31L213.78 287.93Z" fill="#007DB9"/>
<path d="M256.24 291.91L331.1 342.43C331.1 342.43 348.9 334.95 348.9 295.43" stroke="#00BCF1" stroke-width="12" stroke-linecap="round" stroke-linejoin="round"/>
<path d="M375 295.41L368.51 271.41C368.27 230.83 359.36 153.06 255.71 153.06C186.66 153.06 157.41 205.92 145.84 266.06L125 288.06L375 295.41Z" fill="white" stroke="white" stroke-width="14" stroke-linecap="round" stroke-linejoin="round"/>
<path d="M261.58 198.44L231.58 250.4H291.58L261.58 198.44Z" fill="#FF0000"/>
</g>
<defs>
<clipPath id="clip0">
<rect width="500" height="500" fill="white"/>
</clipPath>
</defs>
</svg>
