<svg width="500" height="500" viewBox="0 0 500 500" fill="none" xmlns="http://www.w3.org/2000/svg">
<g clip-path="url(#clip0)">
<path d="M555.023 -48.0249H-37.7578V546.238H555.023V-48.0249Z" fill="#EC1C24"/>
<path d="M296.911 119L249.5 247.324L202.079 119L119 147.964V397H244.721H254.268H380V147.964L296.911 119Z" fill="white"/>
<path d="M250 397V283.689L181.361 195.469L198.135 173.629L173 166.487L191.213 112" stroke="#EC1C24" stroke-width="6.16" stroke-miterlimit="10"/>
<path d="M308.464 111L322 165.985L296.914 173.116L313.666 194.921L250 283" stroke="#EC1C24" stroke-width="6.16" stroke-miterlimit="10"/>
<path d="M202 119.686L210.386 103H288.075L298 118.427L249.779 247L202 119.686Z" fill="#00BCF1"/>
<path d="M262.106 150.835L249.286 127L235.674 150.835L245.688 161.791L233 202.066L249.134 247.582V249L249.388 248.308L249.561 248.78V247.868L266 203.967L252.143 161.725L262.106 150.835Z" fill="#007DB9"/>
<path d="M316 279V255.312C316.013 254.16 316.441 253.06 317.191 252.252C317.941 251.445 318.953 250.994 320.005 251C321.055 250.997 322.064 251.449 322.813 252.256C323.561 253.063 323.987 254.162 324 255.312V279H316Z" fill="#B2D235"/>
<path d="M296 279H365" stroke="#EC1C24" stroke-width="6.16" stroke-miterlimit="10"/>
<path d="M320 269V304" stroke="#B2D235" stroke-width="3.85" stroke-miterlimit="10"/>
<path d="M226 231H187V294H226V231Z" fill="#B2D235"/>
<path d="M217 241H197V261H217V241Z" fill="white"/>
<path d="M211 103L249.761 127L288 103H211Z" fill="#EC1C24"/>
</g>
<defs>
<clipPath id="clip0">
<rect width="500" height="500" fill="white"/>
</clipPath>
</defs>
</svg>
