<svg width="501" height="501" viewBox="0 0 501 501" fill="none" xmlns="http://www.w3.org/2000/svg">
<g clip-path="url(#clip0)">
<path d="M500.99 0.963745H0.98999V500.964H500.99V0.963745Z" fill="#FF1D25"/>
<path d="M191.11 50.3438L18.02 502.654L481.38 500.964L308.93 50.3438H191.11Z" fill="white"/>
<path d="M0.98999 310.384V500.964H18.66L91.6 310.384H0.98999Z" fill="#007DB9"/>
<path d="M408.45 310.384L481.38 500.964H500.99V310.384H408.45Z" fill="#007DB9"/>
<path d="M91.6 310.384L18.66 500.964H481.38L408.45 310.384H91.6Z" fill="#00BCF1"/>
<path d="M272.44 296.324C260.81 255.684 269.91 195.324 269.91 195.324H231.91C231.91 195.324 241.01 255.634 229.38 296.324C218.84 333.184 204.72 361.324 239.44 380.574H263.59C297.1 361.344 282.99 333.184 272.44 296.324Z" fill="#007DB9"/>
<path d="M140.12 185.354C140.12 204.884 189.33 234.214 250.02 234.214C310.71 234.214 359.92 204.884 359.92 185.354L308.92 50.3538C308.92 39.8838 282.55 31.3538 250.01 31.3538C217.47 31.3538 191.1 39.8338 191.1 50.3538L140.12 185.354Z" fill="#B2D235"/>
<path d="M250.02 69.2938C282.555 69.2938 308.93 60.8096 308.93 50.3438C308.93 39.878 282.555 31.3938 250.02 31.3938C217.485 31.3938 191.11 39.878 191.11 50.3438C191.11 60.8096 217.485 69.2938 250.02 69.2938Z" fill="white"/>
<path d="M228.15 426.774L144.42 378.424C142.9 377.546 141.175 377.084 139.42 377.084C137.665 377.084 135.94 377.546 134.42 378.424L87.24 405.664C86.4799 406.103 85.8487 406.734 85.4099 407.494C84.9711 408.254 84.74 409.116 84.74 409.994V410.514C84.74 412.269 85.2021 413.993 86.0798 415.514C86.9575 417.034 88.2198 418.296 89.74 419.174L170.99 466.074C172.51 466.951 174.235 467.413 175.99 467.413C177.745 467.413 179.47 466.951 180.99 466.074L225.66 440.284C227.18 439.406 228.442 438.144 229.32 436.624C230.198 435.103 230.66 433.379 230.66 431.624V431.104C230.659 430.225 230.426 429.362 229.986 428.602C229.545 427.842 228.912 427.211 228.15 426.774Z" fill="white"/>
</g>
<defs>
<clipPath id="clip0">
<rect width="500" height="500" fill="white" transform="translate(0.98999 0.963745)"/>
</clipPath>
</defs>
</svg>
