<svg width="640" height="400" viewBox="0 0 640 400" fill="none" xmlns="http://www.w3.org/2000/svg">
<g clip-path="url(#clip0)">
<path d="M640 0H0V400H640V0Z" fill="#00BCF1"/>
<path d="M285.78 322.31C221.89 350.78 202.67 324.54 202.67 324.54L91 401L0 400V318L157.41 226.83L253.84 172H351.15C351.15 172 405.49 191.54 408.28 199C408.98 198.92 433 219.74 433 219.74C433 219.74 428.2 240.56 405 231.74C397.926 228.93 391 225.759 384.25 222.24" fill="#007DB9"/>
<path d="M293.2 288.25C283.3 286.64 274.08 286.74 269.25 290.89C261.25 297.71 261.25 303.61 267.04 310.73L289.17 320L309 329C309 329 319.12 333.83 327.45 317.35L332.05 300.01" fill="#007DB9"/>
<path d="M293.2 288.25C283.3 286.64 274.08 286.74 269.25 290.89C261.25 297.71 261.25 303.61 267.04 310.73L289.17 320L309 329C309 329 319.12 333.83 327.45 317.35L332.05 300.01" stroke="#00BCF1" stroke-width="6" stroke-linecap="round" stroke-linejoin="round"/>
<path d="M315.38 267C309.64 269.67 305.2 273 303.52 277.06C299.52 286.75 302.22 291.41 310.59 295.13L326.14 297.53C326.14 297.53 345.02 302.18 350.6 299.39C356.18 296.6 367.48 292.6 367.41 274.13L363.62 256.6" fill="#007DB9"/>
<path d="M315.38 267C309.64 269.67 305.2 273 303.52 277.06C299.52 286.75 302.22 291.41 310.59 295.13L326.14 297.53C326.14 297.53 345.02 302.18 350.6 299.39C356.18 296.6 367.48 292.6 367.41 274.13L363.62 256.6" stroke="#00BCF1" stroke-width="6" stroke-linecap="round" stroke-linejoin="round"/>
<path d="M339.79 234.67C332.17 237.59 326.04 241.42 323.99 246.39C319.99 256.08 322.69 263.14 331.06 266.86H351.42C351.42 266.86 365.49 271.51 371.07 268.72C376.65 265.93 387.95 261.92 387.88 243.46L380.37 191.46C380.37 191.46 343.16 200.76 314.31 211" fill="#007DB9"/>
<path d="M339.79 234.67C332.17 237.59 326.04 241.42 323.99 246.39C319.99 256.08 322.69 263.14 331.06 266.86H348.21L366.54 270.93" stroke="#00BCF1" stroke-width="6" stroke-linecap="round" stroke-linejoin="round"/>
<path d="M276.88 315.74L281.95 304.82" stroke="#00BCF1" stroke-width="17" stroke-miterlimit="10"/>
<path d="M319.78 282.79V297.56" stroke="#00BCF1" stroke-width="17" stroke-miterlimit="10"/>
<path d="M341.69 251.99V266.86" stroke="#00BCF1" stroke-width="17" stroke-miterlimit="10"/>
<path d="M191.5 290.12C191.5 290.12 231.5 302.21 251.05 272.44C270.6 242.67 312.45 237.09 312.45 237.09C312.45 237.09 380.65 245.46 384.23 216.15V209.15L349.86 201.7C349.86 201.7 328.27 192.4 318.04 192.4C311.04 192.4 279.88 198.02 255.43 198.4" fill="#007DB9"/>
<path d="M191.5 290.12C191.5 290.12 231.5 302.21 251.05 272.44C270.6 242.67 312.45 237.09 312.45 237.09C312.45 237.09 380.65 245.46 384.23 216.15V209.15L349.86 201.7C349.86 201.7 328.27 192.4 318.04 192.4C311.04 192.4 279.88 198.02 255.43 198.4" stroke="#00BCF1" stroke-width="6" stroke-linecap="round" stroke-linejoin="round"/>
<path d="M500.92 205C510.696 204.668 520.325 202.525 529.32 198.68L528.13 196.27C527.75 196.46 486.91 215.69 435.43 184.42C441.32 179.54 447.34 174.29 453.65 168.82C471.682 177.145 491.53 180.765 511.34 179.34C519.514 178.818 527.555 177.016 535.17 174L534 171.57C533.65 171.67 500.64 186.26 455.9 166.91C462.11 161.4 468.39 155.71 474.76 149.73C501.25 165.19 533 154.3 533.25 154.17L532.32 151.63C532.07 151.76 502.03 161.97 476.8 147.77C484.45 140.53 492.2 133.01 499.72 125.2C539.41 136.69 577.84 107.43 578.34 107.2L576.74 105.07C576.33 105.35 539.74 133.13 501.92 123.07C535.69 87.8902 566.52 47.0702 579.92 4.43018C581.81 6.65018 583.43 9.96018 584.83 14.5602C596.47 53.4502 561.02 59.0602 574.83 92.6602C588.64 126.26 565.26 132.9 546.62 140.42C527.98 147.94 535.62 159.42 535.85 181.1C536.08 202.78 507.85 225.85 472.39 217.1C454.238 212.699 436.739 205.941 420.34 197C424.48 193.54 428.87 190 433.46 186.12C460.76 203.28 485.17 205.87 500.92 205Z" fill="#B2D235"/>
<path d="M515 103.08C500.65 72.4901 518.78 34.7401 518.94 34.2601L516.67 33.1701C516.29 33.6801 497.38 73.3801 513.21 105.23C505.49 113.92 497.46 122.3 489.42 130.36C477.81 103.23 479.85 80.4401 483.58 66.0401C485.851 56.8454 489.782 48.1428 495.18 40.3601L493 38.7001C492.62 39.2001 463.27 77.8901 487.36 132.44C484.36 135.34 481.46 138.27 478.5 141.07C459.9 110.51 466.69 72.1801 466.82 71.8001L464.13 71.3101C464.13 71.7201 456.91 111.5 476.49 142.93C469.643 149.377 462.886 155.543 456.22 161.43C431 136.12 440.81 87.7001 441 87.2301L438.34 86.6401C436.598 96.1214 435.944 105.77 436.39 115.4C437.34 135.93 443.48 152.4 454.18 163.25C445.26 171.12 436.6 178.54 428.48 185.31C400.4 144.96 414.27 100.47 414.48 99.9901L412.11 99.1901C411.85 99.6301 397.5 145.54 426.46 187.04C423.08 189.8 419.83 192.51 416.74 195.04C415.61 194.34 415.01 193.92 415.01 193.92C415.01 193.92 380.77 135.29 397.52 112.52C414.27 89.7501 441.38 88.8501 462 71.7401C482.62 54.6301 464.15 41.7401 503.82 35.9101C536.94 31.0001 563.16 -7.50993 577.64 2.18007L576.79 1.89007C565.67 37.6901 542.11 72.1101 515 103.08Z" fill="#B2D235"/>
<path d="M342 233.15C365.46 225.79 387.58 218.92 403.6 205.75L407.29 202.66C410.22 200.27 413.29 197.82 416.4 195.18C416.59 195.24 416.65 195.37 416.84 195.44C416.59 195.56 416.4 195.81 416.14 195.94L418.09 198.29L419.7 197C419.8 197 419.99 197.09 420.05 197.22C416.39 200.22 412.98 203.07 409.64 205.74L405.94 208.82C389.35 222.48 366.88 229.44 343 237C299.38 250.74 249.86 266.27 219.55 326.76L216.1 325.06C247.26 262.82 297.57 247.13 342 233.15Z" fill="#B2D235"/>
<path d="M453.18 168.63L453.65 168.8C447.44 174.3 441.32 179.52 435.43 184.4C435.34 184.4 435.18 184.21 435.09 184.17C441 179.11 447.12 174 453.18 168.63Z" fill="#B2D235"/>
<path d="M474.36 149.6C474.46 149.6 474.62 149.79 474.71 149.82C468.34 155.82 462.06 161.5 455.85 167L455.37 166.84C461.78 161.08 468.06 155.39 474.36 149.6Z" fill="#B2D235"/>
<path d="M428.52 185.75C428.451 185.596 428.353 185.456 428.23 185.34C436.36 178.57 444.99 171.25 453.94 163.28C454 163.41 454.19 163.48 454.25 163.6C445.75 171.19 437.12 178.52 428.52 185.75Z" fill="#B2D235"/>
<path d="M426.45 187.48C423.23 190.09 420.11 192.73 416.89 195.34C416.7 195.28 416.64 195.15 416.45 195.08C419.54 192.54 422.79 189.83 426.16 187.08C426.28 187.195 426.379 187.33 426.45 187.48Z" fill="#B2D235"/>
<path d="M456.36 161.78C456.29 161.65 456.1 161.59 456.04 161.46C462.7 155.58 469.49 149.31 476.31 142.96C476.377 143.113 476.472 143.252 476.59 143.37C469.93 149.57 463.17 155.74 456.36 161.78Z" fill="#B2D235"/>
<path d="M432.86 186.06C432.95 186.06 433.11 186.25 433.2 186.29C428.62 190.12 424.2 193.71 420.08 197.17C419.99 197.17 419.8 197.07 419.74 196.94C424.13 193.36 428.43 189.74 432.86 186.06Z" fill="#B2D235"/>
<path d="M191.5 290.12C191.5 290.12 231.5 302.21 251.05 272.44C270.6 242.67 312.45 237.09 312.45 237.09C312.45 237.09 380.65 245.46 384.23 216.15V209.15L349.86 201.7C349.86 201.7 328.27 192.4 318.04 192.4C311.04 192.4 279.88 198.02 255.43 198.4" fill="#007DB9"/>
<path d="M191.5 290.12C191.5 290.12 231.5 302.21 251.05 272.44C270.6 242.67 312.45 237.09 312.45 237.09C312.45 237.09 380.65 245.46 384.23 216.15V209.15L349.86 201.7C349.86 201.7 328.27 192.4 318.04 192.4C311.04 192.4 279.88 198.02 255.43 198.4" stroke="#00BCF1" stroke-width="6" stroke-linecap="round" stroke-linejoin="round"/>
<path d="M384.23 209.18L349.86 201.73C349.86 201.73 328.27 192.43 318.04 192.43C311.04 192.43 279.88 198.05 255.43 198.43" fill="#007DB9"/>
<path d="M384.23 209.18L349.86 201.73C349.86 201.73 328.27 192.43 318.04 192.43C311.04 192.43 279.88 198.05 255.43 198.43" stroke="#B2D235" stroke-width="6" stroke-linecap="round" stroke-linejoin="round"/>
<path d="M365.78 206.55L364.37 217.75" stroke="#B2D235" stroke-width="26" stroke-miterlimit="10"/>
</g>
<defs>
<clipPath id="clip0">
<rect width="640" height="400" fill="white"/>
</clipPath>
</defs>
</svg>
