<svg width="500" height="500" viewBox="0 0 500 500" fill="none" xmlns="http://www.w3.org/2000/svg">
<path d="M500 0H0V500H500V0Z" fill="#00BCF1"/>
<path d="M0 89C0 89 166 113.27 270.41 217.65C374.82 322.03 500 342.33 500 342.33V500H0V89Z" fill="#B2D235"/>
<path d="M128.54 185.28H119.96C103.309 185.28 89.8101 198.778 89.8101 215.43V429.7C89.8101 446.351 103.309 459.85 119.96 459.85H128.54C145.191 459.85 158.69 446.351 158.69 429.7V215.43C158.69 198.778 145.191 185.28 128.54 185.28Z" fill="white"/>
<path d="M138.34 57.2798H109.35V198.2H138.34V57.2798Z" fill="white"/>
<path d="M138.34 99.1401H175.17C183.127 99.1401 190.757 102.301 196.383 107.927C202.009 113.553 205.17 121.184 205.17 129.14V405.86C205.17 413.817 208.331 421.447 213.957 427.073C219.583 432.699 227.214 435.86 235.17 435.86H500" stroke="#007DB9" stroke-width="11" stroke-miterlimit="10"/>
</svg>
