<svg width="500" height="500" viewBox="0 0 500 500" fill="none" xmlns="http://www.w3.org/2000/svg">
<path d="M500 0H0V500H500V0Z" fill="#00BCF1"/>
<path d="M251.33 142.29H250H248.67C230.654 142.29 213.376 149.447 200.636 162.186C187.897 174.926 180.74 192.204 180.74 210.22C180.74 266.83 222.03 255.51 222.03 318.11H278C278 255.51 319.29 266.83 319.29 210.22C319.29 201.297 317.532 192.461 314.117 184.217C310.701 175.974 305.694 168.484 299.383 162.176C293.072 155.867 285.58 150.864 277.335 147.452C269.09 144.04 260.253 142.286 251.33 142.29Z" fill="#B2D235"/>
<path d="M277.97 318.11H222.56V357.71H277.97V318.11Z" fill="white"/>
</svg>
