<svg width="640" height="400" viewBox="0 0 640 400" fill="none" xmlns="http://www.w3.org/2000/svg">
<path d="M640 251L0 247V0H640V251Z" fill="#00BCF1"/>
<path d="M135.5 259C167.256 259 193 233.256 193 201.5C193 169.744 167.256 144 135.5 144C103.744 144 78 169.744 78 201.5C78 233.256 103.744 259 135.5 259Z" fill="white"/>
<path d="M640 251L0 333V232C105 201 482 250 640 194V251Z" fill="#B2D235"/>
<path d="M267.55 163.73V314L583.36 298V216L267.55 163.73Z" fill="white"/>
<path d="M345.8 167H296.32V226H345.8V167Z" fill="#00BCF1"/>
<path d="M345.8 226H296.32V271H345.8V226Z" fill="#007DB9"/>
<path d="M405.18 226H355.7V271H405.18V226Z" fill="#007DB9"/>
<path d="M522.83 167H442.56V226H522.83V167Z" fill="#00BCF1"/>
<path d="M433.22 167H356.25V226H433.22V167Z" fill="#00BCF1"/>
<path d="M613 221L215.5 152.5" stroke="white" stroke-width="8" stroke-miterlimit="10"/>
<path d="M539 303.07C539 288.19 545.8 276.13 554.2 276.13C562.6 276.13 569.39 288.19 569.39 303.07" fill="#B2D235"/>
<path d="M554.2 286.56C560.496 286.56 565.6 277.516 565.6 266.36C565.6 255.204 560.496 246.16 554.2 246.16C547.904 246.16 542.8 255.204 542.8 266.36C542.8 277.516 547.904 286.56 554.2 286.56Z" fill="#B2D235"/>
<path d="M561.18 240.38C561.18 247.22 558.05 252.76 554.18 252.76C550.31 252.76 547.18 247.22 547.18 240.38C547.18 233.54 554.18 228 554.18 228C554.18 228 561.18 233.54 561.18 240.38Z" fill="#B2D235"/>
<path d="M325.19 297.38C325.19 304.22 320.96 309.76 315.75 309.76C310.54 309.76 306.31 304.22 306.31 297.38C306.31 290.54 315.75 285 315.75 285C315.75 285 325.19 290.54 325.19 297.38Z" fill="#B2D235"/>
<path d="M360.37 303.38C360.37 310.22 356.15 315.76 350.94 315.76C345.73 315.76 341.5 310.22 341.5 303.38C341.5 296.54 350.94 291 350.94 291C350.94 291 360.37 296.54 360.37 303.38Z" fill="#B2D235"/>
<path d="M467.29 309.59L442.56 312V251H467.86L467.29 309.59Z" fill="#EC1C24"/>
</svg>
