<svg width="501" height="501" viewBox="0 0 501 501" fill="none" xmlns="http://www.w3.org/2000/svg">
<g clip-path="url(#clip0)">
<path d="M501.35 0.92749H-0.339996V502.617H501.35V0.92749Z" fill="#B2D235"/>
<path d="M317.98 80.4075H185.79C167.852 80.4075 153.31 94.9493 153.31 112.887V384.357C153.31 402.296 167.852 416.837 185.79 416.837H317.98C335.918 416.837 350.46 402.296 350.46 384.357V112.887C350.46 94.9493 335.918 80.4075 317.98 80.4075Z" fill="white" stroke="white" stroke-width="7.58" stroke-linecap="round" stroke-linejoin="round"/>
<path d="M296.68 129.827C296.15 129.157 295.61 128.487 295.06 127.827H208.72C208.17 128.487 207.63 129.157 207.1 129.827C197.038 143.039 191.653 159.221 191.79 175.827C191.79 194.507 198.24 211.447 208.72 223.877H295.06C305.53 211.497 311.99 194.557 311.99 175.927C312.15 159.287 306.763 143.067 296.68 129.827Z" fill="#B2D235"/>
<path d="M278.52 144.238H269.95V169.138H278.52V144.238Z" fill="#007DB9"/>
<path d="M233.82 144.238H225.25V169.138H233.82V144.238Z" fill="#007DB9"/>
<path d="M262.1 196.087C262.1 193.38 261.024 190.783 259.11 188.868C257.195 186.953 254.598 185.877 251.89 185.877C249.182 185.877 246.585 186.953 244.67 188.868C242.756 190.783 241.68 193.38 241.68 196.087V207.517H262.1V196.087Z" fill="#007DB9"/>
<path d="M251.1 385.957C286.341 385.957 314.91 357.389 314.91 322.147C314.91 286.906 286.341 258.337 251.1 258.337C215.859 258.337 187.29 286.906 187.29 322.147C187.29 357.389 215.859 385.957 251.1 385.957Z" fill="#EC1C24"/>
<path d="M311.99 322.147H334.19C355.407 322.147 375.756 330.576 390.759 345.579C405.761 360.582 414.19 380.93 414.19 402.147V500.927" stroke="#EC1C24" stroke-width="20" stroke-miterlimit="10"/>
</g>
<defs>
<clipPath id="clip0">
<rect width="500" height="500" fill="white" transform="translate(0.98999 0.92749)"/>
</clipPath>
</defs>
</svg>
