<svg width="640" height="400" viewBox="0 0 640 400" fill="none" xmlns="http://www.w3.org/2000/svg">
<g clip-path="url(#clip0)">
<path d="M640 0H0V398H640V0Z" fill="#00BCF1" stroke="url(#paint0_linear)" stroke-miterlimit="10"/>
<path d="M513.93 232.65C550.42 232.65 580 202.093 580 164.4C580 126.706 550.42 96.1499 513.93 96.1499C477.441 96.1499 447.86 126.706 447.86 164.4C447.86 202.093 477.441 232.65 513.93 232.65Z" fill="#007DB9"/>
<path d="M580 164.4H447.85L534 253L554.33 257.28C556.541 257.746 558.827 257.736 561.034 257.25C563.242 256.765 565.321 255.815 567.133 254.465C568.945 253.114 570.449 251.393 571.545 249.417C572.641 247.44 573.304 245.252 573.49 243L580 164.4Z" fill="#007DB9"/>
<path d="M533.53 164.4H458.02V286.38H533.53V164.4Z" fill="#007DB9"/>
<path d="M492.31 221.04L533.53 253.02V286.38L512.92 279.42L492.31 221.04Z" fill="#B2D235"/>
<path d="M458.27 279C458.27 279 452.56 339.63 373.73 339.63C294.9 339.63 248 423 248 523H495V276.67L458.27 279Z" fill="#EC1C24"/>
<path d="M531.73 279C531.73 279 537.44 339.63 616.27 339.63C695.1 339.63 742 423 742 523H495V276.67L531.73 279Z" fill="#EC1C24"/>
<path d="M260 203.54V144.69C260 144.69 262 119 296 110C296 110 291 120.13 296 122.57C301 125.01 340 95 370 125C400 155 374 207 374 207" fill="#007DB9"/>
<path d="M39 283.32C39 283.32 83 256.08 83 145.54H203C203 145.54 253.18 226.46 203 276.64C152.82 326.82 39 283.32 39 283.32Z" fill="#EC1C24"/>
<path d="M144.15 86.6899H143H141.85C126.242 86.6899 111.273 92.8902 100.237 103.927C89.2002 114.963 83 129.932 83 145.54C83 194.54 118.77 184.77 118.77 239H167.23C167.23 184.77 203 194.58 203 145.54C203 137.812 201.478 130.159 198.52 123.019C195.563 115.879 191.228 109.391 185.763 103.927C180.299 98.462 173.811 94.1271 166.671 91.1696C159.531 88.2121 151.878 86.6899 144.15 86.6899Z" fill="#B2D235"/>
<path d="M118.77 239C118.77 239 115 279 63.0001 279C11.0001 279 -19.9199 334 -19.9199 400H143V237.5L118.77 239Z" fill="#007DB9"/>
<path d="M167.23 239C167.23 239 171 279 223 279C275 279 305.92 334 305.92 400H143V237.5L167.23 239Z" fill="#007DB9"/>
<path d="M83 145.54H203C203 145.54 201.17 86.1201 143.58 86.1201C85.99 86.1201 83 145.54 83 145.54Z" fill="#EC1C24"/>
<path d="M321.15 144.69H320H318.85C311.122 144.69 303.469 146.212 296.329 149.17C289.189 152.127 282.701 156.462 277.237 161.927C271.772 167.391 267.437 173.879 264.48 181.019C261.522 188.159 260 195.812 260 203.54C260 252.54 295.77 242.77 295.77 297H344.23C344.23 242.77 380 252.58 380 203.54C380 187.932 373.8 172.963 362.763 161.927C351.727 150.89 336.758 144.69 321.15 144.69Z" fill="#FCF3E8"/>
<path d="M295.77 297C295.77 297 292 337 240 337C188 337 157.08 392 157.08 458H320V295.5L295.77 297Z" fill="#B2D235"/>
<path d="M344.23 297C344.23 297 348 337 400 337C452 337 482.92 392 482.92 458H320V295.5L344.23 297Z" fill="#B2D235"/>
<path d="M260 203.54L285 166C285 166 295 183 312 179C329 175 356.38 159.57 379.19 193.79L369 151L313 128L275 141C275 141 257 181.08 260 203.54Z" fill="#007DB9"/>
<path d="M580 164.4L586.33 211.01H555.16L580 164.4Z" fill="#007DB9"/>
</g>
<defs>
<linearGradient id="paint0_linear" x1="-0.5" y1="199" x2="640.5" y2="199" gradientUnits="userSpaceOnUse">
<stop stop-color="white"/>
<stop offset="1"/>
</linearGradient>
<clipPath id="clip0">
<rect width="640" height="400" fill="white"/>
</clipPath>
</defs>
</svg>
