<svg width="502" height="502" viewBox="0 0 502 502" fill="none" xmlns="http://www.w3.org/2000/svg">
<g clip-path="url(#clip0)">
<path d="M501.75 0.118774H0.0600586V501.809H501.75V0.118774Z" fill="#00BCF1"/>
<path d="M89.7201 428.119C89.7201 428.119 159.06 385.209 159.06 211.189H347.94C347.94 211.189 426.94 338.579 347.94 417.579C268.94 496.579 89.7201 428.119 89.7201 428.119Z" fill="#EC1C24"/>
<path d="M255.3 118.539H253.48H251.66C227.096 118.552 203.543 128.319 186.179 145.693C168.815 163.067 159.06 186.625 159.06 211.189C159.06 288.389 215.37 272.949 215.37 358.329H291.67C291.67 272.949 347.98 288.389 347.98 211.189C347.98 199.019 345.583 186.969 340.925 175.726C336.267 164.484 329.439 154.269 320.833 145.665C312.226 137.061 302.009 130.237 290.765 125.583C279.521 120.928 267.47 118.535 255.3 118.539Z" fill="#B2D235"/>
<path d="M215.33 358.329C215.33 358.329 209.4 421.329 127.53 421.329C45.6601 421.329 -2.99994 507.889 -2.99994 611.799H253.48V355.959L215.33 358.329Z" fill="#007DB9"/>
<path d="M291.63 358.329C291.63 358.329 297.56 421.329 379.43 421.329C461.3 421.329 509.97 507.919 509.97 611.829H253.48V355.959L291.63 358.329Z" fill="#007DB9"/>
<path d="M159.06 211.189H347.94C347.94 211.189 345.06 117.639 254.4 117.639C163.74 117.639 159.06 211.189 159.06 211.189Z" fill="#EC1C24"/>
</g>
<defs>
<clipPath id="clip0">
<rect width="501.69" height="501.69" fill="white" transform="translate(0.0600586 0.118774)"/>
</clipPath>
</defs>
</svg>
