<svg width="503" height="500" viewBox="0 0 503 500" fill="none" xmlns="http://www.w3.org/2000/svg">
<g clip-path="url(#clip0)">
<path d="M502.31 0.642578H0.97998V436.153H502.31V0.642578Z" fill="#B2D235"/>
<path d="M502.31 288.643H0.97998V499.213H502.31V288.643Z" fill="#00BCF1"/>
<path d="M151.73 216.643V325.493C151.73 350.883 161 366.683 179.09 377.123C215.41 398.123 274.09 398.203 310.2 377.363C328.32 366.903 337.93 354.043 337.14 325.493V216.643" stroke="white" stroke-width="6" stroke-miterlimit="10"/>
<path d="M151.73 288.643V325.493C151.73 350.883 161 366.683 179.09 377.123C215.41 398.123 274.09 398.203 310.2 377.363C328.32 366.903 337.93 354.043 337.14 325.493V288.643" stroke="white" stroke-width="6" stroke-miterlimit="10"/>
<path d="M163.21 282.643V318.643C163.253 327.668 166.845 336.314 173.21 342.713C184.54 354.273 206.94 369.103 247.32 369.103C281.62 369.103 300.51 359.593 310.75 350.413C314.378 347.201 317.285 343.258 319.279 338.842C321.274 334.426 322.31 329.638 322.32 324.793V283.893C322.32 283.893 291.32 228.093 247.08 228.093C202.84 228.093 163.21 282.643 163.21 282.643Z" fill="#007DB9"/>
<path d="M337.163 217.136C337.323 187.579 295.945 163.393 244.744 163.116C193.542 162.838 151.905 186.575 151.746 216.133C151.586 245.691 192.963 269.877 244.165 270.154C295.366 270.431 337.003 246.694 337.163 217.136Z" stroke="white" stroke-width="6" stroke-miterlimit="10"/>
<path d="M215.54 150.342C193.69 106.982 148.48 144.832 148.48 144.832H148.63C150.13 146.922 183.46 192.562 215.17 156.322" fill="#007DB9"/>
<path d="M266.19 199.773C274.99 204.503 290.72 208.583 307.97 196.243C312.065 193.356 315.504 189.637 318.062 185.328C320.619 181.02 322.237 176.22 322.81 171.243V171.093C322.4 163.423 323.35 151.483 336.74 141.163C336.838 141.084 336.913 140.98 336.957 140.862C337.001 140.744 337.011 140.617 336.988 140.493C336.964 140.369 336.907 140.255 336.823 140.161C336.739 140.068 336.63 139.999 336.51 139.963C292.16 128.033 265.87 154.473 265.87 154.473C248.72 171.643 256.25 191.043 259.15 194.643C259.814 195.382 260.551 196.052 261.35 196.643" fill="#007DB9"/>
<path d="M192.75 149.903C249.13 149.903 250.1 219.693 250.1 258.203" stroke="#007DB9" stroke-width="7" stroke-miterlimit="10"/>
<path d="M281.98 170.643C281.98 170.643 249.84 182.643 249.84 239.373" stroke="#007DB9" stroke-width="7" stroke-miterlimit="10"/>
<path d="M242.75 7.4725C248.179 7.4725 252.58 3.07146 252.58 -2.3575C252.58 -7.78646 248.179 -12.1875 242.75 -12.1875C237.321 -12.1875 232.92 -7.78646 232.92 -2.3575C232.92 3.07146 237.321 7.4725 242.75 7.4725Z" fill="white"/>
<path d="M242.75 55.7425C248.179 55.7425 252.58 51.3415 252.58 45.9125C252.58 40.4836 248.179 36.0825 242.75 36.0825C237.321 36.0825 232.92 40.4836 232.92 45.9125C232.92 51.3415 237.321 55.7425 242.75 55.7425Z" fill="white"/>
<path d="M242.75 104.023C248.179 104.023 252.58 99.6215 252.58 94.1926C252.58 88.7636 248.179 84.3625 242.75 84.3625C237.321 84.3625 232.92 88.7636 232.92 94.1926C232.92 99.6215 237.321 104.023 242.75 104.023Z" fill="white"/>
</g>
<defs>
<clipPath id="clip0">
<rect width="501.33" height="498.57" fill="white" transform="translate(0.97998 0.642578)"/>
</clipPath>
</defs>
</svg>
