<svg
  width="1544"
  height="1543"
  viewBox="0 0 1544 1543"
  fill="none"
  xmlns="http://www.w3.org/2000/svg">
  <path
    d="M705 0H5V700H705V0Z"
    fill="#00BCF1">
  </path>

  <path
    d="M5 124.6C5 124.6 237.4 158.578 383.574 304.71C529.748 450.842 705 479.262 705 479.262V700H5V124.6Z"
    fill="#B2D235">
  </path>

  <path
    d="M5 315C5 315 237.4 337.735 383.574 435.512C529.748 533.288 705 552.304 705 552.304V700H5V315Z"
    fill="#ABB77E">
  </path>

  <path
    d="M184.956 238.393H172.944C149.632 238.393 130.734 257.291 130.734 280.603V580.581C130.734 603.893 149.632 622.791 172.944 622.791H184.956C208.268 622.791 227.166 603.893 227.166 580.581V280.603C227.166 257.291 208.268 238.393 184.956 238.393Z"
    fill="white">
  </path>

  <path
    d="M198.676 59.1924H158.09V256.481H198.676V59.1924Z"
    fill="white">
  </path>

  <path
    d="M198.676 117.796H250.238C261.377 117.796 272.06 122.221 279.936 130.097C287.813 137.974 292.238 148.657 292.238 159.796V547.204C292.238 558.343 296.663 569.026 304.539 576.902C312.416 584.779 323.099 589.204 334.238 589.204H705"
    stroke="#007DB9"
    stroke-width="11"
    stroke-miterlimit="10">
  </path>

  <path
    d="M496.036 96.8184C495.562 100.879 494.059 104.017 491.528 106.231C489.014 108.429 485.665 109.527 481.482 109.527C476.947 109.527 473.308 107.901 470.566 104.649C467.841 101.397 466.479 97.0469 466.479 91.5977V87.9062C466.479 84.3379 467.112 81.2002 468.377 78.4932C469.661 75.7861 471.471 73.7119 473.809 72.2705C476.147 70.8115 478.854 70.082 481.93 70.082C486.008 70.082 489.278 71.2246 491.739 73.5098C494.2 75.7773 495.632 78.9238 496.036 82.9492H490.948C490.508 79.8906 489.55 77.6758 488.074 76.3047C486.615 74.9336 484.567 74.248 481.93 74.248C478.696 74.248 476.156 75.4434 474.31 77.834C472.482 80.2246 471.568 83.626 471.568 88.0381V91.7559C471.568 95.9219 472.438 99.2354 474.178 101.696C475.918 104.157 478.353 105.388 481.482 105.388C484.294 105.388 486.448 104.755 487.942 103.489C489.453 102.206 490.455 99.9824 490.948 96.8184H496.036ZM501.724 94.4717C501.724 91.6768 502.269 89.1631 503.359 86.9307C504.467 84.6982 505.996 82.9756 507.947 81.7627C509.916 80.5498 512.157 79.9434 514.671 79.9434C518.555 79.9434 521.693 81.2881 524.084 83.9775C526.492 86.667 527.696 90.2441 527.696 94.709V95.0518C527.696 97.8291 527.16 100.325 526.088 102.54C525.033 104.737 523.513 106.451 521.526 107.682C519.557 108.912 517.29 109.527 514.723 109.527C510.856 109.527 507.719 108.183 505.31 105.493C502.92 102.804 501.724 99.2441 501.724 94.8145V94.4717ZM506.629 95.0518C506.629 98.2158 507.358 100.756 508.817 102.672C510.294 104.588 512.263 105.546 514.723 105.546C517.202 105.546 519.171 104.579 520.63 102.646C522.089 100.694 522.818 97.9697 522.818 94.4717C522.818 91.3428 522.071 88.8115 520.577 86.8779C519.1 84.9268 517.132 83.9512 514.671 83.9512C512.263 83.9512 510.32 84.9092 508.844 86.8252C507.367 88.7412 506.629 91.4834 506.629 95.0518ZM539.923 109H535.045V68.5H539.923V109ZM553.864 109H548.986V68.5H553.864V109ZM574.344 109.527C570.477 109.527 567.33 108.262 564.904 105.73C562.479 103.182 561.266 99.7803 561.266 95.5264V94.6299C561.266 91.7998 561.802 89.2773 562.874 87.0625C563.964 84.8301 565.476 83.0898 567.409 81.8418C569.36 80.5762 571.47 79.9434 573.737 79.9434C577.446 79.9434 580.329 81.165 582.386 83.6084C584.443 86.0518 585.471 89.5498 585.471 94.1025V96.1328H566.144C566.214 98.9453 567.031 101.222 568.596 102.962C570.178 104.685 572.182 105.546 574.608 105.546C576.33 105.546 577.789 105.194 578.984 104.491C580.18 103.788 581.226 102.856 582.122 101.696L585.102 104.017C582.711 107.69 579.125 109.527 574.344 109.527ZM573.737 83.9512C571.769 83.9512 570.116 84.6719 568.78 86.1133C567.444 87.5371 566.618 89.541 566.302 92.125H580.593V91.7559C580.452 89.2773 579.784 87.3613 578.589 86.0078C577.394 84.6367 575.776 83.9512 573.737 83.9512ZM603.393 105.546C605.133 105.546 606.654 105.019 607.955 103.964C609.255 102.909 609.976 101.591 610.117 100.009H614.731C614.643 101.644 614.081 103.199 613.044 104.676C612.006 106.152 610.618 107.33 608.878 108.209C607.155 109.088 605.327 109.527 603.393 109.527C599.508 109.527 596.415 108.235 594.112 105.651C591.827 103.05 590.684 99.499 590.684 94.999V94.1816C590.684 91.4043 591.194 88.9346 592.213 86.7725C593.233 84.6104 594.692 82.9316 596.59 81.7363C598.506 80.541 600.765 79.9434 603.367 79.9434C606.566 79.9434 609.22 80.9014 611.33 82.8174C613.457 84.7334 614.59 87.2207 614.731 90.2793H610.117C609.976 88.4336 609.273 86.9219 608.007 85.7441C606.759 84.5488 605.212 83.9512 603.367 83.9512C600.888 83.9512 598.963 84.8477 597.592 86.6406C596.239 88.416 595.562 90.9912 595.562 94.3662V95.2891C595.562 98.5762 596.239 101.107 597.592 102.883C598.946 104.658 600.879 105.546 603.393 105.546ZM627.644 73.5625V80.4707H632.97V84.2412H627.644V101.934C627.644 103.076 627.881 103.938 628.355 104.518C628.83 105.08 629.639 105.361 630.781 105.361C631.344 105.361 632.117 105.256 633.102 105.045V109C631.818 109.352 630.57 109.527 629.357 109.527C627.178 109.527 625.534 108.868 624.427 107.55C623.319 106.231 622.766 104.359 622.766 101.934V84.2412H617.571V80.4707H622.766V73.5625H627.644Z"
    fill="white">
  </path>

  <path
    d="M1544 0H844V700H1544V0Z"
    fill="#007DB9">
  </path>

  <path
    d="M1036 333.911C1036 337.269 1029.96 340 1022.51 340C1015.05 340 1009 337.269 1009 333.911V281H1036V333.911Z"
    stroke="#00BCF1"
    stroke-width="6"
    stroke-miterlimit="10"
    stroke-linecap="round">
  </path>

  <path
    d="M1022.5 286C1029.96 286 1036 283.538 1036 280.5C1036 277.462 1029.96 275 1022.5 275C1015.04 275 1009 277.462 1009 280.5C1009 283.538 1015.04 286 1022.5 286Z"
    stroke="#00BCF1"
    stroke-width="6"
    stroke-miterlimit="10"
    stroke-linecap="round">
  </path>

  <path
    d="M1056 300H1036V314H1056V300Z"
    fill="#00BCF1">
  </path>

  <path
    d="M1177 488.647C1177 503.75 1149.93 516 1116.5 516C1083.07 516 1056 503.75 1056 488.647V251H1177V488.647Z"
    fill="white"
    stroke="white"
    stroke-width="6"
    stroke-miterlimit="10"
    stroke-linecap="round">
  </path>

  <path
    d="M1116.5 279C1149.91 279 1177 266.688 1177 251.5C1177 236.312 1149.91 224 1116.5 224C1083.09 224 1056 236.312 1056 251.5C1056 266.688 1083.09 279 1116.5 279Z"
    fill="#007DB9"
    stroke="white"
    stroke-width="6"
    stroke-miterlimit="10"
    stroke-linecap="round">
  </path>

  <path
    d="M1069 254V233C1069 221.397 1090.27 212 1116.5 212C1142.73 212 1164 221.397 1164 233V254"
    stroke="white"
    stroke-width="6"
    stroke-miterlimit="10"
    stroke-linecap="round">
  </path>

  <path
    d="M1116.5 254C1142.73 254 1164 244.598 1164 233C1164 221.402 1142.73 212 1116.5 212C1090.27 212 1069 221.402 1069 233C1069 244.598 1090.27 254 1116.5 254Z"
    fill="#007DB9"
    stroke="white"
    stroke-width="6"
    stroke-miterlimit="10"
    stroke-linecap="round">
  </path>

  <path
    d="M1116.5 233C1142.73 233 1164 223.598 1164 212C1164 200.402 1142.73 191 1116.5 191C1090.27 191 1069 200.402 1069 212C1069 223.598 1090.27 233 1116.5 233Z"
    stroke="white"
    stroke-width="6"
    stroke-miterlimit="10"
    stroke-linecap="round">
  </path>

  <path
    d="M1119 233V254"
    stroke="white"
    stroke-width="6"
    stroke-miterlimit="10"
    stroke-linecap="round">
  </path>

  <path
    d="M1119 191V212"
    stroke="white"
    stroke-width="6"
    stroke-miterlimit="10"
    stroke-linecap="round">
  </path>

  <path
    d="M1069 214V234"
    stroke="white"
    stroke-width="6"
    stroke-miterlimit="10"
    stroke-linecap="round">
  </path>

  <path
    d="M1164 214V234"
    stroke="white"
    stroke-width="6"
    stroke-miterlimit="10"
    stroke-linecap="round">
  </path>

  <path
    d="M1344 333.911C1344 337.269 1350.04 340 1357.49 340C1364.94 340 1371 337.269 1371 333.911V281H1344V333.911Z"
    stroke="#00BCF1"
    stroke-width="6"
    stroke-miterlimit="10"
    stroke-linecap="round">
  </path>

  <path
    d="M1357.5 286C1364.96 286 1371 283.538 1371 280.5C1371 277.462 1364.96 275 1357.5 275C1350.04 275 1344 277.462 1344 280.5C1344 283.538 1350.04 286 1357.5 286Z"
    stroke="#00BCF1"
    stroke-width="6"
    stroke-miterlimit="10"
    stroke-linecap="round">
  </path>

  <path
    d="M1324 314H1344V300H1324V314Z"
    fill="#00BCF1">
  </path>

  <path
    d="M1204 488.647C1204 503.75 1230.85 516 1264 516C1297.15 516 1324 503.75 1324 488.647V251H1204V488.647Z"
    fill="white"
    stroke="white"
    stroke-width="6"
    stroke-miterlimit="10"
    stroke-linecap="round">
  </path>

  <path
    d="M1264 279C1297.14 279 1324 266.688 1324 251.5C1324 236.312 1297.14 224 1264 224C1230.86 224 1204 236.312 1204 251.5C1204 266.688 1230.86 279 1264 279Z"
    fill="#007DB9"
    stroke="white"
    stroke-width="6"
    stroke-miterlimit="10"
    stroke-linecap="round">
  </path>

  <path
    d="M1311 254V233C1311 221.397 1289.74 212 1263.49 212C1237.25 212 1216 221.397 1216 233V254"
    stroke="white"
    stroke-width="6"
    stroke-miterlimit="10"
    stroke-linecap="round">
  </path>

  <path
    d="M1263.5 254C1289.73 254 1311 244.598 1311 233C1311 221.402 1289.73 212 1263.5 212C1237.27 212 1216 221.402 1216 233C1216 244.598 1237.27 254 1263.5 254Z"
    fill="#007DB9"
    stroke="white"
    stroke-width="6"
    stroke-miterlimit="10"
    stroke-linecap="round">
  </path>

  <path
    d="M1263.5 233C1289.73 233 1311 223.598 1311 212C1311 200.402 1289.73 191 1263.5 191C1237.27 191 1216 200.402 1216 212C1216 223.598 1237.27 233 1263.5 233Z"
    stroke="white"
    stroke-width="6"
    stroke-miterlimit="10"
    stroke-linecap="round">
  </path>

  <path
    d="M1261 233V254"
    stroke="white"
    stroke-width="6"
    stroke-miterlimit="10"
    stroke-linecap="round">
  </path>

  <path
    d="M1261 191V212"
    stroke="white"
    stroke-width="6"
    stroke-miterlimit="10"
    stroke-linecap="round">
  </path>

  <path
    d="M1311 214V234"
    stroke="white"
    stroke-width="6"
    stroke-miterlimit="10"
    stroke-linecap="round">
  </path>

  <path
    d="M1216 214V234"
    stroke="white"
    stroke-width="6"
    stroke-miterlimit="10"
    stroke-linecap="round">
  </path>

  <path
    d="M1207 300H1177V314H1207V300Z"
    fill="white">
  </path>

  <path
    d="M1207 328H1177V342H1207V328Z"
    fill="white">
  </path>

  <path
    d="M1146.87 371.529C1146.78 371.348 1146.65 371.196 1146.48 371.092C1146.31 370.987 1146.11 370.934 1145.91 370.94H1141.54C1141.34 365.931 1139.64 361.101 1136.67 357.077C1133.71 353.054 1129.61 350.024 1124.91 348.38C1120.22 346.737 1115.14 346.557 1110.34 347.863C1105.54 349.169 1101.24 351.901 1098 355.704L1101.87 361.279C1104.07 358.165 1107.17 355.816 1110.75 354.557C1114.33 353.298 1118.21 353.192 1121.86 354.252C1125.5 355.312 1128.73 357.487 1131.09 360.477C1133.46 363.466 1134.85 367.122 1135.06 370.94H1130.8C1130.61 370.942 1130.41 370.999 1130.25 371.103C1130.08 371.207 1129.94 371.355 1129.85 371.532C1129.76 371.708 1129.72 371.906 1129.73 372.104C1129.75 372.302 1129.81 372.493 1129.92 372.657L1137.47 383.537C1137.57 383.68 1137.71 383.797 1137.86 383.877C1138.01 383.958 1138.19 384 1138.36 384C1138.53 384 1138.7 383.958 1138.86 383.877C1139.01 383.797 1139.15 383.68 1139.25 383.537L1146.8 372.657C1146.91 372.496 1146.99 372.304 1147 372.104C1147.01 371.903 1146.97 371.704 1146.87 371.529Z"
    fill="#B2D235">
  </path>

  <path
    d="M1116.22 389.633C1111.55 389.625 1107.05 387.868 1103.65 384.72C1100.25 381.572 1098.21 377.269 1097.93 372.691H1102.24C1102.46 372.688 1102.67 372.619 1102.85 372.494C1103.03 372.369 1103.17 372.193 1103.24 371.99C1103.32 371.787 1103.33 371.566 1103.28 371.357C1103.22 371.148 1103.1 370.96 1102.94 370.818L1095.52 360.43C1095.41 360.296 1095.28 360.188 1095.13 360.113C1094.98 360.039 1094.81 360 1094.64 360C1094.46 360 1094.3 360.039 1094.14 360.113C1093.99 360.188 1093.86 360.296 1093.75 360.43L1086.19 371.02C1086.08 371.179 1086.01 371.365 1086 371.559C1085.99 371.752 1086.03 371.944 1086.12 372.117C1086.21 372.293 1086.34 372.441 1086.51 372.543C1086.68 372.644 1086.88 372.696 1087.07 372.691H1091.44C1091.65 377.566 1093.35 382.269 1096.31 386.186C1099.28 390.103 1103.38 393.054 1108.07 394.655C1112.77 396.256 1117.85 396.432 1122.66 395.161C1127.46 393.89 1131.76 391.231 1135 387.529L1131.13 382.103C1129.44 384.431 1127.2 386.329 1124.61 387.639C1122.01 388.948 1119.14 389.632 1116.22 389.633Z"
    fill="#B2D235">
  </path>

  <path
    d="M1293.88 371.529C1293.8 371.348 1293.66 371.196 1293.49 371.092C1293.32 370.987 1293.12 370.934 1292.93 370.94H1288.56C1288.35 365.931 1286.65 361.101 1283.68 357.077C1280.72 353.054 1276.62 350.024 1271.92 348.38C1267.22 346.737 1262.14 346.557 1257.34 347.863C1252.54 349.169 1248.24 351.901 1245 355.704L1248.87 361.279C1251.07 358.166 1254.18 355.819 1257.76 354.562C1261.34 353.304 1265.22 353.198 1268.87 354.258C1272.51 355.318 1275.74 357.492 1278.11 360.48C1280.47 363.468 1281.86 367.122 1282.08 370.94H1277.81C1277.61 370.934 1277.42 370.987 1277.25 371.092C1277.08 371.196 1276.94 371.348 1276.86 371.529C1276.77 371.706 1276.73 371.904 1276.74 372.103C1276.75 372.301 1276.82 372.492 1276.93 372.657L1284.45 383.537C1284.55 383.68 1284.68 383.797 1284.84 383.877C1284.99 383.958 1285.16 384 1285.34 384C1285.51 384 1285.68 383.958 1285.84 383.877C1285.99 383.797 1286.13 383.68 1286.23 383.537L1293.78 372.657C1293.9 372.499 1293.98 372.308 1294 372.108C1294.01 371.908 1293.97 371.707 1293.88 371.529Z"
    fill="#B2D235">
  </path>

  <path
    d="M1263.87 389.568C1259.1 389.566 1254.52 387.815 1251.05 384.673C1247.58 381.531 1245.49 377.235 1245.21 372.663H1249.6C1249.88 372.648 1250.15 372.529 1250.34 372.331C1250.54 372.133 1250.65 371.87 1250.65 371.598C1250.65 371.445 1250.62 371.293 1250.55 371.153C1250.48 371.014 1250.38 370.891 1250.26 370.795L1242.7 360.429C1242.6 360.295 1242.46 360.187 1242.31 360.113C1242.15 360.039 1241.98 360 1241.8 360C1241.63 360 1241.46 360.039 1241.3 360.113C1241.15 360.187 1241.01 360.295 1240.91 360.429L1233.21 370.996C1233.09 371.151 1233.02 371.337 1233 371.531C1232.99 371.725 1233.03 371.92 1233.13 372.09C1233.22 372.263 1233.37 372.408 1233.54 372.509C1233.71 372.61 1233.91 372.663 1234.11 372.663H1238.56C1238.76 377.544 1240.48 382.256 1243.5 386.181C1246.53 390.106 1250.72 393.062 1255.52 394.662C1260.32 396.262 1265.51 396.431 1270.42 395.148C1275.32 393.864 1279.71 391.188 1283 387.469L1279.05 382.055C1277.32 384.378 1275.04 386.272 1272.4 387.578C1269.76 388.885 1266.84 389.567 1263.87 389.568Z"
    fill="#B2D235">
  </path>

  <path
    d="M1313.1 95.8184C1312.62 99.8789 1311.12 103.017 1308.59 105.231C1306.08 107.429 1302.73 108.527 1298.54 108.527C1294.01 108.527 1290.37 106.901 1287.63 103.649C1284.9 100.397 1283.54 96.0469 1283.54 90.5977V86.9062C1283.54 83.3379 1284.17 80.2002 1285.44 77.4932C1286.72 74.7861 1288.53 72.7119 1290.87 71.2705C1293.21 69.8115 1295.92 69.082 1298.99 69.082C1303.07 69.082 1306.34 70.2246 1308.8 72.5098C1311.26 74.7773 1312.69 77.9238 1313.1 81.9492H1308.01C1307.57 78.8906 1306.61 76.6758 1305.14 75.3047C1303.68 73.9336 1301.63 73.248 1298.99 73.248C1295.76 73.248 1293.22 74.4434 1291.37 76.834C1289.54 79.2246 1288.63 82.626 1288.63 87.0381V90.7559C1288.63 94.9219 1289.5 98.2354 1291.24 100.696C1292.98 103.157 1295.42 104.388 1298.54 104.388C1301.36 104.388 1303.51 103.755 1305 102.489C1306.52 101.206 1307.52 98.9824 1308.01 95.8184H1313.1ZM1337.69 108C1337.41 107.438 1337.18 106.436 1337.01 104.994C1334.74 107.35 1332.03 108.527 1328.89 108.527C1326.07 108.527 1323.76 107.736 1321.95 106.154C1320.16 104.555 1319.26 102.533 1319.26 100.09C1319.26 97.1191 1320.39 94.8164 1322.64 93.1816C1324.9 91.5293 1328.09 90.7031 1332.18 90.7031H1336.93V88.4619C1336.93 86.7568 1336.42 85.4033 1335.4 84.4014C1334.38 83.3818 1332.88 82.8721 1330.89 82.8721C1329.15 82.8721 1327.69 83.3115 1326.51 84.1904C1325.33 85.0693 1324.75 86.1328 1324.75 87.3809H1319.84C1319.84 85.957 1320.34 84.5859 1321.34 83.2676C1322.36 81.9316 1323.74 80.877 1325.46 80.1035C1327.2 79.3301 1329.11 78.9434 1331.18 78.9434C1334.47 78.9434 1337.04 79.7695 1338.91 81.4219C1340.77 83.0566 1341.74 85.3154 1341.81 88.1982V101.329C1341.81 103.948 1342.14 106.031 1342.81 107.578V108H1337.69ZM1329.6 104.282C1331.13 104.282 1332.58 103.887 1333.95 103.096C1335.32 102.305 1336.31 101.276 1336.93 100.011V94.1572H1333.1C1327.13 94.1572 1324.14 95.9062 1324.14 99.4043C1324.14 100.934 1324.65 102.129 1325.67 102.99C1326.69 103.852 1328 104.282 1329.6 104.282ZM1374.36 94.0518C1374.36 98.3936 1373.37 101.892 1371.38 104.546C1369.4 107.2 1366.71 108.527 1363.31 108.527C1359.85 108.527 1357.13 107.429 1355.14 105.231V118.969H1350.26V79.4707H1354.72L1354.96 82.6348C1356.94 80.1738 1359.7 78.9434 1363.23 78.9434C1366.66 78.9434 1369.37 80.2354 1371.36 82.8193C1373.36 85.4033 1374.36 88.998 1374.36 93.6035V94.0518ZM1369.48 93.498C1369.48 90.2812 1368.8 87.7412 1367.43 85.8779C1366.06 84.0146 1364.18 83.083 1361.78 83.083C1358.83 83.083 1356.62 84.3926 1355.14 87.0117V100.644C1356.6 103.245 1358.83 104.546 1361.84 104.546C1364.18 104.546 1366.03 103.623 1367.4 101.777C1368.79 99.9141 1369.48 97.1543 1369.48 93.498ZM1388.01 72.5625V79.4707H1393.34V83.2412H1388.01V100.934C1388.01 102.076 1388.25 102.938 1388.72 103.518C1389.2 104.08 1390.01 104.361 1391.15 104.361C1391.71 104.361 1392.49 104.256 1393.47 104.045V108C1392.19 108.352 1390.94 108.527 1389.73 108.527C1387.55 108.527 1385.9 107.868 1384.8 106.55C1383.69 105.231 1383.13 103.359 1383.13 100.934V83.2412H1377.94V79.4707H1383.13V72.5625H1388.01ZM1417.48 105.179C1415.59 107.411 1412.8 108.527 1409.13 108.527C1406.08 108.527 1403.76 107.648 1402.16 105.891C1400.58 104.115 1399.78 101.496 1399.76 98.0332V79.4707H1404.64V97.9014C1404.64 102.226 1406.4 104.388 1409.92 104.388C1413.64 104.388 1416.12 102.999 1417.35 100.222V79.4707H1422.23V108H1417.59L1417.48 105.179ZM1444.27 83.8477C1443.53 83.7246 1442.73 83.6631 1441.87 83.6631C1438.67 83.6631 1436.5 85.0254 1435.35 87.75V108H1430.48V79.4707H1435.22L1435.3 82.7666C1436.9 80.2178 1439.17 78.9434 1442.1 78.9434C1443.05 78.9434 1443.77 79.0664 1444.27 79.3125V83.8477ZM1460.9 108.527C1457.03 108.527 1453.88 107.262 1451.46 104.73C1449.03 102.182 1447.82 98.7803 1447.82 94.5264V93.6299C1447.82 90.7998 1448.35 88.2773 1449.43 86.0625C1450.52 83.8301 1452.03 82.0898 1453.96 80.8418C1455.91 79.5762 1458.02 78.9434 1460.29 78.9434C1464 78.9434 1466.88 80.165 1468.94 82.6084C1470.99 85.0518 1472.02 88.5498 1472.02 93.1025V95.1328H1452.7C1452.77 97.9453 1453.58 100.222 1455.15 101.962C1456.73 103.685 1458.73 104.546 1461.16 104.546C1462.88 104.546 1464.34 104.194 1465.54 103.491C1466.73 102.788 1467.78 101.856 1468.67 100.696L1471.65 103.017C1469.26 106.69 1465.68 108.527 1460.9 108.527ZM1460.29 82.9512C1458.32 82.9512 1456.67 83.6719 1455.33 85.1133C1454 86.5371 1453.17 88.541 1452.85 91.125H1467.14V90.7559C1467 88.2773 1466.34 86.3613 1465.14 85.0078C1463.95 83.6367 1462.33 82.9512 1460.29 82.9512Z"
    fill="white">
  </path>

  <path
    d="M1544 841H844V1541H1544V841Z"
    fill="#00BCF1">
  </path>

  <path
    d="M1544 1342H844V1541H1544V1342Z"
    fill="#007DB9">
  </path>

  <path
    d="M1339.22 1041.33H1339.21C1330.54 1041.33 1323.51 1048.35 1323.51 1057.02V1333.25C1323.51 1341.92 1330.54 1348.95 1339.21 1348.95H1339.22C1347.89 1348.95 1354.92 1341.92 1354.92 1333.25V1057.02C1354.92 1048.35 1347.89 1041.33 1339.22 1041.33Z"
    fill="#007DB9">
  </path>

  <path
    d="M1279.39 1041.33H1279.37C1270.7 1041.33 1263.68 1048.35 1263.68 1057.02V1333.25C1263.68 1341.92 1270.7 1348.95 1279.37 1348.95H1279.39C1288.05 1348.95 1295.08 1341.92 1295.08 1333.25V1057.02C1295.08 1048.35 1288.05 1041.33 1279.39 1041.33Z"
    fill="#007DB9">
  </path>

  <path
    d="M1054.55 1394.29C1054.55 1414.92 1091.51 1431.63 1137.15 1431.63C1182.79 1431.63 1219.75 1414.92 1219.75 1394.29V1070.03H1054.55V1394.29Z"
    fill="white"
    stroke="white"
    stroke-width="6"
    stroke-miterlimit="10"
    stroke-linecap="round">
  </path>

  <path
    d="M1137.09 1107.36C1182.68 1107.36 1219.63 1090.65 1219.63 1070.03C1219.63 1049.4 1182.68 1032.69 1137.09 1032.69C1091.5 1032.69 1054.55 1049.4 1054.55 1070.03C1054.55 1090.65 1091.5 1107.36 1137.09 1107.36Z"
    fill="#007DB9"
    stroke="white"
    stroke-width="6"
    stroke-miterlimit="10"
    stroke-linecap="round">
  </path>

  <path
    d="M1201.64 1073.4V1044.21C1201.64 1028.08 1172.75 1015.01 1137.09 1015.01C1101.43 1015.01 1072.55 1028.08 1072.55 1044.21V1073.4"
    stroke="white"
    stroke-width="6"
    stroke-miterlimit="10"
    stroke-linecap="round">
  </path>

  <path
    d="M1137.09 1073.4C1172.74 1073.4 1201.64 1060.33 1201.64 1044.21C1201.64 1028.09 1172.74 1015.02 1137.09 1015.02C1101.44 1015.02 1072.54 1028.09 1072.54 1044.21C1072.54 1060.33 1101.44 1073.4 1137.09 1073.4Z"
    fill="#007DB9"
    stroke="white"
    stroke-width="6"
    stroke-miterlimit="10"
    stroke-linecap="round">
  </path>

  <path
    d="M1137.09 1045.65C1172.74 1045.65 1201.64 1032.58 1201.64 1016.46C1201.64 1000.34 1172.74 987.272 1137.09 987.272C1101.44 987.272 1072.54 1000.34 1072.54 1016.46C1072.54 1032.58 1101.44 1045.65 1137.09 1045.65Z"
    stroke="white"
    stroke-width="6"
    stroke-miterlimit="10"
    stroke-linecap="round">
  </path>

  <path
    d="M1134.43 1045.65V1073.4"
    stroke="white"
    stroke-width="6"
    stroke-miterlimit="10"
    stroke-linecap="round">
  </path>

  <path
    d="M1134.43 987.258V1015.01"
    stroke="white"
    stroke-width="6"
    stroke-miterlimit="10"
    stroke-linecap="round">
  </path>

  <path
    d="M1348.14 1301.68H1173.73C1153.44 1301.68 1136.99 1318.12 1136.99 1338.41V1338.43C1136.99 1358.71 1153.44 1375.16 1173.73 1375.16H1348.14C1368.43 1375.16 1384.88 1358.71 1384.88 1338.43V1338.41C1384.88 1318.12 1368.43 1301.68 1348.14 1301.68Z"
    fill="#B2D235">
  </path>

  <path
    d="M1259.8 1264.99C1269.77 1264.99 1279.34 1268.95 1286.39 1276C1293.44 1283.06 1297.4 1292.62 1297.4 1302.59V1341.79H1222.25V1302.59C1222.25 1292.63 1226.21 1283.07 1233.25 1276.02C1240.29 1268.97 1249.84 1265 1259.8 1264.99Z"
    fill="white">
  </path>

  <path
    d="M1263.68 1341.75V1422.2"
    stroke="white"
    stroke-width="9"
    stroke-miterlimit="10">
  </path>

  <path
    d="M1339.21 1303.38V1422.2"
    stroke="white"
    stroke-width="9"
    stroke-miterlimit="10">
  </path>

  <path
    d="M1188.39 1300.68V1380.62"
    stroke="white"
    stroke-width="9"
    stroke-miterlimit="10"
    stroke-linecap="round">
  </path>

  <path
    d="M1188.4 1361.18H1226.48C1228.8 1361.18 1231.03 1360.26 1232.68 1358.62C1234.32 1356.97 1235.24 1354.74 1235.24 1352.42V1328.73"
    stroke="white"
    stroke-width="6"
    stroke-miterlimit="10"
    stroke-linecap="round">
  </path>

  <path
    d="M1222.25 1190.15H1351.5"
    stroke="#007DB9"
    stroke-width="10"
    stroke-miterlimit="10">
  </path>

  <path
    d="M1367.35 917.818C1366.87 921.879 1365.37 925.017 1362.84 927.231C1360.33 929.429 1356.98 930.527 1352.79 930.527C1348.26 930.527 1344.62 928.901 1341.88 925.649C1339.15 922.397 1337.79 918.047 1337.79 912.598V908.906C1337.79 905.338 1338.42 902.2 1339.69 899.493C1340.97 896.786 1342.78 894.712 1345.12 893.271C1347.46 891.812 1350.17 891.082 1353.24 891.082C1357.32 891.082 1360.59 892.225 1363.05 894.51C1365.51 896.777 1366.94 899.924 1367.35 903.949H1362.26C1361.82 900.891 1360.86 898.676 1359.39 897.305C1357.93 895.934 1355.88 895.248 1353.24 895.248C1350.01 895.248 1347.47 896.443 1345.62 898.834C1343.79 901.225 1342.88 904.626 1342.88 909.038V912.756C1342.88 916.922 1343.75 920.235 1345.49 922.696C1347.23 925.157 1349.66 926.388 1352.79 926.388C1355.61 926.388 1357.76 925.755 1359.25 924.489C1360.76 923.206 1361.77 920.982 1362.26 917.818H1367.35ZM1379.63 930H1374.75V889.5H1379.63V930ZM1400.11 930.527C1396.24 930.527 1393.09 929.262 1390.67 926.73C1388.24 924.182 1387.03 920.78 1387.03 916.526V915.63C1387.03 912.8 1387.57 910.277 1388.64 908.062C1389.73 905.83 1391.24 904.09 1393.17 902.842C1395.12 901.576 1397.23 900.943 1399.5 900.943C1403.21 900.943 1406.09 902.165 1408.15 904.608C1410.21 907.052 1411.23 910.55 1411.23 915.103V917.133H1391.91C1391.98 919.945 1392.8 922.222 1394.36 923.962C1395.94 925.685 1397.95 926.546 1400.37 926.546C1402.09 926.546 1403.55 926.194 1404.75 925.491C1405.94 924.788 1406.99 923.856 1407.89 922.696L1410.87 925.017C1408.47 928.69 1404.89 930.527 1400.11 930.527ZM1399.5 904.951C1397.53 904.951 1395.88 905.672 1394.54 907.113C1393.21 908.537 1392.38 910.541 1392.07 913.125H1406.36V912.756C1406.22 910.277 1405.55 908.361 1404.35 907.008C1403.16 905.637 1401.54 904.951 1399.5 904.951ZM1435.33 930C1435.05 929.438 1434.82 928.436 1434.64 926.994C1432.37 929.35 1429.67 930.527 1426.52 930.527C1423.71 930.527 1421.4 929.736 1419.59 928.154C1417.79 926.555 1416.9 924.533 1416.9 922.09C1416.9 919.119 1418.02 916.816 1420.27 915.182C1422.54 913.529 1425.72 912.703 1429.82 912.703H1434.56V910.462C1434.56 908.757 1434.05 907.403 1433.03 906.401C1432.01 905.382 1430.51 904.872 1428.52 904.872C1426.78 904.872 1425.32 905.312 1424.15 906.19C1422.97 907.069 1422.38 908.133 1422.38 909.381H1417.48C1417.48 907.957 1417.98 906.586 1418.98 905.268C1420 903.932 1421.37 902.877 1423.09 902.104C1424.83 901.33 1426.74 900.943 1428.81 900.943C1432.1 900.943 1434.68 901.77 1436.54 903.422C1438.4 905.057 1439.37 907.315 1439.44 910.198V923.329C1439.44 925.948 1439.77 928.031 1440.44 929.578V930H1435.33ZM1427.23 926.282C1428.76 926.282 1430.21 925.887 1431.58 925.096C1432.95 924.305 1433.95 923.276 1434.56 922.011V916.157H1430.74C1424.76 916.157 1421.77 917.906 1421.77 921.404C1421.77 922.934 1422.28 924.129 1423.3 924.99C1424.32 925.852 1425.63 926.282 1427.23 926.282ZM1452.51 901.471L1452.67 905.057C1454.85 902.314 1457.7 900.943 1461.21 900.943C1467.24 900.943 1470.28 904.345 1470.33 911.147V930H1465.46V911.121C1465.44 909.064 1464.96 907.544 1464.03 906.56C1463.12 905.575 1461.69 905.083 1459.74 905.083C1458.15 905.083 1456.76 905.505 1455.57 906.349C1454.37 907.192 1453.44 908.3 1452.77 909.671V930H1447.9V901.471H1452.51Z"
    fill="white">
  </path>

  <g clip-path="url(#clip0)">
    <path
      d="M700 843H0V1543H700V843Z"
      fill="#00BCF1">
    </path>

    <path
      d="M182.994 1176.93H166.026V1344.05H182.994V1176.93Z"
      fill="#007DB9">
    </path>

    <path
      d="M544.11 1426.93C592.311 1426.93 631.386 1387.85 631.386 1339.65C631.386 1291.45 592.311 1252.37 544.11 1252.37C495.909 1252.37 456.834 1291.45 456.834 1339.65C456.834 1387.85 495.909 1426.93 544.11 1426.93Z"
      fill="#B2D235">
    </path>

    <path
      d="M509.656 1295.26L581.434 1387.75"
      stroke="#00BCF1"
      stroke-width="4"
      stroke-linecap="round"
      stroke-linejoin="round">
    </path>

    <path
      d="M487.004 1341.67L604.086 1341.33"
      stroke="#00BCF1"
      stroke-width="4"
      stroke-linecap="round"
      stroke-linejoin="round">
    </path>

    <path
      d="M527.688 1397.25L563.402 1285.75"
      stroke="#00BCF1"
      stroke-width="4"
      stroke-linecap="round"
      stroke-linejoin="round">
    </path>

    <path
      d="M594.678 1309.66L496.412 1373.33"
      stroke="#00BCF1"
      stroke-width="4"
      stroke-linecap="round"
      stroke-linejoin="round">
    </path>

    <path
      d="M182.994 1248.48C242.035 1248.48 289.898 1200.62 289.898 1141.58C289.898 1082.54 242.035 1034.67 182.994 1034.67C123.952 1034.67 76.0898 1082.54 76.0898 1141.58C76.0898 1200.62 123.952 1248.48 182.994 1248.48Z"
      fill="#B2D235">
    </path>

    <path
      d="M137.732 1193.43L232.036 1085.38"
      stroke="#00BCF1"
      stroke-width="4.9"
      stroke-linecap="round"
      stroke-linejoin="round">
    </path>

    <path
      d="M198.856 1209.74L170.912 1069.07"
      stroke="#00BCF1"
      stroke-width="4.9"
      stroke-linecap="round"
      stroke-linejoin="round">
    </path>

    <path
      d="M256.102 1147.77L113.666 1131.05"
      stroke="#00BCF1"
      stroke-width="4.9"
      stroke-linecap="round"
      stroke-linejoin="round">
    </path>

    <path
      d="M135.058 1087.83L234.71 1190.98"
      stroke="#00BCF1"
      stroke-width="4.9"
      stroke-linecap="round"
      stroke-linejoin="round">
    </path>

    <path
      d="M322.308 1372.28L182.994 1365.45L183.008 1130.99L252.658 1047.04L322.308 1211.42V1372.28Z"
      fill="white">
    </path>

    <path
      d="M322.308 1211.42L252.658 1047.04H476.896L546.546 1211.42H322.308Z"
      fill="#FF1D25">
    </path>

    <path
      d="M264.04 1222.95L241.276 1209.8V1145.83L264.04 1158.98V1222.95Z"
      fill="#B2D235">
    </path>

    <path
      d="M264.04 1326.71L241.262 1313.57L241.276 1249.6L264.04 1262.75V1326.71Z"
      fill="#B2D235">
    </path>

    <path
      d="M546.546 1211.42H322.308V1372.28H546.546V1211.42Z"
      fill="#00BCF1">
    </path>

    <path
      d="M450.254 1211.31H418.6V1289.81H450.254V1211.31Z"
      fill="#B2D235">
    </path>

    <path
      d="M700 1344H-2V1543H700V1344Z"
      fill="#B2D235">
    </path>

    <path
      d="M421.988 927.818C421.514 931.879 420.011 935.017 417.479 937.231C414.966 939.429 411.617 940.527 407.434 940.527C402.898 940.527 399.26 938.901 396.518 935.649C393.793 932.397 392.431 928.047 392.431 922.598V918.906C392.431 915.338 393.063 912.2 394.329 909.493C395.612 906.786 397.423 904.712 399.761 903.271C402.099 901.812 404.806 901.082 407.882 901.082C411.96 901.082 415.229 902.225 417.69 904.51C420.151 906.777 421.584 909.924 421.988 913.949H416.899C416.46 910.891 415.502 908.676 414.025 907.305C412.566 905.934 410.518 905.248 407.882 905.248C404.647 905.248 402.107 906.443 400.262 908.834C398.434 911.225 397.519 914.626 397.519 919.038V922.756C397.519 926.922 398.39 930.235 400.13 932.696C401.87 935.157 404.305 936.388 407.434 936.388C410.246 936.388 412.399 935.755 413.893 934.489C415.405 933.206 416.407 930.982 416.899 927.818H421.988ZM446.581 937.179C444.683 939.411 441.897 940.527 438.223 940.527C435.182 940.527 432.862 939.648 431.262 937.891C429.68 936.115 428.88 933.496 428.863 930.033V911.471H433.741V929.901C433.741 934.226 435.498 936.388 439.014 936.388C442.741 936.388 445.219 934.999 446.45 932.222V911.471H451.328V940H446.687L446.581 937.179ZM476.184 932.433C476.184 931.114 475.683 930.095 474.681 929.374C473.697 928.636 471.966 928.003 469.487 927.476C467.026 926.948 465.066 926.315 463.607 925.577C462.166 924.839 461.094 923.96 460.39 922.94C459.705 921.921 459.362 920.708 459.362 919.302C459.362 916.964 460.346 914.986 462.315 913.369C464.302 911.752 466.833 910.943 469.909 910.943C473.143 910.943 475.763 911.778 477.766 913.448C479.788 915.118 480.799 917.254 480.799 919.855H475.894C475.894 918.52 475.323 917.368 474.18 916.401C473.055 915.435 471.632 914.951 469.909 914.951C468.134 914.951 466.745 915.338 465.743 916.111C464.741 916.885 464.24 917.896 464.24 919.144C464.24 920.321 464.706 921.209 465.638 921.807C466.569 922.404 468.248 922.976 470.674 923.521C473.117 924.065 475.095 924.716 476.606 925.472C478.118 926.228 479.234 927.142 479.955 928.214C480.693 929.269 481.062 930.561 481.062 932.09C481.062 934.639 480.043 936.687 478.004 938.233C475.965 939.763 473.319 940.527 470.067 940.527C467.782 940.527 465.761 940.123 464.003 939.314C462.245 938.506 460.865 937.381 459.863 935.939C458.879 934.48 458.387 932.907 458.387 931.22H463.264C463.352 932.854 464.003 934.155 465.216 935.122C466.446 936.071 468.063 936.546 470.067 936.546C471.913 936.546 473.389 936.177 474.497 935.438C475.622 934.683 476.184 933.681 476.184 932.433ZM494.845 904.562V911.471H500.171V915.241H494.845V932.934C494.845 934.076 495.082 934.938 495.557 935.518C496.031 936.08 496.84 936.361 497.983 936.361C498.545 936.361 499.319 936.256 500.303 936.045V940C499.02 940.352 497.772 940.527 496.559 940.527C494.379 940.527 492.736 939.868 491.628 938.55C490.521 937.231 489.967 935.359 489.967 932.934V915.241H484.773V911.471H489.967V904.562H494.845ZM504.883 925.472C504.883 922.677 505.428 920.163 506.518 917.931C507.626 915.698 509.155 913.976 511.106 912.763C513.075 911.55 515.316 910.943 517.83 910.943C521.715 910.943 524.852 912.288 527.243 914.978C529.651 917.667 530.855 921.244 530.855 925.709V926.052C530.855 928.829 530.319 931.325 529.247 933.54C528.192 935.737 526.672 937.451 524.685 938.682C522.716 939.912 520.449 940.527 517.883 940.527C514.015 940.527 510.878 939.183 508.469 936.493C506.079 933.804 504.883 930.244 504.883 925.814V925.472ZM509.788 926.052C509.788 929.216 510.517 931.756 511.976 933.672C513.453 935.588 515.422 936.546 517.883 936.546C520.361 936.546 522.33 935.579 523.789 933.646C525.248 931.694 525.977 928.97 525.977 925.472C525.977 922.343 525.23 919.812 523.736 917.878C522.259 915.927 520.291 914.951 517.83 914.951C515.422 914.951 513.479 915.909 512.003 917.825C510.526 919.741 509.788 922.483 509.788 926.052ZM542.37 911.471L542.502 914.635C544.594 912.174 547.415 910.943 550.966 910.943C554.956 910.943 557.672 912.473 559.113 915.531C560.063 914.16 561.293 913.053 562.805 912.209C564.334 911.365 566.136 910.943 568.21 910.943C574.468 910.943 577.65 914.257 577.755 920.884V940H572.877V921.174C572.877 919.135 572.411 917.614 571.48 916.612C570.548 915.593 568.984 915.083 566.786 915.083C564.976 915.083 563.473 915.628 562.277 916.718C561.082 917.79 560.388 919.24 560.194 921.068V940H555.29V921.306C555.29 917.157 553.26 915.083 549.199 915.083C546 915.083 543.812 916.445 542.634 919.17V940H537.756V911.471H542.37ZM597.787 940.527C593.919 940.527 590.773 939.262 588.347 936.73C585.921 934.182 584.709 930.78 584.709 926.526V925.63C584.709 922.8 585.245 920.277 586.317 918.062C587.407 915.83 588.919 914.09 590.852 912.842C592.803 911.576 594.913 910.943 597.18 910.943C600.889 910.943 603.772 912.165 605.829 914.608C607.885 917.052 608.914 920.55 608.914 925.103V927.133H589.586C589.657 929.945 590.474 932.222 592.039 933.962C593.621 935.685 595.625 936.546 598.05 936.546C599.773 936.546 601.232 936.194 602.427 935.491C603.623 934.788 604.669 933.856 605.565 932.696L608.544 935.017C606.154 938.69 602.568 940.527 597.787 940.527ZM597.18 914.951C595.211 914.951 593.559 915.672 592.223 917.113C590.887 918.537 590.061 920.541 589.745 923.125H604.036V922.756C603.895 920.277 603.227 918.361 602.032 917.008C600.836 915.637 599.219 914.951 597.18 914.951ZM629.183 915.848C628.444 915.725 627.645 915.663 626.783 915.663C623.584 915.663 621.413 917.025 620.271 919.75V940H615.393V911.471H620.139L620.218 914.767C621.817 912.218 624.085 910.943 627.021 910.943C627.97 910.943 628.69 911.066 629.183 911.312V915.848Z"
      fill="white">
    </path>
  </g>

  <path
    d="M871 366.9L887.97 349.95L871 333H885.4L902.35 349.95L885.4 366.9H871Z"
    fill="#00BAF3">
  </path>

  <path
    d="M694 349.95L892 350"
    stroke="#00BAF3"
    stroke-width="10"
    stroke-miterlimit="10">
  </path>

  <path
    d="M694.35 1159L677.38 1175.95L694.35 1192.9L679.95 1192.9L663 1175.95L679.95 1159L694.35 1159Z"
    fill="#00BAF3">
  </path>

  <path
    d="M871.35 1175.95L673.35 1175.9"
    stroke="#00BAF3"
    stroke-width="10"
    stroke-miterlimit="10">
  </path>

  <path
    d="M371.9 685.35L354.95 668.38L338 685.35L338 670.95L354.95 654L371.9 670.95L371.9 685.35Z"
    fill="#00BAF3">
  </path>

  <path
    d="M354.95 862.35L355 664.35"
    stroke="#00BAF3"
    stroke-width="10"
    stroke-miterlimit="10">
  </path>

  <path
    d="M1185.22 861.775L1202.17 878.745L1219.12 861.775L1219.12 876.175L1202.17 893.125L1185.22 876.175L1185.22 861.775Z"
    fill="#007DB9">
  </path>

  <path
    d="M1202.17 684.775L1202.12 882.775"
    stroke="#007DB9"
    stroke-width="10"
    stroke-miterlimit="10">
  </path>

  <defs>
    <clipPath id="clip0">
      <rect
        width="704.732"
        height="700"
        fill="white"
        transform="translate(0 843)">
      </rect>
    </clipPath>
  </defs>
</svg>
