<svg width="500" height="500" viewBox="0 0 500 500" fill="none" xmlns="http://www.w3.org/2000/svg">
<g clip-path="url(#clip0)">
<path d="M500 -2.12012H0V497.88H500V-2.12012Z" fill="#00BCF1"/>
<path d="M334.08 177.98H165.92V401.98H334.08V177.98Z" fill="white"/>
<path d="M308.36 205.91H190.08V330.25H308.36V205.91Z" fill="#B2D235"/>
<path d="M195.589 364.543V373.06H190.608V348.888H200.038C201.853 348.888 203.447 349.22 204.819 349.884C206.203 350.548 207.265 351.495 208.007 352.723C208.748 353.941 209.119 355.33 209.119 356.89C209.119 359.259 208.306 361.129 206.679 362.501C205.063 363.863 202.822 364.543 199.955 364.543H195.589ZM195.589 360.509H200.038C201.355 360.509 202.357 360.199 203.043 359.58C203.74 358.96 204.089 358.074 204.089 356.923C204.089 355.739 203.74 354.782 203.043 354.051C202.346 353.321 201.383 352.944 200.154 352.922H195.589V360.509ZM221.504 364.211H217.536V373.06H212.556V348.888H221.537C224.393 348.888 226.595 349.525 228.145 350.797C229.694 352.07 230.469 353.869 230.469 356.193C230.469 357.842 230.109 359.22 229.39 360.327C228.681 361.422 227.602 362.297 226.152 362.95L231.382 372.828V373.06H226.036L221.504 364.211ZM217.536 360.177H221.554C222.804 360.177 223.773 359.862 224.459 359.231C225.145 358.589 225.488 357.709 225.488 356.591C225.488 355.451 225.162 354.555 224.509 353.902C223.867 353.249 222.876 352.922 221.537 352.922H217.536V360.177ZM248.813 362.584H239.251V369.059H250.474V373.06H234.271V348.888H250.44V352.922H239.251V358.683H248.813V362.584ZM265.93 366.718C265.93 365.778 265.598 365.058 264.934 364.56C264.27 364.051 263.074 363.52 261.348 362.966C259.621 362.402 258.254 361.848 257.247 361.306C254.502 359.823 253.13 357.825 253.13 355.313C253.13 354.007 253.495 352.845 254.226 351.827C254.967 350.797 256.024 349.995 257.396 349.419C258.78 348.844 260.329 348.556 262.045 348.556C263.771 348.556 265.31 348.872 266.66 349.502C268.01 350.122 269.056 351.002 269.798 352.142C270.55 353.282 270.927 354.577 270.927 356.027H265.946C265.946 354.92 265.598 354.062 264.9 353.454C264.203 352.834 263.224 352.524 261.962 352.524C260.744 352.524 259.798 352.784 259.123 353.304C258.448 353.813 258.11 354.488 258.11 355.33C258.11 356.115 258.503 356.774 259.289 357.305C260.086 357.836 261.254 358.334 262.792 358.799C265.625 359.652 267.689 360.708 268.984 361.97C270.279 363.232 270.927 364.804 270.927 366.685C270.927 368.777 270.135 370.42 268.553 371.616C266.97 372.8 264.84 373.392 262.161 373.392C260.302 373.392 258.608 373.055 257.081 372.379C255.554 371.693 254.386 370.758 253.578 369.574C252.781 368.389 252.383 367.017 252.383 365.457H257.38C257.38 368.124 258.974 369.458 262.161 369.458C263.345 369.458 264.27 369.22 264.934 368.744C265.598 368.257 265.93 367.582 265.93 366.718ZM286.848 366.718C286.848 365.778 286.516 365.058 285.852 364.56C285.188 364.051 283.992 363.52 282.266 362.966C280.539 362.402 279.172 361.848 278.165 361.306C275.42 359.823 274.048 357.825 274.048 355.313C274.048 354.007 274.413 352.845 275.144 351.827C275.885 350.797 276.942 349.995 278.314 349.419C279.698 348.844 281.247 348.556 282.963 348.556C284.689 348.556 286.228 348.872 287.578 349.502C288.928 350.122 289.974 351.002 290.716 352.142C291.468 353.282 291.845 354.577 291.845 356.027H286.864C286.864 354.92 286.516 354.062 285.818 353.454C285.121 352.834 284.142 352.524 282.88 352.524C281.662 352.524 280.716 352.784 280.041 353.304C279.366 353.813 279.028 354.488 279.028 355.33C279.028 356.115 279.421 356.774 280.207 357.305C281.004 357.836 282.172 358.334 283.71 358.799C286.543 359.652 288.607 360.708 289.902 361.97C291.197 363.232 291.845 364.804 291.845 366.685C291.845 368.777 291.053 370.42 289.471 371.616C287.888 372.8 285.757 373.392 283.079 373.392C281.22 373.392 279.526 373.055 277.999 372.379C276.472 371.693 275.304 370.758 274.496 369.574C273.699 368.389 273.301 367.017 273.301 365.457H278.298C278.298 368.124 279.892 369.458 283.079 369.458C284.263 369.458 285.188 369.22 285.852 368.744C286.516 368.257 286.848 367.582 286.848 366.718Z" fill="#00BCF1"/>
<path d="M329.95 98.02L250 177.98L170.04 98.02" stroke="white" stroke-width="14" stroke-linecap="round" stroke-linejoin="round"/>
</g>
<defs>
<clipPath id="clip0">
<rect width="500" height="500" fill="white"/>
</clipPath>
</defs>
</svg>
