<svg width="600" height="450" viewBox="0 0 600 450" fill="none" xmlns="http://www.w3.org/2000/svg">
<g clip-path="url(#clip0)">
<path d="M598.44 224.49H-1.55957V449.49H598.44V224.49Z" fill="#00BCF1"/>
<path d="M598.8 -0.27002H-1.2002V224.73H598.8V-0.27002Z" fill="#B2D235"/>
<path d="M90.3099 338.74C106.426 338.74 119.49 333.515 119.49 327.07C119.49 320.625 106.426 315.4 90.3099 315.4C74.1942 315.4 61.1299 320.625 61.1299 327.07C61.1299 333.515 74.1942 338.74 90.3099 338.74Z" stroke="#007DB9" stroke-linecap="round" stroke-linejoin="round"/>
<path d="M111.95 350.41C128.065 350.41 141.13 345.185 141.13 338.74C141.13 332.295 128.065 327.07 111.95 327.07C95.8339 327.07 82.7695 332.295 82.7695 338.74C82.7695 345.185 95.8339 350.41 111.95 350.41Z" fill="#007DB9" stroke="#007DB9" stroke-width="2.42" stroke-linecap="round" stroke-linejoin="round"/>
<path d="M298.8 69.43C312.944 69.43 324.41 57.964 324.41 43.82C324.41 29.6759 312.944 18.21 298.8 18.21C284.656 18.21 273.19 29.6759 273.19 43.82C273.19 57.964 284.656 69.43 298.8 69.43Z" stroke="#EC1C24" stroke-miterlimit="10"/>
<path d="M298.8 43.0598C312.944 43.0598 324.41 31.5939 324.41 17.4498C324.41 3.30583 312.944 -8.16016 298.8 -8.16016C284.656 -8.16016 273.19 3.30583 273.19 17.4498C273.19 31.5939 284.656 43.0598 298.8 43.0598Z" stroke="#EC1C24" stroke-miterlimit="10"/>
<path d="M240 391.66C240 379.8 266.86 370.18 300 370.18C333.14 370.18 360 379.8 360 391.66" stroke="#00BCF1" stroke-width="5" stroke-linecap="round" stroke-linejoin="round"/>
<path d="M300.01 163.45C314.154 163.45 325.62 151.984 325.62 137.84C325.62 123.696 314.154 112.23 300.01 112.23C285.866 112.23 274.4 123.696 274.4 137.84C274.4 151.984 285.866 163.45 300.01 163.45Z" stroke="#EC1C24" stroke-miterlimit="10"/>
<path d="M491.31 36.4202C505.454 36.4202 516.92 24.9542 516.92 10.8102C516.92 -3.33382 505.454 -14.7998 491.31 -14.7998C477.166 -14.7998 465.7 -3.33382 465.7 10.8102C465.7 24.9542 477.166 36.4202 491.31 36.4202Z" fill="#EC1C24" stroke="#EC1C24" stroke-width="2" stroke-miterlimit="10"/>
<path d="M432.52 315.84C432.52 303.98 459.38 294.36 492.52 294.36C525.66 294.36 552.52 303.98 552.52 315.84" stroke="#00BCF1" stroke-width="5" stroke-linecap="round" stroke-linejoin="round"/>
<path d="M492.52 122.14C506.664 122.14 518.13 110.674 518.13 96.5299C518.13 82.3859 506.664 70.9199 492.52 70.9199C478.376 70.9199 466.91 82.3859 466.91 96.5299C466.91 110.674 478.376 122.14 492.52 122.14Z" stroke="#EC1C24" stroke-miterlimit="10"/>
<path d="M492.67 331.64C506.731 331.64 518.13 327.082 518.13 321.46C518.13 315.838 506.731 311.28 492.67 311.28C478.609 311.28 467.21 315.838 467.21 321.46C467.21 327.082 478.609 331.64 492.67 331.64Z" fill="#007DB9" stroke="#007DB9" stroke-width="2.42" stroke-linecap="round" stroke-linejoin="round"/>
<path d="M298.8 137.84C312.944 137.84 324.41 126.374 324.41 112.23C324.41 98.0861 312.944 86.6201 298.8 86.6201C284.656 86.6201 273.19 98.0861 273.19 112.23C273.19 126.374 284.656 137.84 298.8 137.84Z" fill="#EC1C24" stroke="#EC1C24" stroke-width="2" stroke-miterlimit="10"/>
<path d="M106.81 283.63C120.954 283.63 132.42 272.164 132.42 258.02C132.42 243.876 120.954 232.41 106.81 232.41C92.6662 232.41 81.2002 243.876 81.2002 258.02C81.2002 272.164 92.6662 283.63 106.81 283.63Z" fill="white"/>
<path d="M300.01 336.99C314.154 336.99 325.62 325.524 325.62 311.38C325.62 297.236 314.154 285.77 300.01 285.77C285.866 285.77 274.4 297.236 274.4 311.38C274.4 325.524 285.866 336.99 300.01 336.99Z" fill="white"/>
<path d="M492.52 281.14C506.664 281.14 518.13 269.674 518.13 255.53C518.13 241.386 506.664 229.92 492.52 229.92C478.376 229.92 466.91 241.386 466.91 255.53C466.91 269.674 478.376 281.14 492.52 281.14Z" fill="white"/>
<path d="M109.14 271.37V274.78H105.52V271.4C102.263 271.047 99.2274 269.585 96.9199 267.26L99.3599 264.51C101.48 266.51 104.27 268.16 107.36 268.16C110.98 268.16 112.62 266.53 112.62 264.72C112.62 259.57 98.0699 261.55 98.0699 253.92C98.0699 250.37 100.85 247.52 105.55 246.92V243.47H109.17V247C110.633 247.128 112.056 247.548 113.355 248.235C114.653 248.922 115.801 249.862 116.73 251L113.94 253.33C113.101 252.37 112.068 251.598 110.91 251.064C109.753 250.53 108.495 250.245 107.22 250.23C103.98 250.23 102 251.63 102 253.54C102 258.17 116.55 256.4 116.55 264.54C116.52 268.13 113.6 270.77 109.14 271.37Z" fill="#007DB9"/>
<path d="M302.34 323.6V327H298.72V323.62C295.463 323.269 292.426 321.807 290.12 319.48L292.56 316.73C294.68 318.73 297.47 320.38 300.56 320.38C304.18 320.38 305.82 318.75 305.82 316.94C305.82 311.78 291.26 313.77 291.26 306.14C291.26 302.59 294.05 299.74 298.75 299.14V295.69H302.37V299.14C303.833 299.268 305.256 299.688 306.555 300.375C307.853 301.062 309.001 302.002 309.93 303.14L307.14 305.47C306.301 304.51 305.269 303.738 304.111 303.203C302.953 302.669 301.695 302.385 300.42 302.37C297.18 302.37 295.2 303.77 295.2 305.68C295.2 310.31 309.75 308.54 309.75 316.68C309.72 320.36 306.8 323 302.34 323.6Z" fill="#007DB9"/>
<path d="M494.85 267.75V271.16H491.23V267.78C487.973 267.427 484.937 265.965 482.63 263.64L485.07 260.89C487.19 262.89 489.98 264.54 493.07 264.54C496.69 264.54 498.33 262.91 498.33 261.1C498.33 255.94 483.78 257.93 483.78 250.3C483.78 246.75 486.56 243.9 491.26 243.3V239.85H494.88V243.3C496.343 243.428 497.766 243.848 499.065 244.535C500.363 245.222 501.511 246.162 502.44 247.3L499.65 249.63C498.811 248.669 497.779 247.896 496.621 247.362C495.463 246.828 494.205 246.544 492.93 246.53C489.7 246.53 487.71 247.93 487.71 249.84C487.71 254.47 502.26 252.7 502.26 260.84C502.23 264.51 499.31 267.15 494.85 267.75Z" fill="#007DB9"/>
<path d="M353.4 219.89C345.32 229.82 323.85 236.89 298.64 236.89C277.09 236.89 258.29 231.71 248.22 224" stroke="#007DB9" stroke-linecap="round" stroke-linejoin="round"/>
<path d="M353.4 211.93C345.32 221.86 323.85 228.93 298.64 228.93C277.09 228.93 258.29 223.75 248.22 216.05" stroke="#007DB9" stroke-linecap="round" stroke-linejoin="round"/>
<path d="M353.4 203.42C345.32 213.35 323.85 220.42 298.64 220.42C277.09 220.42 258.29 215.24 248.22 207.53" stroke="#007DB9" stroke-linecap="round" stroke-linejoin="round"/>
<path d="M545.4 146.27C537.31 156.2 515.84 163.27 490.63 163.27C469.09 163.27 450.28 158.09 440.22 150.39" stroke="#007DB9" stroke-linecap="round" stroke-linejoin="round"/>
<path d="M545.4 138.32C537.31 148.25 515.84 155.32 490.63 155.32C469.09 155.32 450.28 150.14 440.22 142.43" stroke="#007DB9" stroke-linecap="round" stroke-linejoin="round"/>
<path d="M545.4 129.8C537.31 139.73 515.84 146.8 490.63 146.8C469.09 146.8 450.28 141.62 440.22 133.92" stroke="#007DB9" stroke-linecap="round" stroke-linejoin="round"/>
<path d="M160.05 167.34C151.96 177.27 130.5 184.34 105.28 184.34C83.7401 184.34 64.9301 179.16 54.8701 171.45" stroke="#007DB9" stroke-linecap="round" stroke-linejoin="round"/>
<path d="M160.05 159.38C151.96 169.32 130.5 176.38 105.28 176.38C83.7401 176.38 64.9301 171.19 54.8701 163.49" stroke="#007DB9" stroke-linecap="round" stroke-linejoin="round"/>
<path d="M160.05 150.87C151.96 160.8 130.5 167.87 105.28 167.87C83.7401 167.87 64.9301 162.69 54.8701 154.98" stroke="#007DB9" stroke-linecap="round" stroke-linejoin="round"/>
<path d="M243.29 192.65V232.41" stroke="white" stroke-width="3" stroke-linecap="round" stroke-linejoin="round"/>
<path d="M356.95 192.65V232.41" stroke="white" stroke-width="3" stroke-linecap="round" stroke-linejoin="round"/>
<path d="M363 218.3C361.144 217.419 359.574 216.031 358.472 214.298C357.37 212.564 356.78 210.554 356.77 208.5V192.65C356.77 181.44 331.37 172.34 300.05 172.34C268.73 172.34 243.33 181.44 243.33 192.65V207.27C243.325 209.648 242.66 211.978 241.408 214C240.156 216.022 238.366 217.656 236.24 218.72C227.13 223.3 221.77 234.16 221.77 263.03V374.71C221.77 421.71 256.77 428 300.05 428C343.33 428 378.33 423.37 378.33 374.71V263C378.29 235 372.59 223 363 218.3Z" stroke="white" stroke-width="3" stroke-miterlimit="10"/>
<path d="M436.09 122.39V162.15" stroke="white" stroke-width="3" stroke-linecap="round" stroke-linejoin="round"/>
<path d="M549.75 122.39V162.15" stroke="white" stroke-width="3" stroke-linecap="round" stroke-linejoin="round"/>
<path d="M555.76 148C553.904 147.119 552.334 145.731 551.232 143.998C550.13 142.264 549.54 140.254 549.53 138.2V122.4C549.53 111.19 524.13 102.09 492.8 102.09C461.47 102.09 436.08 111.19 436.08 122.4V137C436.08 139.379 435.418 141.711 434.168 143.736C432.917 145.76 431.127 147.396 429 148.46C419.89 153.04 414.52 163.9 414.52 192.77V304.45C414.52 351.45 449.57 357.74 492.81 357.74C536.05 357.74 571.09 353.11 571.09 304.45V192.77C571.09 164.69 565.38 152.7 555.76 148Z" stroke="white" stroke-width="3" stroke-miterlimit="10"/>
<path d="M49.7197 139.24V179" stroke="white" stroke-width="3" stroke-linecap="round" stroke-linejoin="round"/>
<path d="M163.38 139.24V179" stroke="white" stroke-width="3" stroke-linecap="round" stroke-linejoin="round"/>
<path d="M169.4 164.89C167.543 164.009 165.973 162.623 164.869 160.889C163.765 159.155 163.173 157.145 163.16 155.09V139.24C163.16 128.02 137.77 118.93 106.44 118.93C75.1102 118.93 49.7202 128 49.7202 139.24V153.86C49.7166 156.237 49.0527 158.567 47.8025 160.588C46.5524 162.61 44.7651 164.245 42.6402 165.31C33.5302 169.89 28.1602 180.74 28.1602 209.62V321.29C28.1602 368.29 63.2102 374.59 106.44 374.59C149.67 374.59 184.72 369.95 184.72 321.29V209.62C184.72 181.54 179 169.55 169.4 164.89Z" stroke="white" stroke-width="3" stroke-miterlimit="10"/>
<path d="M321.46 392.31C337.15 392.31 349.87 387.219 349.87 380.94C349.87 374.66 337.15 369.57 321.46 369.57C305.769 369.57 293.05 374.66 293.05 380.94C293.05 387.219 305.769 392.31 321.46 392.31Z" stroke="#007DB9" stroke-linecap="round" stroke-linejoin="round"/>
<path d="M274.04 409.62C289.73 409.62 302.45 404.529 302.45 398.25C302.45 391.97 289.73 386.88 274.04 386.88C258.349 386.88 245.63 391.97 245.63 398.25C245.63 404.529 258.349 409.62 274.04 409.62Z" fill="#007DB9" stroke="#007DB9" stroke-width="2.42" stroke-linecap="round" stroke-linejoin="round"/>
<path d="M105.6 84.49C119.744 84.49 131.21 73.024 131.21 58.88C131.21 44.736 119.744 33.27 105.6 33.27C91.4562 33.27 79.9902 44.736 79.9902 58.88C79.9902 73.024 91.4562 84.49 105.6 84.49Z" stroke="#B2D235" stroke-width="3" stroke-miterlimit="10"/>
<path d="M105.6 58.8802C119.744 58.8802 131.21 47.4142 131.21 33.2702C131.21 19.1261 119.744 7.66016 105.6 7.66016C91.4562 7.66016 79.9902 19.1261 79.9902 33.2702C79.9902 47.4142 91.4562 58.8802 105.6 58.8802Z" stroke="#B2D235" stroke-width="3" stroke-miterlimit="10"/>
<path d="M105.6 84.49C119.744 84.49 131.21 73.024 131.21 58.88C131.21 44.736 119.744 33.27 105.6 33.27C91.4562 33.27 79.9902 44.736 79.9902 58.88C79.9902 73.024 91.4562 84.49 105.6 84.49Z" stroke="#EC1C24" stroke-miterlimit="10"/>
<path d="M105.6 58.8802C119.744 58.8802 131.21 47.4142 131.21 33.2702C131.21 19.1261 119.744 7.66016 105.6 7.66016C91.4562 7.66016 79.9902 19.1261 79.9902 33.2702C79.9902 47.4142 91.4562 58.8802 105.6 58.8802Z" stroke="#EC1C24" stroke-miterlimit="10"/>
<path d="M106.81 156.18C120.954 156.18 132.42 144.714 132.42 130.57C132.42 116.426 120.954 104.96 106.81 104.96C92.6662 104.96 81.2002 116.426 81.2002 130.57C81.2002 144.714 92.6662 156.18 106.81 156.18Z" fill="#EC1C24" stroke="#EC1C24" stroke-width="2" stroke-miterlimit="10"/>
</g>
<defs>
<clipPath id="clip0">
<rect width="600" height="450" fill="white"/>
</clipPath>
</defs>
</svg>
