<svg width="500" height="500" viewBox="0 0 500 500" fill="none" xmlns="http://www.w3.org/2000/svg">
<path d="M500 0H0V500H500V0Z" fill="#B2D235"/>
<path d="M363.68 280.23C363.68 368.23 313.36 404.23 251.29 404.23C189.22 404.23 138.9 368.32 138.9 280.23C138.9 192.14 251.29 94.23 251.29 94.23C251.29 94.23 363.68 192.19 363.68 280.23Z" fill="#00BCF1"/>
<path d="M315.62 335.87C315.62 386.26 286.82 406.81 251.29 406.81C215.76 406.81 187 386.26 187 335.87C187 285.48 251.32 229.41 251.32 229.41C251.32 229.41 315.62 285.48 315.62 335.87Z" fill="white"/>
<path d="M291.49 337.24C291.367 337.008 291.182 336.813 290.957 336.678C290.731 336.542 290.473 336.47 290.21 336.47H284.37C284.097 329.834 281.833 323.433 277.872 318.101C273.911 312.769 268.437 308.753 262.162 306.576C255.886 304.399 249.101 304.161 242.689 305.893C236.277 307.626 230.535 311.249 226.21 316.29L231.38 323.67C234.32 319.545 238.467 316.434 243.251 314.767C248.034 313.1 253.217 312.96 258.084 314.365C262.951 315.77 267.261 318.651 270.42 322.61C273.579 326.57 275.431 331.413 275.72 336.47H270C269.736 336.47 269.477 336.542 269.251 336.678C269.025 336.815 268.841 337.012 268.719 337.246C268.597 337.48 268.542 337.744 268.56 338.007C268.578 338.271 268.668 338.524 268.82 338.74L278.91 353.15C279.041 353.342 279.217 353.499 279.423 353.607C279.629 353.716 279.858 353.772 280.09 353.772C280.322 353.772 280.551 353.716 280.757 353.607C280.963 353.499 281.139 353.342 281.27 353.15L291.36 338.74C291.517 338.526 291.612 338.273 291.635 338.008C291.658 337.744 291.608 337.478 291.49 337.24Z" fill="#B2D235"/>
<path d="M251.29 362.41C245.047 362.401 239.043 360.009 234.503 355.724C229.963 351.439 227.229 345.582 226.86 339.35H232.61C232.905 339.35 233.193 339.26 233.435 339.091C233.677 338.922 233.861 338.682 233.963 338.405C234.064 338.128 234.078 337.826 234.003 337.541C233.927 337.256 233.765 337.001 233.54 336.81L223.64 322.67C223.502 322.488 223.324 322.34 223.119 322.238C222.914 322.136 222.689 322.083 222.46 322.083C222.231 322.083 222.006 322.136 221.801 322.238C221.596 322.34 221.418 322.488 221.28 322.67L211.19 337.08C211.038 337.296 210.948 337.55 210.93 337.813C210.912 338.077 210.967 338.34 211.089 338.574C211.211 338.809 211.395 339.005 211.621 339.142C211.847 339.279 212.106 339.351 212.37 339.35H218.21C218.488 345.984 220.755 352.381 224.716 357.71C228.678 363.038 234.151 367.052 240.424 369.228C246.697 371.405 253.48 371.644 259.89 369.914C266.301 368.185 272.043 364.567 276.37 359.53L271.19 352.14C268.932 355.315 265.948 357.903 262.486 359.69C259.024 361.476 255.186 362.409 251.29 362.41Z" fill="#B2D235"/>
</svg>
