<svg width="500" height="500" viewBox="0 0 500 500" fill="none" xmlns="http://www.w3.org/2000/svg">
<path d="M500 0H0V500H500V0Z" fill="#007DB9"/>
<path d="M96.64 232.9C96.64 236.17 90.77 238.83 83.53 238.83C76.29 238.83 70.41 236.17 70.41 232.9V181.37H96.64V232.9Z" stroke="#00BCF1" stroke-width="6" stroke-miterlimit="10" stroke-linecap="round"/>
<path d="M83.53 187.3C90.776 187.3 96.65 184.645 96.65 181.37C96.65 178.095 90.776 175.44 83.53 175.44C76.284 175.44 70.41 178.095 70.41 181.37C70.41 184.645 76.284 187.3 83.53 187.3Z" stroke="#00BCF1" stroke-width="6" stroke-miterlimit="10" stroke-linecap="round"/>
<path d="M116.56 200.24H96.64V214.04H116.56V200.24Z" fill="#00BCF1"/>
<path d="M234.5 384.68C234.5 399.4 208.1 411.34 175.5 411.34C142.9 411.34 116.5 399.4 116.5 384.68V153.05H234.5V384.68Z" fill="white" stroke="white" stroke-width="6" stroke-miterlimit="10" stroke-linecap="round"/>
<path d="M175.53 179.72C208.093 179.72 234.49 167.779 234.49 153.05C234.49 138.32 208.093 126.38 175.53 126.38C142.967 126.38 116.57 138.32 116.57 153.05C116.57 167.779 142.967 179.72 175.53 179.72Z" fill="#007DB9" stroke="white" stroke-width="6" stroke-miterlimit="10" stroke-linecap="round"/>
<path d="M129.42 155.46V134.61C129.42 123.09 150.07 113.76 175.53 113.76C200.99 113.76 221.64 123.09 221.64 134.61V155.46" stroke="white" stroke-width="6" stroke-miterlimit="10" stroke-linecap="round"/>
<path d="M175.53 155.46C200.996 155.46 221.64 146.125 221.64 134.61C221.64 123.095 200.996 113.76 175.53 113.76C150.064 113.76 129.42 123.095 129.42 134.61C129.42 146.125 150.064 155.46 175.53 155.46Z" fill="#007DB9" stroke="white" stroke-width="6" stroke-miterlimit="10" stroke-linecap="round"/>
<path d="M175.53 135.64C200.996 135.64 221.64 126.305 221.64 114.79C221.64 103.275 200.996 93.9399 175.53 93.9399C150.064 93.9399 129.42 103.275 129.42 114.79C129.42 126.305 150.064 135.64 175.53 135.64Z" stroke="white" stroke-width="6" stroke-miterlimit="10" stroke-linecap="round"/>
<path d="M177.44 135.65V155.46" stroke="white" stroke-width="6" stroke-miterlimit="10" stroke-linecap="round"/>
<path d="M177.44 93.9399V113.76" stroke="white" stroke-width="6" stroke-miterlimit="10" stroke-linecap="round"/>
<path d="M129.42 116.47V136.29" stroke="white" stroke-width="6" stroke-miterlimit="10" stroke-linecap="round"/>
<path d="M221.64 116.47V136.29" stroke="white" stroke-width="6" stroke-miterlimit="10" stroke-linecap="round"/>
<path d="M397.74 232.9C397.74 236.17 403.61 238.83 410.86 238.83C418.11 238.83 424 236.17 424 232.9V181.37H397.74V232.9Z" stroke="#00BCF1" stroke-width="6" stroke-miterlimit="10" stroke-linecap="round"/>
<path d="M410.86 187.3C418.106 187.3 423.98 184.645 423.98 181.37C423.98 178.095 418.106 175.44 410.86 175.44C403.614 175.44 397.74 178.095 397.74 181.37C397.74 184.645 403.614 187.3 410.86 187.3Z" stroke="#00BCF1" stroke-width="6" stroke-miterlimit="10" stroke-linecap="round"/>
<path d="M377.82 214.03H397.74V200.23H377.82V214.03Z" fill="#00BCF1"/>
<path d="M259.89 384.68C259.89 399.4 286.29 411.34 318.89 411.34C351.49 411.34 377.89 399.4 377.89 384.68V153.05H259.89V384.68Z" fill="white" stroke="white" stroke-width="6" stroke-miterlimit="10" stroke-linecap="round"/>
<path d="M318.85 179.72C351.413 179.72 377.81 167.779 377.81 153.05C377.81 138.32 351.413 126.38 318.85 126.38C286.287 126.38 259.89 138.32 259.89 153.05C259.89 167.779 286.287 179.72 318.85 179.72Z" fill="#007DB9" stroke="white" stroke-width="6" stroke-miterlimit="10" stroke-linecap="round"/>
<path d="M365 155.46V134.61C365 123.09 344.36 113.76 318.89 113.76C293.42 113.76 272.79 123.09 272.79 134.61V155.46" stroke="white" stroke-width="6" stroke-miterlimit="10" stroke-linecap="round"/>
<path d="M318.85 155.46C344.316 155.46 364.96 146.125 364.96 134.61C364.96 123.095 344.316 113.76 318.85 113.76C293.384 113.76 272.74 123.095 272.74 134.61C272.74 146.125 293.384 155.46 318.85 155.46Z" fill="#007DB9" stroke="white" stroke-width="6" stroke-miterlimit="10" stroke-linecap="round"/>
<path d="M318.85 135.64C344.316 135.64 364.96 126.305 364.96 114.79C364.96 103.275 344.316 93.9399 318.85 93.9399C293.384 93.9399 272.74 103.275 272.74 114.79C272.74 126.305 293.384 135.64 318.85 135.64Z" stroke="white" stroke-width="6" stroke-miterlimit="10" stroke-linecap="round"/>
<path d="M316.95 135.65V155.46" stroke="white" stroke-width="6" stroke-miterlimit="10" stroke-linecap="round"/>
<path d="M316.95 93.9399V113.76" stroke="white" stroke-width="6" stroke-miterlimit="10" stroke-linecap="round"/>
<path d="M364.96 116.47V136.29" stroke="white" stroke-width="6" stroke-miterlimit="10" stroke-linecap="round"/>
<path d="M272.75 116.47V136.29" stroke="white" stroke-width="6" stroke-miterlimit="10" stroke-linecap="round"/>
<path d="M263.42 200.24H234.5V214.04H263.42V200.24Z" fill="white"/>
<path d="M263.42 227.83H234.5V241.63H263.42V227.83Z" fill="white"/>
<path d="M204.87 269.72C204.787 269.545 204.655 269.398 204.49 269.297C204.324 269.196 204.134 269.145 203.94 269.15H199.68C199.478 264.308 197.824 259.638 194.933 255.748C192.042 251.858 188.047 248.928 183.468 247.339C178.889 245.75 173.938 245.576 169.258 246.839C164.579 248.102 160.388 250.743 157.23 254.42L161 259.81C163.145 256.799 166.172 254.528 169.663 253.311C173.154 252.094 176.937 251.991 180.489 253.016C184.041 254.041 187.187 256.144 189.493 259.034C191.798 261.924 193.15 265.459 193.36 269.15H189.21C189.018 269.153 188.83 269.207 188.667 269.308C188.504 269.409 188.371 269.552 188.283 269.722C188.194 269.893 188.154 270.084 188.166 270.276C188.178 270.467 188.241 270.652 188.35 270.81L195.71 281.33C195.808 281.468 195.938 281.581 196.088 281.659C196.239 281.737 196.406 281.777 196.575 281.777C196.744 281.777 196.911 281.737 197.062 281.659C197.212 281.581 197.342 281.468 197.44 281.33L204.8 270.81C204.916 270.655 204.985 270.469 204.997 270.276C205.009 270.082 204.965 269.889 204.87 269.72Z" fill="#B2D235"/>
<path d="M175.53 288.09C170.974 288.083 166.592 286.337 163.279 283.21C159.965 280.082 157.97 275.808 157.7 271.26H161.9C162.115 271.257 162.323 271.189 162.498 271.064C162.673 270.94 162.807 270.766 162.88 270.564C162.954 270.363 162.965 270.143 162.911 269.935C162.858 269.728 162.742 269.541 162.58 269.4L155.35 259.08C155.249 258.947 155.119 258.84 154.97 258.766C154.821 258.692 154.657 258.653 154.49 258.653C154.323 258.653 154.159 258.692 154.01 258.766C153.861 258.84 153.731 258.947 153.63 259.08L146.26 269.6C146.152 269.759 146.088 269.944 146.075 270.135C146.063 270.327 146.103 270.519 146.19 270.69C146.273 270.865 146.405 271.012 146.57 271.113C146.736 271.214 146.926 271.265 147.12 271.26H151.38C151.58 276.103 153.232 280.775 156.123 284.666C159.014 288.558 163.008 291.489 167.588 293.079C172.167 294.669 177.119 294.844 181.799 293.582C186.48 292.319 190.672 289.677 193.83 286L190.06 280.61C188.408 282.923 186.228 284.808 183.701 286.109C181.174 287.41 178.372 288.089 175.53 288.09Z" fill="#B2D235"/>
<path d="M348.19 269.72C348.107 269.545 347.975 269.398 347.81 269.297C347.644 269.196 347.454 269.145 347.26 269.15H343C342.798 264.308 341.144 259.638 338.253 255.748C335.362 251.858 331.367 248.928 326.788 247.339C322.209 245.75 317.258 245.576 312.578 246.839C307.899 248.102 303.708 250.743 300.55 254.42L304.32 259.81C306.467 256.801 309.495 254.531 312.986 253.315C316.477 252.1 320.259 251.997 323.811 253.022C327.363 254.047 330.509 256.149 332.816 259.037C335.123 261.926 336.476 265.46 336.69 269.15H332.53C332.336 269.145 332.146 269.196 331.98 269.297C331.815 269.398 331.683 269.545 331.6 269.72C331.513 269.891 331.473 270.083 331.485 270.275C331.498 270.467 331.562 270.651 331.67 270.81L339 281.33C339.098 281.468 339.228 281.581 339.378 281.659C339.529 281.737 339.696 281.777 339.865 281.777C340.034 281.777 340.201 281.737 340.352 281.659C340.502 281.581 340.632 281.468 340.73 281.33L348.09 270.81C348.211 270.658 348.285 270.474 348.302 270.28C348.32 270.086 348.281 269.892 348.19 269.72Z" fill="#B2D235"/>
<path d="M318.85 288.09C314.29 288.088 309.903 286.345 306.586 283.217C303.268 280.089 301.27 275.812 301 271.26H305.2C305.471 271.245 305.725 271.126 305.911 270.929C306.097 270.732 306.2 270.471 306.2 270.2C306.204 270.047 306.172 269.896 306.108 269.757C306.044 269.618 305.949 269.496 305.83 269.4L298.6 259.08C298.499 258.947 298.369 258.84 298.22 258.766C298.071 258.692 297.907 258.653 297.74 258.653C297.573 258.653 297.409 258.692 297.26 258.766C297.111 258.84 296.981 258.947 296.88 259.08L289.52 269.6C289.402 269.754 289.332 269.94 289.318 270.133C289.304 270.327 289.346 270.52 289.44 270.69C289.53 270.862 289.665 271.006 289.83 271.106C289.996 271.207 290.186 271.26 290.38 271.26H294.64C294.825 276.12 296.472 280.81 299.366 284.718C302.261 288.626 306.268 291.569 310.863 293.161C315.457 294.754 320.426 294.923 325.118 293.645C329.81 292.367 334.007 289.703 337.16 286L333.38 280.61C331.728 282.923 329.548 284.808 327.021 286.109C324.494 287.41 321.692 288.089 318.85 288.09Z" fill="#B2D235"/>
</svg>
