<svg width="501" height="501" viewBox="0 0 501 501" fill="none" xmlns="http://www.w3.org/2000/svg">
<g clip-path="url(#clip0)">
<path d="M500.99 -0.762451H0.98999V502.618H500.99V-0.762451Z" fill="#FF1D25"/>
<path d="M366.08 129.627H123.49V372.217H366.08V129.627Z" fill="white"/>
<path d="M317.45 372.228C317.45 389.908 328.33 404.228 341.76 404.228C355.19 404.228 366.08 389.888 366.08 372.228" fill="white"/>
<path d="M341.76 404.248H123.49C110.06 404.248 99.17 389.908 99.17 372.248H317.45C317.45 389.928 328.33 404.248 341.76 404.248Z" fill="#007DB9"/>
<path d="M366.08 129.627C366.08 111.947 376.97 97.6274 390.4 97.6274C403.83 97.6274 414.72 111.967 414.72 129.627" fill="#007DB9"/>
<path d="M390.4 97.6074H147.8C134.37 97.6074 123.49 111.947 123.49 129.607H366.08C366.08 111.927 376.99 97.6074 390.4 97.6074Z" fill="white"/>
<path d="M191.62 297.127H173.71V349.157H191.62V297.127Z" fill="#00BCF1"/>
<path d="M222.68 235.847H204.77V349.147H222.68V235.847Z" fill="#00BCF1"/>
<path d="M253.74 250.927H235.83V349.147H253.74V250.927Z" fill="#00BCF1"/>
<path d="M284.8 211.008H266.89V349.148H284.8V211.008Z" fill="#00BCF1"/>
<path d="M315.85 177.488H297.94V349.148H315.85V177.488Z" fill="#00BCF1"/>
<path d="M283.32 134.788L306.9 132.778L244.78 214.568L213.73 193.358L155.94 267.798" stroke="#B2D235" stroke-width="8.96" stroke-linecap="round" stroke-linejoin="round"/>
<path d="M306.9 132.778L310.93 156.428" stroke="#B2D235" stroke-width="8.96" stroke-linecap="round" stroke-linejoin="round"/>
</g>
<defs>
<clipPath id="clip0">
<rect width="500" height="500" fill="white" transform="translate(0.98999 0.92749)"/>
</clipPath>
</defs>
</svg>
