<svg width="2400" height="3000" viewBox="0 0 2400 3000" fill="none" xmlns="http://www.w3.org/2000/svg">
<rect width="2400" height="3000" fill="white"/>
<path d="M2357.8 2450H1850V2950H2357.8V2450Z" fill="#B0D31E"/>
<path d="M2137.78 2822.43H2064.02V2950H2137.78V2822.43Z" fill="white"/>
<path d="M2042.63 2715.81C2041.63 2668.17 2100.9 2674.26 2091.37 2569.97C2091.37 2569.97 2156.85 2605.04 2159.16 2712.11C2160.92 2794 2044.4 2797.67 2042.63 2715.81Z" fill="#EE1616"/>
<path d="M2074 2751.21C2073.53 2729.21 2100.88 2732.04 2096.49 2683.94C2096.49 2683.94 2126.69 2700.11 2127.75 2749.51C2128.59 2787.27 2074.84 2789 2074 2751.21Z" fill="#B0D31E"/>
<path d="M2071.24 2813H2127.8C2135.76 2813 2143.39 2816.16 2149.01 2821.79C2154.64 2827.41 2157.8 2835.04 2157.8 2843V2845.51H2041.24V2843C2041.24 2835.04 2044.4 2827.41 2050.03 2821.79C2055.65 2816.16 2063.28 2813 2071.24 2813Z" fill="white"/>
<path d="M2064.02 2912.2H2137.78" stroke="#00BAF3" stroke-width="7" stroke-miterlimit="10"/>
<path d="M2064.02 2849.74H2137.78" stroke="#00BAF3" stroke-width="7" stroke-miterlimit="10"/>
<path d="M1150 1850H650V2350H1150V1850Z" fill="#FF1614"/>
<path d="M1150 50H650V550H1150V50Z" fill="#B0D31E"/>
<path d="M550 1850H46.6201V2350H550V1850Z" fill="#00BAF3"/>
<path d="M2350 1850H1850V2350H2350V1850Z" fill="#00BAF3"/>
<path d="M2203.73 1993.09H2203.72C2197.53 1993.09 2192.51 1998.11 2192.51 2004.3V2201.61C2192.51 2207.8 2197.53 2212.82 2203.72 2212.82H2203.73C2209.92 2212.82 2214.94 2207.8 2214.94 2201.61V2004.3C2214.94 1998.11 2209.92 1993.09 2203.73 1993.09Z" fill="#007CBA"/>
<path d="M2160.99 1993.09H2160.98C2154.79 1993.09 2149.77 1998.11 2149.77 2004.3V2201.61C2149.77 2207.8 2154.79 2212.82 2160.98 2212.82H2160.99C2167.18 2212.82 2172.2 2207.8 2172.2 2201.61V2004.3C2172.2 1998.11 2167.18 1993.09 2160.99 1993.09Z" fill="#007CBA"/>
<path d="M550 2149.39H45.04V2350H550V2149.39Z" fill="#007CBA"/>
<path d="M1743.55 1850H1243.55V2355.81H1743.55V1850Z" fill="#007CBA"/>
<path d="M1242.14 2082.51C1242.14 2082.51 1305.75 2082.81 1368.76 2015.12C1368.76 2015.12 1479.67 2088.12 1740.76 2027.94" stroke="white" stroke-width="3.02" stroke-linecap="round" stroke-linejoin="round"/>
<path d="M1150 1250H650V1750H1150V1250Z" fill="#007CBA"/>
<path d="M884.5 1634.68C884.5 1649.4 858.1 1661.34 825.5 1661.34C792.9 1661.34 766.5 1649.4 766.5 1634.68V1403.05H884.5V1634.68Z" fill="white" stroke="white" stroke-width="6" stroke-miterlimit="10" stroke-linecap="round"/>
<path d="M825.53 1429.72C858.093 1429.72 884.49 1417.78 884.49 1403.05C884.49 1388.32 858.093 1376.38 825.53 1376.38C792.967 1376.38 766.57 1388.32 766.57 1403.05C766.57 1417.78 792.967 1429.72 825.53 1429.72Z" fill="#007CBA" stroke="white" stroke-width="6" stroke-miterlimit="10" stroke-linecap="round"/>
<path d="M972.34 2199.14C972.34 2217.45 936.06 2232.29 891.34 2232.29C846.62 2232.29 810.34 2217.45 810.34 2199.14V1978.68H972.34V2199.14Z" fill="#00BAF3" stroke="#00BAF3" stroke-width="7.84" stroke-miterlimit="10" stroke-linecap="round"/>
<path d="M891.3 2011.83C936.057 2011.83 972.34 1996.99 972.34 1978.68C972.34 1960.37 936.057 1945.53 891.3 1945.53C846.543 1945.53 810.26 1960.37 810.26 1978.68C810.26 1996.99 846.543 2011.83 891.3 2011.83Z" fill="#00BAF3" stroke="#00BAF3" stroke-width="6" stroke-miterlimit="10"/>
<path d="M779.42 1405.46V1384.61C779.42 1373.09 800.07 1363.76 825.53 1363.76C850.99 1363.76 871.64 1373.09 871.64 1384.61V1405.46" stroke="white" stroke-width="6" stroke-miterlimit="10" stroke-linecap="round"/>
<path d="M825.53 1405.46C850.996 1405.46 871.64 1396.12 871.64 1384.61C871.64 1373.09 850.996 1363.76 825.53 1363.76C800.064 1363.76 779.42 1373.09 779.42 1384.61C779.42 1396.12 800.064 1405.46 825.53 1405.46Z" fill="#007CBA" stroke="white" stroke-width="6" stroke-miterlimit="10" stroke-linecap="round"/>
<path d="M825.53 1385.64C850.996 1385.64 871.64 1376.31 871.64 1364.79C871.64 1353.27 850.996 1343.94 825.53 1343.94C800.064 1343.94 779.42 1353.27 779.42 1364.79C779.42 1376.31 800.064 1385.64 825.53 1385.64Z" stroke="white" stroke-width="6" stroke-miterlimit="10" stroke-linecap="round"/>
<path d="M827.44 1385.65V1405.46" stroke="white" stroke-width="6" stroke-miterlimit="10" stroke-linecap="round"/>
<path d="M827.44 1343.94V1363.76" stroke="white" stroke-width="6" stroke-miterlimit="10" stroke-linecap="round"/>
<path d="M779.42 1366.47V1386.29" stroke="white" stroke-width="6" stroke-miterlimit="10" stroke-linecap="round"/>
<path d="M871.64 1366.47V1386.29" stroke="white" stroke-width="6" stroke-miterlimit="10" stroke-linecap="round"/>
<path d="M909.89 1634.68C909.89 1649.4 936.29 1661.34 968.89 1661.34C1001.49 1661.34 1027.89 1649.4 1027.89 1634.68V1403.05H909.89V1634.68Z" fill="white" stroke="white" stroke-width="6" stroke-miterlimit="10" stroke-linecap="round"/>
<path d="M968.85 1429.72C1001.41 1429.72 1027.81 1417.78 1027.81 1403.05C1027.81 1388.32 1001.41 1376.38 968.85 1376.38C936.287 1376.38 909.89 1388.32 909.89 1403.05C909.89 1417.78 936.287 1429.72 968.85 1429.72Z" fill="#007CBA" stroke="white" stroke-width="6" stroke-miterlimit="10" stroke-linecap="round"/>
<path d="M1015 1405.46V1384.61C1015 1373.09 994.36 1363.76 968.89 1363.76C943.42 1363.76 922.79 1373.09 922.79 1384.61V1405.46" stroke="white" stroke-width="6" stroke-miterlimit="10" stroke-linecap="round"/>
<path d="M968.85 1405.46C994.316 1405.46 1014.96 1396.12 1014.96 1384.61C1014.96 1373.09 994.316 1363.76 968.85 1363.76C943.384 1363.76 922.74 1373.09 922.74 1384.61C922.74 1396.12 943.384 1405.46 968.85 1405.46Z" fill="#007CBA" stroke="white" stroke-width="6" stroke-miterlimit="10" stroke-linecap="round"/>
<path d="M968.85 1385.64C994.316 1385.64 1014.96 1376.31 1014.96 1364.79C1014.96 1353.27 994.316 1343.94 968.85 1343.94C943.384 1343.94 922.74 1353.27 922.74 1364.79C922.74 1376.31 943.384 1385.64 968.85 1385.64Z" stroke="white" stroke-width="6" stroke-miterlimit="10" stroke-linecap="round"/>
<path d="M966.95 1385.65V1405.46" stroke="white" stroke-width="6" stroke-miterlimit="10" stroke-linecap="round"/>
<path d="M966.95 1343.94V1363.76" stroke="white" stroke-width="6" stroke-miterlimit="10" stroke-linecap="round"/>
<path d="M1014.96 1366.47V1386.29" stroke="white" stroke-width="6" stroke-miterlimit="10" stroke-linecap="round"/>
<path d="M922.75 1366.47V1386.29" stroke="white" stroke-width="6" stroke-miterlimit="10" stroke-linecap="round"/>
<path d="M913.42 1450.24H884.5V1464.04H913.42V1450.24Z" fill="white"/>
<path d="M913.42 1477.83H884.5V1491.63H913.42V1477.83Z" fill="white"/>
<path d="M550 1250H50V1750H550V1250Z" fill="#00BAF3"/>
<path d="M1750 1250H1250V1750H1750V1250Z" fill="#B0D31E"/>
<path d="M1150 2450H650V2950H1150V2450Z" fill="#B0D31E"/>
<path d="M377.08 1545.4C377.08 1568.97 343.98 1588.08 303.15 1588.08C262.32 1588.08 229.21 1568.97 229.21 1545.4V1491.72H377.08V1545.4Z" fill="#007CBA"/>
<path d="M457.3 1478.02L303.15 1567.02L149 1478.02L303.15 1389.01L457.3 1478.02Z" fill="#007CBA" stroke="white" stroke-width="8" stroke-linecap="round" stroke-linejoin="round"/>
<path d="M303.15 1520.71C343.98 1520.71 377.08 1501.6 377.08 1478.02C377.08 1454.44 343.98 1435.33 303.15 1435.33C262.32 1435.33 229.22 1454.44 229.22 1478.02C229.22 1501.6 262.32 1520.71 303.15 1520.71Z" stroke="#B0D31E" stroke-width="6" stroke-miterlimit="10" stroke-linecap="round"/>
<path d="M303.15 1509.72C333.47 1509.72 358.05 1495.53 358.05 1478.02C358.05 1460.51 333.47 1446.32 303.15 1446.32C272.83 1446.32 248.25 1460.51 248.25 1478.02C248.25 1495.53 272.83 1509.72 303.15 1509.72Z" stroke="#B0D31E" stroke-width="6" stroke-miterlimit="10" stroke-linecap="round"/>
<path d="M303.15 1499.5C323.695 1499.5 340.35 1489.88 340.35 1478.02C340.35 1466.16 323.695 1456.54 303.15 1456.54C282.605 1456.54 265.95 1466.16 265.95 1478.02C265.95 1489.88 282.605 1499.5 303.15 1499.5Z" stroke="#B0D31E" stroke-width="6" stroke-miterlimit="10" stroke-linecap="round"/>
<path d="M303.15 1488.46C313.135 1488.46 321.23 1483.79 321.23 1478.02C321.23 1472.25 313.135 1467.58 303.15 1467.58C293.165 1467.58 285.07 1472.25 285.07 1478.02C285.07 1483.79 293.165 1488.46 303.15 1488.46Z" fill="#B0D31E" stroke="#B0D31E" stroke-width="6" stroke-miterlimit="10" stroke-linecap="round"/>
<path d="M229.21 1478.02H377.08" stroke="#B0D31E" stroke-width="6" stroke-miterlimit="10" stroke-linecap="round"/>
<path d="M303.15 1520.71V1435.33" stroke="#B0D31E" stroke-width="6" stroke-miterlimit="10" stroke-linecap="round"/>
<path d="M303.15 1567.02V1700" stroke="white" stroke-width="8" stroke-linecap="round" stroke-linejoin="round"/>
<path d="M457.3 1478.02V1610.99" stroke="white" stroke-width="8" stroke-linecap="round" stroke-linejoin="round"/>
<path d="M149 1478.02V1610.99" stroke="white" stroke-width="8" stroke-linecap="round" stroke-linejoin="round"/>
<path d="M354 1378.49C354 1372.75 359.61 1372.75 359.61 1367.02C359.61 1361.29 354 1361.28 354 1355.53C354 1349.78 359.61 1349.8 359.61 1344.06C359.61 1338.32 354 1338.31 354 1332.57C354 1326.83 359.61 1326.83 359.61 1321.08" stroke="white" stroke-width="5" stroke-miterlimit="10" stroke-linecap="round"/>
<path d="M318.23 1378.49C318.23 1372.75 323.83 1372.75 323.83 1367.02C323.83 1361.29 318.23 1361.28 318.23 1355.53C318.23 1349.78 323.83 1349.8 323.83 1344.06C323.83 1338.32 318.23 1338.31 318.23 1332.57C318.23 1326.83 323.83 1326.83 323.83 1321.09" stroke="white" stroke-width="5" stroke-miterlimit="10" stroke-linecap="round"/>
<path d="M282.46 1378.49C282.46 1372.75 288.07 1372.75 288.07 1367.02C288.07 1361.29 282.46 1361.28 282.46 1355.53C282.46 1349.78 288.07 1349.8 288.07 1344.06C288.07 1338.32 282.46 1338.31 282.46 1332.57C282.46 1326.83 288.07 1326.83 288.07 1321.09" stroke="white" stroke-width="5" stroke-miterlimit="10" stroke-linecap="round"/>
<path d="M246.69 1378.49C246.69 1372.75 252.3 1372.75 252.3 1367.02C252.3 1361.29 246.69 1361.28 246.69 1355.53C246.69 1349.78 252.3 1349.8 252.3 1344.06C252.3 1338.32 246.69 1338.31 246.69 1332.57C246.69 1326.83 252.3 1326.83 252.3 1321.09" stroke="white" stroke-width="5" stroke-miterlimit="10" stroke-linecap="round"/>
<path d="M854.87 1519.72C854.787 1519.55 854.655 1519.4 854.49 1519.3C854.324 1519.2 854.134 1519.14 853.94 1519.15H849.68C849.478 1514.31 847.824 1509.64 844.933 1505.75C842.042 1501.86 838.047 1498.93 833.468 1497.34C828.889 1495.75 823.938 1495.58 819.258 1496.84C814.579 1498.1 810.388 1500.74 807.23 1504.42L811 1509.81C813.145 1506.8 816.172 1504.53 819.663 1503.31C823.154 1502.09 826.937 1501.99 830.489 1503.02C834.041 1504.04 837.187 1506.14 839.493 1509.03C841.798 1511.92 843.15 1515.46 843.36 1519.15H839.21C839.018 1519.15 838.83 1519.21 838.667 1519.31C838.504 1519.41 838.371 1519.55 838.283 1519.72C838.194 1519.89 838.154 1520.08 838.166 1520.28C838.178 1520.47 838.241 1520.65 838.35 1520.81L845.71 1531.33C845.808 1531.47 845.938 1531.58 846.088 1531.66C846.239 1531.74 846.406 1531.78 846.575 1531.78C846.744 1531.78 846.911 1531.74 847.062 1531.66C847.212 1531.58 847.342 1531.47 847.44 1531.33L854.8 1520.81C854.916 1520.65 854.985 1520.47 854.997 1520.28C855.009 1520.08 854.965 1519.89 854.87 1519.72Z" fill="#B0D31E"/>
<path d="M825.53 1538.09C820.974 1538.08 816.592 1536.34 813.279 1533.21C809.965 1530.08 807.97 1525.81 807.7 1521.26H811.9C812.115 1521.26 812.323 1521.19 812.498 1521.06C812.673 1520.94 812.807 1520.77 812.88 1520.56C812.954 1520.36 812.965 1520.14 812.911 1519.94C812.858 1519.73 812.742 1519.54 812.58 1519.4L805.35 1509.08C805.249 1508.95 805.119 1508.84 804.97 1508.77C804.821 1508.69 804.657 1508.65 804.49 1508.65C804.323 1508.65 804.159 1508.69 804.01 1508.77C803.861 1508.84 803.731 1508.95 803.63 1509.08L796.26 1519.6C796.152 1519.76 796.088 1519.94 796.075 1520.14C796.063 1520.33 796.103 1520.52 796.19 1520.69C796.273 1520.86 796.405 1521.01 796.57 1521.11C796.736 1521.21 796.926 1521.27 797.12 1521.26H801.38C801.58 1526.1 803.232 1530.77 806.123 1534.67C809.014 1538.56 813.008 1541.49 817.588 1543.08C822.167 1544.67 827.119 1544.84 831.799 1543.58C836.48 1542.32 840.672 1539.68 843.83 1536L840.06 1530.61C838.408 1532.92 836.228 1534.81 833.701 1536.11C831.174 1537.41 828.372 1538.09 825.53 1538.09Z" fill="#B0D31E"/>
<path d="M998.19 1519.72C998.107 1519.55 997.975 1519.4 997.81 1519.3C997.645 1519.2 997.454 1519.14 997.26 1519.15H993C992.799 1514.31 991.144 1509.64 988.253 1505.75C985.362 1501.86 981.367 1498.93 976.788 1497.34C972.209 1495.75 967.258 1495.58 962.578 1496.84C957.899 1498.1 953.708 1500.74 950.55 1504.42L954.32 1509.81C956.467 1506.8 959.495 1504.53 962.986 1503.32C966.477 1502.1 970.259 1502 973.811 1503.02C977.363 1504.05 980.509 1506.15 982.816 1509.04C985.123 1511.93 986.477 1515.46 986.69 1519.15H982.53C982.337 1519.14 982.146 1519.2 981.981 1519.3C981.815 1519.4 981.683 1519.55 981.6 1519.72C981.513 1519.89 981.473 1520.08 981.486 1520.27C981.498 1520.47 981.562 1520.65 981.67 1520.81L989.03 1531.33C989.128 1531.47 989.258 1531.58 989.408 1531.66C989.559 1531.74 989.726 1531.78 989.895 1531.78C990.065 1531.78 990.231 1531.74 990.382 1531.66C990.532 1531.58 990.662 1531.47 990.76 1531.33L998.12 1520.81C998.236 1520.65 998.305 1520.47 998.317 1520.28C998.329 1520.08 998.285 1519.89 998.19 1519.72Z" fill="#B0D31E"/>
<path d="M968.85 1538.09C964.29 1538.09 959.903 1536.34 956.586 1533.22C953.268 1530.09 951.27 1525.81 951 1521.26H955.2C955.471 1521.24 955.725 1521.13 955.911 1520.93C956.097 1520.73 956.2 1520.47 956.2 1520.2C956.203 1520.05 956.172 1519.9 956.108 1519.76C956.044 1519.62 955.949 1519.5 955.83 1519.4L948.6 1509.08C948.499 1508.95 948.369 1508.84 948.22 1508.77C948.071 1508.69 947.906 1508.65 947.74 1508.65C947.573 1508.65 947.409 1508.69 947.26 1508.77C947.111 1508.84 946.981 1508.95 946.88 1509.08L939.52 1519.6C939.402 1519.75 939.332 1519.94 939.318 1520.13C939.304 1520.33 939.346 1520.52 939.44 1520.69C939.53 1520.86 939.665 1521.01 939.83 1521.11C939.996 1521.21 940.186 1521.26 940.38 1521.26H944.64C944.825 1526.12 946.472 1530.81 949.366 1534.72C952.261 1538.63 956.268 1541.57 960.862 1543.16C965.457 1544.75 970.426 1544.92 975.118 1543.64C979.81 1542.37 984.007 1539.7 987.16 1536L983.38 1530.61C981.728 1532.92 979.548 1534.81 977.021 1536.11C974.494 1537.41 971.692 1538.09 968.85 1538.09Z" fill="#B0D31E"/>
<path d="M2000.39 2245.21C2000.39 2259.94 2026.79 2271.88 2059.39 2271.88C2091.99 2271.88 2118.39 2259.94 2118.39 2245.21V2013.59H2000.39V2245.21Z" fill="white" stroke="white" stroke-width="6" stroke-miterlimit="10" stroke-linecap="round"/>
<path d="M2059.35 2040.26C2091.91 2040.26 2118.31 2028.32 2118.31 2013.59C2118.31 1998.86 2091.91 1986.92 2059.35 1986.92C2026.79 1986.92 2000.39 1998.86 2000.39 2013.59C2000.39 2028.32 2026.79 2040.26 2059.35 2040.26Z" fill="#007CBA" stroke="white" stroke-width="6" stroke-miterlimit="10" stroke-linecap="round"/>
<path d="M2105.46 2016V1995.15C2105.46 1983.63 2084.82 1974.29 2059.35 1974.29C2033.88 1974.29 2013.25 1983.63 2013.25 1995.15V2016" stroke="white" stroke-width="6" stroke-miterlimit="10" stroke-linecap="round"/>
<path d="M2059.35 2016C2084.82 2016 2105.46 2006.66 2105.46 1995.15C2105.46 1983.63 2084.82 1974.3 2059.35 1974.3C2033.88 1974.3 2013.24 1983.63 2013.24 1995.15C2013.24 2006.66 2033.88 2016 2059.35 2016Z" fill="#007CBA" stroke="white" stroke-width="6" stroke-miterlimit="10" stroke-linecap="round"/>
<path d="M2059.35 1996.18C2084.82 1996.18 2105.46 1986.85 2105.46 1975.33C2105.46 1963.81 2084.82 1954.48 2059.35 1954.48C2033.88 1954.48 2013.24 1963.81 2013.24 1975.33C2013.24 1986.85 2033.88 1996.18 2059.35 1996.18Z" stroke="white" stroke-width="6" stroke-miterlimit="10" stroke-linecap="round"/>
<path d="M2057.45 1996.18V2016" stroke="white" stroke-width="6" stroke-miterlimit="10" stroke-linecap="round"/>
<path d="M2057.45 1954.47V1974.29" stroke="white" stroke-width="6" stroke-miterlimit="10" stroke-linecap="round"/>
<path d="M1575.54 1496.35H1410.15C1380.03 1496.35 1355.61 1520.77 1355.61 1550.89C1355.61 1581.01 1380.03 1605.43 1410.15 1605.43H1575.54C1605.66 1605.43 1630.08 1581.01 1630.08 1550.89C1630.08 1520.77 1605.66 1496.35 1575.54 1496.35Z" fill="#007CBA"/>
<path d="M1590.16 1409.07H1472.49C1451.06 1409.07 1433.69 1426.44 1433.69 1447.87C1433.69 1469.3 1451.06 1486.67 1472.49 1486.67H1590.16C1611.59 1486.67 1628.96 1469.3 1628.96 1447.87C1628.96 1426.44 1611.59 1409.07 1590.16 1409.07Z" fill="#00BAF3"/>
<path d="M1538 1443.37C1552.81 1443.37 1567.01 1449.25 1577.48 1459.72C1587.95 1470.19 1593.83 1484.39 1593.83 1499.2V1557.33H1482.17V1499.2C1482.17 1484.39 1488.05 1470.19 1498.52 1459.72C1508.99 1449.25 1523.19 1443.37 1538 1443.37Z" fill="white"/>
<path d="M1536.86 1557.33V1615.02" stroke="white" stroke-width="9" stroke-miterlimit="10"/>
<path d="M1561.79 1557.33V1615.02" stroke="white" stroke-width="9" stroke-miterlimit="10"/>
<path d="M1431.91 1496.35V1615.02" stroke="white" stroke-width="9" stroke-miterlimit="10"/>
<path d="M1431.91 1586.17H1488.46C1491.91 1586.17 1495.21 1584.8 1497.65 1582.36C1500.09 1579.92 1501.46 1576.62 1501.46 1573.17V1538" stroke="white" stroke-width="9" stroke-miterlimit="10"/>
<path d="M1536.92 1454.9C1514.66 1455.19 1496.92 1473.75 1496.92 1496.02V1509.81H1577.92V1495.41C1577.92 1490.05 1576.85 1484.74 1574.79 1479.8C1572.72 1474.85 1569.69 1470.36 1565.88 1466.59C1562.07 1462.83 1557.54 1459.85 1552.57 1457.84C1547.6 1455.84 1542.28 1454.84 1536.92 1454.9Z" fill="#B0D31E"/>
<path d="M1537.46 1465.49V1474C1543.37 1474.01 1549.04 1476.36 1553.23 1480.54C1557.41 1484.73 1559.76 1490.4 1559.77 1496.31H1568.3C1568.29 1488.13 1565.04 1480.3 1559.26 1474.52C1553.48 1468.74 1545.64 1465.49 1537.46 1465.49Z" fill="white"/>
<path d="M1533.87 1491.53C1532.93 1492.47 1532.4 1493.75 1532.4 1495.08C1532.4 1496.41 1532.93 1497.69 1533.87 1498.63C1534.81 1499.57 1536.09 1500.1 1537.42 1500.1C1538.75 1500.1 1540.03 1499.57 1540.97 1498.63L1561.79 1470.72L1533.87 1491.53Z" fill="#007CBA" stroke="#007CBA" stroke-width="2.63" stroke-linecap="round" stroke-linejoin="round"/>
<path d="M1537.42 1497.56C1538.79 1497.56 1539.9 1496.45 1539.9 1495.08C1539.9 1493.71 1538.79 1492.6 1537.42 1492.6C1536.05 1492.6 1534.94 1493.71 1534.94 1495.08C1534.94 1496.45 1536.05 1497.56 1537.42 1497.56Z" fill="#B0D31E"/>
<path d="M1506.25 1496.02H1516.18" stroke="#007CBA" stroke-width="4" stroke-linecap="round" stroke-linejoin="round"/>
<path d="M1536.86 1464.2V1474.14" stroke="#007CBA" stroke-width="4" stroke-linecap="round" stroke-linejoin="round"/>
<path d="M1514.96 1473.77L1521.99 1480.79" stroke="#007CBA" stroke-width="4" stroke-linecap="round" stroke-linejoin="round"/>
<path d="M1750 2450H1250V2950H1750V2450Z" fill="#007CBA"/>
<path d="M1576.02 2685.2H1410.63C1380.51 2685.2 1356.09 2709.62 1356.09 2739.74C1356.09 2769.86 1380.51 2794.28 1410.63 2794.28H1576.02C1606.14 2794.28 1630.56 2769.86 1630.56 2739.74C1630.56 2709.62 1606.14 2685.2 1576.02 2685.2Z" fill="#B0D31E"/>
<path d="M1590.65 2597.93H1472.98C1451.55 2597.93 1434.18 2615.3 1434.18 2636.73C1434.18 2658.16 1451.55 2675.53 1472.98 2675.53H1590.65C1612.08 2675.53 1629.45 2658.16 1629.45 2636.73C1629.45 2615.3 1612.08 2597.93 1590.65 2597.93Z" fill="#00BAF3"/>
<path d="M1538.49 2632.23C1553.3 2632.23 1567.5 2638.11 1577.97 2648.58C1588.44 2659.05 1594.32 2673.25 1594.32 2688.06V2746.19H1482.66V2688.06C1482.66 2673.25 1488.54 2659.05 1499.01 2648.58C1509.48 2638.11 1523.68 2632.23 1538.49 2632.23Z" fill="white"/>
<path d="M1537.34 2746.19V2803.87" stroke="white" stroke-width="9" stroke-miterlimit="10"/>
<path d="M1562.27 2746.19V2803.87" stroke="white" stroke-width="9" stroke-miterlimit="10"/>
<path d="M1432.39 2685.2V2803.87" stroke="white" stroke-width="9" stroke-miterlimit="10"/>
<path d="M1432.39 2775H1488.94C1492.39 2775 1495.69 2773.63 1498.13 2771.19C1500.57 2768.75 1501.94 2765.45 1501.94 2762V2726.83" stroke="white" stroke-width="9" stroke-miterlimit="10"/>
<path d="M1537.4 2643.75C1515.14 2644.04 1497.4 2662.6 1497.4 2684.87V2698.66H1578.4V2684.27C1578.4 2678.91 1577.34 2673.6 1575.27 2668.65C1573.2 2663.7 1570.18 2659.22 1566.36 2655.45C1562.55 2651.68 1558.03 2648.7 1553.05 2646.7C1548.08 2644.69 1542.76 2643.69 1537.4 2643.75Z" fill="#B0D31E"/>
<path d="M1537.94 2654.34V2662.88C1543.86 2662.89 1549.53 2665.24 1553.71 2669.42C1557.89 2673.6 1560.24 2679.27 1560.25 2685.19H1568.79C1568.79 2677.01 1565.54 2669.16 1559.75 2663.38C1553.97 2657.59 1546.12 2654.34 1537.94 2654.34Z" fill="white"/>
<path d="M1534.35 2680.39C1533.41 2681.33 1532.88 2682.61 1532.88 2683.94C1532.88 2685.27 1533.41 2686.55 1534.35 2687.49C1535.29 2688.43 1536.57 2688.96 1537.9 2688.96C1539.23 2688.96 1540.51 2688.43 1541.45 2687.49L1562.27 2659.57L1534.35 2680.39Z" fill="#007CBA" stroke="#007CBA" stroke-width="2.63" stroke-linecap="round" stroke-linejoin="round"/>
<path d="M1537.9 2686.42C1539.27 2686.42 1540.38 2685.31 1540.38 2683.94C1540.38 2682.57 1539.27 2681.46 1537.9 2681.46C1536.53 2681.46 1535.42 2682.57 1535.42 2683.94C1535.42 2685.31 1536.53 2686.42 1537.9 2686.42Z" fill="#B0D31E"/>
<path d="M1506.73 2684.87H1516.67" stroke="#007CBA" stroke-width="4" stroke-linecap="round" stroke-linejoin="round"/>
<path d="M1537.34 2653.05V2662.99" stroke="#007CBA" stroke-width="4" stroke-linecap="round" stroke-linejoin="round"/>
<path d="M1515.44 2662.62L1522.47 2669.65" stroke="#007CBA" stroke-width="4" stroke-linecap="round" stroke-linejoin="round"/>
<path d="M2210.1 2178.34H2085.52C2071.03 2178.34 2059.28 2190.09 2059.28 2204.58V2204.59C2059.28 2219.08 2071.03 2230.83 2085.52 2230.83H2210.1C2224.59 2230.83 2236.34 2219.08 2236.34 2204.59V2204.58C2236.34 2190.09 2224.59 2178.34 2210.1 2178.34Z" fill="#B0D31E"/>
<path d="M2147 2152.85C2154.12 2152.85 2160.96 2155.68 2165.99 2160.72C2171.03 2165.75 2173.86 2172.59 2173.86 2179.71V2207.71H2120.13V2179.71C2120.13 2176.18 2120.83 2172.69 2122.18 2169.43C2123.53 2166.17 2125.51 2163.21 2128 2160.71C2130.5 2158.22 2133.46 2156.24 2136.72 2154.89C2139.98 2153.54 2143.47 2152.85 2147 2152.85Z" fill="white"/>
<path d="M2149.77 2207.68V2265.14" stroke="white" stroke-width="9" stroke-miterlimit="10"/>
<path d="M2203.72 2180.27V2265.14" stroke="white" stroke-width="9" stroke-miterlimit="10"/>
<path d="M2095.99 2178.34V2235.44" stroke="white" stroke-width="9" stroke-miterlimit="10" stroke-linecap="round"/>
<path d="M2096 2221.56H2123.21C2124.87 2221.56 2126.46 2220.9 2127.64 2219.73C2128.81 2218.55 2129.47 2216.96 2129.47 2215.3V2198.38" stroke="white" stroke-width="6" stroke-miterlimit="10" stroke-linecap="round"/>
<path d="M890.21 2021.5C867.95 2021.79 850.21 2040.35 850.21 2062.62V2076.41H931.21V2062C931.208 2056.64 930.142 2051.33 928.074 2046.39C926.007 2041.44 922.979 2036.96 919.166 2033.19C915.352 2029.42 910.829 2026.45 905.859 2024.44C900.889 2022.44 895.57 2021.44 890.21 2021.5Z" fill="white"/>
<path d="M890.75 2032.09V2040.62C896.666 2040.63 902.338 2042.98 906.52 2047.17C910.703 2051.35 913.055 2057.02 913.06 2062.94H921.6C921.6 2058.89 920.802 2054.88 919.252 2051.13C917.701 2047.39 915.429 2043.99 912.564 2041.13C909.7 2038.26 906.299 2035.99 902.556 2034.44C898.813 2032.89 894.801 2032.09 890.75 2032.09Z" fill="#EE1616"/>
<path d="M887.16 2058.14C886.218 2059.08 885.689 2060.36 885.689 2061.69C885.689 2063.02 886.218 2064.3 887.16 2065.24C888.101 2066.18 889.378 2066.71 890.71 2066.71C892.041 2066.71 893.318 2066.18 894.26 2065.24L915.08 2037.32L887.16 2058.14Z" fill="#FF1614" stroke="#FF1614" stroke-width="2.63" stroke-linecap="round" stroke-linejoin="round"/>
<path d="M859.54 2062.62H869.48" stroke="#EE1616" stroke-width="4" stroke-linecap="round" stroke-linejoin="round"/>
<path d="M890.15 2030.8V2040.74" stroke="#EE1616" stroke-width="4" stroke-linecap="round" stroke-linejoin="round"/>
<path d="M868.25 2040.37L875.28 2047.4" stroke="#EE1616" stroke-width="4" stroke-linecap="round" stroke-linejoin="round"/>
<path d="M810.26 2176.31V2235.14" stroke="#00BAF3" stroke-width="7.84" stroke-miterlimit="10" stroke-linecap="round"/>
<path d="M972.34 2176.31V2235.14" stroke="#00BAF3" stroke-width="7.84" stroke-miterlimit="10" stroke-linecap="round"/>
<path d="M888.24 2232.13V2252.71" stroke="#00BAF3" stroke-width="7.84" stroke-miterlimit="10" stroke-linecap="round"/>
<path d="M931.26 2157.1C931.26 2134.73 913.121 2116.59 890.745 2116.59C868.369 2116.59 850.23 2134.73 850.23 2157.1C850.23 2179.48 868.369 2197.62 890.745 2197.62C913.121 2197.62 931.26 2179.48 931.26 2157.1Z" fill="#007CBA"/>
<path d="M906.79 2161.21C906.79 2174.21 899.34 2179.57 890.15 2179.57C880.96 2179.57 873.5 2174.25 873.5 2161.21C873.5 2148.17 890.15 2133.66 890.15 2133.66C890.15 2133.66 906.79 2148.17 906.79 2161.21Z" fill="#00BAF3"/>
<path d="M897.42 2173.82C897.42 2179.52 894.17 2181.82 890.15 2181.82C886.13 2181.82 882.87 2179.5 882.87 2173.82C882.87 2168.14 890.15 2161.82 890.15 2161.82C890.15 2161.82 897.42 2168.12 897.42 2173.82Z" fill="white"/>
<path d="M238.36 2010.39C261.639 2010.39 280.51 1999.5 280.51 1986.06C280.51 1972.62 261.639 1961.73 238.36 1961.73C215.081 1961.73 196.21 1972.62 196.21 1986.06C196.21 1999.5 215.081 2010.39 238.36 2010.39Z" stroke="white" stroke-width="7" stroke-linecap="round" stroke-linejoin="round"/>
<path d="M238.36 2230.19C261.639 2230.19 280.51 2219.3 280.51 2205.86C280.51 2192.42 261.639 2181.53 238.36 2181.53C215.081 2181.53 196.21 2192.42 196.21 2205.86C196.21 2219.3 215.081 2230.19 238.36 2230.19Z" stroke="white" stroke-width="7" stroke-linecap="round" stroke-linejoin="round"/>
<path d="M280 1986.06C280 1986.06 284.11 2039.06 287.22 2070.9C290.33 2102.74 265.33 2126.21 238.32 2126.21C211.31 2126.21 187.17 2100.1 189.41 2070.9C191.65 2041.7 196.64 1986.06 196.64 1986.06" stroke="white" stroke-width="7" stroke-linecap="round" stroke-linejoin="round"/>
<path d="M238.36 2126.21V2205.86" stroke="white" stroke-width="7" stroke-linecap="round" stroke-linejoin="round"/>
<path d="M357.05 2113.94C386.674 2113.94 410.69 2104.02 410.69 2091.78C410.69 2079.54 386.674 2069.62 357.05 2069.62C327.425 2069.62 303.41 2079.54 303.41 2091.78C303.41 2104.02 327.425 2113.94 357.05 2113.94Z" stroke="white" stroke-width="7" stroke-linecap="round" stroke-linejoin="round"/>
<path d="M410.69 2091.78L402.05 2212C402.05 2222.27 381.91 2235.09 357.05 2235.09C332.19 2235.09 312.05 2222.27 312.05 2212L303.42 2091.82" stroke="white" stroke-width="7" stroke-linecap="round" stroke-linejoin="round"/>
<path d="M335.77 2160.23L365.38 2189.84" stroke="white" stroke-width="4" stroke-linecap="round" stroke-linejoin="round"/>
<path d="M336.14 2142.5L365.76 2172.12" stroke="white" stroke-width="4" stroke-linecap="round" stroke-linejoin="round"/>
<path d="M213.47 2055.4L243.09 2085.01" stroke="white" stroke-width="4" stroke-linecap="round" stroke-linejoin="round"/>
<path d="M213.85 2037.67L243.46 2067.29" stroke="white" stroke-width="4" stroke-linecap="round" stroke-linejoin="round"/>
<path d="M1521.66 2014.44H1464.05V2072.72H1521.66V2014.44Z" stroke="#00BAF3" stroke-width="6.03" stroke-linecap="round" stroke-linejoin="round"/>
<path d="M1464.05 2014.44L1521.66 2072.72V2014.44L1464.05 2072.72" stroke="#00BAF3" stroke-width="6.03" stroke-linecap="round" stroke-linejoin="round"/>
<path d="M1521.66 1956.16H1464.05V2014.44H1521.66V1956.16Z" stroke="#00BAF3" stroke-width="6.03" stroke-linecap="round" stroke-linejoin="round"/>
<path d="M1464.05 1956.16L1521.66 2014.44V1956.16L1464.05 2014.44" stroke="#00BAF3" stroke-width="6.03" stroke-linecap="round" stroke-linejoin="round"/>
<path d="M1423.56 2319.16L1464.05 2072.72" stroke="#00BAF3" stroke-width="6.03" stroke-linecap="round" stroke-linejoin="round"/>
<path d="M1562.15 2319.16L1521.66 2072.72" stroke="#00BAF3" stroke-width="6.03" stroke-linecap="round" stroke-linejoin="round"/>
<path d="M1464.05 2073.32L1529.87 2122.72L1447.45 2173.72L1546.98 2226.85L1427.99 2292.16" stroke="#00BAF3" stroke-width="6.03" stroke-linecap="round" stroke-linejoin="round"/>
<path d="M1521.25 2073.32L1455.43 2122.72L1537.85 2173.72L1438.32 2226.85L1557.31 2292.16" stroke="#00BAF3" stroke-width="6.03" stroke-linecap="round" stroke-linejoin="round"/>
<path d="M1570.7 1956.85H1418.48" stroke="#00BAF3" stroke-width="6.03" stroke-linecap="round" stroke-linejoin="round"/>
<path d="M1244.3 2206.16C1454.63 2199.78 1550.3 2083.59 1613.36 2015.91C1613.36 2015.91 1653.55 2055.75 1741.56 2063.82" stroke="white" stroke-width="3.02" stroke-linecap="round" stroke-linejoin="round"/>
<path d="M906.819 2863.93C914.124 2849.36 912.286 2833.66 902.713 2828.86C893.14 2824.06 879.458 2831.98 872.153 2846.55C864.848 2861.12 866.686 2876.82 876.259 2881.62C885.832 2886.42 899.514 2878.5 906.819 2863.93Z" fill="#007CBA"/>
<path d="M1053.65 2679.67H1012V2795.38H1053.65V2679.67Z" fill="#007CBA"/>
<path d="M1028.41 2688.54L918.1 2628.91L944.24 2618.65L1058 2678.23L1028.41 2688.54Z" fill="white"/>
<path d="M905 2555.31L1015.53 2615.09L978.72 2688.54L837.7 2684.11L727.38 2624.48L895.37 2554.45L905 2555.31Z" fill="white"/>
<path d="M1077.34 2767.27L1055.07 2752.51V2771.98L1069.49 2781.09L1077.34 2767.27Z" fill="#388AED"/>
<path d="M962.05 2709.7V2673.2C962.05 2669.86 962.05 2666.3 961.89 2662.68C961.89 2661.02 961.76 2659.34 961.67 2657.68V2657.58C961.57 2655.92 961.46 2654.25 961.32 2652.58C961.325 2652.54 961.325 2652.51 961.32 2652.47C961.19 2650.81 961.03 2649.16 960.84 2647.53V2647.45C960.65 2645.82 960.43 2644.21 960.19 2642.64C959.94 2641.06 959.66 2639.52 959.35 2638.03C959.03 2636.53 958.697 2635.09 958.35 2633.71C957.669 2631.15 956.728 2628.67 955.54 2626.3C955.022 2625.28 954.423 2624.31 953.75 2623.39C953.54 2623.11 953.32 2622.83 953.1 2622.57C949.96 2618.89 945.78 2617.57 940.2 2619.88L918.2 2629.05V2717.64L909.87 2721.11V2564.05C909.872 2562.34 909.451 2560.65 908.644 2559.14C907.837 2557.63 906.669 2556.34 905.243 2555.39C903.818 2554.44 902.18 2553.86 900.475 2553.69C898.77 2553.53 897.05 2553.79 895.47 2554.45L727.47 2624.45V2797V2818.32L727.61 2818.12L761.1 2804.12V2820.38L767.78 2817.59C770.78 2826.47 778.85 2830.36 788.31 2826.42C800.31 2821.42 810.12 2805.58 810.12 2791.08C810.135 2788.72 809.839 2786.36 809.24 2784.08L853.02 2765.83V2773.43L893.94 2756.37V2765L901.61 2761.8C904.61 2770.68 912.68 2774.58 922.14 2770.63C934.14 2765.63 943.85 2749.93 943.94 2735.49L954.17 2731.23L959.87 2728.85L962.14 2727.9V2727.54C965.03 2725.38 967.14 2721.8 967.14 2718.59V2707.59L962.05 2709.7Z" fill="white"/>
<path d="M854.35 2870.88L871.32 2880.05V2851.39L858.31 2848.05L854.35 2870.88Z" fill="#007CBA"/>
<path d="M967.02 2804.4L1020.09 2833.37L1005.02 2795.87L997.8 2792.78L967.02 2804.4Z" fill="#007CBA"/>
<path d="M925.24 2812.79L963.24 2833.08V2804.27L956.02 2801.18L925.24 2812.79Z" fill="#007CBA"/>
<path d="M1061.38 2784.57L837.7 2877.82V2856.64L1061.38 2763.39V2773.98V2784.57Z" fill="#007CBA"/>
<path d="M1072.37 2787.58L1053.65 2795.39C1053.65 2777.14 1045.82 2769.88 1036.15 2773.91L1028.41 2777.14V2688.54L1050.41 2679.38C1069.93 2671.25 1072.41 2707.86 1072.41 2732.84L1072.37 2787.58Z" fill="#00BAF3"/>
<path d="M1070.1 2788.53L1064.4 2790.91V2772.66L1077.34 2767.27V2778.27C1077.34 2782.27 1074.1 2786.86 1070.1 2788.53Z" fill="#00BAF3"/>
<path d="M1063.29 2682.07L1050.39 2687.45L1043.75 2690.21C1040.46 2691.58 1037.75 2695.36 1037.75 2698.65V2726.32L1044.05 2723.69C1047.53 2722.24 1050.35 2724.69 1050.35 2729.12C1050.35 2734.06 1053.48 2736.76 1057.35 2735.12L1072.35 2728.88C1072.15 2711.66 1070.55 2690.58 1063.29 2682.07Z" fill="#007CBA"/>
<path d="M1048.06 2813.36C1055.45 2798.62 1053.68 2782.78 1044.11 2777.98C1034.53 2773.18 1020.78 2781.24 1013.39 2795.98C1006 2810.72 1007.77 2826.57 1017.34 2831.37C1026.91 2836.17 1040.66 2828.11 1048.06 2813.36Z" fill="#007CBA"/>
<path d="M1032.36 2804.26L963.24 2833.08V2814.83L1032.36 2786.02V2804.26Z" fill="#007CBA"/>
<path d="M879.16 2876.79L871.32 2880.05V2851.39L879.16 2848.12V2876.79Z" fill="#007CBA"/>
<path d="M727.38 2818.32L837.7 2877.96V2684.11L727.38 2624.48V2818.32Z" fill="#007CBA"/>
<path d="M837.7 2856.64L739.51 2803.56V2746.17" stroke="#00BAF3" stroke-width="5" stroke-linecap="round" stroke-linejoin="round"/>
<path d="M1040.75 2809.19C1044.28 2802.15 1043.39 2794.56 1038.76 2792.24C1034.14 2789.92 1027.52 2793.75 1023.99 2800.79C1020.46 2807.83 1021.35 2815.42 1025.98 2817.73C1030.6 2820.05 1037.22 2816.23 1040.75 2809.19Z" fill="#00BAF3"/>
<path d="M1033.5 2810.1C1037.03 2803.06 1036.14 2795.47 1031.52 2793.15C1026.89 2790.83 1020.28 2794.66 1016.75 2801.7C1013.22 2808.74 1014.11 2816.32 1018.73 2818.64C1023.36 2820.96 1029.97 2817.14 1033.5 2810.1Z" fill="#007CBA"/>
<path d="M867.39 2877.96L884.94 2886.04L888.56 2877.96H867.39Z" fill="#007CBA"/>
<path d="M739.51 2803.56L837.7 2761.49" stroke="#00BAF3" stroke-width="5" stroke-linecap="round" stroke-linejoin="round"/>
<path d="M840.02 2834.97L780.04 2802.68V2742.7L840.02 2774.99V2834.97Z" fill="#B0D31E"/>
<path d="M900 2809.98L840.02 2834.97V2774.99L900 2750V2809.98Z" fill="#B0D31E"/>
<path d="M840.02 2717.83L780.04 2742.7L840.02 2774.99L900 2750L840.02 2717.83Z" fill="#B0D31E"/>
<path d="M739.51 2646.34V2690.97L837.7 2744.05V2699.43L739.51 2646.34Z" fill="#00BAF3"/>
<path d="M747.43 2673.12L837.7 2721.42" stroke="white" stroke-width="5" stroke-linecap="round" stroke-linejoin="round"/>
<path d="M1020.09 2780.61L837.7 2856.61V2684.12L1005.7 2614.12C1007.28 2613.46 1009 2613.2 1010.7 2613.36C1012.41 2613.53 1014.05 2614.11 1015.47 2615.06C1016.9 2616.01 1018.07 2617.29 1018.88 2618.8C1019.69 2620.31 1020.11 2622 1020.11 2623.71L1020.09 2780.61Z" fill="#00BAF3"/>
<path d="M1040.74 2808.19C1044.27 2801.15 1043.38 2793.56 1038.76 2791.24C1034.13 2788.92 1027.52 2792.75 1023.99 2799.79C1020.46 2806.83 1021.35 2814.42 1025.97 2816.74C1030.6 2819.06 1037.21 2815.23 1040.74 2808.19Z" stroke="#00BAF3" stroke-width="5.06" stroke-miterlimit="10"/>
<path d="M915.879 2868.46C923.184 2853.89 921.346 2838.19 911.773 2833.39C902.201 2828.59 888.518 2836.51 881.213 2851.08C873.908 2865.65 875.746 2881.35 885.319 2886.15C894.892 2890.95 908.574 2883.03 915.879 2868.46Z" fill="#007CBA"/>
<path d="M879.16 2844.67V2873.34L860.43 2863.75" fill="#00BAF3"/>
<path d="M1012 2790.27V2818.94L993.27 2809.34" fill="#00BAF3"/>
<path d="M907.872 2863.73C911.622 2856.25 910.677 2848.19 905.759 2845.72C900.842 2843.26 893.815 2847.32 890.065 2854.8C886.315 2862.28 887.261 2870.34 892.178 2872.81C897.095 2875.27 904.122 2871.21 907.872 2863.73Z" fill="#00BAF3"/>
<path d="M900.763 2862.2C904.513 2854.72 903.567 2846.66 898.65 2844.19C893.733 2841.73 886.707 2845.79 882.956 2853.27C879.206 2860.75 880.152 2868.81 885.069 2871.28C889.986 2873.74 897.013 2869.68 900.763 2862.2Z" fill="#007CBA"/>
<path d="M907.45 2864.23C911.2 2856.75 910.254 2848.69 905.337 2846.23C900.42 2843.76 893.393 2847.83 889.643 2855.31C885.892 2862.79 886.838 2870.85 891.756 2873.31C896.673 2875.78 903.699 2871.71 907.45 2864.23Z" stroke="#00BAF3" stroke-width="5.06" stroke-miterlimit="10"/>
<path d="M837.7 2877.96L858.31 2848.05L837.7 2856.64V2877.96Z" fill="#00BAF3"/>
<path d="M1371.42 2014.4H1613.51" stroke="#00BAF3" stroke-width="6.03" stroke-linecap="round" stroke-linejoin="round"/>
<path d="M2120.18 2099.39H2212.5" stroke="#007CBA" stroke-width="10" stroke-miterlimit="10"/>
<path d="M1750 650H1250V1150H1750V650Z" fill="#00BAF3"/>
<path d="M1150 650H650V1150H1150V650Z" fill="#007CBA"/>
<path d="M550 50H50V550H550V50Z" fill="#00BAF3"/>
<path d="M1537.78 1022.43H1464.02V1150H1537.78V1022.43Z" fill="white"/>
<path d="M1442.63 919.72C1441.63 872.08 1500.9 878.17 1491.37 773.88C1491.37 773.88 1556.85 808.95 1559.16 916.03C1560.92 997.89 1444.4 1001.58 1442.63 919.72Z" fill="#EE1616"/>
<path d="M1474 955.12C1473.53 933.12 1500.88 935.95 1496.49 887.85C1496.49 887.85 1526.69 904.03 1527.75 953.42C1528.59 991.18 1474.84 992.88 1474 955.12Z" fill="#00BAF3"/>
<path d="M1471.24 1016.92H1527.8C1535.76 1016.92 1543.39 1020.08 1549.01 1025.71C1554.64 1031.33 1557.8 1038.96 1557.8 1046.92V1049.43H1441.24V1046.92C1441.24 1038.96 1444.4 1031.33 1450.03 1025.71C1455.65 1020.08 1463.28 1016.92 1471.24 1016.92Z" fill="white"/>
<path d="M1463.5 1104.5H1537.26" stroke="#B0D31E" stroke-width="7" stroke-miterlimit="10"/>
<path d="M1464.02 1053.65H1537.78" stroke="#B0D31E" stroke-width="7" stroke-miterlimit="10"/>
<path d="M50 139C50 139 216 163.27 320.41 267.65C424.82 372.03 550 392.33 550 392.33V550H50V139Z" fill="#B0D31E"/>
<path d="M178.54 235.28H169.96C153.309 235.28 139.81 248.778 139.81 265.43V479.7C139.81 496.351 153.309 509.85 169.96 509.85H178.54C195.191 509.85 208.69 496.351 208.69 479.7V265.43C208.69 248.778 195.191 235.28 178.54 235.28Z" fill="white"/>
<path d="M188.34 107.28H159.35V248.2H188.34V107.28Z" fill="white"/>
<path d="M188.34 149.14H225.17C233.127 149.14 240.757 152.301 246.383 157.927C252.009 163.553 255.17 171.184 255.17 179.14V455.86C255.17 463.817 258.331 471.447 263.957 477.073C269.583 482.699 277.214 485.86 285.17 485.86H550" stroke="#007CBA" stroke-width="11" stroke-miterlimit="10"/>
<path d="M951.09 803.49C960.37 797.49 964.7 804.25 973.97 798.28C983.24 792.31 978.92 785.59 988.2 779.62C997.48 773.65 1001.8 780.37 1011.08 774.4C1020.36 768.43 1016.03 761.7 1025.31 755.73C1034.59 749.76 1038.92 756.49 1048.2 750.52" stroke="white" stroke-width="4" stroke-miterlimit="10"/>
<path d="M980.33 817C989.6 811 993.93 817.76 1003.21 811.79C1012.49 805.82 1008.16 799.09 1017.43 793.12C1026.7 787.15 1031.04 793.88 1040.32 787.91C1049.6 781.94 1045.32 775.21 1054.55 769.24C1063.78 763.27 1068.16 770 1077.44 764.03" stroke="white" stroke-width="4" stroke-miterlimit="10"/>
<path d="M993.19 846.25C1002.47 840.25 1006.8 847.01 1016.07 841.04C1025.34 835.07 1021.02 828.34 1030.3 822.37C1039.58 816.4 1043.91 823.13 1053.18 817.16C1062.45 811.19 1058.18 804.46 1067.41 798.49C1076.64 792.52 1081.02 799.24 1090.3 793.27" stroke="white" stroke-width="4" stroke-miterlimit="10"/>
<path d="M1012.08 872.65L888.87 943.78V890.89L1012.08 819.76V872.65Z" fill="white" stroke="white" stroke-miterlimit="10"/>
<path d="M1012.08 819.76L940.84 789L830.32 852.82C828.23 853.77 826.11 854.82 823.97 856.1C821.83 857.38 819.72 858.69 817.63 860.1C786.63 881.66 762.47 925.84 762.47 962.59C762.47 983.24 770.11 997.42 782.3 1003.36H782.37C783.496 1003.9 784.655 1004.37 785.84 1004.76L855.55 1034.96L882.16 916.46C884.293 908.323 885.408 899.952 885.48 891.54L1012.08 819.76Z" fill="#00BAF3"/>
<path d="M938.712 982.982C962.73 941.38 962.73 896.413 938.71 882.545C914.69 868.677 875.747 891.16 851.728 932.762C827.709 974.364 827.71 1019.33 851.73 1033.2C875.75 1047.07 914.693 1024.58 938.712 982.982Z" fill="white" stroke="white" stroke-miterlimit="10"/>
<path d="M929.09 937.67C928.88 937.33 928.47 937.27 928.01 937.54L923.09 940.38C922.45 923.62 910.21 916.96 895.22 925.62C886.78 930.49 879.22 939.22 874.09 949.03L878.45 953.7C882.2 945.5 888.31 938.02 895.22 934.03C906.22 927.7 915.17 932.46 915.81 944.58L911.01 947.35C910.507 947.678 910.127 948.163 909.93 948.73C909.822 948.951 909.773 949.196 909.789 949.442C909.804 949.688 909.884 949.925 910.02 950.13L918.52 959.25C918.659 959.369 918.837 959.434 919.02 959.434C919.203 959.434 919.381 959.369 919.52 959.25C919.964 958.97 920.313 958.562 920.52 958.08L929.02 939.15C929.142 938.924 929.212 938.674 929.224 938.418C929.236 938.162 929.19 937.906 929.09 937.67Z" fill="#B0D31E"/>
<path d="M895.22 981.71C884.22 988.04 875.22 983.28 874.64 971.16L879.43 968.39H879.48C879.833 968.16 880.128 967.85 880.339 967.485C880.551 967.12 880.675 966.711 880.7 966.29C880.721 966.126 880.691 965.959 880.614 965.813C880.537 965.666 880.417 965.546 880.27 965.47L871.93 956.47C871.47 955.98 870.39 956.6 869.93 957.62L861.43 976.55C861.303 976.778 861.23 977.031 861.217 977.291C861.203 977.551 861.248 977.811 861.35 978.05C861.55 978.39 861.97 978.44 862.42 978.18L867.34 975.34C867.98 992.1 880.22 998.76 895.21 990.1C903.65 985.23 911.21 976.5 916.34 966.69L912 962C908.24 970.24 902.14 977.72 895.22 981.71Z" fill="#B0D31E"/>
<path d="M831.05 438.31C793.56 438.31 763.17 385.68 763.17 320.75C763.17 255.82 793.56 203.19 831.05 203.19H916.4V438.31H831.05Z" fill="#007CBA"/>
<path d="M938.18 438.31C975.669 438.31 1006.06 385.677 1006.06 320.75C1006.06 255.823 975.669 203.19 938.18 203.19C900.691 203.19 870.3 255.823 870.3 320.75C870.3 385.677 900.691 438.31 938.18 438.31Z" fill="#007CBA" stroke="#00BAF3" stroke-width="9.54" stroke-miterlimit="10" stroke-linecap="round"/>
<path d="M938.18 408.05C966.021 408.05 988.59 368.965 988.59 320.75C988.59 272.536 966.021 233.45 938.18 233.45C910.339 233.45 887.77 272.536 887.77 320.75C887.77 368.965 910.339 408.05 938.18 408.05Z" stroke="#00BAF3" stroke-width="9.54" stroke-miterlimit="10" stroke-linecap="round"/>
<path d="M938.18 379.9C957.041 379.9 972.33 353.418 972.33 320.75C972.33 288.082 957.041 261.6 938.18 261.6C919.319 261.6 904.03 288.082 904.03 320.75C904.03 353.418 919.319 379.9 938.18 379.9Z" stroke="#00BAF3" stroke-width="9.54" stroke-miterlimit="10" stroke-linecap="round"/>
<path d="M938.18 349.5C947.348 349.5 954.78 336.628 954.78 320.75C954.78 304.872 947.348 292 938.18 292C929.012 292 921.58 304.872 921.58 320.75C921.58 336.628 929.012 349.5 938.18 349.5Z" fill="#00BAF3" stroke="#00BAF3" stroke-width="9.54" stroke-miterlimit="10" stroke-linecap="round"/>
<path d="M938.18 203.19V438.31" stroke="#00BAF3" stroke-width="9.54" stroke-miterlimit="10" stroke-linecap="round"/>
<path d="M870.3 320.75H1006.06" stroke="#00BAF3" stroke-width="9.54" stroke-miterlimit="10" stroke-linecap="round"/>
<path d="M1043.91 234.02C1049.34 234.02 1053.74 229.619 1053.74 224.19C1053.74 218.761 1049.34 214.36 1043.91 214.36C1038.48 214.36 1034.08 218.761 1034.08 224.19C1034.08 229.619 1038.48 234.02 1043.91 234.02Z" fill="white"/>
<path d="M1043.91 282.3C1049.34 282.3 1053.74 277.899 1053.74 272.47C1053.74 267.041 1049.34 262.64 1043.91 262.64C1038.48 262.64 1034.08 267.041 1034.08 272.47C1034.08 277.899 1038.48 282.3 1043.91 282.3Z" fill="white"/>
<path d="M1043.91 330.58C1049.34 330.58 1053.74 326.179 1053.74 320.75C1053.74 315.321 1049.34 310.92 1043.91 310.92C1038.48 310.92 1034.08 315.321 1034.08 320.75C1034.08 326.179 1038.48 330.58 1043.91 330.58Z" fill="white"/>
<path d="M1043.91 378.86C1049.34 378.86 1053.74 374.459 1053.74 369.03C1053.74 363.601 1049.34 359.2 1043.91 359.2C1038.48 359.2 1034.08 363.601 1034.08 369.03C1034.08 374.459 1038.48 378.86 1043.91 378.86Z" fill="white"/>
<path d="M1043.91 427.13C1049.34 427.13 1053.74 422.729 1053.74 417.3C1053.74 411.871 1049.34 407.47 1043.91 407.47C1038.48 407.47 1034.08 411.871 1034.08 417.3C1034.08 422.729 1038.48 427.13 1043.91 427.13Z" fill="white"/>
<path d="M1010.38 258.16C1015.81 258.16 1020.21 253.759 1020.21 248.33C1020.21 242.901 1015.81 238.5 1010.38 238.5C1004.95 238.5 1000.55 242.901 1000.55 248.33C1000.55 253.759 1004.95 258.16 1010.38 258.16Z" fill="white"/>
<path d="M1010.38 306.44C1015.81 306.44 1020.21 302.039 1020.21 296.61C1020.21 291.181 1015.81 286.78 1010.38 286.78C1004.95 286.78 1000.55 291.181 1000.55 296.61C1000.55 302.039 1004.95 306.44 1010.38 306.44Z" fill="white"/>
<path d="M1010.38 354.72C1015.81 354.72 1020.21 350.319 1020.21 344.89C1020.21 339.461 1015.81 335.06 1010.38 335.06C1004.95 335.06 1000.55 339.461 1000.55 344.89C1000.55 350.319 1004.95 354.72 1010.38 354.72Z" fill="white"/>
<path d="M1010.38 403C1015.81 403 1020.21 398.599 1020.21 393.17C1020.21 387.741 1015.81 383.34 1010.38 383.34C1004.95 383.34 1000.55 387.741 1000.55 393.17C1000.55 398.599 1004.95 403 1010.38 403Z" fill="white"/>
<path d="M973.84 282.3C979.269 282.3 983.67 277.899 983.67 272.47C983.67 267.041 979.269 262.64 973.84 262.64C968.411 262.64 964.01 267.041 964.01 272.47C964.01 277.899 968.411 282.3 973.84 282.3Z" fill="white"/>
<path d="M973.84 330.58C979.269 330.58 983.67 326.179 983.67 320.75C983.67 315.321 979.269 310.92 973.84 310.92C968.411 310.92 964.01 315.321 964.01 320.75C964.01 326.179 968.411 330.58 973.84 330.58Z" fill="white"/>
<path d="M973.84 378.86C979.269 378.86 983.67 374.459 983.67 369.03C983.67 363.601 979.269 359.2 973.84 359.2C968.411 359.2 964.01 363.601 964.01 369.03C964.01 374.459 968.411 378.86 973.84 378.86Z" fill="white"/>
<path d="M300 1288.57V1040C300 1002.87 314.75 967.26 341.005 941.005C367.26 914.75 402.87 900 440 900H650" stroke="#007CBA" stroke-width="10" stroke-miterlimit="10"/>
<path d="M316.95 1268.65L300 1285.62L283.05 1268.65V1283.05L300 1300L316.95 1283.05V1268.65Z" fill="#007CBA"/>
<path d="M1150 900H1288.57" stroke="#007CBA" stroke-width="10" stroke-miterlimit="10"/>
<path d="M1268.65 916.95L1285.62 900L1268.65 883.05H1283.05L1300 900L1283.05 916.95H1268.65Z" fill="#007CBA"/>
<path d="M550 1498.83H688.57" stroke="#00BAF3" stroke-width="10" stroke-miterlimit="10"/>
<path d="M668.65 1515.79L685.62 1498.83L668.65 1481.88H683.05L700 1498.83L683.05 1515.79H668.65Z" fill="#00BAF3"/>
<path d="M1150 1498.83H1288.57" stroke="#007CBA" stroke-width="10" stroke-miterlimit="10"/>
<path d="M1268.65 1515.79L1285.62 1498.83L1268.65 1481.88H1283.05L1300 1498.83L1283.05 1515.79H1268.65Z" fill="#007CBA"/>
<path d="M550 300H688.57" stroke="#00BAF3" stroke-width="10" stroke-miterlimit="10"/>
<path d="M668.65 316.95L685.62 300L668.65 283.05H683.05L700 300L683.05 316.95H668.65Z" fill="#00BAF3"/>
<path d="M900 550V688.57" stroke="#B0D31E" stroke-width="10" stroke-miterlimit="10"/>
<path d="M883.05 668.65L900 685.62L916.95 668.65V683.05L900 700L883.05 683.05V668.65Z" fill="#B0D31E"/>
<path d="M1500 1750V1800H900V1888.57" stroke="#B0D31E" stroke-width="10" stroke-miterlimit="10"/>
<path d="M883.05 1868.65L900 1885.62L916.95 1868.65V1883.05L900 1900L883.05 1883.05V1868.65Z" fill="#B0D31E"/>
<path d="M900 1800H340C329.391 1800 319.217 1804.21 311.716 1811.72C304.214 1819.22 300 1829.39 300 1840V1888.57" stroke="#B0D31E" stroke-width="10" stroke-miterlimit="10"/>
<path d="M283.05 1868.65L300 1885.62L316.95 1868.65V1883.05L300 1900L283.05 1883.05V1868.65Z" fill="#B0D31E"/>
<path d="M1500 1800V1888.57" stroke="#B0D31E" stroke-width="10" stroke-miterlimit="10"/>
<path d="M1483.05 1868.65L1500 1885.62L1516.95 1868.65V1883.05L1500 1900L1483.05 1883.05V1868.65Z" fill="#B0D31E"/>
<path d="M2100 1888.57V1840C2100 1829.39 2095.79 1819.22 2088.28 1811.72C2080.78 1804.21 2070.61 1800 2060 1800H1500" stroke="#B0D31E" stroke-width="10" stroke-miterlimit="10"/>
<path d="M2116.95 1868.65L2100 1885.62L2083.05 1868.65V1883.05L2100 1900L2116.95 1883.05V1868.65Z" fill="#B0D31E"/>
<path d="M2100 2488.57V2400H1540C1529.39 2400 1519.22 2404.21 1511.72 2411.72C1504.21 2419.22 1500 2429.39 1500 2440V2488.57" stroke="#00BAF3" stroke-width="10" stroke-miterlimit="10"/>
<path d="M2116.95 2468.65L2100 2485.61L2083.05 2468.65V2483.05L2100 2500L2116.95 2483.05V2468.65Z" fill="#00BAF3"/>
<path d="M1483.05 2468.65L1500 2485.61L1516.95 2468.65V2483.05L1500 2500L1483.05 2483.05V2468.65Z" fill="#00BAF3"/>
<path d="M1300 2700H1111.43" stroke="#007CBA" stroke-width="10" stroke-miterlimit="10"/>
<path d="M1131.35 2683.05L1114.38 2700L1131.35 2716.95H1116.95L1100 2700L1116.95 2683.05H1131.35Z" fill="#007CBA"/>
</svg>
