<svg width="501" height="501" viewBox="0 0 501 501" fill="none" xmlns="http://www.w3.org/2000/svg">
<g clip-path="url(#clip0)">
<path d="M502.68 0.92749H0.98999V502.617H502.68V0.92749Z" fill="#B2D235"/>
<path d="M148.55 146.098V268.098C148.55 317.598 228.97 366.958 245.46 376.558V125.278C211.33 177.538 148.55 146.098 148.55 146.098Z" fill="white"/>
<path d="M342.38 146.098V268.098C342.38 317.598 261.96 366.958 245.46 376.558V125.278C279.6 177.538 342.38 146.098 342.38 146.098Z" fill="white"/>
<path d="M245.46 195.518L257.14 231.458H294.93L264.36 253.678L276.04 289.618L245.46 267.398L214.89 289.618L226.57 253.678L195.99 231.458H233.79L245.46 195.518Z" fill="#B2D235"/>
</g>
<defs>
<clipPath id="clip0">
<rect width="500" height="500" fill="white" transform="translate(0.98999 0.92749)"/>
</clipPath>
</defs>
</svg>
