<svg width="600" height="450" viewBox="0 0 600 450" fill="none" xmlns="http://www.w3.org/2000/svg">
<g clip-path="url(#clip0)">
<path d="M600.61 224.49H0.610352V449.49H600.61V224.49Z" fill="#EC1C24"/>
<path d="M600.97 -0.27002H0.969727V224.73H600.97V-0.27002Z" fill="#00BCF1"/>
<path d="M530.38 138.5L372.32 167.08L390.89 175.32L396.44 188.44L393 221.26L396.4 231.12C396.4 231.12 404.29 232.36 406.93 213.91C409.57 195.46 410.51 189.91 420.79 186.55C428.62 183.97 508.33 161.63 545.79 151.14C546.865 150.839 547.808 150.188 548.47 149.289C549.132 148.39 549.473 147.296 549.441 146.181C549.409 145.065 549.005 143.992 548.292 143.133C547.58 142.274 546.601 141.678 545.51 141.44L532.27 138.53C531.648 138.4 531.006 138.39 530.38 138.5Z" fill="#007DB9"/>
<path d="M244.55 390.84C244.55 402.91 237.65 407.84 229.14 407.84C220.63 407.84 213.73 402.92 213.73 390.84C213.73 378.76 229.14 365.33 229.14 365.33C229.14 365.33 244.55 378.77 244.55 390.84Z" fill="#00BCF1"/>
<path d="M229.14 407.83C230.902 407.83 232.33 403.872 232.33 398.99C232.33 394.108 230.902 390.15 229.14 390.15C227.378 390.15 225.95 394.108 225.95 398.99C225.95 403.872 227.378 407.83 229.14 407.83Z" fill="white"/>
<path d="M285.09 390.84C285.09 402.91 278.19 407.84 269.68 407.84C261.17 407.84 254.27 402.92 254.27 390.84C254.27 378.76 269.68 365.33 269.68 365.33C269.68 365.33 285.09 378.77 285.09 390.84Z" fill="#00BCF1"/>
<path d="M269.68 407.83C271.442 407.83 272.87 403.872 272.87 398.99C272.87 394.108 271.442 390.15 269.68 390.15C267.918 390.15 266.49 394.108 266.49 398.99C266.49 403.872 267.918 407.83 269.68 407.83Z" fill="white"/>
<path d="M361.82 390.84C361.82 402.91 354.93 407.84 346.41 407.84C337.89 407.84 331 402.92 331 390.84C331 378.76 346.41 365.33 346.41 365.33C346.41 365.33 361.82 378.77 361.82 390.84Z" fill="#00BCF1"/>
<path d="M346.41 407.83C348.172 407.83 349.6 403.872 349.6 398.99C349.6 394.108 348.172 390.15 346.41 390.15C344.648 390.15 343.22 394.108 343.22 398.99C343.22 403.872 344.648 407.83 346.41 407.83Z" fill="white"/>
<path d="M323.46 390.84C323.46 402.91 316.56 407.84 308.05 407.84C299.54 407.84 292.64 402.92 292.64 390.84C292.64 378.76 308.05 365.33 308.05 365.33C308.05 365.33 323.46 378.77 323.46 390.84Z" fill="#00BCF1"/>
<path d="M308.05 407.83C309.812 407.83 311.24 403.872 311.24 398.99C311.24 394.108 309.812 390.15 308.05 390.15C306.289 390.15 304.86 394.108 304.86 398.99C304.86 403.872 306.289 407.83 308.05 407.83Z" fill="white"/>
<path d="M178.42 185.74V312.53C178.42 327.26 226.47 346.76 285.73 346.76C344.99 346.76 393 327.26 393 312.53V185.74" fill="#B2D235"/>
<path d="M178.42 185.74V312.53C178.42 327.26 226.47 346.76 285.73 346.76C344.99 346.76 393 327.26 393 312.53V185.74" stroke="#B2D235" stroke-width="9.1" stroke-miterlimit="10"/>
<path d="M285.73 212.42C344.996 212.42 393.04 200.475 393.04 185.74C393.04 171.005 344.996 159.06 285.73 159.06C226.464 159.06 178.42 171.005 178.42 185.74C178.42 200.475 226.464 212.42 285.73 212.42Z" stroke="#007DB9" stroke-width="8.97" stroke-miterlimit="10"/>
<path d="M285.73 212.42C344.996 212.42 393.04 200.475 393.04 185.74C393.04 171.005 344.996 159.06 285.73 159.06C226.464 159.06 178.42 171.005 178.42 185.74C178.42 200.475 226.464 212.42 285.73 212.42Z" fill="#007DB9"/>
<path d="M199.5 201C204.43 202.76 208.02 206.12 214.5 207.53C219.9 208.71 226.41 206.23 232.68 207.13C238.29 207.93 243.8 212.13 249.98 212.71C255.7 213.21 261.88 210.01 267.98 210.27C273.78 210.51 279.66 214.22 285.73 214.22C291.8 214.22 297.73 210.51 303.48 210.27C309.61 210.01 315.78 213.21 321.48 212.71C327.66 212.17 333.17 207.93 338.78 207.13C345.05 206.23 351.57 208.71 356.96 207.53C363.42 206.12 367.01 202.76 371.96 201C367.02 199.25 363.43 195.89 356.96 194.48C351.56 193.3 345.05 195.78 338.77 194.88C333.17 194.08 327.66 189.88 321.48 189.3C315.75 188.8 309.58 191.99 303.48 191.74C297.68 191.5 291.8 187.74 285.72 187.74C279.64 187.74 273.72 191.45 267.97 191.74C261.85 191.99 255.67 188.8 249.97 189.3C243.79 189.84 238.28 194.08 232.67 194.88C226.39 195.78 219.88 193.3 214.48 194.48C208 195.89 204.43 199.25 199.5 201Z" fill="white"/>
<path d="M210.52 173C210.52 147.64 223.68 147.64 223.68 122.28C223.68 96.9201 210.52 96.9201 210.52 71.5501C210.52 46.1801 223.68 46.1901 223.68 20.8301C223.68 -4.52988 210.52 -4.52989 210.52 -29.8999C210.52 -55.2699 223.68 -55.2599 223.68 -80.6299" stroke="#007DB9" stroke-miterlimit="10"/>
<path d="M225.69 173C225.69 147.64 238.85 147.64 238.85 122.28C238.85 96.9201 225.69 96.9201 225.69 71.5501C225.69 46.1801 238.85 46.1901 238.85 20.8301C238.85 -4.52988 225.69 -4.52989 225.69 -29.8999C225.69 -55.2699 238.85 -55.2599 238.85 -80.6299" stroke="#007DB9" stroke-miterlimit="10"/>
<path d="M240.86 173C240.86 147.64 254.02 147.64 254.02 122.28C254.02 96.9201 240.86 96.9201 240.86 71.5501C240.86 46.1801 254 46.1901 254 20.8301C254 -4.52988 240.86 -4.52989 240.86 -29.8999C240.86 -55.2699 254 -55.2599 254 -80.6299" stroke="#007DB9" stroke-miterlimit="10"/>
<path d="M256 173C256 147.64 269.16 147.64 269.16 122.28C269.16 96.9201 256 96.9201 256 71.5501C256 46.1801 269.16 46.1901 269.16 20.8301C269.16 -4.52988 256 -4.52989 256 -29.8999C256 -55.2699 269.16 -55.2599 269.16 -80.6299" stroke="#007DB9" stroke-miterlimit="10"/>
<path d="M271.2 173C271.2 147.64 284.36 147.64 284.36 122.28C284.36 96.9201 271.2 96.9201 271.2 71.5501C271.2 46.1801 284.36 46.1901 284.36 20.8301C284.36 -4.52988 271.2 -4.52989 271.2 -29.8999C271.2 -55.2699 284.36 -55.2599 284.36 -80.6299" stroke="#007DB9" stroke-miterlimit="10"/>
<path d="M286.37 173C286.37 147.64 299.53 147.64 299.53 122.28C299.53 96.9201 286.37 96.9201 286.37 71.5501C286.37 46.1801 299.53 46.1901 299.53 20.8301C299.53 -4.52988 286.37 -4.52989 286.37 -29.8999C286.37 -55.2699 299.53 -55.2599 299.53 -80.6299" stroke="#007DB9" stroke-miterlimit="10"/>
<path d="M301.54 173C301.54 147.64 314.69 147.64 314.69 122.28C314.69 96.9201 301.54 96.9201 301.54 71.5501C301.54 46.1801 314.69 46.1901 314.69 20.8301C314.69 -4.52988 301.54 -4.52989 301.54 -29.8999C301.54 -55.2699 314.69 -55.2599 314.69 -80.6299" stroke="#007DB9" stroke-miterlimit="10"/>
<path d="M316.71 173C316.71 147.64 329.86 147.64 329.86 122.28C329.86 96.9201 316.71 96.9201 316.71 71.5501C316.71 46.1801 329.86 46.1901 329.86 20.8301C329.86 -4.52988 316.71 -4.52989 316.71 -29.8999C316.71 -55.2699 329.86 -55.2599 329.86 -80.6299" stroke="#007DB9" stroke-miterlimit="10"/>
<path d="M331.87 173C331.87 147.64 345.03 147.64 345.03 122.28C345.03 96.9201 331.87 96.9201 331.87 71.5501C331.87 46.1801 345 46.1901 345 20.8301C345 -4.52988 331.87 -4.52989 331.87 -29.8999C331.87 -55.2699 345 -55.2599 345 -80.6299" stroke="#007DB9" stroke-miterlimit="10"/>
<path d="M347 173C347 147.64 360.16 147.64 360.16 122.28C360.16 96.9201 347 96.9201 347 71.5501C347 46.1801 360.2 46.1901 360.2 20.8301C360.2 -4.52988 347 -4.52989 347 -29.8999C347 -55.2699 360.2 -55.2599 360.2 -80.6299" stroke="#007DB9" stroke-miterlimit="10"/>
<path d="M188.49 61.2899L152.42 76.6299L218.2 -33.2601L254.27 -48.6001L188.49 61.2899Z" stroke="white" stroke-width="3" stroke-linecap="round" stroke-linejoin="round"/>
<path d="M245.47 33.4499C245.869 32.8572 246.094 32.1643 246.12 31.4499C246.12 31.2038 246.09 30.9586 246.03 30.7199C245.053 26.659 243.087 22.9028 240.307 19.7859C237.527 16.669 234.019 14.2882 230.096 12.8557C226.172 11.4232 221.956 10.9834 217.821 11.5757C213.687 12.1679 209.763 13.7737 206.4 16.2499C203.217 18.6008 200.631 21.6659 198.849 25.1987C197.067 28.7314 196.139 32.6332 196.14 36.5899C196.136 38.5907 196.371 40.5848 196.84 42.5299C196.979 43.099 197.273 43.6184 197.69 44.0299C198.294 44.6239 199.041 45.0511 199.86 45.2699C200.746 45.5303 201.666 45.6551 202.59 45.6399C203.671 45.6381 204.749 45.5072 205.8 45.2499C207.479 44.8664 209.062 44.1413 210.45 43.1199C211.042 42.6786 211.553 42.1372 211.96 41.5199C212.366 40.9304 212.592 40.2355 212.61 39.5199C212.617 39.274 212.59 39.0283 212.53 38.7899C212.356 38.0831 212.269 37.3578 212.27 36.6299C212.269 36.1374 212.309 35.6458 212.39 35.1599C212.685 33.4055 213.48 31.7734 214.68 30.4599C215.905 29.1118 217.508 28.164 219.28 27.7399C219.988 27.5721 220.712 27.4849 221.44 27.4799C221.932 27.4793 222.424 27.5194 222.91 27.5999C224.664 27.8949 226.296 28.69 227.61 29.8899C228.963 31.1152 229.912 32.7229 230.33 34.4999C230.471 35.0657 230.761 35.5835 231.17 35.9999C231.779 36.5868 232.525 37.013 233.34 37.2399C234.23 37.4961 235.153 37.6207 236.08 37.6099C237.158 37.6045 238.233 37.4702 239.28 37.2099C240.994 36.8209 242.603 36.0671 244 34.9999C244.572 34.5681 245.069 34.0443 245.47 33.4499Z" fill="#00BCF1"/>
<path d="M269.55 91.1898C273.133 88.9742 276.106 85.8999 278.202 82.2453C280.297 78.5907 281.448 74.4712 281.55 70.2598C281.55 70.0698 281.55 69.8698 281.55 69.6798C281.548 64.8061 280.141 60.0362 277.496 55.9424C274.852 51.8487 271.082 48.6047 266.64 46.5998C266.228 46.4145 265.781 46.3191 265.33 46.3198C264.658 46.335 264 46.5098 263.41 46.8298C262.468 47.3268 261.635 48.0068 260.96 48.8298C260.164 49.7915 259.504 50.8582 259 51.9998C258.265 53.5667 257.867 55.2698 257.83 56.9998C257.809 57.8559 257.966 58.707 258.29 59.4998C258.619 60.2924 259.227 60.9365 260 61.3098C261.134 61.8091 262.154 62.5338 263 63.4398C264.205 64.7482 265.007 66.3767 265.31 68.1298C265.398 68.6417 265.442 69.1604 265.44 69.6798C265.442 70.9735 265.166 72.2526 264.63 73.4298C263.897 75.0339 262.72 76.3947 261.239 77.3515C259.758 78.3084 258.033 78.8214 256.27 78.8298C254.975 78.8293 253.696 78.5497 252.52 78.0098C252.108 77.8257 251.661 77.7303 251.21 77.7298C250.537 77.7477 249.877 77.9187 249.28 78.2298C248.344 78.7362 247.513 79.4147 246.83 80.2298C246.039 81.1857 245.383 82.2456 244.88 83.3798C244.145 84.9467 243.747 86.6498 243.71 88.3798C243.689 89.2359 243.846 90.087 244.17 90.8798C244.493 91.6816 245.108 92.3316 245.89 92.6998L246.44 91.4698L245.89 92.6998C248.972 94.0973 252.306 94.8559 255.69 94.9298H256.27C260.956 94.9307 265.552 93.6364 269.55 91.1898Z" fill="#00BCF1"/>
<path d="M300.59 141.4L301.67 140.59C299.317 137.422 296.254 134.849 292.727 133.078C289.2 131.307 285.307 130.386 281.36 130.39C280.97 130.39 280.59 130.39 280.21 130.39C273.705 130.684 267.564 133.476 263.067 138.186C258.57 142.895 256.064 149.158 256.07 155.67C256.07 156.05 256.07 156.44 256.07 156.82C256.306 161.862 258.047 166.718 261.07 170.76C261.44 171.243 261.934 171.617 262.5 171.84C263.047 172.044 263.627 172.145 264.21 172.14C265.241 172.114 266.258 171.897 267.21 171.5C268.323 171.057 269.372 170.469 270.33 169.75C271.516 168.883 272.548 167.821 273.38 166.61C273.594 166.289 273.788 165.955 273.96 165.61L274.25 166.01V165C274.478 164.423 274.6 163.81 274.61 163.19C274.62 162.473 274.399 161.772 273.98 161.19C273.081 159.988 272.492 158.582 272.266 157.098C272.039 155.614 272.181 154.096 272.68 152.68C273.284 150.957 274.392 149.456 275.86 148.37C277.063 147.474 278.467 146.888 279.949 146.663C281.431 146.438 282.946 146.582 284.36 147.08C286.083 147.684 287.585 148.792 288.67 150.26C289.032 150.751 289.529 151.127 290.1 151.34C290.645 151.55 291.226 151.652 291.81 151.64C292.84 151.611 293.856 151.398 294.81 151.01C295.923 150.563 296.972 149.971 297.93 149.25C299.119 148.385 300.15 147.323 300.98 146.11C301.72 145.102 302.148 143.899 302.21 142.65C302.215 141.932 301.991 141.232 301.57 140.65L300.59 141.4Z" fill="#00BCF1"/>
<path d="M336.11 60.46C335.84 59.882 335.463 59.3597 335 58.92C334.518 58.4674 333.913 58.1681 333.26 58.06C332.006 57.8698 330.739 57.7729 329.47 57.77C327.365 57.7677 325.269 58.0331 323.23 58.56C318.412 59.7907 314.064 62.4145 310.729 66.1034C307.394 69.7923 305.22 74.3825 304.48 79.3C304.29 80.5545 304.193 81.8213 304.19 83.09C304.188 85.1951 304.454 87.292 304.98 89.33C306.209 94.1501 308.832 98.5008 312.521 101.838C316.21 105.174 320.802 107.349 325.72 108.09C325.87 108.101 326.021 108.101 326.17 108.09C326.929 108.078 327.664 107.826 328.27 107.37C329.194 106.659 329.929 105.732 330.41 104.67C331.005 103.446 331.407 102.137 331.6 100.79C331.707 100.085 331.76 99.373 331.76 98.66C331.792 97.2355 331.52 95.8206 330.96 94.51C330.695 93.9314 330.322 93.4087 329.86 92.97C329.381 92.5139 328.774 92.214 328.12 92.11C326.639 91.8911 325.234 91.3102 324.031 90.4189C322.827 89.5276 321.862 88.3533 321.22 87C320.641 85.7815 320.341 84.4492 320.34 83.1C320.339 82.6349 320.373 82.1702 320.44 81.71C320.66 80.2247 321.243 78.8166 322.138 77.6111C323.033 76.4055 324.212 75.4399 325.57 74.8C326.789 74.2209 328.121 73.9203 329.47 73.92C329.936 73.9189 330.4 73.9523 330.86 74.02C331.014 74.0304 331.167 74.0304 331.32 74.02C332.075 74.0031 332.806 73.7515 333.41 73.3C334.333 72.5848 335.07 71.659 335.56 70.6C336.154 69.3719 336.555 68.0599 336.75 66.71C336.857 66.005 336.91 65.293 336.91 64.58C336.945 63.165 336.672 61.7594 336.11 60.46Z" fill="#00BCF1"/>
<path d="M238.986 35.8728C242.594 35.0032 245.163 32.8228 244.724 31.0027C244.286 29.1826 241.005 28.412 237.397 29.2815C233.789 30.151 231.22 32.3315 231.659 34.1516C232.097 35.9717 235.378 36.7423 238.986 35.8728Z" stroke="white" stroke-width="3" stroke-miterlimit="10"/>
<path d="M205.489 43.947C209.097 43.0775 211.666 40.897 211.227 39.0769C210.789 37.2568 207.508 36.4862 203.9 37.3557C200.292 38.2253 197.723 40.4057 198.161 42.2258C198.6 44.046 201.881 44.8166 205.489 43.947Z" stroke="white" stroke-width="3" stroke-miterlimit="10"/>
<path d="M244.73 31.0002C244.154 27.7791 242.925 24.7097 241.12 21.9807C239.314 19.2518 236.97 16.9209 234.23 15.1313C231.49 13.3417 228.414 12.1313 225.189 11.5743C221.965 11.0174 218.661 11.1257 215.479 11.8926C212.298 12.6595 209.308 14.0689 206.691 16.034C204.075 17.9992 201.888 20.4786 200.265 23.32C198.642 26.1613 197.617 29.3046 197.253 32.5566C196.889 35.8085 197.195 39.1005 198.15 42.2302" stroke="white" stroke-width="3" stroke-miterlimit="10"/>
<path d="M211.23 39.06C210.899 37.698 210.845 36.2834 211.07 34.9C211.406 32.8886 212.316 31.0169 213.69 29.51C214.872 28.2266 216.354 27.2562 218.003 26.6856C219.652 26.1149 221.417 25.9618 223.14 26.24C225.177 26.5764 227.07 27.5048 228.584 28.9096C230.097 30.3143 231.163 32.1334 231.65 34.14" stroke="white" stroke-width="3" stroke-miterlimit="10"/>
<path d="M252.245 86.7671C253.77 83.3835 253.622 80.0169 251.916 79.2477C250.209 78.4784 247.589 80.5977 246.064 83.9813C244.539 87.365 244.686 90.7315 246.393 91.5008C248.1 92.2701 250.72 90.1507 252.245 86.7671Z" stroke="white" stroke-width="3" stroke-miterlimit="10"/>
<path d="M266.412 55.3384C267.937 51.9548 267.789 48.5882 266.083 47.819C264.376 47.0497 261.756 49.169 260.231 52.5526C258.706 55.9362 258.853 59.3028 260.56 60.0721C262.267 60.8413 264.887 58.722 266.412 55.3384Z" stroke="white" stroke-width="3" stroke-miterlimit="10"/>
<path d="M246.4 91.5001C249.319 92.8258 252.476 93.5469 255.68 93.6201C260.386 93.724 265.019 92.4418 269.002 89.9329C272.985 87.4241 276.142 83.7995 278.08 79.5101C279.406 76.5915 280.127 73.4348 280.2 70.2301C280.304 65.5241 279.022 60.8914 276.513 56.9086C274.004 52.9258 270.38 49.7687 266.09 47.8301" stroke="white" stroke-width="3" stroke-miterlimit="10"/>
<path d="M260.56 60.0898C261.859 60.6599 263.029 61.4865 264 62.5198C265.38 64.0223 266.3 65.8897 266.65 67.8998C267.006 69.9589 266.734 72.0774 265.87 73.9798C265.157 75.5551 264.065 76.9293 262.692 77.9797C261.319 79.0302 259.707 79.7242 258 79.9998C255.941 80.356 253.822 80.0842 251.92 79.2198" stroke="white" stroke-width="3" stroke-miterlimit="10"/>
<path d="M297.221 148.106C300.199 145.891 301.707 142.878 300.59 141.376C299.472 139.873 296.152 140.451 293.174 142.666C290.196 144.881 288.688 147.894 289.805 149.396C290.923 150.899 294.243 150.321 297.221 148.106Z" stroke="white" stroke-width="3" stroke-miterlimit="10"/>
<path d="M269.556 168.671C272.534 166.456 274.042 163.442 272.925 161.94C271.807 160.438 268.487 161.015 265.509 163.23C262.531 165.445 261.023 168.459 262.14 169.961C263.258 171.463 266.578 170.885 269.556 168.671Z" stroke="white" stroke-width="3" stroke-miterlimit="10"/>
<path d="M300.59 141.4C298.798 138.66 296.465 136.316 293.733 134.512C291.001 132.707 287.929 131.481 284.706 130.908C281.483 130.335 278.176 130.427 274.99 131.179C271.804 131.932 268.805 133.328 266.179 135.282C263.552 137.236 261.353 139.707 259.717 142.543C258.081 145.378 257.042 148.519 256.665 151.771C256.287 155.023 256.579 158.318 257.523 161.453C258.466 164.588 260.041 167.496 262.15 170" stroke="white" stroke-width="3" stroke-miterlimit="10"/>
<path d="M272.94 162C271.282 159.762 270.579 156.957 270.986 154.201C271.393 151.446 272.876 148.964 275.11 147.3C276.231 146.462 277.51 145.86 278.87 145.53C280.876 145.036 282.984 145.145 284.929 145.844C286.873 146.543 288.568 147.801 289.8 149.46" stroke="white" stroke-width="3" stroke-miterlimit="10"/>
<path d="M335.44 66.5438C335.994 62.8741 334.943 59.6725 333.092 59.3929C331.241 59.1132 329.29 61.8614 328.736 65.5312C328.182 69.2009 329.233 72.4025 331.084 72.6821C332.936 72.9618 334.886 70.2136 335.44 66.5438Z" stroke="white" stroke-width="3" stroke-miterlimit="10"/>
<path d="M330.298 100.636C330.853 96.9664 329.801 93.7648 327.95 93.4852C326.099 93.2055 324.149 95.9537 323.595 99.6234C323.04 103.293 324.092 106.495 325.943 106.774C327.794 107.054 329.744 104.306 330.298 100.636Z" stroke="white" stroke-width="3" stroke-miterlimit="10"/>
<path d="M333.07 59.3899C329.865 58.6996 326.554 58.6729 323.339 59.3115C320.124 59.9501 317.074 61.2405 314.376 63.1032C311.679 64.9658 309.392 67.3612 307.656 70.1416C305.921 72.922 304.773 76.0285 304.283 79.2696C303.794 82.5107 303.974 85.8176 304.812 88.9865C305.65 92.1554 307.128 95.1191 309.155 97.6948C311.182 100.271 313.716 102.404 316.599 103.963C319.482 105.522 322.654 106.474 325.92 106.76" stroke="white" stroke-width="3" stroke-miterlimit="10"/>
<path d="M327.93 93.4601C326.535 93.2433 325.198 92.7467 324 92.0001C322.265 90.9298 320.876 89.3811 320 87.5401C319.247 85.9614 318.901 84.2193 318.993 82.4727C319.086 80.726 319.614 79.0303 320.53 77.5401C321.606 75.7779 323.178 74.3727 325.05 73.501C326.921 72.6292 329.009 72.3297 331.05 72.6401" stroke="white" stroke-width="3" stroke-miterlimit="10"/>
<path d="M188.49 61.2901L168.58 49.6401" stroke="white" stroke-width="3" stroke-linecap="round" stroke-linejoin="round"/>
<path d="M393 185.74C393 200.48 345 212.43 285.69 212.43C226.38 212.43 178.38 200.43 178.38 185.74" stroke="#007DB9" stroke-width="4.48" stroke-miterlimit="10"/>
<path d="M152.42 76.6299L-41.7402 -48.6001" stroke="white" stroke-width="3" stroke-linecap="round" stroke-linejoin="round"/>
<path d="M527.39 147.47C530.803 147.47 533.57 146.431 533.57 145.15C533.57 143.869 530.803 142.83 527.39 142.83C523.977 142.83 521.21 143.869 521.21 145.15C521.21 146.431 523.977 147.47 527.39 147.47Z" fill="#00BCF1"/>
</g>
<defs>
<clipPath id="clip0">
<rect width="600" height="450" fill="white"/>
</clipPath>
</defs>
</svg>
