<svg width="640" height="400" viewBox="0 0 640 400" fill="none" xmlns="http://www.w3.org/2000/svg">
<path d="M640 0H280V400H640V0Z" fill="#00BCF1"/>
<path d="M320 0H0V400H336C338.11 306.75 287.75 140.45 320 0Z" fill="#007DB9"/>
<path d="M242 219.84C232.18 278.67 191 296.57 145.06 288.91C99.1202 281.25 66.0002 250.94 75.8202 192.1C85.6402 133.26 180.64 75.8599 180.64 75.8599C180.64 75.8599 251.84 161 242 219.84Z" fill="#B2D235"/>
<path d="M502.52 84.4899C502.85 86.9991 502.85 89.5407 502.52 92.0499C502.3 93.6699 502.04 95.2899 501.8 96.8999C501.583 98.2221 501.476 99.5601 501.48 100.9C501.472 101.986 501.638 103.066 501.97 104.1C502.361 105.324 503.141 106.387 504.192 107.127C505.242 107.867 506.506 108.244 507.79 108.2C509.228 108.253 510.666 108.077 512.05 107.68C513.68 107.22 515.29 106.68 516.89 106.17C518.567 105.567 520.315 105.184 522.09 105.03C523.641 104.887 525.199 105.214 526.561 105.968C527.924 106.723 529.028 107.87 529.73 109.26C530.19 110.125 530.556 111.037 530.82 111.98C531.15 113.1 531.46 114.22 531.82 115.35C532.374 117.244 533.341 118.993 534.65 120.47C535.25 121.15 535.88 121.81 536.5 122.47C537.12 123.13 537.5 123.47 537.92 124.08C539.088 125.434 539.914 127.05 540.328 128.79C540.743 130.53 540.733 132.344 540.3 134.08C539.763 136.307 538.861 138.429 537.63 140.36C536.344 142.387 534.914 144.319 533.35 146.14C531.99 147.77 530.6 149.38 529.23 151.01C527.99 152.443 526.88 153.982 525.91 155.61C525.49 156.35 525.154 157.135 524.91 157.95C524.704 158.595 524.639 159.277 524.72 159.95C524.78 160.432 524.97 160.888 525.269 161.27C525.569 161.652 525.966 161.946 526.42 162.12C527.104 162.412 527.836 162.578 528.58 162.61C529.47 162.67 530.36 162.68 531.24 162.74C532.12 162.8 533.02 162.86 533.89 163C535.102 163.158 536.26 163.603 537.265 164.299C538.27 164.995 539.095 165.921 539.67 167C540.241 168.084 540.735 169.207 541.15 170.36C541.761 171.934 542.486 173.461 543.32 174.93C543.948 175.988 544.496 177.091 544.96 178.23C545.391 179.338 545.583 180.525 545.523 181.712C545.463 182.9 545.151 184.061 544.61 185.12C543.911 186.519 543.023 187.814 541.97 188.97C540.651 190.43 539.241 191.806 537.75 193.09C535.32 195.28 532.87 197.45 530.47 199.67C528.677 201.295 527.005 203.05 525.47 204.92C524.305 206.307 523.299 207.82 522.47 209.43C521.991 210.354 521.654 211.346 521.47 212.37C521.395 212.796 521.355 213.227 521.35 213.66C521.335 214.475 521.53 215.279 521.915 215.997C522.3 216.715 522.863 217.322 523.55 217.76C524.28 218.27 525.09 218.69 525.85 219.15C526.61 219.61 527.41 220.06 528.14 220.57C529.261 221.337 530.101 222.451 530.53 223.74C530.854 224.753 530.943 225.827 530.79 226.88C530.626 228.072 530.289 229.235 529.79 230.33C529.33 231.33 528.79 232.33 528.34 233.33C527.98 234.07 527.62 234.82 527.34 235.58C527.114 236.137 526.924 236.709 526.77 237.29C526.284 239.042 526.5 240.914 527.37 242.51C527.65 243.01 527.94 243.51 528.24 243.99C528.54 244.47 529.01 245.19 529.38 245.8C530.456 247.558 530.861 249.647 530.52 251.68C530.36 252.68 530.15 253.68 529.9 254.68C529.323 257.009 528.988 259.392 528.9 261.79C528.864 263.725 528.564 265.646 528.01 267.5C527.633 268.652 527.165 269.772 526.61 270.85C526.07 271.85 525.54 272.91 524.96 273.92C523.028 277.324 521.398 280.891 520.09 284.58C519.49 286.23 518.83 287.87 518.09 289.48C517.376 291.139 516.415 292.68 515.24 294.05C514.648 294.74 513.976 295.357 513.24 295.89C512.059 296.783 510.671 297.362 509.206 297.576C507.741 297.789 506.246 297.629 504.86 297.11C504.016 296.792 503.194 296.418 502.4 295.99C501.79 295.69 501.22 295.33 500.65 294.99C498.65 293.73 496.55 292.55 494.43 291.43C491.826 290.049 489.311 288.506 486.9 286.81C484.953 285.477 482.99 284.143 481.01 282.81C478.393 281.073 475.969 279.062 473.78 276.81C471.58 274.51 469.38 272.22 467.19 269.91C466.241 268.949 465.403 267.886 464.69 266.74C464.207 265.949 463.846 265.089 463.62 264.19C463.286 262.802 463.394 261.344 463.93 260.02C464.229 259.337 464.562 258.669 464.93 258.02C465.39 257.19 465.93 256.39 466.36 255.58C466.727 254.934 467.007 254.241 467.19 253.52C467.403 252.739 467.424 251.917 467.25 251.127C467.075 250.336 466.712 249.599 466.19 248.98C465.443 248.037 464.51 247.258 463.45 246.69C462.5 246.142 461.522 245.644 460.52 245.2C456.48 243.433 452.506 241.54 448.6 239.52C445.97 238.16 443.26 236.96 440.6 235.75C438.142 234.69 435.777 233.425 433.53 231.97C431.124 230.406 428.907 228.57 426.92 226.5C425.77 225.318 424.842 223.94 424.18 222.43C423.497 220.856 423.325 219.107 423.69 217.43C423.97 216.287 424.489 215.217 425.213 214.289C425.937 213.362 426.849 212.599 427.89 212.05C429.346 211.245 430.929 210.694 432.57 210.42C433.57 210.24 434.5 210.13 435.47 209.97C436.823 209.786 438.16 209.499 439.47 209.11C440.26 208.859 441.008 208.492 441.69 208.02C442.629 207.419 443.317 206.497 443.626 205.426C443.935 204.355 443.844 203.209 443.37 202.2C442.854 201.094 442.057 200.143 441.06 199.44C440.025 198.704 438.894 198.111 437.7 197.68C436.94 197.38 436.17 197.1 435.38 196.84C432.158 195.784 429.036 194.446 426.05 192.84C423.64 191.55 421.22 190.29 418.82 188.99C417.389 188.232 416.047 187.316 414.82 186.26C413.316 185.003 412.199 183.346 411.6 181.48C411.377 180.754 411.213 180.012 411.11 179.26C410.99 178.26 410.96 177.31 410.87 176.34C410.76 175.21 410.66 174.07 410.5 172.94C410.275 171.518 409.861 170.132 409.27 168.82C408.68 167.39 408.05 165.97 407.47 164.53C406.918 163.198 406.581 161.787 406.47 160.35C406.4 159.426 406.481 158.497 406.71 157.6C407.186 155.826 408.315 154.298 409.87 153.32C410.38 152.98 410.94 152.68 411.49 152.38C412.04 152.08 412.55 151.83 413.08 151.55C413.43 151.36 413.78 151.17 414.08 150.95C414.8 150.549 415.379 149.935 415.737 149.192C416.095 148.449 416.215 147.613 416.08 146.8C415.934 145.61 415.596 144.452 415.08 143.37C414.293 141.697 413.473 140.03 412.62 138.37C411.37 135.92 410.05 133.5 409.01 130.95C408.245 129.148 407.727 127.251 407.47 125.31C407.281 123.823 407.369 122.315 407.73 120.86C408.354 118.451 409.898 116.383 412.03 115.1C412.86 114.56 413.75 114.1 414.61 113.59C415.19 113.24 415.79 112.91 416.37 112.59C417.442 111.944 418.362 111.073 419.065 110.038C419.767 109.002 420.237 107.825 420.44 106.59C420.689 105.141 420.77 103.668 420.68 102.2C420.59 100.44 420.43 98.6799 420.32 96.9199C420.123 94.7851 420.106 92.6376 420.27 90.4999C420.399 89.2462 420.695 88.0154 421.15 86.8399C421.999 84.6437 423.655 82.855 425.78 81.8399C426.894 81.3202 428.048 80.8888 429.23 80.5499C430.08 80.2799 430.93 80.0199 431.76 79.7099C433.879 78.9423 435.683 77.4933 436.89 75.5899C437.723 74.203 438.429 72.7438 439 71.2299C439.72 69.5599 440.4 67.8799 441.12 66.2299C441.903 64.3407 442.825 62.5123 443.88 60.7599C445.407 58.2483 447.29 55.9713 449.47 53.9999C450.514 53.0433 451.661 52.2049 452.89 51.4999C454.205 50.7258 455.659 50.2163 457.17 49.9999C458.328 49.839 459.506 49.9128 460.635 50.2169C461.764 50.5209 462.819 51.0491 463.74 51.7699C464.806 52.6095 465.723 53.6239 466.45 54.7699C467.257 56.0369 467.979 57.3565 468.61 58.7199C469.45 60.4599 470.26 62.2199 471.25 63.8899C471.773 64.8232 472.39 65.701 473.09 66.5099C473.646 67.1266 474.245 67.7046 474.88 68.2399C476.621 69.6376 478.768 70.4339 481 70.5099C482.333 70.5665 483.669 70.5464 485 70.4499C486.371 70.345 487.748 70.345 489.12 70.4499C491.553 70.5714 493.908 71.3496 495.934 72.7018C497.961 74.054 499.584 75.9298 500.63 78.1299C501.576 80.1429 502.213 82.287 502.52 84.4899Z" fill="#EC1C24"/>
<path d="M166.54 160.35L145.08 288.91" stroke="white" stroke-width="4" stroke-miterlimit="10"/>
<path d="M145.14 288.58L135.86 344.14" stroke="#B2D235" stroke-width="8" stroke-miterlimit="10"/>
<path d="M506.63 286.94L517.83 342.14" stroke="#EC1C24" stroke-width="8" stroke-miterlimit="10"/>
<path d="M472.29 117.72L508.49 296.08" stroke="white" stroke-width="4" stroke-miterlimit="10"/>
<path d="M120.2 163.1L158.58 208.02" stroke="white" stroke-width="4" stroke-miterlimit="10"/>
<path d="M208.23 196.04L157.34 226.06" stroke="white" stroke-width="4" stroke-miterlimit="10"/>
<path d="M112.3 210.44L150.68 255.36" stroke="white" stroke-width="4" stroke-miterlimit="10"/>
<path d="M434.44 141.85L482.83 169.66" stroke="white" stroke-width="4" stroke-miterlimit="10"/>
<path d="M469.22 229.56L498.34 246.1" stroke="white" stroke-width="4" stroke-miterlimit="10"/>
<path d="M488.8 199.06L505.25 177.35" stroke="white" stroke-width="4" stroke-miterlimit="10"/>
</svg>
