<svg width="500" height="500" viewBox="0 0 500 500" fill="none" xmlns="http://www.w3.org/2000/svg">
<path d="M500 0H0V500H500V0Z" fill="#B2D235"/>
<path d="M257.225 394.075C264.53 379.506 262.692 363.805 253.119 359.005C243.546 354.205 229.864 362.124 222.559 376.693C215.254 391.262 217.092 406.964 226.665 411.764C236.237 416.564 249.92 408.644 257.225 394.075Z" fill="#007DB9"/>
<path d="M404.06 209.75H362.41V325.46H404.06V209.75Z" fill="#007DB9"/>
<path d="M378.82 218.62L268.51 158.98L294.65 148.72L408.41 208.3L378.82 218.62Z" fill="white"/>
<path d="M255.41 85.39L365.94 145.16L329.13 218.62L188.11 214.19L77.8 154.55L245.78 84.52L255.41 85.39Z" fill="white"/>
<path d="M427.75 297.34L405.48 282.59V302.06L419.9 311.17L427.75 297.34Z" fill="#3D8CEA"/>
<path d="M312.47 239.78V203.28C312.47 199.93 312.42 196.38 312.3 192.76C312.24 191.1 312.17 189.42 312.07 187.76V187.67C311.98 186 311.86 184.33 311.73 182.67C311.726 182.634 311.726 182.597 311.73 182.56C311.59 180.9 311.43 179.25 311.24 177.62V177.54C311.05 175.91 310.84 174.3 310.59 172.72C310.34 171.14 310.07 169.6 309.75 168.1C309.43 166.61 309.08 165.16 308.7 163.78C308.012 161.225 307.067 158.746 305.88 156.38C305.359 155.369 304.761 154.399 304.09 153.48C303.88 153.19 303.66 152.92 303.44 152.66C300.31 148.98 296.12 147.66 290.54 149.97L268.54 159.13V247.72L260.21 251.2V94.1202C260.21 92.4081 259.787 90.7224 258.979 89.2129C258.172 87.7034 257.004 86.4166 255.579 85.4669C254.154 84.5172 252.517 83.9339 250.813 83.7687C249.109 83.6036 247.39 83.8617 245.81 84.5202L77.8101 154.52V327.08V348.4L77.9401 348.2L111.43 334.2V350.45L118.11 347.67C121.11 356.54 129.18 360.44 138.64 356.5C150.69 351.5 160.45 335.66 160.45 321.16C160.465 318.798 160.169 316.445 159.57 314.16L203.35 295.91V303.5L244.27 286.44V295.1L251.94 291.91C254.94 300.79 263.01 304.68 272.47 300.74C284.47 295.74 294.18 280.04 294.27 265.6L304.51 261.33L310.21 258.96L312.48 257.96V257.59C315.36 255.44 317.48 251.85 317.48 248.65V237.65L312.47 239.78Z" fill="white"/>
<path d="M204.76 400.95L221.74 410.13V381.46L208.72 378.13L204.76 400.95Z" fill="#007DB9"/>
<path d="M317.44 334.47L370.5 363.45L355.44 325.95L348.21 322.86L317.44 334.47Z" fill="#007DB9"/>
<path d="M275.65 342.87L313.65 363.15V334.35L306.43 331.26L275.65 342.87Z" fill="#007DB9"/>
<path d="M411.79 314.65L188.11 407.89V386.72L411.79 293.47V304.06V314.65Z" fill="#007DB9"/>
<path d="M422.78 317.66L404.06 325.46C404.06 307.22 396.23 299.96 386.56 303.99L378.82 307.21V218.62L400.82 209.46C420.34 201.32 422.82 237.93 422.82 262.92L422.78 317.66Z" fill="#00BCF1"/>
<path d="M420.51 318.61L414.81 320.98V302.74L427.75 297.34V308.34C427.75 312.35 424.51 316.94 420.51 318.61Z" fill="#00BCF1"/>
<path d="M413.7 212.14L400.8 217.52L394.16 220.29C390.87 221.66 388.16 225.44 388.16 228.73V256.39L394.47 253.77C397.94 252.32 400.76 254.77 400.76 259.2C400.76 264.14 403.89 266.84 407.76 265.2L422.76 258.96C422.57 241.74 421 220.66 413.7 212.14Z" fill="#007DB9"/>
<path d="M398.444 343.496C405.835 328.754 404.067 312.912 394.495 308.112C384.922 303.312 371.169 311.372 363.777 326.114C356.386 340.856 358.154 356.697 367.726 361.497C377.299 366.297 391.052 358.238 398.444 343.496Z" fill="#007DB9"/>
<path d="M382.77 334.34L313.65 363.15V344.91L382.77 316.09V334.34Z" fill="#007DB9"/>
<path d="M229.57 406.86L221.74 410.13V381.46L229.57 378.19V406.86Z" fill="#007DB9"/>
<path d="M77.8 348.4L188.11 408.04V214.19L77.8 154.55V348.4Z" fill="#007DB9"/>
<path d="M188.11 386.72L89.92 333.63V276.25" stroke="#00BCF1" stroke-width="5" stroke-linecap="round" stroke-linejoin="round"/>
<path d="M391.142 339.333C394.672 332.293 393.784 324.706 389.158 322.386C384.532 320.066 377.92 323.893 374.39 330.933C370.86 337.974 371.749 345.561 376.374 347.881C381 350.2 387.612 346.373 391.142 339.333Z" fill="#00BCF1"/>
<path d="M383.892 340.229C387.422 333.189 386.533 325.601 381.907 323.281C377.281 320.962 370.67 324.789 367.14 331.829C363.609 338.869 364.498 346.457 369.124 348.776C373.75 351.096 380.362 347.269 383.892 340.229Z" fill="#007DB9"/>
<path d="M217.8 408.04L235.35 416.11L238.98 408.04H217.8Z" fill="#007DB9"/>
<path d="M89.92 333.63L188.11 291.57" stroke="#00BCF1" stroke-width="5" stroke-linecap="round" stroke-linejoin="round"/>
<path d="M190.43 365.05L130.45 332.75V272.77L190.43 305.07V365.05Z" fill="#B2D235"/>
<path d="M250.41 340.06L190.43 365.05V305.07L250.41 280.08V340.06Z" fill="#B2D235"/>
<path d="M190.43 247.91L130.45 272.77L190.43 305.07L250.41 280.08L190.43 247.91Z" fill="#B2D235"/>
<path d="M89.92 176.42V221.04L188.11 274.13V229.51L89.92 176.42Z" fill="#00BCF1"/>
<path d="M97.84 203.2L188.11 251.5" stroke="white" stroke-width="5" stroke-linecap="round" stroke-linejoin="round"/>
<path d="M370.5 310.68L188.11 386.68V214.19L356.11 144.19C357.69 143.532 359.409 143.273 361.113 143.439C362.817 143.604 364.454 144.187 365.879 145.137C367.303 146.087 368.472 147.373 369.279 148.883C370.087 150.392 370.51 152.078 370.51 153.79L370.5 310.68Z" fill="#00BCF1"/>
<path d="M391.138 338.335C394.668 331.295 393.78 323.707 389.154 321.388C384.528 319.068 377.916 322.895 374.386 329.935C370.856 336.975 371.745 344.563 376.371 346.883C380.997 349.202 387.608 345.375 391.138 338.335Z" stroke="#00BCF1" stroke-width="5.06" stroke-miterlimit="10"/>
<path d="M266.285 398.607C273.591 384.038 271.752 368.336 262.179 363.536C252.607 358.737 238.924 366.656 231.619 381.225C224.314 395.794 226.152 411.496 235.725 416.296C245.298 421.096 258.98 413.176 266.285 398.607Z" fill="#007DB9"/>
<path d="M229.57 374.75V403.42L210.84 393.82" fill="#00BCF1"/>
<path d="M362.41 320.35V349.01L343.68 339.42" fill="#00BCF1"/>
<path d="M258.283 393.867C262.033 386.388 261.087 378.326 256.17 375.86C251.253 373.394 244.226 377.459 240.476 384.939C236.725 392.418 237.671 400.48 242.589 402.946C247.506 405.411 254.532 401.347 258.283 393.867Z" fill="#00BCF1"/>
<path d="M251.15 392.341C254.9 384.861 253.954 376.799 249.037 374.334C244.12 371.868 237.093 375.933 233.343 383.412C229.593 390.892 230.539 398.954 235.456 401.419C240.373 403.885 247.4 399.82 251.15 392.341Z" fill="#007DB9"/>
<path d="M257.856 394.38C261.606 386.901 260.66 378.839 255.743 376.373C250.826 373.908 243.799 377.972 240.049 385.452C236.298 392.931 237.244 400.993 242.162 403.459C247.079 405.925 254.105 401.86 257.856 394.38Z" stroke="#00BCF1" stroke-width="5.06" stroke-miterlimit="10"/>
<path d="M188.11 408.04L208.72 378.13L188.11 386.72V408.04Z" fill="#00BCF1"/>
</svg>
