<svg width="500" height="500" viewBox="0 0 500 500" fill="none" xmlns="http://www.w3.org/2000/svg">
<path d="M500 0H0V500H500V0Z" fill="#00BCF1"/>
<path d="M370 148.23H151.09C132.28 148.23 117.02 157.03 117.02 167.9C117.02 178.77 132.28 187.57 151.09 187.57H383V161.23C383 157.782 381.63 154.476 379.192 152.038C376.754 149.6 373.448 148.23 370 148.23Z" fill="#007DB9"/>
<path d="M151.09 148.23C132.28 148.23 117.02 157.03 117.02 167.9C117.02 178.77 132.28 187.57 151.09 187.57H188.33L301.85 148.23H151.09Z" fill="#007DB9"/>
<path d="M383 187.57V161.23C383 157.782 381.63 154.476 379.192 152.038C376.754 149.6 373.448 148.23 370 148.23H358.13L371.76 187.57H383Z" fill="#007DB9"/>
<path d="M341.7 179.5L325.5 141.14L318.33 124.16L269.34 144.85L158.66 191.59" fill="#007DB9"/>
<path d="M341.7 179.5L325.5 141.14L318.33 124.16L269.34 144.85L158.66 191.59" stroke="white" stroke-width="6" stroke-miterlimit="10"/>
<path d="M310.2 179.5L294 141.14L286.83 124.16L237.84 144.85L127.16 191.59" fill="#007DB9"/>
<path d="M310.2 179.5L294 141.14L286.83 124.16L237.84 144.85L127.16 191.59" stroke="white" stroke-width="6" stroke-miterlimit="10"/>
<path d="M384.59 187.57H151.09C132.28 187.57 117.02 178.76 117.02 167.9V351.9C117.02 362.76 132.28 371.57 151.09 371.57H384.59C388.038 371.57 391.344 370.2 393.782 367.762C396.22 365.324 397.59 362.018 397.59 358.57V200.57C397.59 197.122 396.22 193.815 393.782 191.378C391.344 188.94 388.038 187.57 384.59 187.57Z" fill="#EC1C24"/>
<path d="M358.13 148.23L352.09 130.81L301.85 148.23L188.32 187.57H371.76L358.13 148.23Z" fill="white"/>
</svg>
