<svg width="1200" height="591" viewBox="0 0 1200 591" fill="none" xmlns="http://www.w3.org/2000/svg">
<rect width="1200" height="591" fill="white"/>
<path d="M745.758 187.118C745.758 180.854 741.168 179.018 736.74 177.614V167.192C737.496 167.246 738.198 167.408 738.792 167.57C739.494 167.786 739.71 167.948 739.872 168.758L740.682 172.754L745.272 173.294V164.6C742.842 163.844 740.196 163.088 736.74 162.926V159.038H732.366V163.034C726.966 163.79 722.862 166.76 722.862 172.862C722.862 179.288 727.56 181.016 732.096 182.312V192.734C730.422 192.626 728.91 192.41 728.208 192.14C727.452 191.816 727.29 191.6 727.128 190.844L726.264 186.794H722.16V195.002C724.266 195.974 728.154 196.838 732.096 197V201.32H736.47V196.784C742.086 195.974 745.758 192.896 745.758 187.118ZM728.586 171.728C728.586 169.46 729.99 168.002 732.366 167.462V176.21C730.152 175.292 728.586 174.104 728.586 171.728ZM740.034 188.198C740.034 190.304 738.9 191.816 736.47 192.41V183.77C738.522 184.634 740.034 185.876 740.034 188.198ZM763.059 200.618C763.383 189.656 769.053 177.128 775.317 170.648V166.112H750.531V176.966L754.851 176.642L755.769 171.89C755.877 171.458 755.985 171.296 756.525 171.296H768.567C764.409 176.048 757.713 185.93 756.471 200.618H763.059ZM781.843 193.922C781.843 191.492 780.493 190.196 777.901 190.196C775.255 190.196 773.905 191.492 773.905 193.922C773.905 196.406 775.255 197.648 777.901 197.648C780.493 197.648 781.843 196.352 781.843 193.922ZM786.206 197.81C788.744 200.24 792.956 201.482 796.844 201.482C808.346 201.482 810.344 191.33 810.344 182.852C810.344 173.348 807.968 165.302 797.708 165.302C789.986 165.302 785.504 169.838 785.504 177.398C785.504 184.418 789.392 188.36 795.656 188.36C799.49 188.36 802.244 186.902 804.08 185.498C803.972 190.574 803.054 196.622 796.682 196.622C793.874 196.622 791.066 195.326 789.014 193.706L786.206 197.81ZM803.972 180.746C802.46 181.934 799.976 183.5 797.114 183.5C793.334 183.5 791.876 181.232 791.876 176.804C791.876 172.808 793.55 169.946 797.492 169.946C803.162 169.946 803.756 176.048 803.972 180.746ZM836.21 171.296V162.278L832.484 162.548L831.728 165.518C831.62 165.95 831.512 166.112 830.972 166.112H816.77L815.582 183.932L819.902 185.822C821.36 184.526 823.25 183.392 825.95 183.392C828.542 183.392 831.944 184.634 831.944 189.764C831.944 194.462 828.65 196.514 825.14 196.514C821.252 196.514 818.444 195.056 816.284 192.842L812.72 196.73C815.474 199.646 820.064 201.482 825.518 201.482C833.78 201.482 838.208 196.136 838.208 189.548C838.208 182.366 834.104 178.532 827.732 178.532C824.816 178.532 822.548 179.504 820.982 180.53L821.738 171.296H836.21ZM889.477 197V193.544L885.859 193.112C885.157 193.058 884.995 192.788 884.995 192.086V162.818C884.995 162.008 885.049 161.9 885.859 161.792L889.477 161.36V157.904H877.867L866.635 183.176H866.473L855.403 157.904H843.253V161.414L846.655 161.792C847.411 161.846 847.519 162.062 847.519 162.872V192.086C847.519 192.896 847.411 193.112 846.655 193.166L843.253 193.544V197H858.481V193.544L853.837 193.112C853.027 193.058 852.973 192.896 852.973 192.032V167.246H853.081L862.531 188.36H869.551L878.947 167.516H879.109V192.086C879.109 192.896 879.001 193.112 878.245 193.166L873.763 193.544V197H889.477Z" fill="#007DB9"/>
<path d="M923.871 191.87C922.467 192.356 920.793 192.788 919.173 192.788C916.149 192.788 915.285 191.546 915.285 188.198V173.51H923.547V169.082H915.717C915.285 169.082 915.285 168.92 915.285 168.542V161.522H911.343C910.641 166.274 908.967 169.136 904.755 169.676V173.51H908.643C909.075 173.51 909.075 173.726 909.075 174.05V189.818C909.075 195.164 911.451 197.648 917.121 197.648C919.983 197.648 922.899 196.784 925.113 195.758L923.871 191.87ZM940.051 197.648C949.555 197.648 953.767 191.708 953.767 182.636C953.767 174.428 950.095 168.542 940.591 168.542C931.087 168.542 926.605 174.374 926.605 183.338C926.605 191.6 930.169 197.648 940.051 197.648ZM940.213 193.058C935.569 193.058 933.085 189.926 933.085 183.014C933.085 176.102 935.839 173.24 940.429 173.24C945.019 173.24 947.341 176.102 947.341 182.96C947.341 190.034 944.803 193.058 940.213 193.058ZM998.485 197V193.544L995.839 193.166C995.029 193.058 994.975 192.95 994.975 192.086V156.23H985.687L985.147 159.686L988.225 160.712C988.765 160.874 988.927 161.252 988.927 161.792V170.972C986.875 169.46 984.175 168.542 980.935 168.542C974.671 168.542 969.595 172.808 969.595 183.554C969.595 193.652 973.699 197.648 979.909 197.648C984.013 197.648 986.713 196.136 989.089 193.76L989.413 193.814L989.899 197H998.485ZM988.765 188.954C986.875 190.952 984.283 192.572 981.637 192.572C978.019 192.572 976.021 190.034 976.021 183.392C976.021 177.614 977.857 173.51 982.501 173.51C984.877 173.51 987.199 174.806 988.765 176.102V188.954ZM1028.43 197V193.544L1025.78 193.166C1024.97 193.058 1024.92 192.95 1024.92 192.086V178.208C1024.92 170.756 1022 168.542 1014.17 168.542C1009.58 168.542 1003.26 169.406 1003.26 176.318L1009.1 176.858C1009.1 173.132 1011.09 172.916 1014.06 172.916C1018.22 172.916 1018.82 174.752 1018.82 178.154V180.908L1011.96 181.448C1005.37 181.988 1002.02 184.58 1002.02 189.98C1002.02 193.004 1002.94 197.648 1009.74 197.648C1013.96 197.648 1016.87 196.028 1019.25 193.76L1019.41 193.814L1019.95 197H1028.43ZM1018.82 189.602C1017.2 191.222 1014.5 192.842 1011.85 192.842C1009.64 192.842 1008.39 191.978 1008.39 189.386C1008.39 186.794 1009.64 185.66 1013.69 185.282L1018.82 184.85V189.602ZM1049.06 191.87C1047.66 192.356 1045.98 192.788 1044.36 192.788C1041.34 192.788 1040.48 191.546 1040.48 188.198V173.51H1048.74V169.082H1040.91C1040.48 169.082 1040.48 168.92 1040.48 168.542V161.522H1036.53C1035.83 166.274 1034.16 169.136 1029.95 169.676V173.51H1033.83C1034.27 173.51 1034.27 173.726 1034.27 174.05V189.818C1034.27 195.164 1036.64 197.648 1042.31 197.648C1045.17 197.648 1048.09 196.784 1050.3 195.758L1049.06 191.87ZM1073.77 190.79C1070.53 192.14 1068.48 192.68 1065.84 192.68C1060.6 192.68 1058.65 189.71 1058.38 184.688H1075.83C1075.93 183.662 1075.99 182.258 1075.99 181.556C1075.99 172.16 1071.34 168.542 1064.54 168.542C1057.47 168.542 1051.8 173.132 1051.8 182.906C1051.8 191.222 1055.09 197.648 1065.13 197.648C1069.08 197.648 1072.53 196.622 1075.5 195.11L1073.77 190.79ZM1058.44 180.206C1058.71 175.292 1061.35 173.24 1064.43 173.24C1067.35 173.24 1069.78 174.914 1069.78 180.206H1058.44Z" fill="black"/>
<path d="M734.688 368.618C735.012 357.656 740.682 345.128 746.946 338.648V334.112H722.16V344.966L726.48 344.642L727.398 339.89C727.506 339.458 727.614 339.296 728.154 339.296H740.196C736.038 344.048 729.342 353.93 728.1 368.618H734.688ZM765.03 350.582C768.702 349.34 771.24 346.424 771.24 342.05C771.24 336.758 768.162 333.302 760.332 333.302C754.986 333.302 748.884 334.76 748.884 342.698L754.608 343.292C754.608 338.972 756.444 337.946 760.008 337.946C763.788 337.946 765.084 339.944 765.084 342.644C765.084 346.154 762.762 348.53 758.334 348.962L755.364 349.232V353.66C756.876 353.39 757.956 353.282 759.252 353.282C763.41 353.282 765.84 355.01 765.84 358.844C765.84 363.326 762.816 364.568 759.414 364.568C755.58 364.568 753.15 363.11 750.99 360.896L747.48 364.73C750.018 367.592 754.5 369.482 759.738 369.482C767.406 369.482 772.104 365.756 772.104 359.114C772.104 354.362 769.674 351.554 765.03 350.798V350.582ZM780.148 371.372L783.226 365.27C783.712 364.298 784.198 363.11 784.198 362.084C784.198 358.844 781.336 358.412 777.664 358.304L776.476 363.38L778.474 364.082C778.744 364.19 778.852 364.352 778.744 364.676L777.178 370.4L780.148 371.372ZM805.097 365V361.544L800.507 361.166C799.697 361.112 799.643 360.95 799.643 360.086V334.112H788.141L787.709 337.73L792.677 338.702C793.217 338.864 793.433 339.08 793.433 339.836V360.086C793.433 360.896 793.325 361.112 792.569 361.166L787.439 361.49V365H805.097ZM832.742 338.27C832.742 331.25 827.234 329.846 822.644 329.846C811.142 329.846 808.604 340.538 808.604 347.882C808.604 357.494 810.818 365.648 820.916 365.648C828.368 365.648 833.39 361.544 833.39 353.768C833.39 347.342 829.718 343.454 823.238 343.454C819.674 343.454 816.92 344.75 814.814 346.1C814.922 340.808 816.326 334.436 822.428 334.436C825.56 334.436 826.91 335.408 826.91 338.972L832.742 338.27ZM814.976 350.744C816.434 349.61 819.35 348.044 821.996 348.044C825.614 348.044 827.018 349.934 827.018 354.092C827.018 358.196 825.29 360.95 821.402 360.95C815.786 360.95 815.084 354.848 814.976 350.744ZM855.525 346.802C858.063 344.588 860.331 341.672 860.331 338.108C860.331 333.194 856.821 329.846 849.747 329.846C843.591 329.846 838.569 333.032 838.569 339.134C838.569 343.184 840.675 345.29 842.997 346.802C839.973 349.286 837.273 352.148 837.273 356.792C837.273 362.516 841.485 365.648 848.991 365.648C856.119 365.648 861.573 362.408 861.573 355.766C861.573 351.284 858.873 348.746 855.525 346.802ZM847.425 349.124C851.205 350.96 855.039 352.472 855.039 356.252C855.039 359.06 853.041 361.22 849.261 361.22C845.157 361.22 843.051 359.33 843.051 356.306C843.051 353.606 844.779 351.446 847.425 349.124ZM850.935 344.642C847.479 342.968 844.779 341.564 844.779 338.324C844.779 335.786 846.561 334.274 849.585 334.274C852.447 334.274 854.607 335.192 854.607 338.216C854.607 340.592 853.095 342.698 850.935 344.642Z" fill="#007DB9"/>
<path d="M897.998 359.006C896.27 359.924 893.84 360.68 891.14 360.68C886.442 360.68 883.04 358.25 883.04 350.906C883.04 343.724 886.496 341.132 890.654 341.132C892.004 341.132 893.3 341.348 894.002 341.618C894.434 341.78 894.542 341.996 894.596 342.374L895.244 345.938L899.726 346.154V338.486C898.322 337.676 895.028 336.542 890.924 336.542C882.554 336.542 876.56 341.24 876.56 351.392C876.56 359.654 880.664 365.648 890.114 365.648C893.84 365.648 897.512 364.622 899.78 363.218L897.998 359.006ZM933.752 365V361.544L930.944 361.166C930.35 361.058 930.242 360.788 930.242 360.086V337.082H921.062L920.576 340.592L923.168 341.24C923.978 341.402 924.032 341.564 924.032 342.428V356.9C922.358 358.628 919.658 360.68 916.526 360.68C913.502 360.68 912.908 358.736 912.908 355.118V337.082H903.566L903.08 340.592L905.834 341.24C906.644 341.402 906.698 341.564 906.698 342.428V356.468C906.698 362.678 908.642 365.648 914.474 365.648C919.172 365.648 922.196 363.542 924.572 361.652L924.734 361.706L925.22 365H933.752ZM957.946 345.398V338.108C956.65 337.568 952.87 336.542 948.874 336.542C943.042 336.542 937.588 338.972 937.588 345.506C937.588 351.23 941.908 352.526 946.012 353.444C949.63 354.254 953.086 354.74 953.086 357.764C953.086 360.518 951.034 361.49 947.686 361.49C945.256 361.49 943.528 360.95 942.826 360.734C942.34 360.572 942.286 360.41 942.178 359.978L941.638 356.684L937.156 356.414V363.758C938.128 364.406 942.664 365.648 947.308 365.648C953.464 365.648 958.756 363.272 958.756 356.9C958.756 350.744 953.95 349.448 949.684 348.422C946.282 347.612 943.258 346.964 943.258 344.102C943.258 341.942 944.932 340.7 948.388 340.7C950.062 340.7 951.574 341.024 952.276 341.24C952.708 341.402 952.816 341.618 952.87 341.996L953.464 345.128L957.946 345.398ZM980.771 359.87C979.367 360.356 977.693 360.788 976.073 360.788C973.049 360.788 972.185 359.546 972.185 356.198V341.51H980.447V337.082H972.617C972.185 337.082 972.185 336.92 972.185 336.542V329.522H968.243C967.541 334.274 965.867 337.136 961.655 337.676V341.51H965.543C965.975 341.51 965.975 341.726 965.975 342.05V357.818C965.975 363.164 968.351 365.648 974.021 365.648C976.883 365.648 979.799 364.784 982.013 363.758L980.771 359.87ZM996.951 365.648C1006.46 365.648 1010.67 359.708 1010.67 350.636C1010.67 342.428 1007 336.542 997.491 336.542C987.987 336.542 983.505 342.374 983.505 351.338C983.505 359.6 987.069 365.648 996.951 365.648ZM997.113 361.058C992.469 361.058 989.985 357.926 989.985 351.014C989.985 344.102 992.739 341.24 997.329 341.24C1001.92 341.24 1004.24 344.102 1004.24 350.96C1004.24 358.034 1001.7 361.058 997.113 361.058ZM1060.25 365V361.544L1057.28 361.166C1056.47 361.058 1056.42 360.95 1056.42 360.086V345.776C1056.42 340.16 1054.47 336.542 1048.48 336.542C1044.54 336.542 1041.68 338.108 1039.08 339.782C1037.68 337.298 1035.25 336.542 1032.66 336.542C1028.99 336.542 1026.18 338.054 1023.42 340.16L1023.21 340.106L1022.78 337.082H1014.78L1014.24 340.538L1017.21 341.564C1017.75 341.726 1017.92 342.104 1017.92 342.698V360.086C1017.92 360.896 1017.81 361.058 1017.05 361.166L1014.46 361.598V365H1027.64V361.544L1024.99 361.166C1024.18 361.058 1024.13 360.95 1024.13 360.086V344.48C1025.91 343.076 1028.23 341.726 1030.82 341.726C1034.01 341.726 1034.17 344.588 1034.17 347.72V360.14C1034.17 360.788 1034.12 361.112 1033.31 361.22L1030.44 361.598V365H1043.73V361.544L1041.24 361.166C1040.43 361.058 1040.38 360.95 1040.38 360.086V346.964C1040.38 345.884 1040.33 344.858 1040.16 343.94C1041.84 342.86 1044.38 341.78 1046.81 341.78C1049.83 341.78 1050.21 344.372 1050.21 347.45V360.14C1050.21 360.788 1050.1 361.112 1049.34 361.22L1046.54 361.598V365H1060.25ZM1085.22 358.79C1081.98 360.14 1079.93 360.68 1077.28 360.68C1072.04 360.68 1070.1 357.71 1069.83 352.688H1087.27C1087.38 351.662 1087.43 350.258 1087.43 349.556C1087.43 340.16 1082.79 336.542 1075.98 336.542C1068.91 336.542 1063.24 341.132 1063.24 350.906C1063.24 359.222 1066.53 365.648 1076.58 365.648C1080.52 365.648 1083.98 364.622 1086.95 363.11L1085.22 358.79ZM1069.88 348.206C1070.15 343.292 1072.8 341.24 1075.88 341.24C1078.79 341.24 1081.22 342.914 1081.22 348.206H1069.88ZM1106.85 365V361.544L1101.77 361.112C1100.96 361.058 1100.85 360.896 1100.85 360.032V344.534C1101.93 343.508 1104.26 341.726 1106.31 341.726C1106.79 341.726 1106.9 341.834 1106.96 342.32L1107.6 345.668L1112.46 345.884V337.028C1111.49 336.758 1109.49 336.542 1108.25 336.542C1104.63 336.542 1102.1 338.756 1100.31 341.078L1100.15 341.024L1099.56 337.082H1091.51L1090.97 340.538L1093.94 341.564C1094.48 341.78 1094.64 342.104 1094.64 342.698V360.086C1094.64 360.896 1094.54 361.058 1093.78 361.166L1091.19 361.49V365H1106.85ZM1135.98 345.398V338.108C1134.68 337.568 1130.9 336.542 1126.9 336.542C1121.07 336.542 1115.62 338.972 1115.62 345.506C1115.62 351.23 1119.94 352.526 1124.04 353.444C1127.66 354.254 1131.12 354.74 1131.12 357.764C1131.12 360.518 1129.06 361.49 1125.72 361.49C1123.29 361.49 1121.56 360.95 1120.86 360.734C1120.37 360.572 1120.32 360.41 1120.21 359.978L1119.67 356.684L1115.19 356.414V363.758C1116.16 364.406 1120.69 365.648 1125.34 365.648C1131.49 365.648 1136.79 363.272 1136.79 356.9C1136.79 350.744 1131.98 349.448 1127.71 348.422C1124.31 347.612 1121.29 346.964 1121.29 344.102C1121.29 341.942 1122.96 340.7 1126.42 340.7C1128.09 340.7 1129.6 341.024 1130.31 341.24C1130.74 341.402 1130.85 341.618 1130.9 341.996L1131.49 345.128L1135.98 345.398Z" fill="black"/>
<path d="M737.766 449.582C741.438 448.34 743.976 445.424 743.976 441.05C743.976 435.758 740.898 432.302 733.068 432.302C727.722 432.302 721.62 433.76 721.62 441.698L727.344 442.292C727.344 437.972 729.18 436.946 732.744 436.946C736.524 436.946 737.82 438.944 737.82 441.644C737.82 445.154 735.498 447.53 731.07 447.962L728.1 448.232V452.66C729.612 452.39 730.692 452.282 731.988 452.282C736.146 452.282 738.576 454.01 738.576 457.844C738.576 462.326 735.552 463.568 732.15 463.568C728.316 463.568 725.886 462.11 723.726 459.896L720.216 463.73C722.754 466.592 727.236 468.482 732.474 468.482C740.142 468.482 744.84 464.756 744.84 458.114C744.84 453.362 742.41 450.554 737.766 449.798V449.582ZM752.885 470.372L755.963 464.27C756.449 463.298 756.935 462.11 756.935 461.084C756.935 457.844 754.073 457.412 750.401 457.304L749.213 462.38L751.211 463.082C751.481 463.19 751.589 463.352 751.481 463.676L749.915 469.4L752.885 470.372ZM784.596 437.27C784.596 430.25 779.088 428.846 774.498 428.846C762.996 428.846 760.458 439.538 760.458 446.882C760.458 456.494 762.672 464.648 772.77 464.648C780.222 464.648 785.244 460.544 785.244 452.768C785.244 446.342 781.572 442.454 775.092 442.454C771.528 442.454 768.774 443.75 766.668 445.1C766.776 439.808 768.18 433.436 774.282 433.436C777.414 433.436 778.764 434.408 778.764 437.972L784.596 437.27ZM766.83 449.744C768.288 448.61 771.204 447.044 773.85 447.044C777.468 447.044 778.872 448.934 778.872 453.092C778.872 457.196 777.144 459.95 773.256 459.95C767.64 459.95 766.938 453.848 766.83 449.744ZM802.842 464.648C813.48 464.648 816.612 457.304 816.612 447.962C816.612 439.106 813.912 432.302 803.436 432.302C792.852 432.302 789.45 439.43 789.45 448.718C789.45 457.952 792.15 464.648 802.842 464.648ZM803.058 459.896C797.658 459.896 795.984 455.9 795.984 448.718C795.984 440.942 797.928 437.054 803.274 437.054C808.566 437.054 810.078 440.888 810.078 448.286C810.078 455.846 808.35 459.896 803.058 459.896ZM842.327 438.296V429.278L838.601 429.548L837.845 432.518C837.737 432.95 837.629 433.112 837.089 433.112H822.887L821.699 450.932L826.019 452.822C827.477 451.526 829.367 450.392 832.067 450.392C834.659 450.392 838.061 451.634 838.061 456.764C838.061 461.462 834.767 463.514 831.257 463.514C827.369 463.514 824.561 462.056 822.401 459.842L818.837 463.73C821.591 466.646 826.181 468.482 831.635 468.482C839.897 468.482 844.325 463.136 844.325 456.548C844.325 449.366 840.221 445.532 833.849 445.532C830.933 445.532 828.665 446.504 827.099 447.53L827.855 438.296H842.327Z" fill="#007DB9"/>
<path d="M868.155 464L868.479 461.462H868.695C870.747 463.514 873.501 464.648 876.741 464.648C883.599 464.648 888.243 460.274 888.243 449.15C888.243 439.376 883.869 435.542 877.929 435.542C874.257 435.542 871.503 436.892 869.019 438.458V423.23H859.623L859.083 426.686L862.161 427.712C862.701 427.874 862.863 428.252 862.863 428.846V456.224C862.863 458.816 862.539 461.84 862.161 464H868.155ZM869.073 443.264C870.693 442.13 873.339 440.618 876.147 440.618C879.711 440.618 881.817 443.696 881.817 449.528C881.817 455.846 879.981 459.626 875.769 459.626C872.799 459.626 870.585 457.952 869.073 456.548V443.264ZM922.678 464V460.544L919.87 460.166C919.276 460.058 919.168 459.788 919.168 459.086V436.082H909.988L909.502 439.592L912.094 440.24C912.904 440.402 912.958 440.564 912.958 441.428V455.9C911.284 457.628 908.584 459.68 905.452 459.68C902.428 459.68 901.834 457.736 901.834 454.118V436.082H892.492L892.006 439.592L894.76 440.24C895.57 440.402 895.624 440.564 895.624 441.428V455.468C895.624 461.678 897.568 464.648 903.4 464.648C908.098 464.648 911.122 462.542 913.498 460.652L913.66 460.706L914.146 464H922.678ZM946.871 444.398V437.108C945.575 436.568 941.795 435.542 937.799 435.542C931.967 435.542 926.513 437.972 926.513 444.506C926.513 450.23 930.833 451.526 934.937 452.444C938.555 453.254 942.011 453.74 942.011 456.764C942.011 459.518 939.959 460.49 936.611 460.49C934.181 460.49 932.453 459.95 931.751 459.734C931.265 459.572 931.211 459.41 931.103 458.978L930.563 455.684L926.081 455.414V462.758C927.053 463.406 931.589 464.648 936.233 464.648C942.389 464.648 947.681 462.272 947.681 455.9C947.681 449.744 942.875 448.448 938.609 447.422C935.207 446.612 932.183 445.964 932.183 443.102C932.183 440.942 933.857 439.7 937.313 439.7C938.987 439.7 940.499 440.024 941.201 440.24C941.633 440.402 941.741 440.618 941.795 440.996L942.389 444.128L946.871 444.398ZM961.273 426.74C961.273 424.202 959.761 422.798 957.223 422.798C954.631 422.798 953.173 424.202 953.173 426.74C953.173 429.332 954.631 430.79 957.223 430.79C959.761 430.79 961.273 429.332 961.273 426.74ZM965.053 464V460.544L961.867 460.166C961.057 460.058 961.003 459.95 961.003 459.086V436.082H951.661L951.121 439.538L954.091 440.564C954.631 440.726 954.793 441.104 954.793 441.698V459.086C954.793 459.896 954.685 460.058 953.929 460.166L950.689 460.598V464H965.053ZM998.732 464V460.544L995.762 460.166C994.952 460.058 994.898 459.95 994.898 459.086V445.424C994.898 439.214 992.684 435.542 986.852 435.542C982.964 435.542 979.778 437.054 976.754 439.106L976.538 439.052L976.106 436.082H968.114L967.574 439.538L970.544 440.564C971.084 440.726 971.246 441.104 971.246 441.698V459.086C971.246 459.896 971.138 460.058 970.382 460.166L967.79 460.49V464H981.182V460.544L978.32 460.166C977.51 460.058 977.456 459.95 977.456 459.086V443.534C979.238 442.238 982.1 440.726 984.854 440.726C988.31 440.726 988.688 443.426 988.688 446.666V459.194C988.688 459.842 988.58 460.166 987.824 460.274L985.124 460.598V464H998.732ZM1023.68 457.79C1020.44 459.14 1018.38 459.68 1015.74 459.68C1010.5 459.68 1008.56 456.71 1008.29 451.688H1025.73C1025.84 450.662 1025.89 449.258 1025.89 448.556C1025.89 439.16 1021.25 435.542 1014.44 435.542C1007.37 435.542 1001.7 440.132 1001.7 449.906C1001.7 458.222 1004.99 464.648 1015.04 464.648C1018.98 464.648 1022.43 463.622 1025.4 462.11L1023.68 457.79ZM1008.34 447.206C1008.61 442.292 1011.26 440.24 1014.33 440.24C1017.25 440.24 1019.68 441.914 1019.68 447.206H1008.34ZM1050.44 444.398V437.108C1049.15 436.568 1045.37 435.542 1041.37 435.542C1035.54 435.542 1030.08 437.972 1030.08 444.506C1030.08 450.23 1034.4 451.526 1038.51 452.444C1042.13 453.254 1045.58 453.74 1045.58 456.764C1045.58 459.518 1043.53 460.49 1040.18 460.49C1037.75 460.49 1036.02 459.95 1035.32 459.734C1034.84 459.572 1034.78 459.41 1034.67 458.978L1034.13 455.684L1029.65 455.414V462.758C1030.62 463.406 1035.16 464.648 1039.8 464.648C1045.96 464.648 1051.25 462.272 1051.25 455.9C1051.25 449.744 1046.45 448.448 1042.18 447.422C1038.78 446.612 1035.75 445.964 1035.75 443.102C1035.75 440.942 1037.43 439.7 1040.88 439.7C1042.56 439.7 1044.07 440.024 1044.77 440.24C1045.2 440.402 1045.31 440.618 1045.37 440.996L1045.96 444.128L1050.44 444.398ZM1075.33 444.398V437.108C1074.04 436.568 1070.26 435.542 1066.26 435.542C1060.43 435.542 1054.97 437.972 1054.97 444.506C1054.97 450.23 1059.29 451.526 1063.4 452.444C1067.02 453.254 1070.47 453.74 1070.47 456.764C1070.47 459.518 1068.42 460.49 1065.07 460.49C1062.64 460.49 1060.91 459.95 1060.21 459.734C1059.73 459.572 1059.67 459.41 1059.56 458.978L1059.02 455.684L1054.54 455.414V462.758C1055.51 463.406 1060.05 464.648 1064.69 464.648C1070.85 464.648 1076.14 462.272 1076.14 455.9C1076.14 449.744 1071.34 448.448 1067.07 447.422C1063.67 446.612 1060.64 445.964 1060.64 443.102C1060.64 440.942 1062.32 439.7 1065.77 439.7C1067.45 439.7 1068.96 440.024 1069.66 440.24C1070.09 440.402 1070.2 440.618 1070.26 440.996L1070.85 444.128L1075.33 444.398ZM1101.78 457.79C1098.54 459.14 1096.48 459.68 1093.84 459.68C1088.6 459.68 1086.66 456.71 1086.39 451.688H1103.83C1103.94 450.662 1103.99 449.258 1103.99 448.556C1103.99 439.16 1099.35 435.542 1092.54 435.542C1085.47 435.542 1079.8 440.132 1079.8 449.906C1079.8 458.222 1083.09 464.648 1093.14 464.648C1097.08 464.648 1100.53 463.622 1103.5 462.11L1101.78 457.79ZM1086.44 447.206C1086.71 442.292 1089.36 440.24 1092.43 440.24C1095.35 440.24 1097.78 441.914 1097.78 447.206H1086.44ZM1128.54 444.398V437.108C1127.25 436.568 1123.47 435.542 1119.47 435.542C1113.64 435.542 1108.18 437.972 1108.18 444.506C1108.18 450.23 1112.5 451.526 1116.61 452.444C1120.23 453.254 1123.68 453.74 1123.68 456.764C1123.68 459.518 1121.63 460.49 1118.28 460.49C1115.85 460.49 1114.12 459.95 1113.42 459.734C1112.94 459.572 1112.88 459.41 1112.77 458.978L1112.23 455.684L1107.75 455.414V462.758C1108.72 463.406 1113.26 464.648 1117.9 464.648C1124.06 464.648 1129.35 462.272 1129.35 455.9C1129.35 449.744 1124.55 448.448 1120.28 447.422C1116.88 446.612 1113.85 445.964 1113.85 443.102C1113.85 440.942 1115.53 439.7 1118.98 439.7C1120.66 439.7 1122.17 440.024 1122.87 440.24C1123.3 440.402 1123.41 440.618 1123.47 440.996L1124.06 444.128L1128.54 444.398Z" fill="black"/>
<path d="M740.106 133.4L735.93 146H733.446L730.332 136.676L727.164 146H724.662L720.486 133.4H722.916L726.048 142.976L729.306 133.4H731.466L734.652 143.03L737.874 133.4H740.106ZM750.112 141.248C750.112 141.404 750.1 141.626 750.076 141.914H742.534C742.666 142.622 743.008 143.186 743.56 143.606C744.124 144.014 744.82 144.218 745.648 144.218C746.704 144.218 747.574 143.87 748.258 143.174L749.464 144.56C749.032 145.076 748.486 145.466 747.826 145.73C747.166 145.994 746.422 146.126 745.594 146.126C744.538 146.126 743.608 145.916 742.804 145.496C742 145.076 741.376 144.494 740.932 143.75C740.5 142.994 740.284 142.142 740.284 141.194C740.284 140.258 740.494 139.418 740.914 138.674C741.346 137.918 741.94 137.33 742.696 136.91C743.452 136.49 744.304 136.28 745.252 136.28C746.188 136.28 747.022 136.49 747.754 136.91C748.498 137.318 749.074 137.9 749.482 138.656C749.902 139.4 750.112 140.264 750.112 141.248ZM745.252 138.08C744.532 138.08 743.92 138.296 743.416 138.728C742.924 139.148 742.624 139.712 742.516 140.42H747.97C747.874 139.724 747.58 139.16 747.088 138.728C746.596 138.296 745.984 138.08 745.252 138.08ZM753.011 132.518C753.431 132.518 753.779 132.656 754.055 132.932C754.331 133.208 754.469 133.562 754.469 133.994C754.469 134.21 754.439 134.42 754.379 134.624C754.331 134.828 754.229 135.134 754.073 135.542L753.137 138.098H751.679L752.399 135.326C752.135 135.23 751.925 135.068 751.769 134.84C751.625 134.6 751.553 134.318 751.553 133.994C751.553 133.562 751.691 133.208 751.967 132.932C752.243 132.656 752.591 132.518 753.011 132.518ZM765.931 136.388L761.809 146H759.487L755.365 136.388H757.705L760.693 143.516L763.771 136.388H765.931ZM776.11 141.248C776.11 141.404 776.098 141.626 776.074 141.914H768.532C768.664 142.622 769.006 143.186 769.558 143.606C770.122 144.014 770.818 144.218 771.646 144.218C772.702 144.218 773.572 143.87 774.256 143.174L775.462 144.56C775.03 145.076 774.484 145.466 773.824 145.73C773.164 145.994 772.42 146.126 771.592 146.126C770.536 146.126 769.606 145.916 768.802 145.496C767.998 145.076 767.374 144.494 766.93 143.75C766.498 142.994 766.282 142.142 766.282 141.194C766.282 140.258 766.492 139.418 766.912 138.674C767.344 137.918 767.938 137.33 768.694 136.91C769.45 136.49 770.302 136.28 771.25 136.28C772.186 136.28 773.02 136.49 773.752 136.91C774.496 137.318 775.072 137.9 775.48 138.656C775.9 139.4 776.11 140.264 776.11 141.248ZM771.25 138.08C770.53 138.08 769.918 138.296 769.414 138.728C768.922 139.148 768.622 139.712 768.514 140.42H773.968C773.872 139.724 773.578 139.16 773.086 138.728C772.594 138.296 771.982 138.08 771.25 138.08ZM792.786 136.388V144.542C792.786 147.926 791.058 149.618 787.602 149.618C786.678 149.618 785.802 149.498 784.974 149.258C784.146 149.03 783.462 148.694 782.922 148.25L783.93 146.558C784.35 146.906 784.878 147.182 785.514 147.386C786.162 147.602 786.816 147.71 787.476 147.71C788.532 147.71 789.306 147.47 789.798 146.99C790.29 146.51 790.536 145.778 790.536 144.794V144.29C790.152 144.71 789.684 145.028 789.132 145.244C788.58 145.46 787.974 145.568 787.314 145.568C786.402 145.568 785.574 145.376 784.83 144.992C784.098 144.596 783.516 144.044 783.084 143.336C782.664 142.628 782.454 141.818 782.454 140.906C782.454 139.994 782.664 139.19 783.084 138.494C783.516 137.786 784.098 137.24 784.83 136.856C785.574 136.472 786.402 136.28 787.314 136.28C788.01 136.28 788.64 136.394 789.204 136.622C789.78 136.85 790.26 137.198 790.644 137.666V136.388H792.786ZM787.656 143.66C788.508 143.66 789.204 143.408 789.744 142.904C790.296 142.388 790.572 141.722 790.572 140.906C790.572 140.102 790.296 139.448 789.744 138.944C789.204 138.44 788.508 138.188 787.656 138.188C786.792 138.188 786.084 138.44 785.532 138.944C784.992 139.448 784.722 140.102 784.722 140.906C784.722 141.722 784.992 142.388 785.532 142.904C786.084 143.408 786.792 143.66 787.656 143.66ZM795.744 136.388H797.994V146H795.744V136.388ZM796.878 134.804C796.47 134.804 796.128 134.678 795.852 134.426C795.576 134.162 795.438 133.838 795.438 133.454C795.438 133.07 795.576 132.752 795.852 132.5C796.128 132.236 796.47 132.104 796.878 132.104C797.286 132.104 797.628 132.23 797.904 132.482C798.18 132.722 798.318 133.028 798.318 133.4C798.318 133.796 798.18 134.132 797.904 134.408C797.64 134.672 797.298 134.804 796.878 134.804ZM809.947 136.388L805.825 146H803.503L799.381 136.388H801.721L804.709 143.516L807.787 136.388H809.947ZM820.125 141.248C820.125 141.404 820.113 141.626 820.089 141.914H812.547C812.679 142.622 813.021 143.186 813.573 143.606C814.137 144.014 814.833 144.218 815.661 144.218C816.717 144.218 817.587 143.87 818.271 143.174L819.477 144.56C819.045 145.076 818.499 145.466 817.839 145.73C817.179 145.994 816.435 146.126 815.607 146.126C814.551 146.126 813.621 145.916 812.817 145.496C812.013 145.076 811.389 144.494 810.945 143.75C810.513 142.994 810.297 142.142 810.297 141.194C810.297 140.258 810.507 139.418 810.927 138.674C811.359 137.918 811.953 137.33 812.709 136.91C813.465 136.49 814.317 136.28 815.265 136.28C816.201 136.28 817.035 136.49 817.767 136.91C818.511 137.318 819.087 137.9 819.495 138.656C819.915 139.4 820.125 140.264 820.125 141.248ZM815.265 138.08C814.545 138.08 813.933 138.296 813.429 138.728C812.937 139.148 812.637 139.712 812.529 140.42H817.983C817.887 139.724 817.593 139.16 817.101 138.728C816.609 138.296 815.997 138.08 815.265 138.08ZM827.741 136.28C828.953 136.28 829.925 136.634 830.657 137.342C831.389 138.05 831.755 139.1 831.755 140.492V146H829.505V140.78C829.505 139.94 829.307 139.31 828.911 138.89C828.515 138.458 827.951 138.242 827.219 138.242C826.391 138.242 825.737 138.494 825.257 138.998C824.777 139.49 824.537 140.204 824.537 141.14V146H822.287V136.388H824.429V137.63C824.801 137.186 825.269 136.85 825.833 136.622C826.397 136.394 827.033 136.28 827.741 136.28Z" fill="black"/>
<path d="M735.678 498.532L732.096 508H730.89L727.902 500.242L724.914 508H723.708L720.144 498.532H721.368L724.338 506.578L727.38 498.532H728.478L731.502 506.578L734.508 498.532H735.678ZM737.602 498.532H738.88V508H737.602V498.532ZM738.25 496.462C737.986 496.462 737.764 496.372 737.584 496.192C737.404 496.012 737.314 495.796 737.314 495.544C737.314 495.304 737.404 495.094 737.584 494.914C737.764 494.734 737.986 494.644 738.25 494.644C738.514 494.644 738.736 494.734 738.916 494.914C739.096 495.082 739.186 495.286 739.186 495.526C739.186 495.79 739.096 496.012 738.916 496.192C738.736 496.372 738.514 496.462 738.25 496.462ZM747.422 507.424C747.182 507.64 746.882 507.808 746.522 507.928C746.174 508.036 745.808 508.09 745.424 508.09C744.536 508.09 743.852 507.85 743.372 507.37C742.892 506.89 742.652 506.212 742.652 505.336V499.612H740.96V498.532H742.652V496.462H743.93V498.532H746.81V499.612H743.93V505.264C743.93 505.828 744.068 506.26 744.344 506.56C744.632 506.848 745.04 506.992 745.568 506.992C745.832 506.992 746.084 506.95 746.324 506.866C746.576 506.782 746.792 506.662 746.972 506.506L747.422 507.424ZM754.573 498.46C755.761 498.46 756.703 498.808 757.399 499.504C758.107 500.188 758.461 501.19 758.461 502.51V508H757.183V502.636C757.183 501.652 756.937 500.902 756.445 500.386C755.953 499.87 755.251 499.612 754.339 499.612C753.319 499.612 752.509 499.918 751.909 500.53C751.321 501.13 751.027 501.964 751.027 503.032V508H749.749V494.644H751.027V500.188C751.375 499.636 751.855 499.21 752.467 498.91C753.079 498.61 753.781 498.46 754.573 498.46ZM771.627 507.424C771.387 507.64 771.087 507.808 770.727 507.928C770.379 508.036 770.013 508.09 769.629 508.09C768.741 508.09 768.057 507.85 767.577 507.37C767.097 506.89 766.857 506.212 766.857 505.336V499.612H765.165V498.532H766.857V496.462H768.135V498.532H771.015V499.612H768.135V505.264C768.135 505.828 768.273 506.26 768.549 506.56C768.837 506.848 769.245 506.992 769.773 506.992C770.037 506.992 770.289 506.95 770.529 506.866C770.781 506.782 770.997 506.662 771.177 506.506L771.627 507.424ZM778.778 498.46C779.966 498.46 780.908 498.808 781.604 499.504C782.312 500.188 782.666 501.19 782.666 502.51V508H781.388V502.636C781.388 501.652 781.142 500.902 780.65 500.386C780.158 499.87 779.456 499.612 778.544 499.612C777.524 499.612 776.714 499.918 776.114 500.53C775.526 501.13 775.232 501.964 775.232 503.032V508H773.954V494.644H775.232V500.188C775.58 499.636 776.06 499.21 776.672 498.91C777.284 498.61 777.986 498.46 778.778 498.46ZM794.415 503.662H786.495C786.567 504.646 786.945 505.444 787.629 506.056C788.313 506.656 789.177 506.956 790.221 506.956C790.809 506.956 791.349 506.854 791.841 506.65C792.333 506.434 792.759 506.122 793.119 505.714L793.839 506.542C793.419 507.046 792.891 507.43 792.255 507.694C791.631 507.958 790.941 508.09 790.185 508.09C789.213 508.09 788.349 507.886 787.593 507.478C786.849 507.058 786.267 506.482 785.847 505.75C785.427 505.018 785.217 504.19 785.217 503.266C785.217 502.342 785.415 501.514 785.811 500.782C786.219 500.05 786.771 499.48 787.467 499.072C788.175 498.664 788.967 498.46 789.843 498.46C790.719 498.46 791.505 498.664 792.201 499.072C792.897 499.48 793.443 500.05 793.839 500.782C794.235 501.502 794.433 502.33 794.433 503.266L794.415 503.662ZM789.843 499.558C788.931 499.558 788.163 499.852 787.539 500.44C786.927 501.016 786.579 501.772 786.495 502.708H793.209C793.125 501.772 792.771 501.016 792.147 500.44C791.535 499.852 790.767 499.558 789.843 499.558ZM797.034 498.532H798.312V508H797.034V498.532ZM797.682 496.462C797.418 496.462 797.196 496.372 797.016 496.192C796.836 496.012 796.746 495.796 796.746 495.544C796.746 495.304 796.836 495.094 797.016 494.914C797.196 494.734 797.418 494.644 797.682 494.644C797.946 494.644 798.168 494.734 798.348 494.914C798.528 495.082 798.618 495.286 798.618 495.526C798.618 495.79 798.528 496.012 798.348 496.192C798.168 496.372 797.946 496.462 797.682 496.462ZM803.092 500.386C803.392 499.75 803.836 499.27 804.424 498.946C805.024 498.622 805.762 498.46 806.638 498.46V499.702L806.332 499.684C805.336 499.684 804.556 499.99 803.992 500.602C803.428 501.214 803.146 502.072 803.146 503.176V508H801.868V498.532H803.092V500.386ZM822.569 498.532V506.848C822.569 508.456 822.173 509.644 821.381 510.412C820.601 511.192 819.419 511.582 817.835 511.582C816.959 511.582 816.125 511.45 815.333 511.186C814.553 510.934 813.917 510.58 813.425 510.124L814.073 509.152C814.529 509.56 815.081 509.878 815.729 510.106C816.389 510.334 817.079 510.448 817.799 510.448C818.999 510.448 819.881 510.166 820.445 509.602C821.009 509.05 821.291 508.186 821.291 507.01V505.804C820.895 506.404 820.373 506.86 819.725 507.172C819.089 507.484 818.381 507.64 817.601 507.64C816.713 507.64 815.903 507.448 815.171 507.064C814.451 506.668 813.881 506.122 813.461 505.426C813.053 504.718 812.849 503.92 812.849 503.032C812.849 502.144 813.053 501.352 813.461 500.656C813.881 499.96 814.451 499.42 815.171 499.036C815.891 498.652 816.701 498.46 817.601 498.46C818.405 498.46 819.131 498.622 819.779 498.946C820.427 499.27 820.949 499.738 821.345 500.35V498.532H822.569ZM817.727 506.506C818.411 506.506 819.029 506.362 819.581 506.074C820.133 505.774 820.559 505.36 820.859 504.832C821.171 504.304 821.327 503.704 821.327 503.032C821.327 502.36 821.171 501.766 820.859 501.25C820.559 500.722 820.133 500.314 819.581 500.026C819.041 499.726 818.423 499.576 817.727 499.576C817.043 499.576 816.425 499.72 815.873 500.008C815.333 500.296 814.907 500.704 814.595 501.232C814.295 501.76 814.145 502.36 814.145 503.032C814.145 503.704 814.295 504.304 814.595 504.832C814.907 505.36 815.333 505.774 815.873 506.074C816.425 506.362 817.043 506.506 817.727 506.506ZM829.455 498.46C830.691 498.46 831.639 498.772 832.299 499.396C832.959 500.008 833.289 500.92 833.289 502.132V508H832.065V506.524C831.777 507.016 831.351 507.4 830.787 507.676C830.235 507.952 829.575 508.09 828.807 508.09C827.751 508.09 826.911 507.838 826.287 507.334C825.663 506.83 825.351 506.164 825.351 505.336C825.351 504.532 825.639 503.884 826.215 503.392C826.803 502.9 827.733 502.654 829.005 502.654H832.011V502.078C832.011 501.262 831.783 500.644 831.327 500.224C830.871 499.792 830.205 499.576 829.329 499.576C828.729 499.576 828.153 499.678 827.601 499.882C827.049 500.074 826.575 500.344 826.179 500.692L825.603 499.738C826.083 499.33 826.659 499.018 827.331 498.802C828.003 498.574 828.711 498.46 829.455 498.46ZM829.005 507.082C829.725 507.082 830.343 506.92 830.859 506.596C831.375 506.26 831.759 505.78 832.011 505.156V503.608H829.041C827.421 503.608 826.611 504.172 826.611 505.3C826.611 505.852 826.821 506.29 827.241 506.614C827.661 506.926 828.249 507.082 829.005 507.082ZM839.299 508.09C838.531 508.09 837.793 507.982 837.085 507.766C836.389 507.538 835.843 507.256 835.447 506.92L836.023 505.912C836.419 506.224 836.917 506.482 837.517 506.686C838.117 506.878 838.741 506.974 839.389 506.974C840.253 506.974 840.889 506.842 841.297 506.578C841.717 506.302 841.927 505.918 841.927 505.426C841.927 505.078 841.813 504.808 841.585 504.616C841.357 504.412 841.069 504.262 840.721 504.166C840.373 504.058 839.911 503.956 839.335 503.86C838.567 503.716 837.949 503.572 837.481 503.428C837.013 503.272 836.611 503.014 836.275 502.654C835.951 502.294 835.789 501.796 835.789 501.16C835.789 500.368 836.119 499.72 836.779 499.216C837.439 498.712 838.357 498.46 839.533 498.46C840.145 498.46 840.757 498.544 841.369 498.712C841.981 498.868 842.485 499.078 842.881 499.342L842.323 500.368C841.543 499.828 840.613 499.558 839.533 499.558C838.717 499.558 838.099 499.702 837.679 499.99C837.271 500.278 837.067 500.656 837.067 501.124C837.067 501.484 837.181 501.772 837.409 501.988C837.649 502.204 837.943 502.366 838.291 502.474C838.639 502.57 839.119 502.672 839.731 502.78C840.487 502.924 841.093 503.068 841.549 503.212C842.005 503.356 842.395 503.602 842.719 503.95C843.043 504.298 843.205 504.778 843.205 505.39C843.205 506.218 842.857 506.878 842.161 507.37C841.477 507.85 840.523 508.09 839.299 508.09ZM855.156 498.46C856.044 498.46 856.848 498.664 857.568 499.072C858.288 499.468 858.852 500.032 859.26 500.764C859.668 501.496 859.872 502.33 859.872 503.266C859.872 504.202 859.668 505.036 859.26 505.768C858.852 506.5 858.288 507.07 857.568 507.478C856.848 507.886 856.044 508.09 855.156 508.09C854.364 508.09 853.65 507.922 853.014 507.586C852.39 507.25 851.886 506.764 851.502 506.128V508H850.278V494.644H851.556V500.332C851.952 499.72 852.456 499.258 853.068 498.946C853.692 498.622 854.388 498.46 855.156 498.46ZM855.066 506.956C855.726 506.956 856.326 506.806 856.866 506.506C857.406 506.194 857.826 505.756 858.126 505.192C858.438 504.628 858.594 503.986 858.594 503.266C858.594 502.546 858.438 501.904 858.126 501.34C857.826 500.776 857.406 500.344 856.866 500.044C856.326 499.732 855.726 499.576 855.066 499.576C854.394 499.576 853.788 499.732 853.248 500.044C852.72 500.344 852.3 500.776 851.988 501.34C851.688 501.904 851.538 502.546 851.538 503.266C851.538 503.986 851.688 504.628 851.988 505.192C852.3 505.756 852.72 506.194 853.248 506.506C853.788 506.806 854.394 506.956 855.066 506.956ZM862.477 498.532H863.755V508H862.477V498.532ZM863.125 496.462C862.861 496.462 862.639 496.372 862.459 496.192C862.279 496.012 862.189 495.796 862.189 495.544C862.189 495.304 862.279 495.094 862.459 494.914C862.639 494.734 862.861 494.644 863.125 494.644C863.389 494.644 863.611 494.734 863.791 494.914C863.971 495.082 864.061 495.286 864.061 495.526C864.061 495.79 863.971 496.012 863.791 496.192C863.611 496.372 863.389 496.462 863.125 496.462ZM867.311 494.644H868.589V508H867.311V494.644ZM872.145 494.644H873.423V508H872.145V494.644ZM879.517 508.09C878.749 508.09 878.011 507.982 877.303 507.766C876.607 507.538 876.061 507.256 875.665 506.92L876.241 505.912C876.637 506.224 877.135 506.482 877.735 506.686C878.335 506.878 878.959 506.974 879.607 506.974C880.471 506.974 881.107 506.842 881.515 506.578C881.935 506.302 882.145 505.918 882.145 505.426C882.145 505.078 882.031 504.808 881.803 504.616C881.575 504.412 881.287 504.262 880.939 504.166C880.591 504.058 880.129 503.956 879.553 503.86C878.785 503.716 878.167 503.572 877.699 503.428C877.231 503.272 876.829 503.014 876.493 502.654C876.169 502.294 876.007 501.796 876.007 501.16C876.007 500.368 876.337 499.72 876.997 499.216C877.657 498.712 878.575 498.46 879.751 498.46C880.363 498.46 880.975 498.544 881.587 498.712C882.199 498.868 882.703 499.078 883.099 499.342L882.541 500.368C881.761 499.828 880.831 499.558 879.751 499.558C878.935 499.558 878.317 499.702 877.897 499.99C877.489 500.278 877.285 500.656 877.285 501.124C877.285 501.484 877.399 501.772 877.627 501.988C877.867 502.204 878.161 502.366 878.509 502.474C878.857 502.57 879.337 502.672 879.949 502.78C880.705 502.924 881.311 503.068 881.767 503.212C882.223 503.356 882.613 503.602 882.937 503.95C883.261 504.298 883.423 504.778 883.423 505.39C883.423 506.218 883.075 506.878 882.379 507.37C881.695 507.85 880.741 508.09 879.517 508.09Z" fill="black"/>
<path d="M725.094 395.46C726.33 395.46 727.278 395.772 727.938 396.396C728.598 397.008 728.928 397.92 728.928 399.132V405H727.704V403.524C727.416 404.016 726.99 404.4 726.426 404.676C725.874 404.952 725.214 405.09 724.446 405.09C723.39 405.09 722.55 404.838 721.926 404.334C721.302 403.83 720.99 403.164 720.99 402.336C720.99 401.532 721.278 400.884 721.854 400.392C722.442 399.9 723.372 399.654 724.644 399.654H727.65V399.078C727.65 398.262 727.422 397.644 726.966 397.224C726.51 396.792 725.844 396.576 724.968 396.576C724.368 396.576 723.792 396.678 723.24 396.882C722.688 397.074 722.214 397.344 721.818 397.692L721.242 396.738C721.722 396.33 722.298 396.018 722.97 395.802C723.642 395.574 724.35 395.46 725.094 395.46ZM724.644 404.082C725.364 404.082 725.982 403.92 726.498 403.596C727.014 403.26 727.398 402.78 727.65 402.156V400.608H724.68C723.06 400.608 722.25 401.172 722.25 402.3C722.25 402.852 722.46 403.29 722.88 403.614C723.3 403.926 723.888 404.082 724.644 404.082ZM737.223 395.46C738.411 395.46 739.353 395.808 740.049 396.504C740.757 397.188 741.111 398.19 741.111 399.51V405H739.833V399.636C739.833 398.652 739.587 397.902 739.095 397.386C738.603 396.87 737.901 396.612 736.989 396.612C735.969 396.612 735.159 396.918 734.559 397.53C733.971 398.13 733.677 398.964 733.677 400.032V405H732.399V395.532H733.623V397.278C733.971 396.702 734.451 396.258 735.063 395.946C735.687 395.622 736.407 395.46 737.223 395.46ZM753.256 391.644V405H752.032V403.128C751.648 403.764 751.138 404.25 750.502 404.586C749.878 404.922 749.17 405.09 748.378 405.09C747.49 405.09 746.686 404.886 745.966 404.478C745.246 404.07 744.682 403.5 744.274 402.768C743.866 402.036 743.662 401.202 743.662 400.266C743.662 399.33 743.866 398.496 744.274 397.764C744.682 397.032 745.246 396.468 745.966 396.072C746.686 395.664 747.49 395.46 748.378 395.46C749.146 395.46 749.836 395.622 750.448 395.946C751.072 396.258 751.582 396.72 751.978 397.332V391.644H753.256ZM748.486 403.956C749.146 403.956 749.74 403.806 750.268 403.506C750.808 403.194 751.228 402.756 751.528 402.192C751.84 401.628 751.996 400.986 751.996 400.266C751.996 399.546 751.84 398.904 751.528 398.34C751.228 397.776 750.808 397.344 750.268 397.044C749.74 396.732 749.146 396.576 748.486 396.576C747.814 396.576 747.208 396.732 746.668 397.044C746.14 397.344 745.72 397.776 745.408 398.34C745.108 398.904 744.958 399.546 744.958 400.266C744.958 400.986 745.108 401.628 745.408 402.192C745.72 402.756 746.14 403.194 746.668 403.506C747.208 403.806 747.814 403.956 748.486 403.956Z" fill="black"/>
<path d="M740.106 297.4L735.93 310H733.446L730.332 300.676L727.164 310H724.662L720.486 297.4H722.916L726.048 306.976L729.306 297.4H731.466L734.652 307.03L737.874 297.4H740.106ZM750.112 305.248C750.112 305.404 750.1 305.626 750.076 305.914H742.534C742.666 306.622 743.008 307.186 743.56 307.606C744.124 308.014 744.82 308.218 745.648 308.218C746.704 308.218 747.574 307.87 748.258 307.174L749.464 308.56C749.032 309.076 748.486 309.466 747.826 309.73C747.166 309.994 746.422 310.126 745.594 310.126C744.538 310.126 743.608 309.916 742.804 309.496C742 309.076 741.376 308.494 740.932 307.75C740.5 306.994 740.284 306.142 740.284 305.194C740.284 304.258 740.494 303.418 740.914 302.674C741.346 301.918 741.94 301.33 742.696 300.91C743.452 300.49 744.304 300.28 745.252 300.28C746.188 300.28 747.022 300.49 747.754 300.91C748.498 301.318 749.074 301.9 749.482 302.656C749.902 303.4 750.112 304.264 750.112 305.248ZM745.252 302.08C744.532 302.08 743.92 302.296 743.416 302.728C742.924 303.148 742.624 303.712 742.516 304.42H747.97C747.874 303.724 747.58 303.16 747.088 302.728C746.596 302.296 745.984 302.08 745.252 302.08ZM753.011 296.518C753.431 296.518 753.779 296.656 754.055 296.932C754.331 297.208 754.469 297.562 754.469 297.994C754.469 298.21 754.439 298.42 754.379 298.624C754.331 298.828 754.229 299.134 754.073 299.542L753.137 302.098H751.679L752.399 299.326C752.135 299.23 751.925 299.068 751.769 298.84C751.625 298.6 751.553 298.318 751.553 297.994C751.553 297.562 751.691 297.208 751.967 296.932C752.243 296.656 752.591 296.518 753.011 296.518ZM765.931 300.388L761.809 310H759.487L755.365 300.388H757.705L760.693 307.516L763.771 300.388H765.931ZM776.11 305.248C776.11 305.404 776.098 305.626 776.074 305.914H768.532C768.664 306.622 769.006 307.186 769.558 307.606C770.122 308.014 770.818 308.218 771.646 308.218C772.702 308.218 773.572 307.87 774.256 307.174L775.462 308.56C775.03 309.076 774.484 309.466 773.824 309.73C773.164 309.994 772.42 310.126 771.592 310.126C770.536 310.126 769.606 309.916 768.802 309.496C767.998 309.076 767.374 308.494 766.93 307.75C766.498 306.994 766.282 306.142 766.282 305.194C766.282 304.258 766.492 303.418 766.912 302.674C767.344 301.918 767.938 301.33 768.694 300.91C769.45 300.49 770.302 300.28 771.25 300.28C772.186 300.28 773.02 300.49 773.752 300.91C774.496 301.318 775.072 301.9 775.48 302.656C775.9 303.4 776.11 304.264 776.11 305.248ZM771.25 302.08C770.53 302.08 769.918 302.296 769.414 302.728C768.922 303.148 768.622 303.712 768.514 304.42H773.968C773.872 303.724 773.578 303.16 773.086 302.728C772.594 302.296 771.982 302.08 771.25 302.08ZM786.918 300.28C788.334 300.28 789.414 300.622 790.158 301.306C790.914 301.978 791.292 302.998 791.292 304.366V310H789.168V308.83C788.892 309.25 788.496 309.574 787.98 309.802C787.476 310.018 786.864 310.126 786.144 310.126C785.424 310.126 784.794 310.006 784.254 309.766C783.714 309.514 783.294 309.172 782.994 308.74C782.706 308.296 782.562 307.798 782.562 307.246C782.562 306.382 782.88 305.692 783.516 305.176C784.164 304.648 785.178 304.384 786.558 304.384H789.042V304.24C789.042 303.568 788.838 303.052 788.43 302.692C788.034 302.332 787.44 302.152 786.648 302.152C786.108 302.152 785.574 302.236 785.046 302.404C784.53 302.572 784.092 302.806 783.732 303.106L782.85 301.468C783.354 301.084 783.96 300.79 784.668 300.586C785.376 300.382 786.126 300.28 786.918 300.28ZM786.612 308.488C787.176 308.488 787.674 308.362 788.106 308.11C788.55 307.846 788.862 307.474 789.042 306.994V305.878H786.72C785.424 305.878 784.776 306.304 784.776 307.156C784.776 307.564 784.938 307.888 785.262 308.128C785.586 308.368 786.036 308.488 786.612 308.488ZM797.149 310.126C796.369 310.126 795.607 310.024 794.863 309.82C794.119 309.616 793.525 309.358 793.081 309.046L793.945 307.336C794.377 307.624 794.893 307.858 795.493 308.038C796.105 308.206 796.705 308.29 797.293 308.29C798.637 308.29 799.309 307.936 799.309 307.228C799.309 306.892 799.135 306.658 798.787 306.526C798.451 306.394 797.905 306.268 797.149 306.148C796.357 306.028 795.709 305.89 795.205 305.734C794.713 305.578 794.281 305.308 793.909 304.924C793.549 304.528 793.369 303.982 793.369 303.286C793.369 302.374 793.747 301.648 794.503 301.108C795.271 300.556 796.303 300.28 797.599 300.28C798.259 300.28 798.919 300.358 799.579 300.514C800.239 300.658 800.779 300.856 801.199 301.108L800.335 302.818C799.519 302.338 798.601 302.098 797.581 302.098C796.921 302.098 796.417 302.2 796.069 302.404C795.733 302.596 795.565 302.854 795.565 303.178C795.565 303.538 795.745 303.796 796.105 303.952C796.477 304.096 797.047 304.234 797.815 304.366C798.583 304.486 799.213 304.624 799.705 304.78C800.197 304.936 800.617 305.2 800.965 305.572C801.325 305.944 801.505 306.472 801.505 307.156C801.505 308.056 801.115 308.776 800.335 309.316C799.555 309.856 798.493 310.126 797.149 310.126ZM806.413 310.126C805.633 310.126 804.871 310.024 804.127 309.82C803.383 309.616 802.789 309.358 802.345 309.046L803.209 307.336C803.641 307.624 804.157 307.858 804.757 308.038C805.369 308.206 805.969 308.29 806.557 308.29C807.901 308.29 808.573 307.936 808.573 307.228C808.573 306.892 808.399 306.658 808.051 306.526C807.715 306.394 807.169 306.268 806.413 306.148C805.621 306.028 804.973 305.89 804.469 305.734C803.977 305.578 803.545 305.308 803.173 304.924C802.813 304.528 802.633 303.982 802.633 303.286C802.633 302.374 803.011 301.648 803.767 301.108C804.535 300.556 805.567 300.28 806.863 300.28C807.523 300.28 808.183 300.358 808.843 300.514C809.503 300.658 810.043 300.856 810.463 301.108L809.599 302.818C808.783 302.338 807.865 302.098 806.845 302.098C806.185 302.098 805.681 302.2 805.333 302.404C804.997 302.596 804.829 302.854 804.829 303.178C804.829 303.538 805.009 303.796 805.369 303.952C805.741 304.096 806.311 304.234 807.079 304.366C807.847 304.486 808.477 304.624 808.969 304.78C809.461 304.936 809.881 305.2 810.229 305.572C810.589 305.944 810.769 306.472 810.769 307.156C810.769 308.056 810.379 308.776 809.599 309.316C808.819 309.856 807.757 310.126 806.413 310.126ZM812.706 300.388H814.956V310H812.706V300.388ZM813.84 298.804C813.432 298.804 813.09 298.678 812.814 298.426C812.538 298.162 812.4 297.838 812.4 297.454C812.4 297.07 812.538 296.752 812.814 296.5C813.09 296.236 813.432 296.104 813.84 296.104C814.248 296.104 814.59 296.23 814.866 296.482C815.142 296.722 815.28 297.028 815.28 297.4C815.28 297.796 815.142 298.132 814.866 298.408C814.602 298.672 814.26 298.804 813.84 298.804ZM820.88 310.126C820.1 310.126 819.338 310.024 818.594 309.82C817.85 309.616 817.256 309.358 816.812 309.046L817.676 307.336C818.108 307.624 818.624 307.858 819.224 308.038C819.836 308.206 820.436 308.29 821.024 308.29C822.368 308.29 823.04 307.936 823.04 307.228C823.04 306.892 822.866 306.658 822.518 306.526C822.182 306.394 821.636 306.268 820.88 306.148C820.088 306.028 819.44 305.89 818.936 305.734C818.444 305.578 818.012 305.308 817.64 304.924C817.28 304.528 817.1 303.982 817.1 303.286C817.1 302.374 817.478 301.648 818.234 301.108C819.002 300.556 820.034 300.28 821.33 300.28C821.99 300.28 822.65 300.358 823.31 300.514C823.97 300.658 824.51 300.856 824.93 301.108L824.066 302.818C823.25 302.338 822.332 302.098 821.312 302.098C820.652 302.098 820.148 302.2 819.8 302.404C819.464 302.596 819.296 302.854 819.296 303.178C819.296 303.538 819.476 303.796 819.836 303.952C820.208 304.096 820.778 304.234 821.546 304.366C822.314 304.486 822.944 304.624 823.436 304.78C823.928 304.936 824.348 305.2 824.696 305.572C825.056 305.944 825.236 306.472 825.236 307.156C825.236 308.056 824.846 308.776 824.066 309.316C823.286 309.856 822.224 310.126 820.88 310.126ZM832.951 309.478C832.687 309.694 832.363 309.856 831.979 309.964C831.607 310.072 831.211 310.126 830.791 310.126C829.735 310.126 828.919 309.85 828.343 309.298C827.767 308.746 827.479 307.942 827.479 306.886V302.26H825.895V300.46H827.479V298.264H829.729V300.46H832.303V302.26H829.729V306.832C829.729 307.3 829.843 307.66 830.071 307.912C830.299 308.152 830.629 308.272 831.061 308.272C831.565 308.272 831.985 308.14 832.321 307.876L832.951 309.478ZM843.522 305.248C843.522 305.404 843.51 305.626 843.486 305.914H835.944C836.076 306.622 836.418 307.186 836.97 307.606C837.534 308.014 838.23 308.218 839.058 308.218C840.114 308.218 840.984 307.87 841.668 307.174L842.874 308.56C842.442 309.076 841.896 309.466 841.236 309.73C840.576 309.994 839.832 310.126 839.004 310.126C837.948 310.126 837.018 309.916 836.214 309.496C835.41 309.076 834.786 308.494 834.342 307.75C833.91 306.994 833.694 306.142 833.694 305.194C833.694 304.258 833.904 303.418 834.324 302.674C834.756 301.918 835.35 301.33 836.106 300.91C836.862 300.49 837.714 300.28 838.662 300.28C839.598 300.28 840.432 300.49 841.164 300.91C841.908 301.318 842.484 301.9 842.892 302.656C843.312 303.4 843.522 304.264 843.522 305.248ZM838.662 302.08C837.942 302.08 837.33 302.296 836.826 302.728C836.334 303.148 836.034 303.712 835.926 304.42H841.38C841.284 303.724 840.99 303.16 840.498 302.728C840.006 302.296 839.394 302.08 838.662 302.08ZM855.097 296.644V310H852.937V308.758C852.565 309.214 852.103 309.556 851.551 309.784C851.011 310.012 850.411 310.126 849.751 310.126C848.827 310.126 847.993 309.922 847.249 309.514C846.517 309.106 845.941 308.53 845.521 307.786C845.101 307.03 844.891 306.166 844.891 305.194C844.891 304.222 845.101 303.364 845.521 302.62C845.941 301.876 846.517 301.3 847.249 300.892C847.993 300.484 848.827 300.28 849.751 300.28C850.387 300.28 850.969 300.388 851.497 300.604C852.025 300.82 852.475 301.144 852.847 301.576V296.644H855.097ZM850.021 308.2C850.561 308.2 851.047 308.08 851.479 307.84C851.911 307.588 852.253 307.234 852.505 306.778C852.757 306.322 852.883 305.794 852.883 305.194C852.883 304.594 852.757 304.066 852.505 303.61C852.253 303.154 851.911 302.806 851.479 302.566C851.047 302.314 850.561 302.188 850.021 302.188C849.481 302.188 848.995 302.314 848.563 302.566C848.131 302.806 847.789 303.154 847.537 303.61C847.285 304.066 847.159 304.594 847.159 305.194C847.159 305.794 847.285 306.322 847.537 306.778C847.789 307.234 848.131 307.588 848.563 307.84C848.995 308.08 849.481 308.2 850.021 308.2Z" fill="black"/>
<line x1="103" y1="508.5" x2="643" y2="508.5" stroke="black"/>
<line x1="103" y1="416.5" x2="643" y2="416.5" stroke="#959595"/>
<line x1="103" y1="324.5" x2="643" y2="324.5" stroke="#959595"/>
<line x1="103" y1="232.5" x2="643" y2="232.5" stroke="#959595"/>
<line x1="103" y1="140.5" x2="643" y2="140.5" stroke="#959595"/>
<path d="M77.2318 511.67C77.2318 512.594 76.8778 513.38 76.1698 514.028C75.4618 514.664 74.4238 515.018 73.0558 515.09V517.16H72.1558V515.108C71.2798 515.06 70.4518 514.892 69.6718 514.604C68.9038 514.304 68.2978 513.926 67.8538 513.47L68.3758 512.444C68.7958 512.852 69.3418 513.194 70.0138 513.47C70.6978 513.746 71.4118 513.908 72.1558 513.956V509.222C71.3278 509.018 70.6378 508.802 70.0858 508.574C69.5338 508.334 69.0718 507.992 68.6998 507.548C68.3398 507.092 68.1598 506.492 68.1598 505.748C68.1598 504.824 68.4958 504.05 69.1678 503.426C69.8398 502.79 70.8358 502.418 72.1558 502.31V500.24H73.0558V502.292C73.7398 502.316 74.3998 502.43 75.0358 502.634C75.6838 502.826 76.2418 503.084 76.7098 503.408L76.2598 504.47C75.7678 504.158 75.2458 503.912 74.6938 503.732C74.1418 503.552 73.5958 503.45 73.0558 503.426V508.196C73.9438 508.412 74.6698 508.634 75.2338 508.862C75.7978 509.078 76.2718 509.414 76.6558 509.87C77.0398 510.326 77.2318 510.926 77.2318 511.67ZM69.4738 505.712C69.4738 506.336 69.7018 506.81 70.1578 507.134C70.6258 507.458 71.2918 507.734 72.1558 507.962V503.462C71.2678 503.534 70.5958 503.78 70.1398 504.2C69.6958 504.608 69.4738 505.112 69.4738 505.712ZM73.0558 513.956C74.0038 513.884 74.7178 513.65 75.1978 513.254C75.6778 512.858 75.9178 512.354 75.9178 511.742C75.9178 511.094 75.6718 510.608 75.1798 510.284C74.6878 509.96 73.9798 509.684 73.0558 509.456V513.956ZM84.04 515.108C83.068 515.108 82.198 514.85 81.43 514.334C80.674 513.818 80.08 513.08 79.648 512.12C79.228 511.148 79.018 510.008 79.018 508.7C79.018 507.392 79.228 506.258 79.648 505.298C80.08 504.326 80.674 503.582 81.43 503.066C82.198 502.55 83.068 502.292 84.04 502.292C85.012 502.292 85.876 502.55 86.632 503.066C87.4 503.582 88 504.326 88.432 505.298C88.864 506.258 89.08 507.392 89.08 508.7C89.08 510.008 88.864 511.148 88.432 512.12C88 513.08 87.4 513.818 86.632 514.334C85.876 514.85 85.012 515.108 84.04 515.108ZM84.04 513.92C84.772 513.92 85.414 513.716 85.966 513.308C86.53 512.9 86.968 512.306 87.28 511.526C87.592 510.746 87.748 509.804 87.748 508.7C87.748 507.596 87.592 506.654 87.28 505.874C86.968 505.094 86.53 504.5 85.966 504.092C85.414 503.684 84.772 503.48 84.04 503.48C83.308 503.48 82.66 503.684 82.096 504.092C81.544 504.5 81.112 505.094 80.8 505.874C80.488 506.654 80.332 507.596 80.332 508.7C80.332 509.804 80.488 510.746 80.8 511.526C81.112 512.306 81.544 512.9 82.096 513.308C82.66 513.716 83.308 513.92 84.04 513.92Z" fill="black"/>
<path d="M61.7279 419.67C61.7279 420.594 61.3739 421.38 60.6659 422.028C59.9579 422.664 58.9199 423.018 57.5519 423.09V425.16H56.6519V423.108C55.7759 423.06 54.9479 422.892 54.1679 422.604C53.3999 422.304 52.7939 421.926 52.3499 421.47L52.8719 420.444C53.2919 420.852 53.8379 421.194 54.5099 421.47C55.1939 421.746 55.9079 421.908 56.6519 421.956V417.222C55.8239 417.018 55.1339 416.802 54.5819 416.574C54.0299 416.334 53.5679 415.992 53.1959 415.548C52.8359 415.092 52.6559 414.492 52.6559 413.748C52.6559 412.824 52.9919 412.05 53.6639 411.426C54.3359 410.79 55.3319 410.418 56.6519 410.31V408.24H57.5519V410.292C58.2359 410.316 58.8959 410.43 59.5319 410.634C60.1799 410.826 60.7379 411.084 61.2059 411.408L60.7559 412.47C60.2639 412.158 59.7419 411.912 59.1899 411.732C58.6379 411.552 58.0919 411.45 57.5519 411.426V416.196C58.4399 416.412 59.1659 416.634 59.7299 416.862C60.2939 417.078 60.7679 417.414 61.1519 417.87C61.5359 418.326 61.7279 418.926 61.7279 419.67ZM53.9699 413.712C53.9699 414.336 54.1979 414.81 54.6539 415.134C55.1219 415.458 55.7879 415.734 56.6519 415.962V411.462C55.7639 411.534 55.0919 411.78 54.6359 412.2C54.1919 412.608 53.9699 413.112 53.9699 413.712ZM57.5519 421.956C58.4999 421.884 59.2139 421.65 59.6939 421.254C60.1739 420.858 60.4139 420.354 60.4139 419.742C60.4139 419.094 60.1679 418.608 59.6759 418.284C59.1839 417.96 58.4759 417.684 57.5519 417.456V421.956ZM72.1181 421.848V423H63.2801V422.082L68.5181 416.952C69.1781 416.304 69.6221 415.746 69.8501 415.278C70.0901 414.798 70.2101 414.318 70.2101 413.838C70.2101 413.094 69.9521 412.518 69.4361 412.11C68.9321 411.69 68.2061 411.48 67.2581 411.48C65.7821 411.48 64.6361 411.948 63.8201 412.884L62.9021 412.092C63.3941 411.516 64.0181 411.072 64.7741 410.76C65.5421 410.448 66.4061 410.292 67.3661 410.292C68.6501 410.292 69.6641 410.598 70.4081 411.21C71.1641 411.81 71.5421 412.638 71.5421 413.694C71.5421 414.342 71.3981 414.966 71.1101 415.566C70.8221 416.166 70.2761 416.856 69.4721 417.636L65.1881 421.848H72.1181ZM87.9466 410.4V423H86.6686V412.92L81.7186 421.398H81.0886L76.1386 412.974V423H74.8606V410.4H75.9586L81.4306 419.742L86.8486 410.4H87.9466Z" fill="black"/>
<path d="M59.8822 327.67C59.8822 328.594 59.5282 329.38 58.8202 330.028C58.1122 330.664 57.0742 331.018 55.7062 331.09V333.16H54.8062V331.108C53.9302 331.06 53.1022 330.892 52.3222 330.604C51.5542 330.304 50.9482 329.926 50.5042 329.47L51.0262 328.444C51.4462 328.852 51.9922 329.194 52.6642 329.47C53.3482 329.746 54.0622 329.908 54.8062 329.956V325.222C53.9782 325.018 53.2882 324.802 52.7362 324.574C52.1842 324.334 51.7222 323.992 51.3502 323.548C50.9902 323.092 50.8102 322.492 50.8102 321.748C50.8102 320.824 51.1462 320.05 51.8182 319.426C52.4902 318.79 53.4862 318.418 54.8062 318.31V316.24H55.7062V318.292C56.3902 318.316 57.0502 318.43 57.6862 318.634C58.3342 318.826 58.8922 319.084 59.3602 319.408L58.9102 320.47C58.4182 320.158 57.8962 319.912 57.3442 319.732C56.7922 319.552 56.2462 319.45 55.7062 319.426V324.196C56.5942 324.412 57.3202 324.634 57.8842 324.862C58.4482 325.078 58.9222 325.414 59.3062 325.87C59.6902 326.326 59.8822 326.926 59.8822 327.67ZM52.1242 321.712C52.1242 322.336 52.3522 322.81 52.8082 323.134C53.2762 323.458 53.9422 323.734 54.8062 323.962V319.462C53.9182 319.534 53.2462 319.78 52.7902 320.2C52.3462 320.608 52.1242 321.112 52.1242 321.712ZM55.7062 329.956C56.6542 329.884 57.3682 329.65 57.8482 329.254C58.3282 328.858 58.5682 328.354 58.5682 327.742C58.5682 327.094 58.3222 326.608 57.8302 326.284C57.3382 325.96 56.6302 325.684 55.7062 325.456V329.956ZM72.5542 327.688H70.0342V331H68.7382V327.688H61.6282V326.752L68.3062 318.4H69.7462L63.3022 326.536H68.7742V323.62H70.0342V326.536H72.5542V327.688ZM87.9466 318.4V331H86.6686V320.92L81.7186 329.398H81.0886L76.1386 320.974V331H74.8606V318.4H75.9586L81.4306 327.742L86.8486 318.4H87.9466Z" fill="black"/>
<path d="M60.9896 235.67C60.9896 236.594 60.6356 237.38 59.9276 238.028C59.2196 238.664 58.1816 239.018 56.8136 239.09V241.16H55.9136V239.108C55.0376 239.06 54.2096 238.892 53.4296 238.604C52.6616 238.304 52.0556 237.926 51.6116 237.47L52.1336 236.444C52.5536 236.852 53.0996 237.194 53.7716 237.47C54.4556 237.746 55.1696 237.908 55.9136 237.956V233.222C55.0856 233.018 54.3956 232.802 53.8436 232.574C53.2916 232.334 52.8296 231.992 52.4576 231.548C52.0976 231.092 51.9176 230.492 51.9176 229.748C51.9176 228.824 52.2536 228.05 52.9256 227.426C53.5976 226.79 54.5936 226.418 55.9136 226.31V224.24H56.8136V226.292C57.4976 226.316 58.1576 226.43 58.7936 226.634C59.4416 226.826 59.9996 227.084 60.4676 227.408L60.0176 228.47C59.5256 228.158 59.0036 227.912 58.4516 227.732C57.8996 227.552 57.3536 227.45 56.8136 227.426V232.196C57.7016 232.412 58.4276 232.634 58.9916 232.862C59.5556 233.078 60.0296 233.414 60.4136 233.87C60.7976 234.326 60.9896 234.926 60.9896 235.67ZM53.2316 229.712C53.2316 230.336 53.4596 230.81 53.9156 231.134C54.3836 231.458 55.0496 231.734 55.9136 231.962V227.462C55.0256 227.534 54.3536 227.78 53.8976 228.2C53.4536 228.608 53.2316 229.112 53.2316 229.712ZM56.8136 237.956C57.7616 237.884 58.4756 237.65 58.9556 237.254C59.4356 236.858 59.6756 236.354 59.6756 235.742C59.6756 235.094 59.4296 234.608 58.9376 234.284C58.4456 233.96 57.7376 233.684 56.8136 233.456V237.956ZM67.9958 231.458C68.8238 231.458 69.5558 231.614 70.1918 231.926C70.8398 232.238 71.3438 232.682 71.7038 233.258C72.0638 233.822 72.2438 234.482 72.2438 235.238C72.2438 236.006 72.0578 236.684 71.6858 237.272C71.3138 237.86 70.7978 238.316 70.1378 238.64C69.4898 238.952 68.7578 239.108 67.9418 239.108C66.2738 239.108 64.9958 238.562 64.1078 237.47C63.2198 236.366 62.7758 234.812 62.7758 232.808C62.7758 231.404 63.0158 230.216 63.4958 229.244C63.9758 228.272 64.6478 227.54 65.5118 227.048C66.3758 226.544 67.3838 226.292 68.5358 226.292C69.7838 226.292 70.7798 226.52 71.5238 226.976L71.0018 228.02C70.4018 227.624 69.5858 227.426 68.5538 227.426C67.1618 227.426 66.0698 227.87 65.2778 228.758C64.4858 229.634 64.0898 230.912 64.0898 232.592C64.0898 232.892 64.1078 233.234 64.1438 233.618C64.4558 232.934 64.9538 232.406 65.6378 232.034C66.3218 231.65 67.1078 231.458 67.9958 231.458ZM67.8878 238.01C68.7998 238.01 69.5378 237.764 70.1018 237.272C70.6778 236.768 70.9658 236.102 70.9658 235.274C70.9658 234.446 70.6778 233.786 70.1018 233.294C69.5378 232.802 68.7698 232.556 67.7978 232.556C67.1618 232.556 66.5978 232.676 66.1058 232.916C65.6258 233.156 65.2478 233.486 64.9718 233.906C64.6958 234.326 64.5578 234.794 64.5578 235.31C64.5578 235.79 64.6838 236.234 64.9358 236.642C65.1998 237.05 65.5838 237.38 66.0878 237.632C66.5918 237.884 67.1918 238.01 67.8878 238.01ZM87.9466 226.4V239H86.6686V228.92L81.7186 237.398H81.0886L76.1386 228.974V239H74.8606V226.4H75.9586L81.4306 235.742L86.8486 226.4H87.9466Z" fill="black"/>
<path d="M60.4799 143.67C60.4799 144.594 60.1259 145.38 59.4179 146.028C58.7099 146.664 57.6719 147.018 56.3039 147.09V149.16H55.4039V147.108C54.5279 147.06 53.6999 146.892 52.9199 146.604C52.1519 146.304 51.5459 145.926 51.1019 145.47L51.6239 144.444C52.0439 144.852 52.5899 145.194 53.2619 145.47C53.9459 145.746 54.6599 145.908 55.4039 145.956V141.222C54.5759 141.018 53.8859 140.802 53.3339 140.574C52.7819 140.334 52.3199 139.992 51.9479 139.548C51.5879 139.092 51.4079 138.492 51.4079 137.748C51.4079 136.824 51.7439 136.05 52.4159 135.426C53.0879 134.79 54.0839 134.418 55.4039 134.31V132.24H56.3039V134.292C56.9879 134.316 57.6479 134.43 58.2839 134.634C58.9319 134.826 59.4899 135.084 59.9579 135.408L59.5079 136.47C59.0159 136.158 58.4939 135.912 57.9419 135.732C57.3899 135.552 56.8439 135.45 56.3039 135.426V140.196C57.1919 140.412 57.9179 140.634 58.4819 140.862C59.0459 141.078 59.5199 141.414 59.9039 141.87C60.2879 142.326 60.4799 142.926 60.4799 143.67ZM52.7219 137.712C52.7219 138.336 52.9499 138.81 53.4059 139.134C53.8739 139.458 54.5399 139.734 55.4039 139.962V135.462C54.5159 135.534 53.8439 135.78 53.3879 136.2C52.9439 136.608 52.7219 137.112 52.7219 137.712ZM56.3039 145.956C57.2519 145.884 57.9659 145.65 58.4459 145.254C58.9259 144.858 59.1659 144.354 59.1659 143.742C59.1659 143.094 58.9199 142.608 58.4279 142.284C57.9359 141.96 57.2279 141.684 56.3039 141.456V145.956ZM69.4841 140.394C70.2761 140.658 70.8821 141.054 71.3021 141.582C71.7341 142.11 71.9501 142.746 71.9501 143.49C71.9501 144.222 71.7521 144.864 71.3561 145.416C70.9601 145.956 70.3901 146.376 69.6461 146.676C68.9141 146.964 68.0501 147.108 67.0541 147.108C65.5421 147.108 64.3541 146.784 63.4901 146.136C62.6261 145.488 62.1941 144.606 62.1941 143.49C62.1941 142.734 62.3981 142.098 62.8061 141.582C63.2261 141.054 63.8321 140.658 64.6241 140.394C63.9761 140.142 63.4841 139.782 63.1481 139.314C62.8121 138.834 62.6441 138.27 62.6441 137.622C62.6441 136.602 63.0401 135.792 63.8321 135.192C64.6361 134.592 65.7101 134.292 67.0541 134.292C67.9421 134.292 68.7161 134.43 69.3761 134.706C70.0481 134.97 70.5701 135.354 70.9421 135.858C71.3141 136.362 71.5001 136.95 71.5001 137.622C71.5001 138.27 71.3261 138.834 70.9781 139.314C70.6301 139.782 70.1321 140.142 69.4841 140.394ZM63.9401 137.658C63.9401 138.354 64.2161 138.906 64.7681 139.314C65.3201 139.722 66.0821 139.926 67.0541 139.926C68.0261 139.926 68.7881 139.722 69.3401 139.314C69.9041 138.906 70.1861 138.36 70.1861 137.676C70.1861 136.968 69.8981 136.41 69.3221 136.002C68.7581 135.594 68.0021 135.39 67.0541 135.39C66.0941 135.39 65.3321 135.594 64.7681 136.002C64.2161 136.41 63.9401 136.962 63.9401 137.658ZM67.0541 146.01C68.1701 146.01 69.0401 145.782 69.6641 145.326C70.3001 144.87 70.6181 144.252 70.6181 143.472C70.6181 142.692 70.3001 142.08 69.6641 141.636C69.0401 141.18 68.1701 140.952 67.0541 140.952C65.9501 140.952 65.0801 141.18 64.4441 141.636C63.8201 142.08 63.5081 142.692 63.5081 143.472C63.5081 144.264 63.8201 144.888 64.4441 145.344C65.0681 145.788 65.9381 146.01 67.0541 146.01ZM87.9466 134.4V147H86.6686V136.92L81.7186 145.398H81.0886L76.1386 136.974V147H74.8606V134.4H75.9586L81.4306 143.742L86.8486 134.4H87.9466Z" fill="black"/>
<rect x="161" y="182" width="200" height="327" fill="#007DB9"/>
<rect x="161" y="146" width="200" height="36" fill="#B2D235"/>
<rect x="458" y="197" width="24" height="24" fill="#007DB9"/>
<path d="M503.288 214L501.048 210.85C500.796 210.878 500.535 210.892 500.264 210.892H497.632V214H496.596V204.2H500.264C501.515 204.2 502.495 204.499 503.204 205.096C503.913 205.693 504.268 206.515 504.268 207.56C504.268 208.325 504.072 208.974 503.68 209.506C503.297 210.029 502.747 210.407 502.028 210.64L504.422 214H503.288ZM500.236 210.01C501.207 210.01 501.949 209.795 502.462 209.366C502.975 208.937 503.232 208.335 503.232 207.56C503.232 206.767 502.975 206.16 502.462 205.74C501.949 205.311 501.207 205.096 500.236 205.096H497.632V210.01H500.236ZM512.915 210.626H506.755C506.811 211.391 507.105 212.012 507.637 212.488C508.169 212.955 508.841 213.188 509.653 213.188C510.111 213.188 510.531 213.109 510.913 212.95C511.296 212.782 511.627 212.539 511.907 212.222L512.467 212.866C512.141 213.258 511.73 213.557 511.235 213.762C510.75 213.967 510.213 214.07 509.625 214.07C508.869 214.07 508.197 213.911 507.609 213.594C507.031 213.267 506.578 212.819 506.251 212.25C505.925 211.681 505.761 211.037 505.761 210.318C505.761 209.599 505.915 208.955 506.223 208.386C506.541 207.817 506.97 207.373 507.511 207.056C508.062 206.739 508.678 206.58 509.359 206.58C510.041 206.58 510.652 206.739 511.193 207.056C511.735 207.373 512.159 207.817 512.467 208.386C512.775 208.946 512.929 209.59 512.929 210.318L512.915 210.626ZM509.359 207.434C508.65 207.434 508.053 207.663 507.567 208.12C507.091 208.568 506.821 209.156 506.755 209.884H511.977C511.912 209.156 511.637 208.568 511.151 208.12C510.675 207.663 510.078 207.434 509.359 207.434ZM516.926 214.07C516.329 214.07 515.755 213.986 515.204 213.818C514.663 213.641 514.238 213.421 513.93 213.16L514.378 212.376C514.686 212.619 515.074 212.819 515.54 212.978C516.007 213.127 516.492 213.202 516.996 213.202C517.668 213.202 518.163 213.099 518.48 212.894C518.807 212.679 518.97 212.381 518.97 211.998C518.97 211.727 518.882 211.517 518.704 211.368C518.527 211.209 518.303 211.093 518.032 211.018C517.762 210.934 517.402 210.855 516.954 210.78C516.357 210.668 515.876 210.556 515.512 210.444C515.148 210.323 514.836 210.122 514.574 209.842C514.322 209.562 514.196 209.175 514.196 208.68C514.196 208.064 514.453 207.56 514.966 207.168C515.48 206.776 516.194 206.58 517.108 206.58C517.584 206.58 518.06 206.645 518.536 206.776C519.012 206.897 519.404 207.061 519.712 207.266L519.278 208.064C518.672 207.644 517.948 207.434 517.108 207.434C516.474 207.434 515.993 207.546 515.666 207.77C515.349 207.994 515.19 208.288 515.19 208.652C515.19 208.932 515.279 209.156 515.456 209.324C515.643 209.492 515.872 209.618 516.142 209.702C516.413 209.777 516.786 209.856 517.262 209.94C517.85 210.052 518.322 210.164 518.676 210.276C519.031 210.388 519.334 210.579 519.586 210.85C519.838 211.121 519.964 211.494 519.964 211.97C519.964 212.614 519.694 213.127 519.152 213.51C518.62 213.883 517.878 214.07 516.926 214.07ZM521.802 206.636H522.796V214H521.802V206.636ZM522.306 205.026C522.101 205.026 521.928 204.956 521.788 204.816C521.648 204.676 521.578 204.508 521.578 204.312C521.578 204.125 521.648 203.962 521.788 203.822C521.928 203.682 522.101 203.612 522.306 203.612C522.511 203.612 522.684 203.682 522.824 203.822C522.964 203.953 523.034 204.111 523.034 204.298C523.034 204.503 522.964 204.676 522.824 204.816C522.684 204.956 522.511 205.026 522.306 205.026ZM532.282 203.612V214H531.33V212.544C531.031 213.039 530.634 213.417 530.14 213.678C529.654 213.939 529.104 214.07 528.488 214.07C527.797 214.07 527.172 213.911 526.612 213.594C526.052 213.277 525.613 212.833 525.296 212.264C524.978 211.695 524.82 211.046 524.82 210.318C524.82 209.59 524.978 208.941 525.296 208.372C525.613 207.803 526.052 207.364 526.612 207.056C527.172 206.739 527.797 206.58 528.488 206.58C529.085 206.58 529.622 206.706 530.098 206.958C530.583 207.201 530.98 207.56 531.288 208.036V203.612H532.282ZM528.572 213.188C529.085 213.188 529.547 213.071 529.958 212.838C530.378 212.595 530.704 212.255 530.938 211.816C531.18 211.377 531.302 210.878 531.302 210.318C531.302 209.758 531.18 209.259 530.938 208.82C530.704 208.381 530.378 208.045 529.958 207.812C529.547 207.569 529.085 207.448 528.572 207.448C528.049 207.448 527.578 207.569 527.158 207.812C526.747 208.045 526.42 208.381 526.178 208.82C525.944 209.259 525.828 209.758 525.828 210.318C525.828 210.878 525.944 211.377 526.178 211.816C526.42 212.255 526.747 212.595 527.158 212.838C527.578 213.071 528.049 213.188 528.572 213.188ZM541.462 210.626H535.302C535.358 211.391 535.652 212.012 536.184 212.488C536.716 212.955 537.388 213.188 538.2 213.188C538.657 213.188 539.077 213.109 539.46 212.95C539.843 212.782 540.174 212.539 540.454 212.222L541.014 212.866C540.687 213.258 540.277 213.557 539.782 213.762C539.297 213.967 538.76 214.07 538.172 214.07C537.416 214.07 536.744 213.911 536.156 213.594C535.577 213.267 535.125 212.819 534.798 212.25C534.471 211.681 534.308 211.037 534.308 210.318C534.308 209.599 534.462 208.955 534.77 208.386C535.087 207.817 535.517 207.373 536.058 207.056C536.609 206.739 537.225 206.58 537.906 206.58C538.587 206.58 539.199 206.739 539.74 207.056C540.281 207.373 540.706 207.817 541.014 208.386C541.322 208.946 541.476 209.59 541.476 210.318L541.462 210.626ZM537.906 207.434C537.197 207.434 536.599 207.663 536.114 208.12C535.638 208.568 535.367 209.156 535.302 209.884H540.524C540.459 209.156 540.183 208.568 539.698 208.12C539.222 207.663 538.625 207.434 537.906 207.434ZM547.251 206.58C548.175 206.58 548.908 206.851 549.449 207.392C550 207.924 550.275 208.703 550.275 209.73V214H549.281V209.828C549.281 209.063 549.09 208.479 548.707 208.078C548.325 207.677 547.779 207.476 547.069 207.476C546.276 207.476 545.646 207.714 545.179 208.19C544.722 208.657 544.493 209.305 544.493 210.136V214H543.499V206.636H544.451V207.994C544.722 207.546 545.095 207.201 545.571 206.958C546.057 206.706 546.617 206.58 547.251 206.58ZM556.852 213.552C556.665 213.72 556.432 213.851 556.152 213.944C555.881 214.028 555.597 214.07 555.298 214.07C554.607 214.07 554.075 213.883 553.702 213.51C553.329 213.137 553.142 212.609 553.142 211.928V207.476H551.826V206.636H553.142V205.026H554.136V206.636H556.376V207.476H554.136V211.872C554.136 212.311 554.243 212.647 554.458 212.88C554.682 213.104 554.999 213.216 555.41 213.216C555.615 213.216 555.811 213.183 555.998 213.118C556.194 213.053 556.362 212.959 556.502 212.838L556.852 213.552ZM558.661 206.636H559.655V214H558.661V206.636ZM559.165 205.026C558.96 205.026 558.787 204.956 558.647 204.816C558.507 204.676 558.437 204.508 558.437 204.312C558.437 204.125 558.507 203.962 558.647 203.822C558.787 203.682 558.96 203.612 559.165 203.612C559.371 203.612 559.543 203.682 559.683 203.822C559.823 203.953 559.893 204.111 559.893 204.298C559.893 204.503 559.823 204.676 559.683 204.816C559.543 204.956 559.371 205.026 559.165 205.026ZM564.997 206.58C565.958 206.58 566.696 206.823 567.209 207.308C567.722 207.784 567.979 208.493 567.979 209.436V214H567.027V212.852C566.803 213.235 566.472 213.533 566.033 213.748C565.604 213.963 565.09 214.07 564.493 214.07C563.672 214.07 563.018 213.874 562.533 213.482C562.048 213.09 561.805 212.572 561.805 211.928C561.805 211.303 562.029 210.799 562.477 210.416C562.934 210.033 563.658 209.842 564.647 209.842H566.985V209.394C566.985 208.759 566.808 208.279 566.453 207.952C566.098 207.616 565.58 207.448 564.899 207.448C564.432 207.448 563.984 207.527 563.555 207.686C563.126 207.835 562.757 208.045 562.449 208.316L562.001 207.574C562.374 207.257 562.822 207.014 563.345 206.846C563.868 206.669 564.418 206.58 564.997 206.58ZM564.647 213.286C565.207 213.286 565.688 213.16 566.089 212.908C566.49 212.647 566.789 212.273 566.985 211.788V210.584H564.675C563.415 210.584 562.785 211.023 562.785 211.9C562.785 212.329 562.948 212.67 563.275 212.922C563.602 213.165 564.059 213.286 564.647 213.286ZM570.679 203.612H571.673V214H570.679V203.612Z" fill="black"/>
<rect x="458" y="153" width="24" height="24" fill="#B2D235"/>
<path d="M500.852 170.084C499.881 170.084 499.004 169.869 498.22 169.44C497.445 169.011 496.834 168.418 496.386 167.662C495.947 166.897 495.728 166.043 495.728 165.1C495.728 164.157 495.947 163.308 496.386 162.552C496.834 161.787 497.45 161.189 498.234 160.76C499.018 160.331 499.895 160.116 500.866 160.116C501.594 160.116 502.266 160.237 502.882 160.48C503.498 160.723 504.021 161.077 504.45 161.544L503.792 162.202C503.027 161.427 502.061 161.04 500.894 161.04C500.119 161.04 499.415 161.217 498.78 161.572C498.145 161.927 497.646 162.412 497.282 163.028C496.927 163.644 496.75 164.335 496.75 165.1C496.75 165.865 496.927 166.556 497.282 167.172C497.646 167.788 498.145 168.273 498.78 168.628C499.415 168.983 500.119 169.16 500.894 169.16C502.07 169.16 503.036 168.768 503.792 167.984L504.45 168.642C504.021 169.109 503.493 169.468 502.868 169.72C502.252 169.963 501.58 170.084 500.852 170.084ZM509.13 170.07C508.421 170.07 507.782 169.911 507.212 169.594C506.643 169.267 506.195 168.819 505.868 168.25C505.542 167.681 505.378 167.037 505.378 166.318C505.378 165.599 505.542 164.955 505.868 164.386C506.195 163.817 506.643 163.373 507.212 163.056C507.782 162.739 508.421 162.58 509.13 162.58C509.84 162.58 510.479 162.739 511.048 163.056C511.618 163.373 512.061 163.817 512.378 164.386C512.705 164.955 512.868 165.599 512.868 166.318C512.868 167.037 512.705 167.681 512.378 168.25C512.061 168.819 511.618 169.267 511.048 169.594C510.479 169.911 509.84 170.07 509.13 170.07ZM509.13 169.188C509.653 169.188 510.12 169.071 510.53 168.838C510.95 168.595 511.277 168.255 511.51 167.816C511.744 167.377 511.86 166.878 511.86 166.318C511.86 165.758 511.744 165.259 511.51 164.82C511.277 164.381 510.95 164.045 510.53 163.812C510.12 163.569 509.653 163.448 509.13 163.448C508.608 163.448 508.136 163.569 507.716 163.812C507.306 164.045 506.979 164.381 506.736 164.82C506.503 165.259 506.386 165.758 506.386 166.318C506.386 166.878 506.503 167.377 506.736 167.816C506.979 168.255 507.306 168.595 507.716 168.838C508.136 169.071 508.608 169.188 509.13 169.188ZM524.082 162.58C525.006 162.58 525.729 162.846 526.252 163.378C526.784 163.91 527.05 164.694 527.05 165.73V170H526.056V165.828C526.056 165.063 525.869 164.479 525.496 164.078C525.132 163.677 524.614 163.476 523.942 163.476C523.176 163.476 522.574 163.714 522.136 164.19C521.697 164.657 521.478 165.305 521.478 166.136V170H520.484V165.828C520.484 165.063 520.297 164.479 519.924 164.078C519.56 163.677 519.037 163.476 518.356 163.476C517.6 163.476 516.998 163.714 516.55 164.19C516.111 164.657 515.892 165.305 515.892 166.136V170H514.898V162.636H515.85V163.98C516.111 163.532 516.475 163.187 516.942 162.944C517.408 162.701 517.945 162.58 518.552 162.58C519.168 162.58 519.7 162.711 520.148 162.972C520.605 163.233 520.946 163.621 521.17 164.134C521.44 163.649 521.828 163.271 522.332 163C522.845 162.72 523.428 162.58 524.082 162.58ZM538.929 162.58C539.853 162.58 540.577 162.846 541.099 163.378C541.631 163.91 541.897 164.694 541.897 165.73V170H540.903V165.828C540.903 165.063 540.717 164.479 540.343 164.078C539.979 163.677 539.461 163.476 538.789 163.476C538.024 163.476 537.422 163.714 536.983 164.19C536.545 164.657 536.325 165.305 536.325 166.136V170H535.331V165.828C535.331 165.063 535.145 164.479 534.771 164.078C534.407 163.677 533.885 163.476 533.203 163.476C532.447 163.476 531.845 163.714 531.397 164.19C530.959 164.657 530.739 165.305 530.739 166.136V170H529.745V162.636H530.697V163.98C530.959 163.532 531.323 163.187 531.789 162.944C532.256 162.701 532.793 162.58 533.399 162.58C534.015 162.58 534.547 162.711 534.995 162.972C535.453 163.233 535.793 163.621 536.017 164.134C536.288 163.649 536.675 163.271 537.179 163C537.693 162.72 538.276 162.58 538.929 162.58ZM551.032 166.626H544.872C544.928 167.391 545.222 168.012 545.754 168.488C546.286 168.955 546.958 169.188 547.77 169.188C548.228 169.188 548.648 169.109 549.03 168.95C549.413 168.782 549.744 168.539 550.024 168.222L550.584 168.866C550.258 169.258 549.847 169.557 549.352 169.762C548.867 169.967 548.33 170.07 547.742 170.07C546.986 170.07 546.314 169.911 545.726 169.594C545.148 169.267 544.695 168.819 544.368 168.25C544.042 167.681 543.878 167.037 543.878 166.318C543.878 165.599 544.032 164.955 544.34 164.386C544.658 163.817 545.087 163.373 545.628 163.056C546.179 162.739 546.795 162.58 547.476 162.58C548.158 162.58 548.769 162.739 549.31 163.056C549.852 163.373 550.276 163.817 550.584 164.386C550.892 164.946 551.046 165.59 551.046 166.318L551.032 166.626ZM547.476 163.434C546.767 163.434 546.17 163.663 545.684 164.12C545.208 164.568 544.938 165.156 544.872 165.884H550.094C550.029 165.156 549.754 164.568 549.268 164.12C548.792 163.663 548.195 163.434 547.476 163.434ZM554.022 164.078C554.255 163.583 554.6 163.21 555.058 162.958C555.524 162.706 556.098 162.58 556.78 162.58V163.546L556.542 163.532C555.767 163.532 555.16 163.77 554.722 164.246C554.283 164.722 554.064 165.389 554.064 166.248V170H553.07V162.636H554.022V164.078ZM561.563 170.07C560.835 170.07 560.182 169.911 559.603 169.594C559.034 169.277 558.586 168.833 558.259 168.264C557.932 167.685 557.769 167.037 557.769 166.318C557.769 165.599 557.932 164.955 558.259 164.386C558.586 163.817 559.034 163.373 559.603 163.056C560.182 162.739 560.835 162.58 561.563 162.58C562.198 162.58 562.762 162.706 563.257 162.958C563.761 163.201 564.158 163.56 564.447 164.036L563.705 164.54C563.462 164.176 563.154 163.905 562.781 163.728C562.408 163.541 562.002 163.448 561.563 163.448C561.031 163.448 560.55 163.569 560.121 163.812C559.701 164.045 559.37 164.381 559.127 164.82C558.894 165.259 558.777 165.758 558.777 166.318C558.777 166.887 558.894 167.391 559.127 167.83C559.37 168.259 559.701 168.595 560.121 168.838C560.55 169.071 561.031 169.188 561.563 169.188C562.002 169.188 562.408 169.099 562.781 168.922C563.154 168.745 563.462 168.474 563.705 168.11L564.447 168.614C564.158 169.09 563.761 169.454 563.257 169.706C562.753 169.949 562.188 170.07 561.563 170.07ZM566.4 162.636H567.394V170H566.4V162.636ZM566.904 161.026C566.698 161.026 566.526 160.956 566.386 160.816C566.246 160.676 566.176 160.508 566.176 160.312C566.176 160.125 566.246 159.962 566.386 159.822C566.526 159.682 566.698 159.612 566.904 159.612C567.109 159.612 567.282 159.682 567.422 159.822C567.562 159.953 567.632 160.111 567.632 160.298C567.632 160.503 567.562 160.676 567.422 160.816C567.282 160.956 567.109 161.026 566.904 161.026ZM572.735 162.58C573.697 162.58 574.434 162.823 574.947 163.308C575.461 163.784 575.717 164.493 575.717 165.436V170H574.765V168.852C574.541 169.235 574.21 169.533 573.771 169.748C573.342 169.963 572.829 170.07 572.231 170.07C571.41 170.07 570.757 169.874 570.271 169.482C569.786 169.09 569.543 168.572 569.543 167.928C569.543 167.303 569.767 166.799 570.215 166.416C570.673 166.033 571.396 165.842 572.385 165.842H574.723V165.394C574.723 164.759 574.546 164.279 574.191 163.952C573.837 163.616 573.319 163.448 572.637 163.448C572.171 163.448 571.723 163.527 571.293 163.686C570.864 163.835 570.495 164.045 570.187 164.316L569.739 163.574C570.113 163.257 570.561 163.014 571.083 162.846C571.606 162.669 572.157 162.58 572.735 162.58ZM572.385 169.286C572.945 169.286 573.426 169.16 573.827 168.908C574.229 168.647 574.527 168.273 574.723 167.788V166.584H572.413C571.153 166.584 570.523 167.023 570.523 167.9C570.523 168.329 570.687 168.67 571.013 168.922C571.34 169.165 571.797 169.286 572.385 169.286ZM578.417 159.612H579.411V170H578.417V159.612Z" fill="black"/>
<path d="M57.876 49.4C58.968 49.4 59.916 49.58 60.72 49.94C61.536 50.3 62.16 50.816 62.592 51.488C63.024 52.16 63.24 52.958 63.24 53.882C63.24 54.794 63.024 55.592 62.592 56.276C62.16 56.948 61.536 57.464 60.72 57.824C59.916 58.184 58.968 58.364 57.876 58.364H55.032V62H52.692V49.4H57.876ZM57.768 56.384C58.788 56.384 59.562 56.168 60.09 55.736C60.618 55.304 60.882 54.686 60.882 53.882C60.882 53.078 60.618 52.46 60.09 52.028C59.562 51.596 58.788 51.38 57.768 51.38H55.032V56.384H57.768ZM68.9449 52.28C70.3609 52.28 71.4409 52.622 72.1849 53.306C72.9409 53.978 73.3189 54.998 73.3189 56.366V62H71.1949V60.83C70.9189 61.25 70.5229 61.574 70.0069 61.802C69.5029 62.018 68.8909 62.126 68.1709 62.126C67.4509 62.126 66.8209 62.006 66.2809 61.766C65.7409 61.514 65.3209 61.172 65.0209 60.74C64.7329 60.296 64.5889 59.798 64.5889 59.246C64.5889 58.382 64.9069 57.692 65.5429 57.176C66.1909 56.648 67.2049 56.384 68.5849 56.384H71.0689V56.24C71.0689 55.568 70.8649 55.052 70.4569 54.692C70.0609 54.332 69.4669 54.152 68.6749 54.152C68.1349 54.152 67.6009 54.236 67.0729 54.404C66.5569 54.572 66.1189 54.806 65.7589 55.106L64.8769 53.468C65.3809 53.084 65.9869 52.79 66.6949 52.586C67.4029 52.382 68.1529 52.28 68.9449 52.28ZM68.6389 60.488C69.2029 60.488 69.7009 60.362 70.1329 60.11C70.5769 59.846 70.8889 59.474 71.0689 58.994V57.878H68.7469C67.4509 57.878 66.8029 58.304 66.8029 59.156C66.8029 59.564 66.9649 59.888 67.2889 60.128C67.6129 60.368 68.0629 60.488 68.6389 60.488ZM85.0307 52.388L80.5307 62.774C80.1107 63.818 79.6007 64.55 79.0007 64.97C78.4007 65.402 77.6747 65.618 76.8227 65.618C76.3427 65.618 75.8687 65.54 75.4007 65.384C74.9327 65.228 74.5487 65.012 74.2487 64.736L75.1487 63.08C75.3647 63.284 75.6167 63.446 75.9047 63.566C76.2047 63.686 76.5047 63.746 76.8047 63.746C77.2007 63.746 77.5247 63.644 77.7767 63.44C78.0407 63.236 78.2807 62.894 78.4967 62.414L78.6587 62.036L74.4647 52.388H76.8047L79.8287 59.498L82.8707 52.388H85.0307ZM98.5689 52.28C99.7809 52.28 100.741 52.634 101.449 53.342C102.157 54.038 102.511 55.088 102.511 56.492V62H100.261V56.78C100.261 55.94 100.075 55.31 99.7029 54.89C99.3309 54.458 98.7969 54.242 98.1009 54.242C97.3449 54.242 96.7389 54.494 96.2829 54.998C95.8269 55.49 95.5989 56.198 95.5989 57.122V62H93.3489V56.78C93.3489 55.94 93.1629 55.31 92.7909 54.89C92.4189 54.458 91.8849 54.242 91.1889 54.242C90.4209 54.242 89.8089 54.488 89.3529 54.98C88.9089 55.472 88.6869 56.186 88.6869 57.122V62H86.4369V52.388H88.5789V53.612C88.9389 53.18 89.3889 52.85 89.9289 52.622C90.4689 52.394 91.0689 52.28 91.7289 52.28C92.4489 52.28 93.0849 52.418 93.6369 52.694C94.2009 52.958 94.6449 53.354 94.9689 53.882C95.3649 53.378 95.8749 52.988 96.4989 52.712C97.1229 52.424 97.8129 52.28 98.5689 52.28ZM114.51 57.248C114.51 57.404 114.498 57.626 114.474 57.914H106.932C107.064 58.622 107.406 59.186 107.958 59.606C108.522 60.014 109.218 60.218 110.046 60.218C111.102 60.218 111.972 59.87 112.656 59.174L113.862 60.56C113.43 61.076 112.884 61.466 112.224 61.73C111.564 61.994 110.82 62.126 109.992 62.126C108.936 62.126 108.006 61.916 107.202 61.496C106.398 61.076 105.774 60.494 105.33 59.75C104.898 58.994 104.682 58.142 104.682 57.194C104.682 56.258 104.892 55.418 105.312 54.674C105.744 53.918 106.338 53.33 107.094 52.91C107.85 52.49 108.702 52.28 109.65 52.28C110.586 52.28 111.42 52.49 112.152 52.91C112.896 53.318 113.472 53.9 113.88 54.656C114.3 55.4 114.51 56.264 114.51 57.248ZM109.65 54.08C108.93 54.08 108.318 54.296 107.814 54.728C107.322 55.148 107.022 55.712 106.914 56.42H112.368C112.272 55.724 111.978 55.16 111.486 54.728C110.994 54.296 110.382 54.08 109.65 54.08ZM122.125 52.28C123.337 52.28 124.309 52.634 125.041 53.342C125.773 54.05 126.139 55.1 126.139 56.492V62H123.889V56.78C123.889 55.94 123.691 55.31 123.295 54.89C122.899 54.458 122.335 54.242 121.603 54.242C120.775 54.242 120.121 54.494 119.641 54.998C119.161 55.49 118.921 56.204 118.921 57.14V62H116.671V52.388H118.813V53.63C119.185 53.186 119.653 52.85 120.217 52.622C120.781 52.394 121.417 52.28 122.125 52.28ZM134.772 61.478C134.508 61.694 134.184 61.856 133.8 61.964C133.428 62.072 133.032 62.126 132.612 62.126C131.556 62.126 130.74 61.85 130.164 61.298C129.588 60.746 129.3 59.942 129.3 58.886V54.26H127.716V52.46H129.3V50.264H131.55V52.46H134.124V54.26H131.55V58.832C131.55 59.3 131.664 59.66 131.892 59.912C132.12 60.152 132.45 60.272 132.882 60.272C133.386 60.272 133.806 60.14 134.142 59.876L134.772 61.478ZM149.985 59.084H143.685L142.443 62H140.031L145.701 49.4H148.005L153.693 62H151.245L149.985 59.084ZM149.211 57.248L146.835 51.74L144.477 57.248H149.211ZM157.962 62.126C157.182 62.126 156.42 62.024 155.676 61.82C154.932 61.616 154.338 61.358 153.894 61.046L154.758 59.336C155.19 59.624 155.706 59.858 156.306 60.038C156.918 60.206 157.518 60.29 158.106 60.29C159.45 60.29 160.122 59.936 160.122 59.228C160.122 58.892 159.948 58.658 159.6 58.526C159.264 58.394 158.718 58.268 157.962 58.148C157.17 58.028 156.522 57.89 156.018 57.734C155.526 57.578 155.094 57.308 154.722 56.924C154.362 56.528 154.182 55.982 154.182 55.286C154.182 54.374 154.56 53.648 155.316 53.108C156.084 52.556 157.116 52.28 158.412 52.28C159.072 52.28 159.732 52.358 160.392 52.514C161.052 52.658 161.592 52.856 162.012 53.108L161.148 54.818C160.332 54.338 159.414 54.098 158.394 54.098C157.734 54.098 157.23 54.2 156.882 54.404C156.546 54.596 156.378 54.854 156.378 55.178C156.378 55.538 156.558 55.796 156.918 55.952C157.29 56.096 157.86 56.234 158.628 56.366C159.396 56.486 160.026 56.624 160.518 56.78C161.01 56.936 161.43 57.2 161.778 57.572C162.138 57.944 162.318 58.472 162.318 59.156C162.318 60.056 161.928 60.776 161.148 61.316C160.368 61.856 159.306 62.126 157.962 62.126ZM167.225 62.126C166.445 62.126 165.683 62.024 164.939 61.82C164.195 61.616 163.601 61.358 163.157 61.046L164.021 59.336C164.453 59.624 164.969 59.858 165.569 60.038C166.181 60.206 166.781 60.29 167.369 60.29C168.713 60.29 169.385 59.936 169.385 59.228C169.385 58.892 169.211 58.658 168.863 58.526C168.527 58.394 167.981 58.268 167.225 58.148C166.433 58.028 165.785 57.89 165.281 57.734C164.789 57.578 164.357 57.308 163.985 56.924C163.625 56.528 163.445 55.982 163.445 55.286C163.445 54.374 163.823 53.648 164.579 53.108C165.347 52.556 166.379 52.28 167.675 52.28C168.335 52.28 168.995 52.358 169.655 52.514C170.315 52.658 170.855 52.856 171.275 53.108L170.411 54.818C169.595 54.338 168.677 54.098 167.657 54.098C166.997 54.098 166.493 54.2 166.145 54.404C165.809 54.596 165.641 54.854 165.641 55.178C165.641 55.538 165.821 55.796 166.181 55.952C166.553 56.096 167.123 56.234 167.891 56.366C168.659 56.486 169.289 56.624 169.781 56.78C170.273 56.936 170.693 57.2 171.041 57.572C171.401 57.944 171.581 58.472 171.581 59.156C171.581 60.056 171.191 60.776 170.411 61.316C169.631 61.856 168.569 62.126 167.225 62.126ZM173.519 52.388H175.769V62H173.519V52.388ZM174.653 50.804C174.245 50.804 173.903 50.678 173.627 50.426C173.351 50.162 173.213 49.838 173.213 49.454C173.213 49.07 173.351 48.752 173.627 48.5C173.903 48.236 174.245 48.104 174.653 48.104C175.061 48.104 175.403 48.23 175.679 48.482C175.955 48.722 176.093 49.028 176.093 49.4C176.093 49.796 175.955 50.132 175.679 50.408C175.415 50.672 175.073 50.804 174.653 50.804ZM181.692 62.126C180.912 62.126 180.15 62.024 179.406 61.82C178.662 61.616 178.068 61.358 177.624 61.046L178.488 59.336C178.92 59.624 179.436 59.858 180.036 60.038C180.648 60.206 181.248 60.29 181.836 60.29C183.18 60.29 183.852 59.936 183.852 59.228C183.852 58.892 183.678 58.658 183.33 58.526C182.994 58.394 182.448 58.268 181.692 58.148C180.9 58.028 180.252 57.89 179.748 57.734C179.256 57.578 178.824 57.308 178.452 56.924C178.092 56.528 177.912 55.982 177.912 55.286C177.912 54.374 178.29 53.648 179.046 53.108C179.814 52.556 180.846 52.28 182.142 52.28C182.802 52.28 183.462 52.358 184.122 52.514C184.782 52.658 185.322 52.856 185.742 53.108L184.878 54.818C184.062 54.338 183.144 54.098 182.124 54.098C181.464 54.098 180.96 54.2 180.612 54.404C180.276 54.596 180.108 54.854 180.108 55.178C180.108 55.538 180.288 55.796 180.648 55.952C181.02 56.096 181.59 56.234 182.358 56.366C183.126 56.486 183.756 56.624 184.248 56.78C184.74 56.936 185.16 57.2 185.508 57.572C185.868 57.944 186.048 58.472 186.048 59.156C186.048 60.056 185.658 60.776 184.878 61.316C184.098 61.856 183.036 62.126 181.692 62.126ZM193.764 61.478C193.5 61.694 193.176 61.856 192.792 61.964C192.42 62.072 192.024 62.126 191.604 62.126C190.548 62.126 189.732 61.85 189.156 61.298C188.58 60.746 188.292 59.942 188.292 58.886V54.26H186.708V52.46H188.292V50.264H190.542V52.46H193.116V54.26H190.542V58.832C190.542 59.3 190.656 59.66 190.884 59.912C191.112 60.152 191.442 60.272 191.874 60.272C192.378 60.272 192.798 60.14 193.134 59.876L193.764 61.478ZM199.287 52.28C200.703 52.28 201.783 52.622 202.527 53.306C203.283 53.978 203.661 54.998 203.661 56.366V62H201.537V60.83C201.261 61.25 200.865 61.574 200.349 61.802C199.845 62.018 199.233 62.126 198.513 62.126C197.793 62.126 197.163 62.006 196.623 61.766C196.083 61.514 195.663 61.172 195.363 60.74C195.075 60.296 194.931 59.798 194.931 59.246C194.931 58.382 195.249 57.692 195.885 57.176C196.533 56.648 197.547 56.384 198.927 56.384H201.411V56.24C201.411 55.568 201.207 55.052 200.799 54.692C200.403 54.332 199.809 54.152 199.017 54.152C198.477 54.152 197.943 54.236 197.415 54.404C196.899 54.572 196.461 54.806 196.101 55.106L195.219 53.468C195.723 53.084 196.329 52.79 197.037 52.586C197.745 52.382 198.495 52.28 199.287 52.28ZM198.981 60.488C199.545 60.488 200.043 60.362 200.475 60.11C200.919 59.846 201.231 59.474 201.411 58.994V57.878H199.089C197.793 57.878 197.145 58.304 197.145 59.156C197.145 59.564 197.307 59.888 197.631 60.128C197.955 60.368 198.405 60.488 198.981 60.488ZM212.002 52.28C213.214 52.28 214.186 52.634 214.918 53.342C215.65 54.05 216.016 55.1 216.016 56.492V62H213.766V56.78C213.766 55.94 213.568 55.31 213.172 54.89C212.776 54.458 212.212 54.242 211.48 54.242C210.652 54.242 209.998 54.494 209.518 54.998C209.038 55.49 208.798 56.204 208.798 57.14V62H206.548V52.388H208.69V53.63C209.062 53.186 209.53 52.85 210.094 52.622C210.658 52.394 211.294 52.28 212.002 52.28ZM223.368 62.126C222.372 62.126 221.478 61.916 220.686 61.496C219.894 61.076 219.276 60.494 218.832 59.75C218.388 58.994 218.166 58.142 218.166 57.194C218.166 56.246 218.388 55.4 218.832 54.656C219.276 53.912 219.888 53.33 220.668 52.91C221.46 52.49 222.36 52.28 223.368 52.28C224.316 52.28 225.144 52.472 225.852 52.856C226.572 53.24 227.112 53.792 227.472 54.512L225.744 55.52C225.468 55.076 225.12 54.746 224.7 54.53C224.292 54.302 223.842 54.188 223.35 54.188C222.51 54.188 221.814 54.464 221.262 55.016C220.71 55.556 220.434 56.282 220.434 57.194C220.434 58.106 220.704 58.838 221.244 59.39C221.796 59.93 222.498 60.2 223.35 60.2C223.842 60.2 224.292 60.092 224.7 59.876C225.12 59.648 225.468 59.312 225.744 58.868L227.472 59.876C227.1 60.596 226.554 61.154 225.834 61.55C225.126 61.934 224.304 62.126 223.368 62.126ZM238.313 57.248C238.313 57.404 238.301 57.626 238.277 57.914H230.735C230.867 58.622 231.209 59.186 231.761 59.606C232.325 60.014 233.021 60.218 233.849 60.218C234.905 60.218 235.775 59.87 236.459 59.174L237.665 60.56C237.233 61.076 236.687 61.466 236.027 61.73C235.367 61.994 234.623 62.126 233.795 62.126C232.739 62.126 231.809 61.916 231.005 61.496C230.201 61.076 229.577 60.494 229.133 59.75C228.701 58.994 228.485 58.142 228.485 57.194C228.485 56.258 228.695 55.418 229.115 54.674C229.547 53.918 230.141 53.33 230.897 52.91C231.653 52.49 232.505 52.28 233.453 52.28C234.389 52.28 235.223 52.49 235.955 52.91C236.699 53.318 237.275 53.9 237.683 54.656C238.103 55.4 238.313 56.264 238.313 57.248ZM233.453 54.08C232.733 54.08 232.121 54.296 231.617 54.728C231.125 55.148 230.825 55.712 230.717 56.42H236.171C236.075 55.724 235.781 55.16 235.289 54.728C234.797 54.296 234.185 54.08 233.453 54.08Z" fill="black"/>
</svg>
