<svg xmlns="http://www.w3.org/2000/svg" viewBox="0 0 516.57 272.44"><path d="M454.22,57.09a88.36,88.36,0,0,1,16,.23,86,86,0,0,1-1.9,19.29l-.08.59h-.06c-1.34,5.51-3.52,10.88-7.11,14.16C451.47,100.15,442,98,435,90.76l-9.33,8.51-1.22-1.33,9.33-8.51a19.69,19.69,0,0,1-5.14-11.55c-24.29,21.92-44.82,46.53-63.52,67.69,7,3.14,13,6.05,18,8.53,3.27-.32,10.28-.46,16.44,3,4.42,2.44,6.82,7.18,5.07,10.32s-8.38,2.82-11.42,1.1c-8.17-4.57-11.77-13.73-11.94-14.17-4.72-2.35-10.37-5.06-16.86-8q-4,4.56-8,8.89s0,.05,0,.08c.49,4.35-1.3,8.4-4.07,8.74a3.63,3.63,0,0,1-2.89-1.35c-5.22,5.48-10.34,10.52-15.38,14.95-.73.64-1.47,1.25-2.2,1.84,5-1.38,8.57-2,8.57-2a113,113,0,0,1,5,24.92l.13.77h-.09c.45,7.43-.24,15-3.48,20.48-8.71,14.72-21.46,15.65-33,9.28l-8.42,14.25-2-1.21,8.42-14.24c-11.14-7.06-16.46-18.69-7.76-33.4a25.23,25.23,0,0,1,6-6.7c-31.74,5-68.21-18.13-108-47.58a19.27,19.27,0,0,1-1.83,2.2,20.94,20.94,0,0,1-3.88-6.45c-4.95-3.7-10-7.49-15-11.31a28.92,28.92,0,0,1-3.35,5.93,29.43,29.43,0,0,1-4.49-11.86q-3.79-2.87-7.62-5.74a29.53,29.53,0,0,1-3.77,7.59,29.48,29.48,0,0,1-4.37-13.67c-12-8.92-24.3-17.71-36.77-25.88C78.21,60.18,35.68,47.11,0,40.24v232.2H128.1c-8.67-3.17-11.72-10.63-10.87-19l-12.52-1.65L105,250l12.51,1.65c1.62-9.93,8.19-17.15,21.12-15.45,13.32,1.75,27,22.69,27,22.69a86.25,86.25,0,0,1-16,11l-.49.32,0,0a44.36,44.36,0,0,1-5.54,2.34h34.95a474.41,474.41,0,0,1,77.11-22.79c2.37-2.27,7.79-6.71,14.79-7.78,5-.81,9.8,1.42,10.37,5s-4.84,7.4-8.3,7.92c-9.26,1.47-17.77-3.52-18.14-3.75a470.34,470.34,0,0,0-72.78,21.42H198a21.35,21.35,0,0,1-.69-4.55s7.17.07,11.64,4.55h17.7a28.79,28.79,0,0,1-5.4-12.38s8.31,1.27,14.14,7.1a11.27,11.27,0,0,1,3,5.28h13.49a12.55,12.55,0,0,1-5.21-2.9,28.75,28.75,0,0,1-7.21-14,29.1,29.1,0,0,1,13.93,7.31c3.07,3.12,4.24,7.31,2.4,9.16a2,2,0,0,1-.63.42h117a411,411,0,0,0,42.31-56.65l1,.48a415.15,415.15,0,0,1-41.88,56.17H377A23.85,23.85,0,0,1,380,267a28.21,28.21,0,0,1,4.16,5.47h13.54a11.66,11.66,0,0,1-4.62-4c-4.07-7.06-2.33-15.17-2.33-15.17S399,256.54,403,263.54c1.92,3.38,1.78,7.2-.32,8.9h71.13c-1.12-.79-1.77-1.31-1.77-1.31a59.42,59.42,0,0,1,8.06-10.71l.26-.32,0,0c2.77-2.77,6-5.16,9.3-5.8,8.85-1.72,13.68,3,15.22,9.76l8.57-1.67.24,1.22-8.57,1.67a14.48,14.48,0,0,1-.45,7.13h11.84V25.73C493.3,32.64,472.73,43.76,454.22,57.09Zm-70.37,89.06c-7.83,2.66-16.05-.66-16.05-.66s4.47-7.73,12.3-10.4c4.11-1.45,8.52-.21,9.59,2.84S386.7,145.2,383.85,146.15ZM122.36,100.81c2.17-2.87,8.69-1.64,11.46.5,7.37,5.57,9.71,15,9.87,15.67A467.94,467.94,0,0,0,215,157.05l-.35,1.06A473.29,473.29,0,0,1,141.82,117c-3.28-.14-10.25-1-15.87-5.27C121.92,108.71,120.19,103.69,122.36,100.81Zm33.35,26.83s-5.49,7-13.61,8.59c-4.28.88-8.47-1-9.11-4.13s4-6.79,6.92-7.33C148,123.21,155.71,127.64,155.71,127.64ZM71.86,115.71s18.48-9,25-3.46,6.16,13.81,10.86,20.42,9,1.33,9.88,13.44c.75,10.11,11.78,18.9,8.53,23l.11-.25c-10.56-4.16-20.43-12.06-29.17-20.95,9.56-3.65,20.55,2.68,20.69,2.74l.38-.67c-.14-.12-11.71-6.73-21.68-2.66-2.45-2.53-4.8-5.15-7.06-7.75a29.85,29.85,0,0,1,19.56-.32,23.51,23.51,0,0,1,7.5,4.08l.55-.59c-.15-.13-11.17-9.86-28.19-3.82-.81-1-1.63-1.91-2.41-2.87,9.65-4.93,21.07-2,21.19-2l.21-.81c-.13,0-12-3.08-21.91,2.12l0,0-.1.05c-1.72-2.15-3.43-4.33-5.1-6.52l.1-.09,0,0c8.21-7,22.58-3,22.72-2.92l.24-.79a38.33,38.33,0,0,0-8.64-1.24c-6.23-.17-11.34,1.31-14.86,4.3l0,0-.08.06C78,125.52,76,122.75,74,120l.14-.08,0,.06c12.81-7.55,25.91-2.37,26.05-2.31l.3-.7c-.13-.09-13.67-5.45-26.86,2.36l0,0-.1.06c-.72-1-1.45-2-2.16-3.07l.09-.12,0,0Zm2,5.58-.07.1c-1.06-1.47-2-2.88-3-4.2l.07-.1ZM36.73,52.71c18.1,10.8,21.7,26.35,24.93,40.09,1.69,7.25,3.27,14.09,6.88,19.22l.85,1.19c.66.93,1.33,1.91,2.06,2.91l-.09.13-.13-.22-.76.54.34.5-.07.1c-.82-1.17-1.61-2.26-2.34-3.33l-.85-1.19c-3.74-5.31-5.33-12.26-7.08-19.63-3.16-13.48-6.74-28.79-24.33-39.31ZM30.78,141.4c-9.69,2.77-19-.1-23-12.55-4.1-12.81,9-34.12,9-34.12a86.3,86.3,0,0,1,16.77,9.8l.5.32,0,.05c4.46,3.52,8.43,7.75,9.91,12.39,4,12.45-2,20.2-11.48,23.56l3.85,12.05-1.72.55ZM64.09,265.19l-5.85-6.48c-5.3,4.5-12,5.35-18-1.34-6.22-6.9-4-24-4-24a59.47,59.47,0,0,1,13.34,1.39l.4.06v0c3.8,1,7.5,2.48,9.76,5,6,6.69,4.5,13.26-.52,18.08L65,264.36Zm12.33-50.3,3.84,12-1.72.55-3.84-12c-9.69,2.77-19-.1-23-12.55-4.09-12.82,9.06-34.13,9.06-34.13a86.91,86.91,0,0,1,16.77,9.8l.5.32,0,.06c4.46,3.52,8.44,7.75,9.92,12.39C91.87,203.78,85.92,211.53,76.42,214.89Zm45.78-43.83c-12,2.64-12.9-8.19-23.36-4.76s-11.94-3.8-13.79-9.6-5.49-3.75-12-4.17-12.88-9.47-9.43-20a64.78,64.78,0,0,1,7.23-15.29c1,1.32,1.93,2.73,3,4.2-5.79,7.86-7.12,15.18-7.21,20a24.17,24.17,0,0,0,1.27,8.71l.76-.3c0-.12-4.94-12.89,5.67-27.73l.07-.1c1.4,1.91,2.81,3.87,4.29,5.81l-.06.14a35.51,35.51,0,0,0-4.48,17.19,23.65,23.65,0,0,0,1.08,7.32l.75-.31c0-.11-3.68-10.4,3.16-23.47l0,0,.06-.14c1.6,2.06,3.17,4.09,4.78,6.12l-.07.09,0,0c-5.26,7.65-2.69,17.49-2.66,17.57l.79-.23c0-.08-2.44-9.38,2.42-16.68,2,2.48,4.11,5,6.3,7.43-4.37,11.73,3.61,24,3.67,24.15l.68-.43c-.07-.13-7.64-11.8-3.76-23,9.86,11,21.5,21.23,34.07,26.24A8.6,8.6,0,0,1,122.2,171.06Zm35.49,33.44c1.12,6.87-1.59,13-10.44,14.77-9.12,1.77-22.67-9-22.67-9a59.42,59.42,0,0,1,8.06-10.71l.26-.32,0,0c2.78-2.78,6-5.16,9.3-5.8,8.85-1.73,13.69,3,15.23,9.76l8.56-1.67.24,1.22Zm5.25-54c-3.58,2.51-8.14,2.56-10-.06s.87-7.73,3.32-9.48c6.8-4.81,15.59-3.9,15.59-3.9S169.66,145.68,162.94,150.46Zm21.72,7.87c-3.18,1.6-6.77,1.3-7.77-.76s1.87-5.67,4.07-6.74c6-3,12.71-1.72,12.71-1.72S190.65,155.3,184.66,158.33Zm19.39,96.09c-2,6.37-7.58,10.36-7.58,10.36s-2.37-6.47-.4-12.89c1.06-3.39,3.76-5.78,5.94-5.08S204.8,252.09,204.05,254.42Zm24.26-10.94c-1.24,8.24-8,13.94-8,13.94s-4.74-7.57-3.53-15.73c.67-4.32,3.8-7.64,7-7.17S228.76,240.5,228.31,243.48Zm23-.58c-4.51,6.93-13,9.4-13,9.4s-1.26-8.84,3.24-15.77c2.33-3.69,6.57-5.44,9.3-3.7S252.94,240.39,251.29,242.9Zm2-36.64-.39.47,0,0c-4.13,4.08-8.92,7.58-13.82,8.5-13.12,2.46-20.23-4.55-22.44-14.61L203.87,203l-.34-1.81,12.7-2.39c-1.58-10.17,2.5-19.28,15.62-21.75,13.52-2.53,33.47,13.48,33.47,13.48A88.38,88.38,0,0,1,253.27,206.26ZM366.75,148.8a29.12,29.12,0,0,1,6.43,14.35c.49,4.35-1.18,8.38-3.77,8.7s-5.3-4.6-5.64-7.6A28.8,28.8,0,0,1,366.75,148.8Zm-5,118.2c-4.28-.75-7.75-3.37-7.46-5.81s5.63-3.55,8.58-3A30.84,30.84,0,0,1,377,265.11,28.86,28.86,0,0,1,361.78,267Zm11.32-13.13c-4.28-.76-7.75-3.49-7.44-6.1s5.65-3.83,8.6-3.31c8.12,1.38,14.1,7.23,14.1,7.23A28,28,0,0,1,373.1,253.87Zm17.2-18.49c-3.25-.55-5.83-3.17-5.52-5.78s4.42-4,6.68-3.63c6.2,1.07,10.64,6.62,10.64,6.62S396.5,236.45,390.3,235.38Zm21.05,16.13c-2.14.69-5.39-2.58-6.23-4.79a20.53,20.53,0,0,1-.46-12.17s5.78,3.74,8.17,9.8C414.09,247.55,413.46,250.87,411.35,251.51Zm33.39-120c6.88-11.09,16.62-11.59,25.34-6.55l6.65-10.73,1.53.95-6.65,10.73c8.38,5.56,12.26,14.52,5.38,25.6-7.08,11.42-31.78,15.25-31.78,15.25a86.15,86.15,0,0,1-3.43-19.09l-.09-.59h.07C441.54,141.36,442.18,135.59,444.74,131.46Zm55.07,85.84-12.3-2.91c-2.62,9.74-9.9,16.26-22.61,13.25-13.09-3.09-24.58-25.34-24.58-25.34a86.2,86.2,0,0,1,17-9.32l.53-.27,0,.06c5.31-2,11-3.23,15.73-2.11,12.71,3,16.29,12.1,14.27,22l12.31,2.91Z" fill="#007db9"/><path d="M59.69,239.8c-2.26-2.5-6-4-9.76-5l-1.58,11.31L54,252.39l1.49-10.69.78.1-1.58,11.36L59.05,258l-.58.53-8.41-9.33v.32l-11.64.41,0-.79,11.24-.4-8.38-9.29.59-.53,5.81,6.45,1.49-10.7.38.05a59.47,59.47,0,0,0-13.34-1.39s-2.2,17.14,4,24c6,6.69,12.73,5.84,18,1.34l5.85,6.48.92-.83-5.84-6.48C64.19,253.06,65.73,246.49,59.69,239.8Z" fill="#b2d235"/><path d="M49.93,234.78l-.4-.06.4.1Z" fill="#fff"/><path d="M47.66,245.37l-5.81-6.45-.59.53,8.38,9.29-11.24.4,0,.79,11.64-.41v-.32l8.41,9.33.58-.53-4.36-4.84,1.58-11.36-.78-.1L54,252.39l-5.65-6.26,1.58-11.31-.4-.1-.38-.05Z" fill="#fff"/><path d="M141.82,117a473.29,473.29,0,0,0,72.78,41.1l.35-1.06A467.94,467.94,0,0,1,143.69,117v0S143,117.06,141.82,117Z" fill="#b2d235"/><path d="M133,132.1c.64,3.17,4.83,5,9.11,4.13,8.12-1.55,13.61-8.59,13.61-8.59s-7.68-4.43-15.8-2.87C137,125.31,132.37,128.88,133,132.1Z" fill="#b2d235"/><path d="M156.25,140.92c-2.45,1.75-5.18,6.86-3.32,9.48s6.43,2.57,10,.06c6.72-4.78,8.9-13.44,8.9-13.44S163.05,136.11,156.25,140.92Z" fill="#b2d235"/><path d="M161,116.91q-4-3-8.14-6.08a29.48,29.48,0,0,0,4.37,13.67A29.53,29.53,0,0,0,161,116.91Z" fill="#b2d235"/><path d="M176.44,128.58l-7.84-5.93a29.43,29.43,0,0,0,4.49,11.86A28.92,28.92,0,0,0,176.44,128.58Z" fill="#b2d235"/><path d="M197.16,144.14l-5.71-4.25a20.94,20.94,0,0,0,3.88,6.45A19.27,19.27,0,0,0,197.16,144.14Z" fill="#b2d235"/><path d="M181,150.83c-2.2,1.07-5.13,4.67-4.07,6.74s4.59,2.36,7.77.76c6-3,9-9.22,9-9.22S186.93,147.85,181,150.83Z" fill="#b2d235"/><path d="M126,111.74c5.62,4.3,12.59,5.13,15.87,5.27-8.64-6-13.48-9.81-13.62-9.91l.83-.76c.12.1,5.36,4.26,14.66,10.64-.16-.67-2.5-10.1-9.87-15.67-2.77-2.14-9.29-3.37-11.46-.5S121.92,108.71,126,111.74Z" fill="#b2d235"/><path d="M128.2,107.1c.14.1,5,3.94,13.62,9.91,1.17,0,1.88,0,1.88,0v0c-9.3-6.38-14.54-10.54-14.66-10.64Z" fill="#b2d235"/><path d="M78,178.94l-8.83,14,3.72,11.64,8.35-13.23,1,.61-8.87,14,2.87,9-1.09.34L69.57,198l-.17.43L53.79,192l.43-1,15.08,6.18-5.51-17.27,1.08-.35,3.83,12,8.35-13.23.47.29a86.91,86.91,0,0,0-16.77-9.8s-13.15,21.31-9.06,34.13c4,12.45,13.32,15.32,23,12.55l3.84,12,1.72-.55-3.84-12c9.5-3.36,15.45-11.11,11.48-23.56C86.42,186.69,82.44,182.46,78,178.94Z" fill="#ec1c24"/><path d="M78,178.88l-.5-.32.46.38Z" fill="#fff"/><path d="M68.7,191.5l-3.83-12-1.08.35,5.51,17.27L54.22,191l-.43,1,15.61,6.41.17-.43,5.53,17.33,1.09-.34-2.87-9,8.87-14-1-.61-8.35,13.23-3.72-11.64,8.83-14-.46-.38-.47-.29Z" fill="#fff"/><path d="M32.5,140.85C42,137.49,48,129.74,44,117.29c-1.48-4.64-5.45-8.87-9.91-12.39l-8.84,14L29,130.52l8.35-13.23,1,.61-8.87,14,2.87,9-1.08.35L25.65,124l-.17.42L9.87,118l.43-1.06,15.08,6.19-5.51-17.28,1.09-.34,3.82,12,8.35-13.22.47.29a86.3,86.3,0,0,0-16.77-9.8S3.68,116,7.78,128.85c4,12.45,13.31,15.32,23,12.55l3.85,12,1.72-.55Z" fill="#00bcf1"/><path d="M34.1,104.85l-.5-.32.47.37Z" fill="#fff"/><path d="M24.78,117.46l-3.82-12-1.09.34,5.51,17.28L10.3,116.92,9.87,118l15.61,6.4.17-.42,5.54,17.33,1.08-.35-2.87-9,8.87-14-1-.61L29,130.52l-3.72-11.63,8.84-14-.47-.37-.47-.29Z" fill="#fff"/><path d="M381.16,154.34s.7-.13,1.87-.24c-4.93-2.48-11-5.39-18-8.53l-.75.85c6.49,2.9,12.14,5.61,16.86,8Z" fill="#b2d235"/><path d="M380.1,135.09c-7.83,2.67-12.3,10.4-12.3,10.4s8.22,3.32,16.05.66c2.85-1,6.9-5.11,5.84-8.22S384.21,133.64,380.1,135.09Z" fill="#b2d235"/><path d="M369.41,171.85c2.59-.32,4.26-4.35,3.77-8.7a29.12,29.12,0,0,0-6.43-14.35,28.8,28.8,0,0,0-3,15.45C364.11,167.25,366.81,172.17,369.41,171.85Z" fill="#b2d235"/><path d="M352.29,164.13c2.77-.34,4.56-4.39,4.07-8.74,0,0,0,0,0-.08q-3.51,3.85-7,7.47A3.63,3.63,0,0,0,352.29,164.13Z" fill="#b2d235"/><path d="M397.17,162.89c-.14-.07-5.9-3.47-16-8.51.17.44,3.77,9.6,11.94,14.17,3,1.72,9.66,2,11.42-1.1s-.65-7.88-5.07-10.32c-6.16-3.49-13.17-3.35-16.44-3,9.37,4.71,14.7,7.85,14.85,7.93Z" fill="#b2d235"/><path d="M381.18,154.38c10.09,5,15.85,8.44,16,8.51l.71-.86c-.15-.08-5.48-3.22-14.85-7.93-1.17.11-1.87.24-1.87.24Z" fill="#b2d235"/><path d="M91.3,143.56c-3.88,11.21,3.69,22.88,3.76,23l-.68.43c-.06-.15-8-12.42-3.67-24.15-2.19-2.45-4.29-4.95-6.3-7.43C79.55,142.72,82,152,82,152.1l-.79.23c0-.08-2.6-9.92,2.66-17.57l0,0h0c-1.66-2.05-3.23-4.07-4.75-6.06-6.84,13.07-3.18,23.36-3.16,23.47l-.75.31a23.65,23.65,0,0,1-1.08-7.32A35.51,35.51,0,0,1,78.58,128c-1.52-2-3-4-4.3-5.85-10.61,14.84-5.72,27.61-5.67,27.73l-.76.3a24.17,24.17,0,0,1-1.27-8.71c.09-4.78,1.42-12.1,7.21-20-1.06-1.47-2-2.88-3-4.2a64.78,64.78,0,0,0-7.23,15.29c-3.45,10.5,2.88,19.56,9.43,20s10.2-1.63,12,4.17,3.34,13,13.79,9.6,11.36,7.4,23.36,4.76a8.6,8.6,0,0,0,3.17-1.26C112.8,164.79,101.16,154.56,91.3,143.56Z" fill="#b2d235"/><path d="M73.65,119.27l0,0c13.19-7.81,26.73-2.45,26.86-2.36l-.3.7c-.14-.06-13.24-5.24-26,2.31,1.85,2.59,3.86,5.34,6,8.2l0,0,0,0c3.52-3,8.63-4.47,14.86-4.3a38.33,38.33,0,0,1,8.64,1.24l-.24.79c-.14-.06-14.51-4.1-22.72,2.92,1.61,2.13,3.34,4.31,5.09,6.5l0,0,0,0c9.93-5.2,21.78-2.14,21.91-2.12l-.21.81c-.12,0-11.54-3-21.19,2,.78,1,1.6,1.9,2.41,2.87,17-6,28,3.69,28.19,3.82l-.55.59a23.51,23.51,0,0,0-7.5-4.08,29.85,29.85,0,0,0-19.56.32c2.26,2.6,4.61,5.22,7.06,7.75,10-4.07,21.54,2.54,21.68,2.66l-.38.67c-.14-.06-11.13-6.39-20.69-2.74,8.74,8.89,18.61,16.79,29.17,20.95l-.11.25c3.25-4.15-7.78-12.94-8.53-23-.88-12.11-5.16-6.85-9.88-13.44s-4.36-14.85-10.86-20.42-25,3.46-25,3.46l-.36.46c.69,1,1.43,2,2.18,3.08Z" fill="#b2d235"/><path d="M60.47,93c1.75,7.37,3.34,14.32,7.08,19.63l.85,1.19c.73,1.07,1.52,2.16,2.34,3.33l.07-.1-.34-.5.76-.54.13.22.09-.13c-.73-1-1.4-2-2.06-2.91L68.54,112c-3.61-5.13-5.19-12-6.88-19.22-3.23-13.74-6.83-29.29-24.93-40.09l-.59,1C53.73,64.23,57.31,79.54,60.47,93Z" fill="#b2d235"/><path d="M78.64,127.82c-1.48-1.94-2.89-3.9-4.29-5.81l-.07.1c1.34,1.89,2.79,3.82,4.3,5.85Z" fill="#b2d235"/><path d="M74.28,122.11c1.34,1.89,2.78,3.85,4.3,5.85C77.07,125.93,75.62,124,74.28,122.11Z" fill="#b2d235"/><path d="M83.84,134.74l.07-.09c-1.61-2-3.18-4.06-4.78-6.12l-.06.14,0,0h0C80.62,130.67,82.19,132.69,83.84,134.74Z" fill="#b2d235"/><path d="M83.84,134.74c-1.65-2.05-3.22-4.07-4.74-6.06h0c1.52,2,3.09,4,4.75,6.06Z" fill="#b2d235"/><path d="M74.19,120l0-.06L74,120c2,2.76,4,5.53,6.11,8.27l.08-.06c-2.16-2.86-4.2-5.63-6-8.22Z" fill="#b2d235"/><path d="M74.19,120h0c1.85,2.59,3.89,5.36,6,8.22l0,0C78.05,125.31,76,122.56,74.19,120Z" fill="#b2d235"/><path d="M71.39,116.26c.71,1,1.44,2,2.16,3.07l.1-.06-2.17-3.07,0,0,0,0Z" fill="#b2d235"/><path d="M73.65,119.27l0,0c-.75-1.07-1.49-2.1-2.18-3.08l0,0Z" fill="#b2d235"/><path d="M80.78,128.89l0,0-.1.09c1.67,2.19,3.38,4.37,5.1,6.52l.1-.05q-2.67-3.3-5.09-6.49Z" fill="#b2d235"/><path d="M80.78,128.89l0,0q2.41,3.2,5.09,6.49l0,0C84.12,133.2,82.39,131,80.78,128.89Z" fill="#b2d235"/><path d="M70.77,117.19c1,1.32,1.93,2.73,3,4.2l.07-.1-3-4.2Z" fill="#b2d235"/><path d="M424.4,97.94l1.22,1.33L435,90.76c7,7.22,16.52,9.39,26.16.6,3.59-3.28,5.77-8.65,7.11-14.16L451.85,75l-9,8.22,15.48,2.07-.15,1.13-16.43-2.19-7,6.35-.77-.84,13.42-12.24H447L446.36,63c-6.15,4.77-12.07,9.76-17.77,14.91a19.69,19.69,0,0,0,5.14,11.55Z" fill="#b2d235"/><path d="M461.45,64.7l.77.84L453,74l15.48,2.06-.07.54a86,86,0,0,0,1.9-19.29,88.36,88.36,0,0,0-16-.23q-3.42,2.46-6.75,5l.61,14.81Z" fill="#b2d235"/><path d="M468.28,77.2l.08-.59c0,.2-.09.39-.14.59Z" fill="#fff"/><path d="M447.42,77.51,434,89.75l.77.84,7-6.35,16.43,2.19.15-1.13-15.48-2.07,9-8.22,16.37,2.19c0-.2.1-.39.14-.59l.07-.54L453,74l9.27-8.47-.77-.84L448.08,76.91l-.61-14.81-1.11.87.6,14.55Z" fill="#fff"/><path d="M464.53,134.3l-15.46,2.23-.16-1.13L465.32,133l5-8,1,.6-9.58,15.44.44-.14,5.25,16-1.08.36-5.08-15.46-9.54,15.38-1-.6,6.62-10.67-15.46,2.23-.08-.54a86.15,86.15,0,0,0,3.43,19.09s24.7-3.83,31.78-15.25c6.88-11.08,3-20-5.38-25.6l6.65-10.73-1.53-.95-6.65,10.73c-8.72-5-18.46-4.54-25.34,6.55-2.56,4.13-3.2,9.9-3,15.56l16.34-2.35Z" fill="#00bcf1"/><path d="M441.78,147.62c0-.2,0-.4,0-.6h-.07Z" fill="#fff"/><path d="M441.86,148.16l15.46-2.23L450.7,156.6l1,.6,9.54-15.38,5.08,15.46,1.08-.36-5.25-16-.44.14,9.58-15.44-1-.6-5,8-16.41,2.36.16,1.13,15.46-2.23-6.43,10.37L441.76,147c0,.2,0,.4,0,.6Z" fill="#fff"/><path d="M299.16,198.42c-8.7,14.71-3.38,26.34,7.76,33.4l-8.42,14.24,2,1.21L309,233c11.56,6.37,24.31,5.44,33-9.28,3.24-5.49,3.93-13.05,3.48-20.48L324.1,206.8,316,220.56l20.2-3.35.24,1.48L315,222.24l-6.29,10.64-1.29-.76,12.13-20.49-.57.2L311.61,191l1.41-.5,7.08,20.12,12.08-20.42,1.29.76-8.38,14.16,20.2-3.35.12.71a113,113,0,0,0-5-24.92s-3.53.63-8.57,2a55.5,55.5,0,0,1-26.61,12.15A25.23,25.23,0,0,0,299.16,198.42Z" fill="#b2d235"/><path d="M345.54,203.25l-.13-.77c0,.26,0,.52,0,.78Z" fill="#fff"/><path d="M325.09,205.12,333.47,191l-1.29-.76L320.1,210.62,313,190.5l-1.41.5,7.33,20.83.57-.2-12.13,20.49,1.29.76L315,222.24l21.44-3.55-.24-1.48L316,220.56l8.14-13.76,21.35-3.54c0-.26,0-.52,0-.78l-.12-.71Z" fill="#fff"/><path d="M505.18,265.31l8.57-1.67-.24-1.22-8.57,1.67c-1.54-6.78-6.37-11.48-15.22-9.76-3.3.64-6.53,3-9.3,5.8l8.88,7.18,8.28-1.61-8.4-6.79.49-.61,8.92,7.2,6.4-1.25.15.78-12.33,2.4.28.15-2.69,4.86h14.33A14.48,14.48,0,0,0,505.18,265.31Z" fill="#b2d235"/><path d="M479.92,269.94l-.15-.77,8.52-1.66-8.4-6.79.24-.3a59.42,59.42,0,0,0-8.06,10.71s.65.52,1.77,1.31H489.5l2.71-4.89Z" fill="#b2d235"/><path d="M480.39,260.1l-.26.32.29-.29Z" fill="#fff"/><path d="M492.81,267.43l12.33-2.4-.15-.78-6.4,1.25-8.92-7.2-.49.61,8.4,6.79-8.28,1.61-8.88-7.18-.29.29-.24.3,8.4,6.79-8.52,1.66.15.77,12.29-2.39-2.71,4.89h.9l2.69-4.86Z" fill="#fff"/><path d="M157.46,203.28c-1.54-6.79-6.38-11.49-15.23-9.76-3.3.64-6.52,3-9.3,5.8l8.88,7.18,8.28-1.61-8.4-6.79.5-.62,8.91,7.21,6.4-1.25.15.78-12.33,2.4.28.15L140,217l-.69-.38,5.45-9.84-12.29,2.39-.15-.77,8.52-1.66-8.4-6.79.24-.3a59.42,59.42,0,0,0-8.06,10.71s13.55,10.72,22.67,9c8.85-1.73,11.56-7.9,10.44-14.77l8.57-1.67-.24-1.22Z" fill="#b2d235"/><path d="M132.9,199.29l-.26.32.29-.29Z" fill="#fff"/><path d="M140.8,206.7l-8.52,1.66.15.77,12.29-2.39-5.45,9.84.69.38,5.64-10.19-.28-.15,12.33-2.4-.15-.78-6.4,1.25-8.91-7.21-.5.62,8.4,6.79-8.28,1.61-8.88-7.18-.29.29-.24.3Z" fill="#fff"/><path d="M414.48,215.79a411,411,0,0,1-42.31,56.65h1.44a415.15,415.15,0,0,0,41.88-56.17Z" fill="#b2d235"/><path d="M380,267a23.85,23.85,0,0,0-2.95,5.47h7.11A28.21,28.21,0,0,0,380,267Z" fill="#b2d235"/><path d="M403,263.54c-4-7-12.33-10.31-12.33-10.31S389,261.34,393,268.4a11.66,11.66,0,0,0,4.62,4h5.06C404.81,270.74,405,266.92,403,263.54Z" fill="#b2d235"/><path d="M354.32,261.19c-.29,2.44,3.18,5.06,7.46,5.81A28.86,28.86,0,0,0,377,265.11a30.84,30.84,0,0,0-14.12-6.95C360,257.64,354.62,258.75,354.32,261.19Z" fill="#b2d235"/><path d="M365.66,247.77c-.31,2.61,3.16,5.34,7.44,6.1a28,28,0,0,0,15.26-2.18s-6-5.85-14.1-7.23C371.31,243.94,366,245.17,365.66,247.77Z" fill="#b2d235"/><path d="M391.46,226c-2.26-.38-6.36,1-6.68,3.63s2.27,5.23,5.52,5.78c6.2,1.07,11.8-2.79,11.8-2.79S397.66,227,391.46,226Z" fill="#b2d235"/><path d="M404.66,234.55a20.53,20.53,0,0,0,.46,12.17c.84,2.21,4.09,5.48,6.23,4.79s2.74-4,1.48-7.16C410.44,238.29,404.66,234.55,404.66,234.55Z" fill="#b2d235"/><path d="M254.24,251s.47-.54,1.32-1.35a474.41,474.41,0,0,0-77.11,22.79h3.05A470.34,470.34,0,0,1,254.28,251Z" fill="#ec1c24"/><path d="M250.8,232.83c-2.73-1.74-7,0-9.3,3.7-4.5,6.93-3.24,15.77-3.24,15.77s8.52-2.47,13-9.4C252.94,240.39,253.55,234.61,250.8,232.83Z" fill="#ec1c24"/><path d="M223.78,234.52c-3.18-.47-6.31,2.85-7,7.17-1.21,8.16,3.53,15.73,3.53,15.73s6.74-5.7,8-13.94C228.76,240.5,227,235,223.78,234.52Z" fill="#ec1c24"/><path d="M253.42,262.86a29.1,29.1,0,0,0-13.93-7.31,28.75,28.75,0,0,0,7.21,14,12.55,12.55,0,0,0,5.21,2.9h3.28a2,2,0,0,0,.63-.42C257.66,270.17,256.49,266,253.42,262.86Z" fill="#ec1c24"/><path d="M221.26,260.06a28.79,28.79,0,0,0,5.4,12.38h11.76a11.27,11.27,0,0,0-3-5.28C229.57,261.33,221.26,260.06,221.26,260.06Z" fill="#ec1c24"/><path d="M198,272.44h11c-4.47-4.48-11.64-4.55-11.64-4.55A21.35,21.35,0,0,0,198,272.44Z" fill="#ec1c24"/><path d="M202,246.81c-2.18-.7-4.88,1.69-5.94,5.08-2,6.42.4,12.89.4,12.89s5.58-4,7.58-10.36C204.8,252.09,204.24,247.49,202,246.81Z" fill="#ec1c24"/><path d="M272.11,247.82c-.16,0-6.78.92-17.83,3.2.37.23,8.88,5.22,18.14,3.75,3.46-.52,8.86-4.36,8.3-7.92s-5.39-5.79-10.37-5c-7,1.07-12.42,5.51-14.79,7.78,10.29-2.09,16.41-2.92,16.57-3Z" fill="#ec1c24"/><path d="M254.24,251l0,0c11-2.28,17.67-3.17,17.83-3.2l0-1.12c-.16,0-6.28.86-16.57,3C254.71,250.46,254.24,251,254.24,251Z" fill="#ec1c24"/><path d="M231.85,177c-13.12,2.47-17.2,11.58-15.62,21.75l-12.7,2.39.34,1.81,12.7-2.38c2.21,10.06,9.32,17.07,22.44,14.61,4.9-.92,9.69-4.42,13.82-8.5L239.76,196l-12.26,2.3,12.36,10.15-.74.9L226,198.55l-9.49,1.78-.21-1.15,18.27-3.43-.41-.23,8.46-15,1,.57-8.18,14.51,18.21-3.41.22,1.14-12.63,2.37,12.36,10.14-.35.44a88.38,88.38,0,0,0,12-15.78S245.37,174.47,231.85,177Z" fill="#b2d235"/><path d="M252.88,206.73l.39-.47-.44.42Z" fill="#fff"/><path d="M241.26,195.68l12.63-2.37-.22-1.14-18.21,3.41,8.18-14.51-1-.57-8.46,15,.41.23-18.27,3.43.21,1.15,9.49-1.78,13.12,10.76.74-.9L227.5,198.26l12.26-2.3,13.07,10.72.44-.42.35-.44Z" fill="#fff"/><path d="M473.65,190.66c-4.74-1.12-10.42.1-15.73,2.11l7.43,14.78,11.89,2.81-7-14,1-.51,7.46,14.83,9.19,2.18-.26,1.11-17.7-4.19.27.37-13.53,10.07-.68-.91,13.07-9.74-17.65-4.17.27-1.11,12.23,2.89-7-14,.49-.25a86.2,86.2,0,0,0-17,9.32s11.49,22.25,24.58,25.34c12.71,3,20-3.51,22.61-13.25l12.3,2.91.42-1.75-12.31-2.91C489.94,202.76,486.36,193.67,473.65,190.66Z" fill="#ec1c24"/><path d="M457.89,192.71l-.53.27.56-.21Z" fill="#fff"/><path d="M463.9,207.2l-12.23-2.89-.27,1.11,17.65,4.17L456,219.33l.68.91,13.53-10.07-.27-.37,17.7,4.19.26-1.11-9.19-2.18-7.46-14.83-1,.51,7,14-11.89-2.81-7.43-14.78-.56.21-.49.25Z" fill="#fff"/><path d="M140.17,256.17l-12.1-1.59,8.4,13.17-1,.62-8.91-14-9.35-1.24.14-1.13,18,2.37-.31-.33,12.43-11.38.77.84-12,11,18,2.36-.15,1.13-12.45-1.63,8.4,13.17-.47.29a86.25,86.25,0,0,0,16-11s-13.66-20.94-27-22.69c-12.93-1.7-19.5,5.52-21.12,15.45L105,250l-.24,1.79,12.52,1.65c-.85,8.41,2.2,15.87,10.87,19h15.4A44.36,44.36,0,0,0,149,270.1Z" fill="#b2d235"/><path d="M149.08,270.15l.49-.32-.53.27Z" fill="#fff"/><path d="M141.64,256.37,154.09,258l.15-1.13-18-2.36,12-11-.77-.84-12.43,11.38.31.33-18-2.37-.14,1.13,9.35,1.24,8.91,14,1-.62-8.4-13.17,12.1,1.59L149,270.1l.53-.27.47-.29Z" fill="#fff"/></svg>